<svg width="148" height="164" viewBox="0 0 148 164" fill="none" xmlns="http://www.w3.org/2000/svg">
<path fill-rule="evenodd" clip-rule="evenodd" d="M5.06325 122.297C20.9814 122.959 28.9777 119.751 32.9087 114.267C36.8445 108.784 36.6317 101.315 36.4142 93.8439C36.2356 88.6801 36.0537 83.4111 37.0162 78.8772C38.018 74.1454 40.2939 70.0803 45.0953 67.3425C46.2382 66.7204 47.9149 66.3507 49.9976 66.4069C52.8559 66.3654 56.5877 66.8794 60.8624 67.8572C77.1431 71.3326 101.807 80.2657 117.801 82.2003C121.463 82.6951 124.67 82.751 127.167 82.296C129.352 81.8587 130.969 81.0553 131.729 79.5962C132.347 78.4111 132.374 76.8528 131.863 74.7279C130.979 71.1427 128.443 66.4727 123.962 60.2191C120.039 54.7466 115.289 49.7742 111.223 44.3663C104.852 35.9183 98.4537 27.1497 93.9788 18.0797C93.7028 17.4813 93.9322 16.8147 94.4999 16.5548C95.0957 16.1984 95.776 16.4912 96.052 17.0896C100.462 26.0372 106.781 34.6795 113.064 42.999C117.17 48.3137 121.909 53.3861 125.845 58.8623C130.575 65.3937 133.18 70.3962 134.103 74.2008C134.822 76.9053 134.627 79.0439 133.783 80.6884C132.929 82.3298 131.349 83.561 129.184 84.2123C126.315 85.0859 122.285 85.1157 117.512 84.5216C101.464 82.5719 76.7097 73.6126 60.3721 70.1214C56.2912 69.1974 52.7215 68.7288 50.0111 68.7071C48.4082 68.6796 47.121 68.8443 46.2144 69.4277C42.0842 71.7255 40.1563 75.2602 39.276 79.3994C38.3576 83.7369 38.5618 88.8034 38.7116 93.8548C38.9741 101.755 38.9963 109.799 34.7931 115.625C30.5862 121.45 22.0719 125.349 4.97755 124.57C4.32198 124.597 3.82778 124.042 3.84992 123.422C3.87207 122.802 4.43458 122.227 5.06325 122.297Z" fill="white"/>
<path fill-rule="evenodd" clip-rule="evenodd" d="M5.04005 125.761C5.16935 125.901 5.54046 126.213 5.8647 126.407C7.41054 127.463 9.89854 128.779 10.6221 129.189C16.9065 133.229 24.1194 137.11 31.4847 139.154C32.1022 139.326 32.4676 139.95 32.305 140.531C32.1155 141.209 31.4797 141.554 30.8622 141.383C23.2838 139.279 15.8738 135.239 9.36269 131.24C8.65515 130.731 6.12733 129.403 4.55485 128.34C3.98508 127.973 3.52325 127.636 3.25255 127.352C3.03997 127.084 2.91083 126.84 2.8496 126.614C2.65934 126.144 2.67558 125.522 2.85634 124.946C3.06643 124.273 3.50556 123.56 4.10094 122.891C5.30165 121.45 7.19931 119.889 8.70488 118.637C9.56447 117.936 10.3064 117.307 10.6019 116.867C13.1401 113.084 12.9319 108.121 9.11998 103.306C8.73114 102.78 8.81184 102.071 9.31199 101.688C9.81215 101.305 10.54 101.403 10.957 101.832C15.5066 107.687 15.5949 113.557 12.5374 118.135C11.7881 119.284 8.82896 121.385 6.74712 123.416C6.12873 124.08 5.60852 124.666 5.28489 125.203C5.18387 125.383 5.12427 125.471 5.06563 125.664C5.06321 125.663 5.03279 125.759 5.04005 125.761Z" fill="white"/>
</svg>
