<svg width="186" height="166" viewBox="0 0 186 166" fill="none" xmlns="http://www.w3.org/2000/svg">
<path fill-rule="evenodd" clip-rule="evenodd" d="M77.0777 40.794C91.0253 24.4227 108.241 10.6328 128.004 7.29507C135.263 6.07064 142.522 6.99453 149.949 7.86128C150.602 7.93764 151.072 8.53083 150.994 9.18272C150.918 9.834 150.326 10.3049 149.675 10.2279C142.473 9.3868 135.436 8.45689 128.403 9.64479C108.938 12.9305 92.074 26.7001 78.4166 42.8944C78.5176 43.0502 78.6211 43.2054 78.7245 43.3606C80.9994 46.7717 81.6114 52.4543 81.0035 58.7527C80.1235 67.8956 76.7575 78.3538 72.9165 84.6495C71.1459 87.5547 69.2279 89.5903 67.4338 90.3825C65.9394 91.0441 64.4881 90.9686 63.1372 90.0302C62.0247 89.2539 61.2047 88.1081 60.6703 86.6531C59.9581 84.7108 59.7523 82.1802 59.963 79.3125C60.7424 68.7019 67.1696 53.324 71.3968 47.8223C72.7209 46.0985 74.0796 44.3918 75.476 42.7044C74.8504 41.716 74.2494 40.7732 73.5938 39.9293C72.6314 38.6906 71.5594 37.6759 70.0566 37.1354C67.2834 36.1366 64.3937 36.6006 61.6224 37.7757C57.1844 39.6544 53.0518 43.341 50.0809 46.3523C33.3702 63.2878 28.9424 86.2406 29.0469 108.078C29.1509 130.162 33.9003 151.131 35.5396 163.803C35.6225 164.455 35.1617 165.055 34.5103 165.137C33.8597 165.223 33.2615 164.761 33.1763 164.11C31.5288 151.368 26.7703 130.288 26.6642 108.09C26.5585 85.6444 31.2095 62.0863 48.3863 44.6771C51.5485 41.4758 55.9712 37.5829 60.6934 35.581C64.033 34.1691 67.5219 33.6914 70.8607 34.8936C72.8074 35.5945 74.2312 36.8686 75.4736 38.4669C76.0305 39.1836 76.5533 39.9711 77.0777 40.794ZM76.8259 44.8084C78.7973 47.8856 79.1713 52.947 78.633 58.524C77.7875 67.3097 74.5734 77.3603 70.8843 83.4111C69.647 85.4376 68.3771 87.004 67.1134 87.846C66.2008 88.4562 65.313 88.6432 64.4987 88.0753C63.5616 87.4223 62.9906 86.3447 62.6512 85.0014C62.2584 83.454 62.1841 81.5692 62.3388 79.4845C63.0863 69.3085 69.2307 54.5484 73.2841 49.2745C74.4383 47.7743 75.6199 46.2831 76.8259 44.8084Z" fill="#DBDBDB"/>
<path fill-rule="evenodd" clip-rule="evenodd" d="M152.765 10.9196C152.549 10.413 152.111 9.81178 151.623 9.18756C150.522 7.77361 149.104 6.32876 148.456 5.6196C148.014 5.13303 148.048 4.37884 148.534 3.93562C149.021 3.49239 149.774 3.52947 150.218 4.01543C151.008 4.88273 152.886 6.79948 154.066 8.48573C154.673 9.35228 155.094 10.1858 155.223 10.8323C155.347 11.4672 155.203 11.954 154.92 12.3473C154.621 12.7608 154.08 13.1012 153.286 13.283C152.414 13.4822 151.108 13.5312 149.726 13.7859C148.566 13.9986 147.332 14.3609 146.35 15.2236C145.857 15.6589 145.103 15.612 144.67 15.1169C144.237 14.6248 144.283 13.8706 144.778 13.4383C146.618 11.8169 149.086 11.418 151.059 11.1941C151.647 11.128 152.364 10.9987 152.765 10.9196Z" fill="#DBDBDB"/>
</svg>
