<svg width="43" height="42" viewBox="0 0 43 42" fill="none" xmlns="http://www.w3.org/2000/svg">
<path fill-rule="evenodd" clip-rule="evenodd" d="M3.83181 22.0429C5.1673 16.6156 5.07984 11.3891 5.23989 5.88404C5.271 4.80894 4.42602 3.91513 3.35362 3.88274C2.28057 3.85036 1.38504 4.69881 1.35328 5.77391C1.20166 10.994 1.32414 15.9614 0.0566919 21.1167C-0.199908 22.1594 0.438365 23.2151 1.48032 23.4676C2.52162 23.7267 3.57586 23.0856 3.83181 22.0429Z" fill="#D2113A"/>
<path fill-rule="evenodd" clip-rule="evenodd" d="M15.178 32.5607C24.2381 24.2838 32.7746 13.6365 38.7412 2.88549C39.2615 1.9464 38.9226 0.76115 37.9843 0.24303C37.046 -0.275089 35.8615 0.0617177 35.3412 1.00081C29.5716 11.3956 21.3157 21.6932 12.555 29.6917C11.7632 30.4171 11.7081 31.6476 12.4319 32.4377C13.1557 33.2279 14.3862 33.2861 15.178 32.5607Z" fill="#D2113A"/>
<path fill-rule="evenodd" clip-rule="evenodd" d="M17.4731 41.602C25.7594 42.9685 34.3004 40.637 41.8351 37.3405C42.8181 36.9065 43.2665 35.7602 42.8369 34.7823C42.4067 33.7979 41.2591 33.351 40.2761 33.7784C33.414 36.7835 25.6532 39.0114 18.1061 37.7679C17.0473 37.5931 16.0462 38.3119 15.8719 39.3676C15.697 40.4233 16.4149 41.4271 17.4731 41.602Z" fill="#D2113A"/>
</svg>
