<svg width="29" height="1758" viewBox="0 0 29 1758" fill="none" xmlns="http://www.w3.org/2000/svg">
<mask id="path-1-inside-1_645_4178" fill="white">
<path d="M0 20C0 8.9543 8.95431 0 20 0H29V1758H20C8.95431 1758 0 1749.05 0 1738V20Z"/>
</mask>
<path d="M-2 20C-2 7.84974 7.84974 -2 20 -2H29V2H20C10.0589 2 2 10.0589 2 20H-2ZM29 1760H20C7.84974 1760 -2 1750.15 -2 1738H2C2 1747.94 10.0589 1756 20 1756H29V1760ZM20 1760C7.84974 1760 -2 1750.15 -2 1738V20C-2 7.84974 7.84974 -2 20 -2V2C10.0589 2 2 10.0589 2 20V1738C2 1747.94 10.0589 1756 20 1756V1760ZM29 0V1758V0Z" fill="#DBDBDB" mask="url(#path-1-inside-1_645_4178)"/>
</svg>
