<svg width="141" height="99" viewBox="0 0 141 99" fill="none" xmlns="http://www.w3.org/2000/svg">
<path fill-rule="evenodd" clip-rule="evenodd" d="M39.1612 19.9792C39.0539 21.162 38.9554 22.1804 38.9006 22.7183C38.5589 25.9908 38.6966 34.2219 36.8451 39.9708C35.434 44.3573 32.8642 47.3163 28.5554 46.657C24.639 46.0577 21.9469 42.4087 20.3829 37.1964C17.0169 25.9785 18.5923 7.51765 20.5085 2.06344C20.718 1.46812 21.368 1.15518 21.9633 1.36469C22.556 1.57309 22.8689 2.22309 22.6594 2.81841C20.8219 8.05293 19.336 25.7722 22.5672 36.5416C23.8307 40.7508 25.7379 43.9186 28.9017 44.4021C32.0239 44.8807 33.6508 42.4528 34.6737 39.2728C36.4767 33.6783 36.3005 25.6679 36.6314 22.4813C36.8399 20.4838 37.42 12.8431 37.6275 12.2002C37.8866 11.395 38.5502 11.3649 38.7687 11.3714C38.938 11.3762 39.7807 11.4547 39.8987 12.4849C41.5889 27.1727 54.3488 48.5414 71.7343 62.1593C88.9669 75.6577 110.821 81.5279 130.994 65.2443C131.485 64.8497 132.203 64.9266 132.599 65.4147C132.994 65.9054 132.917 66.6242 132.426 67.0188C111.289 84.0801 88.3819 78.0972 70.3286 63.9563C55.1131 52.039 43.4017 34.3166 39.1612 19.9792Z" fill="#D2113A"/>
<path fill-rule="evenodd" clip-rule="evenodd" d="M130.548 66.835C127.858 66.8225 125.18 66.8955 122.49 66.674C115.324 66.0849 108.002 63.955 101.924 60.0639C101.393 59.7222 101.24 59.0169 101.578 58.4874C101.92 57.9562 102.625 57.8032 103.155 58.1412C108.92 61.8376 115.877 63.8412 122.676 64.3994C125.755 64.6515 128.822 64.5123 131.906 64.5667C132.059 64.5713 133.4 64.554 133.684 64.6281C134.346 64.7968 134.512 65.2895 134.56 65.5273C134.602 65.7256 134.606 65.9731 134.497 66.2581C134.406 66.4916 134.13 66.8942 133.647 67.3541C132.102 68.8319 128.006 71.762 127.384 72.3142C120.259 78.642 114.692 85.7254 108.645 93.0362C108.241 93.5201 107.521 93.5891 107.036 93.1886C106.551 92.7881 106.485 92.069 106.886 91.584C113.009 84.1801 118.656 77.0149 125.869 70.6112C126.295 70.2302 128.77 68.2506 130.548 66.835Z" fill="#D2113A"/>
</svg>
