<svg width="130" height="130" viewBox="0 0 130 130" fill="none" xmlns="http://www.w3.org/2000/svg">
<path fill-rule="evenodd" clip-rule="evenodd" d="M55.2709 66.9658C52.5906 64.656 50.8137 62.354 49.5601 60.4963C37.6426 42.6836 47.7375 24.8139 61.552 12.1395C65.2515 8.74156 72.0718 4.78357 78.3509 4.11752C82.7629 3.64767 86.9072 4.76694 89.6763 8.60039C92.7108 12.7682 92.8057 18.6225 91.3021 24.6785C89.1343 33.4394 83.6591 42.6289 79.7202 47.3807C75.1753 52.8603 67.2536 60.5552 58.5584 67.0411C61.6456 69.3048 65.7175 71.4913 71.1803 73.1344C73.6057 73.8734 76.5489 74.081 79.6791 73.8756C79.7833 69.1005 80.8363 64.1327 82.9382 59.1776C84.7108 55.0148 90.0721 46.9748 96.0559 42.3914C100.33 39.1231 104.925 37.6446 108.874 39.957C113.774 42.8358 114.718 47.2859 113.578 51.9494C111.976 58.5167 106.08 65.5031 102.037 68.4892C97.3303 71.9609 89.2365 74.8168 81.6977 75.6668C82.195 91.8206 94.1374 105.282 112.29 107.037C112.829 107.095 113.231 107.584 113.19 108.127C113.132 108.679 112.634 109.085 112.095 109.027C92.8892 107.167 80.2254 92.9384 79.6791 75.8457C76.347 76.0564 73.1936 75.8368 70.6014 75.0493C64.5849 73.2354 60.1635 70.7931 56.8716 68.2776C55.2221 69.4648 53.5482 70.6023 51.8612 71.6708C44.2874 76.4737 36.5916 79.7683 30.3961 79.5995C16.079 79.2114 7.15499 68.9623 3.70325 56.3927C0.28904 43.942 2.26597 29.2563 9.53993 19.898C9.87931 19.462 10.5142 19.3806 10.9461 19.7211C11.3781 20.0619 11.4593 20.6894 11.1198 21.1253C4.19739 30.0306 2.37189 44.0205 5.63219 55.8621C8.85503 67.585 17.0991 77.2366 30.4446 77.6028C36.345 77.7534 43.5922 74.5451 50.7917 69.981C52.291 69.0307 53.7827 68.0226 55.2709 66.9658ZM81.6971 73.6952C81.8283 69.2268 82.8169 64.5884 84.7893 59.9548C86.4756 55.9922 91.5607 48.3501 97.2785 43.976C100.822 41.2646 104.586 39.7595 107.856 41.6846C111.86 44.0248 112.558 47.6793 111.63 51.4785C110.155 57.5929 104.617 64.0967 100.844 66.8824C96.4249 70.1463 88.798 72.8696 81.6971 73.6952ZM56.9315 65.7593C54.2293 63.4884 52.4633 61.2088 51.2251 59.3827C39.9225 42.4955 49.8109 25.6279 62.9043 13.6131C66.3488 10.4467 72.6951 6.73248 78.5639 6.10543C82.2395 5.7187 85.7427 6.57159 88.061 9.774C90.7815 13.5077 90.7101 18.7694 89.3684 24.1932C87.2764 32.6481 81.9744 41.5221 78.1783 46.1055C73.6335 51.5855 65.6655 59.3109 56.9315 65.7593Z" fill="#D2113A"/>
<path fill-rule="evenodd" clip-rule="evenodd" d="M111.29 107.846C110.542 107.151 108.398 105.145 108.082 104.832C107.203 103.953 106.887 103.387 106.63 102.777C106.43 102.283 106.29 101.744 105.802 100.87C105.528 100.39 105.719 99.7759 106.202 99.5095C106.685 99.2431 107.285 99.4249 107.56 99.9043C107.99 100.702 108.193 101.244 108.364 101.72C108.569 102.266 108.75 102.681 109.498 103.418C109.859 103.78 112.084 105.576 112.929 106.595C113.371 107.125 113.51 107.618 113.491 107.873C113.464 108.237 113.297 108.65 112.924 109.059C112.443 109.582 111.518 110.2 110.498 110.917C109.537 111.588 108.466 112.368 107.656 113.307C106.98 114.1 106.501 115.005 106.577 116.084C106.62 116.633 106.219 117.111 105.668 117.155C105.117 117.198 104.631 116.788 104.588 116.238C104.451 114.616 105.113 113.208 106.142 112.005C107.054 110.94 108.252 110.043 109.351 109.278C110.005 108.818 110.624 108.408 111.078 108.041C111.152 107.983 111.221 107.914 111.29 107.846Z" fill="#D2113A"/>
</svg>
