<svg width="29" height="1179" viewBox="0 0 29 1179" fill="none" xmlns="http://www.w3.org/2000/svg">
<mask id="path-1-inside-1_645_4179" fill="white">
<path d="M0 20C0 8.95432 8.95431 0 20 0H29V1179H20C8.95431 1179 0 1170.05 0 1159V20Z"/>
</mask>
<path d="M-2 20C-2 7.84974 7.84974 -2 20 -2H29V2H20C10.0589 2 2 10.0589 2 20H-2ZM29 1181H20C7.84974 1181 -2 1171.15 -2 1159H2C2 1168.94 10.0589 1177 20 1177H29V1181ZM20 1181C7.84974 1181 -2 1171.15 -2 1159V20C-2 7.84974 7.84974 -2 20 -2V2C10.0589 2 2 10.0589 2 20V1159C2 1168.94 10.0589 1177 20 1177V1181ZM29 0V1179V0Z" fill="#DBDBDB" mask="url(#path-1-inside-1_645_4179)"/>
</svg>
