<svg width="61" height="50" viewBox="0 0 61 50" fill="none" xmlns="http://www.w3.org/2000/svg">
<path fill-rule="evenodd" clip-rule="evenodd" d="M16.8634 0.866082C16.7043 1.34243 16.6246 1.89025 16.6863 2.08347C16.7494 2.28155 16.7193 2.43477 16.6172 2.43477C16.5176 2.43477 16.4863 2.56503 16.5477 2.72416C16.6228 2.91877 16.5924 2.97233 16.4548 2.88781C16.3214 2.80572 16.2494 2.90172 16.2477 3.16363C16.245 3.54937 15.9116 4.26954 15.9006 3.91302C15.8945 3.71354 15.5578 4.1878 15.5536 4.40154C15.5522 4.47893 15.6288 4.49441 15.7239 4.43597C15.8239 4.37441 15.8517 4.44641 15.7896 4.6071C15.7307 4.75962 15.6394 4.84154 15.5866 4.78919C15.534 4.73667 15.3153 5.18327 15.1008 5.7817C14.8863 6.37996 14.4468 7.61178 14.1241 8.51908L13.5374 10.1685L12.8396 10.2935C12.4559 10.3624 11.8272 10.3775 11.4426 10.3272C10.5374 10.209 7.6253 10.6787 6.04034 11.1987C5.35765 11.4227 4.50818 11.6498 4.15258 11.7036C3.08807 11.8645 2.34891 12.3118 1.93371 13.0467L1.54594 13.7331L1.89524 14.1063C2.08965 14.3138 2.36045 14.4352 2.50538 14.3799C2.64891 14.3251 2.80433 14.3738 2.85101 14.4879C2.91412 14.6422 2.93947 14.6397 2.94979 14.4782C2.9573 14.3587 3.04384 14.2608 3.14175 14.2608C3.24734 14.2608 3.27234 14.4493 3.20293 14.7241C3.10626 15.1077 3.1358 15.1686 3.37444 15.0775C3.70905 14.9496 3.75451 15.1436 3.45888 15.4376C3.25084 15.6446 3.28563 15.6717 4.00765 15.8686C4.20416 15.9222 4.15451 16.0484 3.79699 16.4041C3.33195 16.8667 3.33143 16.8695 3.72531 16.8695C3.94314 16.8695 4.29034 16.7129 4.49681 16.5216C4.70311 16.3303 5.03737 16.1738 5.23929 16.1738C5.47531 16.1738 5.56132 16.1011 5.4802 15.9703C5.39524 15.8335 5.44908 15.8032 5.64471 15.878C5.82758 15.9477 5.93562 15.9016 5.93562 15.7538C5.93562 15.6246 6.11272 15.4615 6.32898 15.3914C6.54523 15.3213 6.76167 15.2469 6.80974 15.2256C7.54244 14.9037 8.03352 14.787 8.03352 14.9349C8.03352 15.1636 7.40415 15.6636 7.27635 15.5366C7.21202 15.4726 7.15939 15.5053 7.15939 15.6093C7.15939 15.7133 6.91779 15.8512 6.62233 15.9157C6.32705 15.9803 6.12968 16.0771 6.18387 16.1309C6.23789 16.1848 6.18457 16.3458 6.06517 16.4891C5.89856 16.6889 5.98842 16.6773 6.4524 16.4385C6.86394 16.2269 7.07758 16.1907 7.12251 16.3248C7.15887 16.4331 7.25817 16.5216 7.34331 16.5216C7.42845 16.5216 7.45502 16.4102 7.4024 16.2738C7.3281 16.0809 7.43614 16.0441 7.88876 16.107C8.27268 16.1606 8.39051 16.1345 8.23527 16.03C8.05712 15.9102 8.12093 15.8281 8.4975 15.6928C8.7711 15.5943 9.14558 15.4533 9.32967 15.3794C9.56498 15.285 9.62687 15.3055 9.53789 15.4486C9.40537 15.6618 9.63334 15.7093 10.5685 15.663C10.8772 15.6477 11.0092 15.6942 10.8893 15.7761C10.7379 15.8796 10.7503 16.003 10.9381 16.2585C11.1821 16.5905 11.1889 16.5877 11.1417 16.1742C11.1029 15.8336 11.176 15.7416 11.5006 15.7223C11.8375 15.7023 11.8895 15.7622 11.7998 16.0665C11.7402 16.2689 11.5865 16.9081 11.4585 17.4865C11.3305 18.0649 11.0083 19.1606 10.7423 19.9213C10.4763 20.682 10.2624 21.6367 10.2667 22.0433C10.2711 22.45 10.1947 22.7825 10.097 22.7825C9.99925 22.7825 9.96201 22.8934 10.0143 23.0289C10.1444 23.3663 9.73509 23.4905 9.09505 23.3079C8.68422 23.1906 3.57549 23.1832 3.57549 23.2999C3.57549 23.3139 3.01168 23.3524 2.32252 23.3849C1.63336 23.4174 0.823219 23.4979 0.52217 23.5637C-0.015241 23.6811 -0.0245068 23.7004 0.0130806 24.6242C0.0394791 25.2717 0.123919 25.5651 0.283709 25.5651C0.411506 25.5651 0.516052 25.6433 0.516052 25.739C0.516052 25.8346 0.649792 25.9129 0.813254 25.9129C1.04437 25.9129 1.06378 25.9593 0.900666 26.1216C0.785282 26.2364 0.690876 26.3798 0.690876 26.4402C0.690876 26.6077 2.39577 26.4699 2.7664 26.2725C2.94577 26.1771 3.14209 26.1485 3.20293 26.2089C3.2636 26.2692 3.31325 26.2178 3.31325 26.0945C3.31325 25.9287 3.37321 25.9198 3.54367 26.0605C3.71377 26.2009 3.87531 26.1804 4.16027 25.9818C4.39069 25.8212 4.80852 25.7357 5.19716 25.7694C5.64786 25.8085 5.83475 25.759 5.8045 25.6085C5.78055 25.4891 5.81989 25.3906 5.89191 25.3898C6.38177 25.3849 8.87722 25.0452 9.12617 24.9498C9.30449 24.8812 9.43212 24.9125 9.43212 25.0247C9.43212 25.1306 9.30537 25.2172 9.15047 25.2172C8.93631 25.2172 8.96673 25.296 9.2774 25.5463L9.68596 25.8753L9.04803 26.1405C8.49733 26.3694 7.43037 26.5372 7.15939 26.4378C6.84873 26.3237 6.28527 26.3438 6.28527 26.4689C6.28527 26.5515 5.8094 26.6049 5.22775 26.5875C4.64524 26.5701 4.08353 26.6423 3.97723 26.748C3.84489 26.8797 3.68143 26.8854 3.45765 26.7663C3.27811 26.6706 3.03755 26.6499 2.92321 26.7204C2.80888 26.7906 2.47619 26.8621 2.18388 26.8791C1.89157 26.896 1.5935 26.9204 1.52129 26.9332C1.34507 26.9644 2.04524 27.652 2.25311 27.652C2.34315 27.652 2.5914 27.9612 2.80503 28.3391C3.13807 28.9289 3.24105 29.0009 3.53038 28.8468C3.71587 28.748 3.9136 28.7129 3.96954 28.7687C4.02566 28.8245 4.22041 28.7362 4.40241 28.5724C4.63475 28.3631 4.76971 28.3332 4.8559 28.472C4.92338 28.5807 5.29226 28.695 5.67566 28.7261C6.05905 28.757 6.3531 28.8412 6.32898 28.9129C6.24803 29.1544 6.88877 29.6831 7.02565 29.4876C7.23369 29.1904 7.17845 29.047 6.89716 29.1543C6.75293 29.2094 6.63492 29.1748 6.63492 29.0776C6.63492 28.9804 6.98597 28.9061 7.41481 28.9125C7.84383 28.919 8.15397 28.9903 8.1038 29.0708C8.0538 29.1513 7.90799 29.2172 7.77967 29.2172C7.65135 29.2172 7.49925 29.3397 7.44139 29.4894C7.36079 29.6984 7.41744 29.7362 7.68492 29.6516C8.10135 29.5202 8.12792 29.7358 7.78859 30.4953C7.65397 30.7967 7.50048 31.1998 7.44768 31.3911C7.39471 31.5824 7.19471 32.2868 7.0031 32.9563C6.78457 33.7198 6.71621 34.2353 6.81971 34.3389C7.09034 34.6101 7.00625 34.8429 6.72233 34.6085C6.50275 34.4273 6.46009 34.4541 6.46009 34.7725C6.46009 34.9819 6.54611 35.3128 6.65118 35.5081C6.79349 35.773 6.78702 35.9137 6.6253 36.0619C6.45782 36.2156 6.433 36.1916 6.51621 35.9563C6.57548 35.7888 6.5566 35.652 6.47443 35.652C6.39226 35.652 6.28405 35.8673 6.23405 36.1302C6.18405 36.3933 6.08912 36.7773 6.02321 36.984C5.93335 37.2652 5.98405 37.3782 6.22531 37.4344C6.4809 37.4939 6.44821 37.537 6.06674 37.6429C5.80223 37.7165 5.58597 37.8547 5.58597 37.9502C5.58597 38.0459 5.71062 38.0765 5.86289 38.0182C6.03859 37.9513 6.11307 37.9919 6.06674 38.13C6.0267 38.2497 5.89121 38.3476 5.76552 38.3476C5.50398 38.3476 5.03999 39.7417 5.18038 40.1057C5.23178 40.2387 5.17356 40.3476 5.05101 40.3476C4.92863 40.3476 4.87671 40.3956 4.93562 40.4542C5.03842 40.5565 4.68405 41.6749 4.35188 42.2971C4.15485 42.666 4.31727 43.1302 4.64314 43.1302C4.77706 43.1302 4.88667 43.238 4.88667 43.3698C4.88667 43.5015 4.99541 43.6992 5.12845 43.809C5.31499 43.9629 5.39366 43.9479 5.47268 43.7434C5.6281 43.3403 5.91587 43.4258 6.03824 43.9114C6.12775 44.2656 6.22426 44.3258 6.56604 44.2404C6.82845 44.1749 6.98457 44.2117 6.98457 44.339C6.98457 44.4507 6.90677 44.4942 6.81167 44.4357C6.71464 44.3761 6.6823 44.4418 6.73789 44.586C6.79226 44.727 6.94436 44.8836 7.076 44.9336C7.25957 45.0037 7.2767 45.158 7.14978 45.5982C6.93964 46.3274 6.94069 46.6084 7.15397 46.6084C7.24698 46.6084 7.28107 46.499 7.22932 46.3651C7.17775 46.2314 7.21953 46.0702 7.32233 46.007C7.42495 45.9439 7.50904 45.7255 7.50904 45.5215C7.50904 45.1585 7.51429 45.1578 7.75712 45.4882C7.89366 45.6738 8.11009 45.8258 8.23789 45.8258C8.36586 45.8258 8.50992 46.078 8.55799 46.3863C8.66166 47.0515 8.96743 46.9434 9.15694 46.1747C9.22757 45.8882 9.37477 45.5467 9.48421 45.4156C9.59348 45.2846 9.69156 45.0102 9.70205 44.806C9.71236 44.6016 9.81271 44.2159 9.92477 43.9486C10.0368 43.6813 10.1772 43.2704 10.2365 43.0352C10.4132 42.3345 10.9506 41.3954 11.0987 41.5283C11.1744 41.5963 11.1777 41.5507 11.1059 41.4269C11.0342 41.3032 11.0805 41.073 11.209 40.9152C11.3756 40.7109 11.3798 40.6662 11.2241 40.7592C11.0853 40.8422 11.0055 40.7872 11.0055 40.6085C11.0055 40.4537 11.0842 40.3754 11.1804 40.4345C11.2765 40.4937 11.3552 40.4154 11.3552 40.2606C11.3552 40.1058 11.2961 40.0154 11.2241 40.0598C11.0104 40.1911 11.1029 38.5853 11.3576 37.7389C11.4872 37.3085 11.6083 36.8975 11.627 36.8259C11.6457 36.7542 11.6804 36.6367 11.7036 36.565C11.727 36.4933 11.737 36.3758 11.7255 36.3041C11.7141 36.2323 11.8325 36.1737 11.9884 36.1737C12.1909 36.1737 12.2227 36.1114 12.0998 35.9563C12.005 35.8368 11.9517 35.5824 11.9816 35.3911C12.1047 34.6008 12.4265 33.2353 12.7396 32.1737C12.923 31.552 13.1174 30.7878 13.1718 30.4758C13.2632 29.9494 13.2407 29.9156 12.861 30.0104C12.5805 30.0803 12.4183 30.0263 12.3459 29.8388C12.277 29.6603 12.3372 29.565 12.5185 29.565C12.7211 29.565 12.7473 29.5061 12.6152 29.3477C12.5155 29.2282 12.4244 29.0687 12.4127 28.9936C12.3784 28.7717 12.8811 28.3477 13.1784 28.3477C13.5047 28.3477 13.5515 28.9748 13.2346 29.1021C13.1145 29.1503 13.252 29.1897 13.5405 29.1897C13.829 29.1897 13.9695 29.1513 13.8527 29.1042C13.7062 29.045 13.6926 28.9282 13.809 28.7266C13.9017 28.5659 14.0559 28.2146 14.152 27.9459C14.2672 27.6231 14.4008 27.5016 14.5454 27.588C14.6898 27.6743 14.6811 27.6167 14.5199 27.4191C14.3069 27.1581 14.3181 27.0847 14.6073 26.8511C14.7898 26.7035 14.8305 26.6386 14.6978 26.7068C14.5377 26.7892 14.484 26.7498 14.5379 26.5892C14.5917 26.4292 14.92 26.3407 15.5099 26.327C16.3805 26.3066 16.4001 26.3172 16.3863 26.8023C16.3741 27.231 16.3436 27.2598 16.163 27.0141C16.0155 26.8134 15.9174 26.7887 15.8297 26.9301C15.7611 27.0402 15.5085 27.1303 15.2681 27.1303C15.0277 27.1303 14.8776 27.2051 14.9344 27.2965C14.9912 27.388 15.1449 27.4219 15.276 27.372C15.4071 27.3219 15.8386 27.3678 16.2347 27.4739C16.7244 27.6051 17.1529 27.6125 17.5732 27.4971C18.1073 27.3503 18.1875 27.3671 18.1622 27.62C18.1101 28.1433 18.1686 28.2033 18.454 27.9193C18.6363 27.7379 18.866 27.6823 19.1095 27.7602C19.3158 27.8261 19.8779 27.8979 20.3587 27.9198C21.4321 27.9685 21.456 27.9744 21.2053 28.1329C21.0942 28.2031 21.9398 28.2433 23.0847 28.2221C24.3429 28.1986 25.1663 28.2503 25.1663 28.3525C25.1663 28.4454 25.3828 28.5299 25.6471 28.5402C26.0088 28.5543 25.9331 28.6031 25.3412 28.7379C24.1686 29.0047 24.6796 29.0616 26.7398 28.8936C27.7494 28.8113 28.3197 28.733 28.0073 28.7197C27.6948 28.7064 27.4391 28.6273 27.4391 28.544C27.4391 28.4584 27.7864 28.457 28.2375 28.5409C29.2688 28.7325 29.487 28.8664 29.17 29.1134C29.0354 29.2183 28.9121 29.4998 28.8962 29.739C28.7997 31.1876 28.7552 31.4781 28.6286 31.4781C28.3943 31.4781 28.4714 31.9995 28.7066 32.005C28.8268 32.008 28.7781 32.0955 28.5982 32.1993C28.3337 32.3522 28.317 32.4175 28.5107 32.5419C28.674 32.6466 28.6906 32.737 28.5627 32.8259C28.3373 32.9826 28.0774 33.6231 28.2929 33.4906C28.5128 33.3553 28.4156 34.809 28.1772 35.2172C27.9831 35.5499 27.973 35.546 27.9485 35.1302C27.9302 34.8172 27.9001 34.7829 27.8413 35.0081C27.7966 35.1801 27.8648 35.4492 27.9927 35.6059C28.1971 35.8558 28.1833 35.8751 27.8814 35.7622C27.692 35.6914 27.5931 35.6892 27.6614 35.7572C27.7298 35.8252 27.698 35.9859 27.591 36.1142C27.4478 36.2859 27.4482 36.3476 27.5926 36.3476C27.7004 36.3476 27.7887 36.2693 27.7887 36.1737C27.7887 36.078 27.862 35.9998 27.9517 35.9998C28.2233 35.9998 28.0364 36.908 27.7169 37.1405C27.5478 37.2634 27.492 37.4031 27.5885 37.4624C27.6823 37.52 27.8059 37.4688 27.8632 37.3486C27.9205 37.2285 27.9275 37.3259 27.8786 37.565C27.8298 37.8041 27.7396 38.4302 27.6781 38.9563C27.6165 39.4824 27.499 39.9982 27.4167 40.1027C27.3345 40.2072 27.319 40.3441 27.3823 40.4071C27.4455 40.47 27.401 40.5215 27.2831 40.5215C27.1653 40.5215 27.1193 40.6027 27.181 40.702C27.3085 40.9074 26.9066 42.6234 26.7527 42.5304C26.6975 42.497 26.6382 42.7357 26.6211 43.0608C26.6039 43.3858 26.6543 43.6519 26.7333 43.6519C26.9665 43.6519 27.1303 44.5627 26.9204 44.6919C26.6478 44.8594 26.5309 45.9529 26.7948 45.8656C26.9088 45.8279 27.0302 45.647 27.0646 45.4636C27.1436 45.0415 27.4237 44.6938 27.6789 44.7006C27.7875 44.7036 27.7312 44.7898 27.5541 44.8923C27.3001 45.039 27.2531 45.2128 27.3314 45.7129C27.3978 46.1364 27.3821 46.2319 27.2844 45.9997C27.1665 45.7201 27.1239 45.7949 27.0662 46.3811C27.0081 46.9736 27.0538 47.1258 27.3097 47.1924C27.5957 47.2668 27.5847 47.3175 27.1908 47.7404C26.852 48.1041 26.8022 48.2547 26.9639 48.427C27.1174 48.5905 27.2499 48.5987 27.4756 48.4585C27.6997 48.3192 27.8365 48.3255 27.9941 48.4823C28.1583 48.6456 28.1593 48.6954 27.9985 48.6954C27.8831 48.6954 27.7887 48.7736 27.7887 48.8693C27.7887 48.9649 27.9461 49.0432 28.1384 49.0432C28.3307 49.0432 28.488 49.1555 28.488 49.2931C28.488 49.4479 28.7043 49.5637 29.0562 49.5974C29.3861 49.6291 29.6069 49.7404 29.5828 49.863C29.5593 49.9821 29.6506 50.0324 29.7924 49.9783C29.9305 49.9256 30.176 49.4783 30.3378 48.9846C30.4997 48.4907 30.7072 47.9922 30.7989 47.8769C30.8906 47.7615 30.9244 47.6008 30.874 47.5197C30.7933 47.3895 31.1614 45.5679 31.4099 44.8693C31.4609 44.7258 31.5321 44.3736 31.5681 44.0867C31.6041 43.7997 31.6782 43.2128 31.7328 42.7824C31.7873 42.3519 31.8756 41.8824 31.9291 41.7389C31.9826 41.5954 32.0485 41.2824 32.0758 41.0432C32.1029 40.8041 32.1704 40.3737 32.2256 40.0867C32.6179 38.0488 32.63 37.9234 32.4415 37.8457C32.3037 37.7888 32.3017 37.7234 32.4343 37.6217C32.737 37.39 32.8567 36.8982 32.6303 36.817C32.4917 36.7674 32.5389 36.6323 32.7712 36.4146C32.9635 36.2342 33.1249 36.0085 33.13 35.9128C33.1461 35.6064 33.4069 34.3565 33.5111 34.0868C33.5665 33.9433 33.6398 33.552 33.6738 33.2172C33.7434 32.536 33.809 32.2089 33.9527 31.8259C34.2324 31.0812 34.3819 30.0765 34.2273 29.9814C34.0044 29.8443 33.9882 29.8746 33.8039 30.7683C33.7167 31.1911 33.5469 31.5694 33.4266 31.609C33.3018 31.6502 33.2455 31.5816 33.2955 31.4492C33.4231 31.1115 33.5784 30.0866 33.6011 29.4346C33.616 29.0033 33.6988 28.8694 33.9508 28.8694C34.2013 28.8694 34.2541 28.9532 34.1698 29.2172C34.0889 29.4711 34.1384 29.565 34.3532 29.565C34.5581 29.565 34.6209 29.4628 34.5595 29.2294C34.4884 28.959 34.5607 28.8957 34.9324 28.9037C35.1861 28.909 35.6689 28.7857 36.0055 28.6296C36.5417 28.3809 36.5574 28.3572 36.1328 28.4379C35.821 28.4972 35.6165 28.4482 35.5595 28.3002C35.5107 28.1737 35.178 28.051 34.8204 28.0275C34.4625 28.0038 34.1436 27.9097 34.1116 27.8183C34.0342 27.5974 33.5579 27.6038 33.5579 27.8259C33.5579 27.9216 33.4469 27.9998 33.3111 27.9998C33.1754 27.9998 33.0849 27.9019 33.1099 27.7824C33.2022 27.3424 33.4251 26.9564 33.587 26.9564C33.6786 26.9564 33.7048 27.0346 33.6454 27.1303C33.4994 27.3652 33.6646 27.3491 34.0901 27.0868C34.3808 26.9077 34.4721 26.9153 34.6095 27.1303C34.7443 27.3409 34.7768 27.3169 34.7791 27.0052C34.7808 26.7332 34.7044 26.6491 34.5195 26.7195C34.1803 26.8491 34.1803 26.5407 34.5195 26.2607C34.7308 26.0861 34.7822 26.0905 34.7843 26.283C34.7861 26.4303 34.8363 26.4536 34.9155 26.3437C34.9913 26.2388 36.1445 26.1503 37.728 26.128C39.9619 26.0964 40.3966 26.1306 40.3188 26.3324C40.2674 26.4658 40.3382 26.7193 40.4759 26.896C40.6443 27.1117 40.6964 27.1296 40.6345 26.9503C40.5724 26.7703 40.6614 26.6743 40.9072 26.6558C41.1632 26.6367 41.2551 26.7164 41.2153 26.9228C41.1737 27.1393 40.9564 27.2261 40.3948 27.251C39.9745 27.2694 39.5231 27.3256 39.3915 27.3758C39.256 27.4277 39.1523 27.3564 39.1523 27.2118C39.1523 27.0713 39.0147 26.9626 38.8464 26.9701C38.6637 26.9783 38.6284 27.0191 38.759 27.0715C39.1653 27.2346 38.9808 27.455 38.4506 27.44C37.8445 27.4228 37.5032 27.6388 38.0742 27.6781C38.2826 27.6925 38.5515 27.712 38.6716 27.7216C38.7918 27.7311 38.948 27.8172 39.0186 27.9129C39.0999 28.0231 39.148 28.0129 39.1497 27.8847C39.1525 27.6746 39.3744 27.6807 39.8953 27.9052C40.0637 27.9777 40.3293 27.9882 40.4857 27.9285C40.642 27.8687 40.8584 27.8927 40.9665 27.9817C41.2275 28.1969 43.523 28.424 43.5231 28.2348C43.5233 28.1534 44.3296 28.0868 45.3151 28.0868C46.4128 28.0868 47.0953 28.1541 47.0773 28.2607C47.059 28.368 47.5511 28.4125 48.3626 28.3767C49.0861 28.3449 49.8861 28.3736 50.1406 28.4402C50.5698 28.5527 50.578 28.5717 50.2537 28.7021C50.0145 28.7984 50.1801 28.8353 50.7782 28.819C51.2589 28.8059 51.7395 28.8487 51.8464 28.9144C52.096 29.068 52.9603 28.672 52.9621 28.4033C52.9628 28.2903 53.1404 28.1722 53.3568 28.1409C53.6904 28.0924 53.7044 28.0652 53.4493 27.9621C53.2829 27.895 53.0485 27.9369 52.9249 28.0562C52.802 28.1746 52.4652 28.28 52.1768 28.2903C51.8883 28.3005 51.7901 28.2727 51.9582 28.2285C52.3126 28.1355 52.3647 27.8471 52.0457 27.7452C51.9256 27.707 50.9815 27.6235 49.9478 27.56C48.914 27.4965 48.0684 27.3795 48.0684 27.3C48.0684 27.2204 48.5207 27.1066 49.0736 27.0473C49.6266 26.9878 50.2271 26.8578 50.4083 26.7579C50.6464 26.6268 50.7736 26.6346 50.8679 26.7861C50.9663 26.9445 51.0212 26.9379 51.0929 26.7586C51.1602 26.5903 51.1916 26.5845 51.2014 26.739C51.2098 26.8724 51.4687 26.9553 51.8708 26.9538C52.3584 26.9517 52.4593 26.9078 52.2642 26.7824C52.0532 26.6468 52.0808 26.6134 52.4056 26.6111C52.6367 26.6098 52.7619 26.5322 52.6985 26.4299C52.6374 26.3318 52.4638 26.2731 52.3128 26.2995C52.1617 26.3261 52.0091 26.2654 51.9735 26.1649C51.9333 26.0515 52.1588 26.0051 52.5672 26.0426C53.1053 26.0922 53.1691 26.068 52.9161 25.9105C52.7458 25.8044 52.6525 25.6435 52.7088 25.5529C52.7651 25.4623 52.6291 25.3155 52.4065 25.2268C52.1839 25.1379 52.1004 25.0604 52.2205 25.0543C52.3408 25.0484 52.439 24.9548 52.439 24.8466C52.439 24.7232 52.2278 24.6819 51.8708 24.7359C51.5584 24.783 51.0666 24.7216 50.7782 24.5993C50.2983 24.3959 50.3502 24.3842 51.3901 24.4628C52.221 24.5256 52.456 24.4992 52.2642 24.3639C52.0569 24.2178 52.0521 24.1785 52.2418 24.1764C52.4338 24.1743 52.4388 24.1223 52.2672 23.9166C52.1037 23.7206 51.9701 23.7033 51.7063 23.8437C51.5159 23.9451 51.3144 23.9826 51.2586 23.927C51.2027 23.8713 51.2464 23.8259 51.3555 23.8259C51.4645 23.8259 51.5082 23.7077 51.4525 23.5632C51.3773 23.3684 51.4353 23.3275 51.6766 23.4056C51.9285 23.4872 51.9464 23.4715 51.7556 23.3367C51.6201 23.2409 51.4117 23.1997 51.2925 23.2453C51.1733 23.2906 51.0305 23.2548 50.9749 23.1654C50.9194 23.0762 50.6749 23.0409 50.4317 23.0872C50.1885 23.1334 49.8911 23.0901 49.771 22.991C49.4416 22.719 46.0955 22.5533 40.5946 22.5366C37.8784 22.5284 35.6558 22.4628 35.6558 22.3912C35.6558 22.3193 35.5674 22.2802 35.4592 22.3042C35.0966 22.3844 35.1223 21.988 35.5064 21.5781C35.7861 21.2794 35.842 21.0978 35.7184 20.8903C35.5391 20.5896 35.603 19.9468 35.8002 20.0681C35.8651 20.1079 35.9205 19.8154 35.9237 19.4181C35.9333 18.1679 36.1661 16.8119 36.396 16.6667C36.5655 16.5597 36.5558 16.5213 36.3551 16.5025C35.9434 16.4642 37.5906 16.2011 38.3322 16.1867C38.7934 16.1778 38.9599 16.2356 38.8735 16.3747C38.791 16.5074 38.8261 16.5277 38.977 16.435C39.1571 16.3242 39.142 16.2486 38.9062 16.0769C38.6927 15.9216 38.6656 15.8234 38.8118 15.7335C38.9244 15.6643 39.0852 15.7154 39.1691 15.8472C39.2864 16.0312 39.3252 16.0062 39.3368 15.739C39.3485 15.4662 39.3773 15.4488 39.4705 15.6587C39.5758 15.8954 39.6228 15.8923 39.8782 15.6323C40.148 15.3578 40.128 15.3338 39.5751 15.2696C39.2494 15.2317 38.9487 15.2829 38.9067 15.383C38.8646 15.4832 38.824 15.3936 38.8165 15.1841C38.8006 14.7476 39.0693 14.5081 39.2495 14.7982C39.3354 14.9366 39.4137 14.9248 39.5175 14.7577C39.6188 14.5949 40.0864 14.5152 41.0254 14.501C42.877 14.4728 47.7172 14.2538 48.1862 14.177C48.3978 14.1424 48.6076 14.2217 48.6593 14.3561C48.7665 14.6338 48.4923 14.869 48.3425 14.6277C48.1813 14.3683 47.599 14.6076 47.4009 15.015C47.2208 15.3851 47.2177 15.3841 47.2034 14.9564C47.1929 14.6425 47.1469 14.5876 47.038 14.7587C46.9105 14.9589 46.8722 14.9589 46.7922 14.7587C46.7181 14.5731 46.6945 14.5712 46.6836 14.7493C46.6761 14.8745 46.5911 14.9286 46.495 14.8695C46.3988 14.8103 46.3189 14.9036 46.3175 15.0766C46.3156 15.2926 46.2722 15.3248 46.1792 15.1789C46.0908 15.0404 45.8181 15.0029 45.3952 15.0712C44.6854 15.1858 44.5121 15.4394 45.1401 15.4446C45.3565 15.4463 46.1235 15.45 46.8446 15.4526C47.5658 15.4552 48.2345 15.4641 48.3306 15.4721C50.3231 15.6413 51.4013 15.669 52.185 15.5716C53.2 15.4455 53.3018 15.2319 52.4371 15.0429C52.1497 14.9801 51.9145 14.8568 51.9145 14.7688C51.9145 14.5133 52.725 14.5837 52.9549 14.8592C53.0698 14.997 53.2958 15.0677 53.457 15.0166C53.7081 14.937 53.7124 14.9507 53.488 15.1112C53.2651 15.2709 53.2782 15.3032 53.5754 15.3281C54.5021 15.4053 54.6236 15.3752 54.5729 15.081C54.5416 14.8989 54.6341 14.7825 54.8102 14.7825C55.0091 14.7825 55.0658 14.8771 54.9923 15.0869C54.9035 15.3406 54.9294 15.335 55.1484 15.0536C55.2929 14.8679 55.411 14.8123 55.411 14.93C55.411 15.0945 55.4677 15.0923 55.656 14.9197C55.7908 14.7964 55.8301 14.6695 55.7434 14.6377C55.486 14.5429 55.5644 14.2608 55.8481 14.2608C55.9923 14.2608 56.1103 14.3651 56.1103 14.4926C56.1103 14.6258 56.2776 14.7117 56.5037 14.6949C56.7201 14.6785 56.9761 14.7719 57.0728 14.9022C57.2206 15.1015 57.4803 15.0956 58.7068 14.8641C59.8726 14.6441 60.2484 14.4949 60.5797 14.1204C60.8079 13.8629 60.9969 13.6018 60.9998 13.5403C61.011 13.3149 60.4462 13.2236 60.1187 13.398C59.8965 13.5163 59.7817 13.5178 59.7817 13.4029C59.7817 13.3069 59.9981 13.1117 60.2624 12.969C60.6748 12.7464 60.6935 12.7065 60.3935 12.6888C60.2012 12.6775 60.1423 12.6286 60.2624 12.5804C60.6107 12.4406 60.5154 11.8603 60.124 11.7368C59.8687 11.6561 59.7974 11.529 59.8736 11.2902C59.9476 11.058 59.8967 10.9565 59.706 10.9565C59.5486 10.9565 59.432 10.8085 59.432 10.6086C59.432 10.1686 58.8761 10.1439 58.449 10.5652C58.1689 10.8413 58.1507 10.8424 58.2521 10.5759C58.3325 10.3645 58.2567 10.2639 57.9801 10.2158C57.6147 10.1521 57.6189 10.1396 58.0665 9.95229C58.5446 9.75246 58.9918 9.14569 58.8404 8.90221C58.7065 8.68656 57.4948 8.66482 57.242 8.87351C57.1145 8.97856 56.9061 9.04621 56.7789 9.0236C56.6516 9.00099 56.2091 9.07855 55.7958 9.19594C55.3824 9.31316 54.8908 9.36081 54.7032 9.30151C54.5156 9.24238 54.3621 9.26725 54.3621 9.35699C54.3621 9.52133 52.5004 9.74012 50.2805 9.83681C49.6221 9.86533 49.0439 9.92811 48.9958 9.97594C48.9478 10.0238 48.7979 10.0208 48.6632 9.96933C48.5284 9.91785 48.418 9.95124 48.418 10.0436C48.418 10.1401 47.7677 10.2034 46.8883 10.1926C46.0471 10.1824 43.6535 10.2347 41.5695 10.3092C39.2004 10.3937 37.7417 10.3822 37.6773 10.2785C37.6207 10.1872 37.687 9.7742 37.8245 9.36064C38.4511 7.47874 38.4593 7.34535 38.0043 6.44414C37.7703 5.98083 37.5789 5.39249 37.5789 5.13684C37.5789 4.73528 37.5256 4.68849 37.1856 4.79249C36.9691 4.85858 36.8513 4.85075 36.9237 4.77475C36.996 4.69893 36.9401 4.51041 36.7995 4.35597C36.659 4.20137 36.5212 3.7518 36.4932 3.35685C36.4527 2.78329 36.3959 2.67738 36.2107 2.8299C36.0385 2.97198 35.938 2.95685 35.82 2.77146C35.7326 2.63407 35.66 2.47216 35.6585 2.41164C35.6525 2.16538 34.9314 2.12399 34.8385 2.36433C34.7854 2.50207 34.6153 2.5939 34.4606 2.56833C34.2394 2.53164 34.1509 2.74503 34.0476 3.5652C33.9752 4.13911 33.8371 4.78484 33.7406 4.99997C33.6273 5.25301 33.6259 5.39127 33.7368 5.39127C33.8312 5.39127 33.753 5.67944 33.5632 6.03162C33.342 6.4424 33.2765 6.7417 33.3808 6.86674C33.5752 7.09996 33.4149 7.82604 33.169 7.82604C33.0686 7.82604 33.0447 8.02047 33.1121 8.28778C33.184 8.57299 33.1492 8.79838 33.0211 8.87716C32.9046 8.94864 32.8207 9.36029 32.8298 9.81455C32.8398 10.3036 32.7621 10.6556 32.6338 10.7034C32.1433 10.8864 31.1819 10.9102 30.9793 10.7446C30.8254 10.6189 30.7607 10.6299 30.7607 10.7815C30.7607 10.9182 30.5992 10.9664 30.3195 10.9132C30.0768 10.8669 29.8396 10.8914 29.7924 10.9674C29.6613 11.1784 27.7891 11.0994 27.7861 10.8827C27.7845 10.7798 27.7071 10.813 27.6139 10.9565C27.4632 11.1883 27.4438 11.1883 27.4391 10.9565C27.4344 10.7246 27.4149 10.7246 27.2642 10.9565C27.1135 11.1883 27.0941 11.1883 27.0894 10.9565C27.0847 10.7246 27.0653 10.7246 26.9146 10.9565C26.7885 11.1504 26.7445 11.158 26.7424 10.9867C26.7382 10.6267 24.0461 10.7911 23.5905 11.1791C23.3996 11.3417 23.2433 11.3973 23.2433 11.3025C23.2433 11.2079 23.0859 11.1304 22.8936 11.1304C22.7013 11.1304 22.5428 11.2283 22.5414 11.3478C22.5393 11.5069 22.4982 11.5017 22.3877 11.3281C22.2602 11.1279 22.2219 11.1279 22.1419 11.3281C22.0746 11.4965 22.0431 11.5022 22.0333 11.3478C22.0251 11.2178 21.7732 11.1304 21.4076 11.1304C21.0361 11.1304 20.7947 11.2158 20.7931 11.3478C20.7912 11.4926 20.7338 11.4782 20.6209 11.3043C20.4702 11.0725 20.4504 11.0725 20.4433 11.3043C20.4365 11.5159 20.391 11.5076 20.2027 11.2608C20.0749 11.0933 19.8415 10.9565 19.6838 10.9565C19.5262 10.9565 19.3971 10.8344 19.3971 10.6853C19.3971 10.5363 19.4685 10.458 19.5557 10.5116C19.6428 10.5653 19.6721 10.4492 19.6207 10.2537C19.5597 10.0219 19.6041 9.91594 19.7484 9.94898C19.8699 9.97698 20.0289 9.79038 20.1018 9.5342C20.2052 9.1709 20.1802 9.08916 19.9884 9.16238C19.8034 9.23299 19.8321 9.04812 20.1039 8.41734C20.4342 7.65108 20.965 5.9664 21.3136 4.57893C21.4239 4.13928 21.402 4.04641 21.2059 4.12119C21.0073 4.19702 20.9828 4.0718 21.0791 3.47233C21.1662 2.93146 21.1438 2.76311 20.9971 2.8532C20.8865 2.92137 20.7957 2.89407 20.7957 2.79285C20.7957 2.69164 20.8791 2.60868 20.9809 2.60868C21.0826 2.60868 21.1122 2.52207 21.0464 2.41616C20.963 2.2819 20.8805 2.29512 20.7739 2.45964C20.5445 2.81355 20.2449 2.29929 20.3244 1.68816C20.3678 1.35599 20.3195 1.22851 20.172 1.28486C20.0532 1.33008 19.9174 1.21982 19.87 1.03982C19.8227 0.859647 19.8739 0.682083 19.9838 0.645387C20.1256 0.597735 20.1141 0.494084 19.944 0.289215C19.5622 -0.170956 19.2473 -0.049043 19.1237 0.607127C19.0599 0.945212 18.9319 1.16678 18.8347 1.10712C18.6732 1.00782 18.7331 1.33095 19.0137 2.07199C19.0686 2.21686 19.0305 2.27094 18.9211 2.20364C18.8155 2.13877 18.687 2.27999 18.6239 2.53007C18.5629 2.77251 18.4333 2.9219 18.3361 2.86207C18.2251 2.7939 18.1956 2.93685 18.2564 3.24624C18.3111 3.52363 18.295 3.62502 18.2197 3.47824C18.1461 3.33476 17.9744 3.21737 17.8382 3.21737C17.702 3.21737 17.5578 3.11946 17.5178 2.99981C17.4714 2.86172 17.5459 2.82103 17.7216 2.88798C18.0228 3.00294 18.1081 2.69668 17.8237 2.52172C17.7276 2.46259 17.6489 2.33599 17.6489 2.24033C17.6489 2.14468 17.7211 2.11077 17.8095 2.1652C17.8978 2.21947 18.0221 2.02851 18.0856 1.74069C18.1492 1.45286 18.2711 1.21738 18.3566 1.21738C18.4421 1.21738 18.4615 1.08643 18.3998 0.926255C18.3164 0.710257 18.359 0.662605 18.5657 0.741387C18.7303 0.804343 18.8852 0.739822 18.9456 0.583475C19.1331 0.0973906 19.0501 -0.0700869 18.7908 0.271128C18.5585 0.576518 18.5337 0.579649 18.5286 0.304346C18.5242 0.06713 18.3718 0 17.8377 0C17.1711 0 17.1447 0.0234781 16.8634 0.866082ZM17.6438 3.47146C17.7852 3.5605 17.848 3.68589 17.7833 3.75041C17.7185 3.81476 17.5382 3.74085 17.3824 3.58589C17.0749 3.27998 17.2309 3.21163 17.6438 3.47146ZM17.6489 4.17389C17.6489 4.26954 17.5702 4.3478 17.4741 4.3478C17.3779 4.3478 17.2992 4.26954 17.2992 4.17389C17.2992 4.07824 17.3779 3.99998 17.4741 3.99998C17.5702 3.99998 17.6489 4.07824 17.6489 4.17389ZM17.6489 4.69562C17.5047 4.78832 17.2686 4.85997 17.1244 4.85458C16.9515 4.84832 16.9812 4.79423 17.2118 4.69562C17.6924 4.49023 17.9685 4.49023 17.6489 4.69562ZM21.058 4.86954C20.9985 4.96519 20.8713 5.04345 20.7751 5.04345C20.6789 5.04345 20.6489 4.96519 20.7083 4.86954C20.7678 4.77388 20.895 4.69562 20.9912 4.69562C21.0873 4.69562 21.1174 4.77388 21.058 4.86954ZM17.297 5.90796C17.5013 6.03649 17.4734 6.06518 17.1658 6.04222C16.9508 6.02605 16.7748 5.95127 16.7748 5.87597C16.7748 5.69458 16.9774 5.70692 17.297 5.90796ZM20.5335 5.91301C20.5929 6.00866 20.5581 6.08692 20.4564 6.08692C20.3546 6.08692 20.2713 6.00866 20.2713 5.91301C20.2713 5.81736 20.3059 5.7391 20.3484 5.7391C20.3908 5.7391 20.4741 5.81736 20.5335 5.91301ZM17.0573 6.73909C17.0139 7.00222 16.962 7.23683 16.9421 7.26083C16.9221 7.28483 16.8863 7.38256 16.8622 7.47822C16.838 7.57387 16.7989 7.69126 16.7748 7.73908C16.7506 7.78691 16.7115 7.9043 16.6873 7.99995C16.6632 8.0956 16.6339 8.25212 16.6218 8.34778C16.6097 8.44343 16.5344 8.52169 16.4543 8.52169C16.284 8.52169 16.2991 7.99578 16.4777 7.7083C16.5456 7.59891 16.5531 7.38517 16.4943 7.233C16.4358 7.081 16.4657 6.95648 16.5608 6.95648C16.6561 6.95648 16.7751 6.79996 16.8255 6.60866C16.9627 6.08605 17.148 6.19022 17.0573 6.73909ZM19.9536 6.82031C19.8282 6.945 19.7468 6.95526 19.7468 6.84639C19.7468 6.61422 19.9536 6.40848 20.0702 6.52466C20.1199 6.57405 20.0674 6.70709 19.9536 6.82031ZM18.9966 8.02691C18.8618 8.3476 18.7683 8.88342 18.7887 9.21786C18.8359 9.99316 18.7183 10.4678 18.5104 10.3401C18.4213 10.2852 18.3482 10.3577 18.3482 10.5012C18.3482 10.7831 18.0344 11.05 17.8816 10.898C17.83 10.8467 17.9606 10.2883 18.1718 9.65699C18.3828 9.02586 18.5099 8.39073 18.454 8.24569C18.398 8.10065 18.4167 8.02152 18.4956 8.07004C18.5742 8.11839 18.7505 7.87474 18.8868 7.52865C19.0298 7.1657 19.1574 7.01457 19.188 7.17161C19.2174 7.32152 19.1312 7.70639 18.9966 8.02691ZM19.1143 9.31334C19.1739 9.46812 19.1445 9.53786 19.0456 9.47699C18.9505 9.41855 18.8727 9.29716 18.8727 9.20708C18.8727 8.95699 18.998 9.01212 19.1143 9.31334ZM17.8237 9.56516C17.9679 9.65786 18.0073 9.73368 17.9111 9.73368C17.815 9.73368 17.6183 9.65786 17.4741 9.56516C17.3298 9.47247 17.2905 9.39664 17.3866 9.39664C17.4828 9.39664 17.6795 9.47247 17.8237 9.56516ZM17.4741 9.91298C17.4741 10.0086 17.3954 10.0869 17.2992 10.0869C17.2031 10.0869 17.1244 10.0086 17.1244 9.91298C17.1244 9.81733 17.2031 9.73907 17.2992 9.73907C17.3954 9.73907 17.4741 9.81733 17.4741 9.91298ZM17.1244 10.4347C17.1244 10.5304 17.0457 10.6086 16.9496 10.6086C16.8534 10.6086 16.7748 10.5304 16.7748 10.4347C16.7748 10.3391 16.8534 10.2608 16.9496 10.2608C17.0457 10.2608 17.1244 10.3391 17.1244 10.4347ZM53.8376 10.7825C53.8376 10.8782 53.7589 10.9565 53.6628 10.9565C53.5666 10.9565 53.488 10.8782 53.488 10.7825C53.488 10.6869 53.5666 10.6086 53.6628 10.6086C53.7589 10.6086 53.8376 10.6869 53.8376 10.7825ZM49.8166 11.826C49.6724 11.9187 49.3184 11.9865 49.0299 11.9766L48.5055 11.9587L49.0299 11.826C49.3184 11.753 49.6724 11.6851 49.8166 11.6754C50.0497 11.6594 50.0497 11.6761 49.8166 11.826ZM48.418 11.8944C48.418 11.9319 48.3 12.0078 48.1558 12.0629C48.0116 12.1178 47.8936 12.0871 47.8936 11.9945C47.8936 11.9018 48.0116 11.826 48.1558 11.826C48.3 11.826 48.418 11.8568 48.418 11.8944ZM54.6972 12.0627C54.4971 12.2351 53.1383 12.3338 53.1383 12.1759C53.1383 12.0791 53.5054 11.9999 53.9542 11.9999C54.4028 11.9999 54.7373 12.0281 54.6972 12.0627ZM11.4954 12.4293C11.5464 12.4801 11.3851 12.5217 11.1367 12.5217C10.8882 12.5217 10.6589 12.5961 10.6267 12.6871C10.5947 12.778 9.90379 12.8978 9.09156 12.9533C7.7031 13.0483 7.18404 12.9517 8.30834 12.8077C8.58998 12.7717 9.04173 12.6535 9.31236 12.545C9.91656 12.3029 10.0075 12.2991 9.86918 12.5217C9.80974 12.6173 9.92565 12.6956 10.1265 12.6956C10.3276 12.6956 10.5351 12.5839 10.5877 12.4474C10.6758 12.2191 11.2721 12.2072 11.4954 12.4293ZM56.063 12.2789C56.0049 12.3366 55.854 12.3429 55.728 12.2926C55.5885 12.2371 55.6299 12.1959 55.8336 12.1876C56.0179 12.1801 56.121 12.2211 56.063 12.2789ZM21.0167 12.4702C20.8017 12.5114 20.4083 12.5124 20.1426 12.4726C19.8769 12.4326 20.0527 12.3989 20.5335 12.3975C21.0143 12.3963 21.2317 12.429 21.0167 12.4702ZM28.5317 12.4629C28.4116 12.5112 28.2149 12.5112 28.0947 12.4629C27.9746 12.4147 28.0728 12.3752 28.3132 12.3752C28.5536 12.3752 28.652 12.4147 28.5317 12.4629ZM12.273 12.8107C12.1529 12.8591 11.9562 12.8591 11.836 12.8107C11.7159 12.7625 11.8141 12.7231 12.0545 12.7231C12.2949 12.7231 12.3933 12.7625 12.273 12.8107ZM24.6419 13.0166C26.9305 13.1199 27.2195 13.1573 26.0405 13.1975C23.9969 13.2669 22.1524 13.3431 21.8781 13.3693C21.7522 13.3813 21.6938 13.463 21.7485 13.551C21.869 13.7448 20.8796 13.985 20.6195 13.8251C20.5178 13.7627 20.1945 13.643 19.9012 13.5592C19.4408 13.4279 19.397 13.4424 19.5821 13.6643C19.7001 13.8057 19.7491 13.9688 19.6908 14.0265C19.6326 14.0844 19.4936 13.9323 19.3819 13.6883C19.2478 13.3957 19.0872 13.2797 18.9095 13.3476C18.7303 13.4161 18.6837 13.381 18.7697 13.2422C18.8408 13.1277 19.0307 13.0557 19.1917 13.0822C19.3527 13.1088 19.4678 13.041 19.4471 12.9319C19.4211 12.7931 19.763 12.7564 20.5835 12.8098C21.2291 12.8519 23.0553 12.945 24.6419 13.0166ZM6.46009 13.913C6.46009 14.0086 6.38142 14.0869 6.28527 14.0869C6.18912 14.0869 6.11045 14.0086 6.11045 13.913C6.11045 13.8173 6.18912 13.739 6.28527 13.739C6.38142 13.739 6.46009 13.8173 6.46009 13.913ZM52.439 13.913C52.439 14.0086 52.4044 14.0869 52.3619 14.0869C52.3194 14.0869 52.2362 14.0086 52.1768 13.913C52.1173 13.8173 52.1521 13.739 52.2539 13.739C52.3556 13.739 52.439 13.8173 52.439 13.913ZM5.25206 14.329C5.14087 14.462 4.87566 14.6145 4.66237 14.6677C4.27758 14.7637 4.27776 14.762 4.68755 14.4257C5.16779 14.0314 5.55555 13.965 5.25206 14.329ZM49.7729 14.2067C49.6048 14.2505 49.3292 14.2505 49.1611 14.2067C48.9929 14.163 49.1305 14.1272 49.467 14.1272C49.8035 14.1272 49.9411 14.163 49.7729 14.2067ZM21.3202 14.6086C21.3202 14.7043 20.9268 14.7825 20.4461 14.7825C19.9653 14.7825 19.572 14.7043 19.572 14.6086C19.572 14.513 19.9653 14.4347 20.4461 14.4347C20.9268 14.4347 21.3202 14.513 21.3202 14.6086ZM24.1174 14.6086C24.1174 14.7043 23.8421 14.7825 23.5055 14.7825C23.169 14.7825 22.8936 14.7043 22.8936 14.6086C22.8936 14.513 23.169 14.4347 23.5055 14.4347C23.8421 14.4347 24.1174 14.513 24.1174 14.6086ZM24.6419 14.6086C24.6419 14.7043 24.5632 14.7825 24.4671 14.7825C24.3709 14.7825 24.2922 14.7043 24.2922 14.6086C24.2922 14.513 24.3709 14.4347 24.4671 14.4347C24.5632 14.4347 24.6419 14.513 24.6419 14.6086ZM28.5031 14.6583C28.9036 14.9072 28.9378 15.1303 28.5754 15.1303C28.4312 15.1303 28.3076 15.2283 28.301 15.3477C28.2941 15.4674 28.2211 15.4086 28.1384 15.2173C28.0221 14.9483 27.9854 14.9338 27.9758 15.1535C27.967 15.3557 27.812 15.4314 27.4365 15.4161C27.1102 15.4029 26.9394 15.3166 26.9884 15.19C27.095 14.9135 26.8137 14.8295 25.7866 14.8309C25.3104 14.8316 24.892 14.7463 24.8567 14.6413C24.766 14.3705 28.0646 14.3858 28.5031 14.6583ZM49.8165 14.6733C49.8166 14.7568 49.928 14.7331 50.0642 14.6208C50.2619 14.4575 50.3347 14.4883 50.4256 14.7733C50.5063 15.0265 50.6887 15.1303 51.0521 15.1303C51.3341 15.1303 51.5649 15.2086 51.5649 15.3043C51.5649 15.4063 51.0416 15.4684 50.2974 15.4545C49.6002 15.4415 49.207 15.397 49.4236 15.3554C49.7649 15.29 49.784 15.247 49.5672 15.0312C49.4296 14.8945 49.2329 14.7825 49.1298 14.7825C49.0268 14.7825 48.9425 14.7126 48.9425 14.627C48.9425 14.5415 49.1392 14.4827 49.3794 14.4966C49.6198 14.5103 49.8165 14.59 49.8165 14.6733ZM54.4682 14.7098C54.4098 14.8611 54.3621 15.0176 54.3621 15.0576C54.3621 15.0976 54.2908 15.1303 54.2037 15.1303C54.1165 15.1303 54.0864 14.9738 54.1366 14.7825C54.1869 14.5912 54.306 14.4347 54.4012 14.4347C54.4964 14.4347 54.5266 14.5585 54.4682 14.7098ZM44.2223 14.677C44.2223 14.7145 44.3403 14.7903 44.4845 14.8455C44.6287 14.9004 44.7467 14.8697 44.7467 14.7771C44.7467 14.6844 44.6287 14.6086 44.4845 14.6086C44.3403 14.6086 44.2223 14.6394 44.2223 14.677ZM8.69278 15.0978C8.79768 15.4107 8.43631 15.345 8.31429 15.0288C8.24908 14.8596 8.28806 14.7799 8.41586 14.8223C8.53002 14.8603 8.65467 14.9841 8.69278 15.0978ZM43.523 14.9667C43.523 15.0679 43.6016 15.1025 43.6978 15.0434C43.7939 14.9843 43.8726 14.9015 43.8726 14.8592C43.8726 14.817 43.7939 14.7825 43.6978 14.7825C43.6016 14.7825 43.523 14.8655 43.523 14.9667ZM40.4796 15.2383C40.3931 15.4625 40.452 15.4985 40.7668 15.4145C40.9847 15.3564 41.3988 15.3025 41.6873 15.2943C42.1392 15.2818 42.1633 15.259 41.8621 15.1303C41.2782 14.8808 40.5971 14.934 40.4796 15.2383ZM42.7555 15.726C42.8284 15.9152 42.7308 15.955 42.3434 15.8943C42.0642 15.8505 41.6452 15.8905 41.4119 15.9832C41.0352 16.1329 41.027 16.1549 41.3376 16.1801C41.634 16.2043 41.6207 16.2296 41.2502 16.3477C40.8434 16.4773 40.8396 16.4882 41.1962 16.5042C41.4069 16.5138 41.6308 16.4387 41.6936 16.3375C41.7565 16.2361 41.9777 16.175 42.1848 16.2016C42.3918 16.2283 42.6558 16.1916 42.7712 16.1201C42.8971 16.042 43.0567 16.131 43.1707 16.3429C43.3717 16.7166 43.6978 16.8208 43.6978 16.5114C43.6978 16.4102 43.6306 16.3684 43.5485 16.419C43.4665 16.4695 43.313 16.3225 43.2076 16.0924C43.0394 15.7251 43.063 15.6649 43.4006 15.5997C43.671 15.5476 43.6182 15.5185 43.2224 15.5018C42.8015 15.4841 42.6838 15.5406 42.7555 15.726ZM8.90764 15.826C8.90764 15.9216 8.99103 15.9999 9.09278 15.9999C9.19453 15.9999 9.22932 15.9216 9.16988 15.826C9.11044 15.7303 9.02722 15.6521 8.98474 15.6521C8.94226 15.6521 8.90764 15.7303 8.90764 15.826ZM30.0141 15.7571C29.956 15.8149 29.8052 15.8211 29.6791 15.7709C29.5396 15.7154 29.581 15.6742 29.7847 15.6658C29.969 15.6583 30.0721 15.6994 30.0141 15.7571ZM43.3481 16.0185C43.3481 16.1244 43.4661 16.166 43.6104 16.1109C43.7546 16.0559 43.8726 16.0867 43.8726 16.1792C43.8726 16.2719 44.0056 16.3477 44.1682 16.3477C44.4261 16.3477 44.4205 16.315 44.1245 16.0924C43.7189 15.7872 43.3481 15.7519 43.3481 16.0185ZM9.79558 16.2752C9.80397 16.4778 9.8454 16.519 9.90117 16.3804C9.9517 16.2549 9.9454 16.1048 9.88736 16.047C9.82932 15.9893 9.78806 16.0919 9.79558 16.2752ZM13.3388 16.3849C13.4466 16.7952 13.2153 17.0362 12.7101 17.0408C12.2874 17.0444 12.3272 16.8889 12.7975 16.7009C13.1092 16.5763 13.126 16.5415 12.8781 16.5326C12.6174 16.5236 12.6029 16.4792 12.7907 16.2674C13.104 15.914 13.2214 15.9392 13.3388 16.3849ZM20.0429 16.2425C19.9186 16.3482 19.7167 16.567 19.5942 16.7288C19.3859 17.0035 19.6847 17.0187 24.1482 16.9589C29.327 16.8893 29.9118 16.8663 29.5807 16.746C29.1438 16.5872 29.377 16.3477 29.9686 16.3477C30.4653 16.3477 30.5579 16.4027 30.481 16.6521C30.4293 16.8196 30.5076 16.7608 30.655 16.5216C30.8959 16.131 30.924 16.1222 30.9321 16.4347C30.9387 16.6926 30.9791 16.7225 31.0889 16.5503C31.2024 16.3722 31.2576 16.3982 31.327 16.6616C31.3767 16.8503 31.3534 17.1077 31.2753 17.2333C31.1971 17.359 31.1765 17.6761 31.2291 17.9378C31.2817 18.1997 31.2284 18.9468 31.1106 19.5981C30.9929 20.2496 30.9065 21.1474 30.9186 21.5934C30.9508 22.7665 30.642 23.0115 29.2438 22.923C28.5462 22.8788 28.1373 22.9202 28.1357 23.0352C28.1342 23.1353 28.058 23.0999 27.9662 22.9564C27.8282 22.7407 27.7378 22.7334 27.4445 22.9143C27.1592 23.0903 27.0866 23.0903 27.0756 22.9143C27.0662 22.7646 27.0359 22.7583 26.9798 22.8945C26.9347 23.0039 26.7443 23.0534 26.5566 23.0046C26.3688 22.9557 26.2153 23.0007 26.2153 23.1046C26.2153 23.2091 26.0856 23.2439 25.9244 23.1823C25.7288 23.1075 25.6749 23.1378 25.7599 23.2746C25.9293 23.5472 25.4342 23.5383 24.9838 23.2607C24.6931 23.0816 24.6018 23.0893 24.4644 23.3042C24.3162 23.536 24.2969 23.536 24.2922 23.3042C24.2877 23.0813 24.2639 23.0795 24.1288 23.292C23.9174 23.6242 23.4129 23.6939 23.5363 23.3739C23.6365 23.1143 23.5905 23.1053 22.0632 23.0886C21.5583 23.083 21.1454 23.0119 21.1454 22.9305C21.1454 22.8491 20.988 22.7825 20.7957 22.7825C20.6034 22.7825 20.4449 22.8804 20.4435 22.9999C20.4414 23.1661 20.4066 23.1639 20.2959 22.9899C20.2011 22.8414 19.8403 22.7769 19.2539 22.8035C18.5326 22.8362 18.3945 22.8893 18.5487 23.0743C18.7019 23.2578 18.6127 23.3042 18.1073 23.3042C17.4912 23.3042 17.2526 23.0717 17.6926 22.9002C17.8129 22.8533 17.4471 22.855 16.88 22.904C15.9644 22.9832 15.8616 22.9604 15.9622 22.6997C16.0246 22.5383 16.0755 22.3298 16.0755 22.2362C16.0755 22.1428 16.1346 22.1027 16.2066 22.1468C16.2786 22.1912 16.3531 22.0002 16.3716 21.7225C16.4288 20.8738 16.4767 20.6955 16.6478 20.6955C16.7382 20.6955 16.7688 20.5832 16.7158 20.446C16.6629 20.3086 16.6742 20.1717 16.7408 20.1416C16.8375 20.098 17.4122 18.4597 17.7513 17.2608C17.7851 17.1413 17.9608 17.0434 18.1417 17.0434C18.7188 17.0434 19.572 16.6702 19.572 16.4176C19.572 16.1427 19.5372 16.1312 19.1503 16.279C18.9987 16.3368 18.9251 16.4738 18.9866 16.5834C19.0545 16.7037 19.0055 16.6964 18.8634 16.5651C18.7338 16.4456 18.5059 16.3533 18.3569 16.3599C18.1606 16.3688 18.1821 16.4175 18.4356 16.5366C18.7104 16.6658 18.6732 16.6787 18.2611 16.5971C17.6001 16.4663 17.5052 16.3712 17.8288 16.1643C18.2102 15.9203 20.3335 15.9952 20.0429 16.2425ZM39.6207 16.143C39.4593 16.174 39.3272 16.2719 39.3272 16.3604C39.3272 16.594 39.8702 16.5472 40.3728 16.2705L40.8064 16.0317L40.3604 16.0592C40.1151 16.0745 39.7822 16.1121 39.6207 16.143ZM53.6301 16.1187C53.7561 16.1689 53.907 16.1627 53.9651 16.1049C54.0231 16.0472 53.92 16.0062 53.7357 16.0136C53.532 16.022 53.4906 16.0632 53.6301 16.1187ZM8.91114 16.4389C9.03282 16.5846 9.16831 16.6681 9.21236 16.6244C9.33352 16.5037 9.08719 16.1738 8.876 16.1738C8.75992 16.1738 8.7732 16.2736 8.91114 16.4389ZM8.38317 16.6086C8.38317 16.7521 8.45939 16.8695 8.55257 16.8695C8.64558 16.8695 8.67652 16.7521 8.62128 16.6086C8.56586 16.4651 8.48964 16.3477 8.45187 16.3477C8.41411 16.3477 8.38317 16.4651 8.38317 16.6086ZM47.675 16.4629C47.7953 16.5112 47.992 16.5112 48.1121 16.4629C48.2324 16.4147 48.134 16.3752 47.8936 16.3752C47.6532 16.3752 47.5549 16.4147 47.675 16.4629ZM7.15939 17.2119C7.15939 17.3044 7.2774 17.3352 7.42163 17.2802C7.56586 17.2251 7.68387 17.1493 7.68387 17.1117C7.68387 17.0742 7.56586 17.0434 7.42163 17.0434C7.2774 17.0434 7.15939 17.1192 7.15939 17.2119ZM13.0746 17.3343C12.9145 17.3764 12.7416 17.5199 12.6902 17.6531C12.629 17.8117 12.6842 17.8618 12.8501 17.7985C13.1652 17.6783 13.165 17.7321 12.848 18.4581C12.695 18.8088 12.59 18.9173 12.5858 18.7288C12.5756 18.2576 12.2293 18.5632 12.2293 19.0434C12.2293 19.2712 12.1582 19.5014 12.0711 19.5548C11.8356 19.6997 11.9485 18.3366 12.1966 18.0392C12.3141 17.8983 12.3611 17.6557 12.301 17.5002C12.2129 17.2715 12.3043 17.2211 12.7788 17.2375C13.1015 17.2486 13.2347 17.2921 13.0746 17.3343ZM24.0847 17.3361C24.2108 17.3863 24.3616 17.3801 24.4197 17.3223C24.4777 17.2646 24.3746 17.2235 24.1903 17.231C23.9866 17.2394 23.9452 17.2806 24.0847 17.3361ZM29.4586 17.3768C29.4038 17.4651 29.7303 17.5336 30.1912 17.5307C30.7933 17.5269 30.9263 17.4862 30.6733 17.3835C30.1917 17.1882 29.5779 17.1848 29.4586 17.3768ZM45.0527 17.5063C45.1729 17.5547 45.3696 17.5547 45.4897 17.5063C45.61 17.4582 45.5116 17.4187 45.2712 17.4187C45.0308 17.4187 44.9326 17.4582 45.0527 17.5063ZM7.826 18.3795C7.95205 18.4298 8.10292 18.4235 8.16096 18.3658C8.21901 18.3081 8.11586 18.267 7.9316 18.2745C7.72792 18.2828 7.68649 18.3241 7.826 18.3795ZM16.4251 19.3126C16.4251 19.3924 16.3464 19.506 16.2503 19.5651C16.1541 19.6242 16.0755 19.6352 16.0755 19.5896C16.0755 19.5439 16.0274 19.382 15.9686 19.2295C15.8903 19.0267 15.9372 18.9813 16.1435 19.0601C16.2984 19.1192 16.4251 19.2328 16.4251 19.3126ZM12.7538 19.207C12.7538 19.2493 12.6751 19.3321 12.579 19.3912C12.4828 19.4503 12.4041 19.4157 12.4041 19.3145C12.4041 19.2133 12.4828 19.1303 12.579 19.1303C12.6751 19.1303 12.7538 19.1648 12.7538 19.207ZM12.2293 19.9999C12.2293 20.0955 12.0917 20.1726 11.9234 20.1712C11.6618 20.1689 11.6555 20.1439 11.8797 19.9999C12.2096 19.7877 12.2293 19.7877 12.2293 19.9999ZM31.3359 21.2173C31.2856 21.4086 31.2142 21.5651 31.1774 21.5651C31.1406 21.5651 31.1104 21.4086 31.1104 21.2173C31.1104 21.026 31.1817 20.8694 31.2688 20.8694C31.356 20.8694 31.3861 21.026 31.3359 21.2173ZM11.6648 21.5326C11.7075 21.6597 11.6274 21.6985 11.4573 21.6336C11.305 21.5753 11.1804 21.4515 11.1804 21.3581C11.1804 21.1294 11.5777 21.2726 11.6648 21.5326ZM15.0172 22.8444C14.8489 22.9988 14.8256 22.9719 14.9134 22.7247C14.9756 22.5496 15.0356 22.3148 15.0468 22.203C15.058 22.0913 15.1047 22.1451 15.1506 22.3226C15.1966 22.5002 15.1365 22.735 15.0172 22.8444ZM23.013 23.5108C22.9573 23.6494 22.9158 23.6082 22.9074 23.4056C22.8999 23.2223 22.9412 23.1197 22.9992 23.1774C23.0573 23.2352 23.0636 23.3853 23.013 23.5108ZM22.0195 23.4781C22.0195 23.696 21.834 23.696 21.495 23.4781C21.283 23.3418 21.3081 23.3091 21.6261 23.3068C21.8424 23.3054 22.0195 23.3825 22.0195 23.4781ZM24.3359 24.2889C24.2158 24.3372 24.0191 24.3372 23.8989 24.2889C23.7788 24.2407 23.877 24.2012 24.1174 24.2012C24.3578 24.2012 24.4562 24.2407 24.3359 24.2889ZM25.4723 24.2936C25.3039 24.3374 25.0288 24.3374 24.8604 24.2936C24.6921 24.2499 24.8298 24.2141 25.1663 24.2141C25.5029 24.2141 25.6406 24.2499 25.4723 24.2936ZM47.8165 24.3642C47.9097 24.5143 47.7226 24.5383 46.3201 24.5569C44.9404 24.5752 44.4806 24.5186 44.7301 24.3616C45.0523 24.1586 47.6901 24.1609 47.8165 24.3642ZM29.231 24.4628C29.1109 24.5112 28.9142 24.5112 28.794 24.4628C28.6739 24.4146 28.7721 24.3752 29.0125 24.3752C29.2529 24.3752 29.3513 24.4146 29.231 24.4628ZM30.1489 24.5216C29.6714 24.7258 29.537 24.7258 29.537 24.5216C29.537 24.4259 29.7534 24.3532 30.0177 24.3599C30.4438 24.3708 30.4586 24.3891 30.1489 24.5216ZM48.9862 24.4628C48.8661 24.5112 48.6694 24.5112 48.5492 24.4628C48.4291 24.4146 48.5273 24.3752 48.7677 24.3752C49.0081 24.3752 49.1065 24.4146 48.9862 24.4628ZM49.9915 24.5216C49.8472 24.6143 49.6506 24.6901 49.5544 24.6901C49.4583 24.6901 49.4976 24.6143 49.6418 24.5216C49.786 24.4289 49.9827 24.3531 50.0789 24.3531C50.175 24.3531 50.1357 24.4289 49.9915 24.5216ZM48.9896 24.8096C48.8712 24.8572 48.6352 24.8602 48.4651 24.816C48.295 24.7719 48.3918 24.7329 48.6803 24.7294C48.9687 24.7259 49.1079 24.7619 48.9896 24.8096ZM21.8884 24.9845C21.7683 25.0329 21.5716 25.0329 21.4513 24.9845C21.3312 24.9364 21.4295 24.8969 21.6699 24.8969C21.9102 24.8969 22.0087 24.9364 21.8884 24.9845ZM49.3796 25.5651C48.8916 25.7736 48.3759 25.7736 48.5055 25.5651C48.5649 25.4694 48.8645 25.3967 49.1714 25.4033C49.6416 25.4138 49.6743 25.4392 49.3796 25.5651ZM6.54751 25.739C6.48807 25.8346 6.56674 25.9129 6.72233 25.9129C6.87793 25.9129 6.9566 25.8346 6.89716 25.739C6.83772 25.6433 6.75905 25.5651 6.72233 25.5651C6.68562 25.5651 6.60695 25.6433 6.54751 25.739ZM7.61953 25.7018C7.57285 25.7769 7.68055 25.8383 7.85869 25.8383C8.03684 25.8383 8.14453 25.7769 8.09785 25.7018C8.051 25.6266 7.94348 25.5651 7.85869 25.5651C7.7739 25.5651 7.66639 25.6266 7.61953 25.7018ZM50.4722 26.1882C50.3056 26.3539 49.9715 26.0856 50.0958 25.8858C50.1696 25.767 50.2673 25.7699 50.3929 25.8948C50.4958 25.9972 50.5315 26.1292 50.4722 26.1882ZM13.8968 27.1005C13.7982 27.5471 13.6922 27.6259 13.1176 27.6805L12.4524 27.7435L13.1713 27.1064C13.5667 26.756 13.9172 26.495 13.9505 26.5264C13.9837 26.5579 13.9596 26.8162 13.8968 27.1005ZM34.9565 26.796C34.9565 26.868 35.2908 26.9197 35.6995 26.9106C36.185 26.9 36.4273 26.9654 36.3988 27.0993C36.346 27.3464 36.4513 27.3522 37.1868 27.1424C37.4985 27.0534 37.7537 27.0461 37.7537 27.1261C37.7537 27.2061 37.9163 27.2294 38.1149 27.1776C38.8296 26.9917 38.1604 26.7984 36.5735 26.7324C35.6842 26.6955 34.9565 26.7242 34.9565 26.796ZM3.07933 27.3477C3.03091 27.4673 2.99122 27.3694 2.99122 27.1303C2.99122 26.8911 3.03091 26.7934 3.07933 26.9129C3.12793 27.0325 3.12793 27.2282 3.07933 27.3477ZM8.51481 26.9984C8.48561 27.0852 8.38719 27.1564 8.29576 27.1564C8.20432 27.1564 8.1059 27.0852 8.0767 26.9984C8.04768 26.9115 8.1461 26.8404 8.29576 26.8404C8.44541 26.8404 8.54383 26.9115 8.51481 26.9984ZM46.1453 26.9564C46.1453 27.052 45.9684 27.1291 45.752 27.1277C45.434 27.1254 45.4088 27.0927 45.6208 26.9564C45.9598 26.7384 46.1453 26.7384 46.1453 26.9564ZM2.17689 27.1303C2.23633 27.2259 2.20154 27.3042 2.09979 27.3042C1.99804 27.3042 1.91465 27.2259 1.91465 27.1303C1.91465 27.0346 1.94927 26.9564 1.99175 26.9564C2.03423 26.9564 2.11745 27.0346 2.17689 27.1303ZM47.8936 27.3042C47.8936 27.3998 47.8149 27.4781 47.7187 27.4781C47.6226 27.4781 47.5439 27.3998 47.5439 27.3042C47.5439 27.2085 47.6226 27.1303 47.7187 27.1303C47.8149 27.1303 47.8936 27.2085 47.8936 27.3042ZM14.8515 27.8694C14.8517 27.941 15.4221 27.9892 16.1192 27.9762C17.454 27.9511 17.3083 27.8734 15.7693 27.7892C15.2646 27.7616 14.8515 27.7977 14.8515 27.8694ZM13.6279 27.9998C13.6279 28.0955 13.4508 28.1725 13.2346 28.1711C12.9165 28.1689 12.8914 28.1362 13.1034 27.9998C13.4424 27.7819 13.6279 27.7819 13.6279 27.9998ZM49.467 28.1064C49.467 28.1435 49.0147 28.1645 48.4618 28.1532C47.6932 28.1374 47.5801 28.1057 47.981 28.0184C48.4847 27.9087 49.467 27.967 49.467 28.1064ZM18.6256 28.3231C18.5765 28.4023 18.7262 28.457 18.9583 28.4447C19.5328 28.4143 19.6536 28.2564 19.1352 28.2136C18.9041 28.1946 18.6749 28.2438 18.6256 28.3231ZM10.6996 28.4628C10.5795 28.5111 10.3828 28.5111 10.2625 28.4628C10.1424 28.4146 10.2407 28.3751 10.4811 28.3751C10.7214 28.3751 10.8199 28.4146 10.6996 28.4628ZM17.0807 28.4704C17.297 28.5118 17.6512 28.5118 17.8674 28.4704C18.0837 28.4289 17.9067 28.395 17.4741 28.395C17.0414 28.395 16.8644 28.4289 17.0807 28.4704ZM44.7938 28.4682C44.9639 28.5124 45.1999 28.5094 45.3182 28.4617C45.4366 28.4141 45.2974 28.3781 45.009 28.3816C44.7205 28.385 44.6236 28.424 44.7938 28.4682ZM33.3431 28.8369C33.3812 28.9504 33.2877 29.0433 33.1354 29.0433C32.9833 29.0433 32.8586 28.9193 32.8586 28.768C32.8586 28.4609 33.235 28.5143 33.3431 28.8369ZM10.4811 28.8508C10.4811 28.9362 10.3762 29.0461 10.248 29.0951C10.1197 29.144 10.0148 29.0741 10.0148 28.9398C10.0148 28.8054 10.1197 28.6955 10.248 28.6955C10.3762 28.6955 10.4811 28.7654 10.4811 28.8508ZM33.3357 29.3223C33.2777 29.38 33.1268 29.3863 33.0008 29.336C32.8613 29.2805 32.9027 29.2393 33.1064 29.231C33.2906 29.2235 33.3938 29.2645 33.3357 29.3223ZM5.93562 29.5073C6.07985 29.5676 6.26289 29.7033 6.34226 29.8085C6.43509 29.9315 6.46114 29.9068 6.41516 29.739C6.37583 29.5955 6.19296 29.4598 6.00852 29.4377C5.77303 29.4092 5.75136 29.4299 5.93562 29.5073ZM15.4636 29.565C15.4041 29.6607 15.4389 29.739 15.5407 29.739C15.6424 29.739 15.7258 29.6607 15.7258 29.565C15.7258 29.4694 15.6912 29.3911 15.6487 29.3911C15.6062 29.3911 15.523 29.4694 15.4636 29.565ZM43.42 29.5901C43.302 29.78 43.2375 29.7685 44.6032 29.7995C45.2455 29.8141 45.6782 29.777 45.5647 29.7172C45.2154 29.5329 43.5181 29.4323 43.42 29.5901ZM10.2391 29.9563C10.1798 30.1716 10.0819 30.6412 10.0216 30.9998C9.96131 31.3586 9.83858 31.652 9.74907 31.652C9.65956 31.652 9.62984 31.7221 9.68299 31.8076C9.73631 31.8934 9.66358 32.0078 9.52145 32.0619C9.37477 32.1179 9.30782 32.2762 9.36638 32.428C9.42303 32.5751 9.3933 32.6955 9.30012 32.6955C9.20677 32.6955 9.15275 32.897 9.18002 33.1435C9.21761 33.4852 9.16586 33.5673 8.96166 33.4894C8.77862 33.4195 8.72443 33.4662 8.79033 33.6374C8.84348 33.7749 8.77443 33.9803 8.63701 34.0937C8.49943 34.2073 8.42722 34.3647 8.47617 34.4436C8.5253 34.5226 8.46533 34.6506 8.34313 34.7283C8.22093 34.8059 8.12093 34.9867 8.12093 35.1302C8.12093 35.4608 7.47862 35.4742 7.36866 35.146C7.31114 34.9746 7.37583 34.9349 7.58404 35.0144C7.82443 35.1062 7.85904 35.0574 7.76394 34.7594C7.69016 34.5281 7.71271 34.4318 7.82443 34.5005C7.97583 34.5935 8.26376 33.6321 8.29296 32.9365C8.29733 32.8299 8.3975 32.6269 8.51534 32.4857C8.63334 32.3443 8.68317 32.1822 8.626 32.1255C8.56901 32.0687 8.64838 31.8433 8.8024 31.6245C8.95642 31.4057 9.08247 31.1313 9.08247 31.0146C9.08247 30.8977 9.2475 30.524 9.44942 30.1836C9.86778 29.4783 10.4143 29.3209 10.2391 29.9563ZM33.0968 29.9998C33.0413 30.1433 32.9735 30.2607 32.9461 30.2607C32.9186 30.2607 32.8508 30.1433 32.7954 29.9998C32.7347 29.8424 32.7945 29.739 32.9461 29.739C33.0976 29.739 33.1574 29.8424 33.0968 29.9998ZM12.8781 30.5546C12.9414 30.7188 12.9005 30.8788 12.7853 30.9169C12.6718 30.9546 12.579 31.1308 12.579 31.3083C12.579 31.7302 12.2335 31.9426 12.2155 31.5318C12.2071 31.3395 12.1667 31.304 12.1117 31.4405C12.062 31.5633 12.1062 31.7654 12.2101 31.8897C12.4101 32.1295 12.1066 33.0393 11.8256 33.0419C11.7478 33.0426 11.7374 32.9575 11.8026 32.8528C11.8676 32.7482 11.9255 32.2024 11.9312 31.64C11.9405 30.7496 11.9762 30.6449 12.2066 30.8302C12.4166 30.9993 12.4442 30.9982 12.34 30.8259C12.1923 30.5814 12.3368 30.2607 12.5947 30.2607C12.6882 30.2607 12.8159 30.393 12.8781 30.5546ZM33.5579 31.9998C33.5579 32.0955 33.4793 32.1737 33.3831 32.1737C33.287 32.1737 33.2083 32.0955 33.2083 31.9998C33.2083 31.9042 33.287 31.8259 33.3831 31.8259C33.4793 31.8259 33.5579 31.9042 33.5579 31.9998ZM11.6494 33.9455C11.5936 34.0841 11.5522 34.0429 11.5438 33.8403C11.5363 33.657 11.5776 33.5544 11.6356 33.6121C11.6936 33.6699 11.6999 33.82 11.6494 33.9455ZM7.50904 35.652C7.50904 35.7476 7.56796 35.8167 7.64016 35.8054C7.94855 35.7568 8.20834 35.837 8.20834 35.9805C8.20834 36.0655 8.07058 36.1241 7.9024 36.1109C7.4253 36.0732 6.89104 35.4781 7.33422 35.4781C7.43037 35.4781 7.50904 35.5563 7.50904 35.652ZM7.09716 36.7735C7.08335 37.0078 7.01044 37.1382 6.93509 37.0634C6.85992 36.9886 6.84856 36.797 6.91009 36.6375C7.06656 36.2323 7.1267 36.276 7.09716 36.7735ZM6.60258 38.2653C6.49943 38.6932 6.42023 39.1803 6.4267 39.3476C6.44488 39.8198 5.9559 39.7062 5.83055 39.209C5.76901 38.9655 5.76761 38.7177 5.82723 38.6584C5.88684 38.5991 5.93737 38.7396 5.93964 38.9707C5.94331 39.3679 5.95695 39.3624 6.18614 38.8693C6.31936 38.5824 6.4788 38.1231 6.54016 37.8488C6.6017 37.5746 6.683 37.381 6.72093 37.4187C6.75905 37.4565 6.70572 37.8375 6.60258 38.2653ZM32.2787 38.6412C32.223 38.7798 32.1815 38.7385 32.1732 38.5359C32.1656 38.3526 32.2069 38.25 32.2649 38.3078C32.323 38.3655 32.3293 38.5156 32.2787 38.6412ZM11.1942 38.8838C11.2026 39.0864 11.244 39.1276 11.2998 38.989C11.3503 38.8634 11.344 38.7133 11.286 38.6556C11.2279 38.5979 11.1867 38.7005 11.1942 38.8838ZM10.7753 40.0325C10.7195 40.1711 10.6781 40.1298 10.6697 39.9272C10.6622 39.7439 10.7034 39.6413 10.7615 39.6991C10.8195 39.7568 10.8258 39.9069 10.7753 40.0325ZM6.11045 40.0309C6.11045 40.39 5.69611 41.3911 5.54751 41.3911C5.41569 41.3911 5.51744 40.617 5.74733 39.8693C5.79296 39.7215 6.11045 39.8629 6.11045 40.0309ZM6.7073 41.3886C6.59419 41.5011 6.53509 41.4424 6.53509 41.2171C6.53509 40.9919 6.59419 40.9331 6.7073 41.0457C6.82058 41.1584 6.82058 41.2759 6.7073 41.3886ZM31.7543 41.2498C31.6985 41.3884 31.6571 41.3472 31.6487 41.1446C31.6412 40.9613 31.6824 40.8587 31.7405 40.9165C31.7985 40.9742 31.8048 41.1243 31.7543 41.2498ZM7.33422 42.3476C7.34104 42.1253 7.67845 42.6368 7.67845 42.8693C7.67845 42.965 7.601 42.9258 7.50642 42.7824C7.36341 42.5658 7.31534 42.5904 7.22251 42.9276C7.13911 43.2309 7.07355 43.2749 6.96307 43.1015C6.7538 42.7731 6.77495 42.5665 7.00327 42.7069C7.13492 42.7879 7.15922 42.6938 7.07932 42.4128C6.98859 42.0944 7.00362 42.0594 7.14523 42.2606C7.24628 42.4041 7.33125 42.4432 7.33422 42.3476ZM30.5737 42.9128C30.5628 43.3303 30.5434 43.3469 30.4207 43.0432C30.3433 42.8519 30.3142 42.6368 30.3559 42.565C30.5039 42.3104 30.5857 42.441 30.5737 42.9128ZM26.9359 43.2476C26.7298 43.6001 26.6802 43.4872 26.8489 43.05C26.9087 42.8945 26.9947 42.8039 27.0396 42.8488C27.0847 42.8935 27.038 43.073 26.9359 43.2476ZM6.95083 43.7434C6.89698 43.797 6.79925 43.7004 6.73352 43.529C6.63877 43.2811 6.6587 43.2611 6.83142 43.4316C6.951 43.5497 7.00467 43.69 6.95083 43.7434ZM30.3237 43.478C30.3831 43.5737 30.3483 43.6519 30.2466 43.6519C30.1448 43.6519 30.0614 43.5737 30.0614 43.478C30.0614 43.3824 30.0961 43.3041 30.1385 43.3041C30.181 43.3041 30.2642 43.3824 30.3237 43.478ZM8.20834 43.8258C8.20834 43.9215 8.12495 43.9997 8.0232 43.9997C7.92146 43.9997 7.88667 43.9215 7.94611 43.8258C8.00555 43.7302 8.08876 43.6519 8.13124 43.6519C8.17373 43.6519 8.20834 43.7302 8.20834 43.8258ZM27.5585 44.3803C27.5027 44.5189 27.4613 44.4776 27.4529 44.275C27.4454 44.0917 27.4866 43.9891 27.5447 44.0469C27.6027 44.1046 27.609 44.2547 27.5585 44.3803ZM25.616 45.3476C25.7029 45.4194 25.833 45.5562 25.9046 45.6519C25.9791 45.7512 26.0363 45.6952 26.0379 45.5215C26.0393 45.3522 25.9111 45.2171 25.749 45.2171C25.5889 45.2171 25.5289 45.2757 25.616 45.3476ZM6.28527 45.6622C6.28527 45.8112 6.36516 45.8841 6.46289 45.8241C6.56062 45.7639 6.59541 45.642 6.53999 45.5529C6.39016 45.3117 6.28527 45.3566 6.28527 45.6622ZM25.4015 46.1811C25.2389 46.6027 25.4658 46.6789 25.6828 46.2756C25.8181 46.0239 25.8207 45.9128 25.6915 45.9128C25.5889 45.9128 25.4585 46.0335 25.4015 46.1811ZM29.0125 49.0432C29.0125 49.1388 28.9779 49.2171 28.9354 49.2171C28.8929 49.2171 28.8097 49.1388 28.7503 49.0432C28.6908 48.9475 28.7256 48.8693 28.8274 48.8693C28.9291 48.8693 29.0125 48.9475 29.0125 49.0432Z" fill="white"/>
</svg>
