<svg width="189" height="155" viewBox="0 0 189 155" fill="none" xmlns="http://www.w3.org/2000/svg">
<path fill-rule="evenodd" clip-rule="evenodd" d="M0 0.462621C0 0.716866 0.198843 0.803798 0.441873 0.65527C0.684903 0.506742 0.883746 0.298803 0.883746 0.192649C0.883746 0.0864957 0.684903 0 0.441873 0C0.198843 0 0 0.208376 0 0.462621ZM49.5512 16.9811C49.2207 17.193 48.5773 17.2703 48.1217 17.1528C47.6661 17.0348 46.9428 17.0977 46.5137 17.2926C46.0847 17.487 44.9385 17.6569 43.9663 17.6696C42.3009 17.691 42.1909 17.7744 42.0606 19.112C41.9275 20.4754 41.0942 21.1753 41.0942 19.9233C41.0942 19.0867 39.7014 18.6258 39.2582 19.3156C39.0028 19.7136 38.8945 19.6227 38.8848 19.0028C38.8746 18.3323 38.7814 18.2698 38.484 18.7333C38.2326 19.126 37.3383 19.3204 35.9274 19.2894C34.106 19.2488 33.5293 19.4471 32.3358 20.5248C31.5245 21.2574 30.6333 21.7021 30.2599 21.5601C29.8998 21.4238 29.6055 21.5296 29.6055 21.7956C29.6055 22.0616 29.3143 22.2792 28.9581 22.2792C28.1049 22.2792 27.2574 23.8916 27.5428 24.9715C27.6816 25.4953 27.5079 25.9264 27.0961 26.0828C26.4324 26.3344 25.6154 25.5324 25.6702 24.6818C25.6856 24.4416 25.7987 24.4909 25.9211 24.7911C26.2366 25.5638 26.8959 25.4708 26.7771 24.67C26.7227 24.3027 26.5411 24.0078 26.3741 24.0148C26.207 24.0213 25.7952 24.0266 25.4594 24.0266C24.9163 24.0266 24.7184 24.3747 24.3419 25.9924C24.2858 26.2326 23.9172 26.7818 23.5231 27.2125C22.8567 27.9403 22.8629 27.9739 23.611 27.6904C24.3238 27.42 24.3923 27.5803 24.2084 29.0914C24.09 30.069 24.2398 31.1708 24.5602 31.6714C25.018 32.3874 25.0051 32.6464 24.4899 33.1082C23.9716 33.5725 23.8611 33.5533 23.8611 32.999C23.8611 32.245 23.4851 32.1607 22.5987 32.7155C22.1807 32.9776 22.1476 33.1816 22.4882 33.3899C23.3919 33.9421 23.0185 34.5633 22.0813 34.0675C21.5886 33.8067 21.2969 33.4144 21.4335 33.196C21.57 32.9776 21.0791 33.0064 20.3416 33.2602C19.6046 33.5144 19.1145 33.9028 19.2524 34.1238C19.3907 34.3445 19.6885 34.4122 19.9148 34.2737C20.141 34.1356 20.3261 34.1833 20.3261 34.3798C20.3261 35.0211 18.7191 35.7524 18.1177 35.385C17.3581 34.9211 15.105 35.2112 14.2928 35.8773C13.8266 36.2596 13.794 36.4837 14.1713 36.7143C14.4545 36.8873 15.0573 36.6619 15.5111 36.2133C16.2008 35.5314 16.519 35.4798 17.4473 35.8979C18.0585 36.1731 18.5587 36.603 18.5587 36.8528C18.5587 37.128 18.3496 37.1001 18.0284 36.7825C17.2145 35.9778 16.3298 36.1338 16.667 37.0228C16.9153 37.6785 16.8557 37.706 16.2468 37.2167C15.641 36.7305 15.5539 36.7624 15.6538 37.4351C15.7179 37.8689 16.0002 38.2486 16.2808 38.2787C16.5614 38.3088 17.0143 38.3578 17.287 38.3879C17.6458 38.4272 17.6396 38.6133 17.2657 39.0589C16.6736 39.764 17.3541 40.4376 18.161 39.9444C18.514 39.7286 18.514 39.8924 18.161 40.5455C17.4902 41.7844 17.5344 41.8822 18.6691 41.6656C19.6545 41.4773 19.6545 41.4799 18.6364 41.9229C18.0342 42.185 17.3029 42.2147 16.8689 41.9941C16.0378 41.5725 15.0237 41.8014 15.0237 42.4104C15.0237 42.6306 15.3219 42.811 15.6865 42.811C16.051 42.811 16.2994 43.0569 16.2388 43.357C16.1708 43.6943 16.5088 43.8507 17.1226 43.7664C17.6696 43.6912 18.1168 43.8389 18.1168 44.094C18.1168 44.3496 17.731 44.5584 17.2591 44.5584C16.2406 44.5584 15.6639 45.2735 16.4571 45.5535C16.7624 45.661 16.8915 45.879 16.7439 46.038C16.3007 46.515 15.063 45.8392 15.2932 45.246C15.5645 44.5474 13.2792 41.9373 12.3967 41.9373C11.9341 41.9373 12.0207 42.1356 12.6822 42.5939C13.6393 43.2566 14.8862 46.1502 14.4157 46.6159C14.2756 46.754 13.8761 46.633 13.5271 46.3468C13.1351 46.0253 12.7918 45.9882 12.6283 46.2494C12.4829 46.4822 12.9959 47.1615 13.7679 47.7591L15.1721 48.8451L13.4678 49.3104C12.5302 49.5664 11.296 49.6599 10.7247 49.5179C9.98588 49.3344 9.72341 49.4327 9.81444 49.8582C9.99649 50.7105 10.7097 51.1268 11.547 50.8695C12.4776 50.5838 13.0008 51.8913 12.2933 52.7344C11.8638 53.2459 11.8842 53.3552 12.3963 53.2822C13.6137 53.1096 14.1908 53.2975 13.8951 53.7702C13.7321 54.0314 13.2235 54.148 12.7648 54.0296C12.3066 53.9113 11.8342 53.9698 11.7149 54.1603C11.5961 54.3507 11.866 54.6015 12.315 54.7177C12.7639 54.8339 13.2747 55.4931 13.4497 56.1824C13.6247 56.8722 14.0007 57.6044 14.2853 57.8097C14.6096 58.0438 14.5005 58.0862 13.9932 57.9233C13.5483 57.7804 13.0012 57.6638 12.7781 57.6638C12.5549 57.6638 12.3724 57.2706 12.3724 56.7901C12.3724 56.3095 12.1073 55.9164 11.7834 55.9164C10.8352 55.9164 10.5705 56.441 11.1613 57.1496C11.6411 57.7258 11.4494 57.7734 9.63018 57.5284C8.48617 57.3746 7.44777 57.413 7.32228 57.614C6.93299 58.2365 7.61921 58.5563 8.24446 58.0434C8.69915 57.6703 8.83746 57.7223 8.83746 58.2658C8.83746 58.6554 9.08623 58.9892 9.3898 59.0079C9.69381 59.0263 10.2903 59.1071 10.7154 59.1875C11.1405 59.2679 11.4887 59.1307 11.4887 58.8821C11.4887 58.6104 11.7512 58.6458 12.1466 58.9704C12.5085 59.2674 12.6628 59.7336 12.4891 60.0066C12.3154 60.2796 12.2306 60.8471 12.3009 61.2678C12.3764 61.7234 12.1488 62.0322 11.7375 62.0322C11.3575 62.0322 11.0468 62.3389 11.0468 62.7133C11.0468 63.1313 11.2602 63.2751 11.5992 63.0859C11.9032 62.9164 11.7317 63.182 11.2183 63.6761C10.7048 64.1706 9.7106 64.6411 9.0089 64.7219C8.30721 64.8027 7.60816 65.0386 7.45571 65.2461C7.08101 65.7564 7.51184 67.2744 8.03148 67.2744C8.26037 67.2744 8.31649 67.0647 8.15654 66.8083C7.85871 66.3326 9.1313 65.129 9.95848 65.1041C10.2108 65.0963 10.4432 65.4361 10.4755 65.8586C10.5077 66.2814 10.5736 66.8218 10.6217 67.0599C10.9651 68.7523 10.5205 69.8592 9.27933 70.4022C7.66428 71.109 7.60419 71.4751 9.05839 71.7499C9.86525 71.9024 10.1648 71.7691 10.1697 71.2545C10.1755 70.6504 10.2347 70.6416 10.5886 71.1947C10.8148 71.5485 10.859 71.9417 10.6867 72.0684C10.1688 72.4475 10.2015 74.7288 10.7203 74.412C10.9916 74.246 11.0517 74.3391 10.8661 74.6366C10.6916 74.9157 10.8709 75.4631 11.2651 75.8528C11.6588 76.242 11.8661 76.8579 11.7251 77.221C11.574 77.6102 11.8541 78.148 12.4074 78.5311C13.106 79.0147 13.2032 79.2685 12.7878 79.5223C12.4697 79.7167 11.9611 79.5987 11.6062 79.2479C11.2638 78.9094 10.6995 78.6324 10.3526 78.6324C9.28595 78.6324 9.65227 79.5188 10.9478 80.0731C11.7755 80.4274 12.1223 80.8577 12.0141 81.395C11.9257 81.8336 12.193 82.5636 12.6084 83.0171C13.0834 83.5365 13.2451 84.1314 13.0445 84.6229C12.7569 85.3271 12.6884 85.3074 12.3424 84.4206C11.8073 83.0485 10.589 83.1298 10.7061 84.5298C10.7565 85.1305 10.9315 85.622 11.0954 85.622C11.2589 85.622 11.5196 86.1213 11.6747 86.732C12.0256 88.1137 12.6195 87.7844 13.5332 85.7015C13.9212 84.8169 14.3286 84.328 14.4386 84.615C14.5491 84.902 14.4183 85.5446 14.1483 86.0435C13.8783 86.5424 13.7635 87.1208 13.8938 87.3287C14.0237 87.5367 13.7347 87.8093 13.2513 87.9342C12.7679 88.0591 12.3724 88.4973 12.3724 88.9084C12.3724 89.4819 12.646 89.6038 13.5505 89.4326C14.7418 89.2076 17.644 90.3277 17.6639 91.0201C17.6701 91.2258 17.3797 91.2826 17.0187 91.1455C16.1372 90.8108 15.325 92.2979 16.0166 92.9815C16.4014 93.362 16.4001 93.4852 16.0113 93.4852C15.4753 93.4852 14.5818 92.138 14.5818 91.3298C14.5818 91.0738 14.9198 90.8641 15.333 90.8641C15.9171 90.8641 15.9662 90.7475 15.5539 90.3399C15.1417 89.9323 14.9057 89.9323 14.4934 90.3399C14.2018 90.6282 13.6053 90.8641 13.1678 90.8641C12.7304 90.8641 12.3724 91.1708 12.3724 91.5452C12.3724 91.9195 12.5532 92.1157 12.7745 91.9807C13.5368 91.515 14.5818 92.2708 14.5818 93.2878C14.5818 94.4563 15.4081 95.1575 15.8853 94.3943C16.1209 94.0177 16.3533 94.0557 16.7576 94.5376C17.0766 94.9176 17.1562 95.4322 16.9463 95.7594C16.4478 96.5366 16.4421 97.0582 16.9224 98.0267C17.2724 98.7317 17.1942 98.8191 16.3992 98.6138C15.2468 98.3159 15.2128 98.7422 16.2905 99.9711C17.2392 101.053 17.8852 101.21 17.5207 100.27C17.0837 99.145 17.967 99.1472 18.4857 100.273C18.7597 100.867 19.2365 101.303 19.5445 101.242C19.8529 101.18 20.0553 101.376 19.9947 101.676C19.9338 101.977 20.1825 102.222 20.5471 102.222C21.2642 102.222 21.3438 102.531 21.2147 104.805C21.1357 106.194 21.1798 106.246 21.8643 105.569C22.7812 104.663 22.7878 104.664 22.7878 105.685C22.7878 106.148 22.6173 106.422 22.4083 106.294C22.1993 106.167 22.285 106.468 22.5983 106.964C22.9809 107.57 23.2708 107.702 23.4807 107.366C23.8854 106.719 25.033 107.608 25.4435 108.887C25.8288 110.087 27.7364 111.946 28.2569 111.628C28.4831 111.49 28.64 111.746 28.606 112.196C28.5605 112.79 28.2944 112.956 27.6383 112.799C26.7333 112.582 26.7333 112.582 27.6171 113.449C28.1031 113.926 28.8985 114.297 29.3845 114.276C29.966 114.249 30.2475 114.495 30.2078 114.995C30.1746 115.413 30.2913 115.667 30.4671 115.56C30.9505 115.264 32.6986 116.605 32.6986 117.272C32.6986 117.593 33.0097 117.973 33.3892 118.117C33.7692 118.261 33.9566 118.577 33.805 118.819C33.566 119.202 34.459 119.467 35.4603 119.311C35.6428 119.282 35.7917 119.652 35.7917 120.133C35.7917 121.097 35.0957 121.323 34.7842 120.46C34.676 120.16 34.432 120.057 34.2425 120.232C33.7794 120.658 34.8536 121.882 36.105 122.352C36.6618 122.561 37.1173 123.032 37.1173 123.398C37.1173 123.765 37.31 124.064 37.5455 124.064C37.7806 124.064 37.8588 123.77 37.7191 123.409C37.5791 123.049 37.6847 122.754 37.9538 122.754C38.2229 122.754 38.4429 122.962 38.4429 123.217C38.4429 123.471 38.6431 123.557 38.8879 123.407C39.1327 123.258 39.4517 123.442 39.5971 123.816C39.7425 124.19 40.039 124.388 40.2568 124.255C40.4742 124.122 40.6523 124.31 40.6523 124.672C40.6523 125.035 40.3138 125.519 39.8998 125.748C39.2653 126.099 39.2392 126.274 39.7332 126.862C40.4146 127.674 41.536 127.79 41.536 127.049C41.536 126.174 42.0919 127.043 42.2019 128.091C42.2598 128.64 42.3323 129.235 42.3632 129.416C42.3946 129.596 43.2032 129.743 44.1612 129.743C46.048 129.743 46.5491 130.103 45.9641 131.039C45.463 131.841 46.6684 133.622 47.6189 133.485C48.0223 133.426 48.7381 133.733 49.2092 134.167C49.6802 134.6 50.2321 134.854 50.4354 134.729C50.6386 134.605 50.693 134.793 50.5555 135.147C50.1879 136.094 51.149 137.62 51.9267 137.325C52.3429 137.167 52.5829 137.339 52.5829 137.794C52.5829 138.368 52.7539 138.421 53.4374 138.059C54.5302 137.481 54.9208 137.484 54.5558 138.068C54.0433 138.888 54.756 140.656 55.5721 140.589C57.3591 140.443 58.371 140.678 58.0639 141.17C57.8376 141.531 58.1496 141.595 59.1641 141.395C60.1349 141.203 60.4866 141.265 60.2821 141.592C60.0854 141.907 60.2909 141.973 60.8861 141.786C61.3819 141.63 61.9241 141.721 62.0906 141.987C62.2572 142.253 62.7102 142.351 63.0972 142.205C63.7075 141.973 63.7013 142.046 63.0526 142.755C62.0036 143.901 62.1101 144.159 63.6297 144.159C64.3588 144.159 64.9553 143.963 64.9553 143.723C64.9553 143.049 66.1364 143.205 66.9234 143.983C67.3118 144.367 67.9366 144.564 68.3126 144.422C69.1164 144.117 70.6996 144.856 70.6996 145.536C70.6996 145.796 70.3347 145.914 69.8888 145.799C69.2256 145.628 69.1164 145.789 69.2901 146.687C69.454 147.535 69.3625 147.704 68.8858 147.431C68.5468 147.236 68.4236 147.245 68.6122 147.45C68.8005 147.655 69.393 147.888 69.9281 147.969C70.4637 148.05 71.0717 148.284 71.2798 148.49C71.4879 148.696 72.0429 148.764 72.5135 148.642C73.1547 148.477 73.251 148.28 72.8971 147.858C72.5869 147.489 72.5758 147.203 72.8653 147.026C73.1079 146.877 73.5215 147.153 73.7839 147.638C74.0464 148.123 74.4043 148.498 74.5793 148.472C75.6424 148.313 76.0825 148.561 75.6508 149.075C75.1254 149.701 75.9628 151.149 76.8501 151.149C77.1563 151.149 77.2398 151.38 77.048 151.695C76.7851 152.128 76.8549 152.13 77.3834 151.707C77.9154 151.282 78.2464 151.309 79.0148 151.841C79.5689 152.225 79.979 152.311 79.979 152.044C79.979 151.605 81.6329 152.277 82.1883 152.943C82.3099 153.088 83.2047 153.368 84.1768 153.564C85.1489 153.76 86.0932 153.961 86.2757 154.009C86.4582 154.058 86.8178 154.122 87.075 154.152C87.3322 154.182 87.3936 154.453 87.2111 154.753C86.9972 155.105 87.1519 155.08 87.6477 154.682C88.0706 154.343 88.2301 153.95 88.0025 153.809C87.7683 153.663 87.8549 153.307 88.2027 152.989C88.7117 152.521 88.8164 152.574 88.8164 153.3C88.8164 154.677 90.3214 155.237 91.8777 154.441C93.5436 153.59 93.8206 153.121 93.0376 152.479C92.5799 152.103 92.1667 152.09 91.5251 152.429C90.1253 153.17 90.0073 152.978 91.1942 151.891C92.2551 150.919 92.2635 150.868 91.4438 150.362C90.4006 149.718 89.5482 149.679 89.9322 150.293C90.2132 150.743 88.2376 150.454 87.2703 149.904C87.0273 149.765 86.2593 149.711 85.5634 149.783C84.6584 149.877 84.3597 149.748 84.5139 149.33C84.6323 149.009 84.9527 148.796 85.2262 148.856C85.8599 148.995 85.8347 148.564 85.137 147.321C84.6447 146.445 84.487 146.401 83.7464 146.936C83.0199 147.462 82.7959 147.434 82.024 146.723C81.347 146.099 81.0532 146.035 80.7854 146.452C80.5923 146.753 80.4315 146.797 80.4275 146.55C80.424 146.303 80.7306 145.664 81.1088 145.131C81.9873 143.89 81.4429 143.879 80.1177 145.109C79.5557 145.632 79.0952 145.84 79.0952 145.573C79.0952 145.306 78.747 145.089 78.322 145.092C76.8735 145.1 76.0366 144.769 75.2456 143.877C74.5064 143.043 72.8383 141.975 72.2754 141.975C72.1379 141.975 72.0125 142.417 71.9974 142.958L71.9691 143.941L71.5525 142.912C71.2988 142.287 70.8919 141.977 70.5123 142.12C70.1694 142.25 69.7792 142.074 69.6453 141.729C69.5115 141.384 69.5945 141.102 69.8296 141.102C70.0651 141.102 70.2578 140.905 70.2578 140.665C70.2578 140.424 69.7107 140.225 69.0426 140.221C68.3745 140.217 67.5292 140.024 67.1647 139.791C66.5982 139.429 66.6141 139.366 67.2751 139.361C68.4015 139.351 68.223 138.567 67.0542 138.391C66.5072 138.309 66.1117 137.994 66.1749 137.693C66.2531 137.319 65.9283 137.378 65.159 137.877C64.5368 138.279 64.0614 138.433 64.102 138.217C64.2735 137.309 64.0468 135.863 63.7402 135.911C62.6567 136.08 61.8887 135.757 61.6563 135.033C61.3965 134.223 59.9763 133.515 58.8796 133.647C58.576 133.683 58.3272 133.389 58.3272 132.992C58.3272 132.531 58.0886 132.362 57.6644 132.523C57.2535 132.678 57.0016 132.521 57.0016 132.107C57.0016 131.739 56.8527 131.523 56.6702 131.625C56.0944 131.949 53.7061 130.387 53.2514 129.39C52.8573 128.526 52.0133 128.243 50.0421 128.315C49.3444 128.341 49.3355 127.886 50.02 127.21C50.3116 126.921 50.3616 126.685 50.1305 126.685C49.8998 126.685 49.1332 126.193 48.4266 125.593C47.7205 124.992 46.6768 124.501 46.1068 124.501C45.5372 124.501 45.071 124.311 45.071 124.078C45.071 123.846 45.3693 123.768 45.7338 123.906C46.1567 124.067 46.3966 123.899 46.3966 123.442C46.3966 123.048 46.1107 122.618 45.7617 122.486C45.4126 122.353 45.235 121.966 45.3671 121.626C45.5951 121.038 45.0816 120.817 43.8559 120.974C43.5192 121.017 43.3035 120.526 43.3035 119.715C43.3035 118.984 43.1546 118.407 42.9721 118.433C42.0941 118.558 40.6448 117.769 40.5851 117.133C40.548 116.741 40.4976 116.13 40.4733 115.777C40.4084 114.827 38.4054 113.941 37.6763 114.539C37.3573 114.801 36.9684 114.889 36.812 114.735C36.656 114.58 36.7369 114.454 36.9923 114.454C37.6741 114.454 38.0408 112.625 37.4907 111.969C37.2304 111.659 36.8407 111.513 36.6255 111.645C36.4099 111.776 36.2336 111.493 36.2336 111.014C36.2336 110.528 35.8438 110.022 35.3498 109.867C34.8638 109.715 34.4661 109.4 34.4661 109.169C34.4661 108.937 33.6707 108.025 32.6986 107.141C31.7265 106.257 30.9311 105.204 30.9311 104.8C30.9311 104.38 30.4574 103.947 29.8264 103.79C28.8154 103.539 28.5012 102.901 28.6855 101.471C28.7231 101.179 28.3492 100.689 27.8543 100.383C27.359 100.078 26.9542 99.4137 26.9542 98.9073C26.9542 98.3849 26.5247 97.7825 25.96 97.5129C25.2968 97.1967 25.1863 97.0149 25.6286 96.966C25.9932 96.9258 25.8102 96.7598 25.2225 96.5973C24.4727 96.3902 24.1024 95.9259 23.9826 95.0439C23.889 94.3519 23.5523 93.2755 23.2346 92.6526C22.9168 92.0292 22.7454 91.2739 22.8541 90.9733C22.9624 90.6732 22.8355 90.4273 22.5722 90.4273C22.3093 90.4273 22.0936 90.0734 22.0936 89.641C22.0936 89.2085 21.855 88.6187 21.5634 88.3304C21.1511 87.9228 21.1754 87.8001 21.6739 87.7787C22.026 87.7634 21.8842 87.5795 21.3588 87.3698C20.5347 87.0413 20.4357 86.7433 20.6434 85.2131C20.8082 83.9978 20.7185 83.4377 20.3584 83.4377C20.069 83.4377 19.955 83.2411 20.1052 83.0009C20.2554 82.7606 19.974 82.564 19.4795 82.564C18.697 82.564 18.6364 82.4186 19.0116 81.4435C19.6174 79.8674 19.5524 79.2405 18.6943 78.3917C18.0395 77.7443 18.0275 77.5905 18.5997 77.1594C19.2705 76.6539 19.2259 75.2429 18.5158 74.5042C18.2962 74.2757 18.1168 73.5436 18.1168 72.877C18.1168 71.7643 18.0258 71.6988 17.0121 72.0797C16.302 72.3466 15.9074 72.3427 15.9074 72.0688C15.9074 71.8346 16.2176 71.6429 16.5963 71.6429C16.975 71.6429 17.1623 71.4463 17.0121 71.206C16.8619 70.9658 17.0492 70.7692 17.4279 70.7692C18.1954 70.7692 18.3147 70.0073 17.6974 69.0428C17.4739 68.6937 17.4222 68.2023 17.5826 67.9506C17.7425 67.6986 17.9352 67.049 18.0107 66.5064C18.0863 65.9634 18.3117 65.0823 18.5118 64.5476C19.0699 63.0562 17.7403 60.7134 16.4598 60.9314C15.8115 61.0419 15.4655 60.8829 15.4655 60.4744C15.4655 60.1298 15.2667 59.848 15.0237 59.848C13.9168 59.848 14.7307 59.1875 15.8871 59.1473C16.6038 59.1224 17.15 59.2207 17.1009 59.3657C17.0523 59.5108 17.1933 59.6921 17.4151 59.7685C17.6365 59.8449 18.0779 59.2958 18.396 58.5484C18.8883 57.3912 18.8777 57.1527 18.3245 56.943C17.967 56.8076 17.6749 56.4882 17.6749 56.2335C17.6749 55.9793 17.8057 55.9002 17.9657 56.0584C18.1256 56.2165 18.5604 56.1016 18.932 55.8032C19.5074 55.3419 19.5586 55.3909 19.278 56.1348C19.0266 56.801 19.0712 56.8879 19.4654 56.5013C19.8604 56.1138 19.7941 55.5713 19.1857 54.2079C18.7473 53.2254 18.2162 52.4216 18.0059 52.4216C17.7951 52.4216 17.7646 52.6488 17.9378 52.9262C18.1221 53.2206 18.0602 53.3123 17.7894 53.1468C17.5344 52.9908 17.2127 53.1538 17.0753 53.5089C16.9374 53.8636 16.5685 54.0615 16.2556 53.948C15.4686 53.6623 14.7201 54.2205 14.4952 55.2611C14.3918 55.7416 14.2977 55.0042 14.2866 53.6229C14.2751 52.2416 14.4028 51.1111 14.5694 51.1111C14.7365 51.1111 14.8571 51.5532 14.8377 52.094C14.7992 53.1791 15.7143 53.2494 17.6091 52.3067C18.4897 51.8686 18.7416 51.9175 19.2674 52.6282C19.7606 53.2949 20 53.3556 20.4344 52.9262C20.8692 52.4963 20.8489 52.3041 20.335 51.99C19.7871 51.6554 19.8083 51.5492 20.4742 51.2967C20.9156 51.129 21.156 50.7284 21.0217 50.3828C20.8904 50.0443 21.0937 49.6494 21.4737 49.5052C21.8926 49.3466 22.0782 48.9164 21.9452 48.4127C21.8228 47.9492 22.0685 47.252 22.5015 46.8348C23.9371 45.4522 23.9248 44.6658 22.4591 44.1608C21.4923 43.8275 21.1874 43.499 21.3813 42.9993C21.5303 42.6161 21.6518 42.1828 21.6518 42.0365C21.6518 41.8901 21.9054 42.1133 22.2156 42.5327C22.5943 43.0447 23.0534 43.1915 23.6124 42.9796C24.3971 42.6817 24.3901 42.6437 23.49 42.3147C22.965 42.1225 22.5355 41.6249 22.5355 41.2086C22.5355 40.6202 22.6535 40.5686 23.0658 40.9762C23.3574 41.2645 23.999 41.5004 24.4912 41.5004C25.6215 41.5004 28.7204 38.0996 28.7213 36.8576C28.7213 36.3465 29.0571 35.6585 29.4672 35.3287C30.1203 34.804 30.1768 34.8246 29.9232 35.4938C29.7637 35.9145 29.8048 36.2583 30.0138 36.2583C30.5913 36.2583 30.9404 35.0447 30.6107 34.1833C30.3545 33.5144 30.4252 33.5241 31.1768 34.2615C31.9514 35.0207 32.0499 35.0316 32.1785 34.3707C32.2572 33.967 32.4728 33.6372 32.6575 33.6372C32.8422 33.6372 32.9933 33.3423 32.9933 32.9819C32.9933 32.6215 32.8409 32.3267 32.6548 32.3267C32.4684 32.3267 32.19 31.9335 32.0358 31.453C31.8816 30.9724 31.4207 30.5635 31.012 30.5448C30.552 30.5234 30.4791 30.4264 30.8206 30.2901C31.1246 30.1686 31.373 29.7043 31.373 29.2582C31.373 28.8118 31.5718 28.3251 31.8148 28.1766C32.0579 28.0281 32.2567 28.2133 32.2567 28.5877C32.2567 28.9621 32.4746 29.2687 32.741 29.2687C33.007 29.2687 33.7569 29.6431 34.4069 30.1009C35.3874 30.7911 35.7188 30.8388 36.3529 30.3801C36.7735 30.0765 37.1173 29.5055 37.1173 29.1115C37.1173 28.271 36.3962 28.1491 36.1098 28.9411C36.0016 29.2416 35.7365 29.3238 35.5213 29.1237C35.3003 28.9184 35.512 28.4846 36.0082 28.1259C36.7793 27.5681 36.9463 27.5725 37.3816 28.1618C37.6546 28.5305 38.1438 28.8319 38.4694 28.8319C38.9299 28.8319 38.9436 28.7153 38.5313 28.3077C37.7523 27.5375 37.8831 27.0845 38.8848 27.0845C39.4968 27.0845 39.7686 26.7931 39.7686 26.1379C39.7686 24.843 40.1848 25.3507 40.3054 26.7927C40.4106 28.0486 41.7464 28.7987 42.5183 28.0355C42.7662 27.7904 43.2761 27.7061 43.6509 27.8481C44.098 28.018 44.2226 27.9311 44.0127 27.5956C43.8369 27.3143 43.2677 27.0845 42.7472 27.0845C41.9982 27.0845 41.9143 26.9727 42.3451 26.5467C42.7759 26.1208 43.2934 26.1527 44.8302 26.6992L46.7714 27.389L47.7019 26.1448C48.5963 24.9483 48.5998 24.9003 47.7872 24.9003C47.3025 24.9003 46.839 24.5123 46.7015 23.9921C46.5208 23.3101 46.6273 23.1468 47.1279 23.3368C47.4947 23.4757 48.0104 23.5897 48.2737 23.5897C48.5375 23.5897 48.6201 23.7212 48.4575 23.882C48.0413 24.2935 49.4871 25.774 50.3055 25.774C50.8353 25.774 50.7959 25.6324 50.1265 25.1292C49.4526 24.6229 49.6824 24.6412 51.1989 25.2161C53.0203 25.9059 53.1613 25.9041 53.6951 25.182C54.0066 24.7613 54.3309 24.5748 54.4162 24.7679C54.6632 25.3262 57.6087 26.5341 58.2167 26.3266C58.876 26.1016 58.9542 24.6281 58.3272 24.245C57.6595 23.837 57.7978 23.1529 58.5481 23.1529C58.9127 23.1529 59.2171 23.4971 59.2251 23.9174C59.2379 24.6089 59.3007 24.601 59.8879 23.8339C60.5459 22.9738 60.5697 23.0039 60.7248 24.9003C60.7544 25.2607 61.0991 25.5031 61.491 25.4385C61.883 25.3742 62.3239 25.6324 62.4715 26.0125C62.6191 26.3921 62.9373 26.5821 63.179 26.4349C63.4202 26.2873 64.3327 26.3615 65.2058 26.6C67.0007 27.0902 69.0068 26.4751 68.6463 25.5455C68.5274 25.2393 68.6423 24.8588 68.9021 24.7002C69.1783 24.5316 69.374 24.7845 69.374 25.3113C69.374 25.8058 69.5848 26.2108 69.842 26.2108C70.0991 26.2108 70.1871 26.0142 70.0368 25.774C69.8813 25.525 70.2635 25.3371 70.9259 25.3371C71.9828 25.3371 72.0253 25.3996 71.3938 26.0234C70.4213 26.9853 70.5295 27.5227 71.6939 27.5148C72.4791 27.5096 72.5515 27.4226 72.0381 27.1015C71.6806 26.8779 71.5405 26.5446 71.7266 26.3602C71.913 26.1763 72.445 26.2597 72.9086 26.5459C73.9302 27.1767 74.1538 26.8687 74.0292 25.0051C73.977 24.2214 74.2006 23.3621 74.5263 23.0948C74.9615 22.7379 75.1184 22.7392 75.1184 23.0996C75.1184 23.3691 74.87 23.5928 74.566 23.5963C74.1317 23.6015 74.1334 23.6784 74.5753 23.9554C74.8842 24.1493 75.0583 24.7849 74.9624 25.3686C74.8661 25.9518 74.9893 26.6795 75.2364 26.9853C75.577 27.4073 75.4957 27.4694 74.8997 27.2435C74.3774 27.0452 74.175 27.126 74.2961 27.4847C74.3959 27.7813 74.6217 28.0089 74.798 27.991C74.9743 27.973 75.5161 27.9582 76.0021 27.9582C76.6199 27.9582 76.8903 27.6624 76.9 26.9753C76.9124 26.1086 76.9778 26.0754 77.4546 26.694C77.8735 27.2378 78.1682 27.2872 78.766 26.9146C79.8363 26.2471 81.0443 27.0627 81.2259 28.5755C81.3466 29.575 81.4725 29.675 82.0332 29.215C82.5692 28.7751 82.7756 28.7908 83.1013 29.2967C83.3231 29.6418 83.4026 30.1975 83.2785 30.5317C83.1008 31.0087 83.1856 31.0301 83.673 30.6299C84.1604 30.2302 84.3557 30.2774 84.5776 30.8492C84.7331 31.2498 84.9766 31.463 85.1184 31.3228C85.2602 31.1826 86.1696 31.7933 87.1391 32.6801C88.1086 33.5669 89.131 34.2925 89.4116 34.2925C90.1283 34.2925 91.5799 36.1617 91.2604 36.6733C90.8583 37.3168 92.0191 38.8794 92.8998 38.8794C93.3399 38.8794 93.6832 39.2105 93.6912 39.6438C93.6987 40.0645 93.9969 40.7901 94.354 41.2562C95.0579 42.1762 95.198 42.8416 94.6712 42.7594C93.8069 42.6245 93.6165 42.8678 94.1189 43.4663C94.4216 43.8267 95.0278 44.1215 95.4662 44.1215C95.9191 44.1215 96.5638 44.7165 96.9588 45.4993C97.8006 47.1677 97.7975 47.0833 97.0256 47.2568C96.5041 47.3738 96.5346 47.6761 97.2041 49.0278L98.0109 50.6576L96.973 50.5724C96.186 50.5082 96.0477 50.3531 96.4021 49.9307C96.7445 49.5231 96.6738 49.2999 96.1378 49.0963C95.7357 48.9439 95.2823 48.9417 95.1308 49.0911C94.9792 49.2409 95.1118 49.3637 95.4251 49.3637C95.8864 49.3637 95.8846 49.4947 95.4167 50.0522C94.9377 50.6231 94.947 50.8088 95.4728 51.1382C95.9863 51.4601 95.8546 51.7493 94.7817 52.6562C94.0526 53.2726 92.7924 54.0711 91.9811 54.4315C90.963 54.8837 90.5866 55.2939 90.766 55.7556C90.9091 56.1235 91.0258 56.6053 91.0258 56.8259C91.0258 57.0465 91.1747 57.2038 91.3572 57.1754C91.5397 57.1465 91.8375 57.1714 92.02 57.23C92.2025 57.2881 92.5834 57.3606 92.8671 57.3907C93.8043 57.4899 93.7875 58.5908 92.845 58.8345C92.336 58.966 92.02 59.2342 92.1429 59.4308C92.2653 59.627 92.1636 59.9109 91.9166 60.0621C91.6696 60.2128 91.4677 60.0297 91.4677 59.6554C91.4677 59.281 91.2193 59.0237 90.9153 59.0835C90.561 59.1534 90.4067 58.7738 90.4849 58.0242C90.6126 56.8032 90.0192 56.1068 89.2512 56.576C89.0042 56.7272 88.9485 57.0828 89.1279 57.3663C89.6882 58.2531 89.7324 59.5016 89.2252 60.1057C88.8469 60.5566 88.9932 60.7488 89.8822 60.9694C90.948 61.2341 91.511 62.0322 90.6316 62.0322C90.4151 62.0322 90.1111 62.5316 89.956 63.1423C89.8009 63.7525 89.5168 64.1558 89.3241 64.0382C89.1315 63.9207 88.6423 64.2073 88.2367 64.6756C87.8311 65.1439 87.6366 65.527 87.8045 65.527C87.972 65.527 87.8708 65.7629 87.5792 66.0512C86.881 66.7414 86.8969 67.4164 87.6013 66.9979C88.0281 66.7445 88.0259 66.8262 87.5898 67.3578C87.121 67.9305 87.1581 68.0965 87.8107 68.3473C88.4386 68.588 88.2203 68.8191 86.7175 69.5028C85.6849 69.9732 84.8396 70.6425 84.8396 70.9902C84.8396 71.715 86.9332 73.2133 87.3583 72.7931C87.8421 72.3152 89.2583 73.9132 89.2583 74.9371C89.2583 75.4731 89.5552 76.4744 89.9185 77.1629C90.2812 77.8509 90.5795 78.7696 90.5813 79.2043C90.5826 79.6389 90.7828 79.8731 91.0258 79.7245C91.2688 79.576 91.4677 79.6743 91.4677 79.943C91.4677 80.2116 91.6665 80.3099 91.9095 80.1614C92.1526 80.0129 92.3514 80.0998 92.3514 80.354C92.3514 80.6083 92.1526 80.8167 91.9095 80.8167C91.6665 80.8167 91.4836 81.2587 91.5026 81.7996C91.5216 82.3404 91.6378 82.537 91.7602 82.2364C91.883 81.9359 92.2648 81.6903 92.609 81.6903C92.9537 81.6903 93.2511 81.2483 93.2701 80.7074C93.2891 80.1666 93.4057 79.9714 93.5286 80.2732C93.6518 80.5751 93.9342 80.7109 94.1565 80.5751C94.3787 80.4392 94.5608 80.5248 94.5608 80.7651C94.5608 81.0054 94.3407 81.3365 94.0716 81.5007C93.7309 81.7091 93.7641 81.9131 94.1821 82.1752C94.916 82.6348 95.8705 82.6868 95.1825 82.2299C94.8387 82.0014 94.871 81.499 95.2943 80.489C95.9094 79.0203 96.7701 78.5748 96.7701 79.7245C96.7701 80.0849 96.6137 80.3798 96.4224 80.3798C96.2311 80.3798 96.0446 80.773 96.0079 81.2535C95.9677 81.7786 96.2138 82.1272 96.6239 82.1272C97.0591 82.1272 97.2111 81.8817 97.0432 81.4492C96.8987 81.0761 96.9597 80.8809 97.1793 81.015C97.3989 81.1491 97.6791 81.0119 97.8024 80.7101C97.9371 80.3789 98.0397 80.4646 98.0609 80.9259C98.1033 81.8555 98.9795 81.9594 98.9795 81.0351C98.9795 80.6747 99.1903 80.3798 99.4475 80.3798C99.7046 80.3798 99.7926 80.1832 99.6423 79.943C99.4921 79.7027 99.6794 79.5061 100.058 79.5061C100.437 79.5061 100.698 79.2606 100.637 78.9601C100.576 78.6599 100.864 78.4695 101.276 78.5372C101.884 78.6368 102.014 78.3375 101.958 76.9584C101.914 75.8624 102.158 74.9904 102.644 74.5099C103.157 74.0027 103.309 73.4086 103.118 72.655C102.864 71.6586 102.937 71.5782 103.835 71.86C104.517 72.0736 104.738 72.0194 104.532 71.6896C104.366 71.4236 104.441 71.206 104.698 71.206C104.955 71.206 105.166 70.8522 105.166 70.4197C105.166 69.9872 105.382 69.4193 105.647 69.1576C105.911 68.8964 106.142 67.7737 106.159 66.6637C106.176 65.5436 106.453 64.4288 106.783 64.1588C107.108 63.8915 107.375 63.2052 107.375 62.6342C107.375 62.0628 107.574 61.5954 107.817 61.5954C108.06 61.5954 108.259 61.8038 108.259 62.058C108.259 62.3123 108.476 62.3878 108.742 62.2253C109.008 62.0628 109.14 61.4888 109.036 60.9493C108.932 60.4102 109.063 59.9729 109.326 59.9773C111.051 60.007 111.846 59.7842 111.688 59.3151C111.589 59.0215 112.119 58.4518 112.866 58.0486C113.779 57.5559 114.191 57.0255 114.125 56.4301C114.05 55.7674 114.358 55.4721 115.344 55.2581C116.069 55.1004 116.555 54.8011 116.425 54.5923C116.295 54.3839 116.889 54.0829 117.747 53.9239C119.336 53.6295 119.746 53.1254 118.753 52.6877C118.45 52.5535 118.599 52.4845 119.085 52.5343C120.133 52.6418 122.095 51.395 121.623 50.921C121.442 50.7398 121.692 50.6589 122.178 50.7419C122.799 50.8477 123.043 50.6655 123 50.1282C122.921 49.1396 123.541 49.1396 123.931 50.1282C124.178 50.7555 124.342 50.6375 124.841 49.4729C125.342 48.3035 125.692 48.0531 126.826 48.0531C127.981 48.0531 128.159 47.9186 127.934 47.2161C127.711 46.5202 127.859 46.3997 128.813 46.5032C129.634 46.5923 129.895 46.4578 129.729 46.0301C129.52 45.4932 129.985 45.2368 130.905 45.3805C131.087 45.4089 131.236 45.2407 131.236 45.0066C131.236 44.3683 133.496 43.3483 134.9 43.3531C136.386 43.3579 136.383 43.3605 136.797 41.718C137.074 40.6206 137.026 40.49 136.502 40.9107C136.024 41.2934 135.746 41.2733 135.328 40.8246C134.639 40.0846 134.966 39.9164 137.312 39.8059C138.747 39.7386 139.19 39.8762 139.19 40.3904C139.19 40.7609 138.991 41.0636 138.748 41.0636C138.505 41.0636 138.306 40.867 138.306 40.6267C138.306 40.3865 138.132 40.1899 137.92 40.1899C137.707 40.1899 137.533 40.6848 137.533 41.2903C137.533 42.1199 137.669 42.2793 138.084 41.9377C138.388 41.6892 138.992 41.6206 139.427 41.7857C139.905 41.9666 140.111 41.9141 139.948 41.6529C139.799 41.4148 140.087 40.5547 140.588 39.7408C141.411 38.4032 141.551 38.3324 142.05 39.0069C142.731 39.9282 143.609 39.9793 143.609 39.0978C143.609 38.7374 143.819 38.4425 144.077 38.4425C144.334 38.4425 144.422 38.6391 144.271 38.8794C144.121 39.1196 144.228 39.3162 144.508 39.3162C144.788 39.3162 145.119 38.93 145.244 38.4582C145.443 37.7047 145.55 37.678 146.118 38.2398C146.887 38.9999 148.674 39.1227 148.212 38.3835C147.987 38.0249 148.479 37.9733 149.991 38.1974C151.711 38.4526 152.181 38.3713 152.649 37.7374C153.188 37.0092 153.248 37.0145 153.77 37.8401C154.171 38.4748 154.667 38.6623 155.593 38.5281C156.293 38.4263 156.865 38.0777 156.865 37.7532C156.865 37.4282 157.263 36.9524 157.749 36.6951C158.46 36.3186 158.632 36.3631 158.632 36.924C158.632 37.3072 158.814 37.5094 159.037 37.3736C159.259 37.2377 159.541 37.3736 159.665 37.6754C159.819 38.0537 159.899 38.021 159.923 37.5688C159.944 37.1778 160.386 36.9136 161.019 36.9136C161.893 36.9136 162.007 37.0485 161.666 37.678C161.439 38.0983 160.912 38.463 160.495 38.4875C160.078 38.5124 160.51 38.7348 161.455 38.982C162.906 39.3616 163.236 39.318 163.586 38.6994C163.839 38.2525 164.309 38.0642 164.793 38.2162C165.229 38.353 166.102 38.2708 166.733 38.0336C167.561 37.7222 167.966 37.7497 168.188 38.1315C168.357 38.4229 168.326 38.5089 168.119 38.3228C167.71 37.9546 166.587 40.1938 166.903 40.7495C167.009 40.9369 167.747 40.9697 168.543 40.8225C169.844 40.5809 170.132 40.7325 171.419 42.3401C172.206 43.3221 173.031 44.0149 173.253 43.8795C174.002 43.4217 174.622 44.1521 174.056 44.8262C173.767 45.1713 173.662 45.5836 173.823 45.7427C174.232 46.1467 175.865 46.228 175.865 45.8444C175.865 45.4019 177.351 45.5662 177.702 46.0476C178.122 46.6216 177.608 47.7006 177.021 47.4778C176.747 47.3738 176.285 47.5412 175.994 47.8491C175.574 48.2938 175.781 48.5586 177.001 49.1304C177.846 49.5266 178.443 50.0015 178.328 50.185C178.214 50.3684 178.507 50.8463 178.981 51.2474C179.455 51.6484 179.842 52.2731 179.842 52.6357C179.842 52.9987 180.036 53.2953 180.273 53.2953C180.92 53.2953 182.153 55.8998 181.861 56.6507C181.721 57.0111 182.005 57.8595 182.492 58.5353C182.979 59.2115 183.377 59.9402 183.377 60.1555C183.377 60.3705 184.073 60.4661 184.924 60.3679C185.774 60.2696 186.47 60.3744 186.47 60.6011C186.47 61.3464 185.925 61.5714 185.133 61.1524C183.956 60.5295 183.439 61.4945 183.61 63.9981C183.747 65.9971 184.61 69.0943 184.675 67.8205C184.741 66.537 185.587 67.4107 185.587 68.7623C185.587 69.9322 185.421 70.2262 184.813 70.1357C184.388 70.0724 184.272 70.1021 184.555 70.2013C184.838 70.3009 185.188 70.6875 185.333 71.061C185.514 71.5271 185.398 71.6651 184.965 71.5005C184.11 71.1759 183.71 72.3728 184.306 73.4746C184.583 73.9839 184.603 74.2548 184.355 74.1032C184.116 73.9568 183.811 74.2478 183.678 74.7497C183.52 75.3495 183.237 75.5505 182.854 75.336C182.396 75.0787 182.385 75.1302 182.806 75.5793C183.24 76.0428 183.467 76.0445 184.021 75.5898C184.443 75.2442 184.703 75.208 184.703 75.4954C184.703 75.7505 184.504 76.0812 184.261 76.2298C184.018 76.3783 183.819 76.6963 183.819 76.9366C183.819 77.1768 183.999 77.2633 184.22 77.1288C184.44 76.9938 184.512 77.2922 184.38 77.7915C184.248 78.2908 183.67 78.8762 183.096 79.092C182.473 79.3261 182.052 79.8412 182.052 80.3689C182.052 80.8922 181.76 81.2535 181.337 81.2535C180.821 81.2535 180.679 81.5449 180.826 82.3059C180.984 83.1241 180.873 83.3041 180.326 83.1153C179.775 82.9253 179.734 82.9935 180.139 83.4268C180.424 83.7317 180.551 84.2546 180.421 84.5888C180.291 84.923 180.404 85.4568 180.672 85.7753C181.058 86.2362 180.892 86.3388 179.86 86.2781C178.736 86.2121 178.62 86.3074 178.991 86.9928C179.345 87.6463 179.112 87.9753 177.651 88.887C176.678 89.4937 175.581 89.9904 175.211 89.9904C174.419 89.9904 174.412 90.0367 174.971 91.491C175.251 92.2192 175.251 92.6115 174.971 92.6115C174.734 92.6115 174.589 92.8326 174.65 93.103C174.711 93.3734 174.512 93.6844 174.208 93.7945C173.882 93.9129 173.656 93.6337 173.656 93.1104C173.656 92.1065 172.998 91.5487 172.309 91.9693C171.997 92.1598 172.033 92.4748 172.416 92.9317C172.911 93.521 172.855 93.57 171.995 93.3004C171.184 93.0457 171.005 93.1554 171.005 93.9068C171.005 94.4489 170.613 94.9674 170.045 95.1749C169.323 95.4388 169.231 95.6135 169.671 95.8826C170.037 96.1063 170.455 95.97 170.789 95.5179C171.083 95.1208 171.55 94.7957 171.827 94.7957C172.104 94.7957 172.33 94.5874 172.33 94.3331C172.33 94.0789 172.496 93.9719 172.698 94.0955C173.293 94.4589 172.734 96.98 172.06 96.98C171.722 96.98 171.447 96.7895 171.447 96.5567C171.447 96.3243 171.148 96.247 170.784 96.385C170.419 96.5235 170.121 96.9105 170.121 97.2451C170.121 97.5798 169.823 97.8537 169.458 97.8537C169.09 97.8537 168.795 98.242 168.795 98.7274C168.795 99.2079 168.603 99.6011 168.367 99.6011C168.132 99.6011 168.054 99.3062 168.194 98.9458C168.557 98.0096 166.898 98.0939 166.044 99.055C165.67 99.4753 165.216 100.311 165.033 100.912L164.701 102.004L165.72 101.13C166.28 100.649 166.572 100.535 166.369 100.877C166.098 101.331 166.184 101.427 166.691 101.234C167.142 101.064 167.461 101.266 167.606 101.816C167.734 102.299 167.646 102.548 167.399 102.397C167.163 102.253 166.672 102.498 166.308 102.943C165.837 103.518 165.581 103.595 165.418 103.209C165.242 102.792 165.044 102.811 164.562 103.287C164.217 103.628 163.935 104.112 163.935 104.361C163.935 104.611 163.637 104.703 163.272 104.565C162.907 104.426 162.261 104.469 161.836 104.66C161.411 104.852 160.665 105.02 160.179 105.035C159.617 105.052 159.318 105.34 159.357 105.826C159.39 106.246 159.19 106.591 158.91 106.591C158.631 106.591 158.145 106.999 157.829 107.498C157.387 108.2 157.375 108.548 157.777 109.027C158.402 109.771 158.023 109.824 156.78 109.167C155.764 108.629 154.993 109.307 155.407 110.373C155.553 110.752 155.295 110.959 154.677 110.959C154.15 110.959 153.842 111.155 153.992 111.395C154.148 111.645 153.85 111.785 153.294 111.723C152.76 111.663 152.234 111.86 152.127 112.16C152.019 112.461 152.245 112.706 152.63 112.706C153.015 112.706 153.33 112.997 153.33 113.351C153.33 113.867 153.097 113.908 152.164 113.557C150.743 113.023 150.165 113.439 151.245 114.219C151.941 114.723 151.95 114.818 151.331 115.052C150.947 115.198 150.741 115.144 150.874 114.931C151.373 114.133 149.797 114.094 148.822 114.88C147.964 115.572 147.915 115.741 148.505 115.968C149.078 116.19 149.239 117.044 148.948 118.33C148.928 118.419 148.604 118.24 148.228 117.932C147.678 117.481 147.657 117.292 148.117 116.976C148.482 116.724 148.289 116.694 147.586 116.892C146.978 117.064 146.083 117.232 145.597 117.266C145.111 117.301 144.763 117.566 144.824 117.857C144.885 118.148 144.723 118.385 144.466 118.385C144.209 118.385 144.148 118.631 144.33 118.932C144.591 119.361 144.522 119.365 144.008 118.955C143.495 118.544 143.118 118.566 142.266 119.052C141.668 119.393 140.546 119.97 139.772 120.333C138.999 120.696 138.247 121.184 138.101 121.418C137.955 121.651 137.544 121.731 137.187 121.596C136.831 121.461 136.539 121.567 136.539 121.834C136.539 122.1 136.226 122.317 135.845 122.317C135.462 122.317 134.825 122.638 134.428 123.031C134.02 123.434 133.64 123.549 133.555 123.296C133.385 122.794 131.678 123.099 131.678 123.631C131.678 123.986 128.402 125.474 127.259 125.638C126.239 125.785 121.755 127.736 121.589 128.105C121.508 128.286 121.176 128.433 120.852 128.433C120.528 128.433 120.186 128.661 120.093 128.939C119.999 129.217 119.276 129.426 118.486 129.404C117.386 129.373 116.94 129.604 116.577 130.393C116.269 131.06 115.863 131.331 115.422 131.164C114.924 130.975 114.843 131.071 115.12 131.526C115.44 132.05 115.386 132.056 114.77 131.563C114.344 131.221 113.805 131.127 113.47 131.338C112.809 131.752 112.608 131.799 111.183 131.873C109.852 131.942 109.205 133.675 110.51 133.675C110.973 133.675 111.352 133.974 111.352 134.34C111.352 134.93 111.238 134.932 110.358 134.363C109.596 133.87 108.771 133.799 106.823 134.061C105.425 134.249 104.282 134.313 104.282 134.204C104.282 134.094 103.993 134.242 103.64 134.531C103.287 134.821 102.587 134.928 102.083 134.77C101.448 134.571 101.204 134.661 101.288 135.062C101.371 135.454 100.914 135.64 99.8672 135.64C98.337 135.641 97.6985 136.549 98.7316 137.256C98.9923 137.434 98.8492 137.684 98.3852 137.86C97.2911 138.275 96.3203 137.296 97.2156 136.681C97.7065 136.343 97.5368 136.298 96.5492 136.504C95.8201 136.656 94.8953 136.783 94.4936 136.787C94.0924 136.791 93.666 137.164 93.5462 137.617C93.3686 138.289 93.0469 138.395 91.8022 138.196C90.5557 137.996 90.0652 138.159 89.1244 139.089C88.4912 139.715 87.7467 140.228 87.47 140.228C86.6932 140.228 84.8299 141.819 85.186 142.178C85.3601 142.354 85.1047 142.448 84.6186 142.388C83.6545 142.268 82.1844 142.775 82.195 143.223C82.199 143.378 82.3823 143.786 82.6033 144.131C82.9408 144.659 83.1189 144.665 83.7199 144.172C84.2232 143.759 84.574 143.722 84.9028 144.047C85.2315 144.372 85.095 144.596 84.4423 144.801C82.9183 145.279 83.3673 145.974 85.004 145.67C86.3654 145.418 86.5337 145.507 86.9562 146.705C87.2107 147.427 87.3269 148.108 87.2146 148.218C87.1024 148.329 87.2778 148.521 87.6044 148.645C88.0286 148.806 88.1978 148.451 88.1978 147.403C88.1978 144.971 89.2172 144.678 89.3993 147.057C89.47 147.984 89.7519 148.346 90.4814 148.449C91.0293 148.527 91.4677 148.357 91.4677 148.068C91.4677 147.674 91.6166 147.669 92.0788 148.049C92.879 148.705 93.404 147.561 92.6484 146.808C92.2511 146.412 92.3068 146.359 92.887 146.577C93.3028 146.733 93.7645 147.239 93.913 147.701C94.061 148.163 94.3672 148.428 94.5926 148.29C95.1896 147.925 95.0968 147.373 94.3085 146.593C93.9263 146.216 93.7415 145.907 93.898 145.907C94.0544 145.907 93.8679 145.596 93.4835 145.216C92.5052 144.249 93.0757 143.619 94.6249 143.955C96.0822 144.271 98.9795 143.156 98.9795 142.278C98.9795 141.565 100.664 140.562 101.256 140.924C101.517 141.083 101.881 140.971 102.067 140.674C102.309 140.285 102.49 140.271 102.709 140.623C102.9 140.929 102.492 141.215 101.621 141.388C100.445 141.62 100.257 141.825 100.426 142.697C100.579 143.488 100.496 143.623 100.072 143.276C99.6573 142.935 99.4002 143.154 99.0507 144.145C98.7939 144.874 98.3609 145.47 98.0891 145.47C97.7803 145.47 97.7091 145.839 97.9 146.453C98.3322 147.842 98.3662 147.851 99.6145 146.88C100.588 146.123 100.65 145.934 100.08 145.466C99.3162 144.84 99.2146 144.159 99.8845 144.159C100.421 144.159 101.653 146.829 101.344 147.322C101.23 147.505 101.337 147.654 101.583 147.654C101.828 147.654 102.231 147.31 102.479 146.89C102.727 146.469 102.936 146.365 102.943 146.658C102.95 146.952 103.256 147.076 103.627 146.936C103.996 146.796 104.252 146.458 104.197 146.185C104.142 145.912 104.338 145.258 104.632 144.732C104.987 144.098 105.016 143.683 104.718 143.501C104.47 143.349 104.4 143.013 104.563 142.752C104.726 142.492 104.492 142.015 104.044 141.69C103.257 141.122 103.259 141.1 104.087 141.05C104.559 141.021 105.094 141.021 105.276 141.05C105.459 141.078 105.608 140.807 105.608 140.446C105.608 140.086 105.818 139.791 106.076 139.791C106.333 139.791 106.421 139.988 106.27 140.228C106.12 140.468 106.308 140.665 106.686 140.665C107.065 140.665 107.375 140.861 107.375 141.102C107.375 141.342 107.706 141.538 108.112 141.538C108.516 141.538 108.717 141.409 108.556 141.25C108.221 140.919 109.923 139.639 110.883 139.5C111.236 139.448 111.797 139.557 112.129 139.741C112.629 140.017 112.613 140.173 112.043 140.642C111.578 141.023 111.352 141.048 111.352 140.718C111.352 140.448 111.159 140.228 110.924 140.228C110.689 140.228 110.619 140.545 110.77 140.933C110.979 141.472 110.845 141.58 110.204 141.389C109.636 141.219 109.114 141.476 108.594 142.181L107.824 143.223L109.257 142.789C110.044 142.55 110.888 142.313 111.131 142.262C111.374 142.211 111.804 142.026 112.085 141.852C112.786 141.419 114.067 141.956 113.707 142.532C113.525 142.824 113.69 142.893 114.152 142.718C114.59 142.552 114.887 142.655 114.887 142.972C114.887 143.685 117.066 143.587 118.311 142.817C118.858 142.478 119.306 141.884 119.306 141.496C119.306 141.025 119.71 140.779 120.521 140.758C124.174 140.661 126.529 140.228 127.37 139.5C127.879 139.059 128.137 138.964 127.945 139.289C127.661 139.766 127.773 139.784 128.532 139.383C129.664 138.783 129.771 137.612 128.695 137.592C128.043 137.58 128.083 137.446 128.95 136.731C129.516 136.265 129.852 135.682 129.697 135.435C129.543 135.188 129.595 134.986 129.813 134.986C130.359 134.986 131.133 136.782 130.99 137.716C130.926 138.136 131.075 138.48 131.322 138.48C131.57 138.48 131.65 138.164 131.5 137.777C131.281 137.214 131.437 137.125 132.278 137.334C133.032 137.521 133.665 137.287 134.517 136.507C135.17 135.908 135.594 135.243 135.46 135.027C135.325 134.812 135.823 134.678 136.565 134.728C137.308 134.779 138.017 134.658 138.141 134.459C138.266 134.26 138.542 134.205 138.756 134.335C138.969 134.465 139.071 134.196 138.981 133.737C138.857 133.1 139.017 132.953 139.653 133.117C140.111 133.236 140.704 133.592 140.97 133.908C141.359 134.372 141.83 134.232 143.403 133.182C145.136 132.026 146.857 130.367 145.4 131.258C144.965 131.523 144.954 131.397 145.347 130.67C145.939 129.577 146.012 129.56 146.803 130.342C147.316 130.85 147.574 130.807 148.491 130.061C149.201 129.484 149.383 129.114 149.022 128.989C148.718 128.883 148.469 128.605 148.469 128.371C148.469 128.136 148.668 128.066 148.911 128.215C149.154 128.363 149.582 128.345 149.862 128.173C150.214 127.958 150.121 127.682 149.556 127.274C148.596 126.58 148.871 126.526 150.413 127.106C151.155 127.385 151.626 127.374 151.812 127.076C151.967 126.828 152.382 126.735 152.735 126.869C153.087 127.003 153.268 126.94 153.137 126.73C153.006 126.52 153.294 126.246 153.778 126.12C154.368 125.968 154.569 125.661 154.387 125.192C154.177 124.651 154.302 124.561 154.938 124.797C155.667 125.067 155.691 125.017 155.145 124.354C154.807 123.943 154.657 123.48 154.813 123.326C154.97 123.172 155.097 123.256 155.097 123.514C155.097 123.772 155.495 123.88 155.981 123.754C156.467 123.629 156.865 123.352 156.865 123.14C156.865 122.928 157.147 122.754 157.491 122.754C157.835 122.754 158.183 122.606 158.264 122.426C158.345 122.246 159.157 121.724 160.068 121.266C160.98 120.807 161.725 120.168 161.725 119.846C161.725 119.523 161.913 119.259 162.142 119.259C162.371 119.259 162.482 118.866 162.388 118.385C162.288 117.873 162.456 117.512 162.794 117.512C163.11 117.512 164.069 116.859 164.925 116.062C165.78 115.264 167.418 113.819 168.564 112.851C169.95 111.679 170.671 110.715 170.716 109.974C170.753 109.361 170.933 108.95 171.114 109.061C171.512 109.303 173.527 107.119 173.895 106.045C174.04 105.624 174.439 105.28 174.782 105.28C175.512 105.28 176.101 103.389 175.614 102.61C175.381 102.238 175.504 102.159 176.014 102.353C176.418 102.506 176.749 102.455 176.749 102.238C176.749 102.021 177.133 101.724 177.602 101.576C178.073 101.429 178.58 100.746 178.734 100.055C178.887 99.3647 179.253 98.709 179.548 98.5972C179.842 98.4858 180.13 97.8305 180.187 97.1412C180.245 96.4518 180.5 95.8188 180.755 95.7341C181.715 95.4148 182.934 93.7167 183.197 92.3319C183.347 91.5417 183.745 90.6693 184.082 90.3932C184.418 90.1171 184.584 89.717 184.451 89.5042C184.318 89.291 184.54 89.1167 184.945 89.1167C185.403 89.1167 185.589 88.88 185.438 88.4899C185.304 88.1448 185.41 87.7918 185.674 87.7049C185.937 87.6179 186.228 86.8679 186.319 86.0383C186.411 85.2087 186.681 84.4643 186.92 84.3844C187.466 84.2013 187.495 83.0009 186.954 83.0009C186.733 83.0009 186.656 82.6099 186.783 82.132C186.909 81.6541 187.171 81.3601 187.365 81.4785C187.559 81.5973 187.852 80.9097 188.016 79.9508C188.238 78.6508 188.137 78.0335 187.619 77.5215C186.988 76.8977 187.008 76.7479 187.84 75.8772C188.558 75.1263 188.712 74.5221 188.553 73.0805C188.44 72.0518 188.546 71.1772 188.795 71.0955C189.277 70.9365 188.824 69.0117 188.321 69.0825C188.154 69.1061 187.619 69.0895 187.133 69.0458C186.277 68.9689 186.279 68.9545 187.181 68.5941C188.468 68.0799 188.934 65.6554 187.952 64.5821C187.436 64.0186 187.385 63.7796 187.781 63.7796C188.233 63.7796 188.236 63.6486 187.796 63.1244C187.38 62.6285 187.37 62.3219 187.753 61.8649C188.146 61.3962 188.097 61.1987 187.533 60.9842C186.998 60.7815 186.872 60.3748 187.058 59.4535C187.343 58.0473 186.332 56.8137 185.063 57.0199C184.424 57.1243 184.39 56.9875 184.822 56.0501C185.239 55.1458 185.199 54.8889 184.586 54.5499C184.045 54.2507 183.917 53.7929 184.109 52.8445C184.317 51.8175 184.217 51.5479 183.627 51.5479C183.218 51.5479 183.006 51.3513 183.156 51.1111C183.307 50.8708 183.119 50.6742 182.74 50.6742C182.146 50.6742 181.802 49.6127 181.999 48.3808C182.028 48.2004 181.554 48.0531 180.947 48.0531C179.675 48.0531 179.477 47.4119 180.616 46.9785C181.352 46.698 181.352 46.6635 180.616 46.2546C180.19 46.0187 179.842 45.5404 179.842 45.1918C179.842 44.8436 179.44 44.5584 178.947 44.5584C178.126 44.5584 176.918 42.7376 177.126 41.811C177.168 41.6214 176.605 41.13 175.874 40.7189C175.143 40.3078 174.544 39.726 174.542 39.4254C174.539 38.7802 173.571 38.7016 172.968 39.2979C172.39 39.8688 171.245 39.1179 171.666 38.4447C171.911 38.0524 172.081 38.0432 172.311 38.4106C172.617 38.9012 174.101 38.6159 174.094 38.0681C174.093 37.9135 173.595 37.5601 172.989 37.2822C172.383 37.004 171.999 36.9551 172.135 37.173C172.271 37.3906 172.172 37.5688 171.915 37.5688C171.657 37.5688 171.447 37.1639 171.447 36.6694C171.447 36.1748 171.269 35.8787 171.051 36.0115C170.833 36.1447 170.537 35.9472 170.391 35.5729C170.246 35.1985 169.945 35.0041 169.722 35.1404C169.268 35.4174 166.593 34.0408 166.589 33.528C166.587 33.348 166.311 33.2004 165.975 33.2004C165.639 33.2004 165.254 32.7875 165.121 32.2825C164.955 31.657 164.693 31.4792 164.296 31.7242C163.45 32.2463 162.648 32.3053 162.373 31.8654C162.241 31.6544 161.544 31.598 160.824 31.7404C159.954 31.9125 159.516 31.823 159.516 31.4731C159.516 31.1192 159.095 31.038 158.232 31.2254C157.496 31.3853 156.826 31.3071 156.66 31.0419C156.491 30.7719 156.761 30.5793 157.307 30.5793C157.822 30.5793 158.12 30.3827 157.97 30.1424C157.629 29.5986 155.539 29.5619 155.539 30.0996C155.539 30.3163 154.675 30.2368 153.62 29.9227C152.551 29.6047 151.441 29.5099 151.115 29.7091C150.768 29.9209 150.111 29.7947 149.5 29.3989C148.558 28.7886 148.469 28.7961 148.469 29.4837C148.469 30.031 148.259 30.1485 147.696 29.9148C146.894 29.5815 146.473 29.5789 140.957 29.8729C139.135 29.9703 137.11 30.0703 136.458 30.0961C135.723 30.125 135.175 30.4478 135.015 30.9449C134.873 31.3861 134.064 31.9575 133.217 32.2148C132.37 32.4717 131.775 32.5246 131.896 32.3319C132.016 32.1388 131.808 31.8649 131.432 31.7221C131.056 31.5797 130.864 31.6474 131.005 31.8728C131.322 32.3813 129.609 33.338 129.023 32.9793C128.778 32.8299 128.703 33.0549 128.847 33.5053C129.072 34.209 129.025 34.2025 128.401 33.445C127.713 32.611 127.688 32.6132 126.773 33.5839C126.262 34.1265 125.555 34.4607 125.202 34.327C124.849 34.1929 124.167 34.4462 123.686 34.8892C123.15 35.3824 122.401 35.617 121.752 35.4947C121.074 35.3667 120.163 35.6812 119.226 36.3671C117.636 37.5299 116.214 38.2031 114.958 38.3879C114.754 38.4181 114.343 38.9728 114.044 39.6211C113.621 40.5394 113.416 40.6639 113.116 40.1847C112.796 39.6714 112.58 39.705 111.818 40.3865C111.316 40.836 110.785 41.0854 110.639 40.9413C110.493 40.7967 109.85 41.1584 109.21 41.7446C108.57 42.3313 107.871 42.811 107.657 42.811C107.442 42.811 107.487 43.0731 107.756 43.3933C108.144 43.8564 107.977 43.9761 106.939 43.9761C106.11 43.9761 105.198 44.4068 104.438 45.1582C103.094 46.487 101.944 46.5085 101.695 45.2088C101.603 44.7309 101.401 44.2417 101.244 44.1215C101.088 44.0014 100.567 43.164 100.087 42.2601C99.3564 40.8832 99.1598 40.7416 98.8717 41.3864C98.675 41.8268 98.6331 41.455 98.774 40.5175C98.9243 39.5145 98.8403 38.8794 98.5575 38.8794C98.3034 38.8794 98.0958 38.5758 98.0958 38.2049C98.0958 37.834 97.5987 37.0005 96.9911 36.3531C96.3835 35.7052 95.8864 34.8499 95.8864 34.4528C95.8864 34.0557 95.5881 33.6175 95.2236 33.4791C94.859 33.341 94.5608 32.9479 94.5608 32.6054C94.5608 31.8793 93.3633 31.2752 92.2074 31.4189C91.5295 31.5032 91.4765 31.3791 91.876 30.6409C92.4751 29.5348 92.4738 29.2687 91.8689 29.2687C91.2671 29.2687 89.0135 27.5454 89.1036 27.154C89.1403 26.9958 88.9852 26.9172 88.7599 26.9792C88.5345 27.0417 88.2398 26.8084 88.1046 26.4607C87.9698 26.1134 87.5779 25.936 87.2332 26.0666C86.889 26.1973 86.6071 26.0789 86.6071 25.8037C86.6071 25.5285 86.1793 25.6971 85.6566 26.1785C84.7362 27.0264 83.9558 27.029 83.9558 26.185C83.9558 25.9587 84.3535 25.774 84.8396 25.774C86.0061 25.774 85.9544 25.3017 84.6191 23.7671L83.5148 22.4976L83.4623 23.5897C83.4331 24.1904 83.4525 24.9758 83.506 25.3354C83.5807 25.8412 83.3929 25.801 82.6744 25.1584C82.0421 24.5923 81.7465 24.5102 81.7465 24.9007C81.7465 25.2152 81.2927 24.9509 80.7381 24.3131C80.1836 23.6749 79.4876 23.1529 79.1916 23.1529C78.8955 23.1529 78.6534 22.9563 78.6534 22.716C78.6534 22.0839 77.0007 22.1783 76.7365 22.8252C76.6141 23.1258 76.4979 22.9414 76.4789 22.4159C76.4511 21.6523 76.7317 21.43 77.8801 21.3068L79.3162 21.1526L77.7696 20.6921C76.919 20.4387 75.8731 20.3536 75.4458 20.5021C74.2532 20.9171 70.9038 20.5139 71.6408 20.0438C72.1463 19.7214 72.1371 19.5873 71.5834 19.2278C70.4562 18.4965 69.7284 18.6975 70.0359 19.6555C70.2538 20.3343 70.1575 20.4663 69.5985 20.2544C69.2039 20.1046 68.9861 19.7127 69.1138 19.3833C69.3767 18.7062 68.6838 18.5586 68.2795 19.2055C68.1337 19.4384 67.6057 19.2204 67.0962 18.7167C66.4161 18.0444 66.0891 17.9474 65.8404 18.3454C65.581 18.7608 65.4586 18.7486 65.3048 18.2916C65.1462 17.822 64.9522 17.8513 64.3641 18.4327C63.9125 18.8792 63.7967 19.2719 64.068 19.4375C64.7388 19.8473 64.6027 20.5318 63.8506 20.5318C63.4759 20.5318 63.1878 20.1408 63.1878 19.6323C63.1878 19.1378 62.989 18.8543 62.7459 19.0028C62.5029 19.1514 62.3023 19.0155 62.3005 18.701C62.2961 17.9719 59.9405 16.8391 59.7297 17.4647C59.6466 17.7102 59.3851 17.9107 59.1482 17.9107C58.9109 17.9107 58.8089 17.7635 58.9215 17.5831C59.0342 17.4027 57.6542 17.2445 55.8545 17.231C53.9695 17.2166 52.5829 17.39 52.5829 17.6394C52.5829 17.878 53.015 18.528 53.5435 19.0841C54.399 19.9836 54.4184 20.095 53.7233 20.095C53.2934 20.095 52.8378 19.7018 52.711 19.2213C52.5838 18.7407 52.2952 18.3476 52.0703 18.3476C51.8449 18.3476 51.719 18.0033 51.7901 17.5831C51.936 16.7242 50.5374 16.3481 49.5512 16.9811ZM62.7459 17.9107C62.7459 18.151 62.9329 18.3476 63.1617 18.3476C63.3906 18.3476 63.7004 18.151 63.8506 17.9107C64.0009 17.6705 63.8135 17.4739 63.4348 17.4739C63.0561 17.4739 62.7459 17.6705 62.7459 17.9107ZM61.8622 19.8975C61.8622 20.4134 61.0266 20.4125 60.8264 19.8962C60.663 19.4755 60.7946 19.3466 61.2219 19.5087C61.5741 19.6424 61.8622 19.8171 61.8622 19.8975ZM50.8154 20.6318C50.8154 20.8878 50.5348 20.8455 50.1526 20.5318C49.788 20.2326 49.4898 19.9198 49.4898 19.8368C49.4898 19.7538 49.788 19.7988 50.1526 19.9368C50.5171 20.0753 50.8154 20.3881 50.8154 20.6318ZM35.5062 21.7357C35.1528 23.0716 34.5324 22.5693 34.8037 21.167C34.9243 20.5436 35.1894 20.1985 35.3927 20.3994C35.5964 20.6008 35.6472 21.2019 35.5062 21.7357ZM46.8385 20.5183C46.8385 20.7507 47.1695 20.8157 47.5738 20.6624C48.0682 20.4746 48.2043 20.5506 47.9896 20.8944C47.527 21.634 45.9548 21.5226 45.9548 20.7502C45.9548 20.3898 46.1536 20.095 46.3966 20.095C46.6397 20.095 46.8385 20.2854 46.8385 20.5183ZM68.4903 20.9686C68.4903 21.2089 68.2795 21.4055 68.0223 21.4055C67.7652 21.4055 67.6772 21.2089 67.8275 20.9686C67.9777 20.7284 68.188 20.5318 68.2954 20.5318C68.4028 20.5318 68.4903 20.7284 68.4903 20.9686ZM55.455 22.0861C56.2301 22.737 56.4139 23.0327 55.8969 22.7982C55.4109 22.5776 54.7414 22.4928 54.4096 22.6099C54.0777 22.727 53.6336 22.5527 53.4224 22.2233C53.1197 21.7515 53.0367 21.7864 53.0314 22.3884C53.0278 22.8086 52.8422 23.1529 52.6191 23.1529C51.6563 23.1529 50.8158 22.5693 50.822 21.9048C50.8273 21.3443 50.9108 21.3151 51.2029 21.7703C51.7429 22.6125 52.1441 22.602 52.6359 21.7331C53.2258 20.6912 53.893 20.7747 55.455 22.0861ZM58.8256 21.7331C59.3749 22.426 59.3594 22.4413 58.6586 21.8983C57.9225 21.3273 57.6887 20.9686 58.0524 20.9686C58.1438 20.9686 58.492 21.3129 58.8256 21.7331ZM81.1027 22.249C80.6599 22.9572 81.6219 23.1725 82.1923 22.4928C82.6364 21.9638 82.6094 21.8423 82.0474 21.8423C81.6678 21.8423 81.2423 22.0254 81.1027 22.249ZM64.0716 22.4718C64.0716 22.578 63.8727 22.7859 63.6297 22.9345C63.3867 23.083 63.1878 22.996 63.1878 22.7418C63.1878 22.4876 63.3867 22.2792 63.6297 22.2792C63.8727 22.2792 64.0716 22.3657 64.0716 22.4718ZM32.6986 23.8811C32.6986 24.5215 32.562 24.9107 32.395 24.7456C31.9505 24.3066 31.9001 22.716 32.3305 22.716C32.5329 22.716 32.6986 23.2402 32.6986 23.8811ZM35.7917 23.5897C35.7917 23.83 35.7042 24.0266 35.5968 24.0266C35.4895 24.0266 35.2791 23.83 35.1289 23.5897C34.9787 23.3495 35.0666 23.1529 35.3238 23.1529C35.5809 23.1529 35.7917 23.3495 35.7917 23.5897ZM65.8391 24.4892C65.8391 25.0689 66.1532 25.3458 66.8333 25.3646C67.8239 25.3926 67.8235 25.3939 66.7692 25.8111C65.6809 26.2414 65.1762 26.0566 65.1762 25.2279C65.1762 24.9675 64.9279 24.6727 64.6239 24.5726C64.3203 24.4726 64.0716 24.5827 64.0716 24.8173C64.0716 25.0519 63.7733 25.3568 63.4087 25.4953C62.2594 25.9312 62.6885 24.7002 63.9492 23.944C65.3207 23.1214 65.8391 23.2708 65.8391 24.4892ZM37.8813 23.8536C37.7346 23.9986 37.3533 24.0143 37.0347 23.8881C36.6821 23.7487 36.7868 23.6452 37.3016 23.6242C37.7673 23.6055 38.028 23.7085 37.8813 23.8536ZM29.6055 24.4634C29.6055 24.7037 29.1583 24.8863 28.6113 24.8697C27.6626 24.8404 27.6577 24.8216 28.5008 24.4634C28.9869 24.2568 29.4345 24.0742 29.495 24.0572C29.5555 24.0406 29.6055 24.2232 29.6055 24.4634ZM42.1533 24.3905C42.2784 24.591 42.1003 24.7548 41.757 24.7548C41.4136 24.7548 41.2356 24.591 41.3606 24.3905C41.4857 24.1904 41.6642 24.0266 41.757 24.0266C41.8498 24.0266 42.0283 24.1904 42.1533 24.3905ZM57.4435 24.3905C57.4435 24.591 57.1452 24.7548 56.7807 24.7548C56.4161 24.7548 56.1178 24.591 56.1178 24.3905C56.1178 24.1904 56.4161 24.0266 56.7807 24.0266C57.1452 24.0266 57.4435 24.1904 57.4435 24.3905ZM39.3267 24.6561C39.3267 24.7622 39.1278 24.9702 38.8848 25.1187C38.6418 25.2672 38.4429 25.1803 38.4429 24.926C38.4429 24.6718 38.6418 24.4634 38.8848 24.4634C39.1278 24.4634 39.3267 24.5499 39.3267 24.6561ZM44.5076 25.338C44.566 26.1038 44.4551 26.1496 43.6173 25.7062C42.6823 25.2117 42.6805 25.1921 43.5342 24.8623C44.0149 24.6766 44.4157 24.511 44.4246 24.494C44.4338 24.4774 44.471 24.857 44.5076 25.338ZM77.3277 25.172C77.3277 25.7526 77.208 25.7827 76.6649 25.3371C76.3004 25.0379 76.0021 24.719 76.0021 24.6285C76.0021 24.5377 76.3004 24.4634 76.6649 24.4634C77.0295 24.4634 77.3277 24.7823 77.3277 25.172ZM32.4092 26.8849C32.2651 27.2557 32.0526 27.4654 31.9368 27.351C31.821 27.2365 31.8573 26.9329 32.0177 26.6769C32.4534 25.9797 32.7079 26.1151 32.4092 26.8849ZM35.3498 26.8525C35.3498 27.2422 35.0905 27.3955 34.6897 27.2435C34.3265 27.1055 34.1391 26.8172 34.2739 26.6018C34.6592 25.985 35.3498 26.1457 35.3498 26.8525ZM36.6754 26.6477C36.6754 26.8879 36.5879 27.0845 36.4806 27.0845C36.3732 27.0845 36.1629 26.8879 36.0126 26.6477C35.8624 26.4074 35.9503 26.2108 36.2075 26.2108C36.4647 26.2108 36.6754 26.4074 36.6754 26.6477ZM20.989 27.5213C21.1392 27.7616 21.4609 27.9582 21.7039 27.9582C21.9469 27.9582 22.0229 27.7616 21.8727 27.5213C21.7225 27.2811 21.4008 27.0845 21.1577 27.0845C20.9147 27.0845 20.8387 27.2811 20.989 27.5213ZM20.1445 28.3326C19.9837 28.5894 20.2197 29.1635 20.669 29.6077C21.1184 30.052 21.4074 30.6487 21.3111 30.9344C21.2148 31.2197 21.3517 31.453 21.6151 31.453C21.878 31.453 22.0936 31.2446 22.0936 30.9903C22.0936 30.7361 22.2717 30.6365 22.4891 30.7693C22.707 30.9025 23.0052 30.7012 23.1519 30.3224C23.5297 29.3491 23.4997 29.2687 22.7564 29.2687C22.3919 29.2687 22.0936 29.0604 22.0936 28.8061C22.0936 28.5519 21.8727 28.4785 21.6023 28.6436C21.3323 28.8087 20.9594 28.7013 20.7738 28.4042C20.5431 28.0351 20.3443 28.0124 20.1445 28.3326ZM39.8035 29.0866C39.8247 29.5955 39.9294 29.699 40.0704 29.3509C40.1981 29.0355 40.1821 28.6585 40.0354 28.5134C39.8887 28.3684 39.7845 28.6261 39.8035 29.0866ZM18.7659 29.2906C18.6033 29.5509 18.5896 29.8816 18.7354 30.0258C18.8812 30.1699 19.0036 30.0096 19.0072 29.6693C19.0129 29.1595 19.0898 29.1661 19.4424 29.7056C19.6996 30.0992 19.8732 30.1533 19.8776 29.8406C19.8869 29.1049 19.1194 28.7253 18.7659 29.2906ZM26.6582 31.7076C26.5261 32.048 26.6595 32.3267 26.9547 32.3267C27.3055 32.3267 27.3966 32.7015 27.2176 33.407C27.0024 34.2545 27.0877 34.4327 27.6118 34.2339C27.9789 34.0946 28.2799 34.1653 28.2799 34.3912C28.2799 35.2562 27.655 35.3562 26.8354 34.6227C26.1469 34.0068 26.0038 33.9858 26.0957 34.5126C26.2419 35.3501 25.6525 36.6951 25.1395 36.6951C24.9225 36.6951 24.7449 36.3885 24.7449 36.0141C24.7449 35.6397 24.5482 35.4532 24.3079 35.6C24.048 35.759 23.9862 35.5484 24.1559 35.0797C24.6251 33.7809 25.2146 33.2384 25.8818 33.4913C26.2287 33.6232 26.5124 33.5131 26.5124 33.2471C26.5124 32.9811 26.3635 32.7635 26.181 32.7631C25.9985 32.7631 25.8217 32.286 25.7877 31.7033C25.7462 30.9873 25.9163 30.716 26.3122 30.8658C26.6348 30.9882 26.7903 31.3669 26.6582 31.7076ZM33.6981 31.3175C34.109 31.7238 34.5933 31.9099 34.7741 31.7308C34.9552 31.5517 34.8107 31.2227 34.4533 30.9991C33.3773 30.3263 32.8996 30.5282 33.6981 31.3175ZM35.7917 31.8898C35.7917 32.1301 36.0025 32.3267 36.2596 32.3267C36.5168 32.3267 36.6047 32.1301 36.4545 31.8898C36.3043 31.6495 36.0939 31.453 35.9866 31.453C35.8792 31.453 35.7917 31.6495 35.7917 31.8898ZM31.0911 32.5451C30.822 33.2379 30.0473 33.4542 30.0473 32.8365C30.0473 32.3743 30.5303 31.8898 30.9908 31.8898C31.1856 31.8898 31.2307 32.1847 31.0911 32.5451ZM16.3493 33.2261C16.3493 33.4804 16.5481 33.5673 16.7912 33.4188C17.0342 33.2702 17.233 33.0623 17.233 32.9562C17.233 32.85 17.0342 32.7635 16.7912 32.7635C16.5481 32.7635 16.3493 32.9719 16.3493 33.2261ZM135.434 33.6372C135.584 33.8775 135.496 34.074 135.239 34.074C134.982 34.074 134.771 33.8775 134.771 33.6372C134.771 33.3969 134.859 33.2004 134.966 33.2004C135.073 33.2004 135.284 33.3969 135.434 33.6372ZM131.151 34.7407C131.015 34.8752 130.768 34.6328 130.602 34.202C130.362 33.5795 130.413 33.5293 130.849 33.9574C131.151 34.254 131.287 34.6066 131.151 34.7407ZM148.311 35.3846C148.67 35.3846 148.838 35.5842 148.686 35.8284C148.533 36.0726 148.214 36.1543 147.977 36.0093C147.741 35.8647 147.252 35.9879 146.893 36.2827C145.879 37.1141 145.574 36.3749 146.509 35.3536C146.97 34.8503 147.413 34.6542 147.501 34.9141C147.588 35.1727 147.953 35.3846 148.311 35.3846ZM157.217 35.3649C156.92 35.8345 156.592 36.1338 156.487 36.0307C156.298 35.8433 157.261 34.5109 157.586 34.5109C157.679 34.5109 157.514 34.8953 157.217 35.3649ZM161.725 35.1129C161.725 35.2033 161.427 35.5222 161.063 35.8214C160.52 36.267 160.4 36.2369 160.4 35.6563C160.4 35.2666 160.698 34.9477 161.063 34.9477C161.427 34.9477 161.725 35.022 161.725 35.1129ZM169.931 36.7091C169.931 37.2207 169.681 37.5448 169.34 37.4736C169.015 37.4059 168.776 37.1757 168.81 36.9625C168.844 36.7489 168.605 36.4081 168.281 36.2045C167.868 35.9459 168.028 35.8328 168.811 35.828C169.645 35.8232 169.931 36.0486 169.931 36.7091ZM26.6971 36.9603C27.8269 37.3888 27.5813 38.8885 26.4019 38.7649C25.6816 38.6898 25.4254 38.8772 25.4726 39.4468C25.5672 40.5905 24.5933 40.0947 24.295 38.847C24.0803 37.9493 23.9959 37.9043 23.744 38.5517C23.5805 38.9724 23.1152 39.3162 22.71 39.3162C22.1109 39.3162 22.1705 39.1218 23.0278 38.2761C23.6075 37.7038 24.4798 37.1368 24.9658 37.0162C25.4519 36.8952 25.8831 36.7738 25.9238 36.7458C25.9649 36.7178 26.3126 36.8144 26.6971 36.9603ZM121.515 37.8043C121.515 38.7321 121.414 38.8217 120.896 38.3503C120.464 37.9567 120.414 37.623 120.73 37.2412C121.378 36.457 121.515 36.5549 121.515 37.8043ZM129.469 37.3504C129.469 37.7108 129.146 38.0057 128.752 38.0057C128.165 38.0057 128.134 37.8873 128.585 37.3504C128.888 36.99 129.21 36.6951 129.302 36.6951C129.394 36.6951 129.469 36.99 129.469 37.3504ZM22.2015 37.422C21.8961 37.5439 21.7777 37.8536 21.9381 38.1105C22.1109 38.3866 22.0216 38.4499 21.7203 38.2656C20.9492 37.7947 21.1087 37.1276 21.9832 37.1665C22.4498 37.1875 22.5364 37.2888 22.2015 37.422ZM156.423 37.5688C156.423 37.8091 156.013 38.0057 155.513 38.0057C155.013 38.0057 154.726 37.8091 154.876 37.5688C155.027 37.3286 155.436 37.132 155.786 37.132C156.137 37.132 156.423 37.3286 156.423 37.5688ZM19.8843 38.2241C19.8843 38.5845 19.6854 38.8794 19.4424 38.8794C19.1994 38.8794 19.0005 38.5845 19.0005 38.2241C19.0005 37.8637 19.1994 37.5688 19.4424 37.5688C19.6854 37.5688 19.8843 37.8637 19.8843 38.2241ZM122.841 38.4425C122.841 38.6828 122.63 38.8794 122.373 38.8794C122.116 38.8794 122.028 38.6828 122.178 38.4425C122.328 38.2022 122.538 38.0057 122.646 38.0057C122.753 38.0057 122.841 38.2022 122.841 38.4425ZM153.4 38.8794C153.4 39.48 153.5 39.726 153.622 39.4254C153.745 39.1253 153.745 38.6339 153.622 38.3333C153.5 38.0332 153.4 38.2787 153.4 38.8794ZM11.9306 39.3298C11.9306 39.8942 12.2297 40.1899 12.8006 40.1899C13.3711 40.1899 13.5871 39.9763 13.429 39.5683C13.0282 38.5351 11.9306 38.3604 11.9306 39.3298ZM165.273 39.2992C164.916 39.5228 164.771 39.8518 164.952 40.0309C165.133 40.21 165.617 40.0239 166.028 39.6176C166.827 38.8283 166.349 38.6264 165.273 39.2992ZM125.05 39.7531C125.05 39.9933 124.851 40.1899 124.608 40.1899C124.365 40.1899 124.166 39.9933 124.166 39.7531C124.166 39.5128 124.365 39.3162 124.608 39.3162C124.851 39.3162 125.05 39.5128 125.05 39.7531ZM134.108 39.7531C134.259 39.9933 134.06 40.1899 133.667 40.1899C133.273 40.1899 133.074 39.9933 133.225 39.7531C133.375 39.5128 133.574 39.3162 133.667 39.3162C133.759 39.3162 133.958 39.5128 134.108 39.7531ZM14.1399 40.3354C14.1399 41.2423 14.6631 41.5411 15.3144 41.0064C16.1708 40.3035 16.0431 39.7531 15.0237 39.7531C14.5376 39.7531 14.1399 40.0152 14.1399 40.3354ZM119.968 40.1899C120.119 40.4302 120.031 40.6267 119.774 40.6267C119.516 40.6267 119.306 40.4302 119.306 40.1899C119.306 39.9496 119.393 39.7531 119.501 39.7531C119.608 39.7531 119.818 39.9496 119.968 40.1899ZM175.083 41.0636C175.848 41.7674 175.894 41.9373 175.323 41.9373C174.933 41.9373 174.512 41.6918 174.389 41.3912C174.221 40.9802 174.049 41.0072 173.696 41.5004C173.308 42.043 173.227 41.9867 173.221 41.1728C173.212 39.9575 173.842 39.9208 175.083 41.0636ZM130.352 41.7189C130.352 42.0793 130.16 42.3741 129.924 42.3741C129.689 42.3741 129.611 42.0793 129.751 41.7189C129.891 41.3585 130.083 41.0636 130.179 41.0636C130.274 41.0636 130.352 41.3585 130.352 41.7189ZM93.2352 41.9631C93.2352 42.2173 93.434 42.3042 93.677 42.1557C93.9201 42.0072 94.1189 41.7992 94.1189 41.6931C94.1189 41.5869 93.9201 41.5004 93.677 41.5004C93.434 41.5004 93.2352 41.7088 93.2352 41.9631ZM112.678 42.3741C112.678 42.6144 112.59 42.811 112.483 42.811C112.375 42.811 112.165 42.6144 112.015 42.3741C111.865 42.1339 111.952 41.9373 112.21 41.9373C112.467 41.9373 112.678 42.1339 112.678 42.3741ZM132.562 42.811C132.562 43.0512 132.351 43.2478 132.094 43.2478C131.837 43.2478 131.749 43.0512 131.899 42.811C132.049 42.5707 132.26 42.3741 132.367 42.3741C132.474 42.3741 132.562 42.5707 132.562 42.811ZM113.386 44.0031C112.937 44.4474 112.567 43.7786 112.935 43.1893C113.214 42.7437 113.318 42.7437 113.467 43.1875C113.57 43.4912 113.533 43.8581 113.386 44.0031ZM12.8143 44.5841C12.8143 45.0787 13.0043 45.3674 13.2367 45.2254C13.4692 45.0835 13.5474 44.6785 13.4104 44.326C13.06 43.423 12.8143 43.5292 12.8143 44.5841ZM127.591 44.9078C127.166 44.9913 126.817 45.253 126.817 45.4897C126.817 45.7265 126.589 45.7807 126.309 45.6094C125.955 45.3932 126.042 45.1236 126.595 44.7239C127.032 44.4081 127.609 44.2862 127.877 44.4531C128.183 44.6436 128.077 44.8126 127.591 44.9078ZM21.0663 44.8458C20.9063 45.004 20.9951 45.3945 21.2634 45.7138C21.9765 46.5639 21.3796 47.7775 20.4331 47.4009C19.0381 46.8466 18.3408 46.8597 18.1168 47.4442C17.9939 47.7644 17.6603 47.8771 17.3669 47.698C16.6184 47.2406 17.3422 46.2761 18.499 46.19C19.1066 46.145 19.3801 45.9017 19.2374 45.5338C19.1128 45.2128 19.1936 45.0616 19.4168 45.1979C19.6404 45.3346 19.9479 45.2464 20.1008 45.0022C20.2532 44.758 20.5983 44.5584 20.8679 44.5584C21.137 44.5584 21.2262 44.6877 21.0663 44.8458ZM108.713 45.4076C108.112 45.8641 107.439 46.1262 107.216 45.9904C106.994 45.8545 107.386 45.4928 108.088 45.1861C109.861 44.4125 109.972 44.4518 108.713 45.4076ZM9.82901 45.7221C9.52368 45.844 9.38096 46.1149 9.51175 46.3241C9.79809 46.7819 11.0468 46.3739 11.0468 45.8222C11.0468 45.4015 10.7044 45.3735 9.82901 45.7221ZM106.491 46.7426C106.491 46.9829 106.404 47.1795 106.296 47.1795C106.189 47.1795 105.979 46.9829 105.829 46.7426C105.678 46.5023 105.766 46.3058 106.023 46.3058C106.281 46.3058 106.491 46.5023 106.491 46.7426ZM117.129 46.9409C117.349 46.8068 117.41 47.0021 117.265 47.3752C116.871 48.3904 116.208 48.1916 116.247 47.0702C116.266 46.5299 116.383 46.3342 116.506 46.636C116.629 46.9379 116.909 47.075 117.129 46.9409ZM95.2236 48.0531C95.0733 48.2934 95.1613 48.49 95.4184 48.49C95.6756 48.49 95.8864 48.2934 95.8864 48.0531C95.8864 47.8129 95.7989 47.6163 95.6915 47.6163C95.5842 47.6163 95.3738 47.8129 95.2236 48.0531ZM123.875 48.2493C124.039 48.6717 123.909 48.8019 123.484 48.6403C123.133 48.5075 122.956 48.2226 123.09 48.0073C123.429 47.4656 123.59 47.5154 123.875 48.2493ZM117.096 49.1453C117.537 49.6703 117.533 49.8005 117.075 49.8005C116.76 49.8005 116.164 50.1037 115.749 50.4746C115.07 51.0822 114.97 51.0822 114.734 50.4746C114.59 50.1037 114.677 49.8005 114.927 49.8005C115.177 49.8005 115.269 49.6205 115.131 49.4008C114.994 49.1811 115.131 48.9019 115.437 48.7801C116.342 48.4192 116.52 48.4581 117.096 49.1453ZM19.8843 50.2374C19.8843 50.4776 19.6735 50.6742 19.4163 50.6742C19.1592 50.6742 19.0712 50.4776 19.2215 50.2374C19.3717 49.9971 19.582 49.8005 19.6894 49.8005C19.7968 49.8005 19.8843 49.9971 19.8843 50.2374ZM113.672 52.0499C113.29 52.4282 113.182 52.3216 113.236 51.6183C113.282 51.0032 113.456 50.8319 113.743 51.1163C114.031 51.4007 114.007 51.7192 113.672 52.0499ZM98.5376 51.9848C98.5376 52.225 98.4502 52.4216 98.3428 52.4216C98.2354 52.4216 98.0251 52.225 97.8748 51.9848C97.7246 51.7445 97.8125 51.5479 98.0697 51.5479C98.3269 51.5479 98.5376 51.7445 98.5376 51.9848ZM112.427 51.9371C112.56 52.1508 112.182 52.6422 111.585 53.0293C110.324 53.8462 110.026 53.8968 110.026 53.2953C110.026 53.055 110.325 52.8585 110.689 52.8585C111.054 52.8585 111.352 52.5636 111.352 52.2032C111.352 51.4868 112.039 51.3164 112.427 51.9371ZM8.84984 53.9362C8.54052 54.3044 8.36156 54.622 8.45214 54.6421C9.87674 54.9575 10.6248 54.8125 10.513 54.2428C10.3288 53.3049 9.5069 53.1533 8.84984 53.9362ZM98.7586 54.6058C98.6083 54.8461 98.2986 55.0427 98.0697 55.0427C97.8408 55.0427 97.6539 54.8461 97.6539 54.6058C97.6539 54.3656 97.9641 54.169 98.3428 54.169C98.7215 54.169 98.9088 54.3656 98.7586 54.6058ZM108.259 55.7447C108.259 55.8391 107.961 55.9164 107.596 55.9164C107.231 55.9164 106.933 55.7259 106.933 55.4931C106.933 55.2607 107.231 55.1834 107.596 55.3214C107.961 55.4599 108.259 55.6503 108.259 55.7447ZM185.715 58.5379C185.842 59.0189 185.766 59.3024 185.545 59.1674C185.325 59.0329 185.145 58.6397 185.145 58.2933C185.145 57.389 185.445 57.5179 185.715 58.5379ZM107.817 59.6038C107.817 59.71 107.618 59.9179 107.375 60.0664C107.132 60.215 106.933 60.128 106.933 59.8738C106.933 59.6195 107.132 59.4112 107.375 59.4112C107.618 59.4112 107.817 59.4977 107.817 59.6038ZM10.8259 60.2849C10.6756 60.5251 10.7751 60.7217 11.0468 60.7217C11.3186 60.7217 11.399 60.9489 11.2258 61.2263C11.0344 61.5316 11.1038 61.612 11.4012 61.4303C11.6712 61.2656 11.7799 60.8418 11.6429 60.4893C11.3495 59.7336 11.1948 59.6947 10.8259 60.2849ZM13.8059 60.1381C13.5005 60.26 13.3821 60.5697 13.5425 60.8265C13.7166 61.1048 13.6256 61.166 13.3172 60.9773C12.7087 60.6059 13.0741 59.8327 13.8346 59.8825C14.2111 59.907 14.2031 59.9799 13.8059 60.1381ZM86.6071 60.7047C85.4741 61.9178 85.6076 62.7806 87.0017 63.2611C88.1775 63.6665 88.322 63.6093 88.5672 62.6443C88.7475 61.9335 88.5769 61.3176 88.0533 60.7877C87.3317 60.0573 87.2177 60.0507 86.6071 60.7047ZM6.62809 61.9855C6.62809 62.2 6.94271 62.4949 7.32714 62.6408C8.40796 63.051 8.55068 62.9618 7.95371 62.2507C7.34393 61.5246 6.62809 61.3813 6.62809 61.9855ZM6.62809 63.3428C6.62809 63.583 6.83886 63.7796 7.09603 63.7796C7.3532 63.7796 7.44114 63.583 7.2909 63.3428C7.14066 63.1025 6.93034 62.9059 6.82296 62.9059C6.71559 62.9059 6.62809 63.1025 6.62809 63.3428ZM81.5737 65.3418C81.2069 66.2871 81.3797 66.4579 82.1976 65.9582C82.6704 65.669 82.7124 65.4335 82.3536 65.0788C81.9952 64.7245 81.7862 64.7949 81.5737 65.3418ZM83.7349 65.0902C83.5847 65.3304 83.7835 65.527 84.1768 65.527C84.57 65.527 84.7689 65.3304 84.6186 65.0902C84.4684 64.8499 84.2696 64.6533 84.1768 64.6533C84.084 64.6533 83.8851 64.8499 83.7349 65.0902ZM188.238 65.7454C188.238 66.1058 188.039 66.4007 187.796 66.4007C187.553 66.4007 187.354 66.1058 187.354 65.7454C187.354 65.385 187.553 65.0902 187.796 65.0902C188.039 65.0902 188.238 65.385 188.238 65.7454ZM85.4184 66.1521C84.7057 66.9551 85.2302 67.3875 85.9968 66.6296C86.3327 66.2976 86.6071 65.9141 86.6071 65.7765C86.6071 65.337 85.9611 65.5414 85.4184 66.1521ZM9.27933 67.2229C9.27933 67.4631 9.47817 67.7811 9.7212 67.9297C9.96423 68.0782 10.1631 68.0031 10.1631 67.7628C10.1631 67.5225 9.96423 67.2045 9.7212 67.056C9.47817 66.9074 9.27933 66.9826 9.27933 67.2229ZM7.87108 69.3202C8.18967 69.4464 8.57101 69.4307 8.71771 69.2856C8.86441 69.1406 8.6037 69.0375 8.13797 69.0563C7.62319 69.0773 7.51846 69.1808 7.87108 69.3202ZM7.7372 72.5236C7.89009 72.7678 8.19983 72.8547 8.42607 72.7162C9.03895 72.3418 8.92495 72.0797 8.14858 72.0797C7.7699 72.0797 7.58475 72.2794 7.7372 72.5236ZM186.249 73.8271C186.4 74.0674 186.201 74.2639 185.808 74.2639C185.414 74.2639 185.215 74.0674 185.366 73.8271C185.516 73.5868 185.715 73.3903 185.808 73.3903C185.9 73.3903 186.099 73.5868 186.249 73.8271ZM8.56437 76.5176C8.92848 78.3179 9.00714 78.3734 10.2355 77.7041C11.1162 77.224 11.1542 77.1183 10.4945 76.9811C10.0694 76.8933 9.7212 76.5613 9.7212 76.2446C9.7212 75.9275 9.39731 75.5452 9.00139 75.395C8.39735 75.1656 8.32709 75.346 8.56437 76.5176ZM180.947 75.5745C181.097 75.8148 181.307 76.0113 181.415 76.0113C181.522 76.0113 181.61 75.8148 181.61 75.5745C181.61 75.3342 181.399 75.1376 181.142 75.1376C180.885 75.1376 180.797 75.3342 180.947 75.5745ZM7.54675 77.1397C7.56796 77.6486 7.67269 77.7522 7.81364 77.404C7.94134 77.0886 7.92543 76.7116 7.77873 76.5666C7.63203 76.4215 7.52775 76.6793 7.54675 77.1397ZM8.83746 82.564C8.83746 82.8043 9.0363 83.0009 9.27933 83.0009C9.52236 83.0009 9.7212 82.8043 9.7212 82.564C9.7212 82.3238 9.52236 82.1272 9.27933 82.1272C9.0363 82.1272 8.83746 82.3238 8.83746 82.564ZM177.681 83.1612C177.302 83.6138 177.331 83.8824 177.803 84.2695C178.312 84.6871 178.413 84.5788 178.36 83.6723C178.285 82.374 178.32 82.4007 177.681 83.1612ZM181.842 85.5377C181.706 85.6722 181.35 85.5381 181.05 85.2393C180.617 84.8077 180.668 84.7579 181.297 84.9947C181.733 85.1589 181.978 85.4031 181.842 85.5377ZM10.1631 86.8928C10.1631 87.0959 10.4282 87.4799 10.7521 87.7459C11.1971 88.1107 11.3415 88.0749 11.3415 87.5996C11.3415 87.2536 11.0764 86.8696 10.7521 86.7464C10.4282 86.6237 10.1631 86.6896 10.1631 86.8928ZM174.813 87.6105C174.405 88.6615 174.495 88.9861 174.988 88.243C175.348 87.7022 175.491 87.6909 175.808 88.1767C176.019 88.5008 176.511 88.6974 176.901 88.6135C177.796 88.4213 177.279 87.5825 176.028 87.1968C175.376 86.9958 175.002 87.123 174.813 87.6105ZM177.854 87.3694C177.704 87.6096 177.791 87.8062 178.049 87.8062C178.306 87.8062 178.517 87.6096 178.517 87.3694C178.517 87.1291 178.429 86.9325 178.322 86.9325C178.214 86.9325 178.004 87.1291 177.854 87.3694ZM12.8143 93.4594C12.8143 93.6857 13.011 93.9906 13.2513 94.1374C13.5014 94.2903 13.5757 94.1151 13.425 93.7263C13.1311 92.9697 12.8143 92.8312 12.8143 93.4594ZM15.9074 95.2326C15.3409 95.5943 15.3568 95.6572 16.0179 95.6629C16.443 95.6664 16.7912 95.4729 16.7912 95.2326C16.7912 94.6996 16.7412 94.6996 15.9074 95.2326ZM19.7371 102.95C19.575 103.11 19.4424 103.626 19.4424 104.096C19.4424 104.806 19.5546 104.858 20.1052 104.406C20.4698 104.107 20.768 103.592 20.768 103.261C20.768 102.624 20.2303 102.462 19.7371 102.95ZM162.609 106.059C162.609 106.246 162.101 106.442 161.48 106.492C160.826 106.546 160.465 106.402 160.623 106.151C160.942 105.639 162.609 105.562 162.609 106.059ZM155.981 112.706C155.981 112.947 155.633 113.14 155.208 113.137C154.547 113.131 154.531 113.068 155.097 112.706C155.931 112.174 155.981 112.174 155.981 112.706ZM146.26 118.411C146.26 118.638 146.061 118.822 145.818 118.822C145.575 118.822 145.376 118.516 145.376 118.141C145.376 117.767 145.575 117.582 145.818 117.73C146.061 117.879 146.26 118.185 146.26 118.411ZM160.4 117.949C160.4 118.189 160.201 118.385 159.958 118.385C159.715 118.385 159.516 118.189 159.516 117.949C159.516 117.708 159.715 117.512 159.958 117.512C160.201 117.512 160.4 117.708 160.4 117.949ZM158.441 118.932C158.339 119.472 158.238 120.013 158.217 120.133C158.195 120.253 158.001 120.076 157.786 119.741C157.544 119.363 157.589 118.91 157.903 118.556C158.601 117.767 158.654 117.804 158.441 118.932ZM146.66 120.943C146.007 121.165 145.675 120.715 146.05 120.115C146.288 119.735 146.467 119.756 146.743 120.195C146.962 120.543 146.928 120.852 146.66 120.943ZM153.252 121.152C153.336 121.583 153.111 121.88 152.699 121.88C152.317 121.88 152.004 122.187 152.004 122.561C152.004 122.936 151.82 123.13 151.594 122.992C151.098 122.689 150.51 124.315 150.894 124.929C151.052 125.181 150.877 125.255 150.481 125.105C150.04 124.938 149.795 125.09 149.795 125.533C149.795 125.978 149.551 126.129 149.102 125.959C148.621 125.776 148.551 125.557 148.871 125.24C149.191 124.923 149.184 124.607 148.847 124.206C148.115 123.334 147.489 123.512 147.806 124.501C148.023 125.175 147.816 125.476 146.902 125.819C145.955 126.176 145.76 126.481 145.928 127.349C146.043 127.945 145.966 128.433 145.757 128.433C145.388 128.433 145.197 127.474 145.343 126.358C145.429 125.703 144.659 125.63 144.267 126.256C144.114 126.5 143.754 126.561 143.468 126.39C143.17 126.214 143.207 126.399 143.552 126.82C144.086 127.471 144.046 127.559 143.221 127.559C142.682 127.559 142.283 127.281 142.283 126.904C142.283 126.544 142.072 126.249 141.814 126.249C141.511 126.249 141.447 125.573 141.636 124.333C141.813 123.165 141.727 122.049 141.416 121.474C140.948 120.609 140.976 120.574 141.749 121.051C142.661 121.614 142.887 124.449 142.066 125.029C141.242 125.61 142.541 126.396 143.456 125.87C143.933 125.597 144.031 125.396 143.693 125.388C142.332 125.357 143.806 124.501 145.221 124.501C146.297 124.501 147.04 124.196 147.616 123.518C148.308 122.705 148.523 122.643 148.867 123.16C149.211 123.678 149.55 123.583 150.847 122.605C151.912 121.802 152.324 121.2 152.137 120.72C151.95 120.237 152.06 120.079 152.486 120.218C152.829 120.332 153.173 120.751 153.252 121.152ZM156.423 120.839C156.423 120.931 156.025 121.007 155.539 121.007C155.053 121.007 154.655 120.828 154.655 120.611C154.655 120.393 155.053 120.318 155.539 120.443C156.025 120.569 156.423 120.747 156.423 120.839ZM144.934 120.94C144.934 121.143 145.382 121.523 145.928 121.784C146.877 122.236 146.881 122.259 146.017 122.287C145.111 122.317 144.051 121.579 144.051 120.919C144.051 120.727 144.249 120.57 144.492 120.57C144.735 120.57 144.934 120.736 144.934 120.94ZM154.068 123.917C153.937 124.046 153.597 124.009 153.312 123.835C152.928 123.6 152.949 123.423 153.393 123.15C153.983 122.788 154.553 123.437 154.068 123.917ZM134.771 126.686C134.771 126.926 134.56 127.122 134.303 127.122C134.046 127.122 133.958 126.926 134.108 126.686C134.259 126.445 134.469 126.249 134.576 126.249C134.684 126.249 134.771 126.445 134.771 126.686ZM130.128 127.118C130.283 127.365 130.106 127.438 129.713 127.289C128.947 126.999 128.807 126.686 129.443 126.686C129.672 126.686 129.98 126.88 130.128 127.118ZM141.044 129.197C140.916 129.858 140.726 130.147 140.622 129.838C140.434 129.283 140.77 127.996 141.103 127.996C141.199 127.996 141.172 128.537 141.044 129.197ZM136.097 129.743C136.097 129.984 136.594 130.18 137.202 130.18C137.809 130.18 138.306 130.359 138.306 130.579C138.306 131.022 136.518 130.926 135.723 130.44C135.096 130.058 135.051 129.307 135.655 129.307C135.898 129.307 136.097 129.503 136.097 129.743ZM130.922 130.617C130.795 131.098 130.508 131.491 130.285 131.491C130.061 131.491 130.091 131.1 130.352 130.617C130.613 130.137 130.899 129.743 130.99 129.743C131.08 129.743 131.049 130.137 130.922 130.617ZM143.489 130.007C143.342 130.152 142.961 130.168 142.642 130.042C142.29 129.903 142.394 129.799 142.909 129.778C143.375 129.759 143.636 129.862 143.489 130.007ZM44.6641 130.872C44.6853 131.381 44.79 131.484 44.931 131.136C45.0587 130.821 45.0427 130.444 44.896 130.299C44.7493 130.154 44.6451 130.411 44.6641 130.872ZM122.589 131.878C122.722 132.091 122.435 132.368 121.952 132.492C120.975 132.745 120.307 132.13 121.181 131.781C122.04 131.439 122.326 131.459 122.589 131.878ZM129.612 132.626C129.442 133.064 129.201 133.148 128.918 132.869C128.412 132.368 128.902 131.363 129.48 131.716C129.695 131.848 129.755 132.258 129.612 132.626ZM133.703 132.801C134.047 132.801 134.329 132.992 134.329 133.225C134.329 133.457 134.033 133.535 133.67 133.398C133.294 133.255 132.895 133.448 132.739 133.848C132.59 134.233 132.19 134.549 131.852 134.549C131.032 134.549 131.064 133.834 131.899 133.517C132.264 133.379 132.578 132.915 132.597 132.487C132.617 132.03 132.724 131.934 132.854 132.255C132.977 132.556 133.359 132.801 133.703 132.801ZM108.484 132.808C108.637 133.053 108.947 133.14 109.173 133.001C109.786 132.627 109.672 132.365 108.896 132.365C108.517 132.365 108.332 132.564 108.484 132.808ZM120.627 134.47C120.143 134.547 119.748 134.793 119.748 135.016C119.748 135.239 119.566 135.423 119.345 135.423C119.123 135.423 119.009 135.078 119.09 134.658C119.171 134.238 119.253 133.765 119.272 133.607C119.291 133.449 119.801 133.548 120.406 133.825C121.406 134.284 121.426 134.343 120.627 134.47ZM127.701 133.995C127.701 134.406 127.446 134.545 127.002 134.377C126.618 134.231 126.121 134.112 125.898 134.112C125.674 134.112 125.492 133.94 125.492 133.73C125.492 133.52 125.989 133.347 126.597 133.347C127.278 133.347 127.701 133.596 127.701 133.995ZM52.141 134.356C52.141 134.731 51.9391 134.914 51.6921 134.763C51.445 134.612 51.3571 134.305 51.4972 134.082C51.8759 133.476 52.141 133.589 52.141 134.356ZM130.352 133.847C130.352 133.941 130.054 134.132 129.69 134.27C129.325 134.408 129.027 134.331 129.027 134.098C129.027 133.866 129.325 133.675 129.69 133.675C130.054 133.675 130.352 133.752 130.352 133.847ZM60.9784 135.204C60.9784 135.564 60.6921 135.859 60.3417 135.859C59.4876 135.859 59.0642 135.117 59.7606 134.839C60.7253 134.454 60.9784 134.53 60.9784 135.204ZM126.9 135.447C126.337 135.669 125.993 136.037 126.133 136.262C126.274 136.488 126.188 136.796 125.941 136.947C125.694 137.098 125.492 136.833 125.492 136.358C125.492 135.482 126.061 135.06 127.259 135.048C127.624 135.044 127.462 135.223 126.9 135.447ZM115.992 136.296C115.841 136.536 115.42 136.733 115.056 136.733C114.691 136.733 114.516 136.536 114.666 136.296C114.816 136.056 115.237 135.859 115.602 135.859C115.966 135.859 116.142 136.056 115.992 136.296ZM60.5366 136.68C60.5366 136.89 60.2542 137.294 59.9091 137.577C59.4027 137.993 59.3113 137.94 59.4337 137.304C59.5172 136.87 59.6002 136.465 59.6188 136.405C59.7125 136.103 60.5366 136.349 60.5366 136.68ZM111.094 137.326C110.831 138.003 109.584 138.365 109.584 137.764C109.584 137.443 111.068 136.307 111.251 136.488C111.318 136.554 111.247 136.931 111.094 137.326ZM113.119 136.885C113.119 136.968 112.722 137.49 112.236 138.044C111.363 139.038 111.097 138.77 111.62 137.424C111.843 136.851 113.119 136.391 113.119 136.885ZM123.724 137.528C123.724 137.978 121.641 139.791 121.124 139.791C120.912 139.791 120.466 139.463 120.133 139.063C119.589 138.411 119.642 138.364 120.645 138.611C121.476 138.815 121.903 138.665 122.306 138.028C122.85 137.166 123.724 136.858 123.724 137.528ZM56.1178 138.044C56.1178 138.284 55.9071 138.48 55.6499 138.48C55.3927 138.48 55.3048 138.284 55.455 138.044C55.6053 137.803 55.8156 137.607 55.923 137.607C56.0303 137.607 56.1178 137.803 56.1178 138.044ZM117.204 137.897C116.899 138.019 116.747 138.276 116.867 138.468C116.988 138.66 116.609 138.908 116.027 139.018C114.806 139.248 114.909 138.223 116.14 137.901C117.165 137.632 117.874 137.63 117.204 137.897ZM104.503 138.48C104.661 138.732 104.251 138.915 103.535 138.911C102.571 138.905 102.442 138.809 102.956 138.48C103.805 137.938 104.164 137.938 104.503 138.48ZM53.2457 138.917C53.0954 139.158 53.1834 139.354 53.4405 139.354C53.6977 139.354 53.9085 139.158 53.9085 138.917C53.9085 138.677 53.821 138.48 53.7136 138.48C53.6062 138.48 53.3959 138.677 53.2457 138.917ZM109.584 139.089C109.584 139.183 109.286 139.374 108.922 139.512C108.557 139.65 108.259 139.573 108.259 139.341C108.259 139.108 108.557 138.917 108.922 138.917C109.286 138.917 109.584 138.995 109.584 139.089ZM100.084 139.791C99.934 140.031 99.5743 140.225 99.2848 140.221C98.9685 140.217 99.0233 140.045 99.4214 139.791C100.27 139.248 100.423 139.248 100.084 139.791ZM94.7627 140.635C94.9028 140.858 94.8148 141.164 94.5678 141.316C94.3208 141.466 94.1189 141.283 94.1189 140.909C94.1189 140.141 94.384 140.029 94.7627 140.635ZM65.1762 141.102C65.026 141.342 64.7043 141.538 64.4613 141.538C64.2183 141.538 64.1423 141.342 64.2925 141.102C64.4427 140.861 64.7644 140.665 65.0074 140.665C65.2505 140.665 65.3265 140.861 65.1762 141.102ZM91.347 141.538C92.3492 142.318 92.3523 142.619 91.3572 142.464C91.0638 142.418 90.8486 143.803 90.9069 145.361C90.9352 146.106 90.3466 146.047 89.5106 145.221C88.9039 144.62 88.7356 144.614 88.1748 145.169C87.8218 145.517 87.6212 145.926 87.729 146.077C87.8372 146.227 87.7347 146.199 87.5014 146.012C86.9022 145.533 87.4891 143.628 88.1581 143.882C88.7422 144.104 89.7002 143.379 89.7002 142.715C89.7002 142.497 89.4103 142.429 89.0564 142.563C88.5235 142.765 88.4974 142.623 88.9066 141.736C89.5053 140.437 89.8906 140.406 91.347 141.538ZM67.021 141.389C66.8611 141.547 66.9521 141.94 67.2226 142.263C67.8801 143.046 67.2698 143.015 66.4705 142.225C65.6442 141.408 65.6729 141.102 66.5756 141.102C66.9804 141.102 67.181 141.231 67.021 141.389ZM98.2977 142.442C97.8823 143.107 97.2182 142.904 97.493 142.196C97.6327 141.837 97.9278 141.654 98.1492 141.79C98.3706 141.925 98.4378 142.219 98.2977 142.442ZM105.978 141.989C105.112 142.488 105.196 143.941 106.091 143.941C106.486 143.941 106.676 143.542 106.613 142.849C106.559 142.248 106.625 142.004 106.761 142.305C106.897 142.607 107.194 142.741 107.42 142.603C107.852 142.339 107.542 141.529 107.018 141.551C106.85 141.559 106.382 141.755 105.978 141.989ZM119.611 142.133C119.163 143.287 119.945 143.664 121.013 142.809C121.586 142.35 121.983 141.961 121.895 141.943C120.27 141.612 119.798 141.651 119.611 142.133ZM103.49 142.733C103.071 142.88 103.047 143.086 103.401 143.508C104.013 144.237 103.395 144.628 102.142 144.304C101.186 144.057 101.188 144.043 102.378 143.032C103.04 142.47 103.689 142.128 103.821 142.271C103.953 142.414 103.804 142.622 103.49 142.733ZM87.0489 143.067C87.0489 143.799 85.9248 143.962 85.5055 143.291C85.3508 143.043 85.528 142.97 85.9213 143.119C86.2986 143.262 86.6071 143.162 86.6071 142.896C86.6071 142.63 86.7065 142.412 86.828 142.412C86.9495 142.412 87.0489 142.707 87.0489 143.067ZM60.9784 143.286C60.9784 143.526 61.1892 143.723 61.4464 143.723C61.7036 143.723 61.7915 143.526 61.6413 143.286C61.491 143.045 61.2807 142.849 61.1733 142.849C61.0659 142.849 60.9784 143.045 60.9784 143.286ZM111.794 143.397C111.794 143.758 112.092 144.297 112.457 144.596C112.996 145.038 113.119 145.018 113.119 144.485C113.119 144.124 112.821 143.585 112.457 143.286C111.918 142.844 111.794 142.864 111.794 143.397ZM65.7065 144.308C65.5624 144.679 65.7542 145.075 66.151 145.226C67.1678 145.611 67.4408 145.119 66.6463 144.334C66.0423 143.737 65.9296 143.734 65.7065 144.308ZM74.2346 144.148C74.2346 144.382 73.6381 144.879 72.909 145.252C71.3589 146.044 71.1791 145.701 72.5348 144.538C73.5811 143.641 74.2346 143.491 74.2346 144.148ZM107.375 144.596C107.375 144.837 107.586 145.033 107.843 145.033C108.1 145.033 108.188 144.837 108.038 144.596C107.888 144.356 107.677 144.159 107.57 144.159C107.463 144.159 107.375 144.356 107.375 144.596ZM95.388 145.333C94.8542 145.982 94.8785 146.034 95.5912 145.77C96.0362 145.605 96.5947 145.47 96.8324 145.47C97.0697 145.47 97.1413 145.273 96.9911 145.033C96.5943 144.398 96.0777 144.495 95.388 145.333ZM109.143 145.033C109.143 145.273 109.341 145.47 109.584 145.47C109.827 145.47 110.026 145.273 110.026 145.033C110.026 144.793 109.827 144.596 109.584 144.596C109.341 144.596 109.143 144.793 109.143 145.033ZM112.019 145.914C112.172 146.158 112.482 146.245 112.708 146.106C113.321 145.732 113.207 145.47 112.431 145.47C112.052 145.47 111.867 145.67 112.019 145.914ZM78.6534 146.344C78.6534 146.584 78.4426 146.781 78.1854 146.781C77.9283 146.781 77.8403 146.584 77.9905 146.344C78.1408 146.103 78.3511 145.907 78.4585 145.907C78.5659 145.907 78.6534 146.103 78.6534 146.344ZM105.406 146.314C105.266 146.537 105.384 146.862 105.669 147.036C106.015 147.248 106.067 147.161 105.824 146.774C105.563 146.356 105.663 146.271 106.184 146.469C106.581 146.619 107.022 146.554 107.166 146.324C107.31 146.095 107.03 145.907 106.543 145.907C106.057 145.907 105.545 146.09 105.406 146.314ZM91.0258 147.217C91.0258 147.458 90.9383 147.654 90.8309 147.654C90.7235 147.654 90.5132 147.458 90.363 147.217C90.2128 146.977 90.3007 146.781 90.5579 146.781C90.815 146.781 91.0258 146.977 91.0258 147.217ZM79.1761 148.662C78.941 148.949 78.6662 149.576 78.5654 150.057C78.4271 150.714 78.3281 150.601 78.1651 149.597C77.9901 148.522 78.1085 148.252 78.7762 148.202C79.3652 148.158 79.4806 148.291 79.1761 148.662ZM82.1883 150.031C82.1883 150.492 81.3404 150.686 81.0881 150.282C80.9356 150.038 81.1208 149.838 81.4995 149.838C81.8782 149.838 82.1883 149.925 82.1883 150.031Z" fill="#6C41E7"/>
</svg>
