<svg width="17" height="17" viewBox="0 0 17 17" fill="none" xmlns="http://www.w3.org/2000/svg">
<path fill-rule="evenodd" clip-rule="evenodd" d="M7.01437 14.339C6.99333 14.7838 6.99754 15.2168 7.01858 15.6232C7.09011 16.8456 8.2262 16.8414 8.31457 16.8397C8.49971 16.8355 9.32449 16.7833 9.52226 15.8303C9.53488 15.7735 9.56434 15.3619 9.57275 15.2033C9.58958 14.865 9.59798 14.5326 9.55169 14.1989C9.59377 13.6329 9.68634 13.0506 9.86307 12.5027C10.1197 11.694 10.5363 10.9475 11.2895 10.5499C12.636 9.83457 14.4075 9.86361 15.8886 9.68183C16.5072 9.60609 16.9785 9.09022 16.9995 8.46747C17.0163 7.84429 16.5787 7.30065 15.9644 7.18746C14.113 6.84495 11.9838 5.16139 10.6289 3.80564C10.2123 3.38906 9.74524 2.39688 9.22347 1.7615C8.80269 1.25236 8.33561 0.9111 7.89379 0.775609C7.72127 0.72301 6.76611 0.531127 6.33692 1.51996C6.2191 1.79767 5.80253 3.25189 5.76466 3.41768C5.53744 4.3678 5.21346 5.21653 4.57808 5.97225C4.02685 6.6274 3.35779 7.19965 2.5541 7.51692C2.23009 7.64483 1.89347 7.74204 1.55685 7.84218C1.43903 7.85649 1.10662 7.89857 0.988801 7.93854C0.748955 8.01849 0.572211 8.14387 0.445976 8.26884C0.206131 8.50532 0.0840899 8.78767 0.0630509 9.10914C0.0462196 9.32122 0.0756805 9.57285 0.227162 9.85183C0.340773 10.05 0.597441 10.3484 1.0603 10.5419C1.5442 10.7443 2.58355 10.9366 2.7687 10.9867C4.05629 11.3334 5.31865 11.8606 6.30748 12.7746C6.7998 13.2315 6.91338 13.7243 7.01437 14.339ZM7.83913 10.7607C8.33566 9.73147 9.07619 8.86508 10.1071 8.31933C10.5321 8.09253 10.9949 7.92044 11.4746 7.78663C10.4858 7.09824 9.5685 6.3156 8.84054 5.59017C8.60491 5.35412 8.34825 4.97205 8.07475 4.55253C7.75495 5.67264 7.28369 6.67872 6.50945 7.59938C6.0508 8.14219 5.53321 8.6383 4.95674 9.05192C6.00028 9.46513 6.98916 10.018 7.83913 10.7607Z" fill="#FAC138"/>
</svg>
