<svg width="100" height="110" viewBox="0 0 100 110" fill="none" xmlns="http://www.w3.org/2000/svg">
<path d="M85.5824 39.8713C85.5824 17.8513 61.8908 0.000543906 39.8708 0.000545831C17.8508 0.000547756 -5.58402e-06 17.8513 -3.65897e-06 39.8713C-1.73392e-06 61.8914 7.88813 81.7251 29.9082 81.7251C51.9282 81.7251 85.5824 61.8914 85.5824 39.8713Z" fill="#FAC138"/>
<mask id="mask0_633_5664" style="mask-type:alpha" maskUnits="userSpaceOnUse" x="0" y="0" width="100" height="110">
<path d="M79.7416 39.8711C79.7416 17.851 61.8908 0.000284506 39.8708 0.000286431C17.8508 0.000288356 -8.00755e-06 17.851 -6.0825e-06 39.8711C-4.15745e-06 61.8911 70.086 109.447 92.1061 109.447C114.126 109.447 79.7416 61.8911 79.7416 39.8711Z" fill="#FFCB3C"/>
</mask>
<g mask="url(#mask0_633_5664)">
<path fill-rule="evenodd" clip-rule="evenodd" d="M35.121 45.2092C32.6563 46.2432 29.8718 46.4491 26.8025 45.5509C16.3218 42.4838 12.0301 34.3166 11.4561 24.5873C10.6521 10.9125 17.4742 -5.92148 23.5843 -14.2859C24.2985 -15.263 25.6699 -15.4755 26.647 -14.7635C27.6219 -14.0493 27.8366 -12.6778 27.1224 -11.7007C21.457 -3.94538 15.084 11.6486 15.8311 24.3288C16.2911 32.1718 19.5861 38.8734 28.0338 41.3468C29.8609 41.8814 31.5236 41.8069 33.0199 41.2811C32.5336 40.3062 32.0691 39.3291 31.6288 38.352C29.8696 34.4393 27.2407 23.5752 28.2221 15.5876C28.9999 9.26718 31.9859 4.7345 38.1463 4.901C41.6735 4.9952 44.2762 7.12681 45.8382 10.6211C47.7639 14.9304 48.0269 21.5225 46.6729 27.8429C45.5491 33.0985 43.3188 38.1417 40.1904 41.533C39.7522 42.0084 39.2965 42.4531 38.8255 42.865C49.0959 61.0726 67.6322 77.9679 86.6635 85.1646C87.7939 85.5918 88.3634 86.8559 87.9362 87.9886C87.509 89.119 86.2428 89.6886 85.1124 89.2614C65.2617 81.7558 45.9128 64.1879 35.121 45.2092ZM36.7005 38.8406C36.3281 38.0804 35.9687 37.318 35.6269 36.5556C34.0474 33.0438 31.6902 23.2926 32.5709 16.1222C33.0375 12.3277 34.3322 9.18178 38.0303 9.28037C39.8442 9.32857 41.036 10.6124 41.8378 12.4088C42.9025 14.7902 43.2816 18.0194 43.1129 21.4567C42.8478 26.7891 41.2376 32.6253 38.4028 36.7527C37.8792 37.5151 37.3117 38.2184 36.7005 38.8406Z" fill="#35312B"/>
<path fill-rule="evenodd" clip-rule="evenodd" d="M71.9939 57.7631C73.7027 67.7289 80.2379 78.3324 87.2593 85.6802C88.094 86.5544 88.0634 87.9411 87.1893 88.778C86.3152 89.6127 84.9262 89.582 84.0915 88.7079C76.5048 80.7663 69.5206 69.2713 67.6759 58.5036C67.4722 57.3118 68.2741 56.1791 69.4659 55.9754C70.6577 55.7717 71.7902 56.5713 71.9939 57.7631Z" fill="#35312B"/>
<path fill-rule="evenodd" clip-rule="evenodd" d="M84.28 89.1263C77.0613 85.0054 65.9891 84.4665 57.9183 86.5565C56.7462 86.8588 55.5501 86.1533 55.2477 84.9835C54.9454 83.8136 55.6487 82.6174 56.8207 82.3129C65.895 79.9666 78.3364 80.6873 86.4532 85.3208C87.5026 85.9189 87.8685 87.2597 87.2682 88.3091C86.668 89.3585 85.3294 89.7243 84.28 89.1263Z" fill="#35312B"/>
</g>
</svg>
