<svg width="274" height="308" viewBox="0 0 274 308" fill="none" xmlns="http://www.w3.org/2000/svg">
<path opacity="0.2" fill-rule="evenodd" clip-rule="evenodd" d="M90.0327 0.877363C86.9815 1.56121 82.6328 3.20296 80.3688 4.52571C75.4253 7.41266 63.1635 13.8713 62.8543 13.7506C62.7331 13.7038 62.437 13.7144 62.1954 13.7752C61.9538 13.836 61.3608 13.9841 60.8776 14.1057C60.3944 14.2273 59.5053 14.3815 58.9009 14.4494C58.1278 14.5366 58.1928 14.8503 59.1205 15.5104C60.1563 16.2462 59.9393 16.367 58.1023 16.0744C56.5613 15.8294 55.9016 16.0541 56.1625 16.7371C56.3795 17.3055 54.8956 18.5225 52.8636 19.4416C49.6279 20.9054 49.4118 21.1697 51.1223 21.5742C52.1959 21.8289 53.0042 22.4334 52.9172 22.9181C52.4595 25.4852 51.0731 27.8346 49.4215 28.8392C48.4006 29.4596 46.4116 32.4258 45.0016 35.4291C43.5906 38.4333 41.9012 41.2092 41.2467 41.5978C40.5913 41.9873 38.5189 44.4865 36.6406 47.1523C34.7622 49.818 32.9243 52.1313 32.5562 52.2926C32.1873 52.4547 31.8859 52.9456 31.8859 53.3844C31.8859 54.1291 31.3245 54.8966 27.2446 59.7329C26.3828 60.7543 25.8741 62.1043 26.1148 62.7326C26.3547 63.361 26.0718 63.7804 25.4849 63.665C24.898 63.5496 24.5168 63.9514 24.638 64.5568C24.7584 65.1631 24.4386 65.6584 23.9273 65.6584C23.416 65.6584 23.2156 66.0135 23.4827 66.4471C23.7507 66.8815 23.3369 67.479 22.5655 67.7769C21.7388 68.095 21.3751 68.8767 21.6817 69.6786C21.9716 70.4365 21.4111 71.8932 20.4166 72.963C19.4344 74.0205 19.0435 75.0233 19.5478 75.1925C20.052 75.3608 20.465 75.8861 20.465 76.3584C20.465 76.8316 20.0028 76.9321 19.4371 76.5814C18.75 76.1557 18.5919 76.421 18.9591 77.3824C19.2622 78.1738 19.1252 79.0585 18.6552 79.3502C18.1852 79.6419 18.0279 80.2491 18.3064 80.7003C18.584 81.1515 18.3266 81.5207 17.7345 81.5207C17.1423 81.5207 16.9042 81.7684 17.2056 82.0706C17.9339 82.8003 14.5208 89.4519 13.4191 89.4519C12.9456 89.4519 12.5581 90.0846 12.5581 90.8584C12.5581 91.6312 11.7789 93.362 10.8274 94.7032C9.87508 96.0436 9.34796 97.3937 9.65545 97.703C9.96381 98.0114 9.75384 98.2643 9.1907 98.2643C8.62668 98.2643 8.22783 98.5622 8.30514 98.9253C8.38157 99.2883 8.22255 100.181 7.95196 100.908C7.68138 101.635 6.85204 104.609 6.1088 107.517C5.36556 110.425 3.90104 115.779 2.85382 119.414C-0.948482 132.61 -2.83118 145.609 -2.25311 154.664C-2.11518 156.821 -3.34249 170.837 -3.81602 172.509C-4.07255 173.416 -3.77561 174.056 -3.09474 174.064C-2.17843 174.075 -2.18985 174.238 -3.15009 174.849C-4.05059 175.421 -4.20609 176.664 -3.7554 179.681C-3.42156 181.916 -2.79955 183.745 -2.37346 183.745C-1.94737 183.745 -1.75146 184.538 -1.93771 185.507C-2.12396 186.477 -1.90345 187.27 -1.44837 187.27C-0.992408 187.27 -0.619908 187.888 -0.619908 188.644C-0.619908 189.458 -1.03282 189.761 -1.63462 189.389C-2.25662 189.003 -2.41037 189.147 -2.0326 189.76C-1.69348 190.31 -1.26036 193.048 -1.06972 195.844C-0.587403 202.912 -0.266737 204.093 1.53251 205.412C2.65967 206.239 2.94695 207.206 2.54458 208.815C2.20195 210.184 2.35306 211.063 2.92938 211.063C3.46616 211.063 3.58037 211.541 3.19294 212.165C1.94717 214.172 2.96188 218.282 6.51907 225.642C6.997 226.631 7.49337 228.019 7.62164 228.726C8.14436 231.604 11.0058 237.171 12.8199 238.835C13.8838 239.811 15.1498 241.237 15.633 242.004C18.3898 246.376 24.732 254.077 25.1941 253.613C25.4919 253.314 25.7362 253.555 25.7362 254.149C25.7362 254.743 26.0981 255.006 26.54 254.732C26.9819 254.457 28.2347 255.723 29.325 257.544C30.4144 259.364 32.3261 261.731 33.5727 262.805C34.8193 263.878 35.3456 264.77 34.7412 264.787C33.448 264.824 33.231 267.463 34.5215 267.463C35.0047 267.463 35.4001 267.996 35.4001 268.648C35.4001 269.3 36.1907 270.552 37.1571 271.428C38.1235 272.305 38.9142 273.356 38.9142 273.761C38.9142 275.711 49.3855 286.395 51.9578 287.07C52.998 287.343 53.8493 287.35 53.8493 287.086C53.8493 286.822 50.8843 283.493 47.2603 279.687C40.3357 272.417 39.1347 270.323 42.8676 272.029C44.0756 272.581 45.0639 273.342 45.0639 273.718C45.0639 274.094 47.7329 276.648 50.9941 279.393C54.2561 282.139 57.7772 285.104 58.8192 285.981C61.1007 287.903 71.377 293.019 72.9566 293.019C73.5742 293.019 74.7664 293.386 75.6054 293.836C77.8562 295.041 80.5498 295.963 81.3281 295.794C81.7042 295.713 82.2304 296.22 82.4992 296.921C82.7672 297.622 83.5069 297.994 84.143 297.75C84.7782 297.505 85.56 297.728 85.879 298.246C86.1979 298.764 86.8541 299.188 87.3373 299.188C87.8205 299.188 87.9743 298.795 87.6791 298.316C87.3716 297.817 87.723 297.668 88.5005 297.968C89.2481 298.256 89.6681 298.802 89.4335 299.181C88.634 300.479 100.836 302.191 109.933 302.056C117.902 301.939 119.207 301.701 120.578 300.115C121.439 299.12 122.575 298.306 123.106 298.306C124.561 298.306 125.96 295.124 125.307 293.303C124.99 292.42 125.059 291.996 125.46 292.361C126.55 293.355 126.589 299.531 125.51 300.276C124.208 301.174 126.754 301.021 128.964 300.069C130.466 299.421 130.498 299.302 129.184 299.249C128.338 299.216 127.646 298.63 127.646 297.949C127.646 297.143 128.261 296.87 129.403 297.17C130.386 297.428 131.16 297.197 131.16 296.647C131.16 296.105 132.321 295.663 133.739 295.663C135.157 295.663 137.233 295.314 138.351 294.887C139.47 294.461 140.78 294.036 141.264 293.943C141.747 293.85 142.876 293.109 143.772 292.295C144.668 291.481 145.558 290.915 145.749 291.036C146.996 291.828 147.89 291 147.413 289.494C147.081 288.443 147.255 287.731 147.846 287.731C148.389 287.731 148.591 288.128 148.292 288.613C147.993 289.097 148.168 289.494 148.679 289.494C149.191 289.494 149.61 289.031 149.61 288.466C149.61 287.901 149.866 287.694 150.179 288.009C150.493 288.324 151.503 287.709 152.425 286.642C153.836 285.009 154.23 284.908 154.917 285.997C155.47 286.875 155.737 286.937 155.746 286.189C155.753 285.584 156.55 285.088 157.517 285.088C158.483 285.088 159.274 284.691 159.274 284.206C159.274 283.722 159.989 283.325 160.863 283.325C161.737 283.325 163.219 282.743 164.157 282.032C166.363 280.357 167.253 280.348 166.62 282.003C166.341 282.73 165.535 283.325 164.828 283.325C164.12 283.325 162.948 283.92 162.223 284.647C160.685 286.19 161.704 286.339 165.058 285.059C167.241 284.227 167.339 284.276 166.213 285.645C165.082 287.02 165.155 287.048 167.138 285.987C168.54 285.238 169.399 285.155 169.596 285.749C169.763 286.252 170.667 286.462 171.606 286.216C172.543 285.97 173.109 285.441 172.863 285.042C172.616 284.642 173.115 283.906 173.971 283.406C175.039 282.782 175.143 282.489 174.305 282.47C173.634 282.456 172.635 283.06 172.086 283.813C171.018 285.279 167.672 284.666 168.592 283.173C168.88 282.706 169.624 282.52 170.247 282.759C170.87 282.999 172.198 282.432 173.197 281.498C174.196 280.564 175.798 279.8 176.756 279.8C177.714 279.8 178.742 279.404 179.041 278.919C179.339 278.434 180.177 278.038 180.901 278.038C181.674 278.038 181.96 278.459 181.593 279.056C181.19 279.709 181.353 279.832 182.051 279.399C182.694 279.001 182.922 277.869 182.609 276.62C182.07 274.463 183.369 273.626 184.17 275.614C184.434 276.273 184.64 276.095 184.682 275.174C184.719 274.325 185.213 273.73 185.777 273.852C186.342 273.973 187.247 273.222 187.788 272.184C188.33 271.145 189.195 269.757 189.71 269.099C190.225 268.441 190.871 266.989 191.144 265.87C191.548 264.217 191.415 264.025 190.431 264.845C189.765 265.399 188.792 265.587 188.268 265.262C187.674 264.893 188.485 263.373 190.426 261.217C192.137 259.318 193.536 257.171 193.536 256.445C193.536 255.719 194.13 255.125 194.854 255.125C195.579 255.125 196.172 254.518 196.172 253.776C196.172 253.033 196.864 252.179 197.71 251.877C198.555 251.575 200.097 250.301 201.136 249.047C202.174 247.792 203.722 246.762 204.574 246.76C205.427 246.756 206.308 246.203 206.534 245.53C206.798 244.736 206.562 244.541 205.862 244.974C205.028 245.492 205.003 245.231 205.753 243.824C206.287 242.824 207.216 241.709 207.817 241.346C208.532 240.915 208.487 241.212 207.687 242.199C206.274 243.947 207.01 245.23 208.67 243.915C209.286 243.428 210.685 243.107 211.779 243.202C212.874 243.298 214.258 242.782 214.854 242.055C215.787 240.919 215.6 240.818 213.523 241.337C210.606 242.065 210.458 241.176 213.035 238.401C214.211 237.135 215.096 236.726 215.305 237.353C215.79 238.814 218.595 238.628 219.901 237.049C220.631 236.168 221.347 236.002 222.015 236.558C223.578 237.859 224.645 236.756 228.35 230.01C229.149 228.556 231.328 226.046 233.194 224.434C235.059 222.821 236.585 220.979 236.585 220.342C236.585 219.705 237.184 218.952 237.916 218.671C238.648 218.389 239.626 217.157 240.09 215.933C240.554 214.709 241.302 213.707 241.752 213.707C242.202 213.707 242.363 212.912 242.109 211.94C241.856 210.968 242.147 209.571 242.756 208.835C243.365 208.098 243.555 207.208 243.179 206.856C242.802 206.505 242.309 206.738 242.083 207.375C241.857 208.012 240.685 208.91 239.478 209.37C238.054 209.913 237.461 210.666 237.786 211.516C238.083 212.294 237.783 212.826 237.049 212.826C235.388 212.826 234.554 211.337 235.785 210.573C236.513 210.123 236.508 209.799 235.77 209.341C234.632 208.635 235.436 205.776 236.773 205.776C237.256 205.776 237.426 206.365 237.151 207.085C236.731 208.18 236.932 208.217 238.374 207.314C239.323 206.72 240.099 205.734 240.099 205.123C240.099 204.513 240.518 204.013 241.029 204.013C241.541 204.013 241.741 203.658 241.474 203.225C241.206 202.79 241.541 202.223 242.217 201.962C242.894 201.702 243.714 200.273 244.039 198.786C244.365 197.298 244.984 196.082 245.415 196.082C245.845 196.082 246.569 194.794 247.023 193.218L247.848 190.354L247.927 193.659C247.977 195.759 247.426 197.545 246.414 198.56C245.538 199.439 244.969 200.602 245.149 201.145C245.33 201.688 244.662 202.569 243.667 203.103C241.614 204.205 241.253 205.776 243.052 205.776C243.71 205.776 245.176 204.02 246.312 201.873C247.447 199.726 248.683 198.161 249.059 198.394C249.435 198.627 249.483 198.137 249.164 197.305C248.774 196.286 248.918 195.999 249.604 196.424C250.233 196.815 250.449 196.606 250.17 195.877C249.923 195.228 250.559 193.795 251.584 192.691C252.609 191.587 253.533 190.213 253.636 189.638C254.154 186.751 255.268 184.626 256.265 184.626C257.614 184.626 257.772 181.995 256.425 181.953C255.902 181.937 256.264 181.243 257.23 180.411C259.153 178.755 263.819 171.886 263.819 170.71C263.819 170.307 264.628 168.298 265.615 166.249C266.603 164.198 267.871 159.266 268.433 155.288C268.996 151.309 269.803 147.812 270.227 147.515C270.651 147.219 271.011 146.624 271.028 146.193C271.044 145.763 271.456 144.419 271.942 143.208C272.429 141.996 272.814 138.429 272.797 135.281C272.78 132.133 272.987 129.201 273.255 128.766C273.523 128.331 273.845 122.58 273.971 115.983C274.204 103.835 273.008 93.5523 271.622 95.7775C271.163 96.5142 270.926 95.8074 270.979 93.8581C271.205 85.3233 261.254 59.1416 255.808 53.9475C254.9 53.0804 254.155 51.8546 254.155 51.2236C254.155 50.5918 251.62 47.6334 248.521 44.6487C245.422 41.663 243.076 39.2211 243.309 39.2211C244.014 39.2211 237.232 31.0432 233.951 27.9359C229.927 24.1272 219.534 18.8071 217.582 19.5588C216.573 19.9475 216.296 19.7994 216.725 19.1023C217.146 18.4194 216.616 18.0713 215.156 18.0713C213.944 18.0713 212.549 17.3769 212.056 16.5291C211.563 15.6805 211.148 15.3333 211.134 15.7554C211.12 16.1784 210.514 16.0312 209.789 15.4276C209.065 14.8239 208.465 14.6767 208.458 15.0997C208.451 15.5218 208.061 15.2733 207.593 14.5463C206.876 13.4342 206.739 13.4254 206.728 14.4926C206.719 15.3835 206.183 15.187 204.923 13.8316C202.893 11.6453 201.79 11.4038 201.146 13.0041C200.882 13.6624 200.675 13.4844 200.634 12.5635C200.595 11.6805 199.876 11.0213 198.954 11.0213C198.068 11.0213 197.072 10.749 196.74 10.4159C196.109 9.78232 195.555 9.66952 189.197 8.87023C187.051 8.60057 185.074 8.05773 184.804 7.66381C184.533 7.2699 183.521 6.92092 182.555 6.8892C178.974 6.77023 158.631 5.61051 152.685 5.18752C149.302 4.94606 140.209 4.62176 132.478 4.46666C121.577 4.24723 117.534 3.83129 114.468 2.61605C112.294 1.7542 109.131 0.930242 107.44 0.783956C105.749 0.638551 102.388 0.31954 99.9724 0.0763168C97.5565 -0.167787 93.0838 0.193519 90.0327 0.877363ZM163.007 23.9421C162.404 24.1871 161.415 24.1871 160.811 23.9421C160.207 23.698 160.701 23.498 161.909 23.498C163.117 23.498 163.612 23.698 163.007 23.9421ZM174.849 23.891C174.557 24.1836 173.799 24.2153 173.166 23.9606C172.465 23.6795 172.673 23.4707 173.697 23.4284C174.622 23.3905 175.141 23.5984 174.849 23.891ZM161.267 25.6993C160.672 25.9408 159.486 25.9558 158.631 25.7319C157.777 25.5081 158.263 25.3107 159.713 25.2931C161.162 25.2754 161.862 25.4579 161.267 25.6993ZM175.324 25.6993C174.729 25.9408 173.543 25.9558 172.688 25.7319C171.833 25.5081 172.32 25.3107 173.769 25.2931C175.219 25.2754 175.918 25.4579 175.324 25.6993ZM135.773 26.5858C135.169 26.8308 134.181 26.8308 133.576 26.5858C132.973 26.3417 133.467 26.1417 134.675 26.1417C135.883 26.1417 136.377 26.3417 135.773 26.5858ZM185.351 27.9306C185.071 28.633 184.863 28.4241 184.821 27.3975C184.783 26.4686 184.99 25.9487 185.282 26.2413C185.573 26.5339 185.605 27.2944 185.351 27.9306ZM198.317 27.3895C197.379 28.1527 197.123 28.5149 197.748 28.195C198.373 27.8751 199.361 28.0091 199.945 28.4929C201.145 29.4887 205.834 29.4358 205.835 28.4259C205.836 28.0628 206.231 27.7649 206.715 27.7649C207.198 27.7649 207.605 28.6576 207.621 29.7477C207.648 31.6812 207.681 31.6874 208.939 30.02C210.169 28.388 210.229 28.4268 210.229 30.8493C210.229 33.2718 210.288 33.3106 211.518 31.6785C212.669 30.1522 212.812 30.132 212.836 31.4882C212.863 32.9114 217.171 35.3983 222.369 36.9916C224.298 37.5829 224.321 37.6789 222.808 38.7963C221.343 39.8785 221.332 40.0239 222.679 40.5482C225.364 41.5925 227.353 41.626 228.006 40.6381C228.464 39.9437 228.655 39.9649 228.665 40.7113C228.672 41.2885 228.283 42.0058 227.799 42.3054C227.316 42.6051 226.921 43.2466 226.921 43.7313C226.921 44.216 227.383 44.3261 227.949 43.9754C228.646 43.5427 228.79 43.8247 228.398 44.8505C228.041 45.7837 228.167 46.1477 228.726 45.8005C229.225 45.4911 230.605 45.8762 231.791 46.6561C233.839 48.0018 234.374 47.8044 233.985 45.8445C233.605 43.9349 240.058 51.5506 241.889 55.1734C242.967 57.3051 244.29 59.3407 244.829 59.6968C245.368 60.0528 245.464 60.3498 245.043 60.3577C244.622 60.3647 244.683 60.8671 245.179 61.4725C247.386 64.1647 249.258 73.393 250.315 86.8082C250.64 90.928 251.341 94.5887 251.872 94.9429C252.545 95.3924 252.384 96.3926 251.342 98.2476C250.518 99.7105 250.123 100.911 250.463 100.913C250.802 100.916 251.11 102.8 251.148 105.099C251.185 107.398 251.057 108.586 250.864 107.738C250.67 106.889 250.104 106.196 249.605 106.196C249.084 106.196 248.967 106.854 249.329 107.738C250.654 110.966 250.914 112.637 250.002 112.072C248.732 111.285 248.036 115.563 249.235 116.788C249.767 117.333 249.807 117.65 249.324 117.494C248.347 117.179 248.403 117.067 246.125 123.82C245.226 126.486 244.113 129.46 243.652 130.43C243.19 131.399 241.763 135.365 240.479 139.242C239.196 143.12 237.794 146.669 237.365 147.129C236.936 147.59 236.585 148.83 236.585 149.886C236.585 150.941 235.992 152.298 235.267 152.901C234.542 153.505 233.949 154.756 233.949 155.681C233.949 156.606 233.359 157.59 232.637 157.868C231.914 158.147 231.517 158.688 231.754 159.072C232.305 159.965 226.996 171.407 226.031 171.407C224.821 171.407 221.447 177.536 221.943 178.834C222.221 179.56 221.637 180.282 220.491 180.633C219.114 181.054 218.923 181.361 219.811 181.721C220.667 182.067 220.261 182.59 218.493 183.415C216.226 184.475 216.186 184.556 218.135 184.14L220.332 183.672L218.222 184.912C216.67 185.825 216.437 186.282 217.344 186.641C218.309 187.025 218.275 187.146 217.186 187.2C215.879 187.265 214.535 189.252 213.408 192.786C213.136 193.639 212.47 194.233 211.929 194.107C211.387 193.982 210.486 194.663 209.927 195.621C209.369 196.579 208.352 197.811 207.67 198.358C206.988 198.905 206.677 199.999 206.98 200.791C207.316 201.672 207.116 202.149 206.463 202.02C205.876 201.905 205.394 202.532 205.39 203.415C205.382 205.313 200.052 211.945 198.534 211.945C197.955 211.945 194.715 215.349 191.336 219.509C177.717 236.273 161.037 250.607 145.656 258.764C133.576 265.171 113.936 272.286 108.977 272.051C108.131 272.011 107.44 272.326 107.44 272.75C107.44 273.175 106.749 273.527 105.903 273.533C105.057 273.539 100.312 273.78 95.3601 274.067C88.316 274.475 86.3525 274.341 86.3419 273.449C86.3314 272.572 86.1513 272.59 85.5609 273.524C85.0681 274.306 84.3679 274.463 83.5983 273.965C82.9403 273.539 81.018 273.163 79.3268 273.128C77.6357 273.093 75.3233 272.757 74.1874 272.379C73.0523 272.003 71.2733 271.591 70.234 271.465C66.9298 271.064 60.8776 268.973 60.8776 268.232C60.8776 267.839 60.3593 267.718 59.725 267.962C58.2279 268.538 50.1744 264.031 50.8219 262.979C51.0942 262.537 50.6883 262.175 49.9205 262.175C49.1518 262.175 48.2952 261.581 48.0176 260.854C47.7391 260.127 46.9607 259.532 46.2878 259.532C45.6148 259.532 45.0639 258.946 45.0639 258.23C45.0639 257.515 44.0756 256.279 42.8676 255.485C41.6596 254.691 40.6713 253.664 40.6713 253.203C40.6713 252.742 39.7391 251.102 38.5988 249.559C37.4593 248.016 35.4361 244.474 34.1033 241.687C32.7706 238.899 31.3307 236.619 30.9046 236.619C30.4776 236.619 30.1288 235.787 30.1288 234.77C30.1288 233.753 29.5745 231.67 28.898 230.143C26.7755 225.355 25.7353 221.471 26.3213 220.52C26.6323 220.016 26.4715 219.86 25.9655 220.175C23.7524 221.547 22.1799 207.944 21.8566 184.626C21.7274 175.339 21.9954 169.626 22.5972 168.815C23.2894 167.882 23.2684 167.707 22.519 168.158C21.7994 168.591 21.8847 167.14 22.8054 163.26C24.4263 156.429 24.5985 155.609 25.1888 151.912C25.4506 150.275 26.6744 145.042 27.9097 140.281C29.1449 135.521 29.8908 131.197 29.5675 130.672C29.1914 130.061 29.3953 129.975 30.1315 130.431C30.9898 130.964 31.1576 130.661 30.7886 129.245C30.5163 128.2 30.6753 127.345 31.1418 127.345C31.6083 127.345 31.7893 127.019 31.5433 126.621C31.2982 126.223 31.632 124.863 32.2857 123.599C32.9393 122.335 33.2485 121.075 32.9727 120.799C32.6968 120.522 32.9261 120.295 33.4813 120.295C34.5575 120.295 38.9283 112.313 38.894 110.41C38.8834 109.788 38.2588 110.53 37.5077 112.059C36.2399 114.636 32.7645 116.737 32.7645 114.925C32.7645 114.486 33.4005 114.127 34.1771 114.127C35.2463 114.127 35.4563 113.59 35.039 111.924C34.6322 110.298 34.8378 109.72 35.8226 109.72C36.5562 109.72 37.1571 109.324 37.1571 108.839C37.1571 108.355 36.7741 107.958 36.3058 107.958C35.2463 107.958 36.1986 105.3 37.8643 103.612C38.9388 102.522 38.9116 102.204 37.6684 101.292C36.4824 100.423 36.4464 100.151 37.4637 99.7589C38.1437 99.4972 39.14 99.6523 39.6785 100.103C40.2162 100.554 40.4657 100.659 40.232 100.335C39.9992 100.013 40.2988 99.1403 40.8988 98.3965C41.7694 97.317 41.7668 97.1786 40.8848 97.71C39.5564 98.5111 38.2316 95.7202 39.5371 94.8707C40.0203 94.5561 41.0508 93.1091 41.8265 91.655C42.727 89.9666 43.2489 89.5497 43.2717 90.5015C43.2911 91.321 42.9291 92.2261 42.467 92.5125C42.0049 92.7989 41.8494 93.6158 42.1217 94.3269C42.3967 95.0469 42.12 95.6206 41.4971 95.6206C40.8821 95.6206 40.5852 95.8286 40.8382 96.0824C41.903 97.1504 44.1854 95.269 44.1854 93.3232C44.1854 92.1635 44.5017 91.2144 44.8874 91.2144C45.6394 91.2144 48.1757 85.0475 47.8779 83.9441C47.7795 83.5811 48.1186 83.2832 48.6299 83.2832C49.1412 83.2832 49.3161 82.8867 49.0174 82.402C48.7187 81.9173 49.1043 81.5207 49.8748 81.5207C50.987 81.5207 51.0881 81.8715 50.3659 83.2251C49.866 84.1627 49.4724 85.2537 49.4918 85.6485C49.5111 86.0442 50.1393 85.2334 50.8886 83.8472C51.819 82.1253 51.9648 81.0405 51.349 80.4227C50.7331 79.805 50.85 79.1158 51.7171 78.246C52.4155 77.5454 52.7204 76.5408 52.3953 76.0121C52.0176 75.3996 52.333 75.256 53.266 75.6155C54.3808 76.0438 54.7278 75.6728 54.7278 74.0522C54.7278 72.8837 55.4342 71.4085 56.2969 70.7757C57.1596 70.1421 59.4025 67.7592 61.28 65.4795C63.1574 63.2006 65.0313 61.5447 65.4433 61.8003C65.8554 62.0558 66.0847 61.9378 65.9538 61.5377C65.6164 60.5102 70.5547 54.2022 71.6968 54.2022C72.2169 54.2022 71.3453 55.5452 69.7587 57.187C68.1729 58.8287 67.2364 60.3965 67.6783 60.6705C68.1202 60.9446 69.9538 59.4033 71.7521 57.2452C73.5505 55.087 74.5318 53.321 73.9335 53.321C71.9524 53.321 76.3319 50.0154 79.1309 49.3986C81.2148 48.9394 81.7314 48.4451 81.3088 47.3135C80.8379 46.0534 80.9653 46.0014 82.1522 46.969C83.2188 47.8379 83.6317 47.8564 83.9014 47.0456C84.2422 46.0199 85.459 45.6313 89.6698 45.2047C90.8532 45.084 91.4946 44.5544 91.2451 43.9023C91.014 43.2977 91.2451 42.5416 91.7581 42.2235C92.3801 41.8384 92.294 41.3784 91.5007 40.847C90.7329 40.3323 91.2011 40.2574 92.8185 40.6355C94.1996 40.958 95.5833 40.8549 95.8934 40.4064C96.9652 38.8598 102.778 37.7124 108.176 37.983C111.573 38.153 113.59 37.9063 113.59 37.3203C113.59 36.7563 114.488 36.6126 115.86 36.9581C117.331 37.3282 117.931 37.2075 117.565 36.6126C117.254 36.1086 116.407 35.6961 115.682 35.6961C114.958 35.6961 114.61 35.2978 114.909 34.8114C115.209 34.3249 116.382 34.161 117.515 34.4456C118.648 34.7312 120.502 34.4545 121.634 33.8305C124.288 32.3686 125.764 32.1377 126.353 33.0921C126.612 33.5124 127.405 33.6331 128.114 33.36C128.823 33.0877 129.403 33.2683 129.403 33.7636C129.403 34.2888 130.298 34.4201 131.557 34.0782C132.742 33.7565 139.759 33.6922 147.151 33.9363C154.544 34.1795 160.987 34.1733 161.47 33.9222C161.953 33.671 163.139 33.4851 164.106 33.5098C165.072 33.5336 166.092 33.2287 166.373 32.8312C167.129 31.7623 171.573 31.1198 171.573 32.0804C171.573 32.5342 171.125 33.055 170.578 33.2383C170.02 33.4252 169.823 34.3311 170.131 35.3013C170.595 36.7695 171.311 36.9819 174.86 36.699C178.571 36.4038 184.358 33.9336 181.339 33.9336C180.617 33.9336 180.382 33.3811 180.724 32.4875C181.209 31.2194 181.085 31.1921 179.72 32.2672C178.863 32.9414 177.964 33.7283 177.723 34.0156C176.936 34.9515 171.573 35.675 171.573 34.8448C171.573 34.4007 171.968 33.7926 172.452 33.493C173.809 32.6514 173.489 30.4087 172.012 30.4087C171.288 30.4087 170.695 29.9927 170.695 29.4834C170.695 28.5061 176.111 28.8189 178.821 29.954C179.666 30.3073 180.358 30.2377 180.358 29.7989C180.358 29.3591 181.74 29.1617 183.429 29.36C185.118 29.5574 186.996 29.5283 187.602 29.2948C188.208 29.0613 189.1 28.7396 189.583 28.5792C190.066 28.418 191.845 27.7905 193.536 27.1833C195.228 26.5762 197.379 26.0624 198.317 26.0412C200.005 26.0025 200.005 26.0166 198.317 27.3895ZM218.135 33.0524C218.135 33.5371 217.74 33.9336 217.257 33.9336C216.774 33.9336 216.378 33.5371 216.378 33.0524C216.378 32.5677 216.774 32.1712 217.257 32.1712C217.74 32.1712 218.135 32.5677 218.135 33.0524ZM183.387 34.74C183.66 35.1832 183.387 35.7376 182.78 35.972C182.173 36.2064 182.565 36.3535 183.653 36.2998C185.85 36.1914 186.43 33.9336 184.26 33.9336C183.507 33.9336 183.114 34.2967 183.387 34.74ZM186.691 35.4758C186.907 36.5483 187.663 36.9299 189.171 36.7298C190.364 36.5721 193.317 36.4381 195.733 36.4328L200.126 36.4232L195.865 35.5842C192.83 34.9859 191.253 35.037 190.384 35.7605C189.437 36.5483 189.043 36.4575 188.621 35.3551C187.887 33.4384 186.299 33.538 186.691 35.4758ZM107.44 35.8847C107.44 36.2654 105.877 36.5774 103.967 36.5774C102.057 36.5774 99.4857 37.0383 98.2531 37.6014C97.0206 38.1654 95.7493 38.3637 95.4295 38.042C94.4473 37.0577 95.665 36.4822 100.106 35.8345C105.655 35.0246 107.44 35.037 107.44 35.8847ZM161.379 35.8433C161.131 36.2469 161.642 36.6073 162.516 36.6452C163.39 36.6822 164.797 36.8453 165.643 37.0074C166.489 37.1696 167.18 36.9863 167.18 36.5994C167.18 35.6239 161.936 34.94 161.379 35.8433ZM208.032 35.6961C207.734 36.1808 208.129 36.5774 208.911 36.5774C209.693 36.5774 210.088 36.1808 209.789 35.6961C209.491 35.2114 209.095 34.8149 208.911 34.8149C208.726 34.8149 208.331 35.2114 208.032 35.6961ZM117.324 38.1742C114.977 38.5161 114.706 39.8318 116.884 40.3112C117.73 40.498 116.073 41.0744 113.203 41.5934C108.834 42.383 107.768 42.3187 106.655 41.203C105.469 40.0125 105.51 39.9279 107.042 40.4125C107.986 40.7113 109.944 40.5782 111.393 40.1164C113.455 39.4599 112.553 39.3295 107.246 39.5172C103.515 39.6494 100.188 40.0336 99.8512 40.3702C99.5156 40.7078 100.262 40.9836 101.512 40.9836C102.76 40.9836 104.478 41.2515 105.327 41.5784C106.76 42.1301 106.749 42.2191 105.18 42.8104C102.605 43.7798 125.216 42.9919 129.092 41.9767C130.955 41.4894 133.664 40.936 135.114 40.7483C136.563 40.5597 134.062 40.4363 129.555 40.4742C123.233 40.5271 121.126 40.2389 120.331 39.214C119.764 38.4835 118.411 38.0156 117.324 38.1742ZM140.385 38.8122C138.935 39.4784 137.947 40.0644 138.189 40.1147C138.43 40.1649 142.977 40.3235 148.292 40.4663C156.334 40.6831 157.071 40.6046 152.685 39.9948C149.785 39.593 146.505 38.8571 145.395 38.361C144.286 37.8649 143.297 37.4912 143.199 37.53C143.101 37.5697 141.835 38.1469 140.385 38.8122ZM187.916 41.7177C187.668 42.1222 188.039 42.4526 188.743 42.4526C189.447 42.4526 190.022 42.1222 190.022 41.7177C190.022 41.314 189.651 40.9836 189.196 40.9836C188.741 40.9836 188.165 41.314 187.916 41.7177ZM173.166 42.4667C173.799 42.7214 174.557 42.6897 174.849 42.3971C175.141 42.1045 174.622 41.8966 173.697 41.9344C172.673 41.9767 172.465 42.1856 173.166 42.4667ZM191.615 42.4667C192.249 42.7214 193.007 42.6897 193.298 42.3971C193.59 42.1045 193.072 41.8966 192.146 41.9344C191.122 41.9767 190.914 42.1856 191.615 42.4667ZM208.472 46.271C208.472 46.7557 208.891 47.1523 209.402 47.1523C209.913 47.1523 210.088 46.7557 209.789 46.271C209.491 45.7864 209.073 45.3898 208.859 45.3898C208.646 45.3898 208.472 45.7864 208.472 46.271ZM211.107 47.0659C211.107 47.503 212.392 48.3702 213.962 48.9914C215.533 49.6136 217.114 50.2798 217.477 50.4728C217.839 50.6658 218.135 50.4393 218.135 49.9696C218.135 49.4999 216.79 48.4759 215.148 47.6934C211.713 46.0587 211.107 45.9644 211.107 47.0659ZM225.164 52.349C225.164 52.8495 225.924 53.6673 226.852 54.1652C227.781 54.664 229.165 55.6977 229.927 56.4626C230.798 57.3359 231.314 57.4655 231.314 56.8116C231.314 56.2379 232.038 56.6671 232.924 57.7651C234.166 59.3028 234.535 59.435 234.535 58.3414C234.535 57.5615 234.138 57.1694 233.653 57.4699C233.129 57.7959 232.999 57.424 233.333 56.5499C233.744 55.4739 233.411 55.0835 232.08 55.0835C231.083 55.0835 229.119 54.263 227.715 53.2611C226.312 52.2582 225.164 51.8484 225.164 52.349ZM51.2137 55.0835C51.2137 55.5681 50.7946 55.9647 50.2833 55.9647C49.772 55.9647 49.5972 55.5681 49.8959 55.0835C50.1946 54.5988 50.6128 54.2022 50.8263 54.2022C51.0397 54.2022 51.2137 54.5988 51.2137 55.0835ZM247.259 57.2866C247.259 57.7466 246.9 58.2436 246.461 58.3908C246.022 58.5371 245.663 58.0409 245.663 57.2866C245.663 56.5322 246.022 56.0361 246.461 56.1824C246.9 56.3295 247.259 56.8266 247.259 57.2866ZM49.4566 59.4897C48.9392 60.459 48.1344 61.2522 47.6688 61.2522C47.2023 61.2522 46.821 61.847 46.821 62.574C46.821 63.301 46.402 63.8959 45.8907 63.8959C45.3793 63.8959 45.1896 64.2678 45.4698 64.7234C45.7501 65.1781 45.2792 65.943 44.4235 66.4233C43.5678 66.9036 42.9317 67.5143 43.0099 67.7795C43.3253 68.8449 42.1736 71.8271 41.447 71.8271C41.0209 71.8271 40.6713 72.2791 40.6713 72.8317C40.6713 73.3842 39.9799 74.4047 39.1338 75.1C38.2878 75.7953 38.1174 76.0967 38.7534 75.7697C39.5406 75.3652 39.8217 75.6957 39.632 76.8061C39.3087 78.6963 38.1112 80.1416 36.2628 80.8686C35.2367 81.2731 35.2867 81.3965 36.4982 81.4511C38.1824 81.5278 41.7141 78.454 40.8909 77.6283C40.6089 77.3463 40.7969 77.1145 41.3082 77.1145C41.8195 77.1145 42.4977 76.0755 42.8158 74.8048C43.1338 73.5349 44.044 71.8491 44.8382 71.0595C46.1744 69.7324 46.2394 69.7403 45.7009 71.1661C45.3811 72.0148 45.5243 72.7083 46.0189 72.7083C46.9669 72.7083 46.6884 76.4827 45.5489 79.0973C45.179 79.946 44.2267 80.6457 43.4325 80.6527C42.6049 80.6606 42.3633 80.9426 42.8676 81.3136C43.9798 82.1341 44.507 84.4676 43.4281 83.7996C42.988 83.5264 42.4345 84.0464 42.1973 84.954C41.8678 86.2195 41.2054 86.498 39.3649 86.1446C37.2318 85.7357 37.0289 85.8961 37.5577 87.5678C37.9944 88.9478 37.7844 89.4519 36.7697 89.4519C35.9702 89.4519 34.7798 90.9712 33.9514 93.0483C33.0113 95.4056 32.2848 96.2683 31.8438 95.5519C31.1172 94.3728 31.6057 92.3688 33.0816 90.4645C33.5894 89.8097 34.0796 88.7681 34.1701 88.1503C34.2597 87.5317 34.59 86.2177 34.9028 85.229C35.2287 84.1988 35.0232 83.1537 34.4214 82.7809C33.7598 82.3702 33.6026 82.5042 33.9953 83.1422C34.3379 83.6983 33.6579 85.4449 32.4824 87.0232C31.3078 88.6015 29.8714 91.3801 29.2907 93.1972C28.6986 95.0522 27.6646 96.5019 26.9336 96.5019C26.2185 96.5019 25.8767 96.8984 26.1754 97.3831C26.4741 97.8678 26.2993 98.2643 25.788 98.2643C24.4377 98.2643 24.6477 96.8385 26.2317 95.2496C26.9872 94.4917 27.3316 93.4281 26.9977 92.8852C26.663 92.3424 26.9064 91.5784 27.5389 91.1862C28.6397 90.5032 29.2679 88.7566 29.4287 85.9269C29.5016 84.6359 31.9254 80.6395 34.2378 77.9958C36.7073 75.1723 41.5498 68.2492 41.5498 67.5416C41.5498 67.1318 42.4398 65.8011 43.5265 64.5841C44.6133 63.3671 45.6236 61.8223 45.7712 61.1508C46.0602 59.8334 48.4498 57.7272 49.6552 57.7272C50.0637 57.7272 49.9741 58.5203 49.4566 59.4897ZM237.463 60.3709C237.463 60.8556 237.882 61.2522 238.394 61.2522C238.905 61.2522 239.08 60.8556 238.781 60.3709C238.482 59.8862 238.064 59.4897 237.851 59.4897C237.637 59.4897 237.463 59.8862 237.463 60.3709ZM53.8493 61.2522C53.8493 61.7368 53.6754 62.1334 53.4619 62.1334C53.2484 62.1334 52.8302 61.7368 52.5315 61.2522C52.2328 60.7675 52.4076 60.3709 52.9189 60.3709C53.4302 60.3709 53.8493 60.7675 53.8493 61.2522ZM54.9475 64.4793C54.3439 64.7243 53.3556 64.7243 52.7511 64.4793C52.1476 64.2352 52.6413 64.0351 53.8493 64.0351C55.0573 64.0351 55.5519 64.2352 54.9475 64.4793ZM242.734 64.7102C242.734 65.1279 243.327 65.698 244.052 65.9774C244.777 66.2559 245.37 66.1422 245.37 65.7253C245.37 65.3076 244.777 64.7375 244.052 64.4581C243.327 64.1796 242.734 64.2933 242.734 64.7102ZM55.5299 68.4449C54.8359 69.7456 54.2956 70.0857 54.0584 69.3719C53.6727 68.2104 55.5519 65.3103 56.2424 66.0021C56.4542 66.2144 56.1335 67.3142 55.5299 68.4449ZM255.286 71.583C255.689 73.6988 254.044 75.783 252.839 74.6832C252.444 74.3245 253.026 75.2868 254.13 76.8228C255.416 78.6118 256.65 79.4533 257.562 79.1634C258.758 78.7836 258.782 78.8567 257.71 79.6181C256.687 80.3452 256.636 80.9294 257.453 82.565C258.56 84.7796 258.635 104.433 257.537 104.433C257.186 104.433 256.96 105.226 257.033 106.196C257.106 107.165 257.485 107.958 257.877 107.958C258.268 107.958 257.952 108.932 257.175 110.122C256.397 111.313 255.994 112.665 256.279 113.127C257.084 114.432 255.849 116.833 254.722 116.155C254.169 115.823 254.259 116.221 254.922 117.042C255.708 118.014 255.784 118.533 255.141 118.533C253.78 118.533 253.891 121.17 255.254 121.205C255.929 121.222 255.765 121.68 254.828 122.394C253.99 123.032 253.519 123.769 253.782 124.034C254.045 124.297 253.446 126.037 252.45 127.899C251.456 129.761 250.641 131.84 250.641 132.517C250.641 133.196 250.179 135.298 249.614 137.189C248.918 139.522 248.357 140.263 247.87 139.494C246.843 137.868 246.964 136.834 248.1 137.538C248.752 137.942 248.881 137.534 248.491 136.301C248.17 135.29 248.4 133.555 249.001 132.446C249.986 130.63 250.368 129.214 250.796 125.803C250.872 125.198 251.287 124.702 251.718 124.702C252.149 124.702 252.299 124.373 252.052 123.971C251.804 123.569 252.18 121.314 252.886 118.96C253.909 115.55 253.945 114.535 253.064 113.963C252.181 113.389 252.186 113.098 253.092 112.511C253.89 111.994 253.991 111.15 253.434 109.647C252.413 106.894 253.143 98.0167 254.459 97.176C255.106 96.7636 255.133 96.5239 254.536 96.5151C253.495 96.5001 253.373 90.4697 254.382 88.8835C254.742 88.316 254.424 87.6436 253.656 87.3475C252.903 87.0576 252.513 86.4548 252.788 86.008C253.063 85.5621 252.886 85.0616 252.395 84.8977C251.235 84.5099 250.486 80.6395 251.57 80.6395C252.026 80.6395 252.392 79.946 252.385 79.0973C252.373 77.7666 252.244 77.7358 251.437 78.877C250.708 79.9098 250.588 79.6701 250.89 77.7755C251.103 76.443 251.022 75.352 250.711 75.352C250.401 75.352 250.064 74.3606 249.964 73.1489C249.865 71.9372 250.216 70.9458 250.747 70.9458C251.32 70.9458 251.501 70.106 251.192 68.8731C250.907 67.7337 250.947 66.5264 251.283 66.1898C252.085 65.3852 254.803 69.0459 255.286 71.583ZM47.6996 68.7947C47.6996 69.5499 47.3042 69.9236 46.821 69.624C46.3378 69.3243 45.9425 68.7066 45.9425 68.2501C45.9425 67.7936 46.3378 67.4209 46.821 67.4209C47.3042 67.4209 47.6996 68.0395 47.6996 68.7947ZM51.653 70.0646C51.3262 71.0965 51.4948 71.8271 52.0597 71.8271C52.5895 71.8271 51.7795 74.1077 50.2596 76.8942C47.2041 82.4954 45.0639 85.2043 45.0639 83.4718C45.0639 82.8831 45.4593 82.402 45.9425 82.402C46.4257 82.402 46.821 81.9975 46.821 81.5031C46.821 81.0087 47.8094 79.0339 49.0174 77.1145C51.6784 72.8863 51.8946 70.9361 49.4566 73.1489C47.4325 74.9863 47.0345 73.5014 49.0174 71.5125C49.7422 70.7854 50.3352 69.7658 50.3352 69.2459C50.3352 68.7269 50.7569 68.3021 51.2726 68.3021C51.8111 68.3021 51.9728 69.0538 51.653 70.0646ZM251.52 72.7083C251.52 73.193 251.939 73.5896 252.45 73.5896C252.962 73.5896 253.136 73.193 252.838 72.7083C252.539 72.2236 252.121 71.8271 251.907 71.8271C251.694 71.8271 251.52 72.2236 251.52 72.7083ZM68.9768 77.1145C68.4752 78.8109 68.0289 79.7036 67.9849 79.0973C67.9419 78.4919 67.5343 77.9958 67.0801 77.9958C66.6258 77.9958 66.3553 79.0867 66.4783 80.4192C66.6012 81.7516 67.1029 82.7659 67.5922 82.6725C68.0816 82.5791 68.4374 83.8684 68.382 85.5366C68.3267 87.2056 68.5929 88.5707 68.9724 88.5707C69.352 88.5707 69.6691 92.4367 69.6761 97.1628C69.6911 106.594 70.2305 108.354 72.8081 107.383C74.2665 106.833 74.3403 106.938 73.3537 108.155C72.5867 109.102 72.5156 109.75 73.134 110.135C73.641 110.448 74.0583 112.368 74.0609 114.399C74.0662 118.855 75.6308 124.898 77.0084 125.79C77.7288 126.255 77.7016 126.441 76.9109 126.451C76.3073 126.458 75.8127 127.257 75.8127 128.227C75.8127 129.851 76.5595 130.327 78.2287 129.769C78.5906 129.648 78.7883 129.251 78.6679 128.888C78.5467 128.524 78.8858 128.227 79.4208 128.227C79.9559 128.227 80.1658 128.821 79.8874 129.548C79.6097 130.275 79.7231 130.87 80.1386 130.87C81.4731 130.87 81.9396 133.456 81.054 135.945C80.2502 138.207 80.2792 138.252 81.5179 136.65C82.8129 134.976 82.841 134.981 82.841 136.871C82.841 138.038 82.2954 138.801 81.4608 138.801C80.2054 138.801 80.2054 138.928 81.4608 140.186C82.2199 140.948 82.841 141.985 82.841 142.492C82.841 142.999 83.6326 143.206 84.5989 142.952C85.5662 142.698 86.2313 142.751 86.0775 143.069C85.9238 143.387 86.7768 144.64 87.9725 145.851C89.1682 147.063 89.8798 147.587 89.5539 147.014C88.5154 145.188 90.956 144.626 92.3169 146.378C93.401 147.773 93.5319 147.799 93.0996 146.538C92.8132 145.703 93.2016 144.397 93.9615 143.635C95.2178 142.375 95.2037 142.094 93.7998 140.538C91.3812 137.858 90.0828 127.381 90.3314 112.552C90.544 99.9017 90.4298 98.8134 88.4566 94.7112C87.3004 92.308 86.3551 89.7322 86.3551 88.9875C86.3551 87.6991 82.9921 85.7895 81.8728 86.4425C81.5829 86.6117 80.8748 85.177 80.3003 83.2541C79.5219 80.6457 78.7953 79.7582 77.4406 79.7582C76.1597 79.7582 75.7793 79.3546 76.1483 78.3888C76.9495 76.2958 74.8489 74.5466 72.5771 75.4137C71.3014 75.9002 70.5301 75.7909 70.2744 75.0877C70.0627 74.506 69.4793 75.4181 68.9768 77.1145ZM44.1854 76.1813C44.1854 76.6378 44.5149 77.215 44.9172 77.4644C45.3205 77.7138 45.6499 77.341 45.6499 76.6351C45.6499 75.9292 45.3205 75.352 44.9172 75.352C44.5149 75.352 44.1854 75.7248 44.1854 76.1813ZM256.791 76.2333C256.791 76.718 256.396 77.1145 255.913 77.1145C255.429 77.1145 255.034 76.718 255.034 76.2333C255.034 75.7486 255.429 75.352 255.913 75.352C256.396 75.352 256.791 75.7486 256.791 76.2333ZM42.4283 78.877C42.4283 79.3617 42.8474 79.7582 43.3587 79.7582C43.87 79.7582 44.0448 79.3617 43.7461 78.877C43.4474 78.3923 43.0293 77.9958 42.8158 77.9958C42.6023 77.9958 42.4283 78.3923 42.4283 78.877ZM39.9711 83.1546C39.0407 83.7459 39.0469 84.0587 40.0018 84.8545C40.9094 85.6097 41.1729 85.444 41.1729 84.116C41.1729 83.1731 41.1589 82.4081 41.1422 82.4152C41.1246 82.4231 40.5975 82.7554 39.9711 83.1546ZM132.187 88.7742C131.529 89.4343 131.519 90.2397 132.151 91.425C132.651 92.3618 132.867 93.3223 132.629 93.5594C132.393 93.7964 131.939 93.1681 131.621 92.1617C130.914 89.9295 129.675 89.7868 129.13 91.8753C128.748 93.3444 128.723 93.3444 128.627 91.8753C128.571 91.0267 128.201 90.3332 127.804 90.3332C127.407 90.3332 127.204 93.6052 127.351 97.6034C127.499 101.602 127.756 109.038 127.922 114.127C128.263 124.56 130.146 129.548 133.74 129.548C134.446 129.548 135.35 130.907 135.792 132.633C136.226 134.329 137.141 136.343 137.824 137.109C138.508 137.874 139.08 139.063 139.095 139.752C139.124 141.005 141.703 144.995 141.703 143.786C141.703 143.433 142.494 143.57 143.46 144.089C145.369 145.114 145.815 147.267 144.229 147.797C143.565 148.019 143.47 149.131 143.938 151.176C144.613 154.121 144.657 154.149 145.279 152.02C146.32 148.447 146.179 143.644 144.997 142.451C144.117 141.561 144.206 141.458 145.446 141.932C146.666 142.397 146.867 142.191 146.395 140.958C145.966 139.837 146.11 139.588 146.901 140.078C147.509 140.455 147.803 141.541 147.555 142.492C147.307 143.443 147.756 144.984 148.552 145.918C150.065 147.689 151.888 148.292 150.904 146.694C150.592 146.188 150.785 145.232 151.333 144.569C151.882 143.907 152.009 143.165 151.615 142.921C151.221 142.677 150.949 140.659 151.009 138.437C151.07 136.213 150.78 134.395 150.364 134.395C149.163 134.395 149.484 127.543 150.708 127.047C151.494 126.729 151.51 126.583 150.763 126.534C150 126.483 149.835 124.042 150.148 117.46C150.384 112.508 150.297 108.738 149.954 109.081C149.017 110.022 146.974 107.97 146.974 106.088C146.974 105.177 146.358 104.433 145.604 104.433C144.852 104.433 144.44 104.1 144.691 103.693C144.941 103.287 144.371 101.502 143.423 99.7281C142.476 97.9541 141.701 96.3045 141.701 96.0621C141.702 95.8189 141.657 95.3227 141.602 94.9597C141.546 94.5966 141.447 93.7392 141.382 93.0553C141.272 91.9062 137.961 89.6264 134.562 88.3601C133.775 88.0666 132.707 88.2534 132.187 88.7742ZM66.162 98.7781C66.1699 104.07 66.4976 107.89 66.8903 107.269C67.5799 106.179 67.2364 90.2715 66.5073 89.525C66.3105 89.3232 66.155 93.4871 66.162 98.7781ZM250.166 97.4421C249.847 97.9585 249.775 98.571 250.005 98.8019C250.235 99.0328 250.658 98.6098 250.944 97.8616C251.538 96.3089 251.032 96.0357 250.166 97.4421ZM74.0556 102.671C74.0556 104.609 73.6603 106.196 73.1771 106.196C72.6939 106.196 72.2986 104.609 72.2986 102.671C72.2986 100.732 72.6939 99.1456 73.1771 99.1456C73.6603 99.1456 74.0556 100.732 74.0556 102.671ZM30.4644 102.276C30.764 103.06 30.6164 103.413 30.1192 103.105C29.6413 102.809 29.2503 102.194 29.2503 101.737C29.2503 100.47 29.8802 100.749 30.4644 102.276ZM254.359 105.314C254.359 107.011 254.54 107.705 254.761 106.856C254.982 106.008 254.982 104.621 254.761 103.772C254.54 102.923 254.359 103.618 254.359 105.314ZM29.6571 104.379C29.9373 104.835 29.3953 105.149 28.4517 105.078C27.5082 105.007 26.9301 104.634 27.1664 104.25C27.7506 103.302 29.0342 103.369 29.6571 104.379ZM90.8172 108.472C90.8594 109.498 91.0676 109.707 91.3478 109.005C91.6017 108.369 91.5701 107.608 91.2784 107.316C90.9868 107.023 90.7794 107.543 90.8172 108.472ZM254.155 109.617C254.155 110.101 254.551 110.743 255.034 111.042C255.517 111.342 255.913 111.19 255.913 110.706C255.913 110.221 255.517 109.579 255.034 109.28C254.551 108.98 254.155 109.132 254.155 109.617ZM10.433 114.79C9.47535 115.75 9.11251 114.494 9.71958 112.325L10.3258 110.161L10.6341 112.22C10.8046 113.352 10.7132 114.508 10.433 114.79ZM69.8343 113.686C69.8518 115.14 70.0486 115.628 70.2718 114.771C70.4949 113.913 70.48 112.724 70.2393 112.127C69.9986 111.531 69.8167 112.232 69.8343 113.686ZM88.7324 116.991C88.5225 118.082 88.3512 117.189 88.3512 115.008C88.3512 112.827 88.5225 111.934 88.7324 113.025C88.9415 114.116 88.9415 115.9 88.7324 116.991ZM77.4055 132.353C78.0389 132.608 78.7971 132.576 79.0888 132.284C79.3804 131.991 78.8621 131.783 77.9361 131.821C76.9126 131.863 76.7044 132.072 77.4055 132.353ZM6.40838 133.514C6.40838 133.999 6.01304 134.395 5.52984 134.395C5.04665 134.395 4.65131 133.999 4.65131 133.514C4.65131 133.029 5.04665 132.633 5.52984 132.633C6.01304 132.633 6.40838 133.029 6.40838 133.514ZM265.651 152.994C265.188 154.154 264.784 154.641 264.753 154.075C264.679 152.7 265.703 150.09 266.143 150.533C266.335 150.726 266.114 151.832 265.651 152.994ZM183.873 154.823C183.873 155.19 183.343 155.286 182.695 155.037C182.048 154.787 180.996 155.216 180.357 155.987C179.576 156.932 179.002 157.076 178.602 156.427C178.237 155.835 176.192 157.175 173.287 159.911C170.69 162.356 168.253 164.358 167.873 164.358C167.492 164.358 167.18 164.759 167.18 165.25C167.18 166.589 158.927 174.561 154.664 177.34C152.609 178.679 150.406 180.272 149.768 180.878C149.13 181.484 147.648 182.221 146.473 182.517C145.3 182.812 144.338 183.359 144.338 183.73C144.338 184.102 143.2 184.634 141.809 184.913C140.418 185.193 138.65 186.052 137.88 186.824C135.426 189.286 106.13 198.726 100.943 198.726C99.7414 198.726 98.5299 199.096 98.2514 199.549C97.972 200.002 96.2685 200.168 94.4658 199.917C92.6129 199.659 91.6281 199.781 92.2 200.195C92.7579 200.599 84.0604 200.91 72.8722 200.885C57.663 200.852 51.8665 200.539 49.8959 199.642C48.4463 198.982 46.9633 198.506 46.6014 198.584C46.2394 198.662 45.9425 198.306 45.9425 197.793C45.9425 197.28 45.5884 197.079 45.1562 197.347C44.7231 197.616 44.1274 197.201 43.8305 196.427C43.5344 195.652 42.7314 195.234 42.0462 195.498C41.3609 195.761 40.3146 195.391 39.7225 194.676C38.2465 192.892 35.357 193.456 32.9841 195.991C30.699 198.432 30.547 199.247 32.1969 200.224C32.8514 200.612 33.8055 201.722 34.3177 202.692C35.1787 204.32 38.966 206.673 42.648 207.866C43.494 208.14 44.2311 209.269 44.2873 210.375C44.3629 211.865 44.4929 211.987 44.7907 210.845C45.1386 209.51 45.36 209.472 46.4459 210.561C48.0123 212.132 48.007 212.391 46.3791 214.024C45.2045 215.203 45.2528 215.411 46.8184 215.909C47.7865 216.218 48.5781 217.222 48.5781 218.142C48.5781 219.062 49.3881 220.249 50.3773 220.78C51.3666 221.31 52.5429 222.713 52.991 223.895C53.439 225.077 54.3474 226.044 55.0107 226.044C55.6731 226.044 57.3863 226.63 58.8174 227.347C60.2494 228.063 62.3852 228.757 63.565 228.889C64.7449 229.021 65.9459 229.451 66.2349 229.845C66.5231 230.238 68.1044 230.589 69.7491 230.623C71.3928 230.657 73.4776 231.068 74.3816 231.537C75.5368 232.136 75.847 232.101 75.4279 231.42C75.0651 230.831 75.5623 230.451 76.6912 230.451C77.7147 230.451 78.3077 230.847 78.009 231.332C77.7103 231.817 77.8852 232.213 78.3965 232.213C78.9078 232.213 79.3268 231.826 79.3268 231.354C79.3268 230.863 80.4944 230.729 82.0512 231.041C83.911 231.415 85.0224 231.197 85.5521 230.358C86.2014 229.329 86.3349 229.344 86.3692 230.451C86.4017 231.461 86.7144 231.37 87.701 230.062C88.6261 228.835 88.9942 228.711 89.0039 229.621C89.0127 230.438 89.2481 230.552 89.6628 229.941C90.2462 229.083 107.716 226.302 109.502 226.782C109.911 226.892 113.794 226.329 118.129 225.53C123.68 224.506 126.552 223.52 127.837 222.196C128.84 221.162 129.349 220.867 128.967 221.54C128.402 222.534 128.915 222.649 131.692 222.157C135.966 221.401 143.388 219.181 145.473 218.037C146.338 217.561 147.425 217.407 147.889 217.695C148.352 217.982 148.731 217.894 148.731 217.499C148.731 216.772 150.104 216.117 157.854 213.148C160.214 212.243 162.334 210.81 162.568 209.962C162.802 209.114 163.365 208.42 163.821 208.42C164.276 208.42 164.404 208.816 164.106 209.301C163.807 209.786 163.982 210.182 164.493 210.182C165.004 210.182 165.423 209.595 165.423 208.877C165.423 207.446 169.163 206.149 170.644 207.067C171.155 207.383 171.573 207.024 171.573 206.269C171.573 205.513 171.968 204.895 172.452 204.895C172.935 204.895 173.33 205.34 173.33 205.883C173.33 206.571 173.73 206.54 174.638 205.784C175.358 205.185 175.78 204.423 175.575 204.092C174.782 202.806 176.801 201.087 179.446 200.797C181.37 200.585 182.026 200.803 181.591 201.508C181.201 202.142 181.352 202.284 181.994 201.885C182.56 201.534 182.796 200.879 182.517 200.428C181.66 199.035 183.102 197.483 183.981 198.852C184.564 199.761 185.7 198.989 188.703 195.648C190.878 193.227 192.658 190.749 192.658 190.14C192.658 189.53 193.021 189.032 193.465 189.032C193.909 189.032 195.59 187.633 197.199 185.922C200.218 182.713 201.218 179.339 199.149 179.339C198.322 179.339 198.123 178.586 198.479 176.802C198.776 175.313 198.568 174.006 197.975 173.639C197.217 173.169 197.221 172.704 197.994 171.77C198.802 170.792 198.737 170.526 197.69 170.526C196.958 170.526 195.088 169.337 193.536 167.882C191.985 166.428 190.353 165.239 189.909 165.239C189.466 165.239 189.751 164.247 190.542 163.036C191.421 161.691 191.6 160.833 191.002 160.833C190.463 160.833 190.022 160.195 190.022 159.416C190.022 158.556 189.533 158.189 188.777 158.48C187.354 159.027 186.326 157.047 187.05 155.154C187.387 154.274 186.971 153.924 185.705 154.02C184.698 154.095 183.873 154.458 183.873 154.823ZM262.941 160.34C262.941 160.554 262.545 160.974 262.062 161.273C261.579 161.573 261.184 161.397 261.184 160.885C261.184 160.372 261.579 159.951 262.062 159.951C262.545 159.951 262.941 160.126 262.941 160.34ZM259.866 161.714C259.567 162.198 259.94 162.595 260.693 162.595C262.441 162.595 262.486 165.131 260.75 165.799C260.028 166.078 259.633 166.624 259.874 167.014C260.495 168.022 259.409 170.526 258.351 170.526C257.864 170.526 257.666 169.754 257.912 168.81C258.202 167.698 257.851 166.959 256.917 166.71C255.891 166.436 256.019 166.294 257.356 166.222C259.616 166.1 260.829 163.623 258.978 162.91C257.613 162.384 258.025 160.833 259.53 160.833C260.014 160.833 260.165 161.229 259.866 161.714ZM257.596 172.685C256.556 173.767 254.616 171.917 255.421 170.612C255.828 169.951 256.369 169.994 257.203 170.755C257.934 171.422 258.088 172.174 257.596 172.685ZM254.713 175.382C254.407 176.182 254.685 176.436 255.518 176.115C256.219 175.845 256.791 176.129 256.791 176.748C256.791 177.365 256.515 177.593 256.178 177.255C255.84 176.916 255.033 177.544 254.384 178.65L253.204 180.661L253.773 178.568C254.134 177.244 254.015 176.678 253.448 177.03C252.939 177.345 252.68 176.918 252.847 176.038C253.01 175.188 253.185 173.699 253.237 172.729C253.325 171.069 253.384 171.059 254.256 172.563C254.764 173.44 254.971 174.709 254.713 175.382ZM19.4827 179.118C19.4248 179.482 19.4669 180.176 19.575 180.661C19.6831 181.145 19.8289 184.218 19.8983 187.49C20.0327 193.787 18.931 195.242 17.0923 191.194C15.8781 188.522 15.7709 186.389 16.8515 186.389C17.8873 186.389 18.6227 181.152 17.6686 180.561C17.2583 180.306 17.1494 179.729 17.4279 179.278C18.0305 178.3 19.6312 178.175 19.4827 179.118ZM252.13 183.745C251.582 185.199 250.816 186.389 250.426 186.389C250.037 186.389 250.331 185.199 251.081 183.745C251.83 182.291 252.597 181.101 252.784 181.101C252.971 181.101 252.677 182.291 252.13 183.745ZM177.651 188.292C176.687 190.188 175.563 191.531 175.153 191.276C174.743 191.022 173.923 191.4 173.33 192.117C172.737 192.833 171.931 193.219 171.537 192.975C171.143 192.732 170.582 193.288 170.29 194.212C169.74 195.949 166.302 197.451 166.302 195.954C166.302 195.49 165.314 196.18 164.106 197.488C162.898 198.795 161.909 199.593 161.909 199.261C161.909 198.929 161.045 199.465 159.989 200.452C158.932 201.439 156.066 203.007 153.619 203.935C151.173 204.864 146.409 206.814 143.036 208.268C137.201 210.783 134.888 211.093 136.052 209.204C136.342 208.733 137.337 208.589 138.263 208.884C139.203 209.184 139.946 209.005 139.946 208.479C139.946 207.961 140.76 207.538 141.755 207.538C142.749 207.538 143.352 207.195 143.094 206.775C142.499 205.811 145.902 202.645 146.687 203.431C147.006 203.752 146.805 204.013 146.242 204.013C145.678 204.013 145.217 204.424 145.217 204.926C145.217 205.54 145.799 205.526 146.999 204.881C148.009 204.339 148.524 203.467 148.187 202.868C147.767 202.117 147.938 202.129 148.778 202.912C150.444 204.463 151.809 204.287 150.488 202.692C149.673 201.706 149.659 201.37 150.433 201.37C151.003 201.37 151.226 200.973 150.928 200.488C150.629 200.004 151.1 199.605 151.974 199.602C152.848 199.598 154.696 199.004 156.079 198.28C157.464 197.556 159.539 196.963 160.692 196.963C161.844 196.963 163.546 196.203 164.472 195.274C165.398 194.345 166.375 193.806 166.644 194.075C166.912 194.344 167.527 193.518 168.012 192.239C168.605 190.678 169.551 189.907 170.892 189.894C171.991 189.884 173.879 189.093 175.087 188.138C176.816 186.771 177.03 186.236 176.091 185.624C175.237 185.066 175.535 184.846 177.152 184.846H179.403L177.651 188.292ZM224.944 191.235C224.944 192.518 224.439 193.439 223.736 193.439C222.248 193.439 222.229 193.014 223.618 190.782C224.978 188.599 224.944 188.587 224.944 191.235ZM1.71875 204.234C1.4754 204.84 1.27597 204.344 1.27597 203.132C1.27597 201.92 1.4754 201.425 1.71875 202.031C1.96299 202.637 1.96299 203.628 1.71875 204.234ZM63.2751 201.902C62.9834 202.195 62.2253 202.226 61.5918 201.972C60.8908 201.69 61.099 201.482 62.1225 201.439C63.0485 201.401 63.5668 201.609 63.2751 201.902ZM245.711 205.363C244.909 206.589 244.413 207.753 244.608 207.95C244.804 208.146 245.63 207.142 246.444 205.719C248.257 202.551 247.718 202.289 245.711 205.363ZM203.2 204.895C202.409 205.408 202.3 205.754 202.929 205.763C203.504 205.77 204.219 205.379 204.518 204.895C205.192 203.8 204.888 203.8 203.2 204.895ZM41.1105 210.182C41.4092 210.667 41.8274 211.063 42.0409 211.063C42.2544 211.063 42.4283 210.667 42.4283 210.182C42.4283 209.697 42.0093 209.301 41.498 209.301C40.9867 209.301 40.8118 209.697 41.1105 210.182ZM233.084 213.679C233.095 214.773 233.241 214.802 233.853 213.833C234.268 213.176 234.819 212.979 235.076 213.397C235.534 214.142 232.825 218.113 231.859 218.113C231.589 218.113 231.596 217.419 231.873 216.571C232.151 215.723 231.579 216.176 230.604 217.578C229.628 218.98 229.03 220.765 229.276 221.544C229.585 222.526 229.485 222.632 228.949 221.891C228.406 221.141 227.083 222.311 224.505 225.824C222.486 228.575 221.155 231.039 221.549 231.299C221.942 231.559 220.976 233.082 219.401 234.682C217.673 236.439 216.311 237.222 215.963 236.657C215.234 235.475 216.226 232.213 217.316 232.213C217.766 232.213 218.135 231.893 218.135 231.502C218.135 231.112 219.915 228.875 222.089 226.534C224.263 224.191 226.042 221.537 226.042 220.635C226.042 219.733 226.551 218.995 227.172 218.995C228.203 218.995 228.541 217.797 228.724 213.501C228.808 211.529 233.064 211.702 233.084 213.679ZM166.068 213.821C165.222 214.296 164.139 214.44 163.659 214.143C163.18 213.846 162.788 214.222 162.788 214.977C162.788 216.689 164.552 216.744 166.791 215.101C168.829 213.607 168.257 212.592 166.068 213.821ZM6.51029 217.041C6.00513 217.988 5.77232 219.017 5.99283 219.327C6.21334 219.637 5.96911 219.537 5.45077 219.106C4.78572 218.552 4.84283 217.783 5.64405 216.494C7.05322 214.231 7.76835 214.683 6.51029 217.041ZM156.528 216.509C155.673 217.102 155.898 217.184 157.297 216.79C158.459 216.462 159.274 216.62 159.274 217.173C159.274 217.69 159.867 218.113 160.591 218.113C161.316 218.113 161.909 217.618 161.908 217.012C161.907 215.682 158.216 215.336 156.528 216.509ZM149.921 218.523C148.91 219.232 147.843 219.573 147.55 219.278C147.256 218.983 146.767 219.392 146.464 220.185C146.16 220.979 145.585 221.426 145.185 221.178C144.787 220.931 144.212 221.132 143.908 221.624C143.605 222.117 143.696 222.52 144.112 222.52C145.426 222.52 149.596 220.345 149.603 219.655C149.606 219.292 150.203 218.995 150.928 218.995C151.652 218.995 152.245 218.598 152.245 218.113C152.245 216.967 152.099 216.992 149.921 218.523ZM154.02 218.575C155.341 220.172 155.709 219.853 149.17 222.774C146.271 224.07 144.492 225.128 145.217 225.127C146.746 225.124 153.798 222.024 155.5 220.607C156.374 219.879 156.415 219.345 155.663 218.437C155.115 217.774 154.27 217.232 153.787 217.232C153.303 217.232 153.408 217.836 154.02 218.575ZM136.871 219.876C136.572 220.36 135.066 220.751 133.525 220.744C131.391 220.733 131.037 220.526 132.039 219.876C133.781 218.746 137.567 218.746 136.871 219.876ZM133.796 223.401C133.005 223.914 132.896 224.26 133.525 224.269C134.1 224.276 134.815 223.885 135.114 223.401C135.788 222.306 135.484 222.306 133.796 223.401ZM129.172 224.62C129.475 225.112 129.036 225.211 128.118 224.857C127.253 224.524 126.101 224.62 125.558 225.069C125.015 225.518 123.188 226.311 121.497 226.832C118.683 227.699 118.834 227.739 123.254 227.312C125.911 227.054 128.844 226.73 129.77 226.592C131.934 226.267 132.351 223.779 130.241 223.779C129.368 223.779 128.888 224.158 129.172 224.62ZM202.348 225.114C201.362 226.961 199.686 228.317 199.686 227.268C199.686 226.587 202.359 223.401 202.928 223.401C203.112 223.401 202.851 224.172 202.348 225.114ZM50.8491 227.686C50.0022 229.06 56.0746 233.697 60.766 235.261C64.9909 236.668 65.5953 236.679 68.1738 235.404L70.9808 234.016L68.5648 233.996C67.2364 233.984 66.1488 233.591 66.1488 233.122C66.1488 232.653 65.6331 232.467 65.0023 232.71C64.3715 232.953 61.1289 231.751 57.7966 230.038C50.908 226.5 51.4641 226.689 50.8491 227.686ZM189.276 230.891C189.276 231.351 188.85 231.87 188.331 232.044C187.812 232.218 187.387 231.699 187.387 230.891C187.387 230.083 187.812 229.565 188.331 229.739C188.85 229.912 189.276 230.431 189.276 230.891ZM197.49 230.451C197.191 230.935 196.575 231.332 196.12 231.332C195.665 231.332 195.294 230.935 195.294 230.451C195.294 229.966 195.91 229.569 196.663 229.569C197.416 229.569 197.789 229.966 197.49 230.451ZM194.817 232.152C195.095 232.604 194.92 233.221 194.429 233.526C193.938 233.83 193.536 233.461 193.536 232.706C193.536 231.157 194.064 230.93 194.817 232.152ZM224.725 233.976C223.844 234.951 222.927 235.55 222.685 235.308C222.444 235.066 222.966 234.07 223.846 233.094C224.726 232.119 225.643 231.52 225.885 231.762C226.127 232.004 225.605 233 224.725 233.976ZM192.658 233.023C192.658 234.805 183.634 243.67 181.808 243.683C180.236 243.694 180.141 243.852 181.237 244.622C182.253 245.336 182.077 245.412 180.468 244.954C178.904 244.51 178.555 244.643 179.075 245.487C179.575 246.299 179.338 246.447 178.228 246.02C176.502 245.355 172.118 248.286 173.14 249.422C173.487 249.806 173.211 249.796 172.528 249.398C171.551 248.829 171.881 248.142 174.08 246.172C175.615 244.796 177.656 243.669 178.615 243.669C179.574 243.669 180.26 243.223 180.139 242.678C180.018 242.132 180.512 241.508 181.237 241.289C182.408 240.936 182.408 240.996 181.237 241.827C179.671 242.938 181.146 243.098 182.868 242.004C183.661 241.5 183.747 241.052 183.126 240.667C182.03 239.987 182.774 237.501 184.074 237.501C184.589 237.501 184.503 238.06 183.873 238.822C182.426 240.571 183.369 240.523 185.128 238.759C186.001 237.884 186.34 236.504 186.05 235.014C185.622 232.822 185.652 232.795 186.46 234.637C187.607 237.251 189.498 237.153 190.741 234.416C191.751 232.191 192.658 231.533 192.658 233.023ZM207.593 247.194C205.902 248.622 204.825 249.801 205.2 249.814C205.574 249.827 205.246 251.072 204.468 252.579C203.597 254.27 203.463 255.066 204.12 254.659C204.804 254.235 205.037 254.437 204.77 255.223C204.542 255.897 203.537 256.329 202.538 256.185C201.538 256.04 200.46 256.344 200.142 256.86C199.825 257.376 199.155 257.544 198.653 257.233C198.061 256.866 197.963 257.372 198.375 258.673C198.878 260.261 198.728 260.571 197.658 260.159C196.795 259.827 195.735 260.498 194.736 262.008C192.459 265.446 192.395 266.784 194.563 265.621C195.549 265.091 196.1 264.139 195.829 263.43C195.514 262.607 196.367 261.749 198.306 260.936C199.933 260.254 201.673 258.966 202.173 258.072C203.027 256.545 203.118 256.54 203.675 257.99C204.393 259.86 205.543 259.952 207.216 258.272C209.093 256.39 208.732 255.497 206.801 257.249C205.82 258.14 204.913 258.41 204.6 257.902C204.307 257.427 204.367 256.906 204.733 256.743C205.098 256.58 206.097 255.183 206.952 253.637C208.38 251.057 208.391 250.762 207.076 250.023C205.757 249.283 205.76 249.174 207.103 248.657C207.906 248.349 208.349 248.443 208.088 248.867C207.826 249.292 208.166 250.099 208.842 250.662C209.699 251.375 210.248 251.401 210.65 250.747C210.968 250.232 211.696 250.09 212.266 250.434C212.857 250.789 212.784 250.416 212.098 249.567C210.731 247.877 209.801 247.549 210.751 249.093C211.133 249.711 210.994 249.871 210.398 249.502C209.732 249.09 209.681 248.198 210.24 246.723C211.253 244.051 211.333 244.036 207.593 247.194ZM182.55 258.656C181.673 259.629 180.751 260.219 180.501 259.969C180.251 259.719 180.809 258.935 181.74 258.228C184.116 256.426 184.418 256.586 182.55 258.656ZM191.762 258.231C191.15 258.969 190.47 259.392 190.248 259.171C189.639 258.56 190.877 256.888 191.938 256.888C192.522 256.888 192.455 257.394 191.762 258.231ZM189.144 260.746C189.144 260.928 188.452 261.623 187.606 262.288C186.213 263.384 186.182 263.353 187.274 261.955C188.423 260.487 189.144 260.021 189.144 260.746ZM184.513 265.351C184.221 265.644 183.463 265.676 182.83 265.421C182.129 265.14 182.337 264.931 183.36 264.889C184.286 264.851 184.805 265.059 184.513 265.351ZM189.777 267.805C190.153 268.182 190.066 268.37 189.583 268.222C188.466 267.879 183.793 270.91 182.285 272.956C181.654 273.812 180.615 274.513 179.977 274.513C179.338 274.513 178.36 275.064 177.802 275.739C176.226 277.645 173.33 278.129 173.33 276.487C173.33 275.724 173.577 275.347 173.878 275.65C174.179 275.952 175.699 275.225 177.255 274.034C178.811 272.844 180.34 271.869 180.651 271.869C180.962 271.869 182.025 271.175 183.013 270.327C184 269.479 185.29 268.767 185.877 268.745C186.466 268.723 186.861 268.264 186.755 267.725C186.544 266.652 188.684 266.709 189.777 267.805ZM194.303 269.005C193.188 270.432 193.229 270.45 194.854 269.254C195.821 268.543 196.777 267.85 196.978 267.712C197.179 267.575 196.93 267.463 196.426 267.463C195.922 267.463 194.966 268.157 194.303 269.005ZM187.826 276.275C187.527 276.76 187.702 277.157 188.213 277.157C188.725 277.157 189.144 276.76 189.144 276.275C189.144 275.791 188.97 275.394 188.756 275.394C188.543 275.394 188.125 275.791 187.826 276.275ZM136.871 283.325C136.572 283.81 135.537 284.206 134.571 284.206C133.605 284.206 133.058 283.81 133.357 283.325C133.655 282.841 134.69 282.444 135.657 282.444C136.623 282.444 137.17 282.841 136.871 283.325ZM131.281 287.545C130.646 287.756 129.711 287.511 129.2 286.998C128.548 286.344 128.891 286.23 130.352 286.613C131.54 286.925 131.939 287.324 131.281 287.545ZM135.773 286.552C135.169 286.797 134.181 286.797 133.576 286.552C132.973 286.308 133.467 286.108 134.675 286.108C135.883 286.108 136.377 286.308 135.773 286.552ZM122.375 288.613C123.511 289.349 123.487 289.468 122.207 289.481C121.39 289.488 120.477 289.097 120.179 288.613C119.492 287.497 120.655 287.497 122.375 288.613ZM170.695 288.613C169.903 289.126 169.794 289.472 170.423 289.481C170.999 289.488 171.714 289.097 172.012 288.613C172.686 287.518 172.382 287.518 170.695 288.613ZM122.155 289.9C126.318 289.938 127.226 290.985 123.473 291.419C121.736 291.619 121.057 292.192 121.057 293.46C121.057 294.937 120.383 295.265 116.884 295.491C114.589 295.638 112.711 296.064 112.711 296.435C112.711 296.806 110.834 297.061 108.538 297.002C106.243 296.942 103.876 297.256 103.277 297.699C102.556 298.233 102.018 298.055 101.679 297.17C101.398 296.437 100.504 295.965 99.6922 296.123C98.8795 296.28 97.8956 296.439 97.5046 296.476C97.1137 296.514 97.0733 297.04 97.4141 297.645C97.8183 298.364 97.741 298.44 97.1936 297.866C96.7306 297.381 95.8978 295.909 95.3417 294.595C94.363 292.281 94.3964 292.237 96.4372 293.17C97.5951 293.698 99.2599 293.824 100.136 293.449C102.77 292.321 106.561 292.206 106.561 293.256C106.561 293.795 107.187 293.467 107.951 292.526C109.137 291.066 109.27 291.041 108.857 292.358C108.591 293.206 108.757 293.9 109.224 293.9C109.693 293.9 110.076 293.186 110.076 292.315C110.076 291.015 110.669 290.785 113.37 291.038C116.55 291.337 116.604 291.296 114.908 289.876C113.208 288.451 113.237 288.428 115.786 289.135C117.236 289.537 120.101 289.882 122.155 289.9ZM59.667 291.43C59.9068 291.82 60.8372 292.138 61.735 292.138C62.632 292.138 63.4983 292.486 63.6599 292.911C63.8207 293.337 65.3362 293.934 67.0273 294.236C69.9239 294.753 69.9748 294.722 67.9059 293.706C66.6979 293.112 65.4662 292.283 65.1692 291.862C64.4875 290.896 59.0757 290.471 59.667 291.43ZM102.388 290.959C101.785 291.204 100.797 291.204 100.192 290.959C99.5885 290.714 100.082 290.514 101.29 290.514C102.498 290.514 102.993 290.714 102.388 290.959ZM117.543 293.019C115.867 293.742 115.877 293.779 117.763 293.838C118.85 293.872 119.739 293.504 119.739 293.019C119.739 292.534 119.64 292.166 119.52 292.199C119.399 292.234 118.51 292.602 117.543 293.019ZM111.668 293.621C112.302 293.875 113.06 293.844 113.352 293.551C113.643 293.259 113.125 293.051 112.199 293.089C111.176 293.131 110.967 293.34 111.668 293.621ZM132.039 293.9C132.039 294.385 131.644 294.781 131.16 294.781C130.677 294.781 130.282 294.385 130.282 293.9C130.282 293.415 130.677 293.019 131.16 293.019C131.644 293.019 132.039 293.415 132.039 293.9ZM94.2619 294.781C94.2619 295.266 93.8666 295.663 93.3834 295.663C92.9002 295.663 92.5049 295.266 92.5049 294.781C92.5049 294.297 92.9002 293.9 93.3834 293.9C93.8666 293.9 94.2619 294.297 94.2619 294.781ZM93.3834 297.814C93.3834 298.028 92.9881 298.447 92.5049 298.747C92.0217 299.047 91.6263 298.871 91.6263 298.358C91.6263 297.845 92.0217 297.425 92.5049 297.425C92.9881 297.425 93.3834 297.6 93.3834 297.814ZM116.876 299.546C117.163 299.834 115.529 300.069 113.245 300.069C110.93 300.069 109.315 299.708 109.595 299.255C110.119 298.404 115.971 298.639 116.876 299.546ZM122.263 300.73C121.171 302.127 121.201 302.158 122.595 301.063C124.058 299.911 124.523 299.188 123.8 299.188C123.618 299.188 122.926 299.882 122.263 300.73ZM148.343 299.987C148.071 300.426 148.642 300.578 149.609 300.324C151.66 299.786 151.919 299.188 150.101 299.188C149.404 299.188 148.613 299.547 148.343 299.987ZM138.628 303.185C136.622 304.107 136.412 304.397 137.749 304.404C138.716 304.409 140.495 303.846 141.703 303.153C144.493 301.553 142.127 301.578 138.628 303.185ZM83.3892 304.298C83.0984 304.77 83.7459 305.394 84.8274 305.685C87.8952 306.509 91.6263 306.329 91.6263 305.356C91.6263 304.872 90.7373 304.47 89.6496 304.463C88.562 304.457 86.8278 304.224 85.7955 303.945C84.7624 303.668 83.68 303.826 83.3892 304.298ZM129.403 305.356C128.612 305.869 128.503 306.215 129.132 306.224C129.707 306.231 130.422 305.841 130.721 305.356C131.395 304.262 131.091 304.262 129.403 305.356ZM132.529 305.274C132.258 305.713 132.828 305.866 133.795 305.612C135.847 305.073 136.106 304.475 134.287 304.475C133.59 304.475 132.8 304.835 132.529 305.274ZM125.011 306.238C126.731 307.353 127.894 307.353 127.207 306.238C126.908 305.753 125.996 305.362 125.178 305.37C123.898 305.382 123.875 305.502 125.011 306.238ZM120.179 307.119C120.477 307.603 121.117 308 121.6 308C122.083 308 122.235 307.603 121.936 307.119C121.637 306.634 120.998 306.238 120.514 306.238C120.031 306.238 119.88 306.634 120.179 307.119ZM106.352 307.742C107.445 307.952 109.027 307.944 109.866 307.724C110.706 307.504 109.812 307.331 107.879 307.341C105.946 307.351 105.259 307.531 106.352 307.742Z" fill="white"/>
</svg>
