<svg width="51" height="49" viewBox="0 0 51 49" fill="none" xmlns="http://www.w3.org/2000/svg">
<path fill-rule="evenodd" clip-rule="evenodd" d="M23.1449 18.5366C18.3179 14.5688 14.4067 9.84361 11.4675 4.33839C10.8797 3.24187 9.51194 2.8236 8.40412 3.41142C7.30759 3.99925 6.88926 5.3671 7.47708 6.47493C10.7101 12.5001 14.9832 17.6775 20.2737 22.0297C21.2345 22.821 22.6701 22.6854 23.4614 21.7245C24.2528 20.7523 24.1058 19.328 23.1449 18.5366Z" fill="white"/>
<path fill-rule="evenodd" clip-rule="evenodd" d="M20.571 3.08365C20.8197 7.65061 21.0458 12.2176 21.3284 16.7845C21.4075 18.028 22.4814 18.9776 23.7249 18.8984C24.9684 18.8193 25.918 17.7454 25.8388 16.5019C25.5562 11.9463 25.3301 7.39063 25.0814 2.82367C25.0136 1.58358 23.9397 0.628361 22.6962 0.698448C21.4527 0.768535 20.4918 1.83678 20.571 3.08365Z" fill="white"/>
<path fill-rule="evenodd" clip-rule="evenodd" d="M37.3534 4.01055C34.4595 8.37403 31.1813 12.3983 27.8805 16.4679C27.0892 17.4401 27.236 18.8645 28.2082 19.6445C29.1804 20.4358 30.6048 20.2888 31.3848 19.3166C34.7761 15.1453 38.1448 10.9966 41.1291 6.50877C41.8187 5.46877 41.5247 4.06708 40.4847 3.37751C39.456 2.68795 38.0429 2.97055 37.3534 4.01055Z" fill="white"/>
<path fill-rule="evenodd" clip-rule="evenodd" d="M48.5635 20.2324C40.7183 20.5828 32.387 20.5941 24.5417 20.0967C23.2983 20.0289 22.2244 20.9672 22.1452 22.2219C22.0661 23.4654 23.0157 24.5393 24.2591 24.6185C32.2626 25.1158 40.7635 25.1045 48.767 24.7541C50.0105 24.6976 50.9826 23.635 50.9261 22.3915C50.8695 21.1481 49.807 20.1758 48.5635 20.2324Z" fill="white"/>
<path fill-rule="evenodd" clip-rule="evenodd" d="M20.2678 21.6678C25.106 27.5912 30.1139 33.4017 34.6018 39.5965C35.3365 40.6026 36.7496 40.8286 37.767 40.0938C38.7731 39.359 38.9991 37.946 38.2644 36.9399C33.72 30.6773 28.6557 24.799 23.7609 18.8077C22.9696 17.8468 21.5452 17.6999 20.5843 18.4912C19.6122 19.2825 19.4765 20.7069 20.2678 21.6678Z" fill="white"/>
<path fill-rule="evenodd" clip-rule="evenodd" d="M21.7328 23.3868C22.9989 29.559 23.3494 35.4598 23.4398 41.7112C23.4511 42.9546 24.4798 43.9494 25.7233 43.9381C26.9781 43.9155 27.9728 42.898 27.9502 41.6433C27.8598 35.098 27.4868 28.9372 26.1642 22.4711C25.9042 21.2503 24.7172 20.4589 23.485 20.7189C22.2642 20.9676 21.4728 22.1659 21.7328 23.3868Z" fill="white"/>
<path fill-rule="evenodd" clip-rule="evenodd" d="M21.9369 22.8895C18.2743 30.2147 16.3865 38.3539 12.4639 45.5208C11.8647 46.606 12.2716 47.9851 13.3681 48.5843C14.4647 49.1834 15.8326 48.7764 16.4317 47.6912C20.3769 40.479 22.2873 32.2947 25.9838 24.9129C26.5377 23.7938 26.0855 22.4373 24.9777 21.8721C23.8586 21.3182 22.5021 21.7704 21.9369 22.8895Z" fill="white"/>
<path fill-rule="evenodd" clip-rule="evenodd" d="M23.9526 21.2273C16.6613 22.5159 9.38132 23.1038 2.0448 23.9742C0.801317 24.1212 -0.0804221 25.2403 0.0665344 26.4838C0.213491 27.7273 1.33273 28.609 2.5762 28.4621C9.99186 27.5916 17.3623 26.9812 24.744 25.6812C25.9649 25.4551 26.7901 24.2794 26.5753 23.0585C26.3492 21.8264 25.1848 21.0012 23.9526 21.2273Z" fill="white"/>
<path fill-rule="evenodd" clip-rule="evenodd" d="M29.0261 17.7912C27.5227 17.7234 26.0983 17.6216 24.6287 17.4069C23.3853 17.226 22.2435 18.0851 22.0626 19.3173C21.8818 20.5495 22.7408 21.7025 23.973 21.8834C25.6008 22.1208 27.1722 22.2338 28.8226 22.3017C30.0661 22.3582 31.1286 21.3973 31.1739 20.1425C31.2304 18.899 30.2696 17.8478 29.0261 17.7912Z" fill="white"/>
</svg>
