<svg width="209" height="144" viewBox="0 0 209 144" fill="none" xmlns="http://www.w3.org/2000/svg">
<path fill-rule="evenodd" clip-rule="evenodd" d="M98.5537 0.921186C95.9864 1.24458 93.1221 1.60543 92.1885 1.72346C91.2549 1.84148 90.4915 1.96539 90.4919 1.99816C90.4928 2.07006 88.631 2.42009 87.7358 2.51677C87.3857 2.55449 87.0053 2.71856 86.8905 2.88176C86.7131 3.13343 81.0832 4.85521 78.9066 5.32293C78.5239 5.40532 76.3063 6.11657 73.9788 6.90414C71.6512 7.6917 69.1762 8.41266 68.4791 8.5072C67.7815 8.60133 66.852 8.7976 66.4127 8.94329C65.8311 9.13634 65.6928 9.05047 65.9036 8.62729C66.0632 8.30775 65.9235 8.38488 65.5934 8.79854C64.9577 9.59574 64.2211 9.85634 64.6567 9.12981C64.9821 8.58684 64.4194 8.59411 63.5943 9.14353C63.0325 9.51762 63.0331 9.56571 63.5999 9.57924C64.2581 9.59457 62.4355 10.516 60.6165 11.0872C59.6128 11.4028 59.608 11.3935 60.427 10.7314C60.8897 10.3577 61.1348 10.0473 60.9715 10.0422C60.8078 10.0366 60.1683 10.5143 59.5503 11.1027C58.9318 11.6916 58.2502 12.0677 58.0347 11.9381C57.558 11.6515 53.8743 13.1741 53.8784 13.6562C53.88 13.8455 53.7016 13.8925 53.4823 13.7609C53.263 13.6288 52.9782 13.6967 52.8493 13.9116C52.7207 14.1265 51.141 15.0282 49.3393 15.9154C47.5375 16.803 45.3997 17.9673 44.5885 18.5029C40.8477 20.9739 39.7146 21.6665 39.3643 21.697C39.1567 21.7154 38.8723 21.9059 38.7323 22.1205C38.5918 22.3355 37.6705 22.9734 36.684 23.5385C35.6976 24.1032 34.8938 24.7941 34.8974 25.0736C34.9011 25.3528 34.584 25.8484 34.1925 26.1747C33.706 26.5802 33.58 26.598 33.7941 26.2305C34.4345 25.1315 32.2174 26.01 31.1964 27.2595C30.6336 27.9489 30.3248 28.227 30.5099 27.8778C30.6987 27.5225 30.3214 27.6678 29.6534 28.208C28.9972 28.7391 28.2425 29.1761 27.9769 29.1795C27.7109 29.1829 26.8038 29.7704 25.9604 30.4848C24.6465 31.598 24.2656 31.7247 23.2992 31.3711C22.6787 31.1443 22.2762 30.783 22.4047 30.5686C22.5333 30.3542 22.2093 30.2813 21.6843 30.4068C19.7678 30.8644 18.1537 31.8385 16.5267 33.5205C15.6115 34.466 14.7347 35.1629 14.5784 35.0692C14.1256 34.7971 13.2608 36.0948 13.5702 36.5814C13.7242 36.8237 13.6788 37.0243 13.4693 37.027C13.2602 37.0297 12.1869 38.3786 11.0844 40.0244C9.98229 41.6703 8.88542 42.8994 8.64725 42.7561C8.40051 42.6078 8.34694 42.7055 8.52351 42.9828C8.69359 43.2509 8.66118 43.4726 8.45082 43.4753C8.24088 43.478 7.82951 44.2396 7.53674 45.1672C7.24439 46.0949 6.77382 46.9462 6.49093 47.0592C5.97885 47.2637 5.28097 49.6354 5.43679 50.6424C5.48222 50.9346 5.34592 51.1756 5.13386 51.1783C4.92222 51.181 4.80585 51.6481 4.87567 52.2166C4.97068 52.9908 4.83979 53.1899 4.35335 53.0102C3.84256 52.8215 3.7723 52.976 4.02395 53.7349C4.23138 54.3608 4.18736 54.6057 3.89865 54.4324C3.65405 54.2853 3.33668 54.3613 3.19272 54.6011C3.04917 54.8408 3.17068 55.0337 3.46263 55.03C3.81068 55.0255 3.76332 55.2095 3.32543 55.5637C2.95779 55.8612 2.36524 57.3711 2.00909 58.9197C0.61057 64.9965 0.501194 69.8557 1.62664 75.9063C2.24785 79.2474 5.42934 87.052 7.45323 90.2002C8.26348 91.4604 8.86164 92.8528 8.78234 93.2947C8.70346 93.7362 8.77034 94.0771 8.93068 94.052C9.74342 93.9258 9.91436 94.1619 9.43703 94.7528C8.994 95.3015 9.02283 95.362 9.61483 95.1254C10.3853 94.818 10.2042 93.6994 9.14229 92.2049C8.81718 91.7478 8.5561 91.0809 8.5621 90.7229C8.56811 90.3653 8.82503 90.6442 9.13285 91.3424C9.44067 92.0406 9.86984 92.5908 10.0859 92.5655C10.3019 92.5401 10.4204 92.8948 10.3489 93.3536C10.2684 93.8671 10.394 94.0761 10.6747 93.8971C10.9252 93.7377 11.133 93.8035 11.1361 94.0444C11.1392 94.2848 11.4752 94.3694 11.8823 94.2322C12.4863 94.0291 12.5101 94.0654 12.0115 94.4288C11.6751 94.6736 11.2498 94.7842 11.0665 94.6738C10.8831 94.5639 11.0665 95.0377 11.4736 95.727C11.8808 96.4166 12.4085 96.8605 12.6467 96.714C12.885 96.5675 12.8356 96.7575 12.5366 97.1367C12.1184 97.6681 12.112 97.8967 12.5091 98.1355C12.8574 98.345 12.9108 98.2665 12.6734 97.8929C12.4344 97.5164 12.4891 97.4408 12.8463 97.6553C13.1342 97.8282 13.2672 98.2491 13.1415 98.5903C13.0154 98.9315 13.0949 99.0948 13.3171 98.9532C13.6977 98.7108 15.5163 100.376 15.3739 100.837C15.3376 100.954 16.9432 102.549 18.942 104.38C20.9408 106.211 23.2951 108.416 24.1733 109.279C25.0519 110.142 26.1878 110.975 26.6973 111.129C27.3924 111.34 27.4845 111.5 27.0659 111.766C26.7156 111.99 26.302 111.859 25.9559 111.415C25.5902 110.946 25.4025 110.892 25.3983 111.255C25.3934 111.67 25.1851 111.695 24.5359 111.358C23.9557 111.056 23.6819 111.055 23.6858 111.354C23.6889 111.596 23.9783 111.79 24.3289 111.786C24.6795 111.781 24.9695 112.022 24.9734 112.319C24.9772 112.617 25.7021 113.221 26.5846 113.66C27.4667 114.1 28.5148 114.724 28.9134 115.045C29.6805 115.665 30.5429 115.401 30.5214 114.553C30.5122 114.208 30.3964 114.229 30.1562 114.619C29.8752 115.075 29.7474 115.049 29.5233 114.486C29.1337 113.507 29.1461 113.483 29.9845 113.633C30.3948 113.706 30.885 113.778 31.0743 113.794C31.2636 113.81 31.2833 114.048 31.1177 114.324C30.9188 114.656 31.0423 114.736 31.4808 114.561C31.8711 114.405 32.4723 114.656 32.9397 115.17C33.7218 116.03 33.7194 116.036 32.8003 115.569C31.5942 114.955 31.5247 114.965 31.2171 115.8C31.0208 116.333 31.0874 116.392 31.4948 116.044C32.2049 115.439 33.5495 116.377 33.6531 117.551C33.6949 118.026 33.8553 118.334 34.0092 118.236C34.1631 118.139 34.2117 117.433 34.1173 116.669C34.0129 115.822 34.0864 115.493 34.3058 115.828C34.5035 116.129 35.074 116.402 35.5734 116.433C36.0728 116.464 36.5787 116.735 36.6986 117.035C36.9534 117.676 36.2667 117.787 35.8745 117.169C35.727 116.937 35.2831 116.759 34.888 116.774C34.4627 116.79 34.7812 117.126 35.6675 117.597C37.325 118.478 37.9832 118.625 37.604 118.027C37.4665 117.811 37.5472 117.512 37.7828 117.362C38.0185 117.212 38.214 117.312 38.2176 117.585C38.2212 117.863 38.5187 117.964 38.8938 117.814C39.3226 117.643 39.4955 117.739 39.3754 118.081C39.2717 118.375 38.9571 118.566 38.6762 118.505C38.3949 118.445 38.274 118.567 38.4077 118.777C38.8814 119.523 40.9864 119.603 41.7437 118.905C42.1495 118.53 42.6096 118.349 42.7658 118.501C42.9221 118.654 42.8268 118.782 42.5544 118.785C42.2816 118.789 42.0626 119.109 42.0676 119.496C42.0758 120.128 42.1624 120.12 42.9192 119.416C43.3829 118.985 43.89 118.758 44.0462 118.91C44.2025 119.063 44.0962 119.191 43.8098 119.194C43.5233 119.198 43.4115 119.394 43.5612 119.63C43.7113 119.866 44.0137 119.945 44.2333 119.805C45.0807 119.265 46.6989 119.173 47 119.648C47.2135 119.984 47.0852 120.06 46.6052 119.882C46.1828 119.726 45.8947 119.83 45.8949 120.138C45.8948 120.466 45.7404 120.424 45.4747 120.024C45.1262 119.499 45.054 119.536 45.0525 120.242C45.051 120.948 44.9788 120.985 44.6303 120.461C44.3992 120.112 44.2094 119.995 44.2082 120.199C44.2075 120.403 43.9167 120.336 43.5624 120.049C43.1934 119.75 42.9205 119.712 42.9236 119.958C42.9324 120.637 46.4621 122.068 48.8226 122.351C50.4011 122.539 50.9106 122.763 50.7505 123.198C50.6191 123.555 50.8133 123.785 51.2408 123.78C51.6301 123.775 51.8291 123.582 51.6825 123.351C51.528 123.108 51.8764 122.964 52.5128 123.009C53.2058 123.057 53.5352 123.287 53.4075 123.633C53.2966 123.934 53.4978 124.176 53.8548 124.171C54.2122 124.167 54.3835 123.973 54.236 123.741C54.0885 123.509 54.2662 123.315 54.6304 123.31C54.9946 123.306 55.299 123.541 55.3062 123.834C55.3163 124.224 55.401 124.233 55.6267 123.868C55.9697 123.313 58.2717 123.569 58.2793 124.164C58.282 124.37 58.8101 124.514 59.4523 124.482L60.6204 124.425L59.5536 124.098C58.5568 123.792 58.5802 123.767 59.9128 123.71C61.0156 123.663 61.2855 123.795 61.1024 124.291C60.9439 124.721 61.1297 124.929 61.6673 124.922C62.108 124.916 62.5618 124.671 62.6761 124.377C62.8419 123.949 62.8916 123.948 62.9239 124.373C62.9495 124.711 63.7028 124.917 64.9837 124.937C66.0945 124.954 66.574 125.057 66.0492 125.166C64.6126 125.462 64.8625 126.583 66.361 126.563C67.0486 126.554 67.7206 126.72 67.8551 126.932C68.1419 127.383 69.2026 127.276 69.6702 126.748C69.8499 126.545 69.7299 126.539 69.4039 126.734C69.0138 126.968 68.9095 126.926 69.0984 126.611C69.5057 125.931 77.0454 126.224 77.4984 126.937C77.7691 127.363 77.9487 127.35 78.3795 126.874C78.8275 126.379 78.8117 126.339 78.2881 126.641C77.7257 126.966 77.7251 126.918 78.2825 126.209C78.7609 125.601 78.783 125.371 78.3763 125.24C77.2264 124.868 77.8297 123.862 79.2084 123.85C80.1838 123.842 80.4151 123.953 79.9958 124.227C79.6691 124.439 79.1927 124.576 78.9371 124.531C78.6815 124.484 78.9048 124.632 79.4339 124.859C79.9626 125.085 80.3983 125.482 80.4017 125.74C80.4054 126.03 80.9955 126.135 81.94 126.012C82.9656 125.879 83.2833 125.699 82.9012 125.469C82.4562 125.202 82.5032 125.057 83.1142 124.813C83.5455 124.641 84.2559 124.717 84.6928 124.983C85.7326 125.614 85.9252 125.589 85.9153 124.821C85.9108 124.47 86.1939 124.179 86.5445 124.175C86.8951 124.17 87.1846 124.37 87.1878 124.617C87.191 124.865 87.0008 124.952 86.7652 124.81C86.5296 124.669 86.3395 124.756 86.3427 125.003C86.3459 125.251 86.8266 125.448 87.4109 125.44C87.9953 125.433 88.4707 125.224 88.4675 124.976C88.4643 124.728 88.272 124.646 88.0401 124.794C87.8083 124.941 87.6162 124.88 87.6133 124.657C87.6061 124.098 88.7413 123.696 89.5173 123.982C89.8696 124.113 90.1554 124.024 90.1523 123.786C90.1492 123.547 90.4822 123.397 90.8918 123.453C91.3014 123.508 91.8659 123.244 92.1458 122.867C92.4411 122.469 92.6633 122.391 92.6746 122.68C92.6884 123.024 93.1216 122.958 94.0669 122.469C94.8218 122.078 96.1312 121.74 96.9768 121.719C98.0335 121.692 98.4486 121.512 98.3036 121.146C98.1599 120.782 98.3353 120.701 98.8507 120.892C99.3209 121.065 99.5042 121.007 99.3337 120.739C99.1632 120.47 99.4587 120.377 100.111 120.493C100.69 120.597 101.166 120.887 101.169 121.138C101.172 121.389 101.41 121.272 101.697 120.878C101.984 120.483 102.967 120.033 103.88 119.879C104.794 119.725 106.012 119.413 106.587 119.185C107.162 118.958 107.717 118.855 107.82 118.955C107.923 119.056 107.613 119.27 107.129 119.43C106.228 119.73 105.914 120.52 106.7 120.51C106.941 120.507 107.751 120.239 108.499 119.915C109.692 119.398 112.636 118.651 113.25 118.709C113.37 118.721 114.156 118.432 114.997 118.067C116.913 117.237 117.388 117.231 116.006 118.056C115.15 118.567 115.111 118.657 115.799 118.534C116.266 118.45 116.981 118.253 117.388 118.095C117.794 117.938 118.426 117.711 118.789 117.591C119.18 117.462 119.322 117.155 119.136 116.841C118.748 116.187 121.185 118.201 121.669 118.934C121.86 119.224 122.275 119.458 122.59 119.454C122.905 119.449 124.288 120.182 125.662 121.081C127.036 121.981 128.355 122.597 128.592 122.451C128.829 122.306 128.798 122.471 128.524 122.821C128.101 123.358 128.247 123.445 129.467 123.389C130.33 123.349 130.807 123.495 130.653 123.75C130.503 124.002 130.679 124.066 131.08 123.906C131.473 123.749 132.181 123.99 132.75 124.475L133.739 125.318L132.6 124.646C131.825 124.188 131.373 124.122 131.185 124.437C131.032 124.691 131.064 124.852 131.256 124.794C131.448 124.736 132.043 124.924 132.577 125.212C133.112 125.499 133.764 125.598 134.027 125.431C134.326 125.24 134.39 125.318 134.197 125.64C133.866 126.191 134.659 127.383 135.35 127.374C135.58 127.371 135.651 127.074 135.507 126.712C135.351 126.321 135.424 126.162 135.686 126.32C135.929 126.466 136.011 126.968 135.869 127.436C135.635 128.211 135.758 128.263 137.241 128.019C138.333 127.839 138.669 127.885 138.258 128.158C137.922 128.382 137.506 128.481 137.334 128.378C137.163 128.275 136.905 128.386 136.761 128.626C136.617 128.866 136.711 129.059 136.969 129.056C137.227 129.052 138.827 129.953 140.526 131.056C145.87 134.527 151.329 137.382 152.594 137.365C152.946 137.361 153.236 137.546 153.239 137.778C153.242 138.009 153.674 138.169 154.2 138.132C154.725 138.096 155.732 138.299 156.437 138.584C157.142 138.869 158.213 139.161 158.818 139.234C160.507 139.436 162.195 140.148 162.202 140.66C162.205 140.914 162.015 141.006 161.779 140.864C161.544 140.722 161.353 140.789 161.356 141.012C161.359 141.234 161.648 141.522 161.997 141.651C162.346 141.78 162.61 141.75 162.583 141.583C162.432 140.653 162.672 140.196 163.156 140.491C163.451 140.671 164.155 140.875 164.723 140.946C165.29 141.016 166.123 141.265 166.573 141.499C167.023 141.733 167.501 141.812 167.635 141.674C167.769 141.536 167.655 141.426 167.383 141.43C167.11 141.433 166.885 141.245 166.882 141.011C166.874 140.398 168.039 140.471 168.302 141.099C168.472 141.506 168.529 141.499 168.549 141.071C168.563 140.764 168.758 140.623 168.982 140.758C169.206 140.892 169.577 140.639 169.807 140.195C170.26 139.322 169.373 136.605 167.986 134.613C166.748 132.835 163.265 123.287 163.235 121.588C163.226 121.062 163.052 120.633 162.85 120.636C162.647 120.638 162.25 119.638 161.968 118.413C161.262 115.344 161.098 114.751 160.846 114.353C160.385 113.629 160.19 111.721 160.601 111.969C161.288 112.381 163.092 110.898 163.08 109.932C163.07 109.167 162.973 109.12 162.406 109.604C161.856 110.072 161.676 110.066 161.349 109.563C160.853 108.798 161.024 108.206 161.806 107.983C162.301 107.842 162.297 107.896 161.783 108.27C160.806 108.98 161.869 108.784 163.055 108.034C163.635 107.668 163.776 107.476 163.369 107.607C162.961 107.738 162.626 107.698 162.624 107.519C162.618 107.082 165.574 105.984 165.899 106.301C166.039 106.438 165.898 106.553 165.587 106.557C165.275 106.561 165.121 106.663 165.245 106.784C165.599 107.129 166.882 106.493 166.631 106.098C166.507 105.904 167.091 105.408 167.927 104.998C169.051 104.446 169.391 104.046 169.232 103.467C169.114 103.035 169.19 102.68 169.402 102.678C169.613 102.675 169.79 102.96 169.795 103.311C169.8 103.662 170.006 103.946 170.253 103.943C170.501 103.94 170.584 103.75 170.438 103.52C170.285 103.279 170.459 103.209 170.852 103.354C171.225 103.491 171.864 103.294 172.272 102.915C172.68 102.536 173.385 102.146 173.839 102.05C174.293 101.953 175.277 101.631 176.026 101.336C176.775 101.04 177.456 100.861 177.539 100.94C177.622 101.017 178.03 100.732 178.444 100.306C178.859 99.8803 179.308 99.6383 179.441 99.7685C179.575 99.8987 179.461 100.235 179.188 100.516C178.572 101.148 178.554 101.708 179.15 101.7C179.397 101.697 179.48 101.505 179.332 101.273C179.185 101.04 179.253 100.848 179.483 100.845C179.713 100.842 179.985 100.503 180.087 100.093C180.262 99.3808 180.274 99.3807 180.33 100.089C180.391 100.86 181.243 101.15 181.233 100.397C181.23 100.163 181.371 99.9921 181.547 100.017C182.4 100.141 182.65 99.8947 182.072 99.5004C181.576 99.1621 181.661 99.1244 182.442 99.3352C183.161 99.5289 183.364 99.4646 183.14 99.1126C182.954 98.8192 183.06 98.6463 183.4 98.6887C184.867 98.8711 185.429 98.6225 185.185 97.8988C184.975 97.273 185.01 97.2559 185.403 97.7896C185.8 98.3258 185.875 98.2925 185.9 97.5704C185.916 97.0702 186.023 96.9475 186.158 97.2726C186.285 97.5769 186.056 98.2025 185.652 98.6622C185.247 99.122 185.048 99.4965 185.209 99.4944C185.728 99.4877 187.767 98.0536 188.56 97.1377C188.983 96.6493 189.193 96.5163 189.027 96.8428C188.861 97.1692 189.32 96.9837 190.047 96.4304C190.775 95.8771 191.368 95.2694 191.366 95.0792C191.363 94.889 191.627 94.7303 191.951 94.7261C192.275 94.7219 193.462 94.0661 194.589 93.2685C195.715 92.4714 196.771 91.8351 196.936 91.8551C197.579 91.9332 201.014 88.6056 200.812 88.1005C200.695 87.8058 201.459 86.5299 202.51 85.2643C204.634 82.7069 206.321 79.8105 205.062 80.8843C204.239 81.5856 204.191 81.3717 204.839 79.8977C205.103 79.2981 205.622 78.8007 205.994 78.7925C206.428 78.7826 206.499 78.6681 206.191 78.4708C205.918 78.2947 205.781 77.4377 205.871 76.4599C205.957 75.5225 206.013 74.3251 205.996 73.7985C205.977 73.22 206.218 72.8381 206.606 72.8331C206.959 72.8285 207.472 72.295 207.746 71.6481C208.02 71.0011 208.362 70.374 208.505 70.2552C209.051 69.8021 208.965 65.2927 208.362 62.7539C208.113 61.7039 208.035 60.635 208.189 60.3777C208.35 60.1088 208.275 60.0344 208.012 60.2021C207.76 60.3624 207.432 60.3002 207.282 60.0643C207.132 59.8283 207.225 59.6326 207.489 59.6292C207.788 59.6253 207.738 59.3966 207.357 59.0245C207.02 58.6956 206.288 57.3165 205.731 55.9602C205.174 54.6038 204.497 53.2099 204.226 52.8623C203.955 52.5147 203.351 51.4961 202.883 50.5987C202.416 49.7012 201.814 48.883 201.547 48.78C201.279 48.6767 201.152 48.2208 201.264 47.7662C201.381 47.2953 201.254 46.9428 200.969 46.9465C200.695 46.9501 200.59 47.1429 200.738 47.3751C201.259 48.196 200.674 47.7844 199.424 46.4507C198.728 45.7081 198.544 45.3624 199.016 45.6827C199.566 46.0565 199.487 45.8839 198.797 45.2017C197.878 44.2931 197.68 44.2377 197.441 44.8221C197.204 45.4001 197.147 45.4077 197.072 44.869C197.024 44.5186 197.002 44.095 197.025 43.9274C197.048 43.7599 196.808 43.726 196.493 43.8522C196.155 43.9868 195.82 43.7221 195.679 43.209C195.533 42.679 195.09 42.3413 194.55 42.3482C194.042 42.3548 193.656 42.0857 193.652 41.7215C193.647 41.3705 193.366 41.0868 193.027 41.0912C192.688 41.0956 192.237 40.7971 192.024 40.4275C191.811 40.0583 191.463 39.7279 191.25 39.6928C191.037 39.6581 190.918 39.4528 190.987 39.237C191.056 39.0208 190.807 39.1044 190.434 39.4224C189.864 39.909 189.776 39.9046 189.879 39.3952C189.946 39.0623 189.714 38.773 189.363 38.752C185.932 38.5503 185.183 38.1446 183.584 35.6247C182.665 34.1756 181.814 33.2563 181.548 33.4257C181.294 33.5869 181.209 33.5195 181.356 33.2737C181.676 32.7406 180.412 30.115 179.61 29.6466C179.297 29.4634 179.038 29.1302 179.035 28.9059C179.032 28.6813 178.496 27.8983 177.844 27.1659C175.894 24.9773 171.087 20.242 171.739 21.1519C172.337 21.9864 172.333 21.9869 171.384 21.1969C170.856 20.7578 170.421 20.1561 170.417 19.8595C170.413 19.5625 169.75 19.1115 168.944 18.8564C168.138 18.6016 167.416 18.2573 167.341 18.0919C167.035 17.4239 162.631 15.0048 161.64 14.9602C161.056 14.9341 160.576 14.7837 160.574 14.6258C160.572 14.468 159.511 13.8195 158.217 13.1843C156.923 12.549 155.863 11.878 155.86 11.6929C155.858 11.5078 155.632 11.3592 155.358 11.3628C155.084 11.3663 153.112 10.5577 150.978 9.56601C147.468 7.93506 145.23 7.14602 144.483 7.27611C144.333 7.3023 144.091 7.14542 143.945 6.92728C143.665 6.50831 135.615 3.76018 133.438 3.34017C131.854 3.03465 128.585 2.68876 127.576 2.71966C127.163 2.73267 126.912 2.59675 127.019 2.41748C127.126 2.23864 126.624 2.18682 125.904 2.30209C124.973 2.45114 124.681 2.36597 124.895 2.00828C125.111 1.64887 124.884 1.58797 124.104 1.79466C123.502 1.95393 122.673 1.94506 122.261 1.7742C121.85 1.60376 120.977 1.51417 120.323 1.57496C119.669 1.63618 118.71 1.41834 118.192 1.09139C117.674 0.76444 116.698 0.580433 116.024 0.681918C115.349 0.783823 114.488 0.721754 114.109 0.544081C113.041 0.0429469 103.736 0.26825 98.5537 0.921186ZM100.955 5.84926C100.956 5.94117 100.672 6.13039 100.323 6.2698C99.9741 6.40878 99.6863 6.33717 99.6833 6.11081C99.6804 5.88402 99.9649 5.6948 100.315 5.69027C100.666 5.68575 100.954 5.75735 100.955 5.84926ZM95.8633 6.52529C95.8658 6.71888 94.3029 7.13783 92.39 7.45617C90.1778 7.82477 88.7031 8.2962 88.3375 8.75244C88.0213 9.14719 87.8808 9.22901 88.0249 8.93436C88.169 8.64014 88.1324 8.404 87.9433 8.40985C87.377 8.4278 84.4646 9.54507 84.155 9.86314C83.9969 10.0256 83.4215 10.1641 82.8758 10.1712C82.2808 10.1789 81.8876 10.4376 81.8925 10.818C81.8994 11.3481 81.7602 11.3346 81.0414 10.7345C80.5687 10.3397 80.1825 9.81997 80.1828 9.57953C80.1835 9.33865 80.3561 9.40706 80.5668 9.73117C80.7854 10.0671 81.2525 10.1994 81.6538 10.0393C82.0412 9.88491 82.2364 9.56704 82.0876 9.3332C81.9392 9.09936 82.0204 8.90553 82.2678 8.90233C82.5151 8.89914 82.7203 9.08799 82.7233 9.32201C82.7263 9.55604 82.92 9.74504 83.1537 9.74202C83.3875 9.739 83.5752 9.46081 83.5708 9.12339C83.5664 8.78598 83.7821 8.37082 84.0498 8.20054C84.3685 7.99726 84.4227 8.07997 84.2059 8.4411C83.9971 8.7902 84.0643 8.92637 84.3897 8.81322C84.6723 8.71467 84.8895 8.44759 84.8725 8.21971C84.8391 7.76989 87.1055 6.79672 88.3466 6.72834C88.7866 6.70436 88.9981 6.88122 88.8416 7.1424C88.5666 7.60088 88.8518 7.57039 93.3149 6.66289C95.9445 6.12804 95.8583 6.13256 95.8633 6.52529ZM98.7362 6.4286C98.3313 6.54022 97.5664 6.55393 97.0364 6.45907C96.5065 6.3642 96.8377 6.27268 97.7725 6.25593C98.7074 6.23917 99.1411 6.31698 98.7362 6.4286ZM126.471 6.93297C126.479 7.55462 126.387 7.5822 125.448 7.23515C124.503 6.88647 124.598 6.41032 125.614 6.39719C126.082 6.39115 126.467 6.63215 126.471 6.93297ZM87.0556 7.43869C86.5308 7.54675 86.1039 7.79569 86.1064 7.99141C86.1121 8.43052 87.733 8.01934 88.0446 7.49953C88.1686 7.29238 88.2118 7.14926 88.14 7.18211C88.0681 7.21495 87.5804 7.3302 87.0556 7.43869ZM130.3 7.21801C130.305 7.56904 130.014 7.86005 129.655 7.86469C129.114 7.87168 129.094 7.76384 129.54 7.244C130.227 6.44443 130.29 6.44191 130.3 7.21801ZM128.366 7.4162C128.5 7.6264 128.225 7.70357 127.755 7.58708C126.76 7.33992 126.631 7.05263 127.51 7.04126C127.847 7.03691 128.232 7.20557 128.366 7.4162ZM110.534 8.48446C110.187 8.84088 108.166 8.82529 107.936 8.46397C107.815 8.27318 108.394 8.15378 109.224 8.19881C110.053 8.24427 110.643 8.3724 110.534 8.48446ZM134.845 8.41983C135.348 8.42227 135.673 8.56871 135.567 8.74584C135.276 9.23177 134.086 9.11606 132.654 8.46259L131.371 7.87741L132.65 8.14645C133.353 8.2944 134.341 8.4174 134.845 8.41983ZM138.838 10.0956C138.839 10.1641 138.163 10.0213 137.336 9.77882C136.4 9.5045 136.022 9.2166 136.335 9.01765C136.745 8.75616 138.833 9.65522 138.838 10.0956ZM79.7671 10.7999C79.7683 10.8897 79.3876 11.0682 78.9217 11.1968C78.4554 11.3254 78.1787 11.2553 78.3073 11.0417C78.5311 10.6682 79.7628 10.4642 79.7671 10.7999ZM80.8427 12.3359C80.7175 12.5452 80.3166 12.6065 79.9519 12.4717C79.4343 12.2805 79.408 12.1514 79.8312 11.8817C80.4708 11.4742 81.171 11.7891 80.8427 12.3359ZM82.9687 11.8722C82.8273 12.1081 82.388 12.2917 81.9926 12.2806C81.4063 12.2635 81.43 12.1904 82.1188 11.8832C83.2497 11.3792 83.2646 11.379 82.9687 11.8722ZM87.9239 12.5691C87.6184 12.6752 87.1643 12.5628 86.9138 12.3183C86.5944 12.0067 86.7598 11.9492 87.4689 12.1252C88.0454 12.2684 88.2408 12.4586 87.9239 12.5691ZM104.154 11.9178C104.263 12.0921 103.511 12.2503 102.483 12.2696C101.455 12.2892 100.612 12.1567 100.609 11.9746C100.604 11.5508 103.889 11.4977 104.154 11.9178ZM109.322 11.9574C109.47 12.1895 109.388 12.3821 109.14 12.3853C108.893 12.3885 108.688 12.1996 108.685 11.9656C108.682 11.7316 108.763 11.539 108.867 11.5377C108.97 11.5364 109.175 11.7252 109.322 11.9574ZM85.5295 12.6903C85.6771 12.9224 85.595 13.115 85.3476 13.1182C85.1003 13.1214 84.8951 12.9325 84.8921 12.6985C84.8891 12.4645 84.9707 12.2719 85.074 12.2706C85.1773 12.2693 85.382 12.4581 85.5295 12.6903ZM98.3831 12.3919C97.7419 12.504 97.2192 12.7784 97.2221 13.001C97.225 13.2265 96.7289 13.2882 96.106 13.1401C95.2563 12.9383 95.0342 13.0165 95.19 13.463C95.4668 14.2574 97.9243 14.1554 97.7266 13.3579C97.6315 12.974 97.9148 13.0571 98.5466 13.598C99.0774 14.0528 99.369 14.1874 99.1944 13.8969C98.9967 13.5683 99.1272 13.3658 99.5394 13.3604C99.9036 13.3557 100.206 13.6872 100.212 14.0965C100.22 14.7577 100.697 14.8324 104.471 14.762C107.973 14.6967 108.721 14.7947 108.728 15.3202C108.734 15.8031 108.889 15.7552 109.364 15.1235C109.982 14.3022 109.988 14.3026 109.71 15.1441C109.463 15.892 109.514 15.9271 110.114 15.4253C110.838 14.8206 114.367 14.7601 116.493 15.3161C117.202 15.5014 117.574 15.4668 117.423 15.23C117.285 15.0126 117.375 14.8323 117.622 14.8291C117.87 14.8259 118.075 15.0263 118.078 15.2739C118.082 15.5215 118.254 15.6163 118.461 15.4843C118.669 15.3518 118.96 15.5485 119.108 15.9202C119.259 16.2983 119.651 16.4882 119.995 16.3505C120.334 16.2151 120.738 16.3026 120.892 16.5449C121.046 16.7872 121.531 16.886 121.971 16.765C122.411 16.6436 122.772 16.7134 122.775 16.9198C122.778 17.1287 123.246 17.1103 123.833 16.878C124.955 16.4345 126.172 16.6742 126.181 17.34C126.184 17.5613 127.381 17.7097 128.841 17.67C132.606 17.5677 133.837 17.7335 133.844 18.3433C133.853 19.0326 134.569 19.0233 134.838 18.3304C134.958 18.0204 135.063 18.119 135.089 18.5651C135.113 18.9882 135.325 19.2114 135.561 19.0616C135.796 18.9113 135.851 18.5642 135.682 18.2902C135.447 17.9098 135.521 17.9067 135.993 18.2776C136.334 18.5447 137.336 18.8893 138.221 19.043C139.609 19.2842 139.756 19.4134 139.296 19.9866C138.82 20.5787 138.865 20.585 139.711 20.0421C140.232 19.7072 140.657 19.2881 140.655 19.1103C140.653 18.9328 140.836 18.7849 141.063 18.782C141.289 18.7791 141.377 19.0401 141.258 19.3621C140.967 20.1527 142.786 20.5735 143.592 19.9018C144.111 19.4686 144.171 19.5091 143.945 20.1376C143.705 20.805 143.785 20.8338 144.613 20.3784C145.464 19.9099 145.499 19.9286 144.979 20.5766C144.225 21.5158 144.857 21.4902 145.878 20.5404C146.318 20.1317 146.643 19.9836 146.601 20.2118C146.434 21.1166 146.67 21.4417 147.053 20.8324C147.346 20.3648 147.46 20.3412 147.47 20.7458C147.478 21.0521 147.653 21.1945 147.861 21.0629C148.337 20.7592 151.156 21.8774 151.574 22.5354C151.77 22.8436 151.702 22.9176 151.394 22.7318C151.096 22.5535 150.902 22.7139 150.908 23.1343C150.915 23.7266 150.613 23.6692 148.944 22.7631C147.859 22.174 146.802 21.7996 146.595 21.9312C146.389 22.0624 146.217 21.9561 146.214 21.6944C146.21 21.4327 146.018 21.3395 145.786 21.4871C144.972 22.0053 145.39 22.3842 147.314 22.873C148.596 23.1986 149.154 23.5353 148.957 23.8634C148.758 24.1958 148.892 24.2676 149.363 24.0799C149.75 23.9255 150.068 23.9644 150.071 24.1656C150.074 24.3673 150.374 24.6426 150.739 24.7775C151.103 24.9119 151.302 24.8659 151.181 24.6751C151.06 24.4844 151.221 24.3248 151.539 24.3207C151.857 24.3166 152.049 24.5218 151.966 24.7765C151.884 25.0312 153.155 25.8348 154.793 26.5631C156.653 27.3902 157.772 27.6953 157.777 27.3757C157.781 27.0513 157.976 27.1012 158.31 27.5114C158.599 27.8672 159.152 28.089 159.538 28.004C159.924 27.9191 160.366 28.0478 160.52 28.2901C160.692 28.5607 160.504 28.6418 160.031 28.5007C159.305 28.2837 159.304 28.2969 160.016 28.7418C160.43 29.0007 160.946 29.1 161.161 28.9627C161.377 28.8255 161.712 28.9743 161.906 29.294C162.1 29.6136 163.125 30.3477 164.185 30.926C165.244 31.5038 166.097 32.1431 166.08 32.3463C166.063 32.5495 166.531 33.1631 167.119 33.71C168.008 34.5364 168.14 34.5705 167.9 33.9127C167.63 33.1731 167.654 33.1749 168.261 33.9386C168.617 34.3885 168.911 34.8661 168.913 35.0001C168.914 35.1341 169.687 35.7072 170.629 36.2738C171.572 36.8403 172.346 37.5389 172.349 37.8265C172.353 38.1142 172.741 38.5492 173.212 38.7938C173.683 39.0383 174.071 39.498 174.075 39.8159C174.084 40.4533 175.237 41.0257 175.795 40.6699C175.991 40.5457 176.291 40.6665 176.464 40.9383C176.66 41.2469 176.592 41.3209 176.283 41.1351C175.489 40.6581 175.702 41.1431 177.201 43.226C177.975 44.3012 178.969 45.6867 179.41 46.3041C179.852 46.9218 180.099 47.0939 179.96 46.6859C179.601 45.636 179.803 45.7543 180.95 47.266C181.502 47.9942 181.688 48.454 181.362 48.2875C181.035 48.1211 181.194 48.331 181.714 48.7541C182.233 49.1772 182.871 50.0741 183.133 50.747C183.393 51.4194 183.734 51.8401 183.888 51.6811C184.177 51.3837 187.029 55.4893 187.038 56.2161C187.041 56.439 187.53 57.2426 188.124 58.0022C188.718 58.7618 189.207 59.5875 189.21 59.8368C189.213 60.0866 189.419 60.2882 189.666 60.285C189.913 60.2818 190.001 60.4722 189.859 60.7081C189.718 60.9439 189.808 61.1343 190.061 61.131C190.314 61.1277 190.741 61.595 191.012 62.1694C191.282 62.7434 191.663 63.1117 191.859 62.9875C192.054 62.8628 192.113 63.0349 191.989 63.3697C191.866 63.7045 192.021 64.2391 192.333 64.5577C192.646 64.8762 193.171 65.7082 193.5 66.4061C193.851 67.1514 194.177 67.4472 194.289 67.1228C194.436 66.6987 194.62 66.684 195.083 67.0585C195.575 67.4568 195.683 67.332 195.67 66.3781C195.658 65.388 195.754 65.2897 196.3 65.7316C196.847 66.1748 196.941 66.0668 196.928 65.0094C196.919 64.3257 196.67 63.528 196.374 63.2373C195.942 62.813 195.984 62.7627 196.587 62.9839C197.15 63.1902 197.274 63.0942 197.079 62.603C196.934 62.2419 197.006 61.5975 197.238 61.1707C197.545 60.605 197.488 60.2125 197.031 59.7192C196.48 59.1254 196.492 58.9703 197.126 58.4408C197.523 58.1097 197.722 58.0557 197.569 58.3206C197.414 58.5856 197.77 59.3092 198.358 59.9284C199.57 61.2044 199.74 62.1946 198.811 62.5653C198.464 62.7043 198.293 62.9959 198.431 63.2141C198.57 63.4319 198.503 63.8435 198.283 64.1289C198.063 64.4139 197.941 64.9814 198.012 65.3903C198.084 65.7988 197.99 66.1354 197.804 66.1378C197.619 66.1402 197.372 66.5242 197.256 66.9908C197.141 67.4575 196.541 68.0393 195.923 68.2839C195.267 68.5435 194.923 68.9233 195.097 69.1963C195.304 69.5231 195.502 69.4886 195.752 69.0823C195.949 68.7623 196.115 68.6691 196.121 68.8754C196.135 69.3536 194.475 72.1386 194.173 72.1425C194.049 72.1441 194.265 71.646 194.653 71.0354C195.041 70.4252 195.247 69.8162 195.109 69.6822C194.972 69.5482 194.81 69.5188 194.749 69.617C193.728 71.2678 191.683 74.1544 191.384 74.3651C191.169 74.5173 191.146 74.8823 191.332 75.1765C191.534 75.4939 191.499 75.6067 191.245 75.4542C191.01 75.3134 190.176 75.9127 189.39 76.7868C188.605 77.6604 188.387 78.0092 188.908 77.5616C190.427 76.2546 190.002 77.0019 188.303 78.6248C187.447 79.4423 187.012 79.725 187.336 79.2527C187.66 78.7803 187.225 79.063 186.369 79.8805C185.513 80.6984 184.811 81.2233 184.809 81.0471C184.807 80.8714 184.31 81.271 183.705 81.9355C183.1 82.5999 182.839 82.7578 183.125 82.286C183.473 81.7117 183.315 81.7839 182.646 82.505C182.097 83.0972 181.122 83.932 180.479 84.3603C179.81 84.8052 179.439 85.3428 179.611 85.6142C179.808 85.9244 179.668 85.999 179.209 85.8292C178.752 85.6606 178.348 85.8718 178.058 86.4305C177.76 87.0063 177.35 87.2124 176.82 87.0516C176.385 86.9198 175.91 87.0102 175.764 87.2529C175.614 87.5042 175.752 87.5935 176.085 87.4607C176.418 87.3274 176.675 87.4927 176.679 87.8428C176.684 88.1815 176.431 88.364 176.118 88.2484C175.805 88.1325 175.551 88.2817 175.555 88.58C175.559 88.8778 175.445 89.007 175.301 88.8671C175.158 88.7268 174.654 88.9823 174.182 89.4344C173.709 89.886 173.159 90.1578 172.96 90.0374C172.76 89.9174 172.599 90.0221 172.602 90.2697C172.605 90.5174 172.334 90.7239 171.999 90.7282C171.664 90.7325 171.274 91.1206 171.131 91.5905C170.989 92.0605 170.671 92.4476 170.424 92.4508C170.161 92.4542 170.214 92.1479 170.55 91.7117C171.071 91.0355 171.013 91.0397 169.926 91.755C169.267 92.1887 168.296 92.6276 167.767 92.7307C167.238 92.8337 165.908 93.3292 164.813 93.8314C162.847 94.7322 161.216 95.2129 159.858 95.2917C159.473 95.3141 159.259 95.5748 159.379 95.8762C159.499 96.1756 159.289 96.4485 158.914 96.4827C157.292 96.6301 156.678 96.7712 155.557 97.2534C154.902 97.5346 154.188 97.7673 153.969 97.7701C153.751 97.7729 153.575 97.9782 153.578 98.2258C153.581 98.4734 153.417 98.576 153.213 98.4535C153.008 98.3306 152.504 98.6133 152.092 99.0812C151.68 99.5491 151.108 99.9349 150.821 99.9386C149.849 99.9511 149.901 101.525 151.003 105.518C151.608 107.707 152.163 109.688 152.237 109.921C152.836 111.802 153.055 112.251 153.373 112.247C153.574 112.244 153.546 111.755 153.311 111.16C153.064 110.534 153.05 110.177 153.278 110.314C153.621 110.52 154.244 112.461 154.267 113.398C154.272 113.578 154.417 113.914 154.589 114.146C154.762 114.378 154.9 115.19 154.895 115.951C154.891 116.712 155.039 117.332 155.225 117.33C155.41 117.327 155.527 117.565 155.483 117.858C155.44 118.152 155.505 118.677 155.627 119.027C155.75 119.376 156.315 121.093 156.883 122.841C157.45 124.589 158.098 126.256 158.322 126.546C159.406 127.946 155.13 126.334 144.131 121.197C141.653 120.039 139.391 119.095 139.104 119.099C138.818 119.102 138.667 118.965 138.77 118.795C138.872 118.624 138.482 118.182 137.903 117.813C136.662 117.021 136.226 116.959 136.655 117.636C136.848 117.94 136.776 118.009 136.463 117.821C136.187 117.655 136.063 117.35 136.188 117.142C136.449 116.707 134.822 115.751 134.342 116.057C134.166 116.169 133.545 115.876 132.961 115.406L131.899 114.551L133.077 115.234C133.724 115.61 134.253 115.764 134.25 115.575C134.243 114.99 131.703 113.737 131.189 114.064C130.905 114.244 130.815 114.186 130.973 113.923C131.122 113.676 130.956 113.367 130.605 113.237C130.254 113.108 129.969 113.173 129.971 113.382C129.974 113.591 129.542 113.407 129.01 112.974C125.814 110.373 122.676 107.954 122.678 108.094C122.679 108.184 121.873 107.531 120.888 106.643C119.902 105.756 119.008 105.12 118.901 105.23C118.793 105.341 118.331 104.968 117.874 104.401C116.779 103.044 114.316 101.927 113.362 102.355C112.954 102.538 112.333 102.746 111.983 102.817C111.634 102.887 110.3 103.252 109.019 103.626C107.738 104 104.784 104.837 102.455 105.486C100.125 106.134 97.0765 107.03 95.6797 107.477C92.5448 108.481 90.6953 108.961 90.2866 108.879C89.5025 108.72 85.7217 109.834 85.7267 110.223C85.7298 110.462 85.4441 110.552 85.0918 110.421C84.6766 110.268 84.4523 110.442 84.4542 110.916C84.4557 111.331 84.3193 111.465 84.1394 111.226C83.6516 110.579 82.3317 110.631 82.3403 111.297C82.3445 111.622 82.1452 111.89 81.8979 111.893C81.6506 111.897 81.5846 111.658 81.7516 111.363C81.9187 111.069 81.6773 111.168 81.2147 111.583C80.2727 112.43 79.1675 112.62 79.6252 111.857C79.807 111.554 79.7372 111.48 79.4455 111.666C78.564 112.227 76.2292 112.452 69.3141 112.641C64.5944 112.77 62.5124 112.687 62.6788 112.377C62.8295 112.097 62.7306 112.106 62.4182 112.401C61.8731 112.916 59.9632 112.734 59.5801 112.131C59.4504 111.926 58.8295 111.769 58.2006 111.782C56.0411 111.824 44.7143 110.51 44.4866 110.191C44.3615 110.016 43.5931 109.757 42.779 109.616C40.8122 109.277 40.654 109.235 39.1649 108.663C38.4601 108.393 37.0188 107.862 35.9619 107.484C34.9051 107.107 32.7459 106.089 31.1642 105.224C29.5821 104.358 28.0815 103.652 27.8295 103.655C27.5775 103.658 26.864 103.141 26.2446 102.505C25.6247 101.87 25.2812 101.635 25.4808 101.983C25.8661 102.655 24.7319 101.821 22.5165 99.8025C21.8288 99.176 21.0765 98.7844 20.8442 98.9321C20.6123 99.0802 20.5429 98.9998 20.6897 98.7545C21.0164 98.2098 19.9393 97.2543 19.5035 97.7021C19.3323 97.8775 19.2523 97.7334 19.3259 97.3814C19.4068 96.9935 19.2087 96.8003 18.8236 96.8913C18.474 96.9741 18.328 96.8977 18.4988 96.7218C18.9346 96.274 17.9528 95.2207 17.4174 95.5617C17.1678 95.7206 17.1025 95.6342 17.266 95.3615C17.427 95.093 16.7413 94.0916 15.7082 93.087C13.5366 90.974 12.5326 88.9958 11.8161 85.4162C11.0955 81.8176 10.7801 74.5114 11.3449 74.5041C11.5884 74.5009 11.7362 74.1641 11.6735 73.7551C11.4934 72.5773 12.1233 69.4187 12.5988 69.116C12.8362 68.9648 13.1603 69.0445 13.3182 69.2935C13.6739 69.8536 17.2323 69.0893 17.6704 68.3589C18.2354 67.4162 17.3551 64.0197 16.6599 64.4623C16.4525 64.5944 16.2787 64.4039 16.274 64.0392C16.2693 63.6746 16.0555 63.3786 15.7989 63.3819C15.1533 63.3902 16.9095 60.6197 17.5908 60.5547C18.7651 60.4429 18.8645 60.3438 18.376 59.7696C17.9754 59.299 18.0685 59.0335 18.8269 58.4871C19.3525 58.1084 19.9813 57.7955 20.2236 57.7924C20.4658 57.7893 20.9094 57.3818 21.2094 56.8873C21.5091 56.3923 21.8411 56.0722 21.9475 56.176C22.0538 56.2797 22.7985 55.7271 23.6024 54.9477C25.0616 53.5339 25.5271 52.715 24.53 53.3165C24.2403 53.4913 24.368 53.207 24.8139 52.6846C25.2598 52.1623 25.8871 51.8316 26.2079 51.95C26.5286 52.0684 26.6889 52.0051 26.5643 51.8088C26.4394 51.6125 27.078 50.8404 27.9826 50.0933C29.7149 48.6619 30.3669 48.3696 29.8319 49.2634C29.6555 49.5585 30.0939 49.3132 30.8071 48.7189C31.5199 48.1245 32.0193 47.4955 31.9167 47.3215C31.8141 47.147 32.1353 46.9995 32.6303 46.9931C33.1254 46.9867 33.4098 46.7915 33.2623 46.5593C33.1148 46.3272 33.154 46.1352 33.3494 46.1326C33.658 46.1287 37.0462 43.6775 38.9611 42.0731C39.3185 41.7735 39.9351 41.3992 40.3317 41.2408C40.7283 41.0825 41.0504 40.7443 41.0471 40.489C41.0438 40.2341 41.2339 40.141 41.4695 40.2827C41.7051 40.4243 41.8955 40.3597 41.8927 40.1393C41.8882 39.7976 42.4932 39.5149 43.9092 39.1966C44.0787 39.1587 44.4443 38.7062 44.7216 38.1911C44.9989 37.6765 45.2356 37.5057 45.248 37.812C45.2601 38.1182 45.4627 38.2458 45.6984 38.096C45.9341 37.9457 46.0065 37.6336 45.8595 37.4019C45.7124 37.1702 45.8508 37.0309 46.1674 37.092C46.4836 37.153 47.5013 36.7075 48.4286 36.1018C49.3559 35.4962 51.2072 34.4343 52.5422 33.7421C53.8773 33.0495 54.9667 32.2358 54.9628 31.9337C54.9536 31.2202 54.0869 31.2446 53.0394 31.9879C52.5824 32.3122 51.8733 32.5298 51.4632 32.4717C51.051 32.4128 50.7215 32.6337 50.7258 32.966C50.7356 33.7221 50.9119 33.7151 52.4463 32.8952C53.131 32.5293 53.6928 32.3276 53.6944 32.4463C53.6996 32.8518 49.4454 34.8916 49.068 34.665C48.8615 34.5404 48.6096 34.6807 48.5084 34.976C48.4077 35.2714 48.1692 35.3715 47.9791 35.1982C47.5017 34.7635 47.9819 34.3577 49.1345 34.2228C50.698 34.0392 50.7241 34.0218 50.4544 33.3452C50.2317 32.7851 50.0005 32.8175 48.7412 33.5836C47.3988 34.3997 47.2125 34.4174 46.3503 33.8106C45.7571 33.3932 45.6598 33.1987 46.0842 33.2791C46.7182 33.3986 51.1051 31.5337 51.5499 30.9556C51.6649 30.806 52.6503 30.2652 53.7399 29.7536C54.8299 29.242 55.8428 28.6204 55.9913 28.3725C56.1786 28.0607 56.4392 28.0654 56.8374 28.3875C57.3747 28.8223 59.5644 27.8302 64.3561 24.9808C64.8639 24.6785 65.6259 24.5099 66.0497 24.6062C66.6111 24.7334 66.7034 24.6432 66.3897 24.2749C66.0712 23.9007 66.2571 23.7813 67.1033 23.8167C67.7323 23.8431 68.4841 23.6721 68.7731 23.4369C69.0625 23.2016 69.3003 23.1236 69.3021 23.2636C69.304 23.4036 69.7435 23.3447 70.2793 23.1327C70.8764 22.8965 71.5567 22.9128 72.0382 23.1742C72.6058 23.4827 72.7395 23.4695 72.5213 23.1254C72.3447 22.8477 72.5053 22.6465 72.9069 22.6413C73.3013 22.6362 73.473 22.8348 73.3099 23.1072C73.1127 23.4361 73.3342 23.4745 74.0303 23.2328C76.432 22.3983 78.8633 21.8434 79.0628 22.0847C79.5054 22.6207 80.7552 22.5722 80.5425 22.0277C80.4251 21.7275 80.7999 20.9009 81.3752 20.1913C82.1023 19.2942 82.3352 19.1614 82.1402 19.7558C81.9856 20.226 81.5635 20.8476 81.2021 21.1374C80.2926 21.8667 80.8449 21.814 82.2948 21.0331C82.9596 20.6751 83.3537 20.3828 83.1701 20.3834C82.9865 20.3845 83.0214 20.0283 83.2474 19.5917C83.6919 18.7332 86.0946 18.4953 85.9553 19.324C85.898 19.6639 86.5333 19.6527 88.2606 19.2831C90.666 18.7682 91.5186 18.044 90.2639 17.5806C89.8898 17.442 89.6942 17.5037 89.8295 17.7168C90.3111 18.4749 89.2056 18.639 88.2548 17.9508L87.2886 17.2517L88.2813 17.4691C88.9565 17.617 89.2082 17.521 89.068 17.1692C88.9547 16.8842 89.1752 16.6111 89.5579 16.5619C89.9406 16.5123 90.6352 16.3833 91.1013 16.2747C91.5675 16.1657 92.0201 16.0616 92.1065 16.0426C92.1934 16.0232 92.0449 15.7498 91.7765 15.434C91.3846 14.9735 91.4783 14.8902 92.2501 15.0126C92.7795 15.096 93.4844 14.9796 93.8172 14.7536C94.3165 14.4144 94.3243 14.2274 93.8616 13.684C93.4003 13.1418 93.4034 12.9899 93.8778 12.825C94.8561 12.4851 96.0783 12.3072 97.8499 12.246C98.9329 12.209 99.1265 12.2619 98.3831 12.3919ZM84.2214 13.3898C84.3703 13.7632 84.7635 13.9603 85.0954 13.8279C85.4273 13.6955 85.7953 13.8146 85.9128 14.0922C86.0666 14.4554 86.2468 14.4199 86.5529 13.9661C86.7873 13.6188 87.1122 13.4644 87.2745 13.6227C87.4367 13.781 87.9103 13.7226 88.3269 13.4921C88.7607 13.2524 89.4948 13.22 90.0469 13.4167C90.9436 13.7353 90.9098 13.7834 89.5565 14.1133C88.7569 14.3083 87.8168 14.5468 87.4674 14.6437C87.118 14.7405 85.9725 14.9034 84.9219 15.006C83.8712 15.108 83.3453 15.097 83.7527 14.9806C84.5548 14.7515 84.7207 14.1727 84.0923 13.7953C83.8768 13.6657 83.6113 13.8015 83.502 14.097C83.3928 14.3925 83.3193 14.2028 83.3385 13.6761C83.3789 12.5606 83.8326 12.4134 84.2214 13.3898ZM92.8219 13.3178C92.3752 13.7768 91.2462 13.8706 91.5125 13.4267C91.6415 13.2114 92.0545 13.0316 92.4306 13.0267C92.8062 13.0218 92.9822 13.1528 92.8219 13.3178ZM94.3443 13.834C94.6354 14.2877 94.9322 14.5983 95.0044 14.5246C95.2527 14.2691 94.5792 12.9989 94.198 13.0039C93.9872 13.0066 94.0528 13.3802 94.3443 13.834ZM102.431 13.1792C102.141 13.3013 101.663 13.3075 101.369 13.193C101.075 13.0789 101.313 12.9792 101.897 12.9717C102.481 12.9641 102.722 13.0576 102.431 13.1792ZM82.1102 15.0972C82.26 15.474 82.1908 15.6455 81.9483 15.4997C81.7153 15.3597 81.5224 15.0652 81.5195 14.8448C81.5116 14.2329 81.818 14.3639 82.1102 15.0972ZM80.6781 15.5191C80.6827 15.8701 80.5011 16.1597 80.2746 16.1627C80.0485 16.1656 79.9696 15.8793 80.0993 15.5266C80.2295 15.1738 80.4111 14.8842 80.5029 14.883C80.5947 14.8818 80.6736 15.1681 80.6781 15.5191ZM96.6405 15.2248C96.8057 15.6423 97.0463 15.8754 97.1755 15.7426C97.3047 15.6103 97.1698 15.2686 96.8754 14.9835C96.4501 14.5719 96.4023 14.6215 96.6405 15.2248ZM93.5375 15.6722C93.6382 15.9637 94.0441 16.2261 94.4385 16.2555C95.0443 16.3008 95.0385 16.2754 94.4015 16.0921C93.7121 15.8942 93.72 15.8447 94.492 15.5258C95.2809 15.2003 95.2708 15.1757 94.3457 15.1596C93.7322 15.1492 93.4236 15.3447 93.5375 15.6722ZM101.624 15.7201C102.044 16.1292 104.814 16.1712 105.417 15.7775C105.747 15.5621 105.046 15.4273 103.664 15.4414C102.398 15.4543 101.48 15.5798 101.624 15.7201ZM111.957 16.565C111.828 16.7786 112.105 16.8486 112.571 16.72C113.56 16.4472 113.682 16.1567 112.802 16.1681C112.465 16.1724 112.085 16.351 111.957 16.565ZM95.2699 18.1653C95.3316 18.4364 94.9063 18.8117 94.3243 18.9997C93.5518 19.2488 93.8686 19.3205 95.4966 19.2654C96.7232 19.2236 97.7251 19.0324 97.7226 18.8401C97.7201 18.6482 97.3241 18.4958 96.8431 18.502C96.362 18.5082 96.0837 18.3203 96.2252 18.0844C96.3666 17.8486 96.184 17.6594 95.8198 17.6641C95.4556 17.6688 95.2082 17.8946 95.2699 18.1653ZM101.044 18.086C99.9717 18.3999 100.161 18.4779 102.309 18.6068C103.081 18.653 103.81 18.5282 103.929 18.3296C104.048 18.1311 104.325 18.076 104.544 18.2081C104.764 18.3397 104.941 18.2451 104.937 17.9974C104.931 17.5303 102.776 17.5794 101.044 18.086ZM105.787 17.9609C105.407 18.2135 105.357 18.3814 105.661 18.3817C105.939 18.3816 106.283 18.1886 106.424 17.9527C106.744 17.42 106.596 17.4219 105.787 17.9609ZM87.9438 18.617C87.9468 18.851 87.7581 19.0449 87.5243 19.048C87.2906 19.051 87.0969 18.862 87.0939 18.628C87.0908 18.3939 87.2796 18.2 87.5133 18.197C87.7471 18.194 87.9408 18.383 87.9438 18.617ZM91.6604 18.4251C91.9543 18.5396 92.4324 18.5335 92.7228 18.4114C93.0137 18.2898 92.7732 18.1963 92.1888 18.2038C91.6045 18.2114 91.3669 18.311 91.6604 18.4251ZM114.079 18.2794C114.227 18.5115 114.432 18.7004 114.535 18.6991C114.638 18.6977 114.72 18.5052 114.717 18.2712C114.714 18.0371 114.509 17.8483 114.261 17.8515C114.014 17.8547 113.932 18.0472 114.079 18.2794ZM129.166 18.1109C128.35 18.2793 128.075 18.4374 128.554 18.4618C129.034 18.4867 129.628 18.7037 129.875 18.9444C130.186 19.2485 130.478 19.1911 130.828 18.7572C131.492 17.9345 130.982 17.7359 129.166 18.1109ZM98.1483 18.8975C98.1513 19.1239 98.4391 19.1955 98.788 19.0565C99.1368 18.9171 99.4213 18.7279 99.4201 18.636C99.4189 18.5441 99.1311 18.4725 98.7805 18.477C98.4299 18.4815 98.1454 18.6708 98.1483 18.8975ZM132.148 18.6388C132.149 18.7307 132.448 18.9162 132.813 19.0511C133.193 19.1913 133.363 19.1176 133.211 18.8787C132.956 18.4773 132.144 18.2942 132.148 18.6388ZM142.938 19.3936C142.809 19.745 142.51 19.9166 142.274 19.7745C142.01 19.6158 142.065 19.3729 142.416 19.1433C143.184 18.6427 143.21 18.6551 142.938 19.3936ZM80.3197 20.676C80.3209 20.7679 80.035 20.8469 79.6844 20.8515C79.3338 20.856 79.0446 20.6742 79.0416 20.4474C79.0387 20.221 79.3246 20.142 79.6769 20.272C80.0293 20.4023 80.3185 20.5841 80.3197 20.676ZM43.8633 22.4164C43.1049 22.9628 43.0118 23.2283 43.4123 23.6989C43.6898 24.0255 43.7983 24.2939 43.6525 24.2958C43.5072 24.2977 43.2446 24.3011 43.0695 24.3034C42.8944 24.3056 42.7245 24.1163 42.6921 23.8827C42.5566 22.9014 42.4867 22.8521 42.1023 23.4647C41.8579 23.8547 41.6936 23.9079 41.6854 23.5999C41.6784 23.32 42.195 22.8069 42.8331 22.4599C44.4155 21.599 45.0336 21.5727 43.8633 22.4164ZM60.7844 21.9467C60.7874 22.1807 60.5872 22.3748 60.3398 22.378C60.0925 22.3812 60.0055 22.1908 60.1469 21.955C60.2884 21.7191 60.4882 21.525 60.5915 21.5237C60.6947 21.5223 60.7814 21.7127 60.7844 21.9467ZM76.9496 23.0146C76.1793 23.5272 76.8503 23.5185 78.012 23.0009C78.5694 22.7524 78.64 22.6191 78.2195 22.6093C77.8687 22.6006 77.2973 22.7833 76.9496 23.0146ZM148.341 21.8342C148.342 21.9261 148.641 22.1116 149.006 22.2465C149.386 22.3867 149.555 22.313 149.403 22.0741C149.149 21.6727 148.336 21.4895 148.341 21.8342ZM41.1352 24.0092C41.0318 24.3033 40.7497 24.5044 40.5085 24.4565C40.2669 24.4085 39.9644 24.6537 39.8363 25.0018C39.6318 25.5559 39.7563 25.5531 40.834 24.977C41.7369 24.4946 42.1473 24.4489 42.3738 24.8052C42.5647 25.1057 42.4934 25.1777 42.1879 24.9935C41.9159 24.8302 41.6958 24.8994 41.699 25.1471C41.7022 25.3947 41.3457 25.6023 40.9067 25.608C40.1524 25.6177 38.7952 26.8328 39.1046 27.2216C39.1841 27.321 39.1082 27.5322 38.9364 27.6902C38.7646 27.8486 38.7585 27.7372 38.9225 27.4427C39.1203 27.0878 38.9625 26.9468 38.4538 27.0232C38.0322 27.0869 37.6559 26.9479 37.6176 26.7144C37.5793 26.4808 37.7446 26.3429 37.9847 26.4079C38.2244 26.4729 38.3134 26.256 38.1821 25.9262C38.0508 25.5964 38.1674 25.3476 38.4415 25.3734C38.7155 25.3993 38.938 25.2853 38.9359 25.1198C38.9312 24.7543 40.476 23.5181 40.9691 23.493C41.1641 23.4828 41.2385 23.7155 41.1352 24.0092ZM59.0732 23.8264C58.977 23.9128 58.4229 24.2178 57.8421 24.5041C56.8467 24.9944 56.833 24.9861 57.6026 24.3518C58.2725 23.8002 59.6497 23.3079 59.0732 23.8264ZM146.663 23.5538C146.664 23.6436 147.049 23.8123 147.518 23.9288C147.988 24.0453 148.262 23.9681 148.128 23.7579C147.895 23.3903 146.658 23.2181 146.663 23.5538ZM59.9975 26.8398C60.0003 27.0551 57.6689 28.3704 57.2758 28.3755C57.1471 28.3772 57.0395 28.1756 57.0363 27.9279C57.0331 27.6803 57.1774 27.5656 57.3573 27.6735C57.5368 27.7814 58.1559 27.6002 58.7335 27.2706C59.9322 26.5857 59.9939 26.5645 59.9975 26.8398ZM36.7366 27.9395C37.0052 27.7683 37.0658 27.8552 36.886 28.1546C36.5324 28.7451 35.7756 28.403 35.8146 27.6701C35.8338 27.3073 35.9048 27.314 36.0636 27.6945C36.186 27.987 36.4887 28.0971 36.7366 27.9395ZM64.6805 27.4287C64.3329 27.66 64.2396 27.8468 64.4734 27.8438C64.7071 27.8408 65.1828 27.6491 65.5305 27.4178C65.8781 27.1864 65.9714 26.9997 65.7376 27.0027C65.5039 27.0057 65.0282 27.1974 64.6805 27.4287ZM62.3425 28.2913C62.4835 28.5134 62.8784 28.5836 63.2197 28.4472C64.0937 28.0985 63.9874 27.8632 62.9611 27.8765C62.48 27.8827 62.2015 28.0693 62.3425 28.2913ZM35.7971 28.9117C35.8016 29.2636 34.9789 29.4733 34.7859 29.1694C34.6605 28.9723 34.8364 28.8071 35.1768 28.8027C35.5172 28.7983 35.7963 28.8474 35.7971 28.9117ZM150.543 27.8091C151.132 28.136 151.805 28.401 152.038 28.398C152.272 28.3949 151.982 28.1251 151.393 27.7982C150.804 27.4713 150.132 27.2063 149.898 27.2094C149.664 27.2124 149.954 27.4823 150.543 27.8091ZM29.7613 30.5395C29.4188 31.0704 28.9709 31.5043 28.7656 31.5035C28.5603 31.5028 27.9545 31.9894 27.419 32.5848L26.4456 33.6677L27.3765 32.2892C27.8887 31.531 28.4599 31.0023 28.6462 31.1144C28.8326 31.2265 29.1874 30.927 29.435 30.4493C29.6826 29.9716 29.9971 29.579 30.1344 29.5772C30.2717 29.5754 30.1039 30.0087 29.7613 30.5395ZM57.9082 29.6189C57.9111 29.8393 58.074 30.116 58.2702 30.2339C58.4668 30.3518 58.6239 30.1697 58.6195 29.8289C58.6151 29.4881 58.4521 29.2114 58.257 29.214C58.0624 29.2165 57.9054 29.3985 57.9082 29.6189ZM56.0211 31.366C55.8755 31.6087 56.0468 31.678 56.4231 31.528C57.1555 31.2356 57.2863 30.9287 56.6752 30.9366C56.4551 30.9395 56.1609 31.1327 56.0211 31.366ZM22.9042 32.4504C22.0765 33.0943 21.4022 33.2809 21.3969 32.8682C21.3942 32.6614 23.0072 31.8694 23.5087 31.831C23.6255 31.8223 23.3532 32.1007 22.9042 32.4504ZM39.2561 33.4533C39.2572 33.5435 38.7362 33.9443 38.0987 34.3445L36.9393 35.0723L37.9313 34.1828C38.8994 33.3153 39.2518 33.121 39.2561 33.4533ZM19.0131 35.3885C17.5796 37.1093 17.1656 37.5057 16.9865 37.331C16.8875 37.2344 17.3187 36.5875 17.9443 35.8934C18.5699 35.1989 19.0272 34.47 18.9605 34.2729C18.8937 34.0763 19.0493 34.0416 19.3059 34.1961C19.6186 34.384 19.5217 34.7781 19.0131 35.3885ZM46.6883 34.4395C46.9425 34.8397 45.3371 35.5949 44.6287 35.4083C44.4129 35.3515 44.5048 35.6201 44.8328 36.0057C45.3455 36.6085 45.3291 36.7815 44.7149 37.2435C44.3222 37.5388 44.1434 37.945 44.3177 38.1461C44.4916 38.3469 44.2602 38.2354 43.8031 37.8979C43.0517 37.3433 42.9996 37.3554 43.2599 38.0253C43.4186 38.4331 43.363 38.7687 43.1369 38.7716C42.9104 38.7746 42.7222 38.5536 42.7187 38.2804C42.7152 38.0077 42.5705 37.9295 42.3977 38.1075C42.2249 38.2851 42.1435 38.5313 42.2173 38.6546C42.3429 38.8636 41.6806 39.2879 38.8154 40.834C38.1747 41.1797 37.7602 41.6353 37.8943 41.8468C38.0288 42.0583 37.8404 42.1207 37.4757 41.9863C36.7074 41.7021 36.574 40.9842 37.2875 40.975C37.554 40.9716 38.0418 40.6304 38.3718 40.2163C38.7018 39.8022 38.8535 39.7049 38.7094 39.9991C38.5653 40.2938 38.65 40.5319 38.8973 40.5287C39.1447 40.5255 39.3437 40.2356 39.3391 39.8846C39.3346 39.5336 39.6177 39.2427 39.9683 39.2381C40.3189 39.2336 40.6038 39.072 40.6013 38.8789C40.5988 38.6857 39.928 38.551 39.111 38.579C38.1972 38.6103 37.6276 38.8415 37.6312 39.1798C37.6342 39.4819 37.2736 40.13 36.8294 40.6201C36.0554 41.4735 36.0854 42.9401 36.8666 42.4423C37.074 42.3102 37.2462 42.3842 37.2491 42.6071C37.252 42.8301 36.9592 43.1301 36.5981 43.2743C36.2217 43.4243 36.0504 43.355 36.196 43.1123C36.3358 42.8789 36.1519 42.6919 35.7877 42.6966C35.4235 42.7013 35.1253 42.9448 35.1257 43.2372C35.1259 43.6138 35.013 43.5952 34.7389 43.1745C34.5264 42.8474 34.4613 42.2831 34.5948 41.9209C34.7558 41.4844 34.8971 41.4336 35.0141 41.7708C35.1112 42.05 35.3598 42.2766 35.5668 42.2739C35.7737 42.2713 35.8291 41.9833 35.6903 41.634C35.3639 40.8147 34.8822 40.8376 33.8794 41.7199C33.0431 42.4559 33.153 43.7916 34.0085 43.2873C34.2742 43.1307 34.3444 43.1685 34.1651 43.3708C33.7332 43.8586 32.5255 44.0427 32.8039 43.5782C33.2337 42.8611 32.2332 42.7689 31.6766 43.4745C31.1911 44.0897 31.1956 44.142 31.7053 43.8252C32.1447 43.5523 32.2392 43.6289 32.061 44.1125C31.9275 44.4751 32.0455 45.0226 32.3232 45.3288C32.7277 45.7743 32.7 45.801 32.1855 45.4625C31.3963 44.9437 30.2414 44.9999 30.3446 45.5523C30.3866 45.7751 29.6444 46.532 28.695 47.2337C27.5318 48.0939 27.0535 48.2822 27.2268 47.8119C27.368 47.4283 27.2541 47.0272 26.9739 46.921C26.6932 46.8144 27.0379 46.7495 27.7396 46.7771C28.5982 46.8107 28.9747 46.6432 28.8912 46.2651C28.8231 45.9558 28.9444 45.8095 29.1612 45.9399C29.3779 46.0703 29.6694 45.8678 29.8087 45.4902C29.9918 44.993 29.8798 44.8761 29.4015 45.067C28.8366 45.2926 28.8462 45.1478 29.4701 44.0583C29.9781 43.1721 30.3015 42.9437 30.5374 43.3049C30.8813 43.832 31.0636 43.2079 30.9054 42.0469C30.8679 41.7725 31.03 41.4257 31.2652 41.2754C31.5283 41.1081 31.5864 41.2997 31.4157 41.7735C31.1827 42.4216 31.2406 42.4588 31.7817 42.0075C32.1354 41.7123 32.5829 41.6107 32.776 41.7819C32.9694 41.9526 33.007 41.7687 32.8595 41.3731C32.6715 40.8683 32.7716 40.7201 33.1944 40.876C33.5271 40.9989 34.3042 40.5505 34.9297 39.8743C35.5521 39.2011 35.9007 38.9396 35.7034 39.2932C35.506 39.6469 36.0539 39.384 36.9204 38.7094C38.2219 37.6959 38.6093 37.5739 39.1453 38.0078C39.5027 38.2968 39.7589 38.3578 39.7153 38.143C39.5297 37.23 39.7758 36.7728 40.5717 36.5536C41.038 36.425 41.3147 36.495 41.1861 36.7086C40.835 37.2945 41.3375 37.1726 42.4967 36.3904C43.068 36.0051 43.5367 35.7982 43.5384 35.9309C43.5402 36.0637 44.0416 35.6963 44.6526 35.1144C45.8496 33.9746 46.2982 33.8258 46.6883 34.4395ZM39.9493 37.5315C39.8036 37.7742 39.975 37.8435 40.3513 37.6935C40.7133 37.5488 41.0105 37.6539 41.014 37.9275C41.0175 38.2003 41.2304 38.2899 41.4871 38.1265C41.8121 37.9193 41.7777 37.721 41.3724 37.4709C40.6089 37.0008 40.2584 37.0155 39.9493 37.5315ZM28.9013 39.4105C28.7698 39.63 28.4341 39.7974 28.1555 39.7827C27.7931 39.7635 27.7998 39.6924 28.1799 39.5334C28.472 39.4109 28.582 39.1077 28.4245 38.8596C28.2536 38.5907 28.3404 38.53 28.6394 38.71C28.9152 38.8758 29.0332 39.1909 28.9013 39.4105ZM172.16 41.6825C172.607 42.2048 173.067 42.5355 173.182 42.4178C173.296 42.2997 173.682 42.4373 174.037 42.7234C174.603 43.1783 174.616 43.1202 174.144 42.2594C173.847 41.7186 173.356 41.3751 173.054 41.4956C172.751 41.6165 172.243 41.4941 171.925 41.2242C171.607 40.9538 171.713 41.1601 172.16 41.6825ZM30.3029 44.3987C30.1852 44.5955 30.3585 44.7529 30.6887 44.7486C31.0189 44.7443 31.1881 44.5826 31.0653 44.3888C30.9425 44.1955 30.7688 44.0382 30.6795 44.0393C30.5903 44.0405 30.4206 44.2022 30.3029 44.3987ZM183.617 44.5266C184.341 45.4999 184.811 46.422 184.662 46.575C184.513 46.728 184.21 46.3978 183.988 45.8419C183.766 45.2856 183.071 44.292 182.442 43.6332C181.813 42.9749 181.524 42.5084 181.8 42.5963C182.075 42.6847 182.893 43.5529 183.617 44.5266ZM23.2974 49.0389C23.0063 49.3992 22.6684 49.5968 22.5465 49.478C22.4243 49.3587 22.102 49.4509 21.8304 49.683C21.492 49.9716 21.3336 49.9175 21.3284 49.5111C21.3239 49.1669 21.6453 48.9759 22.0931 49.0561C22.5174 49.1323 22.9736 49.0137 23.1064 48.7924C23.2391 48.5706 23.4556 48.3883 23.587 48.3866C23.7187 48.3849 23.5886 48.6785 23.2974 49.0389ZM26.7053 48.9697C26.7067 49.0782 26.2804 49.4025 25.7583 49.6901C24.8974 50.1638 24.8623 50.1455 25.3826 49.4971C25.9172 48.831 26.6995 48.5191 26.7053 48.9697ZM185.088 47.7713C185.092 48.1121 184.935 48.2941 184.738 48.1762C184.542 48.0583 184.379 47.7817 184.376 47.5613C184.373 47.3409 184.53 47.1588 184.725 47.1563C184.92 47.1538 185.083 47.4304 185.088 47.7713ZM25.8803 50.9103C25.8834 51.1443 25.6831 51.3384 25.4358 51.3416C25.1885 51.3448 25.1014 51.1544 25.2429 50.9186C25.3843 50.6827 25.5842 50.4886 25.6874 50.4872C25.7907 50.4859 25.8773 50.6763 25.8803 50.9103ZM187.822 51.1136C187.824 51.2055 187.529 51.3987 187.168 51.543C186.792 51.693 186.621 51.6237 186.766 51.3809C187.011 50.9731 187.818 50.769 187.822 51.1136ZM197.827 54.7847C198.758 55.448 199.931 58.508 199.446 59.0067C199.257 59.201 198.359 58.656 197.451 57.7957C195.984 56.4052 195.889 56.1992 196.594 55.9411C197.14 55.7413 197.23 55.5559 196.881 55.3459C196.306 55.0001 196.187 54.2429 196.707 54.2361C196.897 54.2337 197.4 54.4804 197.827 54.7847ZM19.1798 58.657C18.8321 58.8883 18.7389 59.0751 18.9726 59.0721C19.2064 59.069 19.682 58.8774 20.0297 58.646C20.3774 58.4147 20.4706 58.228 20.2369 58.231C20.0031 58.234 19.5274 58.4257 19.1798 58.657ZM15.7836 67.8948C15.6443 68.0378 15.2778 68.0579 14.9698 67.9389C14.6289 67.8075 14.7283 67.7054 15.2232 67.6786C15.6708 67.6545 15.9229 67.7517 15.7836 67.8948ZM14.6535 70.2057C14.6566 70.4397 14.9302 70.6277 15.2616 70.6234C15.5931 70.6191 16.1683 70.7279 16.5399 70.8652C16.9178 71.005 17.2127 70.8961 17.2091 70.6187C17.2056 70.3459 17.013 70.2433 16.7811 70.391C16.5493 70.5387 16.3569 70.4565 16.3537 70.2088C16.3505 69.9612 15.9654 69.7632 15.498 69.7692C15.0305 69.7753 14.6505 69.9717 14.6535 70.2057ZM195.944 74.5666C195.362 75.4521 194.521 76.2022 194.077 76.2343C193.48 76.2773 193.731 75.8647 195.045 74.6434C196.02 73.7367 196.86 72.9862 196.912 72.9757C196.963 72.9653 196.528 73.6816 195.944 74.5666ZM192.836 79.4272C191.228 81.4008 190.347 82.0293 190.336 81.2085C190.334 81.0183 190.899 80.305 191.591 79.6232C192.284 78.9415 192.847 78.1486 192.843 77.8606C192.84 77.5729 193.075 77.2486 193.365 77.1397C194.625 76.669 194.443 77.4539 192.836 79.4272ZM205.166 77.558C205.169 77.8056 204.979 77.8932 204.745 77.7524C204.51 77.6111 204.087 78.0362 203.804 78.6969C203.521 79.3572 202.96 80.2705 202.558 80.7264C202.154 81.1848 201.91 81.9821 202.013 82.5097C202.123 83.073 201.952 83.5625 201.598 83.7037C201.268 83.8356 200.995 83.7578 200.992 83.5315C200.989 83.3047 200.775 83.1219 200.517 83.1253C200.258 83.1286 200.159 83.415 200.297 83.7613C200.435 84.1077 200.369 84.3481 200.15 84.2952C199.931 84.2423 198.976 85.0708 198.029 86.1363C197.081 87.2018 196.696 87.5162 197.174 86.8347C197.653 86.1531 198.041 85.3982 198.038 85.157C198.032 84.6919 198.214 84.4683 201.071 81.4158C202.07 80.3497 203.211 78.9463 203.608 78.2977C204.334 77.1108 205.155 76.721 205.166 77.558ZM204.743 79.2772C204.489 79.7686 204.175 80.068 204.047 79.9428C203.692 79.5967 204.237 78.396 204.753 78.3893C205.067 78.3853 205.064 78.6573 204.743 79.2772ZM203.932 80.7708C203.934 80.9048 203.652 81.3051 203.306 81.6606C202.623 82.3622 202.535 82.2604 202.921 81.2141C203.155 80.5782 203.925 80.241 203.932 80.7708ZM6.34162 85.8461C6.34464 86.0801 6.15812 85.9868 5.92707 85.6387C5.69603 85.2906 5.50456 84.8143 5.50154 84.5803C5.49852 84.3463 5.68504 84.4396 5.91608 84.7877C6.14712 85.1358 6.33859 85.6121 6.34162 85.8461ZM200.982 82.7188C200.985 82.9664 201.177 83.0486 201.409 82.9009C201.641 82.7533 201.83 82.5482 201.828 82.4449C201.827 82.3415 201.635 82.2597 201.401 82.2627C201.167 82.2657 200.979 82.4712 200.982 82.7188ZM195.613 88.8133C195.312 89.1223 195.114 89.1499 195.111 88.8836C195.104 88.3156 195.6 87.8057 195.887 88.0863C196.009 88.2056 195.886 88.5327 195.613 88.8133ZM196.29 92.4005C196.136 92.5583 196.013 92.8854 196.016 93.1275C196.019 93.3939 196.217 93.3662 196.518 93.0572C196.791 92.7766 196.914 92.4495 196.792 92.3302C196.67 92.2105 196.443 92.2424 196.29 92.4005ZM179.971 94.8991C179.482 95.3055 179.22 95.7715 179.388 95.9348C179.555 96.0982 179.5 96.173 179.265 96.1011C178.666 95.9169 176.09 97.083 176.096 97.5358C176.099 97.7417 175.623 97.916 175.038 97.9235C174.454 97.9311 173.978 98.1287 173.981 98.3627C173.984 98.5967 173.652 98.7866 173.243 98.785C172.562 98.7819 172.558 98.7462 173.198 98.3609C173.963 97.9004 173.767 96.2423 172.948 96.2419C172.674 96.2416 172.722 96.0746 173.06 95.854C173.733 95.4155 174.797 95.6839 174.805 96.2949C174.808 96.5179 174.617 96.5842 174.382 96.4425C174.146 96.3009 173.957 96.4978 173.962 96.8795C173.968 97.3194 174.243 97.5108 174.713 97.4017C175.121 97.3067 175.406 97.0089 175.347 96.7394C175.282 96.4458 175.522 96.3537 175.945 96.51C176.39 96.6745 176.544 96.6031 176.362 96.3161C176.182 96.0337 176.367 95.9347 176.85 96.0544C177.277 96.1604 177.872 95.9434 178.171 95.5722C178.471 95.2007 178.991 94.8935 179.327 94.8892C179.663 94.8848 179.837 94.723 179.714 94.5297C179.591 94.3359 179.798 94.1737 180.174 94.1688C180.72 94.1618 180.678 94.3095 179.971 94.8991ZM189.845 94.9572C188.804 95.7673 188.364 95.7853 188.652 95.0058C188.865 94.4268 190.068 93.8878 190.473 94.1894C190.574 94.2647 190.291 94.6101 189.845 94.9572ZM175.794 94.8463C175.911 95.0303 175.593 95.2174 175.086 95.2623C174.357 95.327 174.296 95.2589 174.793 94.9354C175.561 94.4352 175.534 94.4373 175.794 94.8463ZM192.642 95.1806C191.736 95.9422 191.719 95.9998 192.517 95.5963C193.027 95.3386 193.559 94.936 193.7 94.7014C194.075 94.0748 193.819 94.1909 192.642 95.1806ZM172.413 95.5253C171.925 95.8159 171.583 96.2974 171.652 96.5948C171.72 96.8922 171.678 96.9426 171.556 96.7063C171.28 96.1677 170.14 97.2744 170.159 98.0627C170.169 98.4843 170.269 98.4668 170.56 97.9937C170.773 97.6467 171.077 97.4899 171.237 97.6453C171.396 97.8012 171.238 98.2245 170.886 98.587C170.311 99.1778 170.195 99.1083 169.762 97.9142C169.497 97.1823 169.328 96.5597 169.387 96.5304C169.446 96.5016 170.159 96.1528 170.973 95.7554C172.692 94.914 173.713 94.7515 172.413 95.5253ZM187.972 95.5767C187.974 95.7818 187.715 96.1733 187.395 96.4459C186.946 96.8292 186.753 96.7904 186.548 96.2743C186.394 95.889 186.461 95.7141 186.705 95.8608C186.938 96.0007 187.126 95.9123 187.123 95.6647C187.12 95.4171 187.308 95.2116 187.542 95.2086C187.776 95.2056 187.969 95.3712 187.972 95.5767ZM168.774 97.0469C168.726 97.2228 168.925 97.7833 169.216 98.2919C169.569 98.9104 169.601 99.3083 169.311 99.4929C169.073 99.6445 168.903 99.6105 168.935 99.4169C169.083 98.4894 168.79 98.1744 167.789 98.1874C166.979 98.1978 166.749 98.3838 166.894 98.9109C167.038 99.4346 166.878 99.5682 166.284 99.4209C165.841 99.3109 165.374 99.0561 165.246 98.8547C165.118 98.653 165.286 98.5895 165.621 98.7129C165.955 98.8362 166.344 98.6256 166.484 98.2442C166.624 97.8632 166.912 97.6548 167.122 97.7815C167.333 97.9077 167.737 97.7233 168.022 97.3711C168.582 96.6779 168.911 96.5357 168.774 97.0469ZM173.115 97.0972C173.118 97.3312 173.036 97.5238 172.933 97.5251C172.83 97.5265 172.625 97.3376 172.478 97.1055C172.33 96.8733 172.412 96.6807 172.66 96.6775C172.907 96.6743 173.112 96.8632 173.115 97.0972ZM172.45 99.1451C172.566 99.3292 172.248 99.5163 171.741 99.5611C171.012 99.6258 170.951 99.5577 171.448 99.2342C172.216 98.7341 172.19 98.7361 172.45 99.1451ZM182.934 100.41L181.882 101.291L183.255 100.598C184.01 100.217 184.626 99.8147 184.625 99.7036C184.619 99.2807 183.946 99.5618 182.934 100.41ZM12.5373 102.789C12.5404 103.023 12.7318 103.499 12.9629 103.847C13.1939 104.195 13.3804 104.288 13.3774 104.054C13.3744 103.82 13.1829 103.344 12.9519 102.996C12.7208 102.648 12.5343 102.555 12.5373 102.789ZM16.5385 103.301C16.5446 103.776 16.6866 104.076 16.8548 103.97C17.0226 103.862 17.3531 104.11 17.5892 104.52C17.8248 104.929 18.1181 105.161 18.2406 105.036C18.3631 104.91 18.0276 104.274 17.4951 103.623C16.6344 102.57 16.5286 102.535 16.5385 103.301ZM163.972 101.258C163.842 101.611 163.66 101.901 163.568 101.902C163.476 101.903 163.398 101.617 163.393 101.266C163.388 100.915 163.57 100.625 163.797 100.622C164.023 100.619 164.102 100.905 163.972 101.258ZM165.265 102.184C164.858 102.49 164.753 102.738 165.031 102.734C165.309 102.73 165.54 102.957 165.544 103.238C165.549 103.633 165.434 103.635 165.038 103.249C164.215 102.445 164.283 101.65 165.177 101.638C165.956 101.628 165.961 101.66 165.265 102.184ZM162.633 104.008C162.393 104.16 162.478 104.596 162.841 105.08C163.387 105.808 163.644 105.687 163.489 104.775C163.459 104.6 163.62 104.454 163.846 104.452C164.072 104.449 164.15 104.113 164.02 103.705C163.888 103.296 164.081 103.438 164.447 104.018C164.813 104.599 165.116 104.834 165.121 104.541C165.125 104.249 165.428 104.006 165.795 104.001C166.287 103.994 166.383 103.743 166.163 103.039C165.869 102.095 165.874 102.094 166.593 102.927C167.191 103.619 167.277 103.638 167.079 103.033C166.871 102.397 166.952 102.367 167.679 102.808C168.142 103.089 168.522 103.476 168.524 103.668C168.527 103.859 168.341 103.903 168.112 103.765C167.883 103.627 167.374 103.9 166.981 104.371C166.589 104.842 166.11 105.133 165.916 105.016C165.722 104.9 165.566 104.987 165.569 105.209C165.574 105.567 164.427 106.044 162.66 106.419C162.338 106.487 161.873 106.751 161.626 107.004C161.062 107.584 159.935 107.627 160.277 107.056C160.426 106.808 160.244 106.747 159.839 106.908C159.345 107.106 159.293 107.271 159.658 107.491C160.05 107.726 160.05 107.873 159.654 108.124C159.367 108.307 158.97 108.194 158.755 107.87C158.432 107.382 158.304 107.392 157.96 107.932C157.735 108.286 157.544 108.371 157.537 108.121C157.521 107.525 159.479 105.78 159.806 106.099C159.945 106.234 160.055 106.098 160.051 105.796C160.045 105.353 160.17 105.349 160.698 105.777C161.245 106.22 161.307 106.193 161.076 105.611C160.922 105.225 161.008 104.914 161.269 104.91C161.528 104.907 161.744 105.191 161.748 105.543C161.753 105.894 161.943 106.178 162.171 106.175C162.422 106.172 162.441 105.795 162.22 105.217C162.018 104.693 161.937 104.017 162.038 103.716C162.14 103.414 162.058 102.927 161.857 102.634C161.656 102.341 161.839 102.472 162.264 102.926C162.701 103.392 162.861 103.863 162.633 104.008ZM174.728 102.809C173.104 103.446 172.474 103.87 172.91 104.031C173.277 104.167 173.638 104.088 173.712 103.856C173.786 103.624 174.274 103.395 174.796 103.35C175.318 103.303 175.743 103.128 175.741 102.959C175.739 102.79 176.262 102.585 176.904 102.502C177.546 102.42 177.878 102.236 177.642 102.093C177.407 101.949 176.096 102.272 174.728 102.809ZM176.813 103.428C176.667 103.671 176.838 103.74 177.215 103.59C177.947 103.298 178.078 102.991 177.467 102.999C177.247 103.002 176.952 103.195 176.813 103.428ZM18.5259 106.754C18.5289 106.988 18.9254 107.175 19.4064 107.168C19.8875 107.162 20.1608 106.967 20.0133 106.735C19.8658 106.503 19.4698 106.316 19.1328 106.321C18.7958 106.325 18.5229 106.52 18.5259 106.754ZM170.267 104.713C170.255 105.019 170.028 105.139 169.761 104.979C169.465 104.801 169.363 104.916 169.499 105.277C169.622 105.6 169.929 105.817 170.183 105.758C170.45 105.696 170.54 105.963 170.395 106.393C170.194 106.991 170.253 107.033 170.696 106.611C171.117 106.21 171.134 105.857 170.768 105.121C170.504 104.59 170.279 104.406 170.267 104.713ZM171.515 104.849C171.518 105.044 171.759 105.203 172.051 105.203C172.429 105.203 172.411 105.315 171.991 105.589C171.568 105.864 171.723 105.952 172.533 105.894C173.466 105.828 173.553 105.733 173.023 105.355C172.668 105.102 172.47 104.801 172.582 104.687C172.694 104.572 172.498 104.481 172.148 104.486C171.797 104.491 171.513 104.654 171.515 104.849ZM167.701 105.725C167.181 106.11 167.211 106.144 167.87 105.919C168.495 105.706 168.571 105.77 168.216 106.21C167.861 106.648 168.014 106.783 168.907 106.817C169.538 106.842 169.813 106.767 169.519 106.652C169.226 106.536 168.982 106.171 168.978 105.839C168.968 105.123 168.564 105.087 167.701 105.725ZM110.488 106.942C110.361 107.154 110.161 107.235 110.045 107.122C109.929 107.009 109.119 107.179 108.245 107.501C107.267 107.86 106.423 107.944 106.054 107.716C105.586 107.428 105.64 107.336 106.303 107.297C107.365 107.236 109.178 106.885 109.351 106.706C109.667 106.382 110.696 106.595 110.488 106.942ZM20.9303 108.786C20.8104 108.986 21.2862 109.686 21.9879 110.341C22.6891 110.997 23.2603 111.32 23.2569 111.059C23.2536 110.798 22.7743 110.22 22.1922 109.773C21.6101 109.326 21.2531 108.839 21.3991 108.689C21.5451 108.539 21.5482 108.417 21.4062 108.419C21.2639 108.421 21.0497 108.586 20.9303 108.786ZM105.499 108.239C105.685 108.531 105.572 108.637 105.209 108.511C104.883 108.399 104.271 108.616 103.85 108.994C103.209 109.568 103.105 109.578 103.213 109.053C103.33 108.485 104.139 107.884 104.903 107.796C105.065 107.778 105.333 107.977 105.499 108.239ZM175.587 107.274C175.442 107.517 175.613 107.586 175.989 107.436C176.722 107.144 176.852 106.837 176.241 106.845C176.021 106.848 175.727 107.041 175.587 107.274ZM102.216 109.767C101.766 110.229 101.463 110.297 101.263 109.982C101.098 109.722 101.259 109.516 101.631 109.511C101.996 109.506 102.291 109.279 102.288 109.006C102.284 108.733 102.415 108.64 102.578 108.799C102.742 108.959 102.579 109.394 102.216 109.767ZM153.295 109.269C153.298 109.503 153.217 109.696 153.114 109.697C153.01 109.698 152.806 109.509 152.658 109.277C152.511 109.045 152.593 108.853 152.84 108.849C153.087 108.846 153.292 109.035 153.295 109.269ZM158.519 109.644C158.401 110.123 158.208 110.421 158.09 110.306C157.857 110.079 158.247 108.779 158.549 108.776C158.651 108.774 158.638 109.165 158.519 109.644ZM100.605 110.375C100.608 110.609 100.419 110.803 100.186 110.806C99.9518 110.809 99.7581 110.62 99.7551 110.386C99.7521 110.152 99.9409 109.958 100.175 109.955C100.408 109.952 100.602 110.141 100.605 110.375ZM163.504 109.833C163.508 110.151 163.781 110.279 164.145 110.134C164.494 109.995 164.778 109.742 164.775 109.572C164.773 109.402 164.485 109.266 164.134 109.271C163.783 109.275 163.5 109.528 163.504 109.833ZM97.3976 111.319C97.1279 111.769 96.3682 111.421 96.3607 110.844C96.358 110.631 96.6427 110.563 96.9938 110.692C97.3448 110.822 97.5266 111.104 97.3976 111.319ZM99.1232 110.82C98.9817 111.056 98.6748 111.251 98.441 111.254C98.2073 111.257 98.1317 111.067 98.2732 110.831C98.4147 110.595 98.7216 110.399 98.9553 110.396C99.189 110.393 99.2646 110.584 99.1232 110.82ZM161.13 110.276C161.284 110.663 161.671 110.847 162.031 110.703C162.974 110.327 162.795 110.749 161.771 111.315C161.225 111.617 160.98 111.637 161.142 111.367C161.288 111.124 160.975 110.63 160.446 110.269C159.72 109.774 159.653 109.612 160.173 109.606C160.55 109.601 160.981 109.903 161.13 110.276ZM27.7368 112.374C28.838 112.365 29.0164 112.523 29.0465 113.534C29.0658 114.177 29.031 114.704 28.9689 114.705C28.9073 114.706 28.5448 114.184 28.1634 113.545C27.7824 112.907 27.5803 112.727 27.7145 113.146C27.9484 113.878 27.9063 113.879 26.679 113.174C25.9755 112.77 25.3979 112.278 25.3953 112.081C25.3928 111.884 25.6319 111.871 25.9263 112.053C26.221 112.235 27.0356 112.379 27.7368 112.374ZM164.786 110.397C164.246 110.757 164.262 110.818 164.898 110.815C165.307 110.813 165.639 110.62 165.636 110.386C165.629 109.867 165.581 109.868 164.786 110.397ZM95.8551 111.779C95.6051 112.563 93.8397 113.108 93.8306 112.404C93.8256 112.014 94.1301 111.895 94.7424 112.047C95.3726 112.204 95.5645 112.122 95.3515 111.787C95.181 111.518 95.2597 111.295 95.5266 111.292C95.7939 111.288 95.9413 111.508 95.8551 111.779ZM106.38 112.346C106.251 112.479 105.906 112.353 105.614 112.065C105.192 111.65 105.24 111.601 105.849 111.824C106.27 111.979 106.509 112.213 106.38 112.346ZM93.2111 112.942C93.0823 113.075 92.7377 112.948 92.4454 112.661C92.0235 112.246 92.0717 112.197 92.6803 112.42C93.1013 112.574 93.3403 112.809 93.2111 112.942ZM99.3545 112.281C99.3559 112.385 99.1673 112.59 98.9354 112.737C98.7035 112.885 98.5112 112.803 98.508 112.555C98.5048 112.308 98.6934 112.102 98.9272 112.099C99.1609 112.096 99.3532 112.178 99.3545 112.281ZM104.457 112.453C104.811 112.675 104.909 112.86 104.675 112.863C104.441 112.866 103.961 112.686 103.607 112.464C103.254 112.242 103.156 112.058 103.389 112.055C103.623 112.052 104.104 112.231 104.457 112.453ZM98.0851 112.723C98.0865 112.827 97.8979 113.032 97.666 113.179C97.4341 113.327 97.2418 113.245 97.2386 112.997C97.2354 112.749 97.424 112.544 97.6577 112.541C97.8915 112.538 98.0838 112.62 98.0851 112.723ZM102.997 113.426C102.606 113.651 102.172 113.724 102.031 113.588C101.891 113.451 102.011 113.336 102.297 113.332C102.584 113.329 102.699 113.138 102.553 112.908C102.398 112.663 102.581 112.599 102.998 112.753C103.657 112.996 103.656 113.044 102.997 113.426ZM89.1749 113.927C88.8406 114.14 88.4701 114.22 88.3518 114.104C88.2334 113.989 88.4101 113.72 88.7444 113.507C89.0787 113.294 89.4492 113.215 89.5676 113.33C89.6859 113.446 89.5092 113.714 89.1749 113.927ZM22.2476 115.183C22.722 115.714 23.689 116.54 24.3965 117.018L25.6828 117.887L24.8203 116.921C24.3459 116.389 23.3789 115.564 22.6714 115.085L21.3851 114.216L22.2476 115.183ZM118.061 113.538C118.601 113.87 118.588 113.967 117.966 114.215C117.566 114.375 117.368 114.707 117.525 114.955C117.683 115.203 117.316 115.043 116.71 114.602C116.104 114.16 115.68 113.722 115.767 113.629C115.855 113.537 116.257 113.723 116.661 114.043C117.308 114.557 117.361 114.538 117.107 113.886C116.788 113.065 117.104 112.949 118.061 113.538ZM86.9382 114.213C86.799 114.356 86.4324 114.376 86.1244 114.257C85.7835 114.126 85.8829 114.024 86.3778 113.997C86.8254 113.973 87.0775 114.07 86.9382 114.213ZM27.5623 115.316C27.5635 115.408 27.8626 115.593 28.2273 115.728C28.6074 115.868 28.7769 115.795 28.625 115.556C28.3703 115.154 27.5579 114.971 27.5623 115.316ZM85.2438 114.661C85.1046 114.804 84.738 114.824 84.43 114.705C84.0891 114.573 84.1886 114.471 84.6834 114.444C85.1311 114.42 85.3831 114.518 85.2438 114.661ZM111.922 114.485C111.78 114.72 111.437 114.913 111.158 114.914C110.854 114.913 110.904 114.745 111.284 114.493C112.094 113.954 112.241 113.952 111.922 114.485ZM113.418 115.129C113.422 115.466 113.275 115.744 113.091 115.746C112.908 115.749 112.753 115.382 112.747 114.931C112.741 114.48 112.888 114.202 113.073 114.313C113.258 114.425 113.413 114.791 113.418 115.129ZM29.5887 116.452C29.881 116.739 30.2256 116.865 30.3544 116.733C30.4836 116.6 30.2447 116.365 29.8236 116.211C29.215 115.988 29.1668 116.037 29.5887 116.452ZM115.314 115.263C115.451 115.479 115.341 115.797 115.07 115.97C114.774 116.158 114.687 116.099 114.854 115.821C115.006 115.567 114.793 115.275 114.38 115.173C113.708 115.007 113.704 114.981 114.346 114.928C114.741 114.896 115.177 115.046 115.314 115.263ZM112.151 115.756C112.481 115.848 110.746 116.564 110.091 116.606C109.638 116.635 109.616 116.509 109.995 116.039C110.408 115.529 111.042 115.445 112.151 115.756ZM55.4043 116.888C55.5419 117.104 55.4611 117.403 55.2255 117.553C54.9898 117.703 54.7933 117.527 54.7886 117.163C54.7789 116.415 55.0325 116.302 55.4043 116.888ZM75.9365 116.944C75.5316 117.056 74.7667 117.069 74.2368 116.974C73.7068 116.88 74.038 116.788 74.9729 116.771C75.9077 116.755 76.3414 116.832 75.9365 116.944ZM27.8276 119.401C28.2565 119.863 28.7034 120.241 28.8203 120.239C28.9371 120.238 28.6814 119.858 28.2526 119.395C27.8237 118.933 27.3768 118.556 27.2599 118.557C27.143 118.559 27.3987 118.938 27.8276 119.401ZM86.1487 118.905C86.0095 119.048 85.6429 119.068 85.3349 118.949C84.994 118.817 85.0935 118.715 85.5883 118.688C86.036 118.664 86.288 118.762 86.1487 118.905ZM137.9 118.405C138.047 118.637 137.965 118.829 137.718 118.833C137.47 118.836 137.265 118.647 137.262 118.413C137.259 118.179 137.341 117.986 137.444 117.985C137.547 117.984 137.752 118.173 137.9 118.405ZM77.6549 119.44C77.5156 119.583 77.1491 119.603 76.8411 119.484C76.5002 119.353 76.5996 119.251 77.0944 119.224C77.5421 119.2 77.7942 119.297 77.6549 119.44ZM84.2511 119.379C83.9607 119.501 83.4826 119.508 83.1887 119.393C82.8952 119.279 83.1328 119.179 83.7171 119.172C84.3015 119.164 84.542 119.258 84.2511 119.379ZM29.7558 120.607C29.7585 120.816 30.0764 121.103 30.4616 121.246C31.048 121.463 31.0735 121.4 30.6173 120.864C29.9958 120.134 29.7488 120.06 29.7558 120.607ZM113.819 119.432C114.127 119.551 114.493 119.531 114.633 119.388C114.772 119.245 114.52 119.148 114.072 119.172C113.577 119.198 113.478 119.301 113.819 119.432ZM127.268 120.203C127.157 120.316 126.732 120.068 126.323 119.652C125.613 118.928 125.622 118.919 126.524 119.445C127.043 119.749 127.378 120.09 127.268 120.203ZM56.6392 120.587C56.3488 120.709 55.8707 120.715 55.5768 120.601C55.2834 120.487 55.5209 120.387 56.1053 120.38C56.6896 120.372 56.9301 120.466 56.6392 120.587ZM79.9067 120.327C79.3237 120.436 78.6573 120.672 78.4258 120.85C77.742 121.376 76.4622 121.772 76.6943 121.385C76.8121 121.189 74.1903 121.048 70.8681 121.071C63.3014 121.126 63.4303 121.132 64.0508 120.735C64.3249 120.56 68.2431 120.351 72.7581 120.272C77.2727 120.193 80.4897 120.218 79.9067 120.327ZM52.2288 120.931C52.1445 120.986 51.7758 121.264 51.4097 121.551C50.8854 121.959 50.7416 121.954 50.7361 121.524C50.7322 121.223 51.1009 120.945 51.5556 120.905C52.0099 120.864 52.3131 120.876 52.2288 120.931ZM54.4185 121.417C54.4191 121.466 54.1359 121.749 53.7891 122.044C53.2774 122.481 53.1569 122.465 53.1505 121.963C53.146 121.622 53.4293 121.34 53.7799 121.335C54.1305 121.331 54.4179 121.367 54.4185 121.417ZM90.8836 121.003C90.4668 121.119 90.2676 121.458 90.4082 121.811C90.681 122.495 89.907 122.663 89.4918 122.009C89.3443 121.777 88.9005 121.606 88.5055 121.63C88.0634 121.656 87.9924 121.753 88.3213 121.88C89.065 122.17 88.9996 122.866 88.2279 122.876C87.8773 122.881 87.588 122.693 87.5849 122.459C87.5819 122.225 87.2443 122.018 86.8352 121.999C85.7379 121.947 89.2925 120.797 90.5388 120.801C91.1823 120.803 91.3185 120.882 90.8836 121.003ZM52.5142 122.061C52.6617 122.293 52.5796 122.486 52.3322 122.489C52.0849 122.492 51.8797 122.303 51.8767 122.069C51.8737 121.835 51.9554 121.643 52.0586 121.641C52.1619 121.64 52.3666 121.829 52.5142 122.061ZM58.3556 121.842C58.0652 121.964 57.5871 121.97 57.2932 121.855C56.9997 121.741 57.2373 121.642 57.8216 121.634C58.4059 121.627 58.6465 121.72 58.3556 121.842ZM103.298 121.405C102.918 121.658 102.868 121.825 103.172 121.826C103.45 121.826 103.794 121.633 103.935 121.397C104.254 120.864 104.107 120.866 103.298 121.405ZM56.1319 122.44C56.1349 122.674 55.9347 122.868 55.6873 122.871C55.44 122.874 55.353 122.684 55.4944 122.448C55.6359 122.212 55.8357 122.018 55.939 122.017C56.0422 122.015 56.1289 122.206 56.1319 122.44ZM63.1264 122.378C62.9753 122.631 62.5827 122.737 62.2543 122.616C61.9254 122.494 61.66 122.643 61.6639 122.946C61.6687 123.317 61.2521 123.441 60.3937 123.327C59.6912 123.233 59.1141 122.975 59.1112 122.753C59.1083 122.532 59.2855 122.459 59.5048 122.591C59.7241 122.723 60.0209 122.634 60.1649 122.395C60.3084 122.155 61.0955 121.95 61.9136 121.94C62.8604 121.927 63.3011 122.087 63.1264 122.378ZM85.6904 122.512C86.1355 123.213 85.7454 123.316 85.127 122.661C84.821 122.337 84.7585 122.07 84.988 122.067C85.2171 122.064 85.5333 122.264 85.6904 122.512ZM95.6593 122.355C94.8087 122.64 94.7679 122.709 95.4514 122.711C95.9189 122.711 96.6818 122.543 97.1467 122.336C98.2235 121.856 97.1063 121.87 95.6593 122.355ZM99.909 122.3C99.071 122.581 99.0278 122.652 99.7009 122.643C100.168 122.637 101.027 122.473 101.609 122.278C102.447 121.997 102.49 121.926 101.817 121.934C101.349 121.94 100.491 122.105 99.909 122.3ZM68.4679 123.208C68.4704 123.4 67.5162 123.569 66.3476 123.585C65.1475 123.6 64.2202 123.418 64.217 123.166C64.2135 122.9 65.0748 122.747 66.3373 122.788C67.5066 122.827 68.4654 123.015 68.4679 123.208ZM76.8547 123.334C75.9741 123.437 74.6354 123.453 73.8799 123.369C73.1239 123.285 73.8445 123.2 75.4807 123.181C77.1168 123.162 77.7349 123.23 76.8547 123.334ZM82.7143 123.799C82.5728 124.035 82.038 124.219 81.5257 124.21C80.6278 124.192 80.6246 124.178 81.4394 123.815C82.6024 123.297 83.0185 123.291 82.7143 123.799ZM84.731 123.629C84.4406 123.751 83.9625 123.757 83.6686 123.643C83.3752 123.528 83.6127 123.429 84.1971 123.421C84.7814 123.414 85.0219 123.507 84.731 123.629ZM37.0324 124.552C37.0336 124.642 37.4187 124.81 37.8878 124.927C38.3573 125.043 38.6321 124.966 38.4981 124.756C38.2646 124.388 37.0281 124.216 37.0324 124.552ZM56.9281 124.422C57.2361 124.541 57.6026 124.521 57.7419 124.378C57.8811 124.235 57.6291 124.138 57.1814 124.162C56.6866 124.189 56.5872 124.291 56.9281 124.422ZM93.0503 123.956C93.3583 124.075 93.7248 124.055 93.8641 123.912C94.0034 123.769 93.7513 123.671 93.3036 123.696C92.8088 123.722 92.7094 123.825 93.0503 123.956ZM39.1655 125.163C39.1679 125.345 39.8422 125.692 40.6635 125.933C41.4853 126.174 42.0601 126.218 41.9408 126.03C41.6288 125.538 39.1604 124.768 39.1655 125.163ZM77.416 124.931C77.4205 125.285 77.0464 125.574 76.5743 125.58C76.1068 125.586 75.7216 125.379 75.7183 125.12C75.7149 124.861 76.0004 124.756 76.3528 124.886C76.7051 125.016 76.991 124.937 76.9881 124.711C76.9851 124.484 77.0784 124.297 77.1952 124.296C77.3121 124.294 77.4114 124.58 77.416 124.931ZM89.8437 124.571C88.5822 125.098 88.6386 125.356 89.9566 125.086C90.5395 124.967 91.0142 124.7 91.0115 124.493C91.0088 124.286 90.9588 124.13 90.9008 124.145C90.8427 124.161 90.367 124.353 89.8437 124.571ZM50.9626 125.342C51.2565 125.456 51.7346 125.45 52.0251 125.328C52.3159 125.206 52.0754 125.113 51.4911 125.12C50.9068 125.128 50.6692 125.228 50.9626 125.342ZM58.9376 125.305C58.8256 125.421 58.1564 125.506 57.4503 125.495C56.3365 125.478 56.2486 125.554 56.7841 126.077C57.4793 126.755 58.933 126.891 58.5187 126.239C58.3711 126.007 58.633 125.812 59.1005 125.806C59.5679 125.8 60.0469 125.634 60.1647 125.438C60.3898 125.062 59.2895 124.944 58.9376 125.305ZM73.1691 125.305C73.1723 125.481 72.1227 125.638 70.8372 125.654C69.5517 125.671 68.498 125.541 68.4958 125.365C68.4935 125.19 69.5426 125.033 70.8277 125.016C72.1124 125 73.166 125.129 73.1691 125.305ZM74.2314 125.185C74.379 125.417 74.2969 125.61 74.0495 125.613C73.8022 125.616 73.597 125.427 73.594 125.193C73.591 124.959 73.6726 124.767 73.7759 124.765C73.8792 124.764 74.0839 124.953 74.2314 125.185ZM53.8385 125.874C53.6921 126.118 54.0603 126.297 54.694 126.288C55.3276 126.28 55.6911 126.092 55.5384 125.852C55.3909 125.62 55.0059 125.433 54.683 125.437C54.36 125.442 53.98 125.638 53.8385 125.874ZM83.8971 125.565C84.1169 126.199 85.0874 126.536 85.0802 125.977C85.0772 125.748 84.7703 125.449 84.3983 125.312C83.9828 125.158 83.7893 125.256 83.8971 125.565ZM80.8501 127.551C80.8534 127.806 80.5228 128.108 80.1149 128.22C79.4466 128.404 79.4444 128.428 80.093 128.464C80.8603 128.507 81.5324 127.757 81.1024 127.338C80.9603 127.199 80.8468 127.295 80.8501 127.551ZM127.598 127.089C127.601 127.301 127.844 127.471 128.139 127.468C128.433 127.464 129.167 127.885 129.769 128.404C131.141 129.586 133.459 130.803 134.318 130.792C135.137 130.782 129.856 127.247 128.553 126.934C128.025 126.807 127.596 126.877 127.598 127.089ZM76.3752 129.356C76.5913 129.696 78.7498 129.481 78.7452 129.12C78.744 129.03 78.1579 128.964 77.4431 128.974C76.7283 128.983 76.2477 129.155 76.3752 129.356ZM149.552 132.293C149.704 132.532 149.534 132.606 149.154 132.465C148.415 132.192 148.276 131.889 148.887 131.881C149.107 131.878 149.406 132.063 149.552 132.293ZM140.026 134.974C140.029 135.208 140.234 135.397 140.482 135.394C140.729 135.391 140.811 135.198 140.664 134.966C140.516 134.734 140.311 134.545 140.208 134.546C140.105 134.548 140.023 134.74 140.026 134.974ZM155.295 135.096C155.646 135.681 155.742 135.702 155.756 135.197C155.772 134.629 155.833 134.628 156.302 135.19C156.592 135.537 157.116 135.879 157.467 135.949C158.737 136.206 158.943 136.864 157.726 136.779C157.065 136.733 156.433 136.466 156.322 136.187C156.211 135.908 155.736 135.759 155.266 135.855C154.672 135.978 154.48 135.85 154.633 135.435C154.754 135.106 154.623 134.748 154.343 134.638C153.95 134.483 153.95 134.428 154.343 134.397C154.623 134.375 155.052 134.69 155.295 135.096ZM162.592 138.5C162.594 138.925 162.484 138.988 162.276 138.681C162.101 138.422 161.526 138.081 160.997 137.924C160.469 137.766 160.035 137.476 160.033 137.277C160.03 137.079 160.605 137.127 161.309 137.383C162.014 137.639 162.591 138.141 162.592 138.5ZM157.403 139.909C157.695 140.197 158.04 140.323 158.169 140.19C158.298 140.057 158.059 139.823 157.638 139.668C157.029 139.445 156.981 139.494 157.403 139.909ZM158.795 140.193C158.802 140.7 158.982 141.113 159.195 141.11C159.627 141.104 159.548 140.017 159.083 139.563C158.918 139.403 158.789 139.686 158.795 140.193ZM160.073 140.41C160.078 140.761 160.274 141.164 160.51 141.306C160.745 141.448 160.935 141.276 160.93 140.925C160.925 140.574 160.729 140.171 160.493 140.029C160.258 139.888 160.069 140.059 160.073 140.41ZM164.392 143.117C164.421 143.585 164.504 143.63 164.648 143.256C164.822 142.805 164.986 142.803 165.546 143.244C166.064 143.653 166.151 143.657 165.905 143.258C165.725 142.968 165.765 142.727 165.993 142.724C166.221 142.722 166.478 142.921 166.564 143.167C166.649 143.414 167.048 143.484 167.451 143.323C168.709 142.821 168.249 142.485 166.262 142.455C164.746 142.432 164.358 142.569 164.392 143.117Z" fill="#F9B719"/>
</svg>
