<svg width="67" height="66" viewBox="0 0 67 66" fill="none" xmlns="http://www.w3.org/2000/svg">
<path fill-rule="evenodd" clip-rule="evenodd" d="M6.15845 34.7904C8.21945 26.4104 8.08448 18.3404 8.33148 9.84042C8.37948 8.18042 7.07547 6.80033 5.42047 6.75033C3.76447 6.70033 2.38244 8.01038 2.33344 9.67038C2.09943 17.7304 2.28846 25.4003 0.332457 33.3603C-0.0635431 34.9703 0.921478 36.6003 2.52948 36.9903C4.13648 37.3903 5.76345 36.4004 6.15845 34.7904Z" fill="white"/>
<path fill-rule="evenodd" clip-rule="evenodd" d="M23.6685 51.0307C37.6505 38.2507 50.8245 21.8108 60.0325 5.21079C60.8355 3.76079 60.3125 1.93071 58.8645 1.13071C57.4165 0.330715 55.5885 0.850757 54.7855 2.30076C45.8815 18.3508 33.1405 34.2508 19.6205 46.6008C18.3985 47.7208 18.3135 49.6208 19.4305 50.8408C20.5475 52.0608 22.4465 52.1507 23.6685 51.0307Z" fill="white"/>
<path fill-rule="evenodd" clip-rule="evenodd" d="M27.2104 64.9909C39.9984 67.1009 53.1794 63.5009 64.8074 58.4109C66.3244 57.7409 67.0164 55.971 66.3534 54.461C65.6894 52.941 63.9184 52.2509 62.4014 52.9109C51.8114 57.5509 39.8344 60.991 28.1874 59.071C26.5534 58.801 25.0084 59.9109 24.7394 61.5409C24.4694 63.1709 25.5774 64.7209 27.2104 64.9909Z" fill="white"/>
</svg>
