<svg width="34" height="34" viewBox="0 0 34 34" fill="none" xmlns="http://www.w3.org/2000/svg">
<path d="M30.333 16.9999C30.333 14.3628 29.551 11.785 28.0859 9.59232C26.6209 7.39966 24.5385 5.69069 22.1021 4.68153C19.6658 3.67236 16.9849 3.40831 14.3985 3.92278C11.8121 4.43725 9.43629 5.70713 7.57159 7.57183C5.70689 9.43653 4.43702 11.8123 3.92255 14.3987C3.40808 16.9851 3.67212 19.666 4.68129 22.1024C5.69046 24.5387 7.39942 26.6211 9.59208 28.0862C11.7847 29.5513 14.3626 30.3333 16.9997 30.3333C20.5359 30.3333 23.9273 28.9285 26.4278 26.428C28.9283 23.9275 30.333 20.5361 30.333 16.9999ZM33.6663 16.9999C33.6663 20.2963 32.6889 23.5186 30.8575 26.2594C29.0261 29.0002 26.4232 31.1365 23.3777 32.3979C20.3323 33.6594 16.9812 33.9894 13.7482 33.3463C10.5152 32.7033 7.54544 31.1159 5.21457 28.785C2.88369 26.4542 1.29635 23.4844 0.653261 20.2514C0.0101736 17.0184 0.340229 13.6673 1.60169 10.6219C2.86315 7.57643 4.99936 4.97345 7.74018 3.14209C10.481 1.31073 13.7033 0.333252 16.9997 0.333252C19.1884 0.333252 21.3556 0.764348 23.3777 1.60193C25.3998 2.4395 27.2372 3.66716 28.7848 5.21481C30.3324 6.76245 31.5601 8.59977 32.3977 10.6219C33.2353 12.644 33.6663 14.8112 33.6663 16.9999ZM22.833 10.3333C23.3275 10.3333 23.8108 10.4799 24.2219 10.7546C24.6331 11.0293 24.9535 11.4197 25.1427 11.8765C25.3319 12.3334 25.3814 12.836 25.285 13.321C25.1885 13.8059 24.9504 14.2514 24.6008 14.601C24.2512 14.9507 23.8057 15.1888 23.3207 15.2852C22.8358 15.3817 22.3331 15.3322 21.8763 15.143C21.4195 14.9537 21.029 14.6333 20.7543 14.2222C20.4796 13.8111 20.333 13.3277 20.333 12.8333C20.3499 12.1755 20.6187 11.5494 21.0839 11.0842C21.5492 10.6189 22.1753 10.3501 22.833 10.3333ZM13.6663 12.8333C13.6663 13.3277 13.5197 13.8111 13.245 14.2222C12.9703 14.6333 12.5799 14.9537 12.1231 15.143C11.6662 15.3322 11.1636 15.3817 10.6786 15.2852C10.1937 15.1888 9.74821 14.9507 9.39858 14.601C9.04895 14.2514 8.81085 13.8059 8.71439 13.321C8.61792 12.836 8.66743 12.3334 8.85665 11.8765C9.04587 11.4197 9.3663 11.0293 9.77742 10.7546C10.1885 10.4799 10.6719 10.3333 11.1663 10.3333C11.8241 10.3501 12.4502 10.6189 12.9154 11.0842C13.3807 11.5494 13.6495 12.1755 13.6663 12.8333ZM25.333 21.9999H18.6663C17.4944 21.9982 16.3428 22.3054 15.3274 22.8906C14.3121 23.4758 13.469 24.3183 12.883 25.3333L9.99968 23.6666C10.8779 22.1455 12.1413 20.8825 13.6627 20.0047C15.1841 19.127 16.9099 18.6655 18.6663 18.6666H25.333V21.9999Z" fill="white"/>
</svg>
