<svg width="144" height="143" viewBox="0 0 144 143" fill="none" xmlns="http://www.w3.org/2000/svg">
<path fill-rule="evenodd" clip-rule="evenodd" d="M82.0242 5.26454C77.3596 -1.66044 67.1676 -1.66044 62.503 5.26454C59.2218 10.1358 52.8292 11.8312 47.5525 9.25212C40.0665 5.59317 31.2209 10.666 30.6551 18.9792C30.2566 24.8336 25.568 29.4955 19.7134 29.8915C11.4052 30.4535 6.27829 39.2685 9.95323 46.7408C12.542 52.0047 10.8335 58.3731 5.95889 61.6364C-0.970674 66.2753 -0.970673 76.4683 5.95889 81.1072C10.8335 84.3705 12.542 90.7389 9.95323 96.0028C6.27829 103.475 11.4052 112.29 19.7134 112.852C25.568 113.248 30.2566 117.91 30.6551 123.764C31.2209 132.078 40.0665 137.15 47.5525 133.491C52.8292 130.912 59.2218 132.608 62.503 137.479C67.1676 144.404 77.3596 144.404 82.0242 137.479C85.3055 132.608 91.698 130.912 96.9747 133.491C104.461 137.15 113.306 132.078 113.872 123.764C114.271 117.91 118.959 113.248 124.814 112.852C133.122 112.29 138.249 103.475 134.574 96.0028C131.985 90.7389 133.694 84.3705 138.568 81.1072C145.498 76.4683 145.498 66.2753 138.568 61.6364C133.694 58.3731 131.985 52.0047 134.574 46.7408C138.249 39.2685 133.122 30.4535 124.814 29.8915C118.959 29.4955 114.271 24.8336 113.872 18.9792C113.306 10.666 104.461 5.59317 96.9747 9.25212C91.698 11.8312 85.3055 10.1358 82.0242 5.26454ZM21.3304 105.839C23.563 105.839 25.3728 104.035 25.3728 101.809C25.3728 99.5837 23.563 97.7795 21.3304 97.7795C19.0979 97.7795 17.2881 99.5837 17.2881 101.809C17.2881 104.035 19.0979 105.839 21.3304 105.839Z" fill="#443434"/>
<path d="M49.9588 43.4264H52.5059V50.7094H54.7478V43.4264H57.3081V41.4232H49.9588V43.4264ZM59.5068 46.0663C59.5068 45.518 59.6129 45.036 59.8252 44.6203C60.0463 44.1958 60.3514 43.8642 60.7405 43.6254C61.1385 43.3866 61.6028 43.2672 62.1335 43.2672C62.6729 43.2672 63.1373 43.3866 63.5264 43.6254C63.9155 43.8642 64.2162 44.1958 64.4285 44.6203C64.6407 45.036 64.7468 45.518 64.7468 46.0663C64.7468 46.6146 64.6363 47.101 64.4152 47.5255C64.2029 47.9412 63.8978 48.2684 63.4999 48.5072C63.1107 48.746 62.6553 48.8654 62.1335 48.8654C61.6028 48.8654 61.1385 48.746 60.7405 48.5072C60.3514 48.2684 60.0463 47.9412 59.8252 47.5255C59.6129 47.101 59.5068 46.6146 59.5068 46.0663ZM57.1322 46.0663C57.1322 46.7827 57.2516 47.4415 57.4904 48.0429C57.738 48.6443 58.083 49.1661 58.5251 49.6083C58.9762 50.0505 59.5068 50.3954 60.1171 50.643C60.7273 50.8818 61.3994 51.0012 62.1335 51.0012C62.8587 51.0012 63.5264 50.8818 64.1366 50.643C64.7468 50.3954 65.2731 50.0505 65.7153 49.6083C66.1663 49.1661 66.5112 48.6443 66.75 48.0429C66.9976 47.4415 67.1214 46.7827 67.1214 46.0663C67.1214 45.3499 66.9976 44.6955 66.75 44.1029C66.5024 43.5104 66.153 42.9975 65.702 42.5641C65.2509 42.1308 64.7203 41.7991 64.1101 41.5692C63.5087 41.3304 62.8498 41.211 62.1335 41.211C61.426 41.211 60.7671 41.3304 60.1569 41.5692C59.5466 41.7991 59.016 42.1308 58.5649 42.5641C58.1139 42.9975 57.7601 43.5104 57.5037 44.1029C57.256 44.6955 57.1322 45.3499 57.1322 46.0663ZM74.4613 43.4264V50.7094H76.743V41.4232H68.6376V50.7094H70.9193V43.4264H74.4613ZM77.8771 48.4276H80.6894V46.6898H77.8771V48.4276ZM81.6536 44.1029L83.9486 43.5325V50.7094H86.1109V41.2508L81.6536 42.1529V44.1029ZM90.194 46.0663C90.194 45.6329 90.2338 45.2394 90.3134 44.8856C90.393 44.523 90.508 44.2179 90.6583 43.9703C90.8087 43.7138 90.9855 43.5192 91.1889 43.3866C91.4012 43.2451 91.6356 43.1743 91.892 43.1743C92.1485 43.1743 92.3785 43.2451 92.5819 43.3866C92.7941 43.5192 92.9754 43.7138 93.1258 43.9703C93.2761 44.2179 93.3911 44.523 93.4707 44.8856C93.5503 45.2394 93.5901 45.6329 93.5901 46.0663C93.5901 46.4996 93.5503 46.8976 93.4707 47.2602C93.3911 47.614 93.2761 47.9191 93.1258 48.1756C92.9754 48.4232 92.7941 48.6178 92.5819 48.7593C92.3785 48.8919 92.1485 48.9583 91.892 48.9583C91.6356 48.9583 91.4012 48.8919 91.1889 48.7593C90.9855 48.6178 90.8087 48.4232 90.6583 48.1756C90.508 47.9191 90.393 47.614 90.3134 47.2602C90.2338 46.8976 90.194 46.4996 90.194 46.0663ZM88.0317 46.0663C88.0317 47.0745 88.1909 47.9368 88.5092 48.6531C88.8365 49.3695 89.2919 49.9222 89.8756 50.3114C90.4593 50.6917 91.1315 50.8818 91.892 50.8818C92.688 50.8818 93.3734 50.6917 93.9482 50.3114C94.5231 49.9222 94.9653 49.3695 95.2748 48.6531C95.5932 47.9368 95.7524 47.0745 95.7524 46.0663C95.7524 45.0581 95.5932 44.1958 95.2748 43.4794C94.9653 42.7631 94.5231 42.2148 93.9482 41.8345C93.3734 41.4453 92.688 41.2508 91.892 41.2508C91.1315 41.2508 90.4593 41.4453 89.8756 41.8345C89.2919 42.2148 88.8365 42.7631 88.5092 43.4794C88.1909 44.1958 88.0317 45.0581 88.0317 46.0663ZM54.2115 57.607H48.1622V63.7094H50.099V59.3449H52.2879V63.7094H54.2115V57.607ZM57.3448 61.8919C57.3448 61.7239 57.3846 61.5824 57.4642 61.4674C57.5526 61.3524 57.6764 61.264 57.8356 61.2021C58.0037 61.1313 58.2027 61.096 58.4326 61.096C58.7775 61.096 59.0694 61.1402 59.3081 61.2286C59.5558 61.3082 59.7946 61.432 60.0245 61.6001V60.6582C59.9361 60.5609 59.7857 60.4636 59.5735 60.3664C59.37 60.2602 59.1268 60.1762 58.8438 60.1143C58.5697 60.0435 58.2778 60.0082 57.9683 60.0082C57.4377 60.0082 56.9733 60.0878 56.5754 60.247C56.1774 60.4061 55.8679 60.6317 55.6468 60.9235C55.4345 61.2154 55.3284 61.5647 55.3284 61.9715C55.3284 62.3695 55.4212 62.71 55.607 62.993C55.8015 63.2672 56.0668 63.4794 56.4029 63.6298C56.739 63.7713 57.1193 63.842 57.5438 63.842C57.9683 63.842 58.3486 63.7713 58.6846 63.6298C59.0296 63.4794 59.2993 63.2672 59.4939 62.993C59.6973 62.71 59.799 62.3739 59.799 61.9848L59.5867 61.2419C59.5867 61.5691 59.5248 61.8256 59.401 62.0113C59.2772 62.197 59.1092 62.3297 58.8969 62.4093C58.6935 62.4889 58.468 62.5287 58.2203 62.5287C58.07 62.5287 57.9241 62.5066 57.7826 62.4624C57.6499 62.4093 57.5438 62.3385 57.4642 62.2501C57.3846 62.1528 57.3448 62.0334 57.3448 61.8919ZM56.5621 59.4908C56.6594 59.4289 56.8053 59.3581 56.9999 59.2785C57.1944 59.1901 57.42 59.1149 57.6764 59.053C57.9418 58.9911 58.2203 58.9602 58.5122 58.9602C58.8483 58.9602 59.1092 59.0398 59.2949 59.199C59.4894 59.3493 59.5867 59.5527 59.5867 59.8092V63.7094H61.5103V59.4112C61.5103 58.9867 61.3865 58.6285 61.1388 58.3367C60.9 58.0448 60.564 57.8237 60.1306 57.6734C59.7061 57.5142 59.2197 57.4346 58.6714 57.4346C58.1231 57.4346 57.6057 57.5098 57.1193 57.6601C56.6417 57.8105 56.2305 57.9696 55.8855 58.1377L56.5621 59.4908ZM64.9985 66.6278V57.607H62.9953V66.6278H64.9985ZM69.9864 60.6582C69.9864 59.9418 69.8449 59.3449 69.5619 58.8673C69.2878 58.3809 68.9296 58.0139 68.4874 57.7662C68.054 57.5186 67.5853 57.3948 67.0812 57.3948C66.5506 57.3948 66.0907 57.5319 65.7016 57.806C65.3213 58.0714 65.0294 58.4472 64.826 58.9336C64.6226 59.4201 64.5209 59.9949 64.5209 60.6582C64.5209 61.3126 64.6226 61.8875 64.826 62.3828C65.0294 62.8692 65.3213 63.2495 65.7016 63.5236C66.0907 63.7889 66.5506 63.9216 67.0812 63.9216C67.5853 63.9216 68.054 63.7978 68.4874 63.5502C68.9296 63.3025 69.2878 62.9355 69.5619 62.4491C69.8449 61.9627 69.9864 61.3657 69.9864 60.6582ZM67.8772 60.6582C67.8772 60.9766 67.8108 61.2463 67.6782 61.4674C67.5455 61.6885 67.3686 61.8565 67.1475 61.9715C66.9264 62.0865 66.6832 62.144 66.4179 62.144C66.188 62.144 65.9625 62.0909 65.7414 61.9848C65.5291 61.8698 65.3522 61.7018 65.2107 61.4807C65.0692 61.2596 64.9985 60.9854 64.9985 60.6582C64.9985 60.331 65.0692 60.0568 65.2107 59.8357C65.3522 59.6146 65.5291 59.451 65.7414 59.3449C65.9625 59.2299 66.188 59.1724 66.4179 59.1724C66.6832 59.1724 66.9264 59.2299 67.1475 59.3449C67.3686 59.4598 67.5455 59.6279 67.6782 59.849C67.8108 60.0701 67.8772 60.3398 67.8772 60.6582ZM70.4798 57.607V59.2653H74.7646V57.607H70.4798ZM71.6604 57.8724V63.7094H73.584V57.8724H71.6604ZM76.2373 61.2419H81.1722V59.7429H76.2373V61.2419ZM80.2701 57.607V63.7094H82.1936V57.607H80.2701ZM75.6138 57.607V63.7094H77.5506V57.607H75.6138ZM84.5448 61.0827H90.1165C90.1342 60.9766 90.143 60.8793 90.143 60.7909C90.143 60.6936 90.143 60.6184 90.143 60.5653C90.143 59.9197 90.0148 59.367 89.7583 58.9071C89.5107 58.4472 89.1437 58.0935 88.6572 57.8458C88.1708 57.5982 87.5694 57.4744 86.8531 57.4744C86.1898 57.4744 85.6193 57.5805 85.1418 57.7928C84.6731 58.005 84.2972 58.3013 84.0142 58.6816C83.74 59.0619 83.5587 59.5041 83.4703 60.0082C83.4526 60.1143 83.4393 60.2204 83.4305 60.3266C83.4216 60.4327 83.4172 60.5432 83.4172 60.6582C83.4172 61.2684 83.5499 61.8168 83.8152 62.3032C84.0894 62.7807 84.4829 63.1566 84.9959 63.4308C85.5176 63.7049 86.1456 63.842 86.8796 63.842C87.4722 63.842 87.9718 63.7713 88.3787 63.6298C88.7943 63.4794 89.1437 63.2716 89.4267 63.0063C89.7097 62.7321 89.9529 62.4093 90.1563 62.0379L88.3654 61.6001C88.2681 61.7681 88.1487 61.914 88.0072 62.0379C87.8657 62.1528 87.6977 62.2413 87.5031 62.3032C87.3174 62.3651 87.1007 62.396 86.8531 62.396C86.5966 62.396 86.3578 62.3385 86.1367 62.2236C85.9245 62.1086 85.752 61.9229 85.6193 61.6664C85.4955 61.4099 85.4336 61.0739 85.4336 60.6582L85.4602 60.3398C85.4602 60.0126 85.5176 59.7384 85.6326 59.5173C85.7476 59.2874 85.9024 59.1149 86.0969 59C86.3003 58.8761 86.5391 58.8142 86.8133 58.8142C87.0521 58.8142 87.2511 58.8629 87.4102 58.9602C87.5783 59.0486 87.7065 59.1768 87.795 59.3449C87.8922 59.5129 87.9586 59.7207 87.9939 59.9684H84.5448V61.0827ZM87.3041 55.5906C87.3041 55.9002 87.4147 56.1566 87.6358 56.3601C87.8657 56.5635 88.1443 56.6652 88.4715 56.6652C88.7899 56.6652 89.0641 56.5635 89.294 56.3601C89.5239 56.1566 89.6389 55.9002 89.6389 55.5906C89.6389 55.2723 89.5239 55.0114 89.294 54.8079C89.0641 54.6045 88.7899 54.5028 88.4715 54.5028C88.1443 54.5028 87.8657 54.6045 87.6358 54.8079C87.4147 55.0114 87.3041 55.2723 87.3041 55.5906ZM84.0672 55.5906C84.0672 55.9002 84.1822 56.1566 84.4122 56.3601C84.6421 56.5635 84.9163 56.6652 85.2346 56.6652C85.5619 56.6652 85.836 56.5635 86.0571 56.3601C86.2871 56.1566 86.402 55.9002 86.402 55.5906C86.402 55.2723 86.2871 55.0114 86.0571 54.8079C85.836 54.6045 85.5619 54.5028 85.2346 54.5028C84.9163 54.5028 84.6421 54.6045 84.4122 54.8079C84.1822 55.0114 84.0672 55.2723 84.0672 55.5906ZM93.3957 66.6278V57.607H91.3926V66.6278H93.3957ZM98.3837 60.6582C98.3837 59.9418 98.2422 59.3449 97.9592 58.8673C97.685 58.3809 97.3269 58.0139 96.8847 57.7662C96.4513 57.5186 95.9826 57.3948 95.4785 57.3948C94.9478 57.3948 94.488 57.5319 94.0988 57.806C93.7185 58.0714 93.4267 58.4472 93.2233 58.9336C93.0199 59.4201 92.9182 59.9949 92.9182 60.6582C92.9182 61.3126 93.0199 61.8875 93.2233 62.3828C93.4267 62.8692 93.7185 63.2495 94.0988 63.5236C94.488 63.7889 94.9478 63.9216 95.4785 63.9216C95.9826 63.9216 96.4513 63.7978 96.8847 63.5502C97.3269 63.3025 97.685 62.9355 97.9592 62.4491C98.2422 61.9627 98.3837 61.3657 98.3837 60.6582ZM96.2744 60.6582C96.2744 60.9766 96.2081 61.2463 96.0754 61.4674C95.9428 61.6885 95.7659 61.8565 95.5448 61.9715C95.3237 62.0865 95.0805 62.144 94.8152 62.144C94.5852 62.144 94.3597 62.0909 94.1386 61.9848C93.9264 61.8698 93.7495 61.7018 93.608 61.4807C93.4665 61.2596 93.3957 60.9854 93.3957 60.6582C93.3957 60.331 93.4665 60.0568 93.608 59.8357C93.7495 59.6146 93.9264 59.451 94.1386 59.3449C94.3597 59.2299 94.5852 59.1724 94.8152 59.1724C95.0805 59.1724 95.3237 59.2299 95.5448 59.3449C95.7659 59.4598 95.9428 59.6279 96.0754 59.849C96.2081 60.0701 96.2744 60.3398 96.2744 60.6582Z" fill="white"/>
<g clip-path="url(#clip0_477_4000)">
<path d="M117.763 83.4541L112.321 78.3176L110.781 79.8341L114.58 83.4541L110.781 87.1231L112.321 88.6395L117.763 83.4541Z" fill="#DC6655"/>
<path d="M31.2623 88.4925C30.1843 88.4925 29.2602 88.2969 28.6955 87.8566C27.7715 87.2206 27.4121 86.389 27.4121 85.1171V75.6268H29.7222V78.5619H33.0591V80.7144H29.7222V84.7258C29.7222 85.5085 29.8763 85.8998 30.2869 86.1444C30.5436 86.2912 31.0057 86.389 31.7244 86.389C32.1864 86.389 33.0591 86.3401 33.0591 86.3401V88.3458C33.0591 88.3458 32.2377 88.4925 31.2623 88.4925ZM94.406 86.4869C93.3792 87.9055 91.8905 88.6393 89.8882 88.6393C88.2457 88.6393 86.8596 88.1501 85.8328 87.1717C84.806 86.1933 84.2928 84.9704 84.2928 83.5028C84.2928 82.0352 84.806 80.8122 85.8328 79.8339C86.8596 78.8555 88.1432 78.3663 89.7344 78.3663C91.2231 78.3663 92.4554 78.8555 93.4304 79.8828C94.406 80.8612 94.8679 82.1331 94.8679 83.5517C94.8679 84.0898 94.7653 84.4812 94.7653 84.4812H86.757C86.9108 85.1661 87.2702 85.6552 87.8351 86.0466C88.3995 86.4379 89.1182 86.6336 89.94 86.6336C91.0693 86.6336 91.9418 86.2423 92.5067 85.4595L94.406 86.4869ZM86.757 82.5733H92.5067C92.3524 81.8395 92.0443 81.3015 91.5312 80.9101C91.018 80.5187 90.4018 80.323 89.6831 80.323C88.9132 80.323 88.2457 80.5187 87.732 80.959C87.2702 81.3993 86.9108 81.9374 86.757 82.5733ZM67.5571 86.4869C66.5304 87.9055 65.0416 88.6393 63.0395 88.6393C61.3967 88.6393 60.0107 88.1501 58.9839 87.1717C57.9572 86.1933 57.4438 84.9704 57.4438 83.5028C57.4438 82.0352 57.9572 80.8122 58.9839 79.8339C60.0107 78.8555 61.2941 78.3663 62.8855 78.3663C64.3742 78.3663 65.6063 78.8555 66.5817 79.8828C67.5571 80.8612 68.0191 82.1331 68.0191 83.5517C68.0191 84.0898 67.9165 84.4812 67.9165 84.4812H59.908C60.062 85.1661 60.4213 85.6552 60.9861 86.0466C61.5508 86.4379 62.2695 86.6336 63.0909 86.6336C64.2202 86.6336 65.0929 86.2423 65.6577 85.4595L67.5571 86.4869ZM59.908 82.5733H65.6577C65.5037 81.8395 65.1956 81.3015 64.6823 80.9101C64.1689 80.5187 63.5529 80.323 62.8341 80.323C62.0641 80.323 61.3967 80.5187 60.8834 80.959C60.37 81.3993 60.062 81.9374 59.908 82.5733ZM38.1928 76.3606C38.1928 75.6268 37.5767 75.0398 36.8067 75.0398C36.0366 75.0398 35.4206 75.6268 35.4206 76.3606C35.4206 77.0944 36.0366 77.6814 36.8067 77.6814C37.5767 77.6814 38.1928 77.0944 38.1928 76.3606ZM80.8018 88.3947L83.4716 78.6109H81.1099L79.4671 85.5085H79.3131L77.4137 78.6109H75.0009L73.0501 85.5085H72.8961L71.2533 78.6109H68.8918L71.5614 88.3947H74.2822L76.1303 81.4971H76.2843L78.1324 88.3947H80.8018ZM55.6984 88.3947V82.3287C55.6984 81.1058 55.3391 80.1274 54.6203 79.4425C53.9016 78.7087 52.9776 78.3663 51.7969 78.3663C50.5648 78.3663 49.3841 79.0022 48.768 80.0296H48.614C48.1007 79.0022 47.0226 78.3663 45.7905 78.3663C44.6097 78.3663 43.5831 78.9044 43.0183 79.785H42.9157V78.6109H40.5542V88.3947H42.9157V82.9158C42.9157 82.1331 43.121 81.4971 43.5831 81.0568C43.9937 80.6655 44.5071 80.4209 45.1232 80.4209C45.6879 80.4209 46.1498 80.6166 46.4579 80.959C46.7659 81.3015 46.9199 81.8395 46.9199 82.4755V88.3947H49.2814V82.9158C49.2814 82.1331 49.4867 81.4971 49.8974 81.0568C50.2568 80.6655 50.8215 80.4698 51.4375 80.4698C52.0022 80.4698 52.4642 80.6655 52.8236 81.0079C53.1829 81.3504 53.337 81.8885 53.337 82.5244V88.4436H55.6984V88.3947ZM37.9874 88.3947V78.6109H35.6259V88.3947H37.9874ZM106.213 87.1228C107.189 86.1444 107.702 84.9215 107.702 83.4539C107.702 82.0352 107.189 80.7633 106.213 79.785C105.238 78.8065 104.006 78.3174 102.671 78.3174C101.336 78.3174 100.002 78.9044 99.1801 79.785H99.0263V75.6268H96.6646V88.3458H99.0263V87.1228H99.1801C100.002 88.0523 101.388 88.6393 102.722 88.6393C104.109 88.6393 105.238 88.1012 106.213 87.1228ZM104.468 81.3015C105.084 81.8885 105.341 82.5733 105.341 83.4539C105.341 84.3344 105.033 85.0193 104.468 85.6063C103.852 86.1933 103.133 86.4379 102.209 86.4379C101.285 86.4379 100.566 86.1444 99.9506 85.6063C99.3344 85.0193 99.0776 84.3344 99.0776 83.4539C99.0776 82.5733 99.3857 81.8885 99.9506 81.3015C100.566 80.7144 101.285 80.4698 102.209 80.4698C103.133 80.4698 103.852 80.7633 104.468 81.3015Z" fill="white"/>
</g>
<path d="M59.5877 110.946H65.4332V109.999H61.6585L64.2972 107.313C64.6206 106.982 64.8849 106.607 65.09 106.189C65.2951 105.771 65.3977 105.349 65.3977 104.923C65.3977 104.671 65.3464 104.406 65.2438 104.13C65.1413 103.854 64.9835 103.598 64.7705 103.361C64.5575 103.117 64.2854 102.919 63.9541 102.769C63.6227 102.612 63.2283 102.533 62.7708 102.533C62.2028 102.533 61.7137 102.659 61.3035 102.911C60.9012 103.156 60.5935 103.503 60.3805 103.953C60.1675 104.395 60.0611 104.911 60.0611 105.503H61.0668C61.0668 105.085 61.1339 104.726 61.268 104.426C61.4021 104.118 61.5954 103.886 61.8478 103.728C62.1081 103.562 62.4158 103.479 62.7708 103.479C63.0232 103.479 63.248 103.523 63.4452 103.61C63.6425 103.696 63.8081 103.811 63.9422 103.953C64.0842 104.095 64.1907 104.253 64.2617 104.426C64.3327 104.6 64.3682 104.777 64.3682 104.959C64.3682 105.179 64.3327 105.392 64.2617 105.598C64.1986 105.795 64.1 105.992 63.9659 106.189C63.8397 106.379 63.6858 106.572 63.5044 106.769L59.5877 110.946ZM67.567 106.804C67.567 106.323 67.6144 105.882 67.709 105.479C67.8037 105.069 67.9417 104.718 68.1232 104.426C68.3046 104.126 68.5216 103.898 68.774 103.74C69.0343 103.574 69.3222 103.491 69.6378 103.491C69.9612 103.491 70.2492 103.574 70.5016 103.74C70.754 103.898 70.971 104.126 71.1524 104.426C71.3338 104.718 71.4719 105.069 71.5665 105.479C71.6612 105.882 71.7085 106.323 71.7085 106.804C71.7085 107.286 71.6612 107.731 71.5665 108.142C71.4719 108.544 71.3338 108.895 71.1524 109.195C70.971 109.487 70.754 109.715 70.5016 109.881C70.2492 110.039 69.9612 110.118 69.6378 110.118C69.3222 110.118 69.0343 110.039 68.774 109.881C68.5216 109.715 68.3046 109.487 68.1232 109.195C67.9417 108.895 67.8037 108.544 67.709 108.142C67.6144 107.731 67.567 107.286 67.567 106.804ZM66.5613 106.804C66.5613 107.633 66.6914 108.366 66.9517 109.005C67.2121 109.644 67.571 110.149 68.0285 110.52C68.4939 110.883 69.0304 111.064 69.6378 111.064C70.2452 111.064 70.7777 110.883 71.2352 110.52C71.7006 110.149 72.0635 109.644 72.3238 109.005C72.5842 108.366 72.7143 107.633 72.7143 106.804C72.7143 105.976 72.5842 105.243 72.3238 104.604C72.0635 103.965 71.7006 103.464 71.2352 103.101C70.7777 102.73 70.2452 102.545 69.6378 102.545C69.0304 102.545 68.4939 102.73 68.0285 103.101C67.571 103.464 67.2121 103.965 66.9517 104.604C66.6914 105.243 66.5613 105.976 66.5613 106.804ZM73.4197 110.946H79.2651V109.999H75.4904L78.1291 107.313C78.4526 106.982 78.7168 106.607 78.9219 106.189C79.127 105.771 79.2296 105.349 79.2296 104.923C79.2296 104.671 79.1783 104.406 79.0758 104.13C78.9732 103.854 78.8154 103.598 78.6025 103.361C78.3895 103.117 78.1173 102.919 77.786 102.769C77.4547 102.612 77.0602 102.533 76.6027 102.533C76.0347 102.533 75.5456 102.659 75.1354 102.911C74.7331 103.156 74.4255 103.503 74.2125 103.953C73.9995 104.395 73.893 104.911 73.893 105.503H74.8988C74.8988 105.085 74.9658 104.726 75.0999 104.426C75.234 104.118 75.4273 103.886 75.6797 103.728C75.9401 103.562 76.2477 103.479 76.6027 103.479C76.8551 103.479 77.08 103.523 77.2772 103.61C77.4744 103.696 77.6401 103.811 77.7742 103.953C77.9162 104.095 78.0226 104.253 78.0936 104.426C78.1646 104.6 78.2001 104.777 78.2001 104.959C78.2001 105.179 78.1646 105.392 78.0936 105.598C78.0305 105.795 77.9319 105.992 77.7978 106.189C77.6716 106.379 77.5178 106.572 77.3363 106.769L73.4197 110.946ZM80.1565 110.946H86.0019V109.999H82.2273L84.866 107.313C85.1894 106.982 85.4537 106.607 85.6588 106.189C85.8639 105.771 85.9665 105.349 85.9665 104.923C85.9665 104.671 85.9152 104.406 85.8126 104.13C85.7101 103.854 85.5523 103.598 85.3393 103.361C85.1263 103.117 84.8542 102.919 84.5228 102.769C84.1915 102.612 83.7971 102.533 83.3396 102.533C82.7716 102.533 82.2825 102.659 81.8723 102.911C81.47 103.156 81.1623 103.503 80.9493 103.953C80.7363 104.395 80.6298 104.911 80.6298 105.503H81.6356C81.6356 105.085 81.7027 104.726 81.8368 104.426C81.9709 104.118 82.1642 103.886 82.4166 103.728C82.6769 103.562 82.9846 103.479 83.3396 103.479C83.592 103.479 83.8168 103.523 84.014 103.61C84.2112 103.696 84.3769 103.811 84.511 103.953C84.653 104.095 84.7595 104.253 84.8305 104.426C84.9015 104.6 84.937 104.777 84.937 104.959C84.937 105.179 84.9015 105.392 84.8305 105.598C84.7674 105.795 84.6688 105.992 84.5347 106.189C84.4085 106.379 84.2546 106.572 84.0732 106.769L80.1565 110.946Z" fill="white"/>
<defs>
<clipPath id="clip0_477_4000">
<rect width="91.8407" height="20.409" fill="white" transform="translate(27.1738 72.364)"/>
</clipPath>
</defs>
</svg>
