<svg width="145" height="143" viewBox="0 0 145 143" fill="none" xmlns="http://www.w3.org/2000/svg">
<path fill-rule="evenodd" clip-rule="evenodd" d="M82.2606 5.19374C77.5959 -1.73124 67.404 -1.73125 62.7393 5.19374C59.4581 10.065 53.0655 11.7604 47.7888 9.18132C40.3028 5.52236 31.4573 10.5952 30.8914 18.9084C30.4929 24.7628 25.8043 29.4247 19.9497 29.8207C11.6415 30.3827 6.51462 39.1977 10.1896 46.67C12.7784 51.9339 11.0698 58.3023 6.19522 61.5656C-0.734345 66.2045 -0.734345 76.3975 6.19522 81.0364C11.0698 84.2997 12.7784 90.6681 10.1896 95.932C6.51462 103.404 11.6415 112.219 19.9497 112.781C25.8043 113.177 30.4929 117.839 30.8914 123.694C31.4573 132.007 40.3028 137.08 47.7888 133.421C53.0655 130.842 59.4581 132.537 62.7393 137.408C67.404 144.333 77.5959 144.333 82.2606 137.408C85.5418 132.537 91.9343 130.842 97.211 133.421C104.697 137.08 113.543 132.007 114.108 123.694C114.507 117.839 119.196 113.177 125.05 112.781C133.358 112.219 138.485 103.404 134.81 95.932C132.222 90.6681 133.93 84.2997 138.805 81.0364C145.734 76.3975 145.734 66.2045 138.805 61.5656C133.93 58.3023 132.222 51.9339 134.81 46.67C138.485 39.1977 133.358 30.3827 125.05 29.8207C119.196 29.4247 114.507 24.7628 114.108 18.9084C113.543 10.5952 104.697 5.52237 97.211 9.18132C91.9343 11.7604 85.5418 10.065 82.2606 5.19374ZM21.5668 105.768C23.7993 105.768 25.6091 103.964 25.6091 101.739C25.6091 99.5129 23.7993 97.7087 21.5668 97.7087C19.3342 97.7087 17.5244 99.5129 17.5244 101.739C17.5244 103.964 19.3342 105.768 21.5668 105.768Z" fill="#0077FF"/>
<path d="M32.2975 41.5936C32.2975 42.2104 32.436 42.7646 32.7131 43.2563C32.9992 43.739 33.3836 44.1189 33.8663 44.396C34.349 44.6731 34.8898 44.8117 35.4888 44.8117C36.0966 44.8117 36.6374 44.6731 37.1112 44.396C37.5939 44.1189 37.9739 43.739 38.251 43.2563C38.537 42.7646 38.68 42.2104 38.68 41.5936C38.68 40.9679 38.537 40.4136 38.251 39.9309C37.9739 39.4482 37.5939 39.0683 37.1112 38.7912C36.6374 38.514 36.0966 38.3755 35.4888 38.3755C34.8898 38.3755 34.349 38.514 33.8663 38.7912C33.3836 39.0683 32.9992 39.4482 32.7131 39.9309C32.436 40.4136 32.2975 40.9679 32.2975 41.5936ZM33.3836 41.5936C33.3836 41.1645 33.473 40.7846 33.6518 40.4538C33.8395 40.1142 34.0898 39.8505 34.4026 39.6627C34.7245 39.475 35.0865 39.3811 35.4888 39.3811C35.891 39.3811 36.2486 39.475 36.5615 39.6627C36.8833 39.8505 37.1336 40.1142 37.3124 40.4538C37.5001 40.7846 37.5939 41.1645 37.5939 41.5936C37.5939 42.0227 37.5001 42.4026 37.3124 42.7333C37.1336 43.0641 36.8833 43.3278 36.5615 43.5245C36.2486 43.7122 35.891 43.806 35.4888 43.806C35.0865 43.806 34.7245 43.7122 34.4026 43.5245C34.0898 43.3278 33.8395 43.0641 33.6518 42.7333C33.473 42.4026 33.3836 42.0227 33.3836 41.5936ZM42.5404 37.1687V46.0185H43.6131V37.1687H42.5404ZM39.6173 41.5936C39.6173 42.2104 39.7603 42.7646 40.0464 43.2563C40.3324 43.739 40.7347 44.1189 41.2532 44.396C41.7806 44.6731 42.3884 44.8117 43.0768 44.8117C43.774 44.8117 44.3819 44.6731 44.9004 44.396C45.4188 44.1189 45.8211 43.739 46.1071 43.2563C46.3932 42.7646 46.5362 42.2104 46.5362 41.5936C46.5362 40.9679 46.3932 40.4136 46.1071 39.9309C45.8211 39.4482 45.4188 39.0683 44.9004 38.7912C44.3819 38.514 43.774 38.3755 43.0768 38.3755C42.3884 38.3755 41.7806 38.514 41.2532 38.7912C40.7347 39.0683 40.3324 39.4482 40.0464 39.9309C39.7603 40.4136 39.6173 40.9679 39.6173 41.5936ZM40.7034 41.5936C40.7034 41.1645 40.7973 40.7846 40.985 40.4538C41.1817 40.1142 41.4543 39.8505 41.8029 39.6627C42.1605 39.475 42.5851 39.3811 43.0768 39.3811C43.5684 39.3811 43.9886 39.475 44.3372 39.6627C44.6948 39.8505 44.9674 40.1142 45.1551 40.4538C45.3518 40.7846 45.4501 41.1645 45.4501 41.5936C45.4501 42.0227 45.3518 42.4026 45.1551 42.7333C44.9674 43.0641 44.6948 43.3278 44.3372 43.5245C43.9886 43.7122 43.5684 43.806 43.0768 43.806C42.5851 43.806 42.1605 43.7122 41.8029 43.5245C41.4543 43.3278 41.1817 43.0641 40.985 42.7333C40.7973 42.4026 40.7034 42.0227 40.7034 41.5936ZM53.1727 39.5823L53.2398 38.0403L48.1444 43.6049L48.0774 45.1469L53.1727 39.5823ZM49.1501 38.5096H48.0774V45.1469L49.1501 43.672V38.5096ZM53.2398 38.0403L52.1671 39.5152V44.6776H53.2398V38.0403ZM60.3454 43.672V38.5096H59.2727V43.672H56.3898V38.5096H55.3171V44.6776H60.4795V45.8844H61.4181V43.672H60.3454ZM68.0612 39.5823L68.1282 38.0403L63.0329 43.6049L62.9658 45.1469L68.0612 39.5823ZM64.0386 38.5096H62.9658V45.1469L64.0386 43.672V38.5096ZM68.1282 38.0403L67.0555 39.5152V44.6776H68.1282V38.0403ZM70.6883 42.8674C70.6883 42.6171 70.7464 42.4026 70.8626 42.2238C70.9788 42.045 71.1531 41.9065 71.3855 41.8081C71.6269 41.7098 71.9263 41.6606 72.2839 41.6606C72.6772 41.6606 73.0303 41.7143 73.3432 41.8215C73.6561 41.9199 73.9645 42.0763 74.2684 42.2909V41.6606C74.2058 41.5802 74.0896 41.4774 73.9198 41.3522C73.7499 41.2181 73.522 41.1019 73.2359 41.0036C72.9588 40.8963 72.6236 40.8427 72.2303 40.8427C71.6939 40.8427 71.2291 40.9276 70.8358 41.0975C70.4424 41.2584 70.1385 41.4908 69.924 41.7947C69.7094 42.0987 69.6021 42.4696 69.6021 42.9077C69.6021 43.3278 69.696 43.6809 69.8837 43.9669C70.0804 44.2441 70.3396 44.4541 70.6614 44.5972C70.9832 44.7402 71.3363 44.8117 71.7207 44.8117C72.1498 44.8117 72.5387 44.7402 72.8873 44.5972C73.2359 44.4452 73.513 44.2307 73.7186 43.9535C73.9332 43.6675 74.0405 43.3278 74.0405 42.9345L73.8259 42.264C73.8259 42.6484 73.7455 42.9568 73.5846 43.1892C73.4326 43.4217 73.218 43.5915 72.9409 43.6988C72.6638 43.806 72.3465 43.8597 71.9889 43.8597C71.7475 43.8597 71.5285 43.8239 71.3319 43.7524C71.1352 43.672 70.9788 43.5602 70.8626 43.4172C70.7464 43.2652 70.6883 43.082 70.6883 42.8674ZM70.6883 39.9577C70.7866 39.8862 70.9207 39.8013 71.0905 39.703C71.2693 39.5957 71.4794 39.5063 71.7207 39.4348C71.9621 39.3543 72.2303 39.3141 72.5253 39.3141C72.8649 39.3141 73.1644 39.3946 73.4236 39.5555C73.6918 39.7074 73.8259 39.9398 73.8259 40.2527V44.6776H74.8986V40.2527C74.8986 39.8505 74.7958 39.5108 74.5902 39.2337C74.3935 38.9565 74.1164 38.7465 73.7589 38.6034C73.4102 38.4515 72.999 38.3755 72.5253 38.3755C71.971 38.3755 71.4973 38.4604 71.1039 38.6303C70.7106 38.8001 70.3977 38.9699 70.1653 39.1398L70.6883 39.9577ZM82.1172 38.5096H76.8208V42.5322C76.8208 42.9702 76.7224 43.2742 76.5258 43.444C76.3381 43.6138 76.1101 43.6988 75.8419 43.6988V44.6776C76.3068 44.6776 76.6912 44.6016 76.9951 44.4497C77.299 44.2888 77.5225 44.0519 77.6655 43.739C77.8175 43.4172 77.8935 43.0149 77.8935 42.5322V39.5152H81.0445V44.6776H82.1172V38.5096ZM84.1905 38.5096V44.6776H85.2632V38.5096H84.1905ZM84.8207 41.7813H86.7381C87.1315 41.7813 87.4265 41.8662 87.6231 42.0361C87.8198 42.2059 87.9181 42.4473 87.9181 42.7602C87.9181 42.9658 87.8734 43.1445 87.784 43.2965C87.6946 43.4395 87.5605 43.5513 87.3818 43.6317C87.2119 43.7032 86.9974 43.739 86.7381 43.739H84.8207V44.6776H86.7381C87.1672 44.6776 87.5516 44.6106 87.8913 44.4765C88.231 44.3424 88.4992 44.1323 88.6958 43.8463C88.8925 43.5602 88.9908 43.1982 88.9908 42.7602C88.9908 42.0987 88.7718 41.6159 88.3338 41.312C87.9047 40.9991 87.3728 40.8427 86.7381 40.8427H84.8207V41.7813ZM91.3025 41.9288H95.8614V40.9232H91.3025V41.9288ZM95.1642 38.5096V44.6776H96.2369V38.5096H95.1642ZM90.6723 38.5096V44.6776H91.745V38.5096H90.6723ZM103.819 38.5096V44.6776H104.891V38.5096H103.819ZM98.254 38.5096V44.6776H99.3267V38.5096H98.254ZM98.8842 41.7813H100.802C101.195 41.7813 101.49 41.8662 101.687 42.0361C101.883 42.2059 101.982 42.4473 101.982 42.7602C101.982 42.9658 101.937 43.1445 101.848 43.2965C101.758 43.4395 101.624 43.5513 101.445 43.6317C101.275 43.7032 101.061 43.739 100.802 43.739H98.8842V44.6776H100.802C101.231 44.6776 101.615 44.6106 101.955 44.4765C102.294 44.3424 102.563 44.1323 102.759 43.8463C102.956 43.5602 103.054 43.1982 103.054 42.7602C103.054 42.0987 102.835 41.6159 102.397 41.312C101.968 40.9991 101.436 40.8427 100.802 40.8427H98.8842V41.7813ZM112.059 39.5823L112.126 38.0403L107.03 43.6049L106.963 45.1469L112.059 39.5823ZM108.036 38.5096H106.963V45.1469L108.036 43.672V38.5096ZM112.126 38.0403L111.053 39.5152V44.6776H112.126V38.0403ZM107.46 35.3585C107.46 35.6624 107.535 35.9619 107.687 36.2569C107.848 36.543 108.085 36.7798 108.398 36.9676C108.72 37.1464 109.113 37.2357 109.578 37.2357C110.052 37.2357 110.445 37.1464 110.758 36.9676C111.071 36.7798 111.303 36.543 111.455 36.2569C111.616 35.9619 111.697 35.6624 111.697 35.3585H110.745C110.745 35.4747 110.713 35.6133 110.651 35.7742C110.588 35.9262 110.472 36.0647 110.302 36.1899C110.132 36.3061 109.891 36.3642 109.578 36.3642C109.265 36.3642 109.024 36.3061 108.854 36.1899C108.684 36.0647 108.568 35.9262 108.505 35.7742C108.443 35.6133 108.412 35.4747 108.412 35.3585H107.46ZM55.0028 51.5096H49.9745V57.6776H51.0472V52.5152H53.9301V57.6776H55.0028V51.5096ZM57.5021 55.8674C57.5021 55.6171 57.5602 55.4026 57.6764 55.2238C57.7926 55.045 57.9669 54.9065 58.1993 54.8081C58.4407 54.7098 58.7402 54.6606 59.0977 54.6606C59.4911 54.6606 59.8442 54.7143 60.157 54.8215C60.4699 54.9199 60.7783 55.0763 61.0822 55.2909V54.6606C61.0197 54.5802 60.9034 54.4774 60.7336 54.3522C60.5638 54.2181 60.3358 54.1019 60.0498 54.0036C59.7726 53.8963 59.4374 53.8427 59.0441 53.8427C58.5077 53.8427 58.0429 53.9276 57.6496 54.0975C57.2563 54.2584 56.9523 54.4908 56.7378 54.7947C56.5232 55.0987 56.416 55.4696 56.416 55.9077C56.416 56.3278 56.5098 56.6809 56.6976 56.9669C56.8942 57.2441 57.1535 57.4541 57.4753 57.5972C57.7971 57.7402 58.1502 57.8117 58.5346 57.8117C58.9636 57.8117 59.3525 57.7402 59.7011 57.5972C60.0498 57.4452 60.3269 57.2307 60.5325 56.9535C60.747 56.6675 60.8543 56.3278 60.8543 55.9345L60.6397 55.264C60.6397 55.6484 60.5593 55.9568 60.3984 56.1892C60.2464 56.4217 60.0319 56.5915 59.7548 56.6988C59.4776 56.806 59.1603 56.8597 58.8027 56.8597C58.5614 56.8597 58.3424 56.8239 58.1457 56.7524C57.949 56.672 57.7926 56.5602 57.6764 56.4172C57.5602 56.2652 57.5021 56.082 57.5021 55.8674ZM57.5021 52.9577C57.6004 52.8862 57.7345 52.8013 57.9044 52.703C58.0831 52.5957 58.2932 52.5063 58.5346 52.4348C58.7759 52.3543 59.0441 52.3141 59.3391 52.3141C59.6788 52.3141 59.9782 52.3946 60.2375 52.5555C60.5057 52.7074 60.6397 52.9398 60.6397 53.2527V57.6776H61.7124V53.2527C61.7124 52.8505 61.6096 52.5108 61.404 52.2337C61.2074 51.9565 60.9303 51.7465 60.5727 51.6034C60.2241 51.4515 59.8129 51.3755 59.3391 51.3755C58.7849 51.3755 58.3111 51.4604 57.9178 51.6303C57.5244 51.8001 57.2116 51.9699 56.9791 52.1398L57.5021 52.9577ZM64.533 60.6275V51.5096H63.4603V60.6275H64.533ZM69.6954 54.5936C69.6954 53.9232 69.5568 53.351 69.2797 52.8773C69.0026 52.3946 68.6316 52.0236 68.1668 51.7643C67.7109 51.5051 67.2013 51.3755 66.6382 51.3755C66.1286 51.3755 65.6772 51.5051 65.2839 51.7643C64.8995 52.0236 64.5956 52.3946 64.3721 52.8773C64.1576 53.351 64.0503 53.9232 64.0503 54.5936C64.0503 55.2551 64.1576 55.8272 64.3721 56.3099C64.5956 56.7926 64.8995 57.1636 65.2839 57.4228C65.6772 57.6821 66.1286 57.8117 66.6382 57.8117C67.2013 57.8117 67.7109 57.6821 68.1668 57.4228C68.6316 57.1636 69.0026 56.7926 69.2797 56.3099C69.5568 55.8272 69.6954 55.2551 69.6954 54.5936ZM68.6093 54.5936C68.6093 55.0674 68.5109 55.4696 68.3143 55.8004C68.1266 56.1311 67.8718 56.3814 67.55 56.5513C67.2371 56.7211 66.8885 56.806 66.5041 56.806C66.1912 56.806 65.8828 56.7211 65.5789 56.5513C65.275 56.3814 65.0247 56.1311 64.828 55.8004C64.6313 55.4696 64.533 55.0674 64.533 54.5936C64.533 54.1198 64.6313 53.7176 64.828 53.3868C65.0247 53.0561 65.275 52.8058 65.5789 52.6359C65.8828 52.4661 66.1912 52.3811 66.5041 52.3811C66.8885 52.3811 67.2371 52.4661 67.55 52.6359C67.8718 52.8058 68.1266 53.0561 68.3143 53.3868C68.5109 53.7176 68.6093 54.1198 68.6093 54.5936ZM70.2359 51.5096V52.5152H73.8563V51.5096H70.2359ZM71.5098 51.7778V57.6776H72.5825V51.7778H71.5098ZM75.5629 54.9288H80.1218V53.9232H75.5629V54.9288ZM79.4246 51.5096V57.6776H80.4973V51.5096H79.4246ZM74.9327 51.5096V57.6776H76.0054V51.5096H74.9327ZM82.6619 54.8618H87.9315C87.9405 54.8081 87.9449 54.7545 87.9449 54.7009C87.9449 54.6472 87.9449 54.5936 87.9449 54.54C87.9449 53.8874 87.8242 53.3287 87.5829 52.8639C87.3415 52.3901 87.0018 52.0236 86.5638 51.7643C86.1258 51.5051 85.6163 51.3755 85.0352 51.3755C84.5078 51.3755 84.0296 51.4828 83.6005 51.6973C83.1803 51.9118 82.8362 52.2113 82.568 52.5957C82.2998 52.9801 82.121 53.427 82.0317 53.9366C82.0138 54.0438 82.0004 54.1511 81.9914 54.2584C81.9825 54.3656 81.978 54.4774 81.978 54.5936C81.978 55.2104 82.1032 55.7646 82.3535 56.2563C82.6127 56.739 82.9613 57.1189 83.3993 57.396C83.8463 57.6731 84.3469 57.8117 84.9011 57.8117C85.4375 57.8117 85.8844 57.7491 86.242 57.624C86.5996 57.4899 86.9035 57.3066 87.1538 57.0742C87.4041 56.8329 87.6321 56.5557 87.8377 56.2429L86.9661 55.6931C86.832 55.9166 86.6711 56.1133 86.4834 56.2831C86.2956 56.444 86.0811 56.5736 85.8397 56.672C85.6073 56.7613 85.3392 56.806 85.0352 56.806C84.633 56.806 84.2843 56.7211 83.9893 56.5513C83.6943 56.3814 83.4664 56.1311 83.3055 55.8004C83.1446 55.4696 83.0641 55.0674 83.0641 54.5936L83.0909 54.1913C83.0909 53.8069 83.1759 53.4762 83.3457 53.1991C83.5245 52.913 83.7614 52.694 84.0564 52.5421C84.3514 52.3901 84.6777 52.3141 85.0352 52.3141C85.3928 52.3141 85.6923 52.3856 85.9336 52.5286C86.1839 52.6627 86.3761 52.8549 86.5102 53.1052C86.6532 53.3466 86.7426 53.6282 86.7784 53.95H82.6619V54.8618ZM85.6386 49.8335C85.6386 50.0301 85.7101 50.2045 85.8532 50.3564C86.0051 50.4994 86.1794 50.571 86.3761 50.571C86.5817 50.571 86.756 50.4994 86.899 50.3564C87.0421 50.2045 87.1136 50.0301 87.1136 49.8335C87.1136 49.6279 87.0421 49.4536 86.899 49.3105C86.756 49.1675 86.5817 49.096 86.3761 49.096C86.1794 49.096 86.0051 49.1675 85.8532 49.3105C85.7101 49.4536 85.6386 49.6279 85.6386 49.8335ZM82.9569 49.8335C82.9569 50.0301 83.0284 50.2045 83.1714 50.3564C83.3234 50.4994 83.4977 50.571 83.6943 50.571C83.8999 50.571 84.0743 50.4994 84.2173 50.3564C84.3603 50.2045 84.4318 50.0301 84.4318 49.8335C84.4318 49.6279 84.3603 49.4536 84.2173 49.3105C84.0743 49.1675 83.8999 49.096 83.6943 49.096C83.4977 49.096 83.3234 49.1675 83.1714 49.3105C83.0284 49.4536 82.9569 49.6279 82.9569 49.8335ZM90.4208 60.6275V51.5096H89.3481V60.6275H90.4208ZM95.5832 54.5936C95.5832 53.9232 95.4447 53.351 95.1675 52.8773C94.8904 52.3946 94.5195 52.0236 94.0546 51.7643C93.5987 51.5051 93.0892 51.3755 92.526 51.3755C92.0165 51.3755 91.5651 51.5051 91.1717 51.7643C90.7873 52.0236 90.4834 52.3946 90.2599 52.8773C90.0454 53.351 89.9381 53.9232 89.9381 54.5936C89.9381 55.2551 90.0454 55.8272 90.2599 56.3099C90.4834 56.7926 90.7873 57.1636 91.1717 57.4228C91.5651 57.6821 92.0165 57.8117 92.526 57.8117C93.0892 57.8117 93.5987 57.6821 94.0546 57.4228C94.5195 57.1636 94.8904 56.7926 95.1675 56.3099C95.4447 55.8272 95.5832 55.2551 95.5832 54.5936ZM94.4971 54.5936C94.4971 55.0674 94.3988 55.4696 94.2021 55.8004C94.0144 56.1311 93.7596 56.3814 93.4378 56.5513C93.1249 56.7211 92.7763 56.806 92.3919 56.806C92.0791 56.806 91.7707 56.7211 91.4667 56.5513C91.1628 56.3814 90.9125 56.1311 90.7158 55.8004C90.5192 55.4696 90.4208 55.0674 90.4208 54.5936C90.4208 54.1198 90.5192 53.7176 90.7158 53.3868C90.9125 53.0561 91.1628 52.8058 91.4667 52.6359C91.7707 52.4661 92.0791 52.3811 92.3919 52.3811C92.7763 52.3811 93.1249 52.4661 93.4378 52.6359C93.7596 52.8058 94.0144 53.0561 94.2021 53.3868C94.3988 53.7176 94.4971 54.1198 94.4971 54.5936Z" fill="white"/>
<path d="M59.2399 111.365H65.0853V110.419H61.3106L63.9494 107.733C64.2728 107.401 64.537 107.027 64.7422 106.608C64.9473 106.19 65.0498 105.768 65.0498 105.342C65.0498 105.09 64.9985 104.826 64.896 104.55C64.7934 104.273 64.6357 104.017 64.4227 103.78C64.2097 103.536 63.9375 103.339 63.6062 103.189C63.2749 103.031 62.8805 102.952 62.4229 102.952C61.8549 102.952 61.3658 103.078 60.9556 103.331C60.5533 103.575 60.2457 103.922 60.0327 104.372C59.8197 104.814 59.7132 105.331 59.7132 105.922H60.719C60.719 105.504 60.786 105.145 60.9201 104.845C61.0543 104.538 61.2475 104.305 61.5 104.147C61.7603 103.982 62.0679 103.899 62.4229 103.899C62.6753 103.899 62.9002 103.942 63.0974 104.029C63.2946 104.116 63.4603 104.23 63.5944 104.372C63.7364 104.514 63.8429 104.672 63.9139 104.845C63.9849 105.019 64.0203 105.196 64.0203 105.378C64.0203 105.599 63.9849 105.812 63.9139 106.017C63.8507 106.214 63.7521 106.411 63.618 106.608C63.4918 106.798 63.338 106.991 63.1566 107.188L59.2399 111.365ZM67.2192 107.224C67.2192 106.743 67.2665 106.301 67.3612 105.899C67.4558 105.488 67.5939 105.137 67.7753 104.845C67.9568 104.546 68.1737 104.317 68.4261 104.159C68.6865 103.993 68.9744 103.911 69.2899 103.911C69.6134 103.911 69.9013 103.993 70.1537 104.159C70.4062 104.317 70.6231 104.546 70.8045 104.845C70.986 105.137 71.124 105.488 71.2187 105.899C71.3133 106.301 71.3607 106.743 71.3607 107.224C71.3607 107.705 71.3133 108.151 71.2187 108.561C71.124 108.963 70.986 109.314 70.8045 109.614C70.6231 109.906 70.4062 110.135 70.1537 110.3C69.9013 110.458 69.6134 110.537 69.2899 110.537C68.9744 110.537 68.6865 110.458 68.4261 110.3C68.1737 110.135 67.9568 109.906 67.7753 109.614C67.5939 109.314 67.4558 108.963 67.3612 108.561C67.2665 108.151 67.2192 107.705 67.2192 107.224ZM66.2134 107.224C66.2134 108.052 66.3436 108.786 66.6039 109.425C66.8642 110.064 67.2231 110.569 67.6807 110.939C68.1461 111.302 68.6825 111.484 69.2899 111.484C69.8974 111.484 70.4298 111.302 70.8874 110.939C71.3528 110.569 71.7157 110.064 71.976 109.425C72.2363 108.786 72.3665 108.052 72.3665 107.224C72.3665 106.396 72.2363 105.662 71.976 105.023C71.7157 104.384 71.3528 103.883 70.8874 103.52C70.4298 103.149 69.8974 102.964 69.2899 102.964C68.6825 102.964 68.1461 103.149 67.6807 103.52C67.2231 103.883 66.8642 104.384 66.6039 105.023C66.3436 105.662 66.2134 106.396 66.2134 107.224ZM73.7818 104.715L75.6159 104.171V111.365H76.6217V102.964L73.7818 103.674V104.715ZM79.1089 105.082C79.1089 105.405 79.1641 105.697 79.2745 105.958C79.385 106.21 79.5388 106.427 79.736 106.608C79.9411 106.79 80.1817 106.928 80.4578 107.023C80.7418 107.117 81.0534 107.165 81.3926 107.165C81.7318 107.165 82.0395 107.117 82.3156 107.023C82.5996 106.928 82.8402 106.79 83.0374 106.608C83.2425 106.427 83.4002 106.21 83.5107 105.958C83.6211 105.697 83.6763 105.405 83.6763 105.082C83.6763 104.688 83.5738 104.333 83.3687 104.017C83.1715 103.694 82.8993 103.437 82.5522 103.248C82.213 103.059 81.8265 102.964 81.3926 102.964C80.9587 102.964 80.5683 103.059 80.2212 103.248C79.882 103.437 79.6098 103.694 79.4047 104.017C79.2075 104.333 79.1089 104.688 79.1089 105.082ZM80.0673 105.2C80.0673 104.94 80.1226 104.707 80.233 104.502C80.3513 104.297 80.5091 104.139 80.7063 104.029C80.9114 103.911 81.1402 103.851 81.3926 103.851C81.6529 103.851 81.8817 103.911 82.0789 104.029C82.2761 104.139 82.43 104.297 82.5404 104.502C82.6587 104.707 82.7179 104.94 82.7179 105.2C82.7179 105.461 82.6548 105.689 82.5286 105.887C82.4102 106.084 82.2485 106.238 82.0434 106.348C81.8462 106.459 81.6293 106.514 81.3926 106.514C81.156 106.514 80.9351 106.459 80.73 106.348C80.5328 106.238 80.371 106.084 80.2448 105.887C80.1265 105.689 80.0673 105.461 80.0673 105.2ZM78.8131 109.117C78.8131 109.44 78.8762 109.744 79.0024 110.028C79.1365 110.312 79.3179 110.565 79.5467 110.785C79.7833 111.006 80.0555 111.18 80.3632 111.306C80.6787 111.424 81.0219 111.484 81.3926 111.484C81.7634 111.484 82.1026 111.424 82.4102 111.306C82.7258 111.18 82.9979 111.006 83.2267 110.785C83.4634 110.565 83.6448 110.312 83.771 110.028C83.9051 109.744 83.9722 109.44 83.9722 109.117C83.9722 108.738 83.9012 108.403 83.7592 108.111C83.6251 107.812 83.4357 107.563 83.1912 107.366C82.9545 107.161 82.6784 107.007 82.3629 106.904C82.0553 106.802 81.7318 106.75 81.3926 106.75C81.0534 106.75 80.726 106.802 80.4105 106.904C80.1028 107.007 79.8267 107.161 79.5822 107.366C79.3455 107.563 79.1562 107.812 79.0142 108.111C78.8801 108.403 78.8131 108.738 78.8131 109.117ZM79.7715 108.999C79.7715 108.699 79.8465 108.431 79.9963 108.194C80.1541 107.95 80.3553 107.756 80.5998 107.614C80.8522 107.472 81.1165 107.401 81.3926 107.401C81.6687 107.401 81.929 107.472 82.1736 107.614C82.426 107.756 82.6272 107.95 82.7771 108.194C82.9348 108.431 83.0137 108.699 83.0137 108.999C83.0137 109.338 82.9348 109.626 82.7771 109.863C82.6272 110.099 82.426 110.281 82.1736 110.407C81.929 110.533 81.6687 110.596 81.3926 110.596C81.1165 110.596 80.8522 110.533 80.5998 110.407C80.3553 110.281 80.1541 110.099 79.9963 109.863C79.8465 109.626 79.7715 109.338 79.7715 108.999Z" fill="white"/>
<g clip-path="url(#clip0_477_3992)">
<path d="M94.025 70.0539C94.3753 71.0248 93.2329 73.2548 90.5977 76.744C90.2321 77.2294 89.7371 77.8741 89.1125 78.6782C88.5032 79.4519 88.0843 79.998 87.8558 80.3166C87.6274 80.6351 87.3951 81.0106 87.159 81.443C86.9229 81.8753 86.8315 82.1939 86.8848 82.3987C86.9381 82.6035 87.0371 82.8652 87.1818 83.1838C87.3265 83.5023 87.574 83.8285 87.9244 84.1622C88.2747 84.496 88.7089 84.898 89.2268 85.3683C89.2877 85.3986 89.3258 85.429 89.341 85.4593C91.4888 87.4466 92.9435 89.1229 93.7051 90.4883C93.7508 90.5641 93.8003 90.6589 93.8536 90.7727C93.9069 90.8865 93.9603 91.0875 94.0136 91.3757C94.0669 91.664 94.0631 91.9218 94.0021 92.1494C93.9412 92.377 93.7508 92.5855 93.4309 92.7752C93.111 92.9648 92.6617 93.0596 92.0829 93.0596L86.2336 93.1506C85.868 93.2265 85.4415 93.1886 84.9541 93.0369C84.4666 92.8852 84.0706 92.7183 83.7659 92.5362L83.3089 92.2632C82.852 91.9446 82.3188 91.4592 81.7095 90.8068C81.1002 90.1545 80.5785 89.5667 80.1444 89.0433C79.7103 88.5199 79.2457 88.08 78.7506 87.7235C78.2556 87.367 77.8253 87.2494 77.4597 87.3708C77.414 87.3859 77.3531 87.4125 77.2769 87.4504C77.2007 87.4883 77.0713 87.5983 76.8885 87.7804C76.7057 87.9624 76.5419 88.1862 76.3972 88.4516C76.2525 88.7171 76.123 89.1115 76.0088 89.6349C75.8945 90.1583 75.845 90.7461 75.8603 91.3985C75.8603 91.626 75.8336 91.8346 75.7803 92.0242C75.727 92.2139 75.6699 92.3542 75.6089 92.4452L75.5175 92.559C75.2434 92.8472 74.8397 93.0141 74.3066 93.0596H71.679C70.5975 93.1203 69.4855 92.9951 68.343 92.6842C67.2006 92.3732 66.1991 91.9712 65.3384 91.4781C64.4778 90.9851 63.6933 90.4845 62.985 89.9763C62.2767 89.4681 61.7398 89.0319 61.3742 88.6678L60.803 88.1217C60.6506 87.97 60.4412 87.7424 60.1746 87.439C59.9081 87.1356 59.3635 86.4454 58.5409 85.3683C57.7184 84.2912 56.9111 83.1458 56.119 81.9322C55.3269 80.7186 54.3939 79.1181 53.32 77.1308C52.2461 75.1435 51.2522 73.0803 50.3383 70.9413C50.2469 70.6986 50.2012 70.4938 50.2012 70.3269C50.2012 70.1601 50.224 70.0387 50.2697 69.9628L50.3611 69.8263C50.5896 69.5381 51.0237 69.394 51.6635 69.394L57.924 69.3484C58.1068 69.3788 58.282 69.4281 58.4496 69.4964C58.6171 69.5646 58.739 69.6291 58.8151 69.6898L58.9294 69.758C59.1731 69.9249 59.3559 70.1676 59.4777 70.4862C59.7824 71.2447 60.1327 72.0298 60.5288 72.8414C60.9248 73.653 61.2371 74.2712 61.4656 74.696L61.8312 75.3559C62.2729 76.2661 62.6994 77.055 63.1107 77.7224C63.522 78.3899 63.8914 78.9095 64.2189 79.2812C64.5464 79.6529 64.8624 79.9449 65.1671 80.1573C65.4717 80.3697 65.7307 80.4759 65.9439 80.4759C66.1572 80.4759 66.3628 80.4379 66.5608 80.3621C66.5913 80.3469 66.6294 80.309 66.6751 80.2483C66.7208 80.1876 66.8122 80.0207 66.9493 79.7477C67.0864 79.4746 67.1892 79.1181 67.2577 78.6782C67.3263 78.2382 67.3986 77.6238 67.4748 76.835C67.551 76.0461 67.551 75.098 67.4748 73.9906C67.4443 73.3837 67.3758 72.83 67.2692 72.3294C67.1625 71.8288 67.0559 71.4799 66.9493 71.2827L66.8122 71.0096C66.4314 70.4938 65.784 70.1676 64.87 70.0311C64.672 70.0008 64.7101 69.8187 64.9843 69.485C65.228 69.1967 65.5174 68.9692 65.8525 68.8023C66.6599 68.4079 68.4801 68.2258 71.3134 68.2562C72.5624 68.2714 73.5906 68.37 74.398 68.552C74.7026 68.6279 74.9577 68.7303 75.1634 68.8592C75.369 68.9881 75.5252 69.1702 75.6318 69.4053C75.7384 69.6405 75.8184 69.8832 75.8717 70.1335C75.925 70.3838 75.9517 70.7289 75.9517 71.1689C75.9517 71.6088 75.944 72.026 75.9288 72.4204C75.9136 72.8149 75.8945 73.3496 75.8717 74.0247C75.8488 74.6998 75.8374 75.3255 75.8374 75.902C75.8374 76.0689 75.8298 76.3875 75.8146 76.8577C75.7993 77.328 75.7955 77.6921 75.8031 77.95C75.8108 78.2079 75.8374 78.5151 75.8831 78.8716C75.9288 79.2281 76.0164 79.5239 76.1459 79.7591C76.2754 79.9942 76.4467 80.18 76.66 80.3166C76.7818 80.3469 76.9113 80.3772 77.0484 80.4076C77.1855 80.4379 77.3835 80.3545 77.6425 80.1573C77.9014 79.9601 78.1908 79.6984 78.5107 79.3722C78.8306 79.0461 79.2266 78.5379 79.6989 77.8476C80.1711 77.1574 80.689 76.3419 81.2526 75.4014C82.1665 73.8237 82.9814 72.117 83.6974 70.2814C83.7583 70.1297 83.8345 69.997 83.9259 69.8832C84.0173 69.7694 84.101 69.6898 84.1772 69.6443L84.2686 69.576L84.3828 69.5191L84.6799 69.4508L85.1368 69.4395L91.7173 69.394C92.3113 69.3181 92.7988 69.3371 93.1796 69.4508C93.5604 69.5646 93.7965 69.6898 93.8879 69.8263L94.025 70.0539Z" fill="white"/>
</g>
<defs>
<clipPath id="clip0_477_3992">
<rect width="44.6007" height="29.127" fill="white" transform="translate(49.4902 64.0465)"/>
</clipPath>
</defs>
</svg>
