<svg width="144" height="143" viewBox="0 0 144 143" fill="none" xmlns="http://www.w3.org/2000/svg">
<path fill-rule="evenodd" clip-rule="evenodd" d="M82.2586 5.19374C77.594 -1.73124 67.402 -1.73125 62.7374 5.19374C59.4561 10.065 53.0636 11.7604 47.7869 9.18132C40.3008 5.52236 31.4553 10.5952 30.8895 18.9084C30.491 24.7628 25.8024 29.4247 19.9477 29.8207C11.6396 30.3827 6.51266 39.1977 10.1876 46.67C12.7764 51.9339 11.0679 58.3023 6.19327 61.5656C-0.736299 66.2045 -0.736298 76.3975 6.19327 81.0364C11.0679 84.2997 12.7764 90.6681 10.1876 95.932C6.51266 103.404 11.6396 112.219 19.9477 112.781C25.8024 113.177 30.491 117.839 30.8895 123.694C31.4553 132.007 40.3008 137.08 47.7869 133.421C53.0636 130.842 59.4561 132.537 62.7374 137.408C67.402 144.333 77.594 144.333 82.2586 137.408C85.5398 132.537 91.9324 130.842 97.2091 133.421C104.695 137.08 113.541 132.007 114.107 123.694C114.505 117.839 119.194 113.177 125.048 112.781C133.356 112.219 138.483 103.404 134.808 95.932C132.22 90.6681 133.928 84.2997 138.803 81.0364C145.732 76.3975 145.732 66.2045 138.803 61.5656C133.928 58.3023 132.22 51.9339 134.808 46.67C138.483 39.1977 133.356 30.3827 125.048 29.8207C119.194 29.4247 114.505 24.7628 114.107 18.9084C113.541 10.5952 104.695 5.52237 97.2091 9.18132C91.9324 11.7604 85.5398 10.065 82.2586 5.19374ZM21.5648 105.768C23.7973 105.768 25.6072 103.964 25.6072 101.739C25.6072 99.5129 23.7973 97.7087 21.5648 97.7087C19.3323 97.7087 17.5224 99.5129 17.5224 101.739C17.5224 103.964 19.3323 105.768 21.5648 105.768Z" fill="#DBDBDB"/>
<path d="M19.8389 63.5322V64.0674H21.5338C21.7292 64.0674 21.8948 64.0886 22.0307 64.1311C22.1752 64.1651 22.2899 64.2203 22.3748 64.2968C22.4683 64.3732 22.5362 64.4582 22.5787 64.5516C22.6297 64.6451 22.6552 64.7513 22.6552 64.8702C22.6552 65.0996 22.5617 65.295 22.3748 65.4564C22.1964 65.6178 21.9161 65.6985 21.5338 65.6985H19.8389V66.5905H21.7886C22.4598 66.5905 22.9398 66.4376 23.2286 66.1318C23.5259 65.8174 23.6746 65.4394 23.6746 64.9976C23.6746 64.6153 23.5812 64.318 23.3943 64.1056C23.2074 63.8932 22.9525 63.7446 22.6297 63.6596C22.3068 63.5747 21.9415 63.5322 21.5338 63.5322H19.8389ZM19.8389 63.787H21.4063C21.7716 63.787 22.103 63.7361 22.4003 63.6341C22.7061 63.5237 22.9525 63.3623 23.1394 63.1499C23.3263 62.929 23.4197 62.6529 23.4197 62.3216C23.4197 61.9393 23.3263 61.6335 23.1394 61.4041C22.9525 61.1662 22.7061 60.9963 22.4003 60.8944C22.103 60.7839 21.7716 60.7287 21.4063 60.7287H19.8389V61.6207H21.4063C21.7122 61.6207 21.9543 61.6929 22.1327 61.8374C22.3111 61.9733 22.4003 62.1559 22.4003 62.3853C22.4003 62.4957 22.3748 62.6019 22.3238 62.7039C22.2814 62.7973 22.2176 62.8823 22.1327 62.9587C22.0477 63.0352 21.9415 63.0947 21.8141 63.1371C21.6952 63.1711 21.5593 63.1881 21.4063 63.1881H19.8389V63.787ZM19.24 60.7287V66.5905H20.2595V60.7287H19.24ZM29.7904 69.394V60.7287H28.7709V69.394H29.7904ZM34.6964 63.6596C34.6964 63.0225 34.5648 62.4788 34.3014 62.0285C34.0381 61.5698 33.6855 61.2172 33.2437 60.9708C32.8105 60.7245 32.3262 60.6013 31.791 60.6013C31.3068 60.6013 30.8778 60.7245 30.504 60.9708C30.1387 61.2172 29.8498 61.5698 29.6375 62.0285C29.4336 62.4788 29.3316 63.0225 29.3316 63.6596C29.3316 64.2883 29.4336 64.832 29.6375 65.2907C29.8498 65.7495 30.1387 66.102 30.504 66.3484C30.8778 66.5948 31.3068 66.7179 31.791 66.7179C32.3262 66.7179 32.8105 66.5948 33.2437 66.3484C33.6855 66.102 34.0381 65.7495 34.3014 65.2907C34.5648 64.832 34.6964 64.2883 34.6964 63.6596ZM33.6643 63.6596C33.6643 64.1099 33.5708 64.4922 33.3839 64.8065C33.2055 65.1208 32.9634 65.3587 32.6576 65.5201C32.3602 65.6815 32.0289 65.7622 31.6636 65.7622C31.3663 65.7622 31.0732 65.6815 30.7843 65.5201C30.4955 65.3587 30.2576 65.1208 30.0707 64.8065C29.8838 64.4922 29.7904 64.1099 29.7904 63.6596C29.7904 63.2094 29.8838 62.8271 30.0707 62.5127C30.2576 62.1984 30.4955 61.9605 30.7843 61.7991C31.0732 61.6377 31.3663 61.557 31.6636 61.557C32.0289 61.557 32.3602 61.6377 32.6576 61.7991C32.9634 61.9605 33.2055 62.1984 33.3839 62.5127C33.5708 62.8271 33.6643 63.2094 33.6643 63.6596ZM36.2423 63.9145H41.2504C41.2589 63.8635 41.2631 63.8125 41.2631 63.7616C41.2631 63.7106 41.2631 63.6596 41.2631 63.6086C41.2631 62.9885 41.1484 62.4575 40.919 62.0158C40.6897 61.5655 40.3668 61.2172 39.9506 60.9708C39.5343 60.7245 39.0501 60.6013 38.4979 60.6013C37.9966 60.6013 37.5421 60.7032 37.1343 60.9071C36.7351 61.111 36.408 61.3956 36.1531 61.7609C35.8983 62.1262 35.7284 62.551 35.6434 63.0352C35.6264 63.1371 35.6137 63.2391 35.6052 63.341C35.5967 63.443 35.5924 63.5492 35.5924 63.6596C35.5924 64.2458 35.7114 64.7725 35.9492 65.2398C36.1956 65.6985 36.5269 66.0596 36.9432 66.3229C37.368 66.5863 37.8437 66.7179 38.3704 66.7179C38.8801 66.7179 39.3049 66.6585 39.6447 66.5395C39.9845 66.4121 40.2734 66.238 40.5113 66.0171C40.7491 65.7877 40.9658 65.5243 41.1612 65.227L40.3329 64.7045C40.2054 64.9169 40.0525 65.1038 39.8741 65.2652C39.6957 65.4182 39.4918 65.5413 39.2624 65.6348C39.0416 65.7197 38.7867 65.7622 38.4979 65.7622C38.1156 65.7622 37.7842 65.6815 37.5039 65.5201C37.2236 65.3587 37.0069 65.1208 36.854 64.8065C36.7011 64.4922 36.6246 64.1099 36.6246 63.6596L36.6501 63.2773C36.6501 62.912 36.7308 62.5977 36.8922 62.3343C37.0621 62.0625 37.2873 61.8543 37.5676 61.7099C37.848 61.5655 38.158 61.4933 38.4979 61.4933C38.8377 61.4933 39.1223 61.5613 39.3516 61.6972C39.5895 61.8246 39.7722 62.0073 39.8996 62.2451C40.0355 62.4745 40.1205 62.7421 40.1545 63.0479H36.2423V63.9145ZM47.5664 61.7482L47.6301 60.2827L42.7878 65.5711L42.7241 67.0365L47.5664 61.7482ZM43.7435 60.7287H42.7241V67.0365L43.7435 65.6348V60.7287ZM47.6301 60.2827L46.6107 61.6844V66.5905H47.6301V60.2827ZM43.1956 57.7341C43.1956 58.0229 43.2678 58.3075 43.4122 58.5879C43.5651 58.8597 43.7902 59.0849 44.0876 59.2633C44.3934 59.4332 44.7672 59.5181 45.209 59.5181C45.6592 59.5181 46.033 59.4332 46.3304 59.2633C46.6277 59.0849 46.8486 58.8597 46.993 58.5879C47.1459 58.3075 47.2224 58.0229 47.2224 57.7341H46.3176C46.3176 57.8445 46.2879 57.9762 46.2284 58.1291C46.1689 58.2735 46.0585 58.4052 45.8971 58.5242C45.7357 58.6346 45.5063 58.6898 45.209 58.6898C44.9116 58.6898 44.6823 58.6346 44.5208 58.5242C44.3594 58.4052 44.249 58.2735 44.1895 58.1291C44.1301 57.9762 44.1003 57.8445 44.1003 57.7341H43.1956ZM48.7123 60.7287V61.6844H52.1529V60.7287H48.7123ZM49.9229 60.9836V66.5905H50.9423V60.9836H49.9229ZM58.0819 61.7482L58.1457 60.2827L53.3033 65.5711L53.2396 67.0365L58.0819 61.7482ZM54.259 60.7287H53.2396V67.0365L54.259 65.6348V60.7287ZM58.1457 60.2827L57.1262 61.6844V66.5905H58.1457V60.2827ZM60.7187 63.9782H65.0514V63.0225H60.7187V63.9782ZM64.3887 60.7287V66.5905H65.4082V60.7287H64.3887ZM60.1198 60.7287V66.5905H61.1393V60.7287H60.1198ZM67.3888 60.7287V66.5905H68.4083V61.6844H70.5109V60.7287H67.3888ZM71.4848 63.9145H76.4929C76.5014 63.8635 76.5056 63.8125 76.5056 63.7616C76.5056 63.7106 76.5056 63.6596 76.5056 63.6086C76.5056 62.9885 76.3909 62.4575 76.1615 62.0158C75.9322 61.5655 75.6093 61.2172 75.1931 60.9708C74.7768 60.7245 74.2926 60.6013 73.7404 60.6013C73.2391 60.6013 72.7846 60.7032 72.3769 60.9071C71.9776 61.111 71.6505 61.3956 71.3956 61.7609C71.1408 62.1262 70.9709 62.551 70.8859 63.0352C70.8689 63.1371 70.8562 63.2391 70.8477 63.341C70.8392 63.443 70.8349 63.5492 70.8349 63.6596C70.8349 64.2458 70.9539 64.7725 71.1917 65.2398C71.4381 65.6985 71.7694 66.0596 72.1857 66.3229C72.6105 66.5863 73.0862 66.7179 73.6129 66.7179C74.1226 66.7179 74.5474 66.6585 74.8872 66.5395C75.227 66.4121 75.5159 66.238 75.7538 66.0171C75.9916 65.7877 76.2083 65.5243 76.4037 65.227L75.5754 64.7045C75.4479 64.9169 75.295 65.1038 75.1166 65.2652C74.9382 65.4182 74.7343 65.5413 74.5049 65.6348C74.2841 65.7197 74.0292 65.7622 73.7404 65.7622C73.3581 65.7622 73.0267 65.6815 72.7464 65.5201C72.4661 65.3587 72.2494 65.1208 72.0965 64.8065C71.9436 64.4922 71.8671 64.1099 71.8671 63.6596L71.8926 63.2773C71.8926 62.912 71.9733 62.5977 72.1347 62.3343C72.3046 62.0625 72.5298 61.8543 72.8101 61.7099C73.0905 61.5655 73.4005 61.4933 73.7404 61.4933C74.0802 61.4933 74.3648 61.5613 74.5941 61.6972C74.832 61.8246 75.0147 62.0073 75.1421 62.2451C75.278 62.4745 75.363 62.7421 75.397 63.0479H71.4848V63.9145ZM82.182 64.8702C82.182 64.6323 82.2373 64.4284 82.3477 64.2585C82.4581 64.0886 82.6238 63.957 82.8447 63.8635C83.074 63.7701 83.3586 63.7233 83.6985 63.7233C84.0723 63.7233 84.4078 63.7743 84.7052 63.8762C85.0025 63.9697 85.2956 64.1184 85.5844 64.3223V63.7233C85.525 63.6469 85.4145 63.5492 85.2531 63.4302C85.0917 63.3028 84.8751 63.1924 84.6032 63.0989C84.3399 62.997 84.0213 62.946 83.6475 62.946C83.1378 62.946 82.696 63.0267 82.3222 63.1881C81.9484 63.341 81.6596 63.5619 81.4557 63.8508C81.2518 64.1396 81.1498 64.4922 81.1498 64.9084C81.1498 65.3077 81.239 65.6433 81.4175 65.9151C81.6043 66.1785 81.8507 66.3781 82.1565 66.5141C82.4624 66.65 82.7979 66.7179 83.1632 66.7179C83.571 66.7179 83.9406 66.65 84.2719 66.5141C84.6032 66.3696 84.8666 66.1657 85.062 65.9024C85.2659 65.6305 85.3678 65.3077 85.3678 64.9339L85.1639 64.2968C85.1639 64.6621 85.0875 64.9552 84.9345 65.176C84.7901 65.3969 84.5862 65.5583 84.3229 65.6603C84.0595 65.7622 83.7579 65.8132 83.4181 65.8132C83.1887 65.8132 82.9806 65.7792 82.7937 65.7112C82.6068 65.6348 82.4581 65.5286 82.3477 65.3927C82.2373 65.2482 82.182 65.0741 82.182 64.8702ZM82.182 62.105C82.2755 62.037 82.4029 61.9563 82.5643 61.8628C82.7342 61.7609 82.9339 61.6759 83.1632 61.608C83.3926 61.5315 83.6475 61.4933 83.9278 61.4933C84.2507 61.4933 84.5353 61.5698 84.7816 61.7227C85.0365 61.8671 85.1639 62.088 85.1639 62.3853V66.5905H86.1834V62.3853C86.1834 62.003 86.0857 61.6802 85.8903 61.4168C85.7034 61.1535 85.44 60.9538 85.1002 60.8179C84.7689 60.6735 84.3781 60.6013 83.9278 60.6013C83.4011 60.6013 82.9509 60.682 82.5771 60.8434C82.2033 61.0048 81.9059 61.1662 81.6851 61.3276L82.182 62.105ZM87.9719 60.7287V66.5905H88.9913V61.6844H91.0939V60.7287H87.9719ZM92.0679 63.9145H97.0759C97.0844 63.8635 97.0886 63.8125 97.0886 63.7616C97.0886 63.7106 97.0886 63.6596 97.0886 63.6086C97.0886 62.9885 96.9739 62.4575 96.7446 62.0158C96.5152 61.5655 96.1924 61.2172 95.7761 60.9708C95.3598 60.7245 94.8756 60.6013 94.3234 60.6013C93.8222 60.6013 93.3676 60.7032 92.9599 60.9071C92.5606 61.111 92.2335 61.3956 91.9787 61.7609C91.7238 62.1262 91.5539 62.551 91.4689 63.0352C91.4519 63.1371 91.4392 63.2391 91.4307 63.341C91.4222 63.443 91.418 63.5492 91.418 63.6596C91.418 64.2458 91.5369 64.7725 91.7748 65.2398C92.0211 65.6985 92.3525 66.0596 92.7687 66.3229C93.1935 66.5863 93.6692 66.7179 94.1959 66.7179C94.7057 66.7179 95.1304 66.6585 95.4703 66.5395C95.8101 66.4121 96.0989 66.238 96.3368 66.0171C96.5746 65.7877 96.7913 65.5243 96.9867 65.227L96.1584 64.7045C96.0309 64.9169 95.878 65.1038 95.6996 65.2652C95.5212 65.4182 95.3173 65.5413 95.088 65.6348C94.8671 65.7197 94.6122 65.7622 94.3234 65.7622C93.9411 65.7622 93.6098 65.6815 93.3294 65.5201C93.0491 65.3587 92.8324 65.1208 92.6795 64.8065C92.5266 64.4922 92.4501 64.1099 92.4501 63.6596L92.4756 63.2773C92.4756 62.912 92.5563 62.5977 92.7178 62.3343C92.8877 62.0625 93.1128 61.8543 93.3931 61.7099C93.6735 61.5655 93.9836 61.4933 94.3234 61.4933C94.6632 61.4933 94.9478 61.5613 95.1772 61.6972C95.415 61.8246 95.5977 62.0073 95.7251 62.2451C95.861 62.4745 95.946 62.7421 95.98 63.0479H92.0679V63.9145ZM99.0848 63.9782H103.417V63.0225H99.0848V63.9782ZM102.755 60.7287V66.5905H103.774V60.7287H102.755ZM98.4859 60.7287V66.5905H99.5053V60.7287H98.4859ZM104.799 60.7287V61.6844H108.24V60.7287H104.799ZM106.01 60.9836V66.5905H107.029V60.9836H106.01ZM109.535 63.6596C109.535 63.2518 109.62 62.8908 109.79 62.5765C109.968 62.2536 110.206 62.003 110.503 61.8246C110.809 61.6462 111.153 61.557 111.535 61.557C111.85 61.557 112.143 61.608 112.415 61.7099C112.695 61.8034 112.937 61.9308 113.141 62.0922C113.345 62.2536 113.489 62.432 113.574 62.6274V61.3531C113.37 61.1153 113.077 60.9326 112.695 60.8052C112.321 60.6692 111.935 60.6013 111.535 60.6013C110.966 60.6013 110.452 60.733 109.994 60.9963C109.535 61.2597 109.169 61.6207 108.898 62.0795C108.634 62.5382 108.503 63.0649 108.503 63.6596C108.503 64.2458 108.634 64.7725 108.898 65.2398C109.169 65.6985 109.535 66.0596 109.994 66.3229C110.452 66.5863 110.966 66.7179 111.535 66.7179C111.935 66.7179 112.321 66.6542 112.695 66.5268C113.077 66.3909 113.37 66.204 113.574 65.9661V64.6918C113.489 64.8787 113.345 65.0571 113.141 65.227C112.937 65.3884 112.695 65.5201 112.415 65.622C112.143 65.7155 111.85 65.7622 111.535 65.7622C111.153 65.7622 110.809 65.673 110.503 65.4946C110.206 65.3077 109.968 65.0571 109.79 64.7428C109.62 64.4284 109.535 64.0674 109.535 63.6596ZM114.269 60.7287V61.6844H117.71V60.7287H114.269ZM115.48 60.9836V66.5905H116.499V60.9836H115.48ZM119.332 63.5322V64.0674H121.027C121.222 64.0674 121.388 64.0886 121.524 64.1311C121.668 64.1651 121.783 64.2203 121.868 64.2968C121.961 64.3732 122.029 64.4582 122.072 64.5516C122.123 64.6451 122.148 64.7513 122.148 64.8702C122.148 65.0996 122.055 65.295 121.868 65.4564C121.689 65.6178 121.409 65.6985 121.027 65.6985H119.332V66.5905H121.281C121.953 66.5905 122.433 66.4376 122.721 66.1318C123.019 65.8174 123.167 65.4394 123.167 64.9976C123.167 64.6153 123.074 64.318 122.887 64.1056C122.7 63.8932 122.445 63.7446 122.123 63.6596C121.8 63.5747 121.434 63.5322 121.027 63.5322H119.332ZM119.332 63.787H120.899C121.265 63.787 121.596 63.7361 121.893 63.6341C122.199 63.5237 122.445 63.3623 122.632 63.1499C122.819 62.929 122.913 62.6529 122.913 62.3216C122.913 61.9393 122.819 61.6335 122.632 61.4041C122.445 61.1662 122.199 60.9963 121.893 60.8944C121.596 60.7839 121.265 60.7287 120.899 60.7287H119.332V61.6207H120.899C121.205 61.6207 121.447 61.6929 121.626 61.8374C121.804 61.9733 121.893 62.1559 121.893 62.3853C121.893 62.4957 121.868 62.6019 121.817 62.7039C121.774 62.7973 121.711 62.8823 121.626 62.9587C121.541 63.0352 121.434 63.0947 121.307 63.1371C121.188 63.1711 121.052 63.1881 120.899 63.1881H119.332V63.787ZM118.733 60.7287V66.5905H119.752V60.7287H118.733ZM24.676 73.7287V74.6844H28.1166V73.7287H24.676ZM25.8866 73.9836V79.5905H26.906V73.9836H25.8866ZM29.5983 77.8702C29.5983 77.6323 29.6535 77.4284 29.7639 77.2585C29.8744 77.0886 30.04 76.957 30.2609 76.8635C30.4903 76.7701 30.7749 76.7233 31.1147 76.7233C31.4885 76.7233 31.8241 76.7743 32.1214 76.8762C32.4187 76.9697 32.7118 77.1184 33.0007 77.3223V76.7233C32.9412 76.6469 32.8308 76.5492 32.6694 76.4302C32.5079 76.3028 32.2913 76.1924 32.0195 76.0989C31.7561 75.997 31.4375 75.946 31.0637 75.946C30.554 75.946 30.1123 76.0267 29.7385 76.1881C29.3647 76.341 29.0758 76.5619 28.8719 76.8508C28.668 77.1396 28.5661 77.4922 28.5661 77.9084C28.5661 78.3077 28.6553 78.6433 28.8337 78.9151C29.0206 79.1785 29.267 79.3781 29.5728 79.5141C29.8786 79.65 30.2142 79.7179 30.5795 79.7179C30.9873 79.7179 31.3568 79.65 31.6881 79.5141C32.0195 79.3696 32.2828 79.1657 32.4782 78.9024C32.6821 78.6305 32.784 78.3077 32.784 77.9339L32.5802 77.2968C32.5802 77.6621 32.5037 77.9552 32.3508 78.176C32.2064 78.3969 32.0025 78.5583 31.7391 78.6603C31.4758 78.7622 31.1742 78.8132 30.8344 78.8132C30.605 78.8132 30.3968 78.7792 30.2099 78.7112C30.023 78.6348 29.8744 78.5286 29.7639 78.3927C29.6535 78.2482 29.5983 78.0741 29.5983 77.8702ZM29.5983 75.105C29.6917 75.037 29.8192 74.9563 29.9806 74.8628C30.1505 74.7609 30.3501 74.6759 30.5795 74.608C30.8089 74.5315 31.0637 74.4933 31.3441 74.4933C31.6669 74.4933 31.9515 74.5698 32.1979 74.7227C32.4527 74.8671 32.5802 75.088 32.5802 75.3853V79.5905H33.5996V75.3853C33.5996 75.003 33.5019 74.6802 33.3065 74.4168C33.1196 74.1535 32.8563 73.9538 32.5164 73.8179C32.1851 73.6735 31.7943 73.6013 31.3441 73.6013C30.8174 73.6013 30.3671 73.682 29.9933 73.8434C29.6195 74.0048 29.3222 74.1662 29.1013 74.3276L29.5983 75.105ZM36.2801 82.394V73.7287H35.2607V82.394H36.2801ZM41.1862 76.6596C41.1862 76.0225 41.0545 75.4788 40.7912 75.0285C40.5278 74.5698 40.1752 74.2172 39.7335 73.9708C39.3002 73.7245 38.816 73.6013 38.2808 73.6013C37.7965 73.6013 37.3675 73.7245 36.9937 73.9708C36.6284 74.2172 36.3396 74.5698 36.1272 75.0285C35.9233 75.4788 35.8214 76.0225 35.8214 76.6596C35.8214 77.2883 35.9233 77.832 36.1272 78.2907C36.3396 78.7495 36.6284 79.102 36.9937 79.3484C37.3675 79.5948 37.7965 79.7179 38.2808 79.7179C38.816 79.7179 39.3002 79.5948 39.7335 79.3484C40.1752 79.102 40.5278 78.7495 40.7912 78.2907C41.0545 77.832 41.1862 77.2883 41.1862 76.6596ZM40.154 76.6596C40.154 77.1099 40.0606 77.4922 39.8737 77.8065C39.6953 78.1208 39.4531 78.3587 39.1473 78.5201C38.85 78.6815 38.5186 78.7622 38.1533 78.7622C37.856 78.7622 37.5629 78.6815 37.2741 78.5201C36.9852 78.3587 36.7474 78.1208 36.5605 77.8065C36.3736 77.4922 36.2801 77.1099 36.2801 76.6596C36.2801 76.2094 36.3736 75.8271 36.5605 75.5127C36.7474 75.1984 36.9852 74.9605 37.2741 74.7991C37.5629 74.6377 37.856 74.557 38.1533 74.557C38.5186 74.557 38.85 74.6377 39.1473 74.7991C39.4531 74.9605 39.6953 75.1984 39.8737 75.5127C40.0606 75.8271 40.154 76.2094 40.154 76.6596ZM42.6556 73.7287V79.5905H43.6751V74.6844H45.7777V73.7287H42.6556ZM46.7516 76.9145H51.7596C51.7681 76.8635 51.7724 76.8125 51.7724 76.7616C51.7724 76.7106 51.7724 76.6596 51.7724 76.6086C51.7724 75.9885 51.6577 75.4575 51.4283 75.0158C51.1989 74.5655 50.8761 74.2172 50.4599 73.9708C50.0436 73.7245 49.5593 73.6013 49.0071 73.6013C48.5059 73.6013 48.0514 73.7032 47.6436 73.9071C47.2444 74.111 46.9173 74.3956 46.6624 74.7609C46.4076 75.1262 46.2377 75.551 46.1527 76.0352C46.1357 76.1371 46.123 76.2391 46.1145 76.341C46.106 76.443 46.1017 76.5492 46.1017 76.6596C46.1017 77.2458 46.2207 77.7725 46.4585 78.2398C46.7049 78.6985 47.0362 79.0596 47.4525 79.3229C47.8773 79.5863 48.353 79.7179 48.8797 79.7179C49.3894 79.7179 49.8142 79.6585 50.154 79.5395C50.4938 79.4121 50.7827 79.238 51.0205 79.0171C51.2584 78.7877 51.475 78.5243 51.6704 78.227L50.8421 77.7045C50.7147 77.9169 50.5618 78.1038 50.3834 78.2652C50.205 78.4182 50.0011 78.5413 49.7717 78.6348C49.5508 78.7197 49.296 78.7622 49.0071 78.7622C48.6249 78.7622 48.2935 78.6815 48.0132 78.5201C47.7328 78.3587 47.5162 78.1208 47.3633 77.8065C47.2104 77.4922 47.1339 77.1099 47.1339 76.6596L47.1594 76.2773C47.1594 75.912 47.2401 75.5977 47.4015 75.3343C47.5714 75.0625 47.7966 74.8543 48.0769 74.7099C48.3572 74.5655 48.6673 74.4933 49.0071 74.4933C49.347 74.4933 49.6316 74.5613 49.8609 74.6972C50.0988 74.8246 50.2814 75.0073 50.4089 75.2451C50.5448 75.4745 50.6298 75.7421 50.6637 76.0479H46.7516V76.9145ZM52.2776 73.7287V74.6844H55.7183V73.7287H52.2776ZM53.4882 73.9836V79.5905H54.5077V73.9836H53.4882ZM61.6473 74.7482L61.711 73.2827L56.8686 78.5711L56.8049 80.0365L61.6473 74.7482ZM57.8243 73.7287H56.8049V80.0365L57.8243 78.6348V73.7287ZM61.711 73.2827L60.6915 74.6844V79.5905H61.711V73.2827ZM64.6409 82.394V73.7287H63.6214V82.394H64.6409ZM69.547 76.6596C69.547 76.0225 69.4153 75.4788 69.1519 75.0285C68.8886 74.5698 68.536 74.2172 68.0942 73.9708C67.661 73.7245 67.1767 73.6013 66.6415 73.6013C66.1573 73.6013 65.7283 73.7245 65.3545 73.9708C64.9892 74.2172 64.7003 74.5698 64.488 75.0285C64.2841 75.4788 64.1821 76.0225 64.1821 76.6596C64.1821 77.2883 64.2841 77.832 64.488 78.2907C64.7003 78.7495 64.9892 79.102 65.3545 79.3484C65.7283 79.5948 66.1573 79.7179 66.6415 79.7179C67.1767 79.7179 67.661 79.5948 68.0942 79.3484C68.536 79.102 68.8886 78.7495 69.1519 78.2907C69.4153 77.832 69.547 77.2883 69.547 76.6596ZM68.5148 76.6596C68.5148 77.1099 68.4213 77.4922 68.2344 77.8065C68.056 78.1208 67.8139 78.3587 67.5081 78.5201C67.2107 78.6815 66.8794 78.7622 66.5141 78.7622C66.2168 78.7622 65.9237 78.6815 65.6348 78.5201C65.346 78.3587 65.1081 78.1208 64.9212 77.8065C64.7343 77.4922 64.6409 77.1099 64.6409 76.6596C64.6409 76.2094 64.7343 75.8271 64.9212 75.5127C65.1081 75.1984 65.346 74.9605 65.6348 74.7991C65.9237 74.6377 66.2168 74.557 66.5141 74.557C66.8794 74.557 67.2107 74.6377 67.5081 74.7991C67.8139 74.9605 68.056 75.1984 68.2344 75.5127C68.4213 75.8271 68.5148 76.2094 68.5148 76.6596ZM70.4429 76.6596C70.4429 77.2458 70.5746 77.7725 70.838 78.2398C71.1098 78.6985 71.4751 79.0596 71.9339 79.3229C72.3926 79.5863 72.9066 79.7179 73.4758 79.7179C74.0535 79.7179 74.5674 79.5863 75.0177 79.3229C75.4765 79.0596 75.8375 78.6985 76.1009 78.2398C76.3727 77.7725 76.5086 77.2458 76.5086 76.6596C76.5086 76.0649 76.3727 75.5382 76.1009 75.0795C75.8375 74.6207 75.4765 74.2597 75.0177 73.9963C74.5674 73.733 74.0535 73.6013 73.4758 73.6013C72.9066 73.6013 72.3926 73.733 71.9339 73.9963C71.4751 74.2597 71.1098 74.6207 70.838 75.0795C70.5746 75.5382 70.4429 76.0649 70.4429 76.6596ZM71.4751 76.6596C71.4751 76.2518 71.5601 75.8908 71.73 75.5765C71.9084 75.2536 72.1463 75.003 72.4436 74.8246C72.7494 74.6462 73.0935 74.557 73.4758 74.557C73.8581 74.557 74.1979 74.6462 74.4952 74.8246C74.8011 75.003 75.0389 75.2536 75.2088 75.5765C75.3873 75.8908 75.4765 76.2518 75.4765 76.6596C75.4765 77.0674 75.3873 77.4284 75.2088 77.7428C75.0389 78.0571 74.8011 78.3077 74.4952 78.4946C74.1979 78.673 73.8581 78.7622 73.4758 78.7622C73.0935 78.7622 72.7494 78.673 72.4436 78.4946C72.1463 78.3077 71.9084 78.0571 71.73 77.7428C71.5601 77.4284 71.4751 77.0674 71.4751 76.6596ZM78.508 76.5322V77.0674H80.2028C80.3982 77.0674 80.5639 77.0886 80.6998 77.1311C80.8442 77.1651 80.9589 77.2203 81.0439 77.2968C81.1373 77.3732 81.2053 77.4582 81.2478 77.5516C81.2987 77.6451 81.3242 77.7513 81.3242 77.8702C81.3242 78.0996 81.2308 78.295 81.0439 78.4564C80.8655 78.6178 80.5851 78.6985 80.2028 78.6985H78.508V79.5905H80.4577C81.1288 79.5905 81.6088 79.4376 81.8977 79.1318C82.195 78.8174 82.3437 78.4394 82.3437 77.9976C82.3437 77.6153 82.2502 77.318 82.0633 77.1056C81.8764 76.8932 81.6216 76.7446 81.2987 76.6596C80.9759 76.5747 80.6106 76.5322 80.2028 76.5322H78.508ZM78.508 76.787H80.0754C80.4407 76.787 80.772 76.7361 81.0694 76.6341C81.3752 76.5237 81.6216 76.3623 81.8085 76.1499C81.9954 75.929 82.0888 75.6529 82.0888 75.3216C82.0888 74.9393 81.9954 74.6335 81.8085 74.4041C81.6216 74.1662 81.3752 73.9963 81.0694 73.8944C80.772 73.7839 80.4407 73.7287 80.0754 73.7287H78.508V74.6207H80.0754C80.3812 74.6207 80.6233 74.6929 80.8018 74.8374C80.9802 74.9733 81.0694 75.1559 81.0694 75.3853C81.0694 75.4957 81.0439 75.6019 80.9929 75.7039C80.9504 75.7973 80.8867 75.8823 80.8018 75.9587C80.7168 76.0352 80.6106 76.0947 80.4832 76.1371C80.3642 76.1711 80.2283 76.1881 80.0754 76.1881H78.508V76.787ZM77.9091 73.7287V79.5905H78.9285V73.7287H77.9091ZM84.142 77.8702C84.142 77.6323 84.1972 77.4284 84.3077 77.2585C84.4181 77.0886 84.5838 76.957 84.8047 76.8635C85.034 76.7701 85.3186 76.7233 85.6584 76.7233C86.0322 76.7233 86.3678 76.7743 86.6651 76.8762C86.9625 76.9697 87.2556 77.1184 87.5444 77.3223V76.7233C87.485 76.6469 87.3745 76.5492 87.2131 76.4302C87.0517 76.3028 86.8351 76.1924 86.5632 76.0989C86.2998 75.997 85.9813 75.946 85.6075 75.946C85.0978 75.946 84.656 76.0267 84.2822 76.1881C83.9084 76.341 83.6196 76.5619 83.4157 76.8508C83.2118 77.1396 83.1098 77.4922 83.1098 77.9084C83.1098 78.3077 83.199 78.6433 83.3774 78.9151C83.5643 79.1785 83.8107 79.3781 84.1165 79.5141C84.4224 79.65 84.7579 79.7179 85.1232 79.7179C85.531 79.7179 85.9006 79.65 86.2319 79.5141C86.5632 79.3696 86.8266 79.1657 87.022 78.9024C87.2258 78.6305 87.3278 78.3077 87.3278 77.9339L87.1239 77.2968C87.1239 77.6621 87.0474 77.9552 86.8945 78.176C86.7501 78.3969 86.5462 78.5583 86.2829 78.6603C86.0195 78.7622 85.7179 78.8132 85.3781 78.8132C85.1487 78.8132 84.9406 78.7792 84.7537 78.7112C84.5668 78.6348 84.4181 78.5286 84.3077 78.3927C84.1972 78.2482 84.142 78.0741 84.142 77.8702ZM84.142 75.105C84.2355 75.037 84.3629 74.9563 84.5243 74.8628C84.6942 74.7609 84.8939 74.6759 85.1232 74.608C85.3526 74.5315 85.6075 74.4933 85.8878 74.4933C86.2106 74.4933 86.4952 74.5698 86.7416 74.7227C86.9965 74.8671 87.1239 75.088 87.1239 75.3853V79.5905H88.1433V75.3853C88.1433 75.003 88.0456 74.6802 87.8503 74.4168C87.6634 74.1535 87.4 73.9538 87.0602 73.8179C86.7289 73.6735 86.3381 73.6013 85.8878 73.6013C85.3611 73.6013 84.9109 73.682 84.5371 73.8434C84.1633 74.0048 83.8659 74.1662 83.645 74.3276L84.142 75.105ZM90.4671 76.9782H94.7997V76.0225H90.4671V76.9782ZM94.1371 73.7287V79.5905H95.1565V73.7287H94.1371ZM89.8681 73.7287V79.5905H90.8876V73.7287H89.8681ZM97.6724 76.9782H102.005V76.0225H97.6724V76.9782ZM101.342 73.7287V79.5905H102.362V73.7287H101.342ZM97.0734 73.7287V79.5905H98.0929V73.7287H97.0734ZM103.769 76.6596C103.769 77.2458 103.901 77.7725 104.164 78.2398C104.436 78.6985 104.801 79.0596 105.26 79.3229C105.719 79.5863 106.233 79.7179 106.802 79.7179C107.38 79.7179 107.894 79.5863 108.344 79.3229C108.803 79.0596 109.164 78.6985 109.427 78.2398C109.699 77.7725 109.835 77.2458 109.835 76.6596C109.835 76.0649 109.699 75.5382 109.427 75.0795C109.164 74.6207 108.803 74.2597 108.344 73.9963C107.894 73.733 107.38 73.6013 106.802 73.6013C106.233 73.6013 105.719 73.733 105.26 73.9963C104.801 74.2597 104.436 74.6207 104.164 75.0795C103.901 75.5382 103.769 76.0649 103.769 76.6596ZM104.801 76.6596C104.801 76.2518 104.886 75.8908 105.056 75.5765C105.234 75.2536 105.472 75.003 105.77 74.8246C106.075 74.6462 106.42 74.557 106.802 74.557C107.184 74.557 107.524 74.6462 107.821 74.8246C108.127 75.003 108.365 75.2536 108.535 75.5765C108.713 75.8908 108.803 76.2518 108.803 76.6596C108.803 77.0674 108.713 77.4284 108.535 77.7428C108.365 78.0571 108.127 78.3077 107.821 78.4946C107.524 78.673 107.184 78.7622 106.802 78.7622C106.42 78.7622 106.075 78.673 105.77 78.4946C105.472 78.3077 105.234 78.0571 105.056 77.7428C104.886 77.4284 104.801 77.0674 104.801 76.6596ZM116.141 74.7482L116.205 73.2827L111.363 78.5711L111.299 80.0365L116.141 74.7482ZM112.318 73.7287H111.299V80.0365L112.318 78.6348V73.7287ZM116.205 73.2827L115.185 74.6844V79.5905H116.205V73.2827ZM111.77 70.7341C111.77 71.0229 111.843 71.3075 111.987 71.5879C112.14 71.8597 112.365 72.0849 112.662 72.2633C112.968 72.4332 113.342 72.5181 113.784 72.5181C114.234 72.5181 114.608 72.4332 114.905 72.2633C115.202 72.0849 115.423 71.8597 115.568 71.5879C115.721 71.3075 115.797 71.0229 115.797 70.7341H114.892C114.892 70.8445 114.863 70.9762 114.803 71.1291C114.744 71.2735 114.633 71.4052 114.472 71.5242C114.31 71.6346 114.081 71.6898 113.784 71.6898C113.486 71.6898 113.257 71.6346 113.096 71.5242C112.934 71.4052 112.824 71.2735 112.764 71.1291C112.705 70.9762 112.675 70.8445 112.675 70.7341H111.77ZM48.4881 95.394V86.7287H47.4686V95.394H48.4881ZM53.3941 89.6596C53.3941 89.0225 53.2625 88.4788 52.9991 88.0285C52.7357 87.5698 52.3832 87.2172 51.9414 86.9708C51.5082 86.7245 51.0239 86.6013 50.4887 86.6013C50.0045 86.6013 49.5755 86.7245 49.2017 86.9708C48.8364 87.2172 48.5475 87.5698 48.3351 88.0285C48.1313 88.4788 48.0293 89.0225 48.0293 89.6596C48.0293 90.2883 48.1313 90.832 48.3351 91.2907C48.5475 91.7495 48.8364 92.102 49.2017 92.3484C49.5755 92.5948 50.0045 92.7179 50.4887 92.7179C51.0239 92.7179 51.5082 92.5948 51.9414 92.3484C52.3832 92.102 52.7357 91.7495 52.9991 91.2907C53.2625 90.832 53.3941 90.2883 53.3941 89.6596ZM52.362 89.6596C52.362 90.1099 52.2685 90.4922 52.0816 90.8065C51.9032 91.1208 51.6611 91.3587 51.3552 91.5201C51.0579 91.6815 50.7266 91.7622 50.3613 91.7622C50.064 91.7622 49.7709 91.6815 49.482 91.5201C49.1932 91.3587 48.9553 91.1208 48.7684 90.8065C48.5815 90.4922 48.4881 90.1099 48.4881 89.6596C48.4881 89.2094 48.5815 88.8271 48.7684 88.5127C48.9553 88.1984 49.1932 87.9605 49.482 87.7991C49.7709 87.6377 50.064 87.557 50.3613 87.557C50.7266 87.557 51.0579 87.6377 51.3552 87.7991C51.6611 87.9605 51.9032 88.1984 52.0816 88.5127C52.2685 88.8271 52.362 89.2094 52.362 89.6596ZM54.94 89.9145H59.948C59.9565 89.8635 59.9608 89.8125 59.9608 89.7616C59.9608 89.7106 59.9608 89.6596 59.9608 89.6086C59.9608 88.9885 59.8461 88.4575 59.6167 88.0158C59.3874 87.5655 59.0645 87.2172 58.6483 86.9708C58.232 86.7245 57.7477 86.6013 57.1956 86.6013C56.6943 86.6013 56.2398 86.7032 55.832 86.9071C55.4328 87.111 55.1057 87.3956 54.8508 87.7609C54.596 88.1262 54.4261 88.551 54.3411 89.0352C54.3241 89.1371 54.3114 89.2391 54.3029 89.341C54.2944 89.443 54.2901 89.5492 54.2901 89.6596C54.2901 90.2458 54.4091 90.7725 54.6469 91.2398C54.8933 91.6985 55.2246 92.0596 55.6409 92.3229C56.0657 92.5863 56.5414 92.7179 57.0681 92.7179C57.5778 92.7179 58.0026 92.6585 58.3424 92.5395C58.6822 92.4121 58.9711 92.238 59.209 92.0171C59.4468 91.7877 59.6635 91.5243 59.8588 91.227L59.0305 90.7045C58.9031 90.9169 58.7502 91.1038 58.5718 91.2652C58.3934 91.4182 58.1895 91.5413 57.9601 91.6348C57.7393 91.7197 57.4844 91.7622 57.1956 91.7622C56.8133 91.7622 56.4819 91.6815 56.2016 91.5201C55.9212 91.3587 55.7046 91.1208 55.5517 90.8065C55.3988 90.4922 55.3223 90.1099 55.3223 89.6596L55.3478 89.2773C55.3478 88.912 55.4285 88.5977 55.5899 88.3343C55.7598 88.0625 55.985 87.8543 56.2653 87.7099C56.5457 87.5655 56.8557 87.4933 57.1956 87.4933C57.5354 87.4933 57.82 87.5613 58.0493 87.6972C58.2872 87.8246 58.4699 88.0073 58.5973 88.2451C58.7332 88.4745 58.8182 88.7421 58.8521 89.0479H54.94V89.9145ZM61.2943 86.7287V92.5905H62.3138V86.7287H61.2943ZM64.4801 86.7287L61.9315 89.1499L64.735 92.5905H66.0093L63.2058 89.1499L65.7544 86.7287H64.4801ZM72.1059 86.7287H67.0724V90.5516C67.0724 90.9679 66.979 91.2567 66.7921 91.4182C66.6137 91.5796 66.397 91.6603 66.1422 91.6603V92.5905C66.5839 92.5905 66.9492 92.5183 67.2381 92.3739C67.5269 92.221 67.7393 91.9958 67.8752 91.6985C68.0196 91.3927 68.0919 91.0104 68.0919 90.5516V87.6844H71.0865V92.5905H72.1059V86.7287ZM74.535 90.8702C74.535 90.6323 74.5902 90.4284 74.7006 90.2585C74.8111 90.0886 74.9767 89.957 75.1976 89.8635C75.427 89.7701 75.7116 89.7233 76.0514 89.7233C76.4252 89.7233 76.7607 89.7743 77.0581 89.8762C77.3554 89.9697 77.6485 90.1184 77.9374 90.3223V89.7233C77.8779 89.6469 77.7674 89.5492 77.606 89.4302C77.4446 89.3028 77.228 89.1924 76.9561 89.0989C76.6928 88.997 76.3742 88.946 76.0004 88.946C75.4907 88.946 75.0489 89.0267 74.6751 89.1881C74.3013 89.341 74.0125 89.5619 73.8086 89.8508C73.6047 90.1396 73.5028 90.4922 73.5028 90.9084C73.5028 91.3077 73.592 91.6433 73.7704 91.9151C73.9573 92.1785 74.2036 92.3781 74.5095 92.5141C74.8153 92.65 75.1509 92.7179 75.5162 92.7179C75.924 92.7179 76.2935 92.65 76.6248 92.5141C76.9561 92.3696 77.2195 92.1657 77.4149 91.9024C77.6188 91.6305 77.7207 91.3077 77.7207 90.9339L77.5168 90.2968C77.5168 90.6621 77.4404 90.9552 77.2875 91.176C77.143 91.3969 76.9392 91.5583 76.6758 91.6603C76.4124 91.7622 76.1109 91.8132 75.771 91.8132C75.5417 91.8132 75.3335 91.7792 75.1466 91.7112C74.9597 91.6348 74.8111 91.5286 74.7006 91.3927C74.5902 91.2482 74.535 91.0741 74.535 90.8702ZM74.535 88.105C74.6284 88.037 74.7558 87.9563 74.9173 87.8628C75.0872 87.7609 75.2868 87.6759 75.5162 87.608C75.7456 87.5315 76.0004 87.4933 76.2808 87.4933C76.6036 87.4933 76.8882 87.5698 77.1345 87.7227C77.3894 87.8671 77.5168 88.088 77.5168 88.3853V92.5905H78.5363V88.3853C78.5363 88.003 78.4386 87.6802 78.2432 87.4168C78.0563 87.1535 77.7929 86.9538 77.4531 86.8179C77.1218 86.6735 76.731 86.6013 76.2808 86.6013C75.754 86.6013 75.3038 86.682 74.93 86.8434C74.5562 87.0048 74.2589 87.1662 74.038 87.3276L74.535 88.105ZM85.8298 92.5905H86.9767L85.4475 86.2827L84.8741 87.9393L85.8298 92.5905ZM82.7715 91.7112L83.1537 92.9855L85.5749 88.3216L85.4475 86.2827L82.7715 91.7112ZM83.1537 92.9855L83.536 91.7112L80.8982 86.2827L80.7708 88.3216L83.1537 92.9855ZM79.3691 92.5905H80.5159L81.4717 87.9393L80.8982 86.2827L79.3691 92.5905ZM93.2898 86.7287V92.5905H94.3093V86.7287H93.2898ZM88.0015 86.7287V92.5905H89.0209V86.7287H88.0015ZM88.6004 89.838H90.4227C90.7965 89.838 91.0768 89.9187 91.2637 90.0801C91.4506 90.2415 91.544 90.4709 91.544 90.7683C91.544 90.9637 91.5016 91.1336 91.4166 91.278C91.3317 91.4139 91.2042 91.5201 91.0343 91.5966C90.8729 91.6645 90.669 91.6985 90.4227 91.6985H88.6004V92.5905H90.4227C90.8304 92.5905 91.1957 92.5268 91.5186 92.3994C91.8414 92.2719 92.0962 92.0723 92.2831 91.8004C92.47 91.5286 92.5635 91.1845 92.5635 90.7683C92.5635 90.1396 92.3554 89.6809 91.9391 89.392C91.5313 89.0947 91.0258 88.946 90.4227 88.946H88.6004V89.838Z" fill="#1B1A1A"/>
<path d="M66.6254 46.1942H63.4183L58.4317 35.9569H58.2948C58.4512 37.6322 58.5294 38.9945 58.5294 40.044V46.1942H55.909V31.8992H59.1357L64.0832 42.068H64.2592C64.1027 40.5492 64.0245 39.2357 64.0245 38.1276V31.8992H66.6254V46.1942ZM67.9845 46.1942V44.356H74.2325V46.1942H67.9845ZM74.4378 39.9462C74.4378 41.0609 74.138 41.9344 73.5383 42.5667C72.9386 43.199 72.1237 43.5151 71.0938 43.5151C70.09 43.5151 69.2882 43.1925 68.6885 42.5471C68.0888 41.9018 67.789 41.0348 67.789 39.9462C67.789 38.8511 68.0823 37.9874 68.6689 37.3551C69.2556 36.7229 70.0769 36.4067 71.1329 36.4067C72.1368 36.4067 72.9386 36.7326 73.5383 37.3845C74.138 38.0298 74.4378 38.8837 74.4378 39.9462ZM69.7641 39.9462C69.7641 40.5981 69.8683 41.0902 70.0769 41.4227C70.2921 41.7486 70.6375 41.9116 71.1134 41.9116C71.5762 41.9116 71.9119 41.7486 72.1205 41.4227C72.3291 41.0902 72.4334 40.5981 72.4334 39.9462C72.4334 39.2944 72.3291 38.8088 72.1205 38.4894C71.9119 38.1634 71.5762 38.0005 71.1134 38.0005C70.6375 38.0005 70.2921 38.1634 70.0769 38.4894C69.8683 38.8088 69.7641 39.2944 69.7641 39.9462ZM75.7817 35.3408H82.2497L76.7829 46.1942H80.4474L87.2158 32.1769H75.7817V35.3408Z" fill="#1B1A1A"/>
<path d="M56.0875 112.922H61.933V111.975H58.1583L60.797 109.289C61.1204 108.958 61.3847 108.583 61.5898 108.165C61.7949 107.747 61.8975 107.325 61.8975 106.899C61.8975 106.646 61.8462 106.382 61.7436 106.106C61.6411 105.83 61.4833 105.574 61.2703 105.337C61.0573 105.092 60.7852 104.895 60.4539 104.745C60.1225 104.588 59.7281 104.509 59.2706 104.509C58.7026 104.509 58.2135 104.635 57.8033 104.887C57.401 105.132 57.0933 105.479 56.8803 105.929C56.6674 106.37 56.5609 106.887 56.5609 107.479H57.5667C57.5667 107.061 57.6337 106.702 57.7678 106.402C57.9019 106.094 58.0952 105.862 58.3476 105.704C58.6079 105.538 58.9156 105.455 59.2706 105.455C59.523 105.455 59.7478 105.499 59.945 105.585C60.1423 105.672 60.3079 105.787 60.442 105.929C60.584 106.071 60.6905 106.228 60.7615 106.402C60.8325 106.575 60.868 106.753 60.868 106.934C60.868 107.155 60.8325 107.368 60.7615 107.573C60.6984 107.771 60.5998 107.968 60.4657 108.165C60.3395 108.354 60.1857 108.548 60.0042 108.745L56.0875 112.922ZM64.0669 108.78C64.0669 108.299 64.1142 107.857 64.2088 107.455C64.3035 107.045 64.4416 106.694 64.623 106.402C64.8044 106.102 65.0214 105.873 65.2738 105.716C65.5341 105.55 65.8221 105.467 66.1376 105.467C66.461 105.467 66.749 105.55 67.0014 105.716C67.2538 105.873 67.4708 106.102 67.6522 106.402C67.8336 106.694 67.9717 107.045 68.0663 107.455C68.161 107.857 68.2083 108.299 68.2083 108.78C68.2083 109.262 68.161 109.707 68.0663 110.117C67.9717 110.52 67.8336 110.871 67.6522 111.171C67.4708 111.462 67.2538 111.691 67.0014 111.857C66.749 112.015 66.461 112.094 66.1376 112.094C65.8221 112.094 65.5341 112.015 65.2738 111.857C65.0214 111.691 64.8044 111.462 64.623 111.171C64.4416 110.871 64.3035 110.52 64.2088 110.117C64.1142 109.707 64.0669 109.262 64.0669 108.78ZM63.0611 108.78C63.0611 109.609 63.1912 110.342 63.4515 110.981C63.7119 111.62 64.0708 112.125 64.5283 112.496C64.9938 112.859 65.5302 113.04 66.1376 113.04C66.745 113.04 67.2775 112.859 67.735 112.496C68.2005 112.125 68.5633 111.62 68.8236 110.981C69.084 110.342 69.2141 109.609 69.2141 108.78C69.2141 107.952 69.084 107.218 68.8236 106.579C68.5633 105.94 68.2005 105.44 67.735 105.077C67.2775 104.706 66.745 104.521 66.1376 104.521C65.5302 104.521 64.9938 104.706 64.5283 105.077C64.0708 105.44 63.7119 105.94 63.4515 106.579C63.1912 107.218 63.0611 107.952 63.0611 108.78ZM69.9195 112.922H75.7649V111.975H71.9902L74.6289 109.289C74.9524 108.958 75.2166 108.583 75.4217 108.165C75.6269 107.747 75.7294 107.325 75.7294 106.899C75.7294 106.646 75.6781 106.382 75.5756 106.106C75.473 105.83 75.3153 105.574 75.1023 105.337C74.8893 105.092 74.6171 104.895 74.2858 104.745C73.9545 104.588 73.5601 104.509 73.1025 104.509C72.5345 104.509 72.0454 104.635 71.6352 104.887C71.2329 105.132 70.9253 105.479 70.7123 105.929C70.4993 106.37 70.3928 106.887 70.3928 107.479H71.3986C71.3986 107.061 71.4656 106.702 71.5997 106.402C71.7338 106.094 71.9271 105.862 72.1796 105.704C72.4399 105.538 72.7475 105.455 73.1025 105.455C73.3549 105.455 73.5798 105.499 73.777 105.585C73.9742 105.672 74.1399 105.787 74.274 105.929C74.416 106.071 74.5225 106.228 74.5935 106.402C74.6644 106.575 74.6999 106.753 74.6999 106.934C74.6999 107.155 74.6644 107.368 74.5935 107.573C74.5303 107.771 74.4317 107.968 74.2976 108.165C74.1714 108.354 74.0176 108.548 73.8361 108.745L69.9195 112.922ZM77.3663 106.272L79.2004 105.727V112.922H80.2062V104.521L77.3663 105.23V106.272Z" fill="#1B1A1A"/>
</svg>
