<svg width="144" height="143" viewBox="0 0 144 143" fill="none" xmlns="http://www.w3.org/2000/svg">
<path fill-rule="evenodd" clip-rule="evenodd" d="M82.0242 5.19374C77.3596 -1.73124 67.1676 -1.73125 62.503 5.19374C59.2218 10.065 52.8292 11.7604 47.5525 9.18132C40.0665 5.52236 31.2209 10.5952 30.6551 18.9084C30.2566 24.7628 25.568 29.4247 19.7134 29.8207C11.4052 30.3827 6.27829 39.1977 9.95323 46.67C12.542 51.9339 10.8335 58.3023 5.95889 61.5656C-0.970674 66.2045 -0.970673 76.3975 5.95889 81.0364C10.8335 84.2997 12.542 90.6681 9.95323 95.932C6.27829 103.404 11.4052 112.219 19.7134 112.781C25.568 113.177 30.2566 117.839 30.6551 123.694C31.2209 132.007 40.0665 137.08 47.5525 133.421C52.8292 130.842 59.2218 132.537 62.503 137.408C67.1676 144.333 77.3596 144.333 82.0242 137.408C85.3055 132.537 91.698 130.842 96.9747 133.421C104.461 137.08 113.306 132.007 113.872 123.694C114.271 117.839 118.959 113.177 124.814 112.781C133.122 112.219 138.249 103.404 134.574 95.932C131.985 90.6681 133.694 84.2997 138.568 81.0364C145.498 76.3975 145.498 66.2045 138.568 61.5656C133.694 58.3023 131.985 51.9339 134.574 46.67C138.249 39.1977 133.122 30.3827 124.814 29.8207C118.959 29.4247 114.271 24.7628 113.872 18.9084C113.306 10.5952 104.461 5.52237 96.9747 9.18132C91.698 11.7604 85.3055 10.065 82.0242 5.19374ZM21.3304 105.768C23.563 105.768 25.3728 103.964 25.3728 101.739C25.3728 99.5129 23.563 97.7087 21.3304 97.7087C19.0979 97.7087 17.2881 99.5129 17.2881 101.739C17.2881 103.964 19.0979 105.768 21.3304 105.768Z" fill="#DE474B"/>
<path d="M39.7756 54.8683V55.4314H41.5589C41.7645 55.4314 41.9389 55.4538 42.0819 55.4985C42.2338 55.5342 42.3545 55.5923 42.4439 55.6728C42.5422 55.7532 42.6138 55.8426 42.6585 55.941C42.7121 56.0393 42.7389 56.151 42.7389 56.2762C42.7389 56.5175 42.6406 56.7231 42.4439 56.893C42.2562 57.0628 41.9612 57.1478 41.5589 57.1478H39.7756V58.0864H41.8271C42.5333 58.0864 43.0384 57.9255 43.3423 57.6036C43.6552 57.2729 43.8116 56.8751 43.8116 56.4103C43.8116 56.008 43.7133 55.6951 43.5166 55.4717C43.32 55.2482 43.0518 55.0917 42.7121 55.0023C42.3724 54.913 41.988 54.8683 41.5589 54.8683H39.7756ZM39.7756 55.1364H41.4249C41.8092 55.1364 42.1579 55.0828 42.4707 54.9755C42.7925 54.8593 43.0518 54.6895 43.2484 54.466C43.4451 54.2336 43.5434 53.9431 43.5434 53.5944C43.5434 53.1922 43.4451 52.8704 43.2484 52.629C43.0518 52.3787 42.7925 52.1999 42.4707 52.0926C42.1579 51.9764 41.8092 51.9183 41.4249 51.9183H39.7756V52.8569H41.4249C41.7467 52.8569 42.0014 52.9329 42.1892 53.0849C42.3769 53.2279 42.4707 53.4201 42.4707 53.6615C42.4707 53.7777 42.4439 53.8894 42.3903 53.9967C42.3456 54.095 42.2785 54.1844 42.1892 54.2649C42.0998 54.3453 41.988 54.4079 41.8539 54.4526C41.7288 54.4883 41.5858 54.5062 41.4249 54.5062H39.7756V55.1364ZM39.1454 51.9183V58.0864H40.2181V51.9183H39.1454ZM49.1742 51.9183V58.0864H50.2469V51.9183H49.1742ZM52.5264 51.9183L49.8446 54.466L52.7945 58.0864H54.1354L51.1855 54.466L53.8673 51.9183H52.5264ZM55.6296 56.2762C55.6296 56.0259 55.6877 55.8113 55.8039 55.6326C55.9201 55.4538 56.0944 55.3152 56.3268 55.2169C56.5682 55.1186 56.8676 55.0694 57.2252 55.0694C57.6185 55.0694 57.9716 55.123 58.2845 55.2303C58.5974 55.3286 58.9058 55.4851 59.2097 55.6996V55.0694C59.1471 54.9889 59.0309 54.8861 58.8611 54.761C58.6912 54.6269 58.4633 54.5107 58.1772 54.4124C57.9001 54.3051 57.5649 54.2515 57.1716 54.2515C56.6352 54.2515 56.1704 54.3364 55.7771 54.5062C55.3837 54.6671 55.0798 54.8995 54.8653 55.2035C54.6507 55.5074 54.5435 55.8784 54.5435 56.3164C54.5435 56.7365 54.6373 57.0896 54.825 57.3757C55.0217 57.6528 55.2809 57.8629 55.6027 58.0059C55.9246 58.1489 56.2777 58.2205 56.662 58.2205C57.0911 58.2205 57.48 58.1489 57.8286 58.0059C58.1772 57.8539 58.4543 57.6394 58.6599 57.3623C58.8745 57.0762 58.9818 56.7365 58.9818 56.3432L58.7672 55.6728C58.7672 56.0572 58.6868 56.3656 58.5259 56.598C58.3739 56.8304 58.1594 57.0003 57.8822 57.1075C57.6051 57.2148 57.2878 57.2684 56.9302 57.2684C56.6889 57.2684 56.4698 57.2327 56.2732 57.1612C56.0765 57.0807 55.9201 56.969 55.8039 56.8259C55.6877 56.674 55.6296 56.4907 55.6296 56.2762ZM55.6296 53.3665C55.7279 53.295 55.862 53.21 56.0318 53.1117C56.2106 53.0044 56.4207 52.915 56.662 52.8435C56.9034 52.7631 57.1716 52.7229 57.4666 52.7229C57.8063 52.7229 58.1057 52.8033 58.365 52.9642C58.6331 53.1162 58.7672 53.3486 58.7672 53.6615V58.0864H59.8399V53.6615C59.8399 53.2592 59.7371 52.9195 59.5315 52.6424C59.3349 52.3653 59.0577 52.1552 58.7002 52.0122C58.3515 51.8602 57.9403 51.7842 57.4666 51.7842C56.9123 51.7842 56.4386 51.8692 56.0452 52.039C55.6519 52.2089 55.339 52.3787 55.1066 52.5485L55.6296 53.3665ZM60.7162 51.9183V52.924H64.3366V51.9183H60.7162ZM61.99 52.1865V58.0864H63.0627V52.1865H61.99ZM65.364 55.2705H70.6337C70.6426 55.2169 70.6471 55.1633 70.6471 55.1096C70.6471 55.056 70.6471 55.0023 70.6471 54.9487C70.6471 54.2962 70.5264 53.7375 70.285 53.2726C70.0437 52.7988 69.704 52.4323 69.266 52.1731C68.8279 51.9139 68.3184 51.7842 67.7374 51.7842C67.21 51.7842 66.7317 51.8915 66.3026 52.1061C65.8825 52.3206 65.5383 52.6201 65.2702 53.0044C65.002 53.3888 64.8232 53.8358 64.7338 54.3453C64.7159 54.4526 64.7025 54.5599 64.6936 54.6671C64.6846 54.7744 64.6802 54.8861 64.6802 55.0023C64.6802 55.6192 64.8053 56.1734 65.0556 56.665C65.3149 57.1478 65.6635 57.5277 66.1015 57.8048C66.5485 58.0819 67.0491 58.2205 67.6033 58.2205C68.1396 58.2205 68.5866 58.1579 68.9442 58.0327C69.3017 57.8986 69.6057 57.7154 69.856 57.483C70.1063 57.2416 70.3342 56.9645 70.5398 56.6516L69.6682 56.1019C69.5341 56.3253 69.3732 56.522 69.1855 56.6919C68.9978 56.8528 68.7833 56.9824 68.5419 57.0807C68.3095 57.1701 68.0413 57.2148 67.7374 57.2148C67.3351 57.2148 66.9865 57.1299 66.6915 56.96C66.3965 56.7902 66.1685 56.5399 66.0076 56.2091C65.8467 55.8784 65.7663 55.4761 65.7663 55.0023L65.7931 54.6001C65.7931 54.2157 65.878 53.8849 66.0479 53.6078C66.2266 53.3218 66.4635 53.1028 66.7585 52.9508C67.0535 52.7988 67.3798 52.7229 67.7374 52.7229C68.0949 52.7229 68.3944 52.7944 68.6358 52.9374C68.8861 53.0715 69.0782 53.2637 69.2123 53.514C69.3554 53.7553 69.4448 54.0369 69.4805 54.3587H65.364V55.2705ZM72.1844 51.9183V58.0864H73.2571V52.924H75.4695V51.9183H72.1844ZM75.8105 55.0023C75.8105 55.6192 75.9491 56.1734 76.2262 56.665C76.5122 57.1478 76.8966 57.5277 77.3793 57.8048C77.862 58.0819 78.4029 58.2205 79.0018 58.2205C79.6097 58.2205 80.1505 58.0819 80.6242 57.8048C81.107 57.5277 81.4869 57.1478 81.764 56.665C82.05 56.1734 82.1931 55.6192 82.1931 55.0023C82.1931 54.3766 82.05 53.8224 81.764 53.3397C81.4869 52.8569 81.107 52.477 80.6242 52.1999C80.1505 51.9228 79.6097 51.7842 79.0018 51.7842C78.4029 51.7842 77.862 51.9228 77.3793 52.1999C76.8966 52.477 76.5122 52.8569 76.2262 53.3397C75.9491 53.8224 75.8105 54.3766 75.8105 55.0023ZM76.8966 55.0023C76.8966 54.5733 76.986 54.1934 77.1648 53.8626C77.3525 53.5229 77.6028 53.2592 77.9157 53.0715C78.2375 52.8838 78.5995 52.7899 79.0018 52.7899C79.404 52.7899 79.7616 52.8838 80.0745 53.0715C80.3963 53.2592 80.6466 53.5229 80.8254 53.8626C81.0131 54.1934 81.107 54.5733 81.107 55.0023C81.107 55.4314 81.0131 55.8113 80.8254 56.1421C80.6466 56.4728 80.3963 56.7365 80.0745 56.9332C79.7616 57.1209 79.404 57.2148 79.0018 57.2148C78.5995 57.2148 78.2375 57.1209 77.9157 56.9332C77.6028 56.7365 77.3525 56.4728 77.1648 56.1421C76.986 55.8113 76.8966 55.4314 76.8966 55.0023ZM84.6723 61.0363V51.9183H83.5996V61.0363H84.6723ZM89.8347 55.0023C89.8347 54.3319 89.6962 53.7598 89.419 53.286C89.1419 52.8033 88.7709 52.4323 88.3061 52.1731C87.8502 51.9139 87.3407 51.7842 86.7775 51.7842C86.268 51.7842 85.8165 51.9139 85.4232 52.1731C85.0388 52.4323 84.7349 52.8033 84.5114 53.286C84.2969 53.7598 84.1896 54.3319 84.1896 55.0023C84.1896 55.6638 84.2969 56.236 84.5114 56.7187C84.7349 57.2014 85.0388 57.5724 85.4232 57.8316C85.8165 58.0908 86.268 58.2205 86.7775 58.2205C87.3407 58.2205 87.8502 58.0908 88.3061 57.8316C88.7709 57.5724 89.1419 57.2014 89.419 56.7187C89.6962 56.236 89.8347 55.6638 89.8347 55.0023ZM88.7486 55.0023C88.7486 55.4761 88.6503 55.8784 88.4536 56.2091C88.2659 56.5399 88.0111 56.7902 87.6893 56.96C87.3764 57.1299 87.0278 57.2148 86.6434 57.2148C86.3306 57.2148 86.0222 57.1299 85.7182 56.96C85.4143 56.7902 85.164 56.5399 84.9673 56.2091C84.7707 55.8784 84.6723 55.4761 84.6723 55.0023C84.6723 54.5286 84.7707 54.1263 84.9673 53.7956C85.164 53.4648 85.4143 53.2145 85.7182 53.0447C86.0222 52.8748 86.3306 52.7899 86.6434 52.7899C87.0278 52.7899 87.3764 52.8748 87.6893 53.0447C88.0111 53.2145 88.2659 53.4648 88.4536 53.7956C88.6503 54.1263 88.7486 54.5286 88.7486 55.0023ZM96.4762 52.991L96.5433 51.449L91.448 57.0137L91.3809 58.5557L96.4762 52.991ZM92.4536 51.9183H91.3809V58.5557L92.4536 57.0807V51.9183ZM96.5433 51.449L95.4706 52.924V58.0864H96.5433V51.449ZM103.783 52.991L103.85 51.449L98.7547 57.0137L98.6876 58.5557L103.783 52.991ZM99.7603 51.9183H98.6876V58.5557L99.7603 57.0807V51.9183ZM103.85 51.449L102.777 52.924V58.0864H103.85V51.449ZM44.4114 64.7842L45.216 61.7002H44.4785L43.1376 64.7842H44.4114ZM47.0932 64.7842L47.8977 61.7002H47.1602L45.8194 64.7842H47.0932ZM50.9363 64.744L53.9935 70.2148L57.0507 64.744L57.7479 71.0864H58.8877L57.7479 61.2309L53.9935 68.0292L50.239 61.2309L49.0993 71.0864H50.239L50.9363 64.744ZM60.5714 68.2705H65.8411C65.85 68.2169 65.8545 68.1633 65.8545 68.1096C65.8545 68.056 65.8545 68.0023 65.8545 67.9487C65.8545 67.2962 65.7338 66.7375 65.4924 66.2726C65.2511 65.7988 64.9114 65.4323 64.4734 65.1731C64.0354 64.9139 63.5258 64.7842 62.9448 64.7842C62.4174 64.7842 61.9391 64.8915 61.51 65.1061C61.0899 65.3206 60.7457 65.6201 60.4776 66.0044C60.2094 66.3888 60.0306 66.8358 59.9412 67.3453C59.9233 67.4526 59.9099 67.5599 59.901 67.6671C59.8921 67.7744 59.8876 67.8861 59.8876 68.0023C59.8876 68.6192 60.0127 69.1734 60.263 69.665C60.5223 70.1478 60.8709 70.5277 61.3089 70.8048C61.7559 71.0819 62.2565 71.2205 62.8107 71.2205C63.347 71.2205 63.794 71.1579 64.1516 71.0327C64.5091 70.8986 64.8131 70.7154 65.0634 70.483C65.3137 70.2416 65.5416 69.9645 65.7472 69.6516L64.8756 69.1019C64.7416 69.3253 64.5807 69.522 64.3929 69.6919C64.2052 69.8528 63.9907 69.9824 63.7493 70.0807C63.5169 70.1701 63.2487 70.2148 62.9448 70.2148C62.5425 70.2148 62.1939 70.1299 61.8989 69.96C61.6039 69.7902 61.376 69.5399 61.215 69.2091C61.0541 68.8784 60.9737 68.4761 60.9737 68.0023L61.0005 67.6001C61.0005 67.2157 61.0854 66.8849 61.2553 66.6078C61.4341 66.3218 61.6709 66.1028 61.9659 65.9508C62.2609 65.7988 62.5872 65.7229 62.9448 65.7229C63.3023 65.7229 63.6018 65.7944 63.8432 65.9374C64.0935 66.0715 64.2857 66.2637 64.4197 66.514C64.5628 66.7553 64.6522 67.0369 64.6879 67.3587H60.5714V68.2705ZM69.9797 65.7899C70.3819 65.7899 70.7395 65.8838 71.0524 66.0715C71.3742 66.2592 71.6245 66.5229 71.8033 66.8626C71.991 67.1934 72.0848 67.5733 72.0848 68.0023C72.0848 68.4314 71.991 68.8113 71.8033 69.1421C71.6245 69.4728 71.3742 69.7365 71.0524 69.9332C70.7395 70.1209 70.3819 70.2148 69.9797 70.2148C69.5774 70.2148 69.2154 70.1209 68.8936 69.9332C68.5807 69.7365 68.3304 69.4728 68.1427 69.1421C67.9549 68.8113 67.8611 68.4314 67.8611 68.0023L66.7884 67.1978C66.7884 68.0828 66.9269 68.8248 67.2041 69.4237C67.4901 70.0226 67.8745 70.474 68.3572 70.778C68.8399 71.073 69.3807 71.2205 69.9797 71.2205C70.5875 71.2205 71.1284 71.0819 71.6021 70.8048C72.0848 70.5277 72.4648 70.1478 72.7419 69.665C73.0279 69.1734 73.171 68.6192 73.171 68.0023C73.171 67.3766 73.0279 66.8224 72.7419 66.3397C72.4648 65.8569 72.0848 65.477 71.6021 65.1999C71.1284 64.9228 70.5875 64.7842 69.9797 64.7842V65.7899ZM67.3784 68.0023H67.8611C67.8611 67.6448 67.9237 67.3319 68.0488 67.0637C68.1829 66.7866 68.3527 66.5542 68.5583 66.3665C68.7729 66.1788 69.0053 66.0357 69.2556 65.9374C69.5059 65.8391 69.7473 65.7899 69.9797 65.7899V64.7842C69.5953 64.7842 69.2422 64.8602 68.9204 65.0122C68.6075 65.1552 68.3349 65.3653 68.1024 65.6424C67.87 65.9195 67.6912 66.2592 67.5661 66.6615C67.4409 67.0548 67.3784 67.5018 67.3784 68.0023ZM66.7884 67.1978L67.727 67.9085V66.5274C67.727 66.0804 67.7851 65.6335 67.9013 65.1865C68.0175 64.7306 68.2276 64.3239 68.5315 63.9663C68.8444 63.6087 69.2779 63.3406 69.8322 63.1618C70.3238 63.0009 70.7619 62.7997 71.1462 62.5584C71.5396 62.317 71.8569 62.0354 72.0983 61.7136C72.3396 61.3829 72.4826 61.0208 72.5273 60.6275H71.468C71.4055 60.9493 71.2222 61.2577 70.9183 61.5527C70.6233 61.8388 70.1719 62.0846 69.564 62.2902C68.8489 62.5316 68.2857 62.8802 67.8745 63.3361C67.4722 63.7831 67.1906 64.3283 67.0297 64.972C66.8688 65.6156 66.7884 66.3575 66.7884 67.1978ZM74.7921 68.2705H80.0617C80.0706 68.2169 80.0751 68.1633 80.0751 68.1096C80.0751 68.056 80.0751 68.0023 80.0751 67.9487C80.0751 67.2962 79.9544 66.7375 79.7131 66.2726C79.4717 65.7988 79.132 65.4323 78.694 65.1731C78.256 64.9139 77.7465 64.7842 77.1654 64.7842C76.638 64.7842 76.1598 64.8915 75.7307 65.1061C75.3105 65.3206 74.9664 65.6201 74.6982 66.0044C74.43 66.3888 74.2512 66.8358 74.1618 67.3453C74.144 67.4526 74.1306 67.5599 74.1216 67.6671C74.1127 67.7744 74.1082 67.8861 74.1082 68.0023C74.1082 68.6192 74.2334 69.1734 74.4837 69.665C74.7429 70.1478 75.0915 70.5277 75.5295 70.8048C75.9765 71.0819 76.4771 71.2205 77.0313 71.2205C77.5677 71.2205 78.0146 71.1579 78.3722 71.0327C78.7298 70.8986 79.0337 70.7154 79.284 70.483C79.5343 70.2416 79.7622 69.9645 79.9678 69.6516L79.0963 69.1019C78.9622 69.3253 78.8013 69.522 78.6136 69.6919C78.4258 69.8528 78.2113 69.9824 77.9699 70.0807C77.7375 70.1701 77.4693 70.2148 77.1654 70.2148C76.7631 70.2148 76.4145 70.1299 76.1195 69.96C75.8245 69.7902 75.5966 69.5399 75.4357 69.2091C75.2748 68.8784 75.1943 68.4761 75.1943 68.0023L75.2211 67.6001C75.2211 67.2157 75.3061 66.8849 75.4759 66.6078C75.6547 66.3218 75.8916 66.1028 76.1866 65.9508C76.4816 65.7988 76.8078 65.7229 77.1654 65.7229C77.523 65.7229 77.8224 65.7944 78.0638 65.9374C78.3141 66.0715 78.5063 66.2637 78.6404 66.514C78.7834 66.7553 78.8728 67.0369 78.9086 67.3587H74.7921V68.2705ZM86.9491 64.9183H81.6526V68.941C81.6526 69.379 81.5543 69.6829 81.3576 69.8528C81.1699 70.0226 80.942 70.1075 80.6738 70.1075V71.0864C81.1386 71.0864 81.523 71.0104 81.827 70.8584C82.1309 70.6975 82.3544 70.4606 82.4974 70.1478C82.6494 69.8259 82.7253 69.4237 82.7253 68.941V65.924H85.8764V71.0864H86.9491V64.9183ZM89.0223 64.9183V71.0864H90.095V64.9183H89.0223ZM89.6525 68.1901H91.57C91.9633 68.1901 92.2583 68.275 92.455 68.4448C92.6516 68.6147 92.75 68.856 92.75 69.1689C92.75 69.3745 92.7053 69.5533 92.6159 69.7053C92.5265 69.8483 92.3924 69.96 92.2136 70.0405C92.0438 70.112 91.8292 70.1478 91.57 70.1478H89.6525V71.0864H91.57C91.9991 71.0864 92.3835 71.0193 92.7231 70.8852C93.0628 70.7511 93.331 70.5411 93.5277 70.255C93.7243 69.969 93.8227 69.6069 93.8227 69.1689C93.8227 68.5074 93.6037 68.0247 93.1656 67.7208C92.7366 67.4079 92.2047 67.2515 91.57 67.2515H89.6525V68.1901ZM95.9734 61.7002L95.1689 64.7842H95.9064L97.2472 61.7002H95.9734ZM98.6552 61.7002L97.8506 64.7842H98.5881L99.929 61.7002H98.6552ZM47.8244 87.0363V77.9183H46.7517V87.0363H47.8244ZM52.9868 81.0023C52.9868 80.3319 52.8482 79.7598 52.5711 79.286C52.294 78.8033 51.923 78.4323 51.4582 78.1731C51.0023 77.9139 50.4927 77.7842 49.9296 77.7842C49.42 77.7842 48.9686 77.9139 48.5753 78.1731C48.1909 78.4323 47.887 78.8033 47.6635 79.286C47.449 79.7598 47.3417 80.3319 47.3417 81.0023C47.3417 81.6638 47.449 82.236 47.6635 82.7187C47.887 83.2014 48.1909 83.5724 48.5753 83.8316C48.9686 84.0908 49.42 84.2205 49.9296 84.2205C50.4927 84.2205 51.0023 84.0908 51.4582 83.8316C51.923 83.5724 52.294 83.2014 52.5711 82.7187C52.8482 82.236 52.9868 81.6638 52.9868 81.0023ZM51.9007 81.0023C51.9007 81.4761 51.8023 81.8784 51.6057 82.2091C51.4179 82.5399 51.1632 82.7902 50.8414 82.96C50.5285 83.1299 50.1799 83.2148 49.7955 83.2148C49.4826 83.2148 49.1742 83.1299 48.8703 82.96C48.5663 82.7902 48.3161 82.5399 48.1194 82.2091C47.9227 81.8784 47.8244 81.4761 47.8244 81.0023C47.8244 80.5286 47.9227 80.1263 48.1194 79.7956C48.3161 79.4648 48.5663 79.2145 48.8703 79.0447C49.1742 78.8748 49.4826 78.7899 49.7955 78.7899C50.1799 78.7899 50.5285 78.8748 50.8414 79.0447C51.1632 79.2145 51.4179 79.4648 51.6057 79.7956C51.8023 80.1263 51.9007 80.5286 51.9007 81.0023ZM54.6134 81.2705H59.8831C59.892 81.2169 59.8965 81.1633 59.8965 81.1096C59.8965 81.056 59.8965 81.0023 59.8965 80.9487C59.8965 80.2962 59.7758 79.7375 59.5344 79.2726C59.2931 78.7988 58.9534 78.4323 58.5154 78.1731C58.0774 77.9139 57.5678 77.7842 56.9868 77.7842C56.4594 77.7842 55.9811 77.8915 55.552 78.1061C55.1319 78.3206 54.7877 78.6201 54.5196 79.0044C54.2514 79.3888 54.0726 79.8358 53.9832 80.3453C53.9653 80.4526 53.9519 80.5599 53.943 80.6671C53.934 80.7744 53.9296 80.8861 53.9296 81.0023C53.9296 81.6192 54.0547 82.1734 54.305 82.665C54.5643 83.1478 54.9129 83.5277 55.3509 83.8048C55.7979 84.0819 56.2985 84.2205 56.8527 84.2205C57.389 84.2205 57.836 84.1579 58.1936 84.0327C58.5511 83.8986 58.8551 83.7154 59.1054 83.483C59.3557 83.2416 59.5836 82.9645 59.7892 82.6516L58.9176 82.1019C58.7836 82.3253 58.6226 82.522 58.4349 82.6919C58.2472 82.8528 58.0327 82.9824 57.7913 83.0807C57.5589 83.1701 57.2907 83.2148 56.9868 83.2148C56.5845 83.2148 56.2359 83.1299 55.9409 82.96C55.6459 82.7902 55.418 82.5399 55.257 82.2091C55.0961 81.8784 55.0157 81.4761 55.0157 81.0023L55.0425 80.6001C55.0425 80.2157 55.1274 79.8849 55.2973 79.6078C55.4761 79.3218 55.7129 79.1028 56.0079 78.9508C56.3029 78.7988 56.6292 78.7229 56.9868 78.7229C57.3443 78.7229 57.6438 78.7944 57.8852 78.9374C58.1355 79.0715 58.3277 79.2637 58.4617 79.514C58.6048 79.7553 58.6942 80.0369 58.7299 80.3587H54.6134V81.2705ZM66.5291 78.991L66.5962 77.449L61.5008 83.0137L61.4338 84.5557L66.5291 78.991ZM62.5065 77.9183H61.4338V84.5557L62.5065 83.0807V77.9183ZM66.5962 77.449L65.5235 78.924V84.0864H66.5962V77.449ZM61.9299 74.7673C61.9299 75.0712 62.0059 75.3707 62.1579 75.6657C62.3188 75.9517 62.5556 76.1886 62.8685 76.3763C63.1903 76.5551 63.5837 76.6445 64.0485 76.6445C64.5223 76.6445 64.9156 76.5551 65.2285 76.3763C65.5413 76.1886 65.7738 75.9517 65.9257 75.6657C66.0866 75.3707 66.1671 75.0712 66.1671 74.7673H65.2151C65.2151 74.8835 65.1838 75.022 65.1212 75.1829C65.0586 75.3349 64.9424 75.4735 64.7726 75.5986C64.6027 75.7148 64.3614 75.7729 64.0485 75.7729C63.7356 75.7729 63.4943 75.7148 63.3244 75.5986C63.1546 75.4735 63.0384 75.3349 62.9758 75.1829C62.9132 75.022 62.8819 74.8835 62.8819 74.7673H61.9299ZM67.7349 77.9183V78.924H71.3552V77.9183H67.7349ZM69.0087 78.1865V84.0864H70.0814V78.1865H69.0087ZM77.594 78.991L77.661 77.449L72.5657 83.0137L72.4986 84.5557L77.594 78.991ZM73.5713 77.9183H72.4986V84.5557L73.5713 83.0807V77.9183ZM77.661 77.449L76.5883 78.924V84.0864H77.661V77.449ZM80.3685 81.3376H84.9275V80.3319H80.3685V81.3376ZM84.2303 77.9183V84.0864H85.303V77.9183H84.2303ZM79.7383 77.9183V84.0864H80.811V77.9183H79.7383ZM87.3871 77.9183V84.0864H88.4598V78.924H90.6722V77.9183H87.3871ZM92.2287 82.2762C92.2287 82.0259 92.2868 81.8113 92.403 81.6326C92.5192 81.4538 92.6935 81.3152 92.926 81.2169C93.1673 81.1186 93.4668 81.0694 93.8243 81.0694C94.2177 81.0694 94.5708 81.123 94.8836 81.2303C95.1965 81.3286 95.5049 81.4851 95.8088 81.6996V81.0694C95.7463 80.9889 95.6301 80.8861 95.4602 80.761C95.2904 80.6269 95.0624 80.5107 94.7764 80.4124C94.4993 80.3051 94.164 80.2515 93.7707 80.2515C93.2344 80.2515 92.7695 80.3364 92.3762 80.5062C91.9829 80.6671 91.6789 80.8995 91.4644 81.2035C91.2499 81.5074 91.1426 81.8784 91.1426 82.3164C91.1426 82.7365 91.2365 83.0896 91.4242 83.3757C91.6208 83.6528 91.8801 83.8629 92.2019 84.0059C92.5237 84.1489 92.8768 84.2205 93.2612 84.2205C93.6903 84.2205 94.0791 84.1489 94.4277 84.0059C94.7764 83.8539 95.0535 83.6394 95.2591 83.3623C95.4736 83.0762 95.5809 82.7365 95.5809 82.3432L95.3664 81.6728C95.3664 82.0572 95.2859 82.3656 95.125 82.598C94.973 82.8304 94.7585 83.0003 94.4814 83.1075C94.2043 83.2148 93.8869 83.2684 93.5294 83.2684C93.288 83.2684 93.069 83.2327 92.8723 83.1612C92.6757 83.0807 92.5192 82.969 92.403 82.8259C92.2868 82.674 92.2287 82.4907 92.2287 82.2762ZM92.2287 79.3665C92.327 79.295 92.4611 79.21 92.631 79.1117C92.8097 79.0044 93.0198 78.915 93.2612 78.8435C93.5025 78.7631 93.7707 78.7229 94.0657 78.7229C94.4054 78.7229 94.7049 78.8033 94.9641 78.9642C95.2323 79.1162 95.3664 79.3486 95.3664 79.6615V84.0864H96.4391V79.6615C96.4391 79.2592 96.3363 78.9195 96.1307 78.6424C95.934 78.3653 95.6569 78.1552 95.2993 78.0122C94.9507 77.8602 94.5395 77.7842 94.0657 77.7842C93.5115 77.7842 93.0377 77.8692 92.6444 78.039C92.251 78.2089 91.9382 78.3787 91.7058 78.5485L92.2287 79.3665ZM53.6033 87.7002V97.0864H54.743V87.7002H53.6033ZM54.2335 88.7729H56.1509C56.7588 88.7729 57.2505 88.9204 57.6259 89.2154C58.0103 89.5015 58.2025 89.935 58.2025 90.5161C58.2025 91.0882 58.0103 91.5217 57.6259 91.8167C57.2505 92.1117 56.7588 92.2592 56.1509 92.2592H54.2335V93.3319H56.1509C56.7588 93.3319 57.2996 93.2202 57.7734 92.9967C58.2561 92.7643 58.636 92.438 58.9131 92.0178C59.1992 91.5888 59.3422 91.0882 59.3422 90.5161C59.3422 89.935 59.1992 89.4344 58.9131 89.0143C58.636 88.5941 58.2561 88.2723 57.7734 88.0489C57.2996 87.8164 56.7588 87.7002 56.1509 87.7002H54.2335V88.7729ZM65.7764 90.9183H64.5697L62.6656 95.6919L63.1081 95.7455L61.1504 90.9183H59.8766L62.2365 96.2148L60.547 100.036H61.7538L65.7764 90.9183ZM67.4181 94.3376H71.9771V93.3319H67.4181V94.3376ZM71.2798 90.9183V97.0864H72.3525V90.9183H71.2798ZM66.7879 90.9183V97.0864H67.8606V90.9183H66.7879ZM74.5171 94.2705H79.7867C79.7957 94.2169 79.8001 94.1633 79.8001 94.1096C79.8001 94.056 79.8001 94.0023 79.8001 93.9487C79.8001 93.2962 79.6795 92.7375 79.4381 92.2726C79.1967 91.7988 78.857 91.4323 78.419 91.1731C77.981 90.9139 77.4715 90.7842 76.8904 90.7842C76.363 90.7842 75.8848 90.8915 75.4557 91.1061C75.0355 91.3206 74.6914 91.6201 74.4232 92.0044C74.155 92.3888 73.9763 92.8358 73.8869 93.3453C73.869 93.4526 73.8556 93.5599 73.8466 93.6671C73.8377 93.7744 73.8332 93.8861 73.8332 94.0023C73.8332 94.6192 73.9584 95.1734 74.2087 95.665C74.4679 96.1478 74.8165 96.5277 75.2546 96.8048C75.7015 97.0819 76.2021 97.2205 76.7563 97.2205C77.2927 97.2205 77.7397 97.1579 78.0972 97.0327C78.4548 96.8986 78.7587 96.7154 79.009 96.483C79.2593 96.2416 79.4873 95.9645 79.6929 95.6516L78.8213 95.1019C78.6872 95.3253 78.5263 95.522 78.3386 95.6919C78.1509 95.8528 77.9363 95.9824 77.695 96.0807C77.4625 96.1701 77.1944 96.2148 76.8904 96.2148C76.4882 96.2148 76.1395 96.1299 75.8445 95.96C75.5496 95.7902 75.3216 95.5399 75.1607 95.2091C74.9998 94.8784 74.9193 94.4761 74.9193 94.0023L74.9462 93.6001C74.9462 93.2157 75.0311 92.8849 75.2009 92.6078C75.3797 92.3218 75.6166 92.1028 75.9116 91.9508C76.2066 91.7988 76.5329 91.7229 76.8904 91.7229C77.248 91.7229 77.5475 91.7944 77.7888 91.9374C78.0391 92.0715 78.2313 92.2637 78.3654 92.514C78.5084 92.7553 78.5978 93.0369 78.6336 93.3587H74.5171V94.2705ZM80.3318 90.9183V91.924H83.9521V90.9183H80.3318ZM81.6056 91.1865V97.0864H82.6783V91.1865H81.6056ZM85.5112 95.2762C85.5112 95.0259 85.5693 94.8113 85.6855 94.6326C85.8017 94.4538 85.9761 94.3152 86.2085 94.2169C86.4498 94.1186 86.7493 94.0694 87.1069 94.0694C87.5002 94.0694 87.8533 94.123 88.1662 94.2303C88.479 94.3286 88.7874 94.4851 89.0914 94.6996V94.0694C89.0288 93.9889 88.9126 93.8861 88.7427 93.761C88.5729 93.6269 88.3449 93.5107 88.0589 93.4124C87.7818 93.3051 87.4466 93.2515 87.0532 93.2515C86.5169 93.2515 86.052 93.3364 85.6587 93.5062C85.2654 93.6671 84.9615 93.8995 84.7469 94.2035C84.5324 94.5074 84.4251 94.8784 84.4251 95.3164C84.4251 95.7365 84.519 96.0896 84.7067 96.3757C84.9034 96.6528 85.1626 96.8629 85.4844 97.0059C85.8062 97.1489 86.1593 97.2205 86.5437 97.2205C86.9728 97.2205 87.3616 97.1489 87.7103 97.0059C88.0589 96.8539 88.336 96.6394 88.5416 96.3623C88.7561 96.0762 88.8634 95.7365 88.8634 95.3432L88.6489 94.6728C88.6489 95.0572 88.5684 95.3656 88.4075 95.598C88.2555 95.8304 88.041 96.0003 87.7639 96.1075C87.4868 96.2148 87.1694 96.2684 86.8119 96.2684C86.5705 96.2684 86.3515 96.2327 86.1548 96.1612C85.9582 96.0807 85.8017 95.969 85.6855 95.8259C85.5693 95.674 85.5112 95.4907 85.5112 95.2762ZM85.5112 92.3665C85.6096 92.295 85.7436 92.21 85.9135 92.1117C86.0923 92.0044 86.3023 91.915 86.5437 91.8435C86.7851 91.7631 87.0532 91.7229 87.3482 91.7229C87.6879 91.7229 87.9874 91.8033 88.2466 91.9642C88.5148 92.1162 88.6489 92.3486 88.6489 92.6615V97.0864H89.7216V92.6615C89.7216 92.2592 89.6188 91.9195 89.4132 91.6424C89.2165 91.3653 88.9394 91.1552 88.5818 91.0122C88.2332 90.8602 87.822 90.7842 87.3482 90.7842C86.794 90.7842 86.3202 90.8692 85.9269 91.039C85.5336 91.2089 85.2207 91.3787 84.9883 91.5485L85.5112 92.3665Z" fill="white"/>
<path d="M67.2831 42.8287H63.7039L58.1388 31.4038H57.986C58.1606 33.2734 58.2479 34.7938 58.2479 35.965V42.8287H55.3235V26.8753H58.9245L64.446 38.2238H64.6424C64.4678 36.5288 64.3805 35.063 64.3805 33.8263V26.8753H67.2831V42.8287ZM68.7999 42.8287V40.7773H75.7727V42.8287H68.7999ZM76.0019 35.8559C76.0019 37.0999 75.6672 38.0747 74.998 38.7804C74.3287 39.486 73.4193 39.8388 72.2699 39.8388C71.1496 39.8388 70.2548 39.4787 69.5856 38.7585C68.9163 38.0383 68.5817 37.0708 68.5817 35.8559C68.5817 34.6338 68.909 33.6699 69.5637 32.9642C70.2185 32.2586 71.1351 31.9057 72.3136 31.9057C73.4339 31.9057 74.3287 32.2695 74.998 32.9969C75.6672 33.7171 76.0019 34.6701 76.0019 35.8559ZM70.7859 35.8559C70.7859 36.5834 70.9023 37.1326 71.1351 37.5036C71.3751 37.8674 71.7607 38.0492 72.2918 38.0492C72.8083 38.0492 73.1829 37.8674 73.4157 37.5036C73.6485 37.1326 73.7649 36.5834 73.7649 35.8559C73.7649 35.1284 73.6485 34.5865 73.4157 34.23C73.1829 33.8663 72.8083 33.6844 72.2918 33.6844C71.7607 33.6844 71.3751 33.8663 71.1351 34.23C70.9023 34.5865 70.7859 35.1284 70.7859 35.8559ZM77.2782 42.8287H90.5305V39.3648H84.2731L87.9158 36.102C88.5862 35.521 89.13 34.8803 89.5472 34.1801C89.9643 33.4649 90.1729 32.6828 90.1729 31.8335C90.1729 31.2376 90.0463 30.6491 89.793 30.0681C89.5397 29.487 89.1598 28.9581 88.6533 28.4813C88.1616 27.9897 87.5433 27.6023 86.7984 27.3193C86.0534 27.0213 85.1968 26.8723 84.2284 26.8723C82.8875 26.8723 81.7477 27.1479 80.8091 27.6992C79.8854 28.2504 79.1926 28.9879 78.7308 29.9116C78.2689 30.8353 78.038 31.8559 78.038 32.9733H81.7477C81.7477 32.4071 81.8371 31.908 82.0159 31.476C82.2096 31.0439 82.4852 30.7087 82.8428 30.4703C83.2153 30.2319 83.6399 30.1127 84.1166 30.1127C84.4742 30.1127 84.7871 30.1723 85.0552 30.2915C85.3234 30.3958 85.5469 30.5448 85.7257 30.7385C85.9045 30.9173 86.0386 31.1259 86.1279 31.3642C86.2173 31.6026 86.262 31.841 86.262 32.0794C86.262 32.4965 86.1801 32.8913 86.0162 33.2638C85.8672 33.6214 85.6363 33.9864 85.3234 34.3589C85.0254 34.7313 84.6679 35.1485 84.2507 35.6103L77.2782 42.8287Z" fill="white"/>
<path d="M56.384 120.985H63.7439V119.794H58.9912L62.3136 116.412C62.7209 115.994 63.0536 115.523 63.3119 114.996C63.5701 114.47 63.6992 113.938 63.6992 113.402C63.6992 113.084 63.6347 112.751 63.5055 112.404C63.3764 112.056 63.1778 111.733 62.9096 111.435C62.6414 111.128 62.2987 110.879 61.8816 110.691C61.4644 110.492 60.9678 110.393 60.3917 110.393C59.6766 110.393 59.0608 110.551 58.5443 110.869C58.0377 111.177 57.6504 111.614 57.3822 112.18C57.114 112.737 56.9799 113.387 56.9799 114.132H58.2463C58.2463 113.606 58.3307 113.154 58.4996 112.776C58.6684 112.389 58.9118 112.096 59.2296 111.897C59.5574 111.689 59.9448 111.584 60.3917 111.584C60.7096 111.584 60.9926 111.639 61.2409 111.748C61.4893 111.858 61.6978 112.002 61.8667 112.18C62.0455 112.359 62.1796 112.558 62.2689 112.776C62.3583 112.995 62.403 113.218 62.403 113.447C62.403 113.725 62.3583 113.993 62.2689 114.251C62.1895 114.5 62.0653 114.748 61.8965 114.996C61.7376 115.235 61.5439 115.478 61.3154 115.726L56.384 120.985ZM66.4307 115.771C66.4307 115.165 66.4903 114.609 66.6095 114.102C66.7286 113.586 66.9025 113.144 67.1309 112.776C67.3594 112.399 67.6325 112.111 67.9503 111.912C68.2781 111.704 68.6406 111.599 69.0379 111.599C69.4452 111.599 69.8077 111.704 70.1255 111.912C70.4434 112.111 70.7165 112.399 70.945 112.776C71.1734 113.144 71.3472 113.586 71.4664 114.102C71.5856 114.609 71.6452 115.165 71.6452 115.771C71.6452 116.377 71.5856 116.938 71.4664 117.454C71.3472 117.961 71.1734 118.403 70.945 118.78C70.7165 119.148 70.4434 119.436 70.1255 119.645C69.8077 119.843 69.4452 119.943 69.0379 119.943C68.6406 119.943 68.2781 119.843 67.9503 119.645C67.6325 119.436 67.3594 119.148 67.1309 118.78C66.9025 118.403 66.7286 117.961 66.6095 117.454C66.4903 116.938 66.4307 116.377 66.4307 115.771ZM65.1643 115.771C65.1643 116.814 65.3282 117.738 65.6559 118.542C65.9837 119.347 66.4356 119.982 67.0117 120.449C67.5977 120.906 68.2731 121.134 69.0379 121.134C69.8027 121.134 70.4732 120.906 71.0493 120.449C71.6353 119.982 72.0922 119.347 72.4199 118.542C72.7477 117.738 72.9116 116.814 72.9116 115.771C72.9116 114.728 72.7477 113.804 72.4199 113C72.0922 112.195 71.6353 111.565 71.0493 111.108C70.4732 110.641 69.8027 110.407 69.0379 110.407C68.2731 110.407 67.5977 110.641 67.0117 111.108C66.4356 111.565 65.9837 112.195 65.6559 113C65.3282 113.804 65.1643 114.728 65.1643 115.771ZM73.7997 120.985H81.1596V119.794H76.4069L79.7293 116.412C80.1366 115.994 80.4693 115.523 80.7275 114.996C80.9858 114.47 81.1149 113.938 81.1149 113.402C81.1149 113.084 81.0503 112.751 80.9212 112.404C80.7921 112.056 80.5935 111.733 80.3253 111.435C80.0571 111.128 79.7144 110.879 79.2973 110.691C78.8801 110.492 78.3835 110.393 77.8074 110.393C77.0923 110.393 76.4765 110.551 75.96 110.869C75.4534 111.177 75.0661 111.614 74.7979 112.18C74.5297 112.737 74.3956 113.387 74.3956 114.132H75.662C75.662 113.606 75.7464 113.154 75.9153 112.776C76.0841 112.389 76.3275 112.096 76.6453 111.897C76.9731 111.689 77.3605 111.584 77.8074 111.584C78.1252 111.584 78.4083 111.639 78.6566 111.748C78.9049 111.858 79.1135 112.002 79.2824 112.18C79.4612 112.359 79.5952 112.558 79.6846 112.776C79.774 112.995 79.8187 113.218 79.8187 113.447C79.8187 113.725 79.774 113.993 79.6846 114.251C79.6052 114.5 79.481 114.748 79.3122 114.996C79.1533 115.235 78.9596 115.478 78.7311 115.726L73.7997 120.985ZM83.1759 112.612L85.4852 111.927V120.985H86.7516V110.407L83.1759 111.301V112.612Z" fill="white"/>
</svg>
