<svg width="129" height="33" viewBox="0 0 129 33" fill="none" xmlns="http://www.w3.org/2000/svg">
<g clip-path="url(#clip0_773_6872)">
<path fill-rule="evenodd" clip-rule="evenodd" d="M73.6941 12.8048C75.6414 12.7156 77.5975 12.4619 79.532 12.5785C84.7178 12.8897 89.879 13.285 95.0954 12.9794C98.4974 12.7829 101.925 13.1896 105.347 13.2858C108.276 13.364 111.203 13.4179 114.123 13.4068C114.712 13.3993 115.29 13.0326 115.734 12.8835C116.194 11.628 115.479 11.0831 114.826 10.6794C112.191 9.05894 109.491 7.53471 106.833 5.94092C105.304 5.02413 103.82 4.054 102.225 3.04536C102.992 1.82585 104.024 2.17662 104.799 2.40485C106.357 2.86053 107.908 3.41507 109.338 4.16127C114.11 6.63999 118.87 9.15271 123.559 11.7867C124.944 12.5701 126.198 13.6934 127.292 14.8647C128.25 15.8855 127.562 17.6622 126.223 17.9547C124.636 18.3039 123.011 18.5094 121.424 18.8585C115.543 20.1692 109.674 21.5116 103.805 22.8621C102.788 23.099 101.827 23.2324 101.301 22.0965C100.856 21.1326 101.558 19.9194 102.934 19.5905C105.623 18.9634 108.352 18.488 111.075 17.964C112.957 17.6111 114.915 17.4636 116.548 15.555C114.235 15.0738 112.178 14.7971 110.066 14.7876C99.6436 14.7431 89.2196 14.6824 78.7917 14.5812C77.4973 14.5666 76.1799 14.3988 74.9369 14.0683C74.4413 13.936 74.1142 13.1736 73.709 12.7052L73.6941 12.8048Z" fill="#282828"/>
<path fill-rule="evenodd" clip-rule="evenodd" d="M73.7186 12.7205C72.3607 14.5125 70.3864 14.6616 68.4064 14.5821C60.9144 14.2883 53.4358 14.7298 45.9486 14.9103C37.8006 15.1134 29.6533 15.3246 21.505 15.6096C15.9672 15.807 10.4337 16.135 4.89236 16.3819C3.75978 16.4336 2.59553 16.4965 1.48819 16.3003C1.00539 16.2158 0.357867 15.5252 0.277046 15.0256C0.194665 14.5097 0.559488 13.6235 0.994851 13.3852C1.81194 12.9465 2.82381 12.6608 3.75524 12.6449C9.29905 12.5942 14.8441 12.6416 20.3853 12.6484C24.2972 12.6484 28.2099 12.6565 32.1244 12.5989C41.7434 12.4588 51.3596 12.2044 60.9814 12.1786C65.203 12.1651 69.4278 12.6097 73.6712 12.8233C73.694 12.8047 73.7186 12.7205 73.7186 12.7205Z" fill="#282828"/>
</g>
<defs>
<clipPath id="clip0_773_6872">
<rect width="20.6834" height="126.797" fill="white" transform="translate(1.98145 32.7354) rotate(-95.4973)"/>
</clipPath>
</defs>
</svg>
