<svg width="924" height="861" viewBox="0 0 924 861" fill="none" xmlns="http://www.w3.org/2000/svg">
<g clip-path="url(#clip0_787_5623)">
<path d="M188.8 801.7C146.8 893.3 139.1 862 65.7999 812.4C40.2999 795.2 -60.3001 698 -58.5001 536.4C-55.7001 280.8 68.7999 375.2 149.2 253.7C229.7 132.2 18.2999 27.8 85.6999 6.99999C153.1 -13.8 247.3 53.3 264.3 15C281.3 -23.3 320.7 23.7999 375.4 69.6999C430.1 115.6 611 190.2 698.1 127C785.2 63.8 932.3 241.3 923 323C913.7 404.7 639.7 332.3 706 624.3C721.5 692.4 557.5 808.2 489 789.6C420.6 771.1 405.7 757.6 405.7 757.6" stroke="#D3D3D3" stroke-linecap="round"/>
<path d="M165 801.7C154 854.9 130.9 837.6 64.4999 793.7C41.3999 778.5 -41.6001 672.8 -40.0001 529.7C-37.5002 303.4 104.5 387.6 177.4 280.1C250.3 172.6 138.5 149.4 199.5 131C260.5 112.6 296.6 176.9 311.9 143C327.2 109.1 332.6 76.6 382.2 117.1C431.8 157.6 561.1 206.2 650.5 169.6C779.6 116.8 846.7 216 838.3 288.3C830 360.6 571.3 413.8 662.3 629.7C686.4 687 547.2 770.8 485.3 754.5C423.4 738.2 400.4 720.4 400.4 720.4" stroke="#D3D3D3" stroke-linecap="round"/>
<path d="M611.5 245.3C644.1 215.3 673.9 185.8 731.3 197.7C788.5 209.6 829 257.7 747.6 336.1C666.2 414.5 556 465.2 587.4 385.2C618.6 305.1 578.8 275.4 611.5 245.3Z" stroke="#D3D3D3" stroke-linecap="round"/>
<path d="M660.1 318.9C654 284.1 633.9 267.3 645.9 251.2C657.9 235.1 736.4 220.7 755.4 245.5C774.4 270.3 749.3 307.8 700.6 350.8C652.1 393.8 666.4 353.7 660.1 318.9Z" stroke="#D3D3D3" stroke-linecap="round"/>
<path d="M702.8 278.5C691.6 263 709.1 252.4 721.1 262.6C733 272.8 714 293.9 702.8 278.5Z" stroke="#D3D3D3" stroke-linecap="round"/>
<path d="M112 772.3C60.7001 767.5 21.2001 677.6 11.5001 583C1.80011 488.4 -65.5999 431.9 98.8001 404.3C263.2 376.7 157.6 276.4 278.7 263C399.8 249.6 535 167.3 544.6 259C554.2 350.7 527.8 437 555.2 476.3C582.6 515.6 622.7 600.7 596.2 652.3C569.7 703.9 496.7 760.2 458.6 717.6C420.5 675.1 393.8 673.6 393.8 673.6" stroke="#D3D3D3" stroke-linecap="round"/>
<path d="M112 747C85.2999 733.7 15.9999 588.6 57.6999 519C99.4999 449.4 172.3 444.9 213.8 403C255.3 361.1 373.8 235.4 446.7 320.3C519.4 405.2 572.5 585.2 523.4 629.6C474.3 674 393.7 646.9 393.7 646.9" stroke="#D3D3D3"/>
<path d="M14.1 575.7C14.1 573.877 12.6225 572.4 10.8 572.4C8.97746 572.4 7.5 573.877 7.5 575.7C7.5 577.522 8.97746 579 10.8 579C12.6225 579 14.1 577.522 14.1 575.7Z" fill="#D3D3D3"/>
<path d="M518.2 444.3C518.2 442.809 516.991 441.6 515.5 441.6C514.009 441.6 512.8 442.809 512.8 444.3C512.8 445.791 514.009 447 515.5 447C516.991 447 518.2 445.791 518.2 444.3Z" fill="#D3D3D3"/>
<path d="M113.4 675C89.6001 670.7 65.3001 577.3 73.7 553.7C82.1 530.1 87.3001 512.2 165 473.7C242.7 435.2 422.6 188.9 515.5 517.7C558 668 395.1 604.4 395.1 604.4" stroke="#D3D3D3"/>
<path d="M393.8 556.3C393.8 556.3 467.2 602.7 482.4 568.3C497.6 533.9 450.9 407.6 414.9 397.6C378.9 387.6 239.8 425.9 264.1 466.9C288.4 508 320.1 490.1 334.2 514.9" stroke="#D3D3D3" stroke-linecap="round"/>
<path d="M439.1 464.6C458.2 491.1 467.8 542.3 447.4 546.9C427.1 551.4 434.3 513.8 371.2 485.8C287.5 448.6 303 438.3 335.5 433.8C368 429.3 402.3 413.8 439.1 464.6Z" stroke="#D3D3D3" stroke-linecap="round"/>
<path d="M424.4 480.3C435.1 492.7 451.9 511 434.8 508.7C417.7 506.4 382.8 475.5 393.9 473.9C405.1 472.3 413.7 468.1 424.4 480.3Z" stroke="#D3D3D3" stroke-linecap="round"/>
</g>
<defs>
<clipPath id="clip0_787_5623">
<rect width="861" height="984" fill="white" transform="translate(-60 861) rotate(-90)"/>
</clipPath>
</defs>
</svg>
