<svg width="85" height="99" viewBox="0 0 85 99" fill="none" xmlns="http://www.w3.org/2000/svg">
<path d="M76.6379 37.5519C75.0145 37.55 73.4327 38.0654 72.122 39.0232C71.2594 35.7253 68.2542 33.2847 64.6896 33.2847C62.9735 33.2829 61.3068 33.8587 59.9577 34.9193C58.8807 31.9768 56.0525 29.8709 52.7414 29.8709C51.2216 29.8692 49.7358 30.3209 48.4741 31.1682V16.2157C48.4741 11.9803 45.0285 8.53467 40.7931 8.53467C36.5578 8.53467 33.1121 11.9803 33.1121 16.2157V56.9375C33.1116 57.1949 33.0378 57.4468 32.8994 57.6638C32.761 57.8808 32.5637 58.0539 32.3306 58.1629C32.0245 58.3071 31.6754 58.3306 31.3528 58.2287C31.0302 58.1269 30.7578 57.9071 30.5901 57.6133L25.4684 48.7424C23.9867 46.1761 21.5945 44.3402 18.732 43.5731C15.8689 42.8061 12.8796 43.1998 10.3133 44.6815C9.82696 44.9605 9.4008 45.3332 9.05947 45.778C8.71814 46.2228 8.46843 46.7309 8.32479 47.2729C8.1783 47.8141 8.14059 48.3789 8.21384 48.9348C8.28709 49.4907 8.46984 50.0265 8.75153 50.5113L28.0484 83.9253C33.4186 93.2238 43.4249 99.0002 54.1626 99.0002C70.7907 99.0002 84.3189 85.4722 84.3189 68.844V45.2329C84.3189 40.9976 80.8732 37.5519 76.6379 37.5519ZM80.9051 68.844C80.9051 83.5898 68.9085 95.5864 54.1626 95.5864C44.6404 95.5864 35.7667 90.4639 31.0047 82.2181L11.7076 48.8039C11.6514 48.7069 11.6149 48.5998 11.6003 48.4886C11.5856 48.3775 11.5931 48.2646 11.6223 48.1563C11.6511 48.048 11.701 47.9464 11.7693 47.8575C11.8375 47.7685 11.9227 47.694 12.0199 47.6381C13.2034 46.9548 14.5167 46.6058 15.8478 46.6058C16.5147 46.6058 17.1865 46.6936 17.8481 46.8709C19.8299 47.4018 21.486 48.6728 22.512 50.4496L27.6337 59.3205C28.8772 61.4741 31.5153 62.3071 33.7703 61.2587C35.4442 60.4801 36.5259 58.7841 36.5259 56.9379V16.2157C36.5259 13.8627 38.4401 11.9484 40.7931 11.9484C43.1461 11.9484 45.0604 13.8627 45.0604 16.2157V47.7932C45.0604 48.2459 45.2402 48.6801 45.5603 49.0002C45.8804 49.3203 46.3146 49.5002 46.7673 49.5002C47.2201 49.5002 47.6542 49.3203 47.9744 49.0002C48.2945 48.6801 48.4743 48.2459 48.4743 47.7932V37.5519C48.4743 35.1989 50.3886 33.2847 52.7416 33.2847C55.0946 33.2847 57.0088 35.1989 57.0088 37.5519V47.7932C57.0088 48.2459 57.1887 48.6801 57.5088 49.0002C57.8289 49.3203 58.2631 49.5002 58.7158 49.5002C59.1685 49.5002 59.6027 49.3203 59.9228 49.0002C60.2429 48.6801 60.4228 48.2459 60.4228 47.7932V40.9657C60.4228 38.6127 62.337 36.6984 64.69 36.6984C67.043 36.6984 68.9573 38.6127 68.9573 40.9657V48.6467C68.9573 49.0994 69.1371 49.5336 69.4572 49.8537C69.7773 50.1738 70.2115 50.3537 70.6642 50.3537C71.117 50.3537 71.5511 50.1738 71.8713 49.8537C72.1914 49.5336 72.3712 49.0994 72.3712 48.6467V45.2329C72.3712 42.8799 74.2855 40.9657 76.6385 40.9657C78.9915 40.9657 80.9057 42.8799 80.9057 45.2329L80.9051 68.844Z" fill="white"/>
<path d="M52.4216 25.0592C52.6145 25.1734 52.8281 25.2486 53.05 25.2802C53.272 25.3119 53.498 25.2994 53.7152 25.2437C53.9324 25.1879 54.1364 25.0898 54.3156 24.9551C54.4949 24.8204 54.6458 24.6517 54.7597 24.4586C56.2308 21.9707 57.0085 19.1201 57.0085 16.2155C57.0085 7.27418 49.7343 0 40.793 0C31.8517 0 24.5775 7.27418 24.5775 16.2155C24.5775 19.1091 25.3494 21.95 26.81 24.431C26.9237 24.6241 27.0743 24.793 27.2533 24.928C27.4323 25.063 27.6361 25.1613 27.8531 25.2175C28.07 25.2737 28.296 25.2866 28.518 25.2554C28.7399 25.2243 28.9536 25.1497 29.1468 25.036C29.5369 24.8063 29.8198 24.4311 29.9333 23.9928C30.0467 23.5546 29.9814 23.0892 29.7518 22.699C28.5999 20.7426 27.9912 18.5006 27.9912 16.2155C27.9912 9.15653 33.734 3.41376 40.793 3.41376C47.852 3.41376 53.5947 9.15653 53.5947 16.2155C53.5947 18.5091 52.9816 20.7589 51.8212 22.7211C51.5908 23.1108 51.5246 23.576 51.6372 24.0145C51.7498 24.4529 52.032 24.8287 52.4216 25.0592ZM9.28875 25.5302C9.44707 25.689 9.63519 25.8149 9.84232 25.9007C10.0495 25.9865 10.2715 26.0305 10.4957 26.0302C10.8333 26.0302 11.1633 25.9301 11.444 25.7425C11.7247 25.5549 11.9434 25.2884 12.0726 24.9765C12.2018 24.6646 12.2356 24.3214 12.1698 23.9903C12.1039 23.6592 11.9413 23.355 11.7026 23.1163L6.50863 17.9225H19.4569C19.9097 17.9225 20.3438 17.7426 20.664 17.4225C20.9841 17.1024 21.1639 16.6682 21.1639 16.2155C21.1639 15.7628 20.9841 15.3286 20.664 15.0085C20.3438 14.6884 19.9097 14.5085 19.4569 14.5085H6.50863L11.7026 9.31451C12.0199 8.99379 12.1974 8.56052 12.1961 8.10938C12.1949 7.65823 12.0152 7.22592 11.6961 6.90693C11.3771 6.58794 10.9448 6.40821 10.4937 6.40702C10.0425 6.40584 9.60924 6.5833 9.28856 6.90061L1.1808 15.0086C0.860724 15.3287 0.680908 15.7628 0.680908 16.2155C0.680908 16.6682 0.860724 17.1023 1.1808 17.4225L9.28875 25.5302ZM69.8835 25.5302C70.0418 25.689 70.23 25.8149 70.4371 25.9007C70.6442 25.9865 70.8663 26.0305 71.0905 26.0302C71.5275 26.0302 71.9641 25.8636 72.2974 25.5302L80.4052 17.4225C80.7253 17.1023 80.9051 16.6682 80.9051 16.2155C80.9051 15.7628 80.7253 15.3287 80.4052 15.0086L72.2974 6.9008C71.9767 6.58349 71.5435 6.40603 71.0923 6.40721C70.6412 6.4084 70.2089 6.58813 69.8898 6.90712C69.5708 7.22612 69.3911 7.65843 69.3898 8.10957C69.3886 8.56071 69.566 8.99399 69.8833 9.3147L75.0773 14.5087H62.129C61.6763 14.5087 61.2421 14.6886 60.922 15.0087C60.6019 15.3288 60.4221 15.763 60.4221 16.2157C60.4221 16.6684 60.6019 17.1026 60.922 17.4227C61.2421 17.7428 61.6763 17.9227 62.129 17.9227H75.0773L69.8833 23.1167C69.7248 23.2752 69.5991 23.4633 69.5134 23.6704C69.4276 23.8774 69.3835 24.0994 69.3835 24.3235C69.3835 24.5476 69.4277 24.7695 69.5135 24.9766C69.5993 25.1836 69.725 25.3718 69.8835 25.5302Z" fill="white"/>
</svg>
