<svg width="187" height="571" viewBox="0 0 187 571" fill="none" xmlns="http://www.w3.org/2000/svg">
<defs>
<clipPath id="clip" clipPathUnits="objectBoundingBox" transform="scale(0.005347 0.001751)">
<path d="M25.5767 555.942C26.6773 560.1 29.4492 567.203 30.7741 570.158C47.2325 570.235 81.6168 570.235 87.4868 570.235C87.4868 568.782 87.9454 567.483 88.3275 562.286C88.7097 557.088 88.0982 557.776 88.0982 555.865C88.0982 553.955 87.6396 550.821 86.9517 549.063C86.2638 547.305 85.9581 547.229 86.3403 544.783C86.7224 542.337 87.4868 534.159 86.7989 529.878C86.111 525.598 86.646 527.662 87.4868 523.917C88.3275 520.172 88.2511 514.21 88.0982 511.153C87.9454 508.095 88.3275 509.624 89.3211 511.153C90.3148 512.681 102.238 528.808 103.155 531.407C104.073 534.006 106.06 540.273 105.448 543.254C104.837 546.235 105.754 549.751 106.518 553.037C107.283 556.324 107.588 558.235 108.353 561.292C108.964 563.738 109.372 568.273 109.499 570.235H173.397C172.709 566.49 171.119 557.685 170.263 552.426C169.193 545.853 168.428 548.375 169.728 541.725C171.027 535.076 170.186 532.554 169.193 527.28C168.199 522.006 169.04 520.324 170.186 514.133C171.333 507.942 171.104 503.892 170.492 493.115C169.881 482.338 169.728 482.643 171.104 478.44C172.479 474.236 171.104 473.93 168.887 468.198C166.671 462.465 166.365 460.249 166.594 458.338C166.823 456.427 165.906 451.612 165.142 448.631C164.378 445.65 165.6 448.02 165.142 446.032C164.683 444.045 164.301 441.217 163.919 439.306C163.613 437.778 161.499 431.23 160.48 428.147C160.964 427.765 161.886 426.878 161.702 426.389C161.473 425.778 159.868 420.657 159.639 414.389C159.409 408.122 158.722 395.74 158.492 383.511C158.309 373.727 153.83 362.365 151.613 357.906C151.868 357.371 153.28 355.705 156.887 353.32C161.397 350.339 166.136 347.435 168.276 346.212C170.416 344.989 173.626 341.167 172.785 334.747C171.944 328.327 172.709 326.034 175.078 314.798C177.447 303.563 178.135 292.786 181.193 278.034C183.639 266.233 183.384 254.009 182.951 249.372C183.384 249.016 184.556 248.103 185.779 247.309C187.307 246.315 186.849 245.398 185.396 238.519C183.944 231.64 184.632 222.85 184.632 211.385C184.632 199.921 182.033 188.761 179.053 178.52C176.072 168.278 171.715 163.386 168.964 162.087C166.212 160.787 148.25 155.972 144.734 154.749C141.219 153.526 129.983 150.24 126.62 148.252C123.93 146.663 122.442 146.979 122.034 147.335C121.652 147.463 118.381 145.501 114.467 142.138C109.576 137.934 102.238 124.711 102.85 110.418C103.461 96.1256 105.372 91.9218 106.595 90.2403C107.573 88.8951 108.276 87.6926 108.506 87.2595C110.315 86.3677 113.993 83.5143 114.238 79.2341C114.544 73.8838 115.767 74.1131 115.92 70.5972C116.042 67.7845 115.053 64.3807 114.544 63.0304C114.544 62.5718 114.483 61.2725 114.238 59.7439C113.932 57.833 115.232 57.9095 115.002 56.228C114.773 54.5465 114.238 53.5528 114.238 52.9414C114.238 52.3299 113.932 51.4127 113.932 50.2663C113.932 49.1198 113.397 49.1198 112.862 47.5911C112.327 46.0625 112.174 43.2345 113.779 42.623C115.385 42.0116 115.232 39.6422 114.544 35.9734L114.521 35.8522C113.82 32.1124 112.178 23.3441 105.525 14.7253C98.7987 6.01199 101.168 6.01199 92.3784 1.80822C83.5887 -2.39555 77.7034 1.73179 71.0538 4.10119C64.4042 6.47059 64.4042 4.63621 59.7419 3.87189C55.0795 3.10757 50.7229 4.17762 47.1305 5.24767C43.5382 6.31772 37.8058 9.68074 35.2836 13.1966C32.7613 16.7125 28.4046 21.0691 27.1817 22.5214C25.9588 23.9736 27.0289 25.8079 24.7359 26.343C22.4429 26.878 25.0416 29.0181 24.7359 30.6232C24.4302 32.2282 22.5194 35.7441 22.978 39.6422C23.4366 43.5402 25.7295 47.6676 26.5703 50.4191C27.411 53.1707 30.1626 57.6037 31.0033 58.8267C31.8441 60.0496 31.5384 64.4827 32.3791 65.8584C33.2199 67.2342 32.3027 69.145 33.7549 71.2851C35.2071 73.4252 35.0543 72.7373 35.2071 74.5717C35.36 76.4061 36.2772 76.2532 36.2007 80.3806C36.1243 84.5079 37.8058 89.0174 39.9459 96.8899C42.086 104.762 42.9268 107.438 47.9713 115.31C52.0069 121.608 55.5126 124.202 56.761 124.711C58.3661 132.049 61.4234 147.702 60.8119 151.615C60.0476 156.507 59.589 156.66 57.4489 157.883C55.3088 159.106 55.4617 160.634 53.8566 160.634C52.2515 160.634 52.4044 160.711 50.2643 162.01C48.1242 163.31 47.2834 163.539 43.4618 162.774C39.6402 162.01 26.4174 169.501 22.2136 172.481C18.0099 175.462 14.5704 184.787 13.7297 192.965C12.8889 201.143 10.2138 207.105 8.76157 211.997C7.30936 216.889 0.583302 234.009 0.124708 234.621C-0.333885 235.232 2.18838 236.837 4.63421 238.519C6.59087 239.864 10.7488 241.78 12.5832 242.57C12.3284 243.614 11.6048 246.728 10.7488 250.824C9.67874 255.945 8.68512 273.907 7.76793 282.391C6.85074 290.875 4.71065 297.983 4.25205 303.028C3.79346 308.072 1.80622 319.843 2.49411 329.626C3.182 339.409 6.00999 359.97 7.9208 369.142C9.8316 378.313 8.76155 385.345 9.52588 389.625C10.1373 393.049 12.9908 397.37 14.3412 399.103C13.9845 399.842 13.1488 401.793 12.6596 403.689C12.0482 406.058 12.6596 407.74 13.2711 410.644C13.8825 413.549 13.959 412.402 13.959 414.313C13.959 416.224 14.2647 417.294 13.8061 419.357C13.3475 421.421 14.3412 424.861 13.8061 428.147C13.2711 431.434 13.959 439.306 14.3412 440.3C14.7233 441.294 14.7233 450.389 14.7233 452.758C14.7233 455.128 14.8762 455.586 14.7233 460.172C14.5705 464.758 14.9526 482.032 15.4876 484.019C16.0227 486.006 16.1755 488.07 15.9462 490.822C15.7169 493.573 18.0863 498.694 19.3092 506.261C20.5322 513.828 24.2009 550.744 25.5767 555.942Z" fill="#90CBBE"/>
</clipPath>
</defs>
</svg>
