<svg width="532" height="386" viewBox="0 0 532 386" fill="none" xmlns="http://www.w3.org/2000/svg">
<defs>
<clipPath id="clip" clipPathUnits="objectBoundingBox" transform="scale(0.001879 0.002590)">
<path d="M262.235 10.8586C265.938 9.00707 271.492 20.502 273.807 26.4809C275.542 26.4809 287.115 24.7455 292.322 22.4311C297.53 20.1167 310.838 13.1734 320.095 10.2804C329.353 7.38738 332.825 9.1232 335.718 9.7018C338.611 10.2804 337.454 10.859 339.768 9.1232C342.082 7.38738 344.397 9.7018 346.133 10.2804C347.868 10.859 349.026 7.96599 353.655 12.0162C358.283 16.0665 359.441 18.9595 361.176 20.6953C362.912 22.4311 364.069 25.9027 368.12 31.6888C372.17 37.4748 372.17 39.7893 371.591 42.1037C371.013 44.4181 371.591 44.4181 371.591 48.4683C371.591 52.5186 372.17 52.5186 373.327 55.9902C374.484 59.4618 373.327 61.7763 372.748 64.0907C372.17 66.4051 372.17 68.1409 372.17 70.4553C372.17 72.7698 364.648 81.4488 359.441 82.606C355.275 83.5318 351.533 81.0631 350.183 79.713C350.183 79.9059 349.373 80.8702 346.133 83.1846C342.892 85.4991 338.997 87.2349 337.454 87.8135C338.225 88.3921 341.388 89.8965 347.868 91.2851C355.969 93.0209 361.755 95.3353 376.799 101.7C388.834 106.792 402.643 110.765 408.043 112.115C407.85 111.729 408.043 110.842 410.358 110.379C412.672 109.916 414.794 112.886 415.565 114.429C416.53 114.815 419.037 115.471 421.351 115.008C424.244 114.429 430.609 112.115 434.081 111.536C437.552 110.958 437.552 110.958 440.445 110.379C443.338 109.8 449.703 112.693 453.175 116.744C455.92 119.947 453.991 121.906 452.643 122.509C453.049 122.355 453.887 122.619 454.332 124.844C454.795 127.159 452.982 128.894 452.017 129.473C452.21 129.666 452.712 130.399 453.175 131.787C453.637 133.176 452.982 135.066 452.596 135.838C455.682 136.609 461.738 138.499 461.275 139.888C460.696 141.624 460.118 142.202 455.489 141.624C451.786 141.161 445.46 138.731 442.76 137.574C442.953 137.959 441.718 138.615 435.238 138.152C427.137 137.574 424.244 135.838 421.93 135.259C419.615 134.68 418.458 134.68 417.301 133.523C416.375 132.598 412.286 131.98 410.358 131.787C409.972 132.173 408.738 132.945 406.886 132.945C405.035 132.945 404.957 131.402 405.15 130.63C402.064 130.437 391.264 129.589 372.748 127.737C349.604 125.423 340.347 121.373 334.561 119.637C328.774 117.901 325.303 112.693 318.36 109.8C312.805 107.486 300.616 100.35 295.215 97.0712C295.023 97.264 294.29 97.534 292.901 97.0712C291.512 96.6083 290.008 96.4926 289.429 96.4926C288.658 97.0712 286.189 98.807 282.486 101.121C277.857 104.014 271.493 108.065 270.914 108.643C270.335 109.222 271.493 111.536 270.335 112.693C269.178 113.851 267.442 113.272 265.707 115.008C263.971 116.744 266.285 119.058 263.971 120.794C261.656 122.53 258.185 129.473 256.449 130.63C254.713 131.787 256.449 135.259 253.556 139.888C250.663 144.517 246.034 141.045 246.613 144.517C247.191 147.988 250.084 145.674 250.084 150.303C250.084 154.006 246.613 159.946 244.877 162.454C245.262 164.382 245.455 169.397 243.141 174.026C240.248 179.812 240.248 178.076 243.72 180.969C246.497 183.283 245.262 185.019 244.298 185.598L244.877 186.755C245.455 186.369 246.613 185.945 246.613 187.334C246.613 189.069 247.77 189.069 248.927 187.912C250.084 186.755 251.82 187.912 253.267 189.069C254.713 190.227 255.87 189.069 258.763 189.069C261.656 189.069 265.707 191.384 267.442 192.541C269.178 193.698 270.335 194.277 273.228 196.013C276.121 197.748 275.543 201.799 276.7 199.484C277.857 197.17 277.279 198.906 279.014 200.063C280.75 201.22 281.329 200.641 285.379 202.956C289.429 205.27 288.272 205.27 290.587 205.27C292.901 205.27 291.165 207.006 292.901 208.163C294.637 209.321 298.108 209.899 301.58 211.056C305.052 212.214 303.316 212.214 305.052 212.214C306.788 212.214 306.788 212.214 308.523 213.949C310.259 215.685 309.681 213.949 317.202 216.264C324.724 218.578 338.032 223.207 342.082 226.679C346.133 230.15 347.29 233.622 350.761 234.201C354.233 234.779 351.919 237.094 353.076 238.251C354.233 239.408 359.441 244.615 362.334 245.773C365.227 246.93 362.912 246.93 364.069 248.087C365.227 249.244 365.805 249.823 366.962 250.401C368.12 250.98 368.698 249.823 368.698 251.559C368.698 253.295 369.277 253.873 373.327 256.188C377.377 258.502 397.628 275.86 406.308 282.803C414.987 289.747 410.358 286.854 417.88 290.904C425.402 294.954 420.773 292.061 423.666 293.218C426.559 294.375 423.666 294.954 428.873 297.847C433.039 300.161 435.238 301.897 435.816 302.476C436.202 301.512 437.668 299.93 440.445 301.319C443.223 302.707 444.447 306.912 444.712 308.262C445.026 308.648 446.116 309.535 447.967 309.998C450.282 310.576 450.86 309.998 452.596 311.155C453.985 312.081 455.875 311.926 456.646 311.734C456.646 311.541 456.993 310.808 458.382 309.419C460.118 307.683 463.011 308.262 467.061 308.262C471.111 308.262 470.533 308.262 471.111 306.526C471.69 304.79 480.948 306.526 484.998 306.526C488.238 306.526 496.763 305.755 500.62 305.369C502.742 303.826 507.563 300.277 509.878 298.426C512.771 296.111 514.507 292.64 516.821 290.904C519.136 289.168 526.657 286.275 530.129 297.268C533.601 308.262 527.815 313.469 506.985 338.928C486.155 364.387 475.162 373.066 473.426 373.644C471.69 374.223 466.482 373.066 464.168 371.909C462.317 370.983 462.239 369.208 462.432 368.437C457.996 364.772 448.314 356.286 445.074 351.657C441.834 347.029 442.953 344.714 443.917 344.135C443.145 344.135 441.255 343.904 439.867 342.978C438.131 341.821 438.131 342.4 437.552 340.085C436.974 337.771 435.238 338.928 432.345 337.192C429.452 335.456 429.452 333.721 427.716 333.721C425.98 333.721 421.351 326.777 418.458 327.935C415.565 329.092 413.251 326.777 411.515 325.042C409.779 323.306 409.779 323.306 395.893 316.941C382.006 310.576 366.384 304.212 355.969 296.69C345.554 289.168 343.24 286.854 341.504 286.275C339.768 285.696 339.768 283.382 338.032 283.961C336.296 284.539 335.139 282.803 333.982 281.646C332.825 280.489 331.089 279.91 329.932 280.489C328.774 281.068 328.196 277.596 327.039 277.596H322.988C322.063 277.596 320.674 276.053 320.095 275.281C318.745 275.089 315.814 274.703 314.888 274.703C313.731 274.703 313.152 273.546 311.416 273.546C309.681 273.546 309.681 271.231 306.788 271.81C303.894 272.388 304.473 271.231 289.429 268.338C277.394 266.024 256.256 265.831 247.191 266.024C245.455 267.181 241.868 271 241.405 277.017C240.827 284.539 237.355 299.583 235.04 311.734C232.726 323.884 230.412 338.928 229.833 348.186C229.254 357.443 230.99 364.965 225.783 371.909C220.575 378.852 213.053 384.059 208.425 385.216C203.796 386.374 187.016 386.374 178.337 381.166C169.658 375.959 138.992 358.022 114.112 345.871C89.232 333.721 88.6534 333.142 84.6032 330.249C80.5529 327.356 82.8674 326.199 78.6002 325.62C74.3329 325.042 74.1883 325.042 71.2953 326.199C68.4022 327.356 68.9809 326.777 64.9306 326.777C60.8804 326.777 60.8804 326.199 59.1446 326.777C57.4087 327.356 56.2515 326.777 54.5157 325.62C52.7799 324.463 51.6227 325.62 44.6794 327.935C39.1248 329.786 37.3504 329.092 37.1576 328.513C35.036 329.67 29.6356 333.026 25.0069 337.192C19.221 342.4 20.378 342.978 14.0134 344.135C7.64872 345.293 4.75551 344.135 0.705271 330.828C-3.34496 317.52 24.4281 287.432 30.7927 281.068C37.1574 274.703 41.2076 270.653 49.8867 265.445C56.83 261.279 62.0374 259.081 63.7732 258.502C65.1233 258.888 68.1706 260.006 69.5593 261.395C71.2951 263.131 70.1379 263.709 73.6095 267.181C77.0811 270.653 79.3956 276.439 82.8672 281.068C85.6445 284.771 85.9531 286.468 85.7602 286.854C86.9174 287.239 89.6947 288.589 91.5463 290.904C93.2821 289.747 94.4393 289.747 99.0681 290.904C103.697 292.061 110.062 295.533 112.955 297.268C115.269 298.657 116.619 301.319 117.005 302.476C120.091 303.247 127.535 305.253 132.627 307.105C138.992 309.419 138.413 308.841 139.57 308.841C140.728 308.841 140.728 309.998 142.464 310.576C144.199 311.155 149.985 312.891 152.878 314.048C155.771 315.205 156.35 314.048 156.929 314.048C157.391 314.048 159.436 315.591 160.4 316.362C160.207 315.977 159.822 314.974 159.822 314.048C159.822 312.891 159.243 311.155 158.086 310.576C156.929 309.998 158.086 307.683 158.086 307.105C158.086 306.526 157.507 303.633 156.35 302.476C155.193 301.319 155.193 300.74 154.614 299.583C154.036 298.426 155.771 297.847 155.193 297.268C154.614 296.69 152.878 293.797 150.564 286.854C148.25 279.91 145.935 277.596 145.357 275.86C144.778 274.124 142.464 267.181 141.885 264.867C141.306 262.552 140.728 264.288 139.57 263.131C138.413 261.974 137.835 261.395 137.835 259.081C137.835 256.766 136.677 256.188 135.52 254.452C134.363 252.716 134.363 251.559 134.363 250.98C134.363 250.401 131.47 250.98 131.47 249.244C131.47 247.508 130.891 247.508 129.156 244.615C127.42 241.722 124.527 233.043 123.948 228.993C123.37 224.943 123.37 219.157 122.791 213.371C122.328 208.742 121.827 202.377 121.634 199.774L118.162 198.327C118.162 197.941 118.278 196.707 118.741 194.855C119.204 193.004 120.091 191.384 120.477 190.805C120.284 189.841 120.245 186.755 121.634 182.126C123.37 176.34 123.948 171.711 125.684 161.296C127.42 150.881 133.206 133.523 137.256 120.794C141.306 108.065 146.514 97.6498 149.985 86.6563C152.763 77.8615 158.086 62.5477 160.4 55.9902C160.4 55.7973 160.169 55.1802 159.243 54.2544C158.317 53.3286 157.314 48.8541 156.929 46.7325C156.35 46.5397 153.573 46.1539 147.092 46.1539C138.992 46.1539 125.105 47.3111 114.112 47.8897C103.118 48.4683 97.9109 42.6823 90.9677 37.4748C84.0244 32.2674 92.7035 20.6953 95.5965 17.2237C98.4895 13.752 101.383 16.0665 107.747 12.5948C114.112 9.1232 119.898 4.49436 127.42 6.23017C133.437 7.61883 142.271 8.73746 145.935 9.1232C146.128 8.93033 146.629 8.31307 147.092 7.38698L147.094 7.38758C148.25 7.96519 148.251 7.96599 152.878 7.96599C155.182 7.96599 155.963 8.11526 156.085 8.27451C156.393 8.03331 156.879 7.70132 157.507 7.38698C158.664 6.80798 159.822 7.96599 162.715 7.38698C165.608 6.80798 169.658 5.65157 171.972 5.07296C174.287 4.49436 177.18 2.75814 182.387 2.17994C186.553 1.71738 195.695 1.21546 199.745 1.02233C201.481 0.250855 205.647 -0.829207 208.424 1.02233C211.896 3.33675 212.475 2.75814 216.525 2.75814C220.575 2.75814 225.204 5.65117 227.518 7.38698C229.833 9.1228 230.99 9.7014 233.883 10.8586C236.776 12.0158 236.198 12.5944 240.248 12.0158C244.298 11.4372 246.034 12.5944 249.505 12.0158C252.283 11.5529 252.977 12.2087 252.977 12.5944C253.749 12.2087 255.523 11.4372 256.449 11.4372C257.606 11.4372 257.606 13.173 262.235 10.8586Z" fill="#90CBBE"/>
</clipPath>
</defs>
</svg>
