<svg width="295" height="544" viewBox="0 0 295 544" fill="none" xmlns="http://www.w3.org/2000/svg">
<defs>
<clipPath id="clip" clipPathUnits="objectBoundingBox" transform="scale(0.003389 0.001838)">
<path d="M257.427 521.769C258.895 530.579 259.262 539.206 259.262 542.418L165.653 543.336C163.97 539.665 159.963 530.488 157.393 523.146C154.181 513.968 149.133 502.497 144.544 492.401C144.086 495.155 143.168 499.743 143.168 503.873C143.168 508.003 143.627 510.297 141.332 513.509C139.038 516.721 141.791 517.18 139.497 527.276C137.661 535.352 138.732 541.348 139.497 543.336L58.7355 542.418C56.5941 533.547 51.3018 511.857 47.2638 496.072C42.2162 476.341 36.7097 454.774 35.3331 445.138C33.9565 435.501 30.7444 432.748 28.9089 427.242C27.0734 421.735 23.4024 418.523 21.567 415.77C20.0986 413.567 19.1196 408.428 18.8137 406.133C18.0489 406.898 15.6016 407.969 11.9307 406.133C7.34209 403.839 5.96533 397.874 5.96533 392.826C5.96533 387.779 5.04759 385.484 3.2121 384.566C1.37661 383.649 0 374.471 1.37661 368.506C2.75323 362.541 10.0952 360.246 5.96533 356.116C1.83541 351.987 3.2121 342.35 3.2121 339.597C3.2121 336.844 -1.83549 336.385 1.37661 330.42C4.58871 324.454 3.2121 323.537 1.37661 321.701C-0.458871 319.866 0.917743 314.359 3.2121 309.312C5.50646 304.264 0 306.558 0 303.805C0 301.052 1.37661 298.299 5.04759 290.957C8.71856 283.615 9.63637 284.533 9.1775 283.156C8.71863 281.779 8.25976 277.191 11.9307 269.39C15.6017 261.589 13.7662 257.459 19.7315 226.715C25.6969 195.97 35.792 171.191 44.9695 166.603C52.3114 162.932 70.0544 155.59 78.0082 152.378C78.773 151.919 80.6697 150.083 82.1381 146.412C83.9736 141.824 83.5147 116.127 82.1381 109.244C80.7615 102.361 84.8911 81.2525 85.3499 73.4517C85.8088 65.6509 80.7612 42.7073 87.6443 29.4C94.5274 16.0928 107.835 11.0452 111.964 9.20975C116.094 7.37427 127.566 -2.26203 143.168 0.491198C158.769 3.24443 172.077 17.4694 181.713 36.2832C191.349 55.0969 189.055 62.8977 189.973 75.7461C190.89 88.5945 190.89 117.503 192.267 123.469C193.644 129.434 195.02 138.611 200.986 141.824C206.951 145.036 228.059 148.707 242.743 155.131C257.427 161.555 255.132 162.014 262.015 176.239C268.898 190.464 275.323 218.914 279.911 247.364C284.5 275.814 282.206 275.355 287.253 284.533C292.301 293.71 290.465 296.004 292.76 303.346C295.054 310.688 294.595 311.147 290.465 312.524C286.336 313.9 287.253 313.441 287.253 318.489C285.877 323.996 289.548 324.454 288.63 331.796C287.712 339.138 286.794 340.974 285.418 349.692C284.041 358.411 282.206 363.458 282.206 367.129C282.206 370.8 276.24 370.8 278.994 375.848C281.747 380.896 286.336 385.943 282.206 387.779C278.076 389.614 278.994 390.532 279.911 397.874C280.829 405.216 279.911 407.51 277.158 410.722C274.405 413.934 273.946 413.934 270.734 413.475C267.522 413.017 268.44 415.311 266.145 423.571C264.377 429.936 263.319 429.999 262.97 429.175C263.126 429.782 262.046 430.66 259.262 432.748C256.326 434.951 254.368 433.666 253.756 432.748C253.45 434.125 252.838 437.245 252.838 438.713C252.838 440.549 250.085 444.679 247.791 452.48C245.496 460.28 244.12 463.034 246.414 464.41C248.708 465.787 247.332 468.081 250.085 477.259C252.838 486.436 247.791 485.977 252.838 491.484C257.886 496.99 255.591 498.826 253.756 502.497C251.92 506.168 255.591 510.756 257.427 521.769Z" fill="#90CBBE"/>
</clipPath>
</defs>
</svg>
