<svg width="276" height="534" viewBox="0 0 276 534" fill="none" xmlns="http://www.w3.org/2000/svg">
<defs>
<clipPath id="clip" clipPathUnits="objectBoundingBox" transform="scale(0.003623 0.001872)">
<path d="M190.572 509.045C188.929 515.286 187.165 524.642 185.112 533.128L111.422 533.128C111.349 533.25 111.321 533.22 111.321 533.128H111.422C111.568 532.885 111.896 532.033 112.553 529.843C113.785 525.737 111.321 531.219 111.321 527.113C111.321 523.006 112.143 519.311 111.321 513.562C110.5 507.813 110.09 504.939 110.5 502.886C110.911 500.833 108.036 497.548 107.626 495.495C107.215 493.442 108.036 492.21 107.215 490.157C106.558 488.514 105.025 480.986 104.341 477.427C103.52 479.754 100.974 485.968 97.3602 492.21C92.8434 500.012 92.8434 503.707 86.684 513.562C81.7566 521.446 79.5419 526.832 77.2151 533.128H0.863777C1.68501 532.307 1.68502 530.254 0.863777 528.201C0.042531 526.148 -0.368092 521.631 1.68502 519.167C3.73814 516.703 2.91689 515.882 2.91689 513.008C2.91689 510.133 6.20188 507.403 6.6125 504.939C7.02313 502.475 6.6125 498.78 7.84437 493.852C9.07624 488.925 8.66562 486.872 12.3612 462.234C16.0568 437.597 26.733 412.959 30.4286 404.747C34.1243 396.535 32.8924 398.998 32.0711 396.124C31.2499 393.25 33.303 391.607 35.3561 389.965C37.4092 388.322 35.7667 388.322 35.3561 386.269C34.9455 384.216 35.7667 381.752 37.4092 378.878C39.0184 376.062 38.6569 375.61 37.0972 373.663L36.9986 373.54C35.3561 371.486 34.9455 366.559 34.5349 362.863C34.1243 359.168 32.0711 355.472 31.2499 354.651C30.5929 353.994 31.2499 353.556 31.6605 353.419C31.3868 353.008 30.7571 352.023 30.4286 351.366C30.018 350.545 29.1968 350.545 27.5543 347.26C25.9118 343.975 25.9118 345.207 21.8056 339.868C19.3418 337.405 17.6993 336.173 15.6462 332.888C13.5931 329.603 14.0037 330.014 12.7718 327.139C11.7864 324.84 11.54 320.706 11.54 318.927C10.3081 317.695 7.51587 314.328 6.20188 310.714C4.55939 306.197 4.14876 304.966 6.6125 303.734C9.07624 302.502 8.66562 302.091 10.7186 299.627C12.7716 297.164 12.3612 297.985 11.5399 296.342C10.7186 294.7 11.5399 294.289 11.5399 293.057C11.5399 291.826 10.7186 291.826 11.5399 289.772C12.3612 287.719 11.5399 287.719 10.7186 287.309C9.8973 286.898 9.89736 285.666 10.308 284.845C10.7186 284.024 10.7186 282.792 10.308 281.56C9.97947 280.574 10.9924 279.233 11.5399 278.686C11.2662 278.549 11.1293 277.536 12.7718 274.579C14.4143 271.623 17.0149 268.968 18.1099 268.009C18.3836 267.736 18.931 266.86 18.931 265.546C17.6992 264.724 15.2354 262.671 15.646 259.386C16.0567 256.101 19.7523 249.121 21.3948 241.319C23.0373 233.517 29.1966 201.899 33.3028 185.064C37.4091 168.228 39.0516 164.122 45.2109 159.194C44.8003 153.856 44.8003 150.571 45.2109 145.644C45.6215 140.716 48.9065 121.828 50.549 111.151C52.1915 100.475 56.7084 73.374 57.9402 63.1085C59.1721 52.8429 61.2252 24.9205 63.689 20.4036C66.1527 15.8868 72.7227 14.244 73.1333 11.7806C73.5439 9.31711 76.8289 5.62121 80.5245 3.56809C83.481 1.9256 88.0526 2.60997 89.9688 2.74684C90.2426 2.33612 92.5147 1.26831 99.4132 0.282811C108.036 -0.949058 123.229 1.51468 131.852 14.244C140.475 26.9733 146.635 50.3788 149.509 60.6444C152.384 70.91 156.9 98.4218 162.649 108.687C168.398 118.953 179.074 133.325 181.948 138.663C184.823 144.001 184.412 144.412 192.625 147.697C200.837 150.982 204.943 153.445 209.05 157.552C213.156 161.658 213.566 164.121 215.62 170.281C217.673 176.44 218.083 172.334 220.958 181.368C223.832 190.401 231.634 205.184 232.866 207.237C234.098 209.29 234.098 212.986 236.151 217.913C238.204 222.841 251.344 247.067 254.218 251.995C257.092 256.922 255.45 260.207 257.503 262.671C259.556 265.135 259.146 265.956 259.146 269.652C259.146 273.347 267.769 280.738 272.286 285.255C276.802 289.772 275.16 291.004 273.517 297.163C271.875 303.323 269.001 308.25 267.769 313.999C266.537 319.748 266.537 318.926 262.841 323.033C259.146 327.139 256.682 331.656 247.238 334.53C239.682 336.83 230.949 337.952 227.528 337.815C226.159 339.047 222.764 341.675 220.136 342.332C216.851 343.153 218.905 345.206 207.818 348.902C196.731 352.598 193.035 351.776 190.982 350.955C188.929 350.134 189.34 350.955 188.518 350.955C187.861 350.955 187.423 350.408 187.287 350.134L185.233 350.955C185.644 351.092 186.63 351.776 187.287 353.419C188.108 355.472 189.34 356.704 189.34 358.757C189.34 360.81 192.214 369.022 193.857 376.824C195.499 384.626 197.552 396.124 198.784 401.872C200.016 407.621 200.016 409.264 200.837 411.727C201.658 414.191 201.248 414.602 200.426 417.065C199.605 419.529 200.426 421.172 200.426 425.688C200.426 430.205 198.784 431.027 202.48 433.49C206.175 435.954 205.765 436.775 203.301 439.239C200.837 441.703 202.069 442.524 203.301 451.147C204.533 459.77 202.89 464.698 199.195 480.301C195.499 495.905 197.552 487.693 197.963 490.156C198.373 492.62 198.784 495.905 195.499 497.958C192.214 500.011 192.625 501.243 190.572 509.045Z" fill="#90CBBE"/>
</clipPath>
</defs>
</svg>
