<svg width="267" height="489" viewBox="0 0 267 489" fill="none" xmlns="http://www.w3.org/2000/svg">
<defs>
<clipPath id="clip" clipPathUnits="objectBoundingBox" transform="scale(0.003745 0.002044)">
<path fill-rule="evenodd" clip-rule="evenodd" d="M232.567 488.108C232.567 487.519 232.744 484.837 233.451 477.056C233.885 472.284 234.532 468.47 235.078 465.248C235.645 461.903 236.104 459.196 236.104 456.719C236.104 455.893 236.091 455.081 236.079 454.283C236.018 450.38 235.962 446.834 237.43 443.897C238.386 441.986 238.438 439.43 238.493 436.716C238.54 434.407 238.589 431.985 239.199 429.75C239.705 427.892 240.083 426.164 240.405 424.687C240.927 422.299 241.305 420.57 241.851 420.023C242.098 419.777 242.583 419.668 243.223 419.525C244.882 419.152 247.576 418.547 249.809 414.718C251.099 412.508 251.621 410.681 252.015 409.302C252.566 407.371 252.867 406.318 254.673 406.318C254.79 406.318 254.91 406.319 255.03 406.319C258.07 406.336 261.881 406.356 265.283 396.15C268.351 386.947 265.765 381.735 263.871 377.918C263.581 377.334 263.307 376.782 263.073 376.255C261.909 373.636 262.277 371.401 262.664 369.045C262.866 367.82 263.073 366.563 263.073 365.202C263.073 364.064 262.964 363.107 262.861 362.196C262.603 359.922 262.378 357.937 263.957 354.149C265.889 349.513 265.119 347.915 262.829 343.16C262.499 342.474 262.137 341.722 261.746 340.886C258.652 334.254 258.21 332.486 259.536 329.833C260.862 327.18 262.631 323.201 259.978 313.033C258.634 307.879 257.403 305.111 256.516 303.115C255.652 301.173 255.115 299.963 255.115 298.001C255.115 294.022 254.673 289.159 252.904 286.064C251.136 282.969 251.578 279.874 253.346 276.78C255.115 273.685 254.231 270.59 250.694 260.422C248.828 255.057 248.438 252.03 248.032 248.874C247.669 246.049 247.292 243.12 245.83 238.316C243.431 230.433 241.829 223.081 240.612 217.497C240.259 215.878 239.939 214.407 239.641 213.116C238.315 207.368 237.872 203.389 237.872 202.063C237.872 201.487 237.372 200.578 236.589 199.154C235.569 197.299 234.068 194.57 232.567 190.568C232.138 189.425 231.721 188.155 231.278 186.806C228.98 179.809 225.989 170.7 217.093 166.252C209.349 162.38 206.079 161.805 202.987 161.261C201.843 161.06 200.723 160.863 199.409 160.505C194.546 159.178 190.567 156.968 188.356 154.757C186.588 152.989 179.367 154.315 175.977 155.199C172.145 154.02 163.952 150.071 161.829 143.704C159.177 135.746 156.082 118.946 155.64 115.409C155.35 113.087 156.012 113.433 156.752 113.82C157.139 114.022 157.547 114.235 157.85 114.083C158.31 113.853 158.531 117.561 158.761 121.425C158.973 124.999 159.194 128.707 159.619 129.557C159.888 130.095 159.993 130.878 160.122 131.832C160.415 134.014 160.829 137.091 163.598 140.168C166.781 143.704 172.293 148.126 174.651 149.894C170.819 145.031 164.659 136.189 170.672 139.726C174.179 141.789 176.917 144.719 179.288 147.257C181.998 150.158 184.23 152.547 186.588 152.547C188.724 152.547 188.177 151.927 186.641 150.19C184.999 148.332 182.226 145.195 180.398 140.168C178.747 135.627 178.83 135.711 179.793 136.687C180.893 137.801 183.14 140.078 185.261 137.957C187.254 135.965 187.694 132.2 188.303 126.994C188.911 121.802 189.686 115.178 192.335 107.451C196.551 95.1554 182.063 59.9678 173.494 39.1567C171.279 33.7782 169.46 29.3599 168.461 26.5453C163.598 12.8398 157.851 6.20818 156.082 4.88185C154.314 3.55552 142.819 -2.19192 133.535 0.902857C124.25 3.99763 115.408 8.41866 113.64 11.5134C112.681 13.1915 112.372 13.8297 111.867 14.2033C111.441 14.5187 110.875 14.6455 109.661 15.0503C108.351 15.4868 108.011 16.031 107.737 16.4702C107.456 16.9208 107.243 17.2609 106.124 17.2609C103.913 17.2609 96.8394 22.1241 96.3973 23.4504C96.2039 24.0307 95.6719 24.4417 95.0237 24.9426C94.1902 25.5867 93.1644 26.3794 92.4183 27.8715C91.092 30.5242 88.8814 34.5032 86.6709 38.0401C84.4603 41.5769 81.8076 47.7665 81.8076 55.2824C81.8076 61.2951 82.3971 66.0404 82.6919 67.6615C82.3971 68.5457 81.8076 70.491 81.8076 71.1983C81.8076 71.7878 82.2006 72.3773 82.5936 72.9668C82.7901 73.2615 82.9866 73.5563 83.134 73.851C83.1728 73.9287 83.2254 74.0304 83.2889 74.1533C83.9477 75.4281 85.7866 78.9863 85.7866 81.809C85.7866 82.3858 85.7559 83.1315 85.7203 83.9976C85.5645 87.7781 85.3144 93.8506 87.113 98.1671C88.8814 102.411 90.5025 105.536 91.092 106.567C90.2077 108.483 89.1467 113.199 91.9762 116.736C94.8057 120.273 97.871 121.452 99.0499 121.599C100.082 122.631 102.675 124.871 104.797 125.578C106.92 126.285 108.629 127.052 109.218 127.346C109.955 131.473 110.898 140.433 108.776 143.262C106.124 146.799 104.797 148.126 101.26 150.336C98.431 152.105 95.6604 153.726 94.6288 154.315C93.0078 153.431 88.7046 152.016 87.9972 153.431C87.113 155.199 82.6919 158.294 76.0602 160.947C74.1742 161.701 71.8948 162.348 69.456 163.041C63.3195 164.783 56.1734 166.812 51.7441 171.557C48.6252 174.899 46.6288 178.129 44.7369 181.189C42.8742 184.202 41.1128 187.052 38.4808 189.684C33.1755 194.989 32.2913 198.084 32.2913 198.968C32.2913 199.276 31.7035 200.919 30.751 203.582C28.9634 208.579 25.8911 217.169 23.007 227.263C20.1329 237.323 17.8193 250.371 15.9448 260.944C14.9358 266.634 14.054 271.608 13.2805 275.011C11.07 284.738 8.85944 291.369 7.5331 292.696C7.37528 292.853 7.14234 293.049 6.85663 293.288C4.74123 295.063 -0.267059 299.264 0.90145 308.612C2.12747 318.42 3.7313 325.206 5.36365 332.112C5.4972 332.678 5.63095 333.243 5.76469 333.812C6.5685 337.228 6.91562 339.274 7.26272 341.32C7.67927 343.776 8.0958 346.231 9.30157 351.054C10.0823 354.177 10.9733 358.072 11.9161 362.193C13.643 369.742 15.5437 378.051 17.2596 383.77C17.7206 385.307 18.0882 386.604 18.4041 387.718C19.9055 393.013 20.2386 394.188 23.8912 397.476C25.4811 398.907 26.6136 399.766 27.4532 400.403C28.9483 401.537 29.5145 401.967 30.0808 403.665C30.5006 404.925 29.1263 406.184 27.8036 407.397C26.3406 408.737 24.9408 410.02 26.1018 411.181C26.3102 411.39 26.5305 411.614 26.7633 411.851C28.9991 414.127 32.3913 417.579 37.5966 419.581C42.483 421.461 44.8129 424.938 47.3032 428.655C47.742 429.309 48.1858 429.972 48.6494 430.634C51.7442 435.055 53.9547 436.824 54.8389 436.382C56.6074 438.592 57.4916 439.918 57.9337 442.571C58.0781 443.437 58.3167 444.068 58.5419 444.663C59.0063 445.89 59.4134 446.965 58.8179 449.645C58.4279 451.4 58.468 452.639 58.5208 454.272C58.5877 456.342 58.675 459.045 57.9337 464.234C57.648 466.234 57.3418 468.316 57.0372 470.387C55.9276 477.932 54.8389 485.333 54.8389 488.108C55.8619 488.108 59.3839 488.098 64.8194 488.082C95.0915 487.994 184.716 487.734 232.567 488.108ZM91.5341 107.452C91.092 109.368 90.6499 113.819 92.4183 116.294C94.6289 119.389 97.2816 120.273 98.6079 120.715C95.9553 116.736 91.9762 108.778 91.5341 107.452ZM61.9126 379.35C63.8284 375.224 68.279 365.91 70.7548 361.666C73.2306 357.421 76.797 351.939 78.2707 349.729C77.2391 350.318 74.8222 351.409 73.4075 351.055C72.4144 350.807 71.7002 350.14 70.8733 349.369C70.2277 348.766 69.5135 348.1 68.5443 347.518C68.3279 347.388 68.1285 347.271 67.9444 347.163C66.2472 346.166 65.8483 345.932 65.4495 343.539C65.2658 342.437 65.2348 340.8 65.1978 338.851C65.1458 336.11 65.0821 332.751 64.5653 329.392C64.1804 326.889 63.7954 325.225 63.5199 324.034C63.1626 322.49 62.9893 321.74 63.2389 320.991C63.3992 320.511 63.505 320.254 63.5728 320.089C63.6546 319.891 63.6811 319.826 63.6811 319.665L60.5863 304.633C59.9968 306.549 58.5526 310.911 57.4915 313.033C57.2129 313.591 56.9342 314.07 56.6843 314.5C55.7445 316.116 55.2104 317.035 56.6073 318.781C56.733 318.938 56.8789 319.113 57.0405 319.307C59.1528 321.842 63.9659 327.619 61.9125 339.118C60.398 347.599 60.1287 350.477 59.8248 353.724C59.6852 355.216 59.5383 356.786 59.2599 359.013C59.1171 360.155 59.0089 361.136 58.9148 361.989C58.4262 366.418 58.318 367.399 55.723 369.624C53.2746 371.722 53.5934 372.437 54.2711 373.958C54.4501 374.359 54.6541 374.817 54.8388 375.371C55.5461 377.493 55.4284 379.203 55.2811 379.792C56.3127 378.76 59.0831 377.228 61.9126 379.35ZM223.725 361.666L222.841 365.202C221.073 362.727 220.041 359.75 219.746 358.571L223.725 361.666Z" fill="#90CBBE"/>
</clipPath>
</defs>
</svg>
