<svg width="228" height="543" viewBox="0 0 228 543" fill="none" xmlns="http://www.w3.org/2000/svg">
<defs>
<clipPath id="clip" clipPathUnits="objectBoundingBox" transform="scale(0.004385 0.001841)">
<path d="M205.776 511.233L204.119 543L140.93 542.24C140.47 542.24 140.585 541.605 139.756 539.064C138.72 535.887 139.204 533.677 138.651 530.362C138.099 527.047 135.474 515.722 134.093 512.89C132.712 510.059 132.643 507.573 130.847 501.841C129.052 496.109 129.052 496.523 126.566 490.239C125.806 491.689 125.668 494.797 124.908 498.941C124.149 503.084 124.563 502.048 124.839 505.087C125.06 507.518 123.734 508.724 122.975 509.023C122.906 509.23 122.809 510.1 122.975 511.924C123.182 514.203 121.732 520.28 120.972 526.564C120.364 531.591 120.581 539.11 120.558 542.24H61.1673C61.1442 541.665 60.9186 539.782 60.2004 536.854C59.3027 533.194 55.4354 513.719 54.7448 501.565C54.0542 489.41 53.9852 483.471 53.1564 479.052C52.4935 475.516 51.3149 458.887 50.8085 451.014C50.4862 450.807 49.5654 450.309 48.4605 449.978C47.0793 449.564 33.0604 442.796 30.4361 441.553C27.8119 440.31 28.5716 439.757 29.055 437.409C29.5384 435.061 31.3339 428.777 34.0272 420.214C36.7205 411.65 41.9689 384.027 45.6981 365.657C49.4273 347.288 50.8775 343.766 50.325 343.766C49.7726 343.766 48.9439 347.771 47.5627 350.188C46.1815 352.605 45.6291 352.398 45.0766 350.188C44.6346 348.42 45.9513 343.098 46.6649 340.658C46.4808 340.474 44.7313 339.263 38.1017 335.341C29.8146 330.437 23.3231 322.91 17.9365 321.667C12.5499 320.424 8.33737 318.836 7.37054 315.935C6.59709 313.615 5.75918 305.991 5.4369 302.469C4.8384 302.261 3.37897 301.585 2.32927 300.535C1.01716 299.223 -0.364014 297.911 0.46469 296.944C1.12765 296.17 2.35229 296.852 2.88174 297.289C3.34213 296.691 4.20767 294.969 3.98668 292.869C3.71045 290.245 3.01986 285.687 2.88174 284.721C2.74363 283.754 5.22974 279.61 9.78761 268.423C14.3455 257.235 12.8262 258.34 12.4119 253.92C12.0804 250.385 16.7856 246.554 19.1796 245.081C21.3434 239.878 25.8092 228.562 26.3617 224.916C27.0523 220.358 29.9527 220.496 29.6765 219.253C29.4003 218.01 30.5052 214.695 31.8864 213.314C33.2676 211.933 32.577 209.861 34.3725 203.922C35.8089 199.171 38.8383 191.261 40.1734 187.9C39.3447 187.256 38.4608 185.083 41.5546 181.547C45.4219 177.127 45.1456 178.785 48.8748 168.564C52.604 158.343 57.9906 158.481 63.7915 157.653C68.4322 156.99 69.7766 155.903 69.8687 155.443C69.8687 153.693 69.4819 147.957 67.935 139.007C66.0014 127.819 63.5153 127.06 63.7915 111.521C64.0677 95.9832 59.648 60.4179 67.935 35.5568C76.2221 10.6957 94.5917 5.03289 97.0778 4.41136C99.5639 3.78983 101.567 2.20148 107.575 1.85618C113.583 1.51089 109.301 -0.768046 119.453 0.267834C129.604 1.30371 147.698 14.2177 158.126 42.808C168.554 71.3983 167.518 78.0279 168.415 98.4693C169.313 118.911 167.656 119.739 175.528 127.06C183.401 134.38 184.851 138.109 187.13 139.007C188.953 139.725 191.343 140.963 192.31 141.493C192.195 141.125 193.801 140.747 201.149 142.183C208.497 143.62 211.025 145.406 211.922 146.396C212.774 145.867 215.306 145.125 218.621 146.396C222.765 147.984 224.353 153.302 226.632 161.451C228.911 169.6 227.322 187.417 227.046 192.734C226.77 198.052 227.391 209.999 227.046 215.869C226.701 221.739 226.287 224.709 225.665 228.231C225.044 231.753 225.251 231.2 224.491 232.857C223.731 234.515 223.87 234.446 224.491 236.172C225.113 237.899 223.041 238.52 222.972 239.556C222.903 240.592 223.248 241.283 222.35 242.733C221.452 244.183 221.383 243.216 219.519 247.774C218.027 251.42 217.378 253.253 217.171 253.713L216.135 257.511C216.02 259.353 215.223 265.881 212.958 277.262C210.693 288.643 207.779 295.678 206.605 297.773C206.651 298.072 207.047 300.383 208.262 307.234C209.782 315.797 211.715 325.949 211.577 334.512C211.439 343.075 211.094 353.986 210.679 358.959C210.265 363.931 208.538 376.914 208.4 379.4C208.262 381.886 208.953 386.651 211.094 397.01C213.234 407.369 212.268 415.172 213.165 420.283C214.063 425.393 215.03 429.26 215.375 441C215.721 452.74 218.069 460.889 218.138 461.649C218.207 462.409 217.93 466.621 215.928 469.314C213.925 472.008 214.892 470.626 214.408 472.077C214.022 473.237 212.866 474.816 212.337 475.461C212.981 476.128 214.229 478.43 214.063 482.297C213.897 486.165 210.265 490.17 208.469 491.689C209.183 493.048 210.555 496.537 210.334 499.631C210.113 502.725 207.434 508.655 205.776 511.233Z" fill="#90CBBE"/>
</clipPath>
</defs>
</svg>
