<svg width="368" height="370" viewBox="0 0 368 370" fill="none" xmlns="http://www.w3.org/2000/svg">
<defs>
<clipPath id="clip" clipPathUnits="objectBoundingBox" transform="scale(0.002717 0.002702)">
<path d="M362.722 369.499H19.7545C18.9032 368.989 18.4776 366.384 19.4991 360.051C20.776 352.134 19.7544 351.112 25.1173 343.451C29.4076 337.322 30.1397 334.769 29.9694 334.258C27.9264 328.81 23.585 315.667 22.5635 306.677C21.2867 295.441 22.3082 287.269 25.1173 286.247C27.9264 285.226 26.1388 282.928 29.9694 282.672C33.8 282.417 35.3323 280.629 43.7596 283.183C50.5015 285.226 57.635 288.12 60.359 289.312C62.8276 285.992 67.3562 274.807 65.7218 256.624C63.6788 233.896 54.23 210.657 44.7811 191.759L36.0984 174.393C34.8215 175.585 32.1146 176.845 31.5017 172.351C30.8888 167.856 26.309 157.709 24.0958 153.197C23.3297 153.538 21.3888 153.453 19.7544 150.388C17.7114 146.558 15.1577 142.983 14.6469 139.918C14.2383 137.466 11.7527 134.3 10.5609 133.023C7.41132 132.001 1.06101 128.579 0.856709 123.063C0.601335 116.168 3.66583 115.147 6.9857 101.612C10.3056 88.077 15.6685 87.0555 17.7115 82.2034C19.7545 77.3513 25.3727 74.0314 29.9695 74.0314C34.5662 74.0314 32.2678 72.2438 38.1414 74.0314C44.0151 75.819 48.8672 78.3728 52.4424 78.3728C56.0177 78.3728 55.7623 80.9266 57.8053 81.182C59.8483 81.4373 66.9988 81.182 70.574 80.4158L70.6936 80.3902C74.2233 79.6332 77.5062 78.9292 80.789 82.9696C83.4449 86.2384 84.7899 89.0986 85.1304 90.1201C87.8543 91.0564 96.3158 93.2867 108.369 94.7168C120.423 96.1469 133.992 96.5044 139.27 96.5044C140.036 97.1003 142.385 97.9345 145.654 96.5044C149.74 94.7168 151.528 92.6738 155.103 92.1631C158.678 91.6523 158.678 91.6523 160.721 90.8862C162.764 90.1201 168.127 91.6523 179.364 90.8862L180.019 90.8415C190.872 90.1007 197.705 89.6343 208.221 90.8862C218.947 92.1631 219.457 91.3969 230.694 88.0771C239.683 85.4212 243.122 84.4167 243.718 84.2464C244.825 82.1183 247.191 77.096 247.804 74.0315C248.417 70.967 248.059 69.1793 247.804 68.6686C246.612 69.605 243.922 69.9965 242.696 64.0718C241.164 56.666 243.718 58.1982 247.038 50.2816C250.358 42.365 248.825 40.5774 251.635 39.5559C253.586 38.8464 254.01 39.1122 253.976 39.4175C255.059 35.989 258.882 27.0115 265.936 17.3382C274.874 5.08027 284.067 2.52652 289.43 2.01577C294.793 1.50502 300.666 -1.04872 309.86 0.483524C319.053 2.01577 325.438 4.82493 333.61 14.7845C341.782 24.7441 345.102 37.7682 345.102 41.8542C345.102 45.123 341.356 56.8362 339.483 62.2842C343.569 64.1569 352.099 71.6309 353.529 86.5448C354.959 101.459 343.569 134.13 337.696 148.601C338.973 150.218 341.68 154.577 342.292 159.071C343.059 164.689 345.868 176.692 345.357 182.055C344.846 187.418 343.825 190.482 344.591 192.014C345.357 193.547 347.655 196.1 344.591 198.654C341.526 201.208 342.037 200.442 341.526 205.805C341.016 211.168 339.739 209.38 339.994 214.232C340.25 219.084 341.526 220.872 339.994 222.404C341.526 227.512 343.314 231.598 343.569 241.557C343.825 251.517 343.569 259.433 344.591 262.498C345.612 265.562 345.357 264.541 352.507 265.562C359.658 266.584 361.956 273.479 361.956 285.226C361.956 294.624 358.041 313.488 356.083 321.745C358.636 325.746 363.897 334.82 364.51 339.11C365.276 344.473 364.765 343.962 366.298 347.282C367.83 350.602 367.575 353.411 365.787 356.986C363.999 360.562 362.722 360.817 362.722 364.137V369.499Z" fill="#90CBBE"/>
</clipPath>
</defs>
</svg>
