<svg width="283" height="508" viewBox="0 0 283 508" fill="none" xmlns="http://www.w3.org/2000/svg">
<defs>
<clipPath id="clip" clipPathUnits="objectBoundingBox" transform="scale(0.003533 0.001968)">
<path d="M236.425 488.047C236.425 493.017 238.656 502.862 239.771 507.163L37.1425 507.163C37.4611 505.57 38.4806 500.759 40.0099 494.259C41.9215 486.135 43.3552 476.099 43.3552 473.71C43.3552 471.32 40.9657 467.497 41.9215 465.586C42.8773 463.674 41.9215 462.24 41.9215 459.373C41.9215 457.079 42.8773 454.913 43.3552 454.116C42.718 453.001 41.5392 450.293 41.9215 448.381C42.3994 445.992 42.8773 443.602 44.311 439.779C45.7447 435.956 44.311 435 44.311 432.611C44.311 430.221 44.311 427.832 45.7447 424.487C47.1784 421.141 45.2668 419.708 46.7005 413.495C48.1341 407.282 47.1784 410.15 46.2226 407.282C45.2668 404.415 45.7447 403.937 46.2226 402.503C46.7005 401.07 42.8773 398.68 45.2668 393.901C47.6562 389.122 45.7447 388.644 46.7005 385.299C47.6562 381.954 47.1784 379.564 48.1341 378.131C49.0899 376.697 45.7447 374.307 45.7447 371.918C45.7447 370.006 47.3377 366.98 48.1341 365.705C47.497 364.431 46.127 360.735 45.7447 356.147C45.3623 351.56 45.904 347.864 46.2226 346.589C42.3994 340.377 32.937 324.511 25.673 310.747C18.409 296.984 12.7698 281.755 10.8582 275.861C9.42452 275.701 6.17482 275.192 4.64555 274.427C2.73396 273.471 3.21186 270.126 3.21186 263.913C3.21186 257.701 2.25607 252.444 3.21186 245.753C4.16765 239.063 1.77823 229.983 0.344542 216.124C-1.08915 202.265 5.12351 190.795 8.46879 188.406C11.8141 186.016 13.2478 183.627 17.5488 179.326C21.8499 175.025 24.2394 172.635 27.1068 172.157C29.9741 171.679 29.9741 171.201 30.9299 168.812C31.8857 166.422 32.3636 166.9 35.7089 165.467C38.3851 164.32 40.3286 164.67 40.9658 164.989C44.1517 163.555 51.7662 159.445 56.7363 154.475C62.949 148.262 60.5595 150.652 61.5153 150.174C62.2799 149.792 63.7455 149.696 64.3827 149.696L67.2501 146.829L69.1617 147.307C70.4361 146.191 73.2716 143.674 74.4185 142.528C75.8522 141.094 76.3301 139.66 76.808 137.749C77.2859 135.837 74.8964 132.014 73.9406 127.713C72.9848 123.412 68.6838 112.898 67.728 110.508C66.7722 108.119 63.9048 106.685 61.5153 105.729C59.1258 104.774 54.3467 98.5611 52.9131 95.2158C51.4795 91.8705 47.6562 77.0557 49.0898 74.1883C50.2368 71.8944 54.6653 74.8255 56.7362 76.5778C56.099 75.9406 54.4424 73.6149 52.9131 69.4094C51.0015 64.1525 47.6563 55.5504 50.5236 35.0008C53.391 14.4512 70.5953 1.5481 94.0122 0.114406C117.429 -1.31928 126.987 11.106 130.81 15.885C134.633 20.664 139.412 28.3103 142.758 34.0451C145.434 38.6329 146.74 50.2935 147.059 55.5504C147.218 55.3911 147.728 55.2636 148.492 56.0283C149.448 56.9841 149.926 57.462 149.448 58.4178C148.97 59.3736 149.448 61.2851 149.926 64.6304C150.404 67.9757 150.882 73.2326 150.404 74.6663C149.926 76.0999 151.838 86.6137 152.316 92.8263C152.794 99.039 154.705 108.597 152.316 114.81C150.404 119.78 145.147 127.394 142.758 130.58L141.324 147.307C141.483 147.466 142.089 147.976 143.236 148.74C144.669 149.696 148.492 150.652 153.271 152.563C157.095 154.093 161.555 157.024 163.307 158.298C164.9 158.457 168.564 158.68 170.476 158.298C172.865 157.82 174.777 159.254 180.034 160.688C185.29 162.121 189.114 164.033 191.025 163.555C192.937 163.077 193.415 164.989 200.105 168.334C206.796 171.679 213.964 175.98 215.876 177.892C217.787 179.803 220.655 183.149 223.044 186.016C225.434 188.883 229.257 196.052 230.213 197.485C231.169 198.919 234.992 200.831 234.036 202.742C233.08 204.654 234.036 205.132 237.381 213.256C240.727 221.38 239.293 222.336 242.16 229.027C244.454 234.379 244.072 235.08 243.594 234.761C243.435 235.08 245.028 238.011 252.674 247.187C262.232 258.656 268.922 268.214 272.268 277.294C275.613 286.374 277.047 300.711 280.392 312.181C283.737 323.65 281.826 327.951 279.436 339.899C277.047 351.846 269.4 349.935 265.577 348.979C261.754 348.023 259.842 348.979 250.762 349.935C243.498 350.699 224.478 353.121 215.876 354.236C215.876 356.785 216.163 364.272 217.31 373.829C218.743 385.777 220.177 392.467 218.743 396.291C217.31 400.114 219.699 402.981 221.611 408.716C223.522 414.451 223.522 422.575 223.522 427.832C223.522 433.089 223.522 434.044 226.39 435.956C229.257 437.868 230.691 442.169 228.779 447.426C226.867 452.682 228.779 452.682 231.646 459.851C234.514 467.019 236.425 481.834 236.425 488.047Z" fill="#90CBBE"/>
</clipPath>
</defs>
</svg>
