<svg width="313" height="644" viewBox="0 0 313 644" fill="none" xmlns="http://www.w3.org/2000/svg">
<defs>
<clipPath id="clip" clipPathUnits="objectBoundingBox" transform="scale(0.003194 0.001552)">
<path fill-rule="evenodd" clip-rule="evenodd" d="M243.379 173.507C241.421 172.924 239.455 172.338 237.427 171.708C229.424 169.221 222.828 166.527 220.53 165.49C219.989 165.085 217.908 163.733 213.907 161.57C213.505 161.353 213.132 161.154 212.786 160.969C208.824 158.852 208.272 158.556 205.661 153.46C203.39 149.026 200.57 147.648 199.443 147.512L197.821 144.539C199.533 144.854 203.498 145.296 205.661 144.539C207.023 144.062 208.007 144.546 208.977 145.022C209.933 145.492 210.875 145.954 212.149 145.485C214.204 144.728 214.177 142.286 213.907 141.159L217.692 140.213C215.529 139.853 210.717 138.483 208.77 135.888C208.403 135.398 207.987 134.905 207.553 134.393C205.116 131.51 202.149 127.999 204.445 120.883C205.072 118.94 205.8 117.229 206.511 115.56C208.865 110.033 211.023 104.968 208.635 93.4435C207.248 86.7506 207.072 81.564 206.894 76.3359C206.673 69.8434 206.45 63.287 203.904 53.7028C203.053 50.4979 202.429 47.5341 201.842 44.7479C199.262 32.4928 197.405 23.6739 180.114 12.8808C158.892 -0.366079 150.916 -1.58263 147.537 1.25599C144.834 3.52688 143.257 5.53644 142.806 6.25736C142.04 3.91437 139.508 -0.366078 135.507 1.25599C130.505 3.28357 118.61 10.3125 116.177 14.2325C115.319 15.6153 114.124 16.8467 112.777 18.2353C110.305 20.7831 107.32 23.86 104.958 29.3718C101.308 37.8877 98.74 49.918 100.092 58.8394C100.889 64.0993 99.1483 72.3663 97.5855 79.7899C96.4976 84.9575 95.4958 89.7164 95.4958 92.7676C95.4958 97.9152 97.4399 102.415 99.0846 106.221C99.8153 107.913 100.487 109.467 100.903 110.881C101.806 113.953 101.502 117.871 101.201 121.746C101.051 123.668 100.903 125.579 100.903 127.372C100.903 128.285 100.937 129.156 100.971 129.999C101.136 134.145 101.274 137.612 97.1179 142.105C93.1168 146.431 90.2241 149.855 89.2779 151.027L94.2793 147.512L92.2517 153.46C92.4319 154.451 93.8737 155.974 98.1993 154.136C100.594 153.118 102.326 152.551 103.864 152.047C105.8 151.414 107.43 150.88 109.689 149.675C112.933 147.945 116.448 144.899 117.799 143.592L112.933 152.784L122.125 149.675L124.963 151.027C123.972 152.379 122.341 155.569 121.584 157.515C121.259 158.35 121.253 158.835 121.248 159.199C121.239 159.895 121.236 160.15 119.016 161.57C117.643 162.449 116.092 163.617 114.589 164.75C112.392 166.405 110.297 167.982 109.013 168.464C108.871 168.517 108.68 168.588 108.442 168.675C105.055 169.923 92.0466 174.717 71.8407 184.82C57.2404 192.12 56.8702 193.075 56.1749 193.507C55.8402 193.715 55.4303 193.802 53.3221 194.417C48.1315 195.931 47.1943 197.03 47.3745 197.391C45.9327 196.895 42.9138 197.932 41.2918 201.716C39.8255 205.138 40.2678 206.862 40.9829 209.651C41.2567 210.719 41.5705 211.942 41.8325 213.476C42.1123 215.116 42.5342 216.223 42.8985 217.179C43.7658 219.456 44.3074 220.877 41.8325 226.588C39.4521 232.081 38.4359 233.234 37.692 234.078C37.3375 234.48 37.0449 234.812 36.6959 235.509C36.2115 236.478 35.9712 237.583 35.6591 239.017C35.2745 240.785 34.7808 243.054 33.5869 246.188C32.7375 248.418 31.8463 250.043 31.0936 251.416C29.9299 253.538 29.0973 255.056 29.2614 257.272C29.3516 258.49 29.5922 259.406 29.8026 260.208C30.2229 261.809 30.5225 262.95 29.2614 265.112C28.0853 267.128 27.6923 272.8 27.3362 277.94C27.1193 281.07 26.9161 284.003 26.558 285.794C26.1355 287.906 24.8236 290.423 23.3323 293.284C21.4839 296.83 19.3599 300.905 18.3125 305.394C18.0373 306.573 17.745 307.824 17.4409 309.125C15.6538 316.771 13.4611 326.153 11.9594 332.969C10.5536 339.349 10.2923 343.647 10.3373 344.999C9.30099 346.306 6.98505 350.027 6.01181 354.461C5.42039 357.155 5.37205 358.795 5.33877 359.925C5.30359 361.118 5.28522 361.742 4.66009 362.436C4.57068 362.536 4.47908 362.635 4.38609 362.736C3.21387 364.007 1.82147 365.517 1.82147 370.276C1.82147 375.413 1.28078 379.198 0.740091 382.577C0.462253 384.313 1.71919 385.586 3.00694 386.89C4.22524 388.123 5.47112 389.384 5.47112 391.093C5.47112 394.607 7.63386 400.014 9.3911 402.718C10.7307 404.778 10.5778 408.175 10.4294 411.469C10.3831 412.497 10.3373 413.514 10.3373 414.478C10.3373 418.057 10.9691 419.214 13.0689 423.06C13.3483 423.572 13.6537 424.132 13.987 424.751C16.6951 429.78 18.419 438.008 20.5672 448.262C20.6706 448.756 20.7751 449.254 20.8807 449.757C22.1607 455.856 24.1955 461.661 25.6771 465.888C26.8554 469.249 27.6838 471.613 27.5042 472.331C27.4094 472.71 27.2999 473.082 27.1946 473.439C26.8493 474.611 26.5491 475.63 26.9635 476.251C27.0193 476.335 27.0736 476.414 27.1263 476.491C27.5836 477.159 27.9097 477.635 27.9097 479.09C27.9097 480.712 28.3152 481.658 29.1262 481.793C29.6456 481.88 29.6661 482.964 29.6847 483.946C29.6951 484.497 29.7049 485.016 29.8021 485.308C30.0725 486.119 30.8835 486.795 31.5593 485.848C32.3704 488.552 35.6145 496.122 37.7773 500.177C37.9729 500.544 38.1653 500.909 38.3543 501.269C40.2547 504.883 41.8196 507.858 43.049 504.908C44.4007 501.664 45.0766 499.23 45.0766 497.068C45.0766 495.498 45.931 495.78 47.0714 496.155C47.5023 496.297 47.974 496.453 48.4559 496.527C49.8617 496.743 50.5736 496.978 50.7538 497.068C51.4747 498.374 53.4843 501.204 55.7552 502.069C58.0261 502.934 60.8467 503.241 61.9731 503.286C62.1083 504.142 62.2975 506.962 61.9731 511.396C61.5676 516.938 62.5138 523.697 63.3248 528.293C63.5833 529.757 63.8143 530.727 63.9828 531.435C64.3432 532.949 64.4181 533.264 63.8655 534.646C63.282 536.104 63.1183 539.523 62.9717 542.584C62.9145 543.778 62.86 544.917 62.7841 545.865C62.7217 546.645 62.7241 547.338 62.7265 548.032C62.7345 550.343 62.7425 552.655 60.351 558.166C57.2421 565.33 61.2972 570.602 62.7841 571.818C63.1558 572.122 63.4769 572.283 63.7514 572.42C64.5752 572.832 64.9807 573.035 65.0821 576.279C65.1645 578.917 65.6996 581.555 66.1351 583.703C66.4136 585.076 66.6514 586.249 66.7041 587.092C66.7644 588.057 67.1473 588.914 67.5411 589.795C68.0303 590.89 68.5363 592.023 68.4614 593.446C68.3786 595.019 68.955 596.795 69.4763 598.401C69.8061 599.417 70.1138 600.365 70.2186 601.15C70.489 603.178 71.1648 609.666 71.5703 614.532C71.7885 617.15 72.3194 618.711 72.7847 620.08C73.1843 621.255 73.5354 622.287 73.5979 623.724C73.6686 625.349 73.85 626.199 74.0844 627.296C74.2983 628.298 74.5564 629.506 74.8145 631.699C75.247 635.376 76.6168 641.432 77.2476 644H152.538C152.088 640.26 151.214 631.997 151.322 628.861C151.338 628.405 151.352 627.979 151.365 627.576C151.464 624.512 151.52 622.806 151.998 619.939C152.268 618.317 152.268 617.101 152.268 616.121C152.268 615.141 152.268 614.397 152.538 613.721C152.91 612.793 152.962 611.673 153.046 609.88C153.085 609.063 153.13 608.106 153.214 606.963C153.363 604.95 153.677 603.677 154.133 601.828C154.503 600.326 154.967 598.443 155.512 595.473C156.729 588.85 157.405 584.659 157.134 582.226C157.008 581.088 157.414 580.126 157.869 579.052C158.385 577.831 158.964 576.463 158.892 574.521C158.783 571.602 158.847 570.061 158.892 569.655H160.243C160.676 569.655 160.964 569.115 161.054 568.844C162.992 570.647 167.38 574.63 169.435 576.144C172.003 578.036 182.817 590.201 188.494 603.989C190.885 609.795 192.773 614.068 194.268 617.452C196.323 622.103 197.636 625.076 198.497 628.05C199.687 632.159 203.228 640.395 204.85 644H302.58C301.904 640.44 300.282 632.186 299.2 627.644C298.806 625.99 298.367 624.232 297.907 622.397C296.792 617.937 295.562 613.025 294.605 608.044C293.253 601.015 290.82 588.85 290.144 585.741C289.603 583.254 288.927 581.1 288.657 580.334V578.171C290.144 578.126 293.415 577.36 294.605 574.657C295.918 571.671 297.654 561.721 298.507 556.833C298.619 556.189 298.716 555.633 298.795 555.192C299.471 551.407 297.578 543.026 296.902 540.323C296.362 538.16 296.317 536.087 296.362 535.321C296.767 535.772 297.822 536.295 298.795 534.781C300.011 532.888 300.822 530.185 301.363 528.157C301.796 526.535 302.174 525.589 302.309 525.319C302.399 525.814 302.769 526.319 303.526 524.372C304.048 523.029 304.654 522.262 305.091 521.708C305.445 521.26 305.689 520.951 305.689 520.588C305.689 519.777 305.689 508.963 306.365 502.61C306.636 500.061 306.972 495.968 307.321 491.718C307.843 485.374 308.393 478.68 308.798 476.251C309.473 472.196 310.284 464.086 310.284 455.435C310.284 451.568 310.663 449.241 311.081 446.666C311.598 443.481 312.177 439.917 312.177 432.591C312.177 419.344 311.366 391.093 310.825 379.603C310.284 368.113 308.122 339.592 307.311 331.076C306.5 322.56 304.202 305.529 302.58 299.716C300.958 293.904 299.471 285.118 300.147 277.143C300.51 272.855 300.092 271.849 299.502 270.429C298.994 269.207 298.359 267.678 297.984 263.49C297.335 256.245 296.272 253.623 295.821 253.217C296.182 250.514 296.74 243.701 296.091 238.078C295.686 234.563 295.111 231.522 294.537 228.48C293.962 225.439 293.388 222.398 292.982 218.883C292.171 211.854 291.36 201.987 291.631 198.472C291.901 194.958 290.009 191.443 288.792 190.497C287.819 189.74 286.224 189.731 285.548 189.821C284.151 188.965 280.52 187.064 277.167 186.307C273.815 185.55 270.454 183.648 269.192 182.792C258.631 178.051 251.077 175.8 243.379 173.507ZM72.3818 318.1C71.7059 320.713 69.9216 326.021 69.2728 327.426C68.9254 328.179 68.8508 328.882 68.741 329.919C68.5943 331.301 68.3849 333.276 67.3804 336.753C66.1746 340.927 64.9688 342.619 64.2871 343.575C63.9753 344.013 63.7732 344.296 63.7308 344.593C63.7037 344.783 63.6929 345.161 63.6778 345.691C63.6172 347.81 63.4874 352.352 61.9735 356.894C61.1964 359.225 60.7157 361.192 60.2691 363.018C59.6282 365.64 59.0578 367.973 57.7832 370.682C55.6204 375.277 51.8356 376.224 50.3487 376.494C49.4762 376.653 50.4189 378.115 51.3743 379.596C52.047 380.639 52.726 381.692 52.7818 382.306C52.8107 382.624 52.8334 383.029 52.8592 383.488L52.8593 383.489C52.9541 385.178 53.0905 387.606 53.728 389.2C53.9947 389.867 54.3345 390.388 54.6416 390.858C55.2685 391.818 55.7593 392.57 55.2149 393.931C54.7164 395.178 55.5968 396.577 56.4749 397.973C57.0253 398.848 57.5748 399.721 57.7832 400.555C58.3239 402.717 58.9997 407.719 58.9997 411.098V415.153C59.5404 415.424 60.8111 416.181 61.568 417.046C62.325 417.911 62.7846 418.848 62.9197 419.208C63.0099 417.947 63.4604 414.559 64.5418 411.098C65.8935 406.773 69.9487 397.716 72.7873 392.444C75.1593 388.039 76.1155 385.333 77.3911 381.723L77.3922 381.72C77.6428 381.011 77.9058 380.267 78.1942 379.468C78.9939 377.253 79.7375 376.075 80.3743 375.065C81.1368 373.857 81.7459 372.891 82.1142 370.682C82.405 368.937 82.7209 368.368 83.1372 367.619C83.6883 366.627 84.4155 365.318 85.4935 360.544C86.6299 355.511 87.1814 352.135 87.5578 349.832C87.8081 348.3 87.981 347.242 88.1969 346.486C88.5286 345.325 88.5042 345.283 88.0616 344.52C87.7825 344.038 87.3372 343.27 86.7101 341.755C85.6881 339.285 85.5246 338.103 85.4083 337.262C85.34 336.769 85.288 336.392 85.088 335.942C84.8465 335.399 84.3354 334.802 83.675 334.03C82.8568 333.074 81.8097 331.85 80.7625 330.13C78.8701 327.021 77.6535 325.399 75.6259 322.966C74.0039 321.019 72.7873 318.911 72.3818 318.1ZM264.191 465.708C264.822 465.708 266.273 464.897 265.948 461.653C265.543 457.597 265.137 452.326 265.408 448C265.545 445.803 265.124 444.233 264.677 442.565C264.244 440.949 263.786 439.241 263.786 436.781C263.786 434.697 263.668 432.097 263.561 429.713L263.561 429.712C263.41 426.376 263.279 423.466 263.515 422.993C263.542 422.94 263.571 422.885 263.601 422.827C263.618 422.796 263.634 422.765 263.651 422.733L263.652 422.731C264.093 421.902 264.771 420.625 263.921 418.803C262.975 416.775 263.38 409.882 263.651 407.584C263.921 405.286 263.786 404.204 262.839 402.447C261.963 400.82 261.667 395.254 261.52 392.506C261.509 392.286 261.498 392.084 261.488 391.904C261.445 391.127 261.512 390.378 261.579 389.626C261.723 388.022 261.867 386.402 260.947 384.469C259.595 381.631 257.973 378.116 257.703 373.926C257.433 369.735 258.379 363.247 258.784 361.22L258.806 361.111C259.204 359.124 259.581 357.242 258.784 354.055C257.973 350.811 256.622 344.999 256.486 340.538C256.378 336.97 256.171 333.374 256.081 332.022C255.675 331.977 254.891 334.023 254.999 342.566C255.105 350.917 254.301 355.962 253.623 360.221L253.623 360.222C253.434 361.409 253.254 362.534 253.107 363.653C252.645 367.164 253.51 370.865 254.146 373.59C254.441 374.851 254.686 375.902 254.729 376.629C254.776 377.419 254.902 379.472 255.053 381.931C255.342 386.621 255.722 392.787 255.81 394.472C255.887 395.933 256.183 397.044 256.399 397.855C256.562 398.469 256.68 398.912 256.622 399.203C256.559 399.514 256.382 399.883 256.209 400.243C256.007 400.664 255.81 401.074 255.81 401.366C255.81 401.609 255.92 401.688 256.04 401.775C256.187 401.882 256.351 402.001 256.351 402.447C256.351 402.542 256.349 402.631 256.348 402.716C256.334 403.355 256.327 403.727 257.162 404.204C258.108 404.745 258.108 405.421 257.973 406.502C257.916 406.956 258.074 407.101 258.276 407.285C258.556 407.54 258.919 407.873 258.919 409.206C258.919 411.504 259.595 420.425 260.001 422.723C260.406 425.021 260.812 434.618 260.812 436.781C260.812 438.944 261.353 450.704 261.758 454.353C262.164 458.003 263.651 464.626 264.191 465.708Z" fill="#90CBBE"/>
</clipPath>
</defs>
</svg>
