<svg width="100" height="28" viewBox="0 0 100 28" xmlns="http://www.w3.org/2000/svg">
<path d="M15.7283 6.48148L14.0813 3.59494L13.03 1.68839L12.9249 1.49239L12.224 0.245117L11.5232 1.49239L10.945 2.50803L2.85009 16.7269L0.992824 19.9698C0.852653 20.2193 0.852653 20.54 0.992824 20.8073L2.63983 23.7117L4.53214 27.0615L5.23299 25.8142L15.7458 7.30112C15.8685 7.06948 15.8685 6.73094 15.7283 6.48148Z" fill="#D2113A"/>
<path d="M23.4381 19.9685L20.1266 14.1598L19.8988 13.75H15.3082H13.7663C13.1355 13.75 12.7325 14.4449 13.0655 14.9973L14.3445 17.2245L19.2155 25.7951L19.9163 27.0424L20.6172 25.7951L22.4394 22.57L23.4381 20.806C23.5783 20.5565 23.5783 20.2358 23.4381 19.9685Z" fill="#D2113A"/>
<path d="M44.1309 17.1174H38.051L36.7895 20.0396H35.1074L40.2937 8.4043H41.9232L47.1096 20.0396H45.3925L44.1309 17.1174ZM43.5702 15.781L41.0822 10.097L38.6292 15.781H43.5702Z"/>
<path d="M49.791 8.38672H54.6094C55.8184 8.38672 56.9047 8.63617 57.8333 9.11726C58.7795 9.59835 59.4979 10.2933 60.0235 11.1842C60.5491 12.0751 60.7944 13.0729 60.7944 14.2311C60.7944 15.3714 60.5316 16.3871 60.0235 17.278C59.5154 18.1689 58.7795 18.846 57.8333 19.3449C56.8872 19.826 55.8184 20.0754 54.6094 20.0754H49.791V8.38672ZM54.5043 18.5787C55.4329 18.5787 56.2564 18.4005 56.9573 18.0264C57.6581 17.6522 58.2013 17.1533 58.5867 16.4762C58.9722 15.8169 59.1649 15.0507 59.1649 14.1776C59.1649 13.3045 58.9722 12.5384 58.5867 11.8791C58.2013 11.2198 57.6581 10.7031 56.9573 10.3289C56.2564 9.95472 55.4329 9.77654 54.5043 9.77654H51.4205V18.5253H54.5043V18.5787Z"/>
<path d="M80.0853 8.38672L76.2656 20.022H74.5485L71.4122 10.7209L68.2759 20.022H66.5238L62.7041 8.38672H64.3862L67.4874 17.8482L70.7114 8.38672H72.2182L75.3896 17.9016L78.5609 8.38672C78.5259 8.38672 80.0853 8.38672 80.0853 8.38672Z"/>
<path d="M83.063 8.38672H84.71V20.022H83.063V8.38672Z"/>
<path d="M98.9558 8.38672V20.022H97.6067L90.7383 11.3445V20.022H89.0913V8.38672H90.4405L97.3088 17.0642V8.38672H98.9558Z"/>
</svg>
