<svg width="34" height="34" viewBox="0 0 34 34" fill="none" xmlns="http://www.w3.org/2000/svg">
<path d="M16.9997 0.333008C7.79967 0.333008 0.333008 7.79967 0.333008 16.9997C0.333008 26.1997 7.79967 33.6663 16.9997 33.6663C26.1997 33.6663 33.6663 26.1997 33.6663 16.9997C33.6663 7.79967 26.1997 0.333008 16.9997 0.333008ZM24.733 11.6663C24.483 14.2997 23.3997 20.6997 22.8497 23.6497C22.6163 24.8997 22.1497 25.3163 21.7163 25.3663C20.7497 25.4497 20.0163 24.733 19.083 24.1163C17.6163 23.1497 16.783 22.5497 15.3663 21.6163C13.7163 20.533 14.783 19.933 15.733 18.9663C15.983 18.7163 20.2497 14.833 20.333 14.483C20.3446 14.43 20.343 14.375 20.3285 14.3227C20.314 14.2704 20.2869 14.2225 20.2497 14.183C20.1497 14.0997 20.0163 14.133 19.8997 14.1497C19.7497 14.183 17.4163 15.733 12.8663 18.7997C12.1997 19.2497 11.5997 19.483 11.0663 19.4663C10.4663 19.4497 9.33301 19.133 8.48301 18.8497C7.43301 18.5163 6.61634 18.333 6.68301 17.7497C6.71634 17.4497 7.13301 17.1497 7.91634 16.833C12.783 14.7163 16.0163 13.3163 17.633 12.6497C22.2663 10.7163 23.2163 10.383 23.8497 10.383C23.983 10.383 24.2997 10.4163 24.4997 10.583C24.6663 10.7163 24.7163 10.8997 24.733 11.033C24.7163 11.133 24.7497 11.433 24.733 11.6663Z" fill="#EEEEEA"/>
</svg>
