<svg width="70" height="107" viewBox="0 0 70 107" fill="none" xmlns="http://www.w3.org/2000/svg">
<g clip-path="url(#clip0_102_61936)">
<path fill-rule="evenodd" clip-rule="evenodd" d="M33.3485 18.5765C35.2224 17.9088 37.1943 17.0214 38.7149 15.7367C40.5209 14.2107 41.2554 12.2453 41.7486 10.1766C42.3818 7.51871 42.6348 4.68744 43.4027 2.02529C43.687 1.03667 44.2341 0.662975 44.4689 0.497128C45.0623 0.0782054 45.6621 -0.0337725 46.2264 0.00822746C46.8952 0.056689 47.8138 0.309749 48.418 1.43083C48.5041 1.59129 48.6161 1.83576 48.6915 2.17068C48.7464 2.41622 48.7819 3.18405 48.8401 3.50067C48.9855 4.28036 49.1072 5.06008 49.2213 5.84408C49.6015 8.45347 49.8201 10.6697 51.0209 13.067C52.6503 16.3214 54.2829 18.3127 56.4971 19.1947C58.638 20.0476 61.1978 19.8872 64.4684 19.2184C64.7796 19.143 65.0876 19.0784 65.3924 19.0256C66.8344 18.7736 68.2129 19.7202 68.4961 21.1568C68.7793 22.5924 67.8629 23.9913 66.4338 24.3068C66.1355 24.3725 65.8415 24.435 65.5507 24.4921C61.131 25.5862 56.0145 29.4912 53.0412 32.9104C52.1247 33.9647 50.7829 36.9122 49.4141 38.7925C48.404 40.1796 47.2689 41.0939 46.3158 41.417C45.6772 41.6345 45.1387 41.6012 44.694 41.4913C44.0478 41.3319 43.5115 40.9819 43.1001 40.4251C42.8761 40.1204 42.6682 39.7122 42.5692 39.191C42.5218 38.94 42.5164 38.3026 42.5175 38.0139C42.2386 37.0544 41.8972 36.1174 41.6484 35.1493C41.055 32.8393 39.8909 31.3768 38.5081 29.4448C37.2147 27.6367 35.8255 26.5005 33.7891 25.5938C33.5241 25.5291 31.3864 25.0057 30.6315 24.7053C29.5287 24.2648 29.0032 23.5271 28.8126 23.1297C28.4884 22.4556 28.4551 21.8665 28.5197 21.3755C28.6155 20.6507 28.9407 20.0304 29.518 19.5296C29.8755 19.2184 30.4097 18.9157 31.1248 18.7682C31.6772 18.653 33.1428 18.5862 33.3485 18.5765ZM45.8893 14.8116C45.9884 15.0324 46.0939 15.2542 46.2059 15.4782C48.5924 20.2447 51.261 22.9058 54.5047 24.197L54.6135 24.239C52.4435 25.8501 50.4792 27.6507 48.9779 29.377C48.3598 30.0878 47.5413 31.5642 46.6572 33.0784C45.8538 30.4669 44.54 28.621 42.888 26.311C41.6258 24.5481 40.3033 23.2213 38.6783 22.1401C39.9393 21.4929 41.1423 20.7347 42.1901 19.8495C43.9347 18.3752 45.0881 16.6671 45.8893 14.8116Z" fill="#9DC7EC"/>
</g>
<path fill-rule="evenodd" clip-rule="evenodd" d="M22.182 62.0354C22.032 61.1454 21.919 60.2655 21.846 59.3855C21.736 58.0655 21.804 56.7354 21.765 55.4154C21.748 54.8554 21.681 53.3955 21.708 53.1855C21.953 51.3555 23.43 51.0754 23.862 51.0254C24.071 50.9954 26.217 50.7555 26.68 53.1355C27.248 56.0455 27.43 58.9755 27.229 61.8455C27.698 64.2855 28.5 66.7154 29.559 68.9154C33.773 77.6654 41.803 78.5155 50.503 78.4355C51.841 78.4155 52.952 79.4655 53.022 80.7955C53.092 82.1355 52.096 83.2954 50.764 83.4154C45.901 83.8854 37.273 87.7855 34.29 91.8455C33.666 92.6955 33.303 94.7455 32.823 96.7555C32.153 99.5455 31.356 102.305 30.463 103.465C30.329 103.645 28.7 105.486 28.214 105.756C27.046 106.396 26.111 106.025 25.58 105.685C25.049 105.345 24.448 104.675 24.208 103.565C23.957 102.405 24.169 100.025 24.13 99.5154C23.988 97.6654 23.618 94.0354 22.863 90.9154C22.456 89.2354 22.022 87.6854 21.304 86.9154C18.646 84.0654 14.396 84.4855 10.817 84.9555C10.406 85.0055 9.99502 85.0655 9.58502 85.1155C8.12802 85.5455 6.58098 85.8655 4.94598 86.0555C2.47698 86.3455 2.07101 84.0755 2.04901 83.9255C2.00301 83.5955 1.83199 81.8955 3.69299 81.2155C3.89599 81.1455 5.394 80.8155 5.971 80.6855C6.775 80.5055 7.58799 80.3655 8.40399 80.2355C16.833 77.6155 21.411 70.2554 22.182 62.0354ZM25.075 71.1255C28.257 77.7055 33.086 80.8855 38.81 82.3255H38.809C35.235 84.1955 31.984 86.5355 30.261 88.8855C29.607 89.7755 29.007 91.5655 28.466 93.5755C28.173 91.7055 27.777 89.7154 27.254 88.0154C26.659 86.0754 25.858 84.4655 24.964 83.5055C23.238 81.6555 21.072 80.6255 18.743 80.1155C21.531 77.6455 23.645 74.5655 25.075 71.1255Z" fill="#3E4D86"/>
<defs>
<clipPath id="clip0_102_61936">
<rect width="42" height="42" fill="white" transform="translate(28)"/>
</clipPath>
</defs>
</svg>
