<svg width="120" height="187" viewBox="0 0 120 187" fill="none" xmlns="http://www.w3.org/2000/svg">
<path fill-rule="evenodd" clip-rule="evenodd" d="M101.471 87.5277C112.907 108.631 121.306 132.767 119.661 156.697C119.063 165.404 116.552 173.464 114.056 181.739C113.882 182.319 113.267 182.65 112.683 182.476C112.1 182.299 111.769 181.683 111.946 181.1C114.393 172.985 116.874 165.085 117.461 156.546C119.083 132.956 110.73 109.177 99.4339 88.3927L99.1001 88.5407C95.4809 90.1573 90.1986 89.156 84.655 86.5148C76.7084 82.7301 68.1696 75.6832 63.4532 69.3415C61.3345 66.4914 59.9878 63.7603 59.7063 61.508C59.4857 59.7521 59.8804 58.2458 60.9311 57.0819C63.1717 54.6033 66.9941 54.6903 71.426 56.6552C80.6962 60.7621 92.9036 72.8243 96.8189 79.3663C98.0408 81.4095 99.2423 83.4877 100.412 85.5977C101.056 85.3307 101.686 85.0665 102.287 84.7821C103.996 83.9665 105.491 82.9652 106.516 81.0351C108.109 78.0254 108.385 74.4178 107.973 70.726C107.325 64.9648 104.983 59.0004 102.972 54.6091C91.7687 30.1537 72.3374 18.0422 52.8306 11.5467C33.1293 4.99022 13.3351 4.13112 1.65891 2.18944C1.05812 2.09076 0.654693 1.52189 0.753374 0.921104C0.852054 0.320314 1.42092 -0.0860164 2.02171 0.0155665C13.7734 1.96886 33.6953 2.85406 53.5272 9.45694C73.5535 16.1208 93.4753 28.5865 104.977 53.689C107.073 58.2632 109.491 64.48 110.164 70.4792C110.628 74.6325 110.257 78.6813 108.463 82.0684C106.852 85.1072 104.339 86.3145 101.471 87.5277ZM98.3658 86.4539L98.2004 86.5293C95.0368 87.9428 90.4511 86.8341 85.6041 84.5238C77.968 80.8871 69.7572 74.1217 65.2237 68.0238C63.668 65.9341 62.5506 63.9344 62.0804 62.1756C61.6944 60.7244 61.7496 59.4648 62.568 58.5621C63.3372 57.7059 64.3965 57.3663 65.63 57.3808C67.0783 57.3954 68.7414 57.8772 70.5321 58.6695C79.4395 62.6167 91.1651 74.2117 94.9265 80.4982C96.0933 82.4515 97.2426 84.4367 98.3658 86.4539Z" fill="#D2113A"/>
<path fill-rule="evenodd" clip-rule="evenodd" d="M110.644 184.537C111.117 184.441 111.712 184.119 112.348 183.765C113.863 182.923 115.476 181.725 116.26 181.19C116.765 180.848 117.45 180.982 117.792 181.484C118.135 181.989 118.004 182.674 117.499 183.016C116.539 183.669 114.385 185.262 112.6 186.119C111.642 186.577 110.757 186.815 110.121 186.763C109.039 186.676 108.363 185.82 108.403 184.122C108.453 182.113 109.46 178.384 108.249 175.261C108.029 174.695 108.313 174.054 108.879 173.836C109.448 173.615 110.087 173.897 110.307 174.466C111.459 177.443 110.905 180.915 110.673 183.251C110.629 183.695 110.635 184.223 110.644 184.537Z" fill="#D2113A"/>
</svg>
