<svg width="108" height="30" viewBox="0 0 108 30" fill="none" xmlns="http://www.w3.org/2000/svg">
<path fill-rule="evenodd" clip-rule="evenodd" d="M66.599 0.170898C66.8826 0.170898 67.1663 0.176303 67.4471 0.181654C67.7225 0.186902 67.9952 0.192098 68.2626 0.192098C68.5867 0.192098 68.7379 0.298097 68.7595 0.573695C68.7595 0.658494 68.7379 0.764493 68.7163 0.849292L67.8089 3.83846C67.7009 4.22006 67.5929 4.28366 67.1824 4.28366H60.7873H60.5064C60.3876 4.66522 60.2742 5.04678 60.1607 5.42835C60.0473 5.80998 59.9339 6.19161 59.815 6.57324C59.1885 8.61901 58.5673 10.6648 57.9462 12.7106C57.3251 14.7563 56.7039 16.8021 56.0774 18.8479C55.9909 19.1447 55.8613 19.2507 55.5156 19.2507H52.4261C51.9724 19.2507 51.8428 19.0175 51.9724 18.5511C52.3505 17.3215 52.7232 16.0919 53.0958 14.8624C53.4685 13.6328 53.8412 12.4032 54.2193 11.1736C54.5542 10.0606 54.8945 8.95291 55.2348 7.84522C55.575 6.73754 55.9153 5.62985 56.2502 4.51686C56.2718 4.45326 56.2934 4.36846 56.315 4.28366C56.2934 4.28366 56.2772 4.27836 56.261 4.27306C56.2448 4.26776 56.2286 4.26246 56.207 4.26246H52.2965H52.2964C51.4754 4.26246 50.6761 4.26246 49.8551 4.24126C49.531 4.24126 49.3582 4.00806 49.4446 3.71127L50.4168 0.531295C50.4816 0.276897 50.6545 0.192098 50.9137 0.192098C51.0894 0.192098 51.265 0.186626 51.4378 0.181242C51.6051 0.176029 51.7697 0.170898 51.9292 0.170898H52.3613C52.4045 0.170898 52.4531 0.176198 52.5017 0.181498C52.5503 0.186798 52.5989 0.192098 52.6421 0.192098H52.728C52.6849 0.192063 52.6364 0.186781 52.588 0.181498C52.5393 0.176198 52.4907 0.170898 52.4475 0.170898H66.2317H66.318H66.599ZM25.9597 19.2504H32.3981H32.3983C34.4939 19.2504 36.5679 19.2504 38.6635 19.208C38.9444 19.208 39.2253 19.208 39.5061 19.1656C41.7315 18.8264 43.5895 17.8724 44.9506 16.0704C46.0525 14.6288 46.679 12.9964 46.5062 11.1521C46.3982 10.1557 45.9661 9.32887 45.1667 8.69288C44.2593 7.97209 43.2006 7.65409 42.0555 7.65409H34.4722C34.2993 7.65409 34.1265 7.65409 33.9536 7.63289C33.4999 7.59049 33.2191 7.29369 33.1758 6.8697C33.0462 5.51291 34.2345 4.26212 35.6388 4.26212H46.787H47.0463C47.2408 4.24092 47.3704 4.15612 47.4352 3.94412C47.5972 3.41429 47.7592 2.87916 47.9212 2.34402L47.9213 2.34359L47.9213 2.34348L47.9214 2.34337C48.0834 1.80813 48.2454 1.27289 48.4074 0.742954C48.4939 0.403757 48.3642 0.234158 48.0185 0.191759H47.7593H36.8271C35.9845 0.191759 35.1635 0.318957 34.3641 0.594555C31.1666 1.73934 29.3085 3.98652 28.8764 7.29369C28.6172 9.22287 29.719 11.0461 31.8363 11.5549C32.3765 11.6821 32.9382 11.7669 33.4999 11.7669C35.3958 11.7987 37.2916 11.7947 39.1874 11.7907L39.1888 11.7907C39.8203 11.7894 40.4518 11.7881 41.0833 11.7881C41.8611 11.7881 42.25 12.1696 42.2068 12.848C42.142 13.9504 41.2345 15.2224 39.679 15.2012C36.5186 15.1694 33.346 15.1734 30.1795 15.1774L30.1775 15.1774C29.1236 15.1787 28.0703 15.18 27.0184 15.18H26.824C26.5863 15.18 26.4351 15.286 26.3702 15.5192C26.219 16.0386 26.0624 16.5527 25.9057 17.0668C25.7491 17.5809 25.5925 18.095 25.4412 18.6144C25.4355 18.6426 25.4282 18.6709 25.421 18.6987L25.421 18.6988L25.421 18.6988L25.421 18.6989C25.4012 18.7755 25.3822 18.849 25.398 18.9112C25.4412 19.1656 25.5925 19.2504 25.9597 19.2504ZM98.1424 4.26249H94.4479C93.5621 4.26249 93.13 4.58048 92.8708 5.40727C92.5467 6.48846 92.2226 7.54845 91.8769 8.62964C91.5953 9.55998 91.3096 10.4903 91.0234 11.4224L91.0233 11.4225L91.0233 11.4226L91.0233 11.4227L91.0233 11.4228L91.0229 11.4241C90.6505 12.6366 90.2772 13.8521 89.9109 15.0744C89.5436 16.304 89.1763 17.5336 88.809 18.7843C88.701 19.1659 88.5714 19.2507 88.1825 19.2507H85.2442C84.7257 19.2507 84.5528 19.0387 84.704 18.5724L84.7047 18.5702C86.0656 14.0554 87.4265 9.54052 88.8306 5.04688C89.6516 2.4393 91.5312 0.912917 94.2319 0.340522C94.664 0.255723 95.0961 0.213323 95.5282 0.213323C97.1846 0.19919 98.841 0.203901 100.497 0.208612C101.326 0.210968 102.154 0.213323 102.982 0.213323C103.695 0.213323 104.386 0.298123 105.056 0.53132C106.568 1.06132 107.476 2.10011 107.843 3.60529C108.059 4.53808 108.059 5.49207 107.8 6.40366C107.761 6.54107 107.722 6.67919 107.683 6.81774L107.682 6.82168L107.681 6.82468L107.68 6.82711L107.68 6.82908C107.419 7.75575 107.153 8.70155 106.741 9.58364C105.51 12.2548 103.328 13.866 100.433 14.5444C99.806 14.6928 99.1578 14.7352 98.5097 14.7352C97.199 14.7493 95.8883 14.7446 94.5776 14.7399C93.9222 14.7375 93.2669 14.7352 92.6115 14.7352C92.0714 14.7352 91.9201 14.5444 92.0714 14.0356C92.2226 13.5374 92.3738 13.0339 92.5251 12.5304C92.6763 12.0269 92.8275 11.5234 92.9788 11.0252C93.0652 10.7496 93.1732 10.6436 93.4757 10.6436C94.1779 10.6436 94.8746 10.6489 95.5714 10.6542C96.2682 10.6595 96.9649 10.6648 97.6671 10.6648C97.8401 10.6648 98.0131 10.6665 98.186 10.6682C98.8764 10.675 99.5642 10.6818 100.238 10.58C101.642 10.368 102.593 9.54124 103.068 8.20565C103.263 7.63325 103.457 7.03966 103.565 6.44606C103.63 6.06447 103.608 5.64047 103.544 5.25888C103.436 4.72888 102.939 4.34728 102.377 4.28369C102.118 4.26249 101.858 4.24129 101.621 4.24129C100.476 4.26249 99.3091 4.26249 98.1424 4.26249ZM18.247 4.258C17.8293 4.26035 17.4116 4.26271 16.9939 4.26271H13.213C11.9815 4.26271 10.9445 5.0047 10.5988 6.17069C10.2532 7.32589 9.90213 8.47578 9.55111 9.62568L9.55107 9.62582L9.55102 9.62596L9.55098 9.62611L9.55094 9.62625C9.19985 10.7763 8.84877 11.9264 8.50309 13.0818C8.22222 14.0252 7.93596 14.9633 7.64969 15.9014C7.36342 16.8395 7.07715 17.7776 6.79629 18.721C6.68826 19.0814 6.81789 19.2298 7.16357 19.2298H10.2963C10.534 19.2298 10.642 19.1238 10.7068 18.9118C10.9444 18.0639 11.2036 17.2161 11.4628 16.3682L11.4629 16.3682L11.4629 16.3681L11.4629 16.368L11.4629 16.368L11.463 16.3678L11.463 16.3677C12.284 13.6965 13.105 11.0254 13.9044 8.35427C13.9692 8.18467 14.034 8.14227 14.2068 8.14227H19.5649C19.7377 8.14227 19.9106 8.14227 20.0834 8.16347C20.818 8.24827 21.3365 8.73587 21.4877 9.43546C21.5742 9.88066 21.4877 10.2835 21.3581 10.7074C20.9584 12.043 20.5533 13.3733 20.1482 14.7036C19.7431 16.0339 19.338 17.3642 18.9383 18.6998C18.8087 19.0814 18.9167 19.2086 19.3272 19.2086H22.3519C22.676 19.2086 22.7624 19.145 22.8489 18.8482C22.9884 18.3627 23.1354 17.8771 23.2811 17.3959C23.3835 17.0577 23.4853 16.7215 23.5834 16.389C23.8424 15.5421 24.1013 14.6899 24.3602 13.8377L24.3603 13.8374L24.3612 13.8344C24.6205 12.9811 24.8797 12.1278 25.139 11.2798L25.1547 11.2259C25.4086 10.3543 25.6571 9.5014 25.6359 8.58747C25.6143 7.48508 25.2902 6.48869 24.4692 5.6831C23.4322 4.68671 22.1575 4.28391 20.7532 4.26271C19.9178 4.24858 19.0824 4.25329 18.247 4.258ZM7.57393 0.191759H9.06468C9.5832 0.191759 9.73444 0.382557 9.5832 0.870152C8.78386 3.50939 7.98451 6.14332 7.18517 8.77725C6.38574 11.4115 5.58631 14.0457 4.78688 16.6852L4.13872 18.8476C4.0523 19.1656 3.92267 19.2504 3.5986 19.2504H0.487465C0.0769681 19.2504 -0.0742675 19.0384 0.0337579 18.6568C0.390242 17.4908 0.746725 16.3195 1.10321 15.1482C1.45969 13.9769 1.81618 12.8056 2.17266 11.6397C3.05244 8.65272 3.94655 5.67985 4.84331 2.69814C5.04766 2.0187 5.25215 1.33879 5.45663 0.658154C5.58626 0.255358 5.67268 0.191759 6.08318 0.191759H7.57393ZM70.0346 2.85808C69.8905 3.31995 69.7464 3.7818 69.6023 4.26251C69.7319 4.26251 69.84 4.26251 69.9048 4.24131H85.6333H86.9296C87.1672 4.24131 87.3185 4.17771 87.3833 3.94452C87.729 2.86333 88.053 1.80334 88.3771 0.722147C88.4635 0.42535 88.3123 0.234551 88.0098 0.192152H87.7938C86.1374 0.192152 84.481 0.189796 82.8246 0.187441C79.5118 0.18273 76.1991 0.178019 72.8863 0.192152C72.5622 0.192152 72.1949 0.255751 71.8924 0.38295C71.0715 0.722147 70.5097 1.31574 70.2505 2.16373C70.1785 2.39675 70.1065 2.62742 70.0346 2.85808ZM65.8379 11.0137L65.8382 11.0125L65.8382 11.0124C65.969 10.5623 66.0972 10.1214 66.2534 9.6896C66.3614 9.3504 66.5342 9.03241 66.7503 8.73561C67.2688 8.03602 68.0034 7.67562 68.8892 7.67562H83.8615C84.3584 7.67562 84.5096 7.86642 84.3584 8.33281C84.2079 8.82867 84.0573 9.31927 83.9068 9.80985L83.9049 9.81597L83.9046 9.81703C83.7534 10.3098 83.6022 10.8027 83.451 11.3008C83.343 11.6824 83.2565 11.746 82.846 11.746H65.8861C65.8213 11.7248 65.7348 11.7248 65.6268 11.7248C65.7008 11.4853 65.7697 11.2483 65.8379 11.0137ZM62.3438 18.4344C62.2588 18.7181 62.1731 19.0039 62.0837 19.2934H62.4294H72.4973H79.3677C79.735 19.2934 79.8214 19.2086 79.9295 18.8694C80.0808 18.3603 80.2321 17.8564 80.3835 17.3526C80.5346 16.8495 80.6857 16.3463 80.8369 15.8378C80.9665 15.435 80.8369 15.2442 80.3832 15.223H80.1887H65.4757C64.1362 15.223 63.0991 15.9862 62.7102 17.237C62.5836 17.6347 62.4643 18.0324 62.3438 18.4344Z" fill="#3E4D86"/>
<path d="M0.77417 24.5801H1.2531V28.2614L4.19232 24.5801H4.63189V29.0231H4.15295V25.3481L1.21374 29.0231H0.77417V24.5801Z" fill="#3D4E81"/>
<path d="M8.50416 26.7C8.80596 26.772 9.04215 26.9031 9.21273 27.0935C9.38768 27.284 9.47516 27.5125 9.47516 27.779C9.47516 28.0372 9.39205 28.2635 9.22585 28.4582C9.05964 28.6528 8.83876 28.803 8.56321 28.9088C8.28766 29.0104 7.98805 29.0612 7.66439 29.0612C7.35822 29.0612 7.05643 29.0146 6.75901 28.9215C6.46596 28.8242 6.20134 28.6803 5.96516 28.4899L6.1423 28.1535C6.34349 28.3185 6.57312 28.4455 6.83117 28.5344C7.08923 28.619 7.34947 28.6613 7.6119 28.6613C7.86121 28.6613 8.09084 28.6232 8.30078 28.547C8.51073 28.4709 8.67693 28.363 8.7994 28.2233C8.92624 28.0795 8.98966 27.9102 8.98966 27.7156C8.98966 27.4575 8.88469 27.2586 8.67474 27.1189C8.4648 26.9793 8.16957 26.9095 7.78904 26.9095H6.80493V26.5287H7.7628C8.08646 26.5287 8.33796 26.4631 8.51729 26.3319C8.70099 26.1965 8.79284 26.0103 8.79284 25.7733C8.79284 25.511 8.67693 25.3058 8.44512 25.1577C8.2133 25.0053 7.92244 24.9292 7.57254 24.9292C7.35385 24.9292 7.13297 24.9609 6.9099 25.0244C6.68684 25.0836 6.47471 25.1746 6.27351 25.2973L6.10949 24.9101C6.56437 24.6478 7.05643 24.5166 7.58566 24.5166C7.8962 24.5166 8.1805 24.5653 8.43856 24.6626C8.69661 24.7599 8.9 24.8995 9.04871 25.0815C9.20179 25.2635 9.27833 25.4771 9.27833 25.7226C9.27833 25.9595 9.21054 26.1647 9.07495 26.3382C8.93936 26.5075 8.7491 26.6281 8.50416 26.7Z" fill="#3D4E81"/>
<path d="M13.9282 24.9863H11.4811L11.4876 29.0231H11.0087V24.5801H13.9282V24.9863Z" fill="#3D4E81"/>
<path d="M16.4839 29.0612C16.029 29.0612 15.6157 28.9638 15.2439 28.7692C14.8765 28.5703 14.5878 28.2995 14.3779 27.9568C14.1723 27.614 14.0695 27.229 14.0695 26.8016C14.0695 26.3742 14.1723 25.9891 14.3779 25.6464C14.5878 25.3036 14.8765 25.035 15.2439 24.8403C15.6157 24.6414 16.029 24.542 16.4839 24.542C16.9388 24.542 17.3477 24.6393 17.7107 24.834C18.0781 25.0286 18.3668 25.2994 18.5768 25.6464C18.7867 25.9891 18.8917 26.3742 18.8917 26.8016C18.8917 27.229 18.7867 27.6161 18.5768 27.9631C18.3668 28.3059 18.0781 28.5746 17.7107 28.7692C17.3477 28.9638 16.9388 29.0612 16.4839 29.0612ZM16.4839 28.6423C16.8469 28.6423 17.1749 28.564 17.468 28.4074C17.761 28.2466 17.9907 28.0266 18.1569 27.7473C18.3231 27.4638 18.4062 27.1486 18.4062 26.8016C18.4062 26.4546 18.3231 26.1415 18.1569 25.8622C17.9907 25.5787 17.761 25.3587 17.468 25.2021C17.1749 25.0413 16.8469 24.9609 16.4839 24.9609C16.1208 24.9609 15.7906 25.0413 15.4932 25.2021C15.2002 25.3587 14.9683 25.5787 14.7978 25.8622C14.6316 26.1415 14.5485 26.4546 14.5485 26.8016C14.5485 27.1486 14.6316 27.4638 14.7978 27.7473C14.9683 28.0266 15.2002 28.2466 15.4932 28.4074C15.7906 28.564 16.1208 28.6423 16.4839 28.6423Z" fill="#3D4E81"/>
<path d="M23.319 24.9863H21.7051V29.0231H21.2261V24.9863H19.6122V24.5801H23.319V24.9863Z" fill="#3D4E81"/>
<path d="M26.4493 29.0612C25.9944 29.0612 25.5811 28.9638 25.2093 28.7692C24.8419 28.5703 24.5532 28.2995 24.3433 27.9568C24.1377 27.614 24.0349 27.229 24.0349 26.8016C24.0349 26.3742 24.1377 25.9891 24.3433 25.6464C24.5532 25.3036 24.8419 25.035 25.2093 24.8403C25.5811 24.6414 25.9944 24.542 26.4493 24.542C26.9042 24.542 27.3131 24.6393 27.6762 24.834C28.0436 25.0286 28.3322 25.2994 28.5422 25.6464C28.7521 25.9891 28.8571 26.3742 28.8571 26.8016C28.8571 27.229 28.7521 27.6161 28.5422 27.9631C28.3322 28.3059 28.0436 28.5746 27.6762 28.7692C27.3131 28.9638 26.9042 29.0612 26.4493 29.0612ZM26.4493 28.6423C26.8123 28.6423 27.1404 28.564 27.4334 28.4074C27.7265 28.2466 27.9561 28.0266 28.1223 27.7473C28.2885 27.4638 28.3716 27.1486 28.3716 26.8016C28.3716 26.4546 28.2885 26.1415 28.1223 25.8622C27.9561 25.5787 27.7265 25.3587 27.4334 25.2021C27.1404 25.0413 26.8123 24.9609 26.4493 24.9609C26.0863 24.9609 25.756 25.0413 25.4586 25.2021C25.1656 25.3587 24.9338 25.5787 24.7632 25.8622C24.597 26.1415 24.5139 26.4546 24.5139 26.8016C24.5139 27.1486 24.597 27.4638 24.7632 27.7473C24.9338 28.0266 25.1656 28.2466 25.4586 28.4074C25.756 28.564 26.0863 28.6423 26.4493 28.6423Z" fill="#3D4E81"/>
<path d="M33.0664 26.7318C33.3857 26.7952 33.6284 26.9201 33.7946 27.1062C33.9608 27.2882 34.0439 27.5273 34.0439 27.8235C34.0439 28.2085 33.9018 28.5047 33.6175 28.7121C33.3375 28.9194 32.9242 29.0231 32.3775 29.0231H30.3437V24.5801H32.2528C32.7427 24.5801 33.1254 24.6774 33.401 24.872C33.6765 25.0667 33.8143 25.3481 33.8143 25.7162C33.8143 25.9659 33.7487 26.1774 33.6175 26.3509C33.4863 26.5202 33.3026 26.6471 33.0664 26.7318ZM30.8226 26.5921H32.2266C32.5809 26.5921 32.8521 26.5223 33.0401 26.3827C33.2326 26.243 33.3288 26.0399 33.3288 25.7733C33.3288 25.5068 33.2326 25.3036 33.0401 25.164C32.8521 25.0244 32.5809 24.9546 32.2266 24.9546H30.8226V26.5921ZM32.3775 28.6486C33.1692 28.6486 33.565 28.363 33.565 27.7917C33.565 27.2332 33.1692 26.9539 32.3775 26.9539H30.8226V28.6486H32.3775Z" fill="#3D4E81"/>
<path d="M39.1877 24.5801V29.0231H38.7088V24.9863H36.4912L36.4388 26.4715C36.4169 27.0851 36.3644 27.5802 36.2813 27.9568C36.2026 28.3291 36.0801 28.6084 35.9139 28.7946C35.7477 28.9765 35.5268 29.0675 35.2513 29.0675C35.1332 29.0675 35.0107 29.0527 34.8839 29.0231L34.9232 28.6042C34.9976 28.6211 35.0697 28.6296 35.1397 28.6296C35.3322 28.6296 35.4874 28.5555 35.6055 28.4074C35.728 28.2593 35.8199 28.0308 35.8811 27.7219C35.9423 27.4088 35.9839 26.9962 36.0057 26.4842L36.0713 24.5801H39.1877Z" fill="#3D4E81"/>
<path d="M44.3127 28.6169V29.0231H41.0651V24.5801H44.2143V24.9863H41.5506V26.5667H43.9256V26.9666H41.5506V28.6169H44.3127Z" fill="#3D4E81"/>
<path d="M49.5559 24.5801V29.0231H49.077V26.973H46.2033V29.0231H45.7178V24.5801H46.2033V26.5604H49.077V24.5801H49.5559Z" fill="#3D4E81"/>
<path d="M51.4342 24.5801H51.9131V28.2614L54.8523 24.5801H55.2919V29.0231H54.8129V25.3481L51.8737 29.0231H51.4342V24.5801Z" fill="#3D4E81"/>
<path d="M60.4173 28.6169V29.0231H57.1697V24.5801H60.3188V24.9863H57.6552V26.5667H60.0302V26.9666H57.6552V28.6169H60.4173Z" fill="#3D4E81"/>
<path d="M67.7318 24.5801V29.0231H67.2529V24.9863H64.3465V29.0231H63.8675V24.5801H67.7318Z" fill="#3D4E81"/>
<path d="M71.3284 24.5801C71.9145 24.5801 72.3737 24.7155 72.7061 24.9863C73.0386 25.2571 73.2048 25.6295 73.2048 26.1034C73.2048 26.5773 73.0386 26.9497 72.7061 27.2205C72.3737 27.4871 71.9145 27.6204 71.3284 27.6204H70.095V29.0231H69.6095V24.5801H71.3284ZM71.3153 27.2078C71.7701 27.2078 72.1179 27.1126 72.3584 26.9222C72.599 26.7275 72.7193 26.4546 72.7193 26.1034C72.7193 25.7437 72.599 25.4687 72.3584 25.2783C72.1179 25.0836 71.7701 24.9863 71.3153 24.9863H70.095V27.2078H71.3153Z" fill="#3D4E81"/>
<path d="M76.6095 29.0612C76.1547 29.0612 75.7413 28.9638 75.3696 28.7692C75.0022 28.5703 74.7135 28.2995 74.5035 27.9568C74.298 27.614 74.1952 27.229 74.1952 26.8016C74.1952 26.3742 74.298 25.9891 74.5035 25.6464C74.7135 25.3036 75.0022 25.035 75.3696 24.8403C75.7413 24.6414 76.1547 24.542 76.6095 24.542C77.0644 24.542 77.4734 24.6393 77.8364 24.834C78.2038 25.0286 78.4925 25.2994 78.7024 25.6464C78.9124 25.9891 79.0173 26.3742 79.0173 26.8016C79.0173 27.229 78.9124 27.6161 78.7024 27.9631C78.4925 28.3059 78.2038 28.5746 77.8364 28.7692C77.4734 28.9638 77.0644 29.0612 76.6095 29.0612ZM76.6095 28.6423C76.9726 28.6423 77.3006 28.564 77.5936 28.4074C77.8867 28.2466 78.1163 28.0266 78.2825 27.7473C78.4487 27.4638 78.5318 27.1486 78.5318 26.8016C78.5318 26.4546 78.4487 26.1415 78.2825 25.8622C78.1163 25.5787 77.8867 25.3587 77.5936 25.2021C77.3006 25.0413 76.9726 24.9609 76.6095 24.9609C76.2465 24.9609 75.9163 25.0413 75.6189 25.2021C75.3258 25.3587 75.094 25.5787 74.9234 25.8622C74.7572 26.1415 74.6741 26.4546 74.6741 26.8016C74.6741 27.1486 74.7572 27.4638 74.9234 27.7473C75.094 28.0266 75.3258 28.2466 75.6189 28.4074C75.9163 28.564 76.2465 28.6423 76.6095 28.6423Z" fill="#3D4E81"/>
<path d="M83.4446 24.9863H81.8307V29.0231H81.3518V24.9863H79.7378V24.5801H83.4446V24.9863Z" fill="#3D4E81"/>
<path d="M87.8724 28.6169V29.0231H84.6249V24.5801H87.774V24.9863H85.1104V26.5667H87.4854V26.9666H85.1104V28.6169H87.8724Z" fill="#3D4E81"/>
<path d="M91.2721 26.7C91.5739 26.772 91.8101 26.9031 91.9806 27.0935C92.1556 27.284 92.2431 27.5125 92.2431 27.779C92.2431 28.0372 92.16 28.2635 91.9938 28.4582C91.8276 28.6528 91.6067 28.803 91.3311 28.9088C91.0556 29.0104 90.756 29.0612 90.4323 29.0612C90.1261 29.0612 89.8243 29.0146 89.5269 28.9215C89.2339 28.8242 88.9693 28.6803 88.7331 28.4899L88.9102 28.1535C89.1114 28.3185 89.341 28.4455 89.5991 28.5344C89.8571 28.619 90.1174 28.6613 90.3798 28.6613C90.6291 28.6613 90.8588 28.6232 91.0687 28.547C91.2786 28.4709 91.4449 28.363 91.5673 28.2233C91.6942 28.0795 91.7576 27.9102 91.7576 27.7156C91.7576 27.4575 91.6526 27.2586 91.4427 27.1189C91.2327 26.9793 90.9375 26.9095 90.557 26.9095H89.5729V26.5287H90.5307C90.8544 26.5287 91.1059 26.4631 91.2852 26.3319C91.4689 26.1965 91.5608 26.0103 91.5608 25.7733C91.5608 25.511 91.4449 25.3058 91.213 25.1577C90.9812 25.0053 90.6904 24.9292 90.3405 24.9292C90.1218 24.9292 89.9009 24.9609 89.6778 25.0244C89.4548 25.0836 89.2426 25.1746 89.0414 25.2973L88.8774 24.9101C89.3323 24.6478 89.8243 24.5166 90.3536 24.5166C90.6641 24.5166 90.9484 24.5653 91.2065 24.6626C91.4645 24.7599 91.6679 24.8995 91.8166 25.0815C91.9697 25.2635 92.0463 25.4771 92.0463 25.7226C92.0463 25.9595 91.9785 26.1647 91.8429 26.3382C91.7073 26.5075 91.517 26.6281 91.2721 26.7Z" fill="#3D4E81"/>
<path d="M95.7907 29.0612C95.3359 29.0612 94.9225 28.9638 94.5508 28.7692C94.1834 28.5703 93.8947 28.2995 93.6847 27.9568C93.4792 27.614 93.3764 27.229 93.3764 26.8016C93.3764 26.3742 93.4792 25.9891 93.6847 25.6464C93.8947 25.3036 94.1834 25.035 94.5508 24.8403C94.9225 24.6414 95.3359 24.542 95.7907 24.542C96.2456 24.542 96.6546 24.6393 97.0176 24.834C97.385 25.0286 97.6737 25.2994 97.8836 25.6464C98.0936 25.9891 98.1985 26.3742 98.1985 26.8016C98.1985 27.229 98.0936 27.6161 97.8836 27.9631C97.6737 28.3059 97.385 28.5746 97.0176 28.7692C96.6546 28.9638 96.2456 29.0612 95.7907 29.0612ZM95.7907 28.6423C96.1538 28.6423 96.4818 28.564 96.7749 28.4074C97.0679 28.2466 97.2975 28.0266 97.4637 27.7473C97.6299 27.4638 97.7131 27.1486 97.7131 26.8016C97.7131 26.4546 97.6299 26.1415 97.4637 25.8622C97.2975 25.5787 97.0679 25.3587 96.7749 25.2021C96.4818 25.0413 96.1538 24.9609 95.7907 24.9609C95.4277 24.9609 95.0975 25.0413 94.8001 25.2021C94.507 25.3587 94.2752 25.5787 94.1046 25.8622C93.9384 26.1415 93.8553 26.4546 93.8553 26.8016C93.8553 27.1486 93.9384 27.4638 94.1046 27.7473C94.2752 28.0266 94.507 28.2466 94.8001 28.4074C95.0975 28.564 95.4277 28.6423 95.7907 28.6423Z" fill="#3D4E81"/>
<path d="M102.408 26.7318C102.727 26.7952 102.97 26.9201 103.136 27.1062C103.302 27.2882 103.385 27.5273 103.385 27.8235C103.385 28.2085 103.243 28.5047 102.959 28.7121C102.679 28.9194 102.266 29.0231 101.719 29.0231H99.6851V24.5801H101.594C102.084 24.5801 102.467 24.6774 102.742 24.872C103.018 25.0667 103.156 25.3481 103.156 25.7162C103.156 25.9659 103.09 26.1774 102.959 26.3509C102.828 26.5202 102.644 26.6471 102.408 26.7318ZM100.164 26.5921H101.568C101.922 26.5921 102.194 26.5223 102.382 26.3827C102.574 26.243 102.67 26.0399 102.67 25.7733C102.67 25.5068 102.574 25.3036 102.382 25.164C102.194 25.0244 101.922 24.9546 101.568 24.9546H100.164V26.5921ZM101.719 28.6486C102.511 28.6486 102.906 28.363 102.906 27.7917C102.906 27.2332 102.511 26.9539 101.719 26.9539H100.164V28.6486H101.719Z" fill="#3D4E81"/>
</svg>
