<svg width="696" height="577" viewBox="0 0 696 577" fill="none" xmlns="http://www.w3.org/2000/svg">
<circle cx="236.844" cy="339.808" r="177.893" transform="rotate(-24.8511 236.844 339.808)" fill="#6C41E7" fill-opacity="0.1" stroke="#2B5DAA" stroke-width="0.997783"/>
<circle cx="459.156" cy="236.845" r="177.893" transform="rotate(-24.8511 459.156 236.845)" fill="#E7A284" fill-opacity="0.2" stroke="#2B5DAA" stroke-width="0.997783"/>
<mask id="path-3-inside-1_633_5758" fill="white">
<path fill-rule="evenodd" clip-rule="evenodd" d="M293.5 170.651C338.397 185.697 377.248 218.478 398.719 264.837C420.189 311.195 420.064 362.027 402.502 406.002C357.604 390.955 318.754 358.174 297.283 311.816C275.813 265.458 275.937 214.625 293.5 170.651Z"/>
</mask>
<path fill-rule="evenodd" clip-rule="evenodd" d="M293.5 170.651C338.397 185.697 377.248 218.478 398.719 264.837C420.189 311.195 420.064 362.027 402.502 406.002C357.604 390.955 318.754 358.174 297.283 311.816C275.813 265.458 275.937 214.625 293.5 170.651Z" fill="#6197E8" fill-opacity="0.5"/>
<path d="M293.5 170.651L294.134 168.759L292.346 168.16L291.647 169.911L293.5 170.651ZM402.502 406.002L401.868 407.894L403.656 408.493L404.355 406.742L402.502 406.002ZM292.866 172.543C337.265 187.422 375.677 219.835 396.908 265.675L400.529 263.998C378.818 217.121 339.53 183.972 294.134 168.759L292.866 172.543ZM396.908 265.675C418.138 311.515 418.016 361.776 400.649 405.261L404.355 406.742C422.113 362.279 422.24 310.875 400.529 263.998L396.908 265.675ZM403.136 404.109C358.737 389.23 320.325 356.817 299.094 310.977L295.473 312.654C317.183 359.531 356.472 392.68 401.868 407.894L403.136 404.109ZM299.094 310.977C277.864 265.137 277.986 214.877 295.353 171.391L291.647 169.911C273.889 214.374 273.762 265.778 295.473 312.654L299.094 310.977Z" fill="#2B5DAA" mask="url(#path-3-inside-1_633_5758)"/>
<path d="M217.17 334.569V346.251C217.17 347.113 217.302 347.908 217.567 348.637C217.849 349.366 218.247 349.996 218.761 350.526C219.291 351.056 219.92 351.471 220.649 351.769C221.379 352.067 222.19 352.216 223.085 352.216C223.98 352.216 224.792 352.067 225.521 351.769C226.25 351.471 226.872 351.056 227.385 350.526C227.915 349.996 228.313 349.366 228.578 348.637C228.86 347.908 229.001 347.113 229.001 346.251V334.569H226.888V346.251C226.888 347.444 226.565 348.405 225.919 349.134C225.273 349.863 224.328 350.228 223.085 350.228C221.843 350.228 220.898 349.863 220.252 349.134C219.606 348.405 219.282 347.444 219.282 346.251V334.569H217.17ZM241.552 334.569L237.849 341.007L234.22 334.569H231.734L236.78 342.846L231.113 351.968H233.598L237.824 344.685L241.925 351.968H244.41L238.892 342.846L244.037 334.569H241.552Z" fill="#2B5DAA"/>
<path d="M450.251 226.847H454.725V242.257H456.837V226.847H461.311V224.859H450.251V226.847ZM463.549 233.558C463.549 232.249 463.831 231.081 464.394 230.054C464.974 229.026 465.761 228.214 466.755 227.618C467.75 227.021 468.876 226.723 470.136 226.723C471.412 226.723 472.538 227.021 473.516 227.618C474.51 228.214 475.289 229.026 475.852 230.054C476.432 231.081 476.722 232.249 476.722 233.558C476.722 234.867 476.432 236.035 475.852 237.063C475.289 238.09 474.51 238.902 473.516 239.498C472.538 240.095 471.412 240.393 470.136 240.393C468.876 240.393 467.75 240.095 466.755 239.498C465.761 238.902 464.974 238.09 464.394 237.063C463.831 236.035 463.549 234.867 463.549 233.558ZM461.312 233.558C461.312 234.817 461.528 235.994 461.958 237.087C462.406 238.181 463.027 239.134 463.823 239.946C464.618 240.741 465.554 241.371 466.631 241.835C467.708 242.282 468.876 242.506 470.136 242.506C471.412 242.506 472.58 242.282 473.64 241.835C474.717 241.371 475.654 240.741 476.449 239.946C477.244 239.134 477.857 238.181 478.288 237.087C478.736 235.994 478.959 234.817 478.959 233.558C478.959 232.282 478.736 231.106 478.288 230.029C477.857 228.935 477.244 227.991 476.449 227.195C475.654 226.383 474.717 225.754 473.64 225.306C472.58 224.842 471.412 224.61 470.136 224.61C468.876 224.61 467.708 224.842 466.631 225.306C465.554 225.754 464.618 226.383 463.823 227.195C463.027 227.991 462.406 228.935 461.958 230.029C461.528 231.106 461.312 232.282 461.312 233.558ZM487.404 238.33L481.687 224.859H479.326L487.404 243.127L495.482 224.859H493.121L487.404 238.33Z" fill="#2B5DAA"/>
</svg>
