<svg width="620" height="215" viewBox="0 0 620 215" fill="none" xmlns="http://www.w3.org/2000/svg">
<path fill-rule="evenodd" clip-rule="evenodd" d="M540.396 155.363L540.396 155.363C540.937 155.374 541.472 155.384 541.997 155.384C542.633 155.384 542.93 155.596 542.973 156.147C542.973 156.317 542.93 156.529 542.888 156.699L541.106 162.677C540.894 163.44 540.682 163.567 539.877 163.567H527.323H526.772C526.539 164.331 526.316 165.094 526.093 165.857C525.871 166.62 525.648 167.383 525.415 168.146C524.186 172.235 522.967 176.324 521.749 180.412L521.746 180.421C520.527 184.513 519.308 188.604 518.078 192.696C517.908 193.289 517.654 193.501 516.975 193.501H510.911C510.02 193.501 509.766 193.035 510.02 192.102C510.762 189.643 511.494 187.184 512.225 184.725L512.227 184.72L512.227 184.719L512.227 184.719L512.227 184.718L512.227 184.718L512.227 184.718L512.227 184.717C512.958 182.261 513.689 179.804 514.431 177.347C515.088 175.121 515.756 172.906 516.424 170.691L516.424 170.691L516.424 170.691L516.424 170.691L516.424 170.69L516.424 170.69L516.424 170.69L516.424 170.69C517.092 168.475 517.76 166.26 518.417 164.034C518.46 163.907 518.502 163.737 518.544 163.568L518.544 163.567C518.502 163.567 518.47 163.557 518.438 163.546C518.407 163.536 518.375 163.525 518.332 163.525H510.656H510.656C509.044 163.525 507.475 163.525 505.864 163.483C505.228 163.483 504.888 163.016 505.058 162.423L506.966 156.063C507.094 155.554 507.433 155.384 507.942 155.384C508.287 155.384 508.631 155.373 508.971 155.362L508.971 155.362C509.299 155.352 509.622 155.342 509.935 155.342H510.783C510.868 155.342 510.964 155.352 511.059 155.363C511.154 155.374 511.25 155.384 511.335 155.384H511.503C511.419 155.384 511.324 155.374 511.229 155.363C511.133 155.352 511.038 155.342 510.953 155.342H538.011H538.18H538.732C539.288 155.342 539.845 155.353 540.396 155.363ZM458.957 193.501H471.595H471.596C475.709 193.501 479.781 193.501 483.894 193.416H483.894C484.446 193.416 484.997 193.416 485.548 193.331C489.916 192.653 493.564 190.745 496.235 187.141C498.398 184.257 499.628 180.993 499.289 177.304C499.077 175.311 498.229 173.658 496.66 172.386C494.878 170.944 492.8 170.308 490.553 170.308H475.667C475.327 170.308 474.988 170.308 474.649 170.266C473.758 170.181 473.207 169.587 473.122 168.739C472.868 166.026 475.2 163.524 477.957 163.524H499.84H500.349C500.731 163.482 500.985 163.312 501.113 162.888C501.431 161.828 501.749 160.757 502.067 159.687C502.385 158.616 502.703 157.546 503.021 156.486C503.191 155.807 502.936 155.468 502.258 155.383H501.749H480.289C478.635 155.383 477.024 155.638 475.455 156.189C469.178 158.478 465.531 162.973 464.682 169.587C464.174 173.446 466.336 177.092 470.493 178.109C471.553 178.364 472.656 178.533 473.758 178.533C477.48 178.597 481.201 178.589 484.922 178.581H484.923C486.163 178.579 487.404 178.576 488.644 178.576C490.171 178.576 490.934 179.339 490.849 180.696C490.722 182.901 488.941 185.445 485.887 185.402C479.684 185.339 473.456 185.347 467.24 185.355L467.236 185.355C465.168 185.357 463.1 185.36 461.035 185.36H460.653C460.187 185.36 459.89 185.572 459.763 186.038C459.466 187.077 459.159 188.105 458.851 189.133L458.851 189.134C458.543 190.162 458.236 191.19 457.939 192.229C457.928 192.285 457.914 192.342 457.899 192.397L457.899 192.397C457.861 192.551 457.823 192.698 457.854 192.822C457.939 193.331 458.236 193.501 458.957 193.501ZM600.649 163.525H593.397C591.658 163.525 590.81 164.161 590.301 165.815C589.665 167.977 589.029 170.097 588.35 172.26C587.797 174.121 587.236 175.981 586.675 177.846L586.673 177.85C585.943 180.274 585.21 182.705 584.491 185.149C583.77 187.608 583.049 190.068 582.328 192.569C582.116 193.332 581.861 193.502 581.098 193.502H575.33C574.312 193.502 573.973 193.078 574.27 192.145L574.27 192.145L574.27 192.144L574.27 192.144L574.271 192.143L574.271 192.143L574.271 192.142C576.942 183.112 579.614 174.082 582.37 165.094C583.982 159.879 587.672 156.826 592.973 155.681C593.821 155.512 594.669 155.427 595.517 155.427C598.769 155.399 602.02 155.408 605.272 155.418C606.897 155.422 608.523 155.427 610.149 155.427C611.548 155.427 612.906 155.597 614.22 156.063C617.189 157.123 618.97 159.201 619.691 162.211C620.115 164.077 620.115 165.985 619.606 167.808C619.527 168.09 619.449 168.374 619.37 168.659C618.859 170.512 618.337 172.404 617.528 174.168C615.111 179.51 610.827 182.732 605.145 184.089C603.915 184.386 602.642 184.471 601.37 184.471C598.797 184.499 596.224 184.49 593.651 184.48C592.365 184.475 591.079 184.471 589.792 184.471C588.732 184.471 588.435 184.089 588.732 183.072C589.029 182.075 589.326 181.069 589.622 180.062L589.622 180.061L589.627 180.046C589.922 179.044 590.218 178.042 590.513 177.051C590.683 176.5 590.895 176.288 591.488 176.288C592.867 176.288 594.234 176.298 595.602 176.309L595.602 176.309L595.603 176.309C596.97 176.319 598.338 176.33 599.716 176.33C600.056 176.33 600.395 176.333 600.734 176.337H600.734H600.735C602.09 176.35 603.44 176.364 604.763 176.16C607.519 175.736 609.385 174.083 610.319 171.412C610.7 170.267 611.082 169.08 611.294 167.893C611.421 167.129 611.379 166.281 611.252 165.518C611.039 164.458 610.064 163.695 608.961 163.568C608.452 163.525 607.944 163.483 607.477 163.483C605.229 163.525 602.939 163.525 600.649 163.525ZM443.818 163.516C442.998 163.521 442.178 163.525 441.358 163.525H433.937C431.519 163.525 429.483 165.009 428.805 167.341C428.126 169.652 427.437 171.952 426.748 174.252C426.059 176.553 425.37 178.853 424.691 181.164C424.14 183.05 423.578 184.927 423.016 186.803C422.454 188.679 421.892 190.555 421.341 192.442C421.129 193.163 421.383 193.459 422.062 193.459H428.211C428.678 193.459 428.89 193.247 429.017 192.823C429.483 191.128 429.992 189.432 430.501 187.736L430.501 187.736L430.501 187.736L430.501 187.736L430.501 187.736L430.501 187.735C432.113 182.393 433.724 177.051 435.294 171.708C435.421 171.369 435.548 171.284 435.887 171.284H446.405C446.744 171.284 447.084 171.284 447.423 171.327C448.865 171.496 449.883 172.472 450.18 173.871C450.349 174.761 450.18 175.567 449.925 176.415C449.141 179.085 448.346 181.745 447.551 184.405L447.55 184.407L447.55 184.407L447.55 184.408L447.55 184.408L447.55 184.408C446.755 187.069 445.96 189.729 445.175 192.399C444.921 193.163 445.133 193.417 445.939 193.417H451.876C452.512 193.417 452.682 193.29 452.851 192.696C453.125 191.725 453.414 190.754 453.7 189.792C453.901 189.115 454.101 188.443 454.293 187.778C454.802 186.082 455.311 184.376 455.82 182.669L455.82 182.668C456.329 180.962 456.838 179.255 457.347 177.56L457.378 177.452C457.876 175.708 458.364 174.003 458.322 172.175C458.28 169.97 457.644 167.977 456.032 166.366C453.996 164.373 451.494 163.568 448.738 163.525C447.098 163.497 445.458 163.506 443.818 163.516ZM422.867 155.384H425.794C426.811 155.384 427.108 155.766 426.811 156.741C425.243 162.019 423.674 167.286 422.105 172.553L422.105 172.553L422.104 172.556C420.535 177.824 418.966 183.092 417.396 188.371L416.124 192.696C415.955 193.332 415.7 193.501 415.064 193.501H408.957C408.151 193.501 407.854 193.077 408.066 192.314C408.766 189.983 409.465 187.641 410.165 185.299L410.166 185.297C410.865 182.954 411.565 180.612 412.265 178.28C413.992 172.306 415.747 166.36 417.507 160.397L417.507 160.397L417.507 160.397L417.507 160.397C417.908 159.038 418.31 157.678 418.711 156.317C418.966 155.511 419.135 155.384 419.941 155.384H422.867ZM545.474 160.719L545.473 160.721C545.191 161.643 544.908 162.566 544.626 163.525C544.88 163.525 545.092 163.525 545.22 163.483H576.094H578.639C579.105 163.483 579.402 163.356 579.529 162.889C580.208 160.727 580.844 158.607 581.48 156.445C581.65 155.851 581.353 155.47 580.759 155.385H580.335C577.084 155.385 573.832 155.38 570.581 155.375C564.078 155.366 557.575 155.356 551.072 155.385C550.436 155.385 549.715 155.512 549.121 155.766C547.51 156.445 546.407 157.632 545.898 159.328C545.757 159.794 545.615 160.256 545.474 160.718L545.474 160.719ZM536.823 178.45C536.969 177.97 537.104 177.495 537.238 177.025C537.495 176.125 537.747 175.243 538.053 174.379C538.265 173.701 538.604 173.065 539.028 172.471C540.046 171.072 541.488 170.351 543.227 170.351H572.617C573.593 170.351 573.889 170.733 573.593 171.666C573.296 172.663 572.998 173.649 572.701 174.635C572.405 175.621 572.108 176.606 571.811 177.602C571.599 178.365 571.43 178.492 570.624 178.492H537.332C537.205 178.45 537.035 178.45 536.823 178.45ZM530.378 191.869C530.211 192.436 530.043 193.008 529.867 193.587H530.546H550.309H563.795C564.516 193.587 564.686 193.417 564.898 192.739C565.194 191.722 565.491 190.716 565.788 189.709C566.085 188.702 566.382 187.694 566.679 186.676C566.933 185.87 566.679 185.489 565.788 185.446H565.407H536.525C533.896 185.446 531.86 186.973 531.097 189.474C530.848 190.27 530.614 191.065 530.378 191.869Z" fill="#3E4D86"/>
<path d="M409.52 204.161H410.46V211.524L416.229 204.161H417.092V213.047H416.152V205.697L410.382 213.047H409.52V204.161Z" fill="#3D4E81"/>
<path d="M424.693 208.401C425.286 208.545 425.749 208.807 426.084 209.188C426.428 209.569 426.599 210.026 426.599 210.559C426.599 211.075 426.436 211.528 426.11 211.917C425.784 212.307 425.35 212.607 424.809 212.819C424.268 213.022 423.68 213.123 423.045 213.123C422.444 213.123 421.851 213.03 421.268 212.844C420.692 212.649 420.173 212.362 419.709 211.981L420.057 211.308C420.452 211.638 420.903 211.892 421.409 212.07C421.916 212.239 422.427 212.324 422.942 212.324C423.431 212.324 423.882 212.247 424.294 212.095C424.706 211.943 425.032 211.727 425.273 211.448C425.522 211.16 425.646 210.821 425.646 210.432C425.646 209.916 425.44 209.518 425.028 209.239C424.616 208.96 424.036 208.82 423.289 208.82H421.358V208.058H423.238C423.873 208.058 424.367 207.927 424.719 207.665C425.08 207.394 425.26 207.022 425.26 206.548C425.26 206.023 425.032 205.613 424.577 205.316C424.122 205.012 423.551 204.859 422.864 204.859C422.435 204.859 422.002 204.923 421.564 205.05C421.126 205.168 420.709 205.35 420.315 205.596L419.993 204.821C420.885 204.297 421.851 204.034 422.89 204.034C423.5 204.034 424.058 204.132 424.564 204.326C425.071 204.521 425.47 204.8 425.762 205.164C426.063 205.528 426.213 205.955 426.213 206.446C426.213 206.92 426.08 207.33 425.814 207.677C425.547 208.016 425.174 208.257 424.693 208.401Z" fill="#3D4E81"/>
<path d="M435.34 204.974H430.537L430.55 213.047H429.609V204.161H435.34V204.974Z" fill="#3D4E81"/>
<path d="M440.357 213.123C439.464 213.123 438.653 212.929 437.923 212.539C437.202 212.142 436.635 211.6 436.223 210.915C435.82 210.229 435.618 209.459 435.618 208.604C435.618 207.749 435.82 206.979 436.223 206.294C436.635 205.608 437.202 205.071 437.923 204.682C438.653 204.284 439.464 204.085 440.357 204.085C441.25 204.085 442.053 204.28 442.765 204.669C443.487 205.058 444.053 205.6 444.465 206.294C444.877 206.979 445.084 207.749 445.084 208.604C445.084 209.459 444.877 210.233 444.465 210.927C444.053 211.613 443.487 212.15 442.765 212.539C442.053 212.929 441.25 213.123 440.357 213.123ZM440.357 212.285C441.07 212.285 441.714 212.129 442.289 211.816C442.864 211.494 443.315 211.054 443.641 210.496C443.967 209.929 444.131 209.298 444.131 208.604C444.131 207.91 443.967 207.284 443.641 206.725C443.315 206.158 442.864 205.718 442.289 205.405C441.714 205.084 441.07 204.923 440.357 204.923C439.644 204.923 438.996 205.084 438.412 205.405C437.837 205.718 437.382 206.158 437.047 206.725C436.721 207.284 436.558 207.91 436.558 208.604C436.558 209.298 436.721 209.929 437.047 210.496C437.382 211.054 437.837 211.494 438.412 211.816C438.996 212.129 439.644 212.285 440.357 212.285Z" fill="#3D4E81"/>
<path d="M453.774 204.974H450.606V213.047H449.666V204.974H446.498V204.161H453.774V204.974Z" fill="#3D4E81"/>
<path d="M459.919 213.123C459.026 213.123 458.215 212.929 457.485 212.539C456.764 212.142 456.197 211.6 455.785 210.915C455.381 210.229 455.18 209.459 455.18 208.604C455.18 207.749 455.381 206.979 455.785 206.294C456.197 205.608 456.764 205.071 457.485 204.682C458.215 204.284 459.026 204.085 459.919 204.085C460.812 204.085 461.615 204.28 462.327 204.669C463.048 205.058 463.615 205.6 464.027 206.294C464.439 206.979 464.645 207.749 464.645 208.604C464.645 209.459 464.439 210.233 464.027 210.927C463.615 211.613 463.048 212.15 462.327 212.539C461.615 212.929 460.812 213.123 459.919 213.123ZM459.919 212.285C460.631 212.285 461.275 212.129 461.851 211.816C462.426 211.494 462.877 211.054 463.203 210.496C463.529 209.929 463.692 209.298 463.692 208.604C463.692 207.91 463.529 207.284 463.203 206.725C462.877 206.158 462.426 205.718 461.851 205.405C461.275 205.084 460.631 204.923 459.919 204.923C459.206 204.923 458.558 205.084 457.974 205.405C457.399 205.718 456.944 206.158 456.609 206.725C456.283 207.284 456.12 207.91 456.12 208.604C456.12 209.298 456.283 209.929 456.609 210.496C456.944 211.054 457.399 211.494 457.974 211.816C458.558 212.129 459.206 212.285 459.919 212.285Z" fill="#3D4E81"/>
<path d="M472.908 208.464C473.535 208.591 474.011 208.841 474.337 209.213C474.664 209.577 474.827 210.056 474.827 210.648C474.827 211.418 474.548 212.01 473.99 212.425C473.44 212.84 472.629 213.047 471.556 213.047H467.563V204.161H471.311C472.273 204.161 473.024 204.356 473.565 204.745C474.106 205.134 474.376 205.697 474.376 206.433C474.376 206.933 474.247 207.356 473.99 207.703C473.732 208.041 473.372 208.295 472.908 208.464ZM468.503 208.185H471.259C471.955 208.185 472.487 208.046 472.856 207.766C473.234 207.487 473.423 207.081 473.423 206.548C473.423 206.014 473.234 205.608 472.856 205.329C472.487 205.05 471.955 204.91 471.259 204.91H468.503V208.185ZM471.556 212.298C473.11 212.298 473.887 211.727 473.887 210.584C473.887 209.467 473.11 208.909 471.556 208.909H468.503V212.298H471.556Z" fill="#3D4E81"/>
<path d="M484.924 204.161V213.047H483.984V204.974H479.631L479.528 207.944C479.485 209.171 479.382 210.161 479.219 210.915C479.064 211.659 478.824 212.218 478.498 212.59C478.171 212.954 477.738 213.136 477.197 213.136C476.965 213.136 476.725 213.106 476.476 213.047L476.553 212.209C476.699 212.243 476.84 212.26 476.978 212.26C477.356 212.26 477.66 212.112 477.892 211.816C478.133 211.52 478.313 211.063 478.433 210.445C478.553 209.819 478.635 208.993 478.678 207.969L478.807 204.161H484.924Z" fill="#3D4E81"/>
<path d="M494.984 212.235V213.047H488.609V204.161H494.791V204.974H489.562V208.134H494.224V208.934H489.562V212.235H494.984Z" fill="#3D4E81"/>
<path d="M505.276 204.161V213.047H504.336V208.947H498.695V213.047H497.742V204.161H498.695V208.122H504.336V204.161H505.276Z" fill="#3D4E81"/>
<path d="M508.963 204.161H509.903V211.524L515.673 204.161H516.536V213.047H515.596V205.697L509.826 213.047H508.963V204.161Z" fill="#3D4E81"/>
<path d="M526.597 212.235V213.047H520.222V204.161H526.404V204.974H521.175V208.134H525.837V208.934H521.175V212.235H526.597Z" fill="#3D4E81"/>
<path d="M540.955 204.161V213.047H540.015V204.974H534.31V213.047H533.369V204.161H540.955Z" fill="#3D4E81"/>
<path d="M548.015 204.161C549.165 204.161 550.067 204.432 550.719 204.974C551.372 205.515 551.698 206.26 551.698 207.208C551.698 208.156 551.372 208.9 550.719 209.442C550.067 209.975 549.165 210.242 548.015 210.242H545.594V213.047H544.641V204.161H548.015ZM547.989 209.417C548.882 209.417 549.565 209.226 550.037 208.845C550.509 208.456 550.745 207.91 550.745 207.208C550.745 206.488 550.509 205.938 550.037 205.557C549.565 205.168 548.882 204.974 547.989 204.974H545.594V209.417H547.989Z" fill="#3D4E81"/>
<path d="M558.382 213.123C557.489 213.123 556.677 212.929 555.947 212.539C555.226 212.142 554.66 211.6 554.248 210.915C553.844 210.229 553.642 209.459 553.642 208.604C553.642 207.749 553.844 206.979 554.248 206.294C554.66 205.608 555.226 205.071 555.947 204.682C556.677 204.284 557.489 204.085 558.382 204.085C559.274 204.085 560.077 204.28 560.79 204.669C561.511 205.058 562.078 205.6 562.49 206.294C562.902 206.979 563.108 207.749 563.108 208.604C563.108 209.459 562.902 210.233 562.49 210.927C562.078 211.613 561.511 212.15 560.79 212.539C560.077 212.929 559.274 213.123 558.382 213.123ZM558.382 212.285C559.094 212.285 559.738 212.129 560.313 211.816C560.889 211.494 561.339 211.054 561.666 210.496C561.992 209.929 562.155 209.298 562.155 208.604C562.155 207.91 561.992 207.284 561.666 206.725C561.339 206.158 560.889 205.718 560.313 205.405C559.738 205.084 559.094 204.923 558.382 204.923C557.669 204.923 557.021 205.084 556.437 205.405C555.862 205.718 555.407 206.158 555.072 206.725C554.746 207.284 554.582 207.91 554.582 208.604C554.582 209.298 554.746 209.929 555.072 210.496C555.407 211.054 555.862 211.494 556.437 211.816C557.021 212.129 557.669 212.285 558.382 212.285Z" fill="#3D4E81"/>
<path d="M571.799 204.974H568.631V213.047H567.69V204.974H564.522V204.161H571.799V204.974Z" fill="#3D4E81"/>
<path d="M580.49 212.235V213.047H574.115V204.161H580.297V204.974H575.068V208.134H579.73V208.934H575.068V212.235H580.49Z" fill="#3D4E81"/>
<path d="M587.164 208.401C587.756 208.545 588.22 208.807 588.554 209.188C588.898 209.569 589.07 210.026 589.07 210.559C589.07 211.075 588.906 211.528 588.58 211.917C588.254 212.307 587.82 212.607 587.279 212.819C586.739 213.022 586.15 213.123 585.515 213.123C584.914 213.123 584.322 213.03 583.738 212.844C583.163 212.649 582.643 212.362 582.18 211.981L582.527 211.308C582.922 211.638 583.373 211.892 583.88 212.07C584.386 212.239 584.897 212.324 585.412 212.324C585.901 212.324 586.352 212.247 586.764 212.095C587.176 211.943 587.503 211.727 587.743 211.448C587.992 211.16 588.117 210.821 588.117 210.432C588.117 209.916 587.911 209.518 587.498 209.239C587.086 208.96 586.507 208.82 585.76 208.82H583.828V208.058H585.708C586.344 208.058 586.837 207.927 587.189 207.665C587.55 207.394 587.73 207.022 587.73 206.548C587.73 206.023 587.503 205.613 587.048 205.316C586.593 205.012 586.022 204.859 585.335 204.859C584.906 204.859 584.472 204.923 584.034 205.05C583.596 205.168 583.18 205.35 582.785 205.596L582.463 204.821C583.356 204.297 584.322 204.034 585.361 204.034C585.97 204.034 586.528 204.132 587.035 204.326C587.541 204.521 587.941 204.8 588.233 205.164C588.533 205.528 588.683 205.955 588.683 206.446C588.683 206.92 588.55 207.33 588.284 207.677C588.018 208.016 587.644 208.257 587.164 208.401Z" fill="#3D4E81"/>
<path d="M596.034 213.123C595.141 213.123 594.329 212.929 593.6 212.539C592.878 212.142 592.312 211.6 591.9 210.915C591.496 210.229 591.294 209.459 591.294 208.604C591.294 207.749 591.496 206.979 591.9 206.294C592.312 205.608 592.878 205.071 593.6 204.682C594.329 204.284 595.141 204.085 596.034 204.085C596.926 204.085 597.729 204.28 598.442 204.669C599.163 205.058 599.73 205.6 600.142 206.294C600.554 206.979 600.76 207.749 600.76 208.604C600.76 209.459 600.554 210.233 600.142 210.927C599.73 211.613 599.163 212.15 598.442 212.539C597.729 212.929 596.926 213.123 596.034 213.123ZM596.034 212.285C596.746 212.285 597.39 212.129 597.965 211.816C598.541 211.494 598.991 211.054 599.318 210.496C599.644 209.929 599.807 209.298 599.807 208.604C599.807 207.91 599.644 207.284 599.318 206.725C598.991 206.158 598.541 205.718 597.965 205.405C597.39 205.084 596.746 204.923 596.034 204.923C595.321 204.923 594.673 205.084 594.089 205.405C593.514 205.718 593.059 206.158 592.724 206.725C592.398 207.284 592.234 207.91 592.234 208.604C592.234 209.298 592.398 209.929 592.724 210.496C593.059 211.054 593.514 211.494 594.089 211.816C594.673 212.129 595.321 212.285 596.034 212.285Z" fill="#3D4E81"/>
<path d="M609.023 208.464C609.649 208.591 610.126 208.841 610.452 209.213C610.778 209.577 610.942 210.056 610.942 210.648C610.942 211.418 610.662 212.01 610.104 212.425C609.555 212.84 608.744 213.047 607.67 213.047H603.678V204.161H607.426C608.387 204.161 609.139 204.356 609.679 204.745C610.22 205.134 610.491 205.697 610.491 206.433C610.491 206.933 610.362 207.356 610.104 207.703C609.847 208.041 609.486 208.295 609.023 208.464ZM604.618 208.185H607.374C608.07 208.185 608.602 208.046 608.971 207.766C609.349 207.487 609.538 207.081 609.538 206.548C609.538 206.014 609.349 205.608 608.971 205.329C608.602 205.05 608.07 204.91 607.374 204.91H604.618V208.185ZM607.67 212.298C609.224 212.298 610.001 211.727 610.001 210.584C610.001 209.467 609.224 208.909 607.67 208.909H604.618V212.298H607.67Z" fill="#3D4E81"/>
<path fill-rule="evenodd" clip-rule="evenodd" d="M128.881 169C129.43 169 129.979 169.011 130.522 169.022C131.055 169.032 131.583 169.042 132.101 169.042C132.728 169.042 133.02 169.254 133.062 169.806C133.062 169.975 133.02 170.187 132.979 170.357L131.223 176.336C131.014 177.1 130.805 177.227 130.01 177.227H117.634H117.091C116.861 177.99 116.641 178.753 116.422 179.517C116.202 180.28 115.983 181.043 115.753 181.807C114.541 185.898 113.339 189.99 112.137 194.082L112.134 194.091C110.933 198.181 109.732 202.27 108.52 206.36C108.353 206.953 108.102 207.165 107.433 207.165H101.454C100.576 207.165 100.325 206.699 100.576 205.766C101.308 203.306 102.029 200.846 102.75 198.387L102.75 198.386L102.751 198.386L102.751 198.385L102.751 198.385L102.751 198.385L102.751 198.384L102.751 198.384C103.472 195.926 104.193 193.467 104.924 191.009C105.572 188.782 106.231 186.567 106.889 184.351C107.548 182.135 108.206 179.92 108.854 177.693C108.896 177.566 108.938 177.396 108.98 177.227C108.938 177.227 108.907 177.216 108.875 177.206C108.844 177.195 108.813 177.184 108.771 177.184H101.203H101.203C99.6143 177.184 98.0674 177.184 96.4787 177.142C95.8515 177.142 95.517 176.675 95.6843 176.082L97.5657 169.721C97.6911 169.212 98.0256 169.042 98.5273 169.042C98.8672 169.042 99.2071 169.031 99.5415 169.021L99.5415 169.021C99.8653 169.01 100.184 169 100.492 169H101.329C101.412 169 101.506 169.011 101.6 169.021L101.6 169.021L101.6 169.021C101.694 169.032 101.789 169.042 101.872 169.042H102.039C101.955 169.042 101.861 169.032 101.768 169.021C101.674 169.011 101.58 169 101.496 169H128.171H128.338H128.881ZM50.2371 207.166H62.6965C66.752 207.166 70.7658 207.166 74.8213 207.081H74.8214C75.3649 207.081 75.9084 207.081 76.4519 206.996C80.7583 206.318 84.3539 204.409 86.988 200.805C89.1203 197.921 90.3327 194.656 89.9983 190.967C89.7892 188.973 88.953 187.32 87.4061 186.047C85.65 184.606 83.6014 183.97 81.3854 183.97H66.7102C66.3757 183.97 66.0412 183.97 65.7068 183.927C64.8288 183.842 64.2852 183.249 64.2016 182.401C63.9507 179.687 66.2503 177.185 68.9679 177.185H90.5418H91.0435C91.4198 177.142 91.6707 176.973 91.7961 176.548C92.1097 175.488 92.4232 174.418 92.7368 173.347L92.7391 173.339C93.0519 172.271 93.3647 171.203 93.6775 170.145C93.8448 169.467 93.5939 169.127 92.925 169.043H92.4232H71.2675C69.6369 169.043 68.0481 169.297 66.5011 169.848C60.3133 172.138 56.7176 176.633 55.8815 183.249C55.3797 187.108 57.512 190.755 61.6094 191.772C62.6546 192.027 63.7417 192.196 64.8288 192.196C68.4975 192.26 72.1663 192.252 75.8351 192.244C77.0581 192.241 78.281 192.239 79.504 192.239C81.0092 192.239 81.7617 193.002 81.6781 194.359C81.5527 196.564 79.7967 199.109 76.7864 199.066C70.6705 199.002 64.5312 199.01 58.4036 199.018H58.4031C56.3623 199.021 54.3227 199.024 52.2858 199.024H51.9095C51.4496 199.024 51.1569 199.236 51.0315 199.702C50.7388 200.741 50.4357 201.769 50.1326 202.798C49.8295 203.826 49.5264 204.855 49.2337 205.893C49.2225 205.95 49.2084 206.007 49.1945 206.062C49.1562 206.216 49.1194 206.363 49.1501 206.487C49.2337 206.996 49.5264 207.166 50.2371 207.166ZM189.924 177.185H182.774C181.06 177.185 180.224 177.821 179.722 179.474C179.095 181.637 178.468 183.757 177.799 185.92C177.254 187.781 176.701 189.643 176.147 191.507C175.426 193.934 174.703 196.366 173.994 198.812C173.283 201.271 172.573 203.731 171.862 206.233C171.653 206.996 171.402 207.166 170.649 207.166H164.963C163.96 207.166 163.625 206.742 163.918 205.809L163.919 205.804C166.553 196.773 169.186 187.742 171.904 178.754C173.492 173.538 177.13 170.484 182.356 169.339C183.192 169.17 184.028 169.085 184.865 169.085C188.07 169.057 191.275 169.066 194.481 169.076C196.084 169.08 197.686 169.085 199.289 169.085C200.669 169.085 202.007 169.255 203.303 169.721C206.229 170.781 207.985 172.859 208.696 175.87C209.114 177.736 209.114 179.644 208.613 181.468C208.536 181.746 208.459 182.027 208.383 182.308L208.38 182.318C207.876 184.172 207.361 186.064 206.564 187.828C204.181 193.172 199.958 196.394 194.355 197.751C193.143 198.048 191.889 198.133 190.634 198.133C188.098 198.161 185.561 198.152 183.025 198.143C181.757 198.138 180.489 198.133 179.22 198.133C178.175 198.133 177.882 197.751 178.175 196.734C178.468 195.738 178.76 194.731 179.053 193.725L179.053 193.723C179.346 192.716 179.638 191.709 179.931 190.712C180.098 190.161 180.307 189.949 180.893 189.949C182.252 189.949 183.6 189.959 184.948 189.97C186.297 189.981 187.645 189.991 189.004 189.991C189.338 189.991 189.673 189.995 190.007 189.998H190.007H190.008H190.008H190.008C191.344 190.012 192.675 190.025 193.979 189.822C196.697 189.397 198.536 187.744 199.456 185.072C199.833 183.927 200.209 182.74 200.418 181.552C200.543 180.789 200.501 179.941 200.376 179.178C200.167 178.117 199.205 177.354 198.118 177.227C197.617 177.185 197.115 177.142 196.655 177.142C194.439 177.185 192.181 177.185 189.924 177.185ZM35.3111 177.175C34.5028 177.18 33.6945 177.184 32.8861 177.184H25.5694C23.1863 177.184 21.1794 178.668 20.5104 181.001C19.8416 183.312 19.1622 185.612 18.4829 187.912L18.4827 187.913C17.8032 190.213 17.1238 192.514 16.4549 194.825C15.9113 196.712 15.3574 198.589 14.8034 200.465L14.8033 200.465C14.2494 202.342 13.6954 204.218 13.1519 206.105C12.9429 206.826 13.1937 207.123 13.8627 207.123H19.9251C20.385 207.123 20.594 206.911 20.7195 206.487C21.1794 204.791 21.6811 203.094 22.1828 201.398L22.183 201.398C23.7717 196.055 25.3604 190.712 26.9073 185.369C27.0328 185.029 27.1582 184.945 27.4927 184.945H37.8615C38.196 184.945 38.5305 184.945 38.8649 184.987C40.2865 185.157 41.2899 186.132 41.5826 187.531C41.7498 188.422 41.5826 189.228 41.3317 190.076C40.5582 192.747 39.7743 195.408 38.9904 198.069C38.2064 200.73 37.4225 203.391 36.649 206.063C36.3982 206.826 36.6072 207.081 37.4016 207.081H43.255C43.8821 207.081 44.0494 206.953 44.2166 206.36C44.4867 205.388 44.7712 204.417 45.0531 203.455C45.2513 202.778 45.4483 202.106 45.6381 201.441C46.1398 199.744 46.6416 198.037 47.1433 196.331L47.1436 196.33C47.6452 194.623 48.1468 192.917 48.6484 191.221L48.6789 191.113C49.1702 189.369 49.651 187.663 49.6101 185.835C49.5682 183.63 48.9411 181.637 47.3523 180.025C45.3455 178.032 42.8787 177.227 40.161 177.184C38.5444 177.156 36.9277 177.165 35.3111 177.175ZM14.657 169.043H17.5418C18.5453 169.043 18.8379 169.424 18.5453 170.4C16.9988 175.677 15.4524 180.944 13.906 186.212L13.9047 186.216L13.9043 186.217L13.9037 186.219L13.9031 186.221C12.3566 191.489 10.81 196.756 9.26349 202.035L8.0092 206.36C7.84196 206.996 7.5911 207.166 6.96395 207.166H0.943334C0.148948 207.166 -0.143721 206.742 0.0653278 205.978C0.754898 203.647 1.44447 201.305 2.13404 198.963L2.13433 198.962L2.13462 198.961L2.13492 198.96L2.13508 198.96C2.82488 196.617 3.51469 194.274 4.2045 191.942C5.90701 185.967 7.63725 180.021 9.37264 174.056L9.37477 174.049C9.76953 172.692 10.1646 171.335 10.5596 169.976C10.8105 169.17 10.9777 169.043 11.7721 169.043H14.657ZM135.529 174.377L135.528 174.38C135.25 175.302 134.971 176.224 134.693 177.184C134.944 177.184 135.153 177.184 135.278 177.142H165.716H168.225C168.684 177.142 168.977 177.015 169.103 176.548C169.771 174.386 170.399 172.265 171.026 170.103C171.193 169.509 170.9 169.127 170.315 169.042H169.897C166.691 169.042 163.486 169.038 160.281 169.033C153.87 169.024 147.459 169.014 141.048 169.042C140.421 169.042 139.71 169.17 139.125 169.424C137.536 170.103 136.449 171.29 135.947 172.986C135.808 173.453 135.669 173.914 135.529 174.376L135.529 174.377ZM127 192.111C127.143 191.631 127.277 191.156 127.409 190.686L127.409 190.686C127.662 189.786 127.91 188.904 128.213 188.04C128.422 187.362 128.756 186.726 129.174 186.132C130.178 184.733 131.599 184.012 133.313 184.012H162.288C163.249 184.012 163.542 184.393 163.249 185.326C162.957 186.323 162.664 187.309 162.371 188.295C162.078 189.281 161.786 190.267 161.493 191.263C161.284 192.026 161.117 192.154 160.322 192.154H127.502C127.376 192.111 127.209 192.111 127 192.111ZM120.647 205.532C120.482 206.1 120.316 206.671 120.143 207.25H120.812H140.296H153.591C154.302 207.25 154.469 207.081 154.678 206.402C154.971 205.385 155.264 204.377 155.556 203.37C155.849 202.363 156.142 201.356 156.434 200.338C156.685 199.533 156.434 199.151 155.556 199.109H155.18H126.707C124.115 199.109 122.108 200.635 121.356 203.137C121.111 203.933 120.88 204.728 120.647 205.532Z" fill="url(#paint0_linear_103_61973)"/>
<g clip-path="url(#clip0_103_61973)">
<path fill-rule="evenodd" clip-rule="evenodd" d="M215.239 94.3846C225.704 83.127 242.811 76.3767 261.619 73.7532C289.722 69.8367 321.608 75.115 340.585 88.0257C340.972 88.2965 341.073 88.8316 340.81 89.2171C340.541 89.6128 340.014 89.7114 339.619 89.4427C320.935 76.7346 289.528 71.5919 261.854 75.4557C243.471 78.0163 226.723 84.5454 216.498 95.5547C216.174 95.9054 215.634 95.9225 215.283 95.5991C214.943 95.2816 214.916 94.7353 215.239 94.3846Z" fill="#DBDBDB"/>
<path fill-rule="evenodd" clip-rule="evenodd" d="M362.311 103.362C352.692 94.1577 343.316 87.051 337.428 74.1722C337.236 73.7362 337.419 73.2257 337.855 73.0333C338.282 72.833 338.793 73.0242 338.985 73.452C345.466 87.6218 356.272 94.6645 366.866 105.43C367.436 106.014 367.122 106.539 367.037 106.658C366.913 106.836 366.66 107.078 366.196 107.017C366.105 107.004 365.93 106.955 365.695 106.85C365.249 106.639 364.378 106.135 363.966 105.947C362.773 105.416 361.573 104.918 360.38 104.387C356.969 102.868 353.551 101.39 350.03 100.165C336.862 95.558 326.125 91.7074 312.969 97.6652C312.534 97.8659 312.031 97.6743 311.83 97.2386C311.638 96.8107 311.83 96.2999 312.257 96.1078C325.865 89.9403 336.98 93.7824 350.599 98.5417C354.163 99.7902 357.631 101.282 361.076 102.816C361.488 103.003 361.899 103.182 362.311 103.362Z" fill="#DBDBDB"/>
</g>
<path d="M1.82 118.1C1.82 117.335 1.988 116.667 2.324 116.098C2.66933 115.519 3.11733 115.067 3.668 114.74C4.21867 114.413 4.816 114.25 5.46 114.25C5.92667 114.25 6.35133 114.311 6.734 114.432C7.126 114.553 7.48067 114.726 7.798 114.95C8.11533 115.165 8.386 115.417 8.61 115.706V114.138C8.19933 113.774 7.75133 113.503 7.266 113.326C6.78067 113.149 6.17867 113.06 5.46 113.06C4.77867 113.06 4.13933 113.186 3.542 113.438C2.954 113.681 2.436 114.031 1.988 114.488C1.54 114.936 1.19 115.468 0.938 116.084C0.686 116.7 0.56 117.372 0.56 118.1C0.56 118.828 0.686 119.5 0.938 120.116C1.19 120.732 1.54 121.269 1.988 121.726C2.436 122.174 2.954 122.524 3.542 122.776C4.13933 123.019 4.77867 123.14 5.46 123.14C6.17867 123.14 6.78067 123.051 7.266 122.874C7.75133 122.697 8.19933 122.426 8.61 122.062V120.494C8.386 120.783 8.11533 121.04 7.798 121.264C7.48067 121.479 7.126 121.647 6.734 121.768C6.35133 121.889 5.92667 121.95 5.46 121.95C4.816 121.95 4.21867 121.787 3.668 121.46C3.11733 121.133 2.66933 120.681 2.324 120.102C1.988 119.523 1.82 118.856 1.82 118.1ZM9.65398 116.56V117.61H13.434V116.56H9.65398ZM10.984 116.84V123H12.104V116.84H10.984ZM15.0618 121.11C15.0618 120.849 15.1225 120.625 15.2438 120.438C15.3651 120.251 15.5471 120.107 15.7898 120.004C16.0418 119.901 16.3545 119.85 16.7278 119.85C17.1385 119.85 17.5071 119.906 17.8338 120.018C18.1605 120.121 18.4825 120.284 18.7998 120.508V119.85C18.7345 119.766 18.6131 119.659 18.4358 119.528C18.2585 119.388 18.0205 119.267 17.7218 119.164C17.4325 119.052 17.0825 118.996 16.6718 118.996C16.1118 118.996 15.6265 119.085 15.2158 119.262C14.8051 119.43 14.4878 119.673 14.2638 119.99C14.0398 120.307 13.9278 120.695 13.9278 121.152C13.9278 121.591 14.0258 121.959 14.2218 122.258C14.4271 122.547 14.6978 122.767 15.0338 122.916C15.3698 123.065 15.7385 123.14 16.1398 123.14C16.5878 123.14 16.9938 123.065 17.3578 122.916C17.7218 122.757 18.0111 122.533 18.2258 122.244C18.4498 121.945 18.5618 121.591 18.5618 121.18L18.3378 120.48C18.3378 120.881 18.2538 121.203 18.0858 121.446C17.9271 121.689 17.7031 121.866 17.4138 121.978C17.1245 122.09 16.7931 122.146 16.4198 122.146C16.1678 122.146 15.9391 122.109 15.7338 122.034C15.5285 121.95 15.3651 121.833 15.2438 121.684C15.1225 121.525 15.0618 121.334 15.0618 121.11ZM15.0618 118.072C15.1645 117.997 15.3045 117.909 15.4818 117.806C15.6685 117.694 15.8878 117.601 16.1398 117.526C16.3918 117.442 16.6718 117.4 16.9798 117.4C17.3345 117.4 17.6471 117.484 17.9178 117.652C18.1978 117.811 18.3378 118.053 18.3378 118.38V123H19.4578V118.38C19.4578 117.96 19.3505 117.605 19.1358 117.316C18.9305 117.027 18.6411 116.807 18.2678 116.658C17.9038 116.499 17.4745 116.42 16.9798 116.42C16.4011 116.42 15.9065 116.509 15.4958 116.686C15.0851 116.863 14.7585 117.041 14.5158 117.218L15.0618 118.072ZM22.4027 126.08V116.56H21.2827V126.08H22.4027ZM27.7927 119.78C27.7927 119.08 27.6481 118.483 27.3587 117.988C27.0694 117.484 26.6821 117.097 26.1967 116.826C25.7207 116.555 25.1887 116.42 24.6007 116.42C24.0687 116.42 23.5974 116.555 23.1867 116.826C22.7854 117.097 22.4681 117.484 22.2347 117.988C22.0107 118.483 21.8987 119.08 21.8987 119.78C21.8987 120.471 22.0107 121.068 22.2347 121.572C22.4681 122.076 22.7854 122.463 23.1867 122.734C23.5974 123.005 24.0687 123.14 24.6007 123.14C25.1887 123.14 25.7207 123.005 26.1967 122.734C26.6821 122.463 27.0694 122.076 27.3587 121.572C27.6481 121.068 27.7927 120.471 27.7927 119.78ZM26.6587 119.78C26.6587 120.275 26.5561 120.695 26.3507 121.04C26.1547 121.385 25.8887 121.647 25.5527 121.824C25.2261 122.001 24.8621 122.09 24.4607 122.09C24.1341 122.09 23.8121 122.001 23.4947 121.824C23.1774 121.647 22.9161 121.385 22.7107 121.04C22.5054 120.695 22.4027 120.275 22.4027 119.78C22.4027 119.285 22.5054 118.865 22.7107 118.52C22.9161 118.175 23.1774 117.913 23.4947 117.736C23.8121 117.559 24.1341 117.47 24.4607 117.47C24.8621 117.47 25.2261 117.559 25.5527 117.736C25.8887 117.913 26.1547 118.175 26.3507 118.52C26.5561 118.865 26.6587 119.285 26.6587 119.78ZM35.1471 116.56V123H36.2671V116.56H35.1471ZM29.3371 116.56V123H30.4571V116.56H29.3371ZM29.9951 119.976H31.9971C32.4078 119.976 32.7158 120.065 32.9211 120.242C33.1264 120.419 33.2291 120.671 33.2291 120.998C33.2291 121.213 33.1824 121.399 33.0891 121.558C32.9958 121.707 32.8558 121.824 32.6691 121.908C32.4918 121.983 32.2678 122.02 31.9971 122.02H29.9951V123H31.9971C32.4451 123 32.8464 122.93 33.2011 122.79C33.5558 122.65 33.8358 122.431 34.0411 122.132C34.2464 121.833 34.3491 121.455 34.3491 120.998C34.3491 120.307 34.1204 119.803 33.6631 119.486C33.2151 119.159 32.6598 118.996 31.9971 118.996H29.9951V119.976ZM43.7505 117.68L43.8205 116.07L38.5005 121.88L38.4305 123.49L43.7505 117.68ZM39.5505 116.56H38.4305V123.49L39.5505 121.95V116.56ZM43.8205 116.07L42.7005 117.61V123H43.8205V116.07ZM38.9485 113.27C38.9485 113.587 39.0279 113.9 39.1865 114.208C39.3545 114.507 39.6019 114.754 39.9285 114.95C40.2645 115.137 40.6752 115.23 41.1605 115.23C41.6552 115.23 42.0659 115.137 42.3925 114.95C42.7192 114.754 42.9619 114.507 43.1205 114.208C43.2885 113.9 43.3725 113.587 43.3725 113.27H42.3785C42.3785 113.391 42.3459 113.536 42.2805 113.704C42.2152 113.863 42.0939 114.007 41.9165 114.138C41.7392 114.259 41.4872 114.32 41.1605 114.32C40.8339 114.32 40.5819 114.259 40.4045 114.138C40.2272 114.007 40.1059 113.863 40.0405 113.704C39.9752 113.536 39.9425 113.391 39.9425 113.27H38.9485Z" fill="#1B1A1A"/>
<path d="M409.778 118.24H416.498V117.12H409.778V118.24ZM415.7 113.2V123H416.89V113.2H415.7ZM409.12 113.2V123H410.31V113.2H409.12ZM418.498 119.78C418.498 120.424 418.642 121.003 418.932 121.516C419.23 122.02 419.632 122.417 420.136 122.706C420.64 122.995 421.204 123.14 421.83 123.14C422.464 123.14 423.029 122.995 423.524 122.706C424.028 122.417 424.424 122.02 424.714 121.516C425.012 121.003 425.162 120.424 425.162 119.78C425.162 119.127 425.012 118.548 424.714 118.044C424.424 117.54 424.028 117.143 423.524 116.854C423.029 116.565 422.464 116.42 421.83 116.42C421.204 116.42 420.64 116.565 420.136 116.854C419.632 117.143 419.23 117.54 418.932 118.044C418.642 118.548 418.498 119.127 418.498 119.78ZM419.632 119.78C419.632 119.332 419.725 118.935 419.912 118.59C420.108 118.235 420.369 117.96 420.696 117.764C421.032 117.568 421.41 117.47 421.83 117.47C422.25 117.47 422.623 117.568 422.95 117.764C423.286 117.96 423.547 118.235 423.734 118.59C423.93 118.935 424.028 119.332 424.028 119.78C424.028 120.228 423.93 120.625 423.734 120.97C423.547 121.315 423.286 121.591 422.95 121.796C422.623 121.992 422.25 122.09 421.83 122.09C421.41 122.09 421.032 121.992 420.696 121.796C420.369 121.591 420.108 121.315 419.912 120.97C419.725 120.625 419.632 120.228 419.632 119.78ZM427.358 119.64V120.228H429.22C429.435 120.228 429.617 120.251 429.766 120.298C429.925 120.335 430.051 120.396 430.144 120.48C430.247 120.564 430.322 120.657 430.368 120.76C430.424 120.863 430.452 120.979 430.452 121.11C430.452 121.362 430.35 121.577 430.144 121.754C429.948 121.931 429.64 122.02 429.22 122.02H427.358V123H429.5C430.238 123 430.765 122.832 431.082 122.496C431.409 122.151 431.572 121.735 431.572 121.25C431.572 120.83 431.47 120.503 431.264 120.27C431.059 120.037 430.779 119.873 430.424 119.78C430.07 119.687 429.668 119.64 429.22 119.64H427.358ZM427.358 119.92H429.08C429.482 119.92 429.846 119.864 430.172 119.752C430.508 119.631 430.779 119.453 430.984 119.22C431.19 118.977 431.292 118.674 431.292 118.31C431.292 117.89 431.19 117.554 430.984 117.302C430.779 117.041 430.508 116.854 430.172 116.742C429.846 116.621 429.482 116.56 429.08 116.56H427.358V117.54H429.08C429.416 117.54 429.682 117.619 429.878 117.778C430.074 117.927 430.172 118.128 430.172 118.38C430.172 118.501 430.144 118.618 430.088 118.73C430.042 118.833 429.972 118.926 429.878 119.01C429.785 119.094 429.668 119.159 429.528 119.206C429.398 119.243 429.248 119.262 429.08 119.262H427.358V119.92ZM426.7 116.56V123H427.82V116.56H426.7ZM438.854 116.56V123H439.974V116.56H438.854ZM433.044 116.56V123H434.164V116.56H433.044ZM433.702 119.976H435.704C436.115 119.976 436.423 120.065 436.628 120.242C436.833 120.419 436.936 120.671 436.936 120.998C436.936 121.213 436.889 121.399 436.796 121.558C436.703 121.707 436.563 121.824 436.376 121.908C436.199 121.983 435.975 122.02 435.704 122.02H433.702V123H435.704C436.152 123 436.553 122.93 436.908 122.79C437.263 122.65 437.543 122.431 437.748 122.132C437.953 121.833 438.056 121.455 438.056 120.998C438.056 120.307 437.827 119.803 437.37 119.486C436.922 119.159 436.367 118.996 435.704 118.996H433.702V119.976ZM447.458 117.68L447.528 116.07L442.208 121.88L442.138 123.49L447.458 117.68ZM443.258 116.56H442.138V123.49L443.258 121.95V116.56ZM447.528 116.07L446.408 117.61V123H447.528V116.07ZM442.656 113.27C442.656 113.587 442.735 113.9 442.894 114.208C443.062 114.507 443.309 114.754 443.636 114.95C443.972 115.137 444.382 115.23 444.868 115.23C445.362 115.23 445.773 115.137 446.1 114.95C446.426 114.754 446.669 114.507 446.828 114.208C446.996 113.9 447.08 113.587 447.08 113.27H446.086C446.086 113.391 446.053 113.536 445.988 113.704C445.922 113.863 445.801 114.007 445.624 114.138C445.446 114.259 445.194 114.32 444.868 114.32C444.541 114.32 444.289 114.259 444.112 114.138C443.934 114.007 443.813 113.863 443.748 113.704C443.682 113.536 443.65 113.391 443.65 113.27H442.656Z" fill="#1B1A1A"/>
<defs>
<linearGradient id="paint0_linear_103_61973" x1="106.003" y1="169.055" x2="124.876" y2="206.064" gradientUnits="userSpaceOnUse">
<stop offset="0.242929" stop-color="#41A0F2"/>
<stop offset="1" stop-color="#2D85D1"/>
</linearGradient>
<clipPath id="clip0_103_61973">
<rect width="150.922" height="150.922" fill="white" transform="matrix(0.258819 0.965926 0.965926 -0.258819 200 39.0615)"/>
</clipPath>
</defs>
</svg>
