<svg width="72" height="75" viewBox="0 0 72 75" fill="none" xmlns="http://www.w3.org/2000/svg">
<path d="M36.9538 70.4907C39.4374 69.6008 41.8145 68.5466 44.0841 67.3279L46.7407 70.8959L47.1906 71.5001H47.9438H64.9638H67.9837L66.1591 69.0937L57.4011 57.5438C57.855 57.121 58.3032 56.6929 58.7455 56.2596L58.751 56.2542L58.7565 56.2487C61.7975 53.2077 64.505 50.19 66.8759 47.1951L67.7543 46.0856L66.6978 45.1442L57.4058 36.8642L56.202 35.7915L55.2189 37.0695C53.4062 39.426 51.4093 41.8167 49.2272 44.2416C48.8769 44.6209 48.5228 44.9947 48.1647 45.3629L42.4324 37.8031C44.0452 36.7901 45.5772 35.7944 47.0281 34.816C49.8284 32.9696 52.1814 30.9126 54.0669 28.6371C56.049 26.2449 57.219 23.3334 57.6189 19.966C58.089 16.778 57.5451 13.8054 55.9633 11.1135C54.4613 8.39183 52.2181 6.26763 49.2944 4.73683C46.3421 3.1293 42.9319 2.35205 39.1118 2.35205C35.0454 2.35205 31.2428 3.15988 27.7234 4.78821C24.2988 6.33985 21.4223 8.42449 19.123 11.0523L19.1159 11.0604L19.1089 11.0686C16.8518 13.724 15.4668 16.713 14.9949 20.0159L14.9927 20.0317L14.9907 20.0476C14.7224 22.2615 14.8868 24.3775 15.5072 26.3767C16.0983 28.2811 16.9484 30.1406 18.0497 31.9545L18.056 31.9649L18.0625 31.9753C18.4573 32.6023 18.8647 33.2289 19.2849 33.8552C18.4542 34.2076 17.6199 34.5763 16.7819 34.9612C14.4725 35.9884 12.2927 37.2714 10.2438 38.8081C8.14051 40.3856 6.36526 42.2923 4.92201 44.5206C3.43021 46.7616 2.50688 49.4046 2.11385 52.4073C1.52296 56.4917 2.14057 60.1639 4.06655 63.328L4.07656 63.3444L4.08699 63.3606C6.02729 66.3714 8.73121 68.6963 12.1499 70.3399L12.1654 70.3474L12.1811 70.3545C15.6369 71.9194 19.4303 72.7237 23.5404 72.7879L23.5521 72.7881H23.5638C28.2669 72.7881 32.7336 72.025 36.9538 70.4907ZM34.6876 27.2057C34.5884 27.2624 34.4889 27.3189 34.3891 27.3751C33.8276 26.5061 33.3813 25.6788 33.0436 24.8928C32.5984 23.7993 32.4863 22.7474 32.6733 21.7052C32.8208 20.9758 33.0832 20.3404 33.4526 19.7831C33.8693 19.1845 34.3975 18.6995 35.0527 18.3215C35.7108 17.9749 36.4415 17.8151 37.2806 17.8617L37.3222 17.8641H37.3638C38.2525 17.8641 38.8029 18.061 39.1496 18.3132L39.1743 18.3312L39.1998 18.3481C39.6874 18.6732 40.0047 19.0735 40.1958 19.5705L40.2218 19.6381L40.2542 19.7029C40.4974 20.1892 40.5947 20.6713 40.5633 21.1738C40.4249 22.1056 39.9216 23.093 38.8792 24.1354C37.7674 25.2472 36.3831 26.2701 34.7072 27.1947L34.6974 27.2001L34.6876 27.2057ZM27.5755 45.1558L34.9226 55.0234C34.8673 55.0472 34.8119 55.0708 34.7564 55.0942C32.1841 56.1803 29.6454 56.6535 27.1264 56.5415L27.1264 56.5415L27.1154 56.5411C25.6244 56.4859 24.4917 56.1854 23.6483 55.7168C22.7743 55.2313 22.2142 54.6462 21.8774 53.981C21.5353 53.2454 21.4075 52.393 21.5498 51.3734C21.8072 49.9041 22.4234 48.7841 23.3713 47.931L23.3863 47.9175L23.401 47.9036C24.4964 46.8629 25.8285 45.9694 27.4155 45.2326L27.4258 45.2278L27.436 45.2229C27.4824 45.2004 27.529 45.1781 27.5755 45.1558Z" stroke="#1B1A1A" stroke-width="3"/>
</svg>
