<svg width="29" height="29" viewBox="0 0 29 29" fill="none" xmlns="http://www.w3.org/2000/svg">
<path fill-rule="evenodd" clip-rule="evenodd" d="M24.3368 4.66289C23.3523 3.67867 22.0172 3.12576 20.625 3.12576C19.2329 3.12576 17.8978 3.67867 16.9133 4.66289L4.6633 16.9129C3.70673 17.9028 3.17725 19.2289 3.18888 20.6054C3.20052 21.9819 3.75235 23.2988 4.72551 24.2725C5.69867 25.2461 7.01531 25.7985 8.39184 25.8108C9.76837 25.8231 11.0947 25.2942 12.085 24.3381H12.0868L12.9565 23.4631C13.2033 23.2231 13.5344 23.0896 13.8786 23.0914C14.2228 23.0932 14.5526 23.2302 14.7968 23.4728C15.041 23.7154 15.1801 24.0442 15.1842 24.3884C15.1882 24.7326 15.0569 25.0646 14.8185 25.3129L13.947 26.1896L13.9435 26.1931C12.4667 27.67 10.4636 28.4997 8.37505 28.4997C6.28646 28.4997 4.28341 27.67 2.80655 26.1931C1.32969 24.7163 0.5 22.7132 0.5 20.6246C0.5 18.5361 1.32969 16.533 2.80655 15.0561L15.0565 2.80614C16.5325 1.32836 18.535 0.497408 20.6236 0.496095C22.7122 0.494783 24.7158 1.32321 26.1935 2.79914C27.6713 4.27507 28.5023 6.2776 28.5036 8.36619C28.5049 10.4548 27.6765 12.4584 26.2006 13.9361L20.1543 20.1539C19.7321 20.5991 19.2251 20.9552 18.663 21.2013C18.101 21.4473 17.4954 21.5783 16.8819 21.5864C16.2684 21.5946 15.6595 21.4797 15.0911 21.2487C14.5228 21.0177 14.0064 20.6752 13.5726 20.2413C13.1388 19.8075 12.7962 19.2912 12.5652 18.7228C12.3342 18.1544 12.2194 17.5455 12.2275 16.932C12.2357 16.3186 12.3666 15.7129 12.6127 15.1509C12.8587 14.5889 13.2148 14.0818 13.66 13.6596L19.6975 7.62039C19.8186 7.49498 19.9633 7.39492 20.1234 7.32606C20.2835 7.2572 20.4557 7.22091 20.63 7.21932C20.8043 7.21772 20.9771 7.25085 21.1385 7.31677C21.2998 7.38268 21.4464 7.48007 21.5697 7.60325C21.693 7.72642 21.7905 7.87292 21.8566 8.03419C21.9226 8.19546 21.9559 8.36827 21.9545 8.54255C21.9531 8.71682 21.9169 8.88906 21.8482 9.04922C21.7795 9.20939 21.6796 9.35426 21.5543 9.47539L15.5168 15.5146C15.3335 15.697 15.188 15.9137 15.0884 16.1523C14.9889 16.3909 14.9373 16.6468 14.9367 16.9053C14.936 17.1639 14.9863 17.42 15.0846 17.6591C15.183 17.8982 15.3274 18.1156 15.5098 18.2989C15.6922 18.4822 15.9088 18.6277 16.1474 18.7273C16.3861 18.8268 16.6419 18.8784 16.9005 18.879C17.159 18.8797 17.4152 18.8294 17.6543 18.7311C17.8934 18.6327 18.1108 18.4883 18.294 18.3059L24.3385 12.0881C25.3228 11.1036 25.8757 9.76851 25.8757 8.37639C25.8757 6.98428 25.3228 5.64916 24.3385 4.66464L24.3368 4.66289Z" fill="#D2113A"/>
</svg>
