<svg width="53" height="105" viewBox="0 0 53 105" fill="none" xmlns="http://www.w3.org/2000/svg">
<path d="M0.254079 101.934C0.154479 102.192 0.282525 102.481 0.540079 102.581L4.73717 104.204C4.99473 104.303 5.28426 104.175 5.38386 103.918C5.48346 103.66 5.35541 103.371 5.09786 103.271L1.36711 101.828L2.80985 98.0977C2.90945 97.8401 2.78141 97.5506 2.52385 97.451C2.2663 97.3514 1.97677 97.4794 1.87717 97.737L0.254079 101.934ZM0.922657 102.572C1.2299 102.436 1.53558 102.299 1.83972 102.162L1.42821 101.251C1.12643 101.387 0.823089 101.522 0.518189 101.657L0.922657 102.572ZM3.64594 101.329C4.24182 101.049 4.83154 100.766 5.41512 100.48L4.97523 99.5821C4.39641 99.8657 3.81143 100.146 3.22028 100.425L3.64594 101.329ZM7.18783 99.5939C7.78138 99.291 8.36835 98.9852 8.94876 98.6766L8.47928 97.7936C7.90386 98.0996 7.32187 98.4028 6.73329 98.7031L7.18783 99.5939ZM10.6704 97.7423C11.2553 97.4183 11.8334 97.0914 12.4045 96.7617L11.9045 95.8957C11.3385 96.2224 10.7657 96.5464 10.1859 96.8675L10.6704 97.7423ZM14.1095 95.7566C14.6734 95.4173 15.2302 95.0751 15.7801 94.7301L15.2487 93.883C14.704 94.2247 14.1524 94.5636 13.5939 94.8998L14.1095 95.7566ZM17.462 93.6523C18.0152 93.2901 18.5611 92.9251 19.0997 92.5573L18.5357 91.7315C18.0025 92.0956 17.4621 92.457 16.9143 92.8156L17.462 93.6523ZM20.7233 91.4242C21.266 91.0372 21.8009 90.6474 22.3281 90.2547L21.7308 89.4527C21.2092 89.8412 20.6799 90.227 20.1428 90.61L20.7233 91.4242ZM23.8877 89.0674C24.4172 88.6553 24.9386 88.2403 25.4518 87.8226L24.8204 87.047C24.313 87.4602 23.7974 87.8706 23.2735 88.2782L23.8877 89.0674ZM26.9669 86.5609C27.4739 86.129 27.9724 85.6944 28.4625 85.2571L27.7968 84.5109C27.3124 84.9431 26.8196 85.3727 26.3185 85.7996L26.9669 86.5609ZM29.9263 83.9199C30.4097 83.4677 30.8845 83.0129 31.3507 82.5554L30.6503 81.8417C30.1898 82.2935 29.7208 82.7428 29.2432 83.1896L29.9263 83.9199ZM32.7547 81.1433C33.2137 80.6701 33.6638 80.1942 34.1051 79.7159L33.3702 79.0378C32.9345 79.51 32.4901 79.9798 32.0368 80.4471L32.7547 81.1433ZM35.4406 78.2303C35.8765 77.7326 36.3031 77.2324 36.7204 76.73L35.9512 76.091C35.5394 76.5868 35.1185 77.0803 34.6883 77.5715L35.4406 78.2303ZM37.9718 75.1815C38.3817 74.6602 38.7819 74.1365 39.1725 73.6107L38.3697 73.0144C37.9846 73.5328 37.5899 74.0493 37.1856 74.5635L37.9718 75.1815ZM40.335 71.9995C40.7161 71.4555 41.0871 70.9094 41.4483 70.3614L40.6133 69.8111C40.2574 70.3512 39.8916 70.8895 39.516 71.4258L40.335 71.9995ZM42.5166 68.6886C42.8662 68.1233 43.2055 67.5562 43.5346 66.9874L42.6691 66.4865C42.3449 67.0468 42.0106 67.6056 41.6661 68.1626L42.5166 68.6886ZM44.5029 65.2553C44.8186 64.6703 45.1237 64.0838 45.4184 63.4959L44.5244 63.0478C44.2342 63.6266 43.9337 64.2043 43.6229 64.7804L44.5029 65.2553ZM46.2807 61.7081C46.5602 61.1053 46.8289 60.5012 47.087 59.8962L46.1672 59.5039C45.9131 60.0994 45.6486 60.694 45.3735 61.2875L46.2807 61.7081ZM47.8376 58.0574C48.0789 57.4389 48.3092 56.8195 48.5288 56.1995L47.5861 55.8657C47.3701 56.4758 47.1434 57.0853 46.906 57.694L47.8376 58.0574ZM49.1623 54.3154C49.3637 53.6835 49.5539 53.0511 49.7333 52.4186L48.7712 52.1458C48.5948 52.768 48.4076 53.3901 48.2095 54.0119L49.1623 54.3154ZM50.2449 50.496C50.4049 49.8531 50.5537 49.2103 50.6915 48.5677L49.7138 48.358C49.5782 48.9899 49.4319 49.6222 49.2745 50.2546L50.2449 50.496ZM51.0772 46.6141C51.1948 45.9618 51.3012 45.31 51.3966 44.659L50.4072 44.514C50.3134 45.1542 50.2087 45.7951 50.093 46.4366L51.0772 46.6141ZM51.6523 42.6859C51.7266 42.0265 51.7897 41.3682 51.8417 40.7112L50.8448 40.6323C50.7937 41.2783 50.7317 41.9255 50.6586 42.5739L51.6523 42.6859ZM51.9653 38.7285C51.9955 38.0649 52.0144 37.4029 52.0223 36.7429L51.0224 36.731C51.0146 37.3798 50.996 38.0306 50.9663 38.683L51.9653 38.7285ZM52.0126 34.7592C51.9981 34.0944 51.9724 33.4319 51.9356 32.772L50.9372 32.8276C50.9733 33.4763 50.9986 34.1275 51.0128 34.7809L52.0126 34.7592ZM51.7919 30.7948C51.7324 30.1324 51.6618 29.4729 51.5802 28.8165L50.5878 28.9399C50.668 29.5849 50.7374 30.2331 50.7959 30.8842L51.7919 30.7948ZM51.3016 26.8512C51.1972 26.1955 51.0818 25.5434 50.9556 24.8951L49.974 25.0863C50.098 25.7233 50.2115 26.3641 50.3141 27.0085L51.3016 26.8512ZM50.542 22.9512C50.3929 22.3053 50.2329 21.6636 50.0623 21.0265L49.0963 21.2852C49.2639 21.9111 49.4211 22.5415 49.5677 23.1762L50.542 22.9512ZM49.514 19.1138C49.32 18.4794 49.1154 17.8499 48.9002 17.2258L47.9548 17.5516C48.1661 18.1647 48.3672 18.783 48.5577 19.4062L49.514 19.1138ZM48.2193 15.3586C47.9807 14.7387 47.7315 14.1246 47.472 13.5166L46.5523 13.9091C46.8071 14.5061 47.0517 15.1091 47.2861 15.7179L48.2193 15.3586ZM46.6603 11.7057C46.3774 11.1039 46.0841 10.5087 45.7807 9.92037L44.8919 10.3787C45.1897 10.9561 45.4776 11.5404 45.7553 12.1312L46.6603 11.7057ZM44.8377 8.17174C44.5117 7.59321 44.1757 7.02202 43.8298 6.45852L42.9775 6.98169C43.3169 7.53451 43.6466 8.09493 43.9665 8.66262L44.8377 8.17174ZM42.7572 4.78328C42.3888 4.23142 42.0107 3.68772 41.6229 3.15254L40.8131 3.73925C41.1933 4.264 41.5641 4.79718 41.9254 5.33843L42.7572 4.78328ZM40.424 1.5639C40.2194 1.30356 40.0124 1.04546 39.8031 0.78966L39.0292 1.42295C39.2343 1.67366 39.4372 1.92662 39.6377 2.18181L40.424 1.5639Z" fill="#1B1A1A"/>
</svg>
