<svg width="98" height="69" viewBox="0 0 98 69" fill="none" xmlns="http://www.w3.org/2000/svg">
<path d="M4.12217 68.142C3.90372 68.3109 3.58969 68.2708 3.42077 68.0523L0.667923 64.4926C0.498998 64.2741 0.539136 63.9601 0.757578 63.7912C0.976028 63.6223 1.29006 63.6624 1.45898 63.8809L3.90595 67.0451L7.07018 64.5981C7.28862 64.4292 7.60265 64.4693 7.77158 64.6878C7.94051 64.9062 7.90036 65.2202 7.68192 65.3892L4.12217 68.142ZM3.32033 67.6831C3.36401 67.3414 3.40906 67.0009 3.45548 66.6616L4.44625 66.7972C4.40023 67.1335 4.35557 67.4711 4.31226 67.8099L3.32033 67.6831ZM3.75041 64.6407C3.85491 63.9672 3.96494 63.2987 4.08047 62.6352L5.06565 62.8068C4.95118 63.4642 4.84214 64.1266 4.73858 64.794L3.75041 64.6407ZM4.45109 60.6209C4.58061 59.9533 4.71586 59.2908 4.8568 58.6336L5.83457 58.8433C5.69501 59.4941 5.56108 60.1501 5.43279 60.8113L4.45109 60.6209ZM5.30769 56.6313C5.46395 55.9693 5.62616 55.3129 5.79429 54.662L6.76252 54.9121C6.59615 55.5561 6.43562 56.2058 6.28094 56.861L5.30769 56.6313ZM6.32938 52.6799C6.51415 52.0242 6.70511 51.3744 6.90223 50.7305L7.85843 51.0232C7.66351 51.6599 7.47465 52.3026 7.29189 52.9511L6.32938 52.6799ZM7.52533 48.7763C7.74005 48.1292 7.96118 47.4883 8.18874 46.8536L9.13007 47.191C8.90523 47.8182 8.68668 48.4516 8.47445 49.0912L7.52533 48.7763ZM8.90444 44.932C9.15042 44.2959 9.40307 43.6663 9.66233 43.0433L10.5856 43.4274C10.3296 44.0426 10.0801 44.6644 9.83714 45.2927L8.90444 44.932ZM10.4749 41.1602C10.7533 40.5378 11.0386 39.9221 11.3307 39.3133L12.2323 39.7459C11.9441 40.3466 11.6626 40.9541 11.3878 41.5685L10.4749 41.1602ZM12.2438 37.4758C12.5558 36.8694 12.8748 36.2701 13.2009 35.6781L14.0768 36.1604C13.7554 36.7442 13.4408 37.3352 13.1331 37.9333L12.2438 37.4758ZM14.2167 33.8951C14.5633 33.3069 14.9172 32.7262 15.2783 32.153L16.1244 32.686C15.7686 33.2508 15.4199 33.8231 15.0782 34.4028L14.2167 33.8951ZM16.3968 30.4356C16.7784 29.8687 17.1675 29.3097 17.5638 28.7584L18.3757 29.3422C17.9854 29.8851 17.6023 30.4357 17.2264 30.9941L16.3968 30.4356ZM18.785 27.1151C19.2014 26.5729 19.6252 26.0388 20.0565 25.5127L20.8298 26.1467C20.4053 26.6645 19.9881 27.1904 19.5781 27.7242L18.785 27.1151ZM21.379 23.9517C21.8292 23.4374 22.287 22.9313 22.7522 22.4335L23.4828 23.1164C23.025 23.6062 22.5745 24.1042 22.1314 24.6104L21.379 23.9517ZM24.1733 20.9624C24.6559 20.4789 25.146 20.0039 25.6436 19.5374L26.3276 20.2669C25.8381 20.7259 25.3558 21.1932 24.881 21.6689L24.1733 20.9624ZM27.1593 18.1627C27.6721 17.7127 28.1924 17.2714 28.72 16.8386L29.3543 17.6117C28.8352 18.0375 28.3233 18.4718 27.8187 18.9144L27.1593 18.1627ZM30.3237 15.5668C30.8646 15.1522 31.4128 14.7462 31.9682 14.3488L32.5501 15.162C32.0036 15.5531 31.4642 15.9526 30.932 16.3605L30.3237 15.5668ZM33.6512 13.1854C34.2179 12.8072 34.7916 12.4376 35.3724 12.0765L35.9004 12.9257C35.3288 13.2811 34.7641 13.645 34.2064 14.0172L33.6512 13.1854ZM37.1253 11.025C37.7152 10.6838 38.3119 10.351 38.9154 10.0268L39.3886 10.9077C38.7943 11.227 38.2068 11.5546 37.6261 11.8906L37.1253 11.025ZM40.7283 9.08855C41.3381 8.78474 41.9545 8.48927 42.5775 8.20216L42.996 9.11034C42.3822 9.39324 41.775 9.68434 41.1743 9.98361L40.7283 9.08855ZM44.4421 7.37603C45.0681 7.10966 45.7004 6.85141 46.339 6.60133L46.7036 7.53247C46.074 7.77904 45.4507 8.03363 44.8337 8.29619L44.4421 7.37603ZM48.249 5.88432C48.8883 5.65453 49.5336 5.43264 50.1848 5.21868L50.497 6.16871C49.8544 6.37983 49.2178 6.59873 48.5873 6.82537L48.249 5.88432ZM52.1321 4.60781C52.7822 4.41339 53.4379 4.2266 54.0992 4.04747L54.3606 5.0127C53.7076 5.18957 53.0603 5.37397 52.4187 5.56588L52.1321 4.60781ZM56.0759 3.53901C56.7345 3.37844 57.3984 3.22524 58.0677 3.07944L58.2805 4.05652C57.6192 4.20059 56.9633 4.35194 56.3128 4.51055L56.0759 3.53901ZM60.0666 2.66901C60.7319 2.54062 61.4022 2.41935 62.0776 2.30519L62.2443 3.2912C61.5764 3.40408 60.9137 3.52399 60.2561 3.65089L60.0666 2.66901ZM64.092 1.98801C64.7626 1.89009 65.4379 1.799 66.118 1.71477L66.2409 2.70718C65.568 2.79053 64.8998 2.88065 64.2365 2.97752L64.092 1.98801ZM68.1419 1.4858C68.8167 1.4166 69.496 1.35399 70.1798 1.29798L70.2614 2.29465C69.5843 2.3501 68.9119 2.41209 68.2439 2.48058L68.1419 1.4858ZM72.2077 1.15208C72.886 1.10995 73.5685 1.07418 74.2553 1.04477L74.298 2.04385C73.6176 2.07299 72.9415 2.10843 72.2697 2.15015L72.2077 1.15208ZM76.2826 0.97676C76.9624 0.960191 77.6462 0.949726 78.3341 0.945381L78.3404 1.94536C77.6585 1.94966 76.9807 1.96004 76.3069 1.97646L76.2826 0.97676ZM80.3609 0.950187C81.0389 0.95762 81.7207 0.970878 82.4062 0.989979L82.3783 1.98959C81.6984 1.97065 81.0223 1.9575 80.35 1.95013L80.3609 0.950187ZM84.4387 1.06326C85.1136 1.09307 85.7921 1.12843 86.4742 1.16936L86.4143 2.16757C85.7374 2.12694 85.0642 2.09186 84.3946 2.06228L84.4387 1.06326ZM88.5127 1.30751C89.1837 1.35814 89.858 1.41406 90.5355 1.47528L90.4455 2.47123C89.7728 2.41044 89.1035 2.35493 88.4375 2.30468L88.5127 1.30751ZM92.5781 1.67489C93.2452 1.74494 93.9153 1.82004 94.5886 1.90022L94.4703 2.8932C93.8016 2.81357 93.1361 2.73899 92.4737 2.66942L92.5781 1.67489ZM96.6148 2.15558C96.954 2.20067 97.294 2.24702 97.6348 2.29464L97.4964 3.28502C97.1578 3.2377 96.82 3.19165 96.483 3.14686L96.6148 2.15558Z" fill="#1B1A1A"/>
</svg>
