<svg width="26" height="26" viewBox="0 0 26 26" fill="none" xmlns="http://www.w3.org/2000/svg">
<path d="M26 13C26 10.4288 25.2376 7.91543 23.8091 5.77759C22.3806 3.63975 20.3503 1.97351 17.9749 0.989572C15.5994 0.00563224 12.9856 -0.251811 10.4638 0.249797C7.94207 0.751404 5.62569 1.98953 3.80761 3.80762C1.98953 5.6257 0.7514 7.94208 0.249792 10.4638C-0.251816 12.9856 0.005626 15.5994 0.989566 17.9749C1.97351 20.3503 3.63975 22.3807 5.77759 23.8091C7.91543 25.2376 10.4288 26 13 26C16.4458 25.9934 19.7485 24.6216 22.1851 22.1851C24.6216 19.7486 25.9934 16.4458 26 13ZM12.2625 17.175L7.7625 12.175C7.59578 11.9894 7.50244 11.7495 7.5 11.5C7.49927 11.3611 7.52784 11.2237 7.58384 11.0966C7.63984 10.9695 7.72202 10.8557 7.825 10.7625C8.02063 10.5835 8.27931 10.4896 8.54419 10.5013C8.80906 10.513 9.05844 10.6295 9.2375 10.825L13 15L16.7625 10.825C16.9432 10.636 17.1907 10.5253 17.452 10.5165C17.7133 10.5078 17.9677 10.6018 18.1605 10.7783C18.3534 10.9548 18.4695 11.1999 18.4839 11.461C18.4983 11.722 18.4098 11.9784 18.2375 12.175L13.7375 17.175C13.6438 17.2773 13.5299 17.359 13.4029 17.4149C13.2759 17.4708 13.1387 17.4997 13 17.4997C12.8613 17.4997 12.7241 17.4708 12.5971 17.4149C12.4701 17.359 12.3562 17.2773 12.2625 17.175Z" fill="#D2113A"/>
</svg>
