<svg width="167" height="56" viewBox="0 0 167 56" fill="none" xmlns="http://www.w3.org/2000/svg">
<path d="M32.8712 15.96L30.0878 11.116L28.2787 7.89596L28.1117 7.55996L26.9148 5.45996L25.718 7.55996L24.7438 9.26796L10.9942 33.152L7.84901 38.612C7.59851 39.032 7.59851 39.564 7.84901 40.012L10.6323 44.884L13.8332 50.512L15.03 48.412L32.899 17.332C33.1217 16.94 33.1217 16.38 32.8712 15.96Z" fill="#D2113A"/>
<path d="M45.9528 38.612L40.3305 28.868L39.9408 28.168H32.1475H29.5311C28.4456 28.168 27.7776 29.344 28.3343 30.268L30.5053 34.02L38.7718 48.412L39.9686 50.512L41.1655 48.412L44.255 42.98L45.9528 40.012C46.2033 39.592 46.2033 39.06 45.9528 38.612Z" fill="#D2113A"/>
<path d="M63.5709 39.7032C63.8771 39.9552 64.0441 40.3192 64.0441 40.7672C64.0441 41.2152 63.8771 41.5792 63.5709 41.8312C63.2648 42.0832 62.8473 42.2232 62.2906 42.2232H61.1494V43.5672H60.7041V39.2832H62.2906C62.8473 39.2832 63.2648 39.4232 63.5709 39.7032ZM63.2369 41.5512C63.4596 41.3552 63.5709 41.1032 63.5709 40.7672C63.5709 40.4312 63.4596 40.1512 63.2369 39.9832C63.0143 39.7872 62.6803 39.7032 62.2628 39.7032H61.1216V41.8312H62.2628C62.7081 41.8312 63.0143 41.7192 63.2369 41.5512Z" fill="#666666"/>
<path d="M68.6642 43.2035V43.5955H65.6582V39.3115H68.5807V39.7035H66.1314V41.2155H68.3302V41.6075H66.1314V43.2035H68.6642Z" fill="#666666"/>
<path d="M73.3126 43.5672L72.3385 42.1952C72.2271 42.1952 72.1158 42.2232 72.0045 42.2232H70.8633V43.5672H70.418V39.2832H72.0045C72.5333 39.2832 72.9786 39.4232 73.2848 39.6752C73.591 39.9272 73.758 40.2912 73.758 40.7392C73.758 41.0752 73.6745 41.3552 73.5075 41.5792C73.3405 41.8032 73.09 41.9712 72.7838 42.0832L73.8136 43.5392L73.3126 43.5672ZM72.9508 41.5512C73.1735 41.3552 73.2848 41.1032 73.2848 40.7672C73.2848 40.4312 73.1735 40.1512 72.9508 39.9832C72.7281 39.7872 72.3941 39.7032 71.9766 39.7032H70.8633V41.8592H72.0045C72.3941 41.8312 72.7281 41.7192 72.9508 41.5512Z" fill="#666666"/>
<path d="M75.9014 39.7035V41.3835H78.1002V41.7755H75.9014V43.5955H75.4561V39.3115H78.3786V39.7035H75.9014Z" fill="#666666"/>
<path d="M80.6324 43.3439C80.2984 43.1479 80.02 42.8959 79.8252 42.5599C79.6304 42.2239 79.5469 41.8599 79.5469 41.4399C79.5469 41.0199 79.6304 40.6559 79.8252 40.3199C80.02 39.9839 80.2984 39.7319 80.6324 39.5359C80.9664 39.3399 81.356 39.2559 81.7735 39.2559C82.191 39.2559 82.5807 39.3399 82.9147 39.5359C83.2487 39.7319 83.527 39.9839 83.7219 40.3199C83.9167 40.6559 84.0002 41.0199 84.0002 41.4399C84.0002 41.8599 83.9167 42.2239 83.7219 42.5599C83.527 42.8959 83.2487 43.1479 82.9147 43.3439C82.5807 43.5399 82.191 43.6239 81.7735 43.6239C81.356 43.6239 80.9664 43.5119 80.6324 43.3439ZM82.692 42.9799C82.9704 42.8399 83.1652 42.6159 83.3322 42.3359C83.4992 42.0559 83.5549 41.7759 83.5549 41.4399C83.5549 41.1039 83.4714 40.7959 83.3322 40.5439C83.1652 40.2639 82.9704 40.0679 82.692 39.8999C82.4137 39.7599 82.1075 39.6759 81.7735 39.6759C81.4395 39.6759 81.1334 39.7599 80.855 39.8999C80.5767 40.0399 80.354 40.2639 80.2149 40.5439C80.0479 40.8239 79.9922 41.1039 79.9922 41.4399C79.9922 41.7759 80.0757 42.0839 80.2149 42.3359C80.3819 42.6159 80.5767 42.8119 80.855 42.9799C81.1334 43.1199 81.4395 43.2039 81.7735 43.2039C82.1075 43.2039 82.4137 43.1199 82.692 42.9799Z" fill="#666666"/>
<path d="M88.5929 43.5672L87.6187 42.1952C87.5074 42.1952 87.3961 42.2232 87.2847 42.2232H86.1436V43.5672H85.6982V39.2832H87.2847C87.8136 39.2832 88.2589 39.4232 88.5651 39.6752C88.8712 39.9272 89.0382 40.2912 89.0382 40.7392C89.0382 41.0752 88.9547 41.3552 88.7877 41.5792C88.6207 41.8032 88.3702 41.9712 88.0641 42.0832L89.0939 43.5392L88.5929 43.5672ZM88.2311 41.5512C88.4537 41.3552 88.5651 41.1032 88.5651 40.7672C88.5651 40.4312 88.4537 40.1512 88.2311 39.9832C88.0084 39.7872 87.6744 39.7032 87.2569 39.7032H86.1157V41.8592H87.2569C87.6744 41.8312 88.0084 41.7192 88.2311 41.5512Z" fill="#666666"/>
<path d="M95.1613 39.2832V43.5672H94.7438V40.1512L93.0738 43.0352H92.8512L91.1812 40.1792V43.5672H90.7637V39.2832H91.1255L92.9625 42.4472L94.7995 39.2832H95.1613Z" fill="#666666"/>
<path d="M99.8937 42.4192H97.5279L97.0269 43.5672H96.5537L98.502 39.2832H98.9474L100.896 43.5672H100.423L99.8937 42.4192ZM99.7267 42.0832L98.6969 39.7872L97.667 42.0832H99.7267Z" fill="#666666"/>
<path d="M105.794 39.2832V43.5672H105.432L102.704 40.0952V43.5672H102.259V39.2832H102.621L105.348 42.7552V39.2832H105.794Z" fill="#666666"/>
<path d="M108.549 43.3439C108.215 43.1479 107.937 42.8959 107.742 42.5599C107.547 42.2239 107.464 41.8599 107.464 41.4399C107.464 41.0199 107.547 40.6559 107.742 40.3199C107.937 39.9839 108.188 39.7319 108.549 39.5359C108.883 39.3399 109.273 39.2559 109.691 39.2559C109.997 39.2559 110.303 39.3119 110.553 39.4239C110.832 39.5359 111.054 39.6759 111.221 39.8999L110.943 40.1799C110.609 39.8439 110.192 39.6759 109.691 39.6759C109.357 39.6759 109.05 39.7599 108.772 39.8999C108.494 40.0679 108.271 40.2639 108.132 40.5439C107.965 40.8239 107.909 41.1039 107.909 41.4399C107.909 41.7759 107.993 42.0839 108.132 42.3359C108.299 42.6159 108.494 42.8119 108.772 42.9799C109.05 43.1479 109.357 43.2039 109.691 43.2039C110.192 43.2039 110.609 43.0359 110.943 42.6999L111.221 42.9799C111.027 43.1759 110.804 43.3439 110.526 43.4559C110.247 43.5679 109.969 43.6239 109.635 43.6239C109.273 43.6239 108.883 43.5119 108.549 43.3439Z" fill="#666666"/>
<path d="M115.898 43.2035V43.5955H112.892V39.3115H115.814V39.7035H113.337V41.2155H115.536V41.6075H113.337V43.2035H115.898Z" fill="#666666"/>
<path d="M124.303 39.2832V43.5672H123.885V40.1512L122.215 43.0352H121.993L120.323 40.1792V43.5672H119.905V39.2832H120.267L122.104 42.4472L123.941 39.2832H124.303Z" fill="#666666"/>
<path d="M129.007 42.4192H126.641L126.14 43.5672H125.667L127.615 39.2832H128.061L130.009 43.5672H129.536L129.007 42.4192ZM128.84 42.0832L127.81 39.7872L126.78 42.0832H128.84Z" fill="#666666"/>
<path d="M134.268 43.5672L133.294 42.1952C133.182 42.1952 133.071 42.2232 132.96 42.2232H131.818V43.5672H131.373V39.2832H132.96C133.488 39.2832 133.934 39.4232 134.24 39.6752C134.546 39.9272 134.713 40.2912 134.713 40.7392C134.713 41.0752 134.63 41.3552 134.463 41.5792C134.296 41.8032 134.045 41.9712 133.739 42.0832L134.769 43.5392L134.268 43.5672ZM133.906 41.5512C134.129 41.3552 134.24 41.1032 134.24 40.7672C134.24 40.4312 134.129 40.1512 133.906 39.9832C133.683 39.7872 133.349 39.7032 132.932 39.7032H131.818V41.8592H132.96C133.377 41.8312 133.683 41.7192 133.906 41.5512Z" fill="#666666"/>
<path d="M137.747 41.5512L136.884 42.4472V43.5672H136.438V39.2832H136.884V41.8592L139.389 39.2832H139.918L138.081 41.2152L140.057 43.5672H139.528L137.747 41.5512Z" fill="#666666"/>
<path d="M144.427 43.2035V43.5955H141.421V39.3115H144.343V39.7035H141.866V41.2155H144.065V41.6075H141.866V43.2035H144.427Z" fill="#666666"/>
<path d="M146.987 39.7035H145.484V39.3115H148.936V39.7035H147.433V43.5955H146.987V39.7035Z" fill="#666666"/>
<path d="M150.3 39.2832H150.745V43.5672H150.3V39.2832Z" fill="#666666"/>
<path d="M156.367 39.2832V43.5672H156.005L153.277 40.0952V43.5672H152.832V39.2832H153.194L155.922 42.7552V39.2832H156.367Z" fill="#666666"/>
<path d="M161.405 41.4395H161.822V43.0635C161.628 43.2315 161.377 43.3715 161.127 43.4555C160.876 43.5395 160.57 43.5955 160.264 43.5955C159.846 43.5955 159.457 43.5115 159.123 43.3155C158.789 43.1195 158.51 42.8675 158.315 42.5315C158.121 42.1955 158.037 41.8315 158.037 41.4115C158.037 40.9915 158.121 40.6275 158.315 40.2915C158.51 39.9555 158.789 39.7035 159.123 39.5075C159.457 39.3115 159.846 39.2275 160.264 39.2275C160.598 39.2275 160.876 39.2835 161.154 39.3955C161.433 39.5075 161.655 39.6475 161.85 39.8435L161.572 40.1235C161.238 39.7875 160.82 39.6195 160.292 39.6195C159.958 39.6195 159.624 39.7035 159.345 39.8435C159.067 39.9835 158.844 40.2075 158.705 40.4875C158.538 40.7675 158.455 41.0475 158.455 41.3835C158.455 41.7195 158.538 42.0275 158.705 42.2795C158.872 42.5595 159.067 42.7555 159.345 42.9235C159.624 43.0915 159.93 43.1475 160.264 43.1475C160.709 43.1475 161.071 43.0355 161.377 42.8115L161.405 41.4395Z" fill="#666666"/>
<path d="M73.5358 27.8603H63.8498L61.8458 32.4523H59.1738L67.4403 14.1123H70.0288L78.2953 32.4523H75.5677L73.5358 27.8603ZM72.6452 25.7603L68.6928 16.8003L64.7683 25.7603H72.6452Z" fill="#333333"/>
<path d="M82.5537 14.1123H90.2357C92.1562 14.1123 93.8819 14.5043 95.357 15.2603C96.86 16.0163 98.0012 17.1083 98.8362 18.5083C99.6712 19.9083 100.061 21.4763 100.061 23.2963C100.061 25.0883 99.6434 26.6843 98.8362 28.0843C98.029 29.4843 96.86 30.5483 95.357 31.3323C93.854 32.0883 92.1562 32.4803 90.2357 32.4803H82.5537V14.1123ZM90.0687 30.1843C91.5439 30.1843 92.852 29.9043 93.9654 29.3163C95.0787 28.7283 95.9415 27.9443 96.5539 26.8803C97.1662 25.8443 97.4724 24.6403 97.4724 23.2683C97.4724 21.8963 97.1662 20.6923 96.5539 19.6563C95.9415 18.6203 95.0787 17.8083 93.9654 17.2203C92.852 16.6323 91.5439 16.3523 90.0687 16.3523H85.17V30.1283H90.0687V30.1843Z" fill="#333333"/>
<path d="M130.789 14.1123L124.694 32.4523H121.966L116.984 17.8083L112.002 32.4523H109.219L103.123 14.1123H105.795L110.722 29.0083L115.843 14.1123H118.237L123.274 29.0923L128.312 14.1123H130.789Z" fill="#333333"/>
<path d="M135.549 14.1123H138.165V32.4523H135.549V14.1123Z" fill="#333333"/>
<path d="M160.849 14.1123V32.4523H158.706L147.768 18.7883V32.4523H145.151V14.1123H147.295L158.233 27.7763V14.1123H160.849Z" fill="#333333"/>
</svg>
