<svg width="9" height="14" viewBox="0 0 9 14" fill="none" xmlns="http://www.w3.org/2000/svg">
<path d="M4.5 6.66992C4.0856 6.66992 3.68817 6.5053 3.39515 6.21228C3.10212 5.91925 2.9375 5.52182 2.9375 5.10742C2.9375 4.69302 3.10212 4.29559 3.39515 4.00257C3.68817 3.70954 4.0856 3.54492 4.5 3.54492C4.9144 3.54492 5.31183 3.70954 5.60486 4.00257C5.89788 4.29559 6.0625 4.69302 6.0625 5.10742C6.0625 5.31261 6.02209 5.51579 5.94356 5.70536C5.86504 5.89494 5.74995 6.06718 5.60486 6.21228C5.45976 6.35737 5.28752 6.47246 5.09794 6.55098C4.90837 6.62951 4.70519 6.66992 4.5 6.66992ZM4.5 0.732422C3.33968 0.732422 2.22688 1.19336 1.40641 2.01383C0.585936 2.8343 0.125 3.9471 0.125 5.10742C0.125 8.38867 4.5 13.2324 4.5 13.2324C4.5 13.2324 8.875 8.38867 8.875 5.10742C8.875 3.9471 8.41407 2.8343 7.59359 2.01383C6.77312 1.19336 5.66032 0.732422 4.5 0.732422Z" fill="#D2113A"/>
</svg>
