<svg width="18" height="18" viewBox="0 0 18 18" xmlns="http://www.w3.org/2000/svg">
<path d="M17.9025 9.00709C17.9026 8.87612 17.8769 8.74641 17.8269 8.62538C17.7768 8.50436 17.7034 8.39439 17.6108 8.30179C17.5181 8.20918 17.4082 8.13574 17.2872 8.08568C17.1661 8.03563 17.0364 8.00993 16.9055 8.01006L9.99702 8.00299L9.99702 1.08749C9.99702 0.95656 9.97123 0.826911 9.92113 0.705947C9.87102 0.584983 9.79758 0.475072 9.705 0.38249C9.61242 0.289908 9.50251 0.216468 9.38154 0.166363C9.26058 0.116258 9.13093 0.0904693 9 0.0904693C8.86907 0.0904693 8.73942 0.116258 8.61846 0.166363C8.49749 0.216468 8.38758 0.289908 8.295 0.38249C8.20242 0.475072 8.12898 0.584983 8.07887 0.705947C8.02877 0.826911 8.00298 0.95656 8.00298 1.08749L8.00298 8.00299L1.08748 8.00299C0.956545 8.00299 0.826896 8.02878 0.705932 8.07889C0.584968 8.12899 0.475058 8.20243 0.382476 8.29501C0.289894 8.3876 0.216453 8.49751 0.166348 8.61847C0.116244 8.73944 0.0904553 8.86908 0.0904555 9.00001C0.0904556 9.13094 0.116244 9.26059 0.166349 9.38156C0.216454 9.50252 0.289894 9.61243 0.382476 9.70501C0.475058 9.7976 0.584968 9.87104 0.705933 9.92114C0.826897 9.97125 0.956546 9.99703 1.08748 9.99703L8.00298 9.99703L8.00298 16.9125C8.00298 17.0435 8.02877 17.1731 8.07887 17.2941C8.12898 17.415 8.20242 17.525 8.295 17.6175C8.38758 17.7101 8.49749 17.7836 8.61846 17.8337C8.73942 17.8838 8.86907 17.9096 9 17.9096C9.13093 17.9096 9.26058 17.8838 9.38154 17.8337C9.50251 17.7836 9.61242 17.7101 9.705 17.6175C9.79758 17.525 9.87102 17.415 9.92113 17.2941C9.97123 17.1731 9.99702 17.0435 9.99702 16.9125L9.99702 9.99703L16.9125 9.99703C17.4499 9.99703 17.9025 9.54449 17.9025 9.00709Z"/>
</svg>
