<svg width="13" height="13" viewBox="0 0 13 13" fill="none" xmlns="http://www.w3.org/2000/svg">
<path d="M5.40723 7.59316L8.46523 4.53516" stroke="#D2113A" stroke-width="1.5" stroke-linecap="round"/>
<path d="M11.5641 0.90788C11.6372 0.88858 11.714 0.888785 11.787 0.908474C11.86 0.928163 11.9265 0.966647 11.9799 1.02008C12.0334 1.07352 12.0718 1.14004 12.0915 1.213C12.1112 1.28596 12.1114 1.36281 12.0921 1.43588L9.41513 11.6109C9.3958 11.6845 9.35737 11.7517 9.30372 11.8056C9.25008 11.8596 9.18314 11.8985 9.10966 11.9183C9.03618 11.938 8.95878 11.9381 8.88529 11.9183C8.81179 11.8986 8.74482 11.8598 8.69113 11.8059L1.19413 4.30988C1.1402 4.2562 1.1014 4.18922 1.08167 4.11573C1.06194 4.04223 1.06197 3.96483 1.08176 3.89135C1.10155 3.81788 1.1404 3.75093 1.19437 3.69729C1.24835 3.64365 1.31553 3.60521 1.38913 3.58588L11.5641 0.90788Z" stroke="#1B1A1A" stroke-width="1.5"/>
</svg>
