<svg width="116" height="118" viewBox="0 0 116 118" fill="none" xmlns="http://www.w3.org/2000/svg">
<path d="M115.736 5.05782C116.004 4.3877 116.07 3.65359 115.925 2.9465C115.78 2.23941 115.431 1.59044 114.92 1.08005C114.41 0.569647 113.761 0.220268 113.054 0.0752203C112.347 -0.0698272 111.613 -0.00416388 110.942 0.26407L3.65836 43.1792C2.71355 43.5574 1.89139 44.1889 1.28237 45.0043C0.673351 45.8196 0.301083 46.7872 0.20654 47.8005C0.111996 48.8138 0.298842 49.8335 0.746512 50.7475C1.19418 51.6614 1.88532 52.4341 2.74386 52.9806L39.582 76.4183L50.8731 94.1626C51.4064 94.9677 52.2342 95.5315 53.1788 95.7328C54.1233 95.9342 55.1091 95.7569 55.9243 95.2392C56.7395 94.7214 57.3191 93.9046 57.5385 92.9641C57.7579 92.0236 57.5996 91.0346 57.0976 90.2096L46.9496 74.2648L102.218 18.9966L88.2422 53.9393C88.0502 54.3909 87.9503 54.8762 87.9483 55.3669C87.9462 55.8576 88.0421 56.3438 88.2304 56.797C88.4187 57.2501 88.6955 57.6611 89.0446 58.0059C89.3938 58.3507 89.8082 58.6224 90.2637 58.8049C90.7191 58.9875 91.2065 59.0774 91.6971 59.0692C92.1877 59.061 92.6718 58.955 93.1209 58.7574C93.5701 58.5597 93.9753 58.2744 94.3127 57.9182C94.6502 57.562 94.9132 57.142 95.0862 56.6828L115.736 5.05782ZM97.0037 13.7824L41.7355 69.0507L9.73536 48.6883L97.0037 13.7824Z" fill="#1B1A1A"/>
<path d="M116 92.1875C116 99.0334 113.28 105.599 108.44 110.44C103.599 115.28 97.0334 118 90.1875 118C83.3416 118 76.7761 115.28 71.9353 110.44C67.0945 105.599 64.375 99.0334 64.375 92.1875C64.375 85.3416 67.0945 78.7761 71.9353 73.9353C76.7761 69.0945 83.3416 66.375 90.1875 66.375C97.0334 66.375 103.599 69.0945 108.44 73.9353C113.28 78.7761 116 85.3416 116 92.1875ZM101.302 79.8049C100.886 79.5559 100.426 79.3912 99.9466 79.3202C99.4675 79.2492 98.979 79.2733 98.5092 79.3911C98.0394 79.5089 97.5974 79.7181 97.2084 80.0067C96.8195 80.2954 96.4912 80.6578 96.2424 81.0734L87.6136 95.4546L83.5795 91.4205C82.8871 90.7281 81.948 90.3391 80.9688 90.3391C79.9895 90.3391 79.0504 90.7281 78.358 91.4205C77.6656 92.1129 77.2766 93.052 77.2766 94.0312C77.2766 95.0105 77.6656 95.9496 78.358 96.642L84.0663 102.343C84.6604 102.938 85.3825 103.39 86.1776 103.664C86.9727 103.939 87.8198 104.028 88.6546 103.926C89.4894 103.823 90.2899 103.532 90.9952 103.073C91.7004 102.615 92.2918 102.002 92.7245 101.281L102.57 84.8641C102.819 84.4487 102.984 83.9882 103.055 83.5091C103.126 83.03 103.102 82.5415 102.984 82.0717C102.866 81.6019 102.657 81.1599 102.368 80.7709C102.08 80.382 101.717 80.0537 101.302 79.8049Z" fill="#D2113A"/>
</svg>
