<svg width="19" height="18" viewBox="0 0 19 18" fill="none" xmlns="http://www.w3.org/2000/svg">
<path d="M7.71875 10.7809L12.1783 6.32129" stroke="#D2113A" stroke-width="1.5" stroke-linecap="round"/>
<path d="M16.6976 1.03163C16.8042 1.00349 16.9163 1.00379 17.0227 1.0325C17.1291 1.06121 17.2261 1.11734 17.304 1.19526C17.3819 1.27319 17.4381 1.3702 17.4668 1.4766C17.4955 1.58301 17.4958 1.69508 17.4676 1.80163L13.5637 16.6402C13.5355 16.7475 13.4794 16.8455 13.4012 16.9242C13.323 17.0029 13.2253 17.0596 13.1182 17.0884C13.011 17.1173 12.8982 17.1173 12.791 17.0886C12.6838 17.0598 12.5861 17.0032 12.5078 16.9245L1.57472 5.99288C1.49606 5.9146 1.43949 5.81692 1.41071 5.70974C1.38193 5.60256 1.38198 5.48969 1.41084 5.38253C1.4397 5.27538 1.49635 5.17775 1.57507 5.09952C1.65378 5.02129 1.75176 4.96525 1.85909 4.93705L16.6976 1.03163Z" stroke="#1B1A1A" stroke-width="1.5"/>
</svg>
