<svg width="37" height="37" viewBox="0 0 37 37" fill="none" xmlns="http://www.w3.org/2000/svg">
<path d="M31.1312 5.79686C29.4886 4.13765 27.5321 2.8221 25.3757 1.92696C23.2194 1.03181 20.9064 0.574981 18.5716 0.583115C8.7891 0.583115 0.816185 8.55603 0.816185 18.3385C0.816185 21.4739 1.64035 24.5198 3.18119 27.2073L0.672852 36.4164L10.0791 33.9439C12.677 35.3594 15.5974 36.1119 18.5716 36.1119C28.3541 36.1119 36.327 28.1389 36.327 18.3564C36.327 13.6085 34.4816 9.14728 31.1312 5.79686ZM18.5716 33.1019C15.9199 33.1019 13.322 32.3852 11.0466 31.0414L10.5091 30.7189L4.9191 32.1881L6.40619 26.7414L6.04785 26.186C4.57465 23.8335 3.79239 21.1143 3.79035 18.3385C3.79035 10.2044 10.4195 3.5752 18.5537 3.5752C22.4954 3.5752 26.2041 5.11603 28.9812 7.91103C30.3563 9.2798 31.446 10.9079 32.1872 12.7009C32.9284 14.4939 33.3063 16.4163 33.2991 18.3564C33.3349 26.4906 26.7058 33.1019 18.5716 33.1019ZM26.6699 22.0652C26.222 21.8502 24.0362 20.7752 23.642 20.6139C23.2299 20.4706 22.9433 20.3989 22.6387 20.8289C22.3341 21.2769 21.492 22.2802 21.2412 22.5669C20.9904 22.8714 20.7216 22.9073 20.2737 22.6744C19.8258 22.4594 18.3924 21.9756 16.7083 20.4706C15.3824 19.2881 14.5045 17.8369 14.2358 17.3889C13.9849 16.941 14.1999 16.7081 14.4329 16.4752C14.6299 16.2781 14.8808 15.9556 15.0958 15.7048C15.3108 15.4539 15.4004 15.2569 15.5437 14.9702C15.687 14.6656 15.6154 14.4148 15.5079 14.1998C15.4004 13.9848 14.5045 11.7989 14.1462 10.9031C13.7879 10.0431 13.4116 10.1506 13.1429 10.1327H12.2829C11.9783 10.1327 11.5124 10.2402 11.1004 10.6881C10.7062 11.136 9.55952 12.211 9.55952 14.3969C9.55952 16.5827 11.1541 18.6969 11.3691 18.9835C11.5841 19.2881 14.5045 23.7673 18.9479 25.6844C20.0049 26.1502 20.8291 26.4189 21.4741 26.616C22.5312 26.9564 23.4987 26.9027 24.2691 26.7952C25.1291 26.6698 26.9029 25.7202 27.2612 24.681C27.6374 23.6419 27.6374 22.7639 27.512 22.5669C27.3866 22.3698 27.1179 22.2802 26.6699 22.0652Z" fill="white"/>
</svg>
