<svg width="34" height="34" viewBox="0 0 34 34" fill="none" xmlns="http://www.w3.org/2000/svg">
<path fill-rule="evenodd" clip-rule="evenodd" d="M16.9997 0.333008C7.79467 0.333008 0.333008 7.79468 0.333008 16.9997C0.333008 20.1497 1.20801 23.0997 2.72967 25.613L1.24301 30.6663C1.15765 30.9565 1.15203 31.2643 1.22675 31.5573C1.30146 31.8504 1.45375 32.1179 1.66761 32.3317C1.88146 32.5456 2.14898 32.6979 2.44204 32.7726C2.73509 32.8473 3.04287 32.8417 3.33301 32.7563L8.38634 31.2697C10.9841 32.8415 13.9634 33.6705 16.9997 33.6663C26.2047 33.6663 33.6663 26.2047 33.6663 16.9997C33.6663 7.79468 26.2047 0.333008 16.9997 0.333008ZM13.2297 20.7713C16.6013 24.1413 19.8197 24.5863 20.9563 24.628C22.6847 24.6913 24.368 23.3713 25.023 21.8397C25.1057 21.6491 25.1357 21.4399 25.1099 21.2338C25.0841 21.0277 25.0034 20.8323 24.8763 20.668C23.963 19.5013 22.728 18.663 21.5213 17.8297C21.2694 17.6555 20.9598 17.5856 20.6575 17.6347C20.3551 17.6838 20.0835 17.848 19.8997 18.093L18.8997 19.618C18.8471 19.7 18.7652 19.7588 18.6707 19.7823C18.5762 19.8059 18.4762 19.7924 18.3913 19.7447C17.713 19.3563 16.7247 18.6963 16.0147 17.9863C15.3047 17.2763 14.6847 16.333 14.3363 15.698C14.2932 15.6173 14.2807 15.5237 14.3012 15.4346C14.3217 15.3454 14.3739 15.2667 14.448 15.213L15.988 14.0697C16.2078 13.8786 16.3496 13.6133 16.3865 13.3244C16.4234 13.0356 16.3527 12.7432 16.188 12.503C15.4413 11.4097 14.5713 10.0197 13.3097 9.09801C13.1469 8.98001 12.9561 8.90644 12.7562 8.88452C12.5563 8.86261 12.3542 8.8931 12.1697 8.97301C10.6363 9.62967 9.30967 11.313 9.37301 13.0447C9.41467 14.1813 9.85967 17.3997 13.2297 20.7713Z" fill="#EEEEEA"/>
</svg>
