<?xml version="1.0" standalone="no"?>
<!DOCTYPE svg PUBLIC "-//W3C//DTD SVG 20010904//EN"
 "http://www.w3.org/TR/2001/REC-SVG-20010904/DTD/svg10.dtd">
<svg version="1.0" xmlns="http://www.w3.org/2000/svg"
 width="700.000000pt" height="700.000000pt" viewBox="0 0 700.000000 700.000000"
 preserveAspectRatio="xMidYMid meet">
<metadata>
Created by potrace 1.14, written by Peter Selinger 2001-2017
</metadata>
<g transform="translate(0.000000,700.000000) scale(0.100000,-0.100000)"
fill="#000000" stroke="none">
<path d="M0 3500 l0 -3500 3500 0 3500 0 0 3500 0 3500 -3500 0 -3500 0 0
-3500z m3627 2000 c69 -124 204 -362 299 -529 148 -259 174 -310 174 -346 0
-36 -104 -222 -908 -1620 -499 -869 -928 -1615 -952 -1657 -24 -43 -46 -78
-49 -78 -4 0 -141 238 -306 527 -321 564 -325 574 -290 642 9 17 415 726 904
1574 488 848 909 1581 937 1629 27 49 53 87 57 85 5 -1 65 -104 134 -227z
m1456 -2532 c162 -282 300 -524 307 -537 30 -58 19 -83 -295 -633 -165 -290
-302 -528 -305 -528 -3 0 -13 12 -21 28 -9 15 -202 351 -429 747 -227 396
-480 836 -562 978 -82 142 -154 272 -160 288 -15 44 4 100 47 138 l36 31 543
0 543 0 296 -512z"/>
</g>
</svg>
