<svg width="282" height="314" viewBox="0 0 282 314" fill="none" xmlns="http://www.w3.org/2000/svg">
<path d="M9.68311 71.4941L141.945 0L273.215 71.4941L235.547 91.8909L141.945 43.7123L49.9399 91.8909L9.68311 71.4941Z" fill="white"/>
<path d="M9.68311 241.948L141.945 313.477L273.215 241.948L235.547 221.551L141.945 269.729L49.9399 221.551L9.68311 241.948Z" fill="white"/>
<path d="M0 223.696L36.7809 204.741V161.486L140.917 217.331L174.825 199.114L37.1001 123.576V109.122L0 89.1475V223.696Z" fill="white"/>
<path d="M281.017 89.1475L244.201 108.102V151.358L140.101 95.5127L106.193 113.729L243.917 189.267V203.721L281.017 223.696V89.1475Z" fill="white"/>
</svg>
