<svg width="322" height="257" viewBox="0 0 322 257" fill="none" xmlns="http://www.w3.org/2000/svg">
<g opacity="0.5">
<path d="M165.127 205C165.121 204.5 165.231 203.997 165.453 203.547C165.735 202.978 166.178 202.49 166.708 202.142L166.765 202.107C166.511 201.732 166.182 201.408 165.802 201.165C165.263 200.82 164.629 200.629 163.992 200.598C163.455 200.543 162.92 200.683 162.418 200.866C162.038 200.996 161.544 201.249 161.148 201.292C160.895 201.306 160.674 201.22 160.443 201.138L159.821 200.895C159.491 200.772 159.148 200.666 158.796 200.64C158.391 200.615 157.981 200.675 157.594 200.795C156.95 200.996 156.367 201.384 155.92 201.891C155.536 202.325 155.254 202.848 155.078 203.4C154.77 204.366 154.765 205.409 154.924 206.405C155.122 207.609 155.548 208.783 156.175 209.83C156.537 210.4 156.929 210.971 157.403 211.454C157.684 211.732 158.013 211.981 158.4 212.082C158.693 212.16 159.003 212.128 159.294 212.055C159.541 211.995 159.872 211.842 160.109 211.744C160.604 211.533 161.156 211.456 161.689 211.53C162.067 211.576 162.446 211.746 162.793 211.898C163.293 212.117 163.883 212.197 164.398 211.983C165.04 211.716 165.478 211.134 165.873 210.584C166.399 209.86 166.837 209.056 167.12 208.204L167.16 208.076L167.134 208.065C166.485 207.775 165.921 207.28 165.562 206.663C165.27 206.163 165.13 205.58 165.127 205Z" stroke="#DBDBDB" stroke-miterlimit="10" stroke-linecap="round" stroke-linejoin="round"/>
<path d="M160.972 200.426C161.443 200.462 161.915 200.324 162.324 200.095C162.889 199.783 163.341 199.288 163.638 198.716C163.924 198.168 164.076 197.538 164.007 196.92C163.575 196.939 163.155 197.085 162.774 197.286C162.244 197.565 161.783 197.979 161.468 198.491C161.111 199.062 160.884 199.748 160.972 200.426Z" stroke="#DBDBDB" stroke-miterlimit="10" stroke-linecap="round" stroke-linejoin="round"/>
<path d="M1.29346 191.594H320.283" stroke="#DBDBDB" stroke-miterlimit="10" stroke-linecap="round" stroke-linejoin="round"/>
<path d="M9.08397 219.737L8.94953 219.736L8.81508 219.732L8.68063 219.726L8.54686 219.718L8.41241 219.708L8.27864 219.695L8.14486 219.68L8.01176 219.662L7.87866 219.643L7.74623 219.62L7.61379 219.596L7.48204 219.57L7.35028 219.541L7.21987 219.51L7.08945 219.476L6.95971 219.441L6.83065 219.402L6.70225 219.363L6.57452 219.32L6.44747 219.276L6.32176 219.229L6.19606 219.18L6.07169 219.129L5.948 219.075L5.82566 219.02L5.70398 218.963L5.58298 218.903L5.46332 218.841L5.34501 218.778L5.22737 218.712L5.11107 218.644L4.99612 218.574L4.88251 218.503L4.76958 218.428L4.65866 218.353L4.54841 218.275L4.43951 218.196L4.33262 218.115L4.22641 218.031L4.12222 217.946L4.01936 217.859L3.91786 217.771L3.81769 217.68L3.71954 217.589L3.62274 217.495L3.52796 217.399L3.43452 217.302L3.34242 217.203L3.25234 217.104L3.16428 217.002L3.07757 216.899L2.99286 216.793L2.91018 216.687L2.82884 216.58L2.74951 216.471L2.67221 216.36L2.59692 216.248L2.52364 216.136L2.45172 216.021L2.38247 215.906L2.31458 215.789L2.24937 215.672L2.18551 215.552L2.12434 215.432L2.06518 215.311L2.00737 215.189L1.95224 215.066L1.89914 214.942L1.84872 214.817L1.79965 214.692L1.75326 214.565L1.70889 214.438L1.66654 214.31L1.62621 214.181L1.58856 214.051L1.55294 213.921L1.52 213.79L1.4884 213.659L1.46017 213.527L1.43328 213.395L1.40908 213.262L1.3869 213.129L1.3674 212.996L1.34992 212.861L1.33513 212.728L1.32236 212.593L1.31228 212.459L1.30354 212.324L1.29816 212.189L1.2948 212.054L1.29346 211.919V9.41729L1.2948 9.28238L1.29816 9.14747L1.30354 9.01257L1.31228 8.87766L1.32236 8.74342L1.33513 8.60852L1.34992 8.47496L1.3674 8.34072L1.3869 8.20716L1.40908 8.07428L1.43328 7.9414L1.46017 7.80919L1.4884 7.67765L1.52 7.54611L1.55294 7.41525L1.58856 7.28507L1.62621 7.15556L1.66654 7.02672L1.70889 6.89855L1.75326 6.77174L1.79965 6.64493L1.84872 6.51946L1.89914 6.394L1.95224 6.27056L2.00737 6.14712L2.06518 6.02502L2.12434 5.90428L2.18551 5.78421L2.24937 5.66482L2.31458 5.54745L2.38247 5.43076L2.45172 5.31541L2.52364 5.20074L2.59692 5.08809L2.67221 4.97611L2.74951 4.86549L2.82884 4.75689L2.91018 4.64896L2.99286 4.54306L3.07757 4.43783L3.16428 4.33463L3.25234 4.23277L3.34242 4.13294L3.43452 4.03446L3.52796 3.93732L3.62274 3.84154L3.71954 3.74778L3.81769 3.65604L3.91786 3.56565L4.01936 3.47728L4.12222 3.39027L4.22641 3.30528L4.33262 3.22163L4.43951 3.14069L4.54841 3.06109L4.65866 2.98352L4.76958 2.90797L4.88251 2.83377L4.99612 2.76227L5.11107 2.69212L5.22737 2.62466L5.34501 2.55856L5.46332 2.49515L5.58298 2.4331L5.70398 2.37373L5.82566 2.3164L5.948 2.26109L6.07169 2.2078L6.19606 2.15653L6.32176 2.10729L6.44747 2.06075L6.57452 2.01623L6.70225 1.97374L6.83065 1.93393L6.95971 1.89549L7.08945 1.86041L7.21987 1.82668L7.35028 1.79566L7.48204 1.76665L7.61379 1.74034L7.74623 1.71606L7.87866 1.6938L8.01176 1.67424L8.14486 1.6567L8.27864 1.64118L8.41241 1.62837L8.54686 1.61825L8.68063 1.61016L8.81508 1.60408L8.94953 1.60071L9.08397 1.59937H312.492L312.626 1.60071L312.761 1.60408L312.895 1.61016L313.03 1.61825L313.164 1.62837L313.297 1.64118L313.431 1.6567L313.564 1.67424L313.697 1.6938L313.83 1.71606L313.963 1.74034L314.095 1.76665L314.226 1.79566L314.357 1.82668L314.487 1.86041L314.616 1.89549L314.745 1.93393L314.874 1.97374L315.001 2.01623L315.129 2.06075L315.255 2.10729L315.38 2.15653L315.504 2.2078L315.628 2.26109L315.751 2.3164L315.873 2.37373L315.993 2.4331L316.113 2.49515L316.231 2.55856L316.349 2.62466L316.465 2.69212L316.58 2.76227L316.694 2.83377L316.806 2.90797L316.918 2.98352L317.028 3.06109L317.136 3.14069L317.243 3.22163L317.35 3.30528L317.454 3.39027L317.557 3.47728L317.658 3.56565L317.758 3.65604L317.856 3.74778L317.953 3.84154L318.048 3.93732L318.141 4.03446L318.234 4.13294L318.324 4.23277L318.412 4.33463L318.498 4.43783L318.583 4.54306L318.666 4.64896L318.747 4.75689L318.826 4.86549L318.904 4.97611L318.979 5.08809L319.052 5.20074L319.124 5.31541L319.194 5.43076L319.261 5.54745L319.327 5.66482L319.39 5.78421L319.452 5.90428L319.511 6.02502L319.569 6.14712L319.624 6.27056L319.677 6.394L319.728 6.51946L319.776 6.64493L319.823 6.77174L319.868 6.89855L319.91 7.02672L319.95 7.15556L319.987 7.28507L320.023 7.41525L320.057 7.54611L320.088 7.67765L320.116 7.80919L320.143 7.9414L320.167 8.07428L320.189 8.20716L320.209 8.34072L320.226 8.47496L320.241 8.60852L320.254 8.74342L320.264 8.87766L320.272 9.01257L320.278 9.14747L320.282 9.28238L320.283 9.41729V211.919L320.282 212.054L320.278 212.189L320.272 212.324L320.264 212.459L320.254 212.593L320.241 212.728L320.226 212.861L320.209 212.996L320.189 213.129L320.167 213.262L320.143 213.395L320.116 213.527L320.088 213.659L320.057 213.79L320.023 213.921L319.987 214.051L319.95 214.181L319.91 214.31L319.868 214.438L319.823 214.565L319.776 214.692L319.728 214.817L319.677 214.942L319.624 215.066L319.569 215.189L319.511 215.311L319.452 215.432L319.39 215.552L319.327 215.672L319.261 215.789L319.194 215.906L319.124 216.021L319.052 216.136L318.979 216.248L318.904 216.36L318.826 216.471L318.747 216.58L318.666 216.687L318.583 216.793L318.498 216.899L318.412 217.002L318.324 217.104L318.234 217.203L318.141 217.302L318.048 217.399L317.953 217.495L317.856 217.589L317.758 217.68L317.658 217.771L317.557 217.859L317.454 217.946L317.35 218.031L317.243 218.115L317.136 218.196L317.028 218.275L316.918 218.353L316.806 218.428L316.694 218.503L316.58 218.574L316.465 218.644L316.349 218.712L316.231 218.778L316.113 218.841L315.993 218.903L315.873 218.963L315.751 219.02L315.628 219.075L315.504 219.129L315.38 219.18L315.255 219.229L315.129 219.276L315.001 219.32L314.874 219.363L314.745 219.402L314.616 219.441L314.487 219.476L314.357 219.51L314.226 219.541L314.095 219.57L313.963 219.596L313.83 219.62L313.697 219.643L313.564 219.662L313.431 219.68L313.297 219.695L313.164 219.708L313.03 219.718L312.895 219.726L312.761 219.732L312.626 219.736L312.492 219.737H9.08397Z" stroke="#DBDBDB" stroke-miterlimit="10" stroke-linecap="round" stroke-linejoin="round"/>
<path d="M307.818 13.6089H13.7588V179.585H307.818V13.6089Z" stroke="#DBDBDB" stroke-miterlimit="10" stroke-linecap="round" stroke-linejoin="round"/>
<path d="M112.486 254.014V255.697H160.789H209.091V254.014" stroke="#DBDBDB" stroke-miterlimit="10" stroke-linecap="round" stroke-linejoin="round"/>
<path d="M195.969 219.737L198.785 246.58L198.793 246.652L198.802 246.723L198.812 246.795L198.823 246.866L198.835 246.937L198.848 247.008L198.862 247.078L198.877 247.148L198.893 247.218L198.909 247.287L198.927 247.357L198.946 247.426L198.965 247.494L198.986 247.563L199.008 247.631L199.03 247.698L199.054 247.766L199.079 247.833L199.104 247.9L199.131 247.967L199.159 248.033L199.187 248.099L199.217 248.165L199.247 248.23L199.279 248.296L199.311 248.361L199.344 248.425L199.379 248.489L199.414 248.553L199.451 248.618L199.488 248.681L199.526 248.744L199.565 248.807L199.605 248.87L199.646 248.932L199.689 248.994L199.732 249.056L199.776 249.117L199.821 249.179L199.867 249.239L199.914 249.3L199.962 249.361L200.011 249.421L200.061 249.481L200.112 249.54L200.164 249.6L200.217 249.658L200.271 249.717L200.326 249.776L200.382 249.834L200.439 249.892L200.497 249.949L200.555 250.006L200.615 250.063L200.675 250.12L200.737 250.176L200.8 250.232L200.864 250.288L200.928 250.344L200.994 250.399L201.061 250.454L201.128 250.509L201.196 250.564L201.266 250.618L201.336 250.672L201.408 250.725L201.48 250.778L201.553 250.831L201.703 250.937L201.857 251.04L202.014 251.143L202.175 251.245L202.341 251.345L202.51 251.445L202.683 251.543L202.86 251.64L203.04 251.736L203.225 251.831L203.414 251.925L203.606 252.017L203.803 252.109L204.003 252.199L204.207 252.288L204.416 252.377L204.628 252.464L204.843 252.549L205.063 252.634L205.287 252.718L205.515 252.8L205.746 252.881L205.981 252.962L206.221 253.04L206.464 253.118L206.711 253.195L207.218 253.345L207.739 253.49L208.026 253.568L208.156 253.605L208.278 253.641L208.391 253.675L208.496 253.708L208.592 253.741L208.637 253.756L208.68 253.772L208.721 253.787L208.76 253.801L208.796 253.816L208.83 253.83L208.863 253.843C208.878 253.85 208.893 253.857 208.893 253.857C208.907 253.863 208.921 253.87 208.921 253.87C208.935 253.876 208.947 253.882 208.947 253.882C208.959 253.888 208.97 253.894 208.97 253.894C208.981 253.901 208.992 253.907 208.992 253.907C209.006 253.915 209.011 253.918 209.011 253.918C209.025 253.927 209.029 253.93 209.029 253.93C209.044 253.941 209.047 253.944 209.047 253.944C209.063 253.957 209.066 253.96 209.066 253.96C209.079 253.975 209.08 253.977 209.08 253.977C209.088 253.992 209.088 253.994 209.088 253.994C209.09 254.008 209.09 254.01 209.09 254.01C209.086 254.025 209.084 254.027 209.084 254.027C209.072 254.041 209.07 254.043 209.07 254.043C209.057 254.052 209.054 254.054 209.054 254.054C209.041 254.06 209.037 254.062 209.037 254.062C209.025 254.067 209.021 254.069 209.021 254.069C209.007 254.074 209.002 254.075 209.002 254.075C208.987 254.08 208.982 254.081 208.982 254.081C208.976 254.083 208.965 254.085 208.965 254.085C208.953 254.088 208.941 254.091 208.941 254.091C208.928 254.093 208.914 254.095 208.914 254.095C208.9 254.098 208.886 254.1 208.886 254.1C208.871 254.102 208.855 254.105 208.855 254.105L208.839 254.107L208.805 254.111L208.77 254.114L208.731 254.118L208.691 254.12L208.649 254.123L208.604 254.125L208.558 254.127L208.459 254.131L208.35 254.133L208.234 254.133H160.789H113.344L113.228 254.133L113.12 254.131L113.02 254.127L112.974 254.125L112.929 254.123L112.887 254.12L112.847 254.118L112.808 254.114L112.773 254.111L112.739 254.107L112.723 254.105L112.708 254.103C112.693 254.101 112.678 254.098 112.678 254.098C112.664 254.095 112.65 254.093 112.65 254.093C112.638 254.091 112.625 254.088 112.625 254.088C112.613 254.085 112.602 254.083 112.602 254.083C112.591 254.08 112.586 254.079 112.586 254.079C112.571 254.074 112.566 254.073 112.566 254.073C112.553 254.068 112.549 254.066 112.549 254.066C112.533 254.06 112.53 254.058 112.53 254.058C112.515 254.05 112.512 254.048 112.512 254.048C112.497 254.034 112.495 254.032 112.495 254.032C112.488 254.017 112.487 254.015 112.487 254.015C112.486 254.002 112.487 254 112.487 254C112.492 253.986 112.494 253.983 112.494 253.983C112.505 253.968 112.507 253.965 112.507 253.965C112.52 253.952 112.523 253.95 112.523 253.95C112.536 253.939 112.54 253.936 112.54 253.936C112.552 253.928 112.556 253.925 112.556 253.925C112.57 253.916 112.575 253.913 112.575 253.913C112.585 253.907 112.595 253.901 112.595 253.901C112.605 253.895 112.618 253.889 112.618 253.889C112.63 253.883 112.642 253.876 112.642 253.876C112.656 253.87 112.669 253.863 112.669 253.863C112.683 253.857 112.698 253.85 112.698 253.85C112.714 253.843 112.746 253.83 112.746 253.83L112.78 253.816L112.817 253.801L112.855 253.787L112.896 253.772L112.939 253.756L112.984 253.741L113.08 253.708L113.185 253.675L113.299 253.641L113.42 253.605L113.551 253.568L113.837 253.49L114.359 253.345L114.865 253.195L115.112 253.118L115.356 253.04L115.595 252.962L115.83 252.881L116.061 252.8L116.289 252.718L116.513 252.634L116.733 252.549L116.949 252.464L117.16 252.377L117.369 252.288L117.573 252.199L117.774 252.109L117.97 252.017L118.162 251.925L118.351 251.831L118.536 251.736L118.717 251.64L118.894 251.543L119.066 251.445L119.236 251.345L119.401 251.245L119.562 251.143L119.72 251.04L119.873 250.937L120.023 250.831L120.096 250.778L120.169 250.725L120.24 250.672L120.311 250.618L120.38 250.564L120.448 250.509L120.516 250.454L120.582 250.399L120.648 250.344L120.713 250.288L120.776 250.232L120.839 250.176L120.901 250.12L120.961 250.063L121.021 250.006L121.08 249.949L121.137 249.892L121.194 249.834L121.25 249.776L121.305 249.717L121.359 249.658L121.412 249.6L121.463 249.54L121.515 249.481L121.564 249.421L121.613 249.361L121.661 249.3L121.708 249.239L121.755 249.179L121.8 249.117L121.844 249.056L121.887 248.994L121.929 248.932L121.97 248.87L122.011 248.807L122.05 248.744L122.088 248.681L122.126 248.618L122.162 248.553L122.198 248.489L122.232 248.425L122.265 248.361L122.298 248.296L122.329 248.23L122.36 248.165L122.389 248.099L122.417 248.033L122.445 247.967L122.472 247.9L122.497 247.833L122.522 247.766L122.546 247.698L122.569 247.631L122.59 247.563L122.611 247.494L122.63 247.426L122.649 247.357L122.667 247.287L122.684 247.218L122.7 247.148L122.715 247.078L122.729 247.008L122.742 246.937L122.754 246.866L122.765 246.795L122.775 246.723L122.784 246.652L122.792 246.58L125.608 219.737" stroke="#DBDBDB" stroke-miterlimit="10" stroke-linecap="round" stroke-linejoin="round"/>
<path d="M9.08397 219.737L8.99793 219.736L8.91121 219.735L8.82449 219.732L8.7371 219.729L8.64971 219.724L8.56165 219.719L8.47359 219.712L8.38485 219.705L8.29612 219.696L8.20671 219.686L8.1173 219.676L8.02789 219.664L7.93781 219.651L7.84774 219.637L7.75766 219.622L7.66757 219.606L7.57683 219.589L7.48607 219.57L7.39465 219.551L7.3039 219.53L7.21315 219.508L7.12239 219.485L7.03164 219.46L6.94089 219.435L6.85014 219.408L6.75939 219.38L6.66864 219.351L6.57789 219.321L6.48713 219.289L6.39705 219.257L6.30698 219.223L6.2169 219.188L6.12681 219.152L6.03741 219.114L5.948 219.075L5.85927 219.036L5.77053 218.994L5.68247 218.952L5.59441 218.908L5.50702 218.864L5.41962 218.818L5.33291 218.77L5.24619 218.722L5.16015 218.673L5.07477 218.622L4.99007 218.57L4.90604 218.517L4.82201 218.463L4.73866 218.408L4.65597 218.351L4.57396 218.294L4.49261 218.235L4.41195 218.175L4.33195 218.114L4.25263 218.052L4.17398 217.989L4.096 217.925L4.01936 217.859L3.9434 217.793L3.86811 217.726L3.79349 217.657L3.72022 217.588L3.64762 217.518L3.57569 217.447L3.5051 217.375L3.43519 217.302L3.36595 217.228L3.29805 217.154L3.23083 217.078L3.16495 217.002L3.09975 216.925L3.03588 216.847L2.97269 216.768L2.91085 216.688L2.85035 216.608L2.79052 216.527L2.73204 216.445L2.67489 216.363L2.61843 216.28L2.56331 216.196L2.50953 216.112L2.45642 216.028L2.40466 215.943L2.35424 215.857L2.30517 215.771L2.25677 215.684L2.20971 215.597L2.164 215.509L2.11963 215.421L2.07593 215.333L2.03359 215.244L1.99258 215.155L1.95292 215.066L1.9146 214.976L1.87695 214.886L1.84065 214.796L1.80569 214.706L1.77209 214.615L1.73982 214.525L1.70822 214.434L1.67797 214.343L1.64907 214.252L1.62151 214.161L1.59462 214.07L1.56907 213.979L1.54487 213.887L1.52201 213.796L1.49983 213.705L1.47899 213.614L1.45949 213.523L1.44134 213.432L1.42387 213.341L1.40774 213.251L1.39294 213.16L1.37883 213.07L1.36605 212.98L1.35463 212.89L1.34387 212.8L1.33446 212.71L1.32572 212.621L1.31833 212.532L1.3116 212.444L1.30623 212.356L1.30152 212.268L1.29816 212.18L1.29547 212.093L1.29413 212.006L1.29346 211.92V191.595V9.41729L1.29413 9.33095L1.29547 9.24394L1.29816 9.15692L1.30152 9.06923L1.30623 8.98154L1.3116 8.89317L1.31833 8.80481L1.32572 8.71577L1.33446 8.62673L1.34387 8.53701L1.35463 8.4473L1.36605 8.35759L1.37883 8.2672L1.39294 8.17681L1.40774 8.08642L1.42387 7.99603L1.44134 7.90497L1.45949 7.81391L1.47899 7.72284L1.49983 7.63178L1.52201 7.54072L1.54487 7.44965L1.56907 7.35859L1.59462 7.26753L1.62151 7.17647L1.64907 7.0854L1.67797 6.99434L1.70822 6.90328L1.73982 6.81221L1.77209 6.72182L1.80569 6.63144L1.84065 6.54105L1.87695 6.45066L1.9146 6.36095L1.95292 6.27123L1.99258 6.18219L2.03359 6.09315L2.07593 6.00479L2.11963 5.91643L2.164 5.82873L2.20971 5.74104L2.25677 5.65403L2.30517 5.56701L2.35424 5.48067L2.40466 5.39501L2.45642 5.31001L2.50953 5.22502L2.56331 5.1407L2.61843 5.05706L2.67489 4.97409L2.73204 4.8918L2.79052 4.81018L2.85035 4.72923L2.91085 4.64896L2.97269 4.56937L3.03588 4.49044L3.09975 4.4122L3.16495 4.3353L3.23083 4.25908L3.29805 4.18353L3.36595 4.10866L3.43519 4.03513L3.5051 3.96228L3.57569 3.8901L3.64762 3.81928L3.72022 3.74912L3.79349 3.67965L3.86811 3.61152L3.9434 3.54406L4.01936 3.47796L4.096 3.41253L4.17398 3.34845L4.25263 3.28504L4.33195 3.22298L4.41195 3.16228L4.49261 3.10224L4.57396 3.04356L4.65597 2.98622L4.73866 2.92956L4.82201 2.87425L4.90604 2.82028L4.99007 2.76699L5.07477 2.71506L5.16015 2.66446L5.24619 2.61522L5.33291 2.56666L5.41962 2.51944L5.50702 2.47357L5.59441 2.42905L5.68247 2.38521L5.77053 2.34271L5.85927 2.30156L5.948 2.26176L6.03741 2.22331L6.12681 2.18554L6.2169 2.14911L6.30698 2.11404L6.39705 2.08031L6.48713 2.04794L6.57789 2.01623L6.66864 1.98588L6.75939 1.95687L6.85014 1.92921L6.94089 1.90223L7.03164 1.8766L7.12239 1.85232L7.21315 1.82938L7.3039 1.80712L7.39465 1.78554L7.4854 1.76597L7.57615 1.74777L7.6669 1.73023L7.75698 1.71404L7.84706 1.69919L7.93714 1.68503L8.02722 1.67221L8.11663 1.66075L8.20604 1.64995L8.29544 1.64051L8.38418 1.63174L8.47291 1.62432L8.56097 1.61758L8.64904 1.61218L8.73643 1.60746L8.82382 1.60408L8.91053 1.60139L8.99726 1.60004L9.0833 1.59937H312.491L312.577 1.60004L312.664 1.60139L312.751 1.60408L312.838 1.60746L312.926 1.61218L313.014 1.61758L313.102 1.62432L313.19 1.63174L313.279 1.64051L313.369 1.64995L313.458 1.66075L313.547 1.67221L313.637 1.68503L313.728 1.69919L313.818 1.71404L313.908 1.73023L313.998 1.74777L314.089 1.76597L314.18 1.78554L314.271 1.80645L314.361 1.82871L314.452 1.85164L314.543 1.87592L314.634 1.90156L314.724 1.92854L314.815 1.9562L314.906 1.9852L314.997 2.01555L315.087 2.04726L315.178 2.07964L315.268 2.11337L315.358 2.14844L315.448 2.18486L315.537 2.22264L315.627 2.26109L315.715 2.30089L315.804 2.34203L315.892 2.38453L315.98 2.42837L316.068 2.47289L316.155 2.51876L316.242 2.56598L316.328 2.61455L316.414 2.66379L316.5 2.71438L316.585 2.76632L316.669 2.81961L316.753 2.87357L316.836 2.92889L316.919 2.98555L317.001 3.04288L317.082 3.10157L317.163 3.1616L317.243 3.22231L317.322 3.28437L317.401 3.34777L317.479 3.41185L317.555 3.47728L317.631 3.54339L317.706 3.61084L317.781 3.67897L317.854 3.74845L317.927 3.8186L317.999 3.88943L318.07 3.96161L318.139 4.03446L318.209 4.10798L318.277 4.18285L318.344 4.25841L318.41 4.33463L318.475 4.41152L318.539 4.48977L318.602 4.56869L318.664 4.64829L318.724 4.72856L318.784 4.8095L318.843 4.89112L318.9 4.97342L318.956 5.05639L319.011 5.14003L319.065 5.22435L319.118 5.30934L319.17 5.39433L319.22 5.48L319.269 5.56634L319.318 5.65335L319.365 5.74037L319.411 5.82806L319.455 5.91575L319.499 6.00412L319.541 6.09248L319.582 6.18152L319.622 6.27056L319.66 6.36027L319.698 6.44998L319.734 6.54037L319.769 6.63076L319.803 6.72115L319.835 6.81154L319.866 6.9026L319.897 6.99366L319.926 7.08473L319.953 7.17579L319.98 7.26686L320.006 7.35792L320.03 7.44898L320.053 7.54004L320.075 7.63111L320.096 7.72217L320.115 7.81323L320.133 7.9043L320.151 7.99536L320.167 8.08575L320.182 8.17614L320.196 8.26652L320.209 8.35691L320.22 8.44663L320.231 8.53634L320.24 8.62606L320.249 8.71509L320.256 8.80413L320.263 8.8925L320.268 8.98086L320.273 9.06855L320.276 9.15624L320.279 9.24326L320.281 9.33028L320.281 9.41662V191.594V211.919L320.281 212.005L320.279 212.092L320.276 212.179L320.273 212.267L320.268 212.355L320.263 212.443L320.256 212.532L320.249 212.621L320.24 212.71L320.231 212.799L320.22 212.889L320.209 212.979L320.196 213.069L320.182 213.16L320.167 213.25L320.151 213.34L320.133 213.431L320.115 213.523L320.096 213.614L320.075 213.705L320.053 213.796L320.03 213.887L320.006 213.978L319.98 214.069L319.953 214.16L319.926 214.251L319.897 214.342L319.866 214.433L319.835 214.524L319.803 214.615L319.769 214.705L319.734 214.795L319.698 214.886L319.66 214.975L319.622 215.065L319.582 215.154L319.541 215.243L319.499 215.332L319.455 215.421L319.411 215.508L319.365 215.596L319.318 215.683L319.269 215.77L319.22 215.856L319.17 215.942L319.118 216.027L319.065 216.111L319.011 216.196L318.956 216.279L318.9 216.362L318.843 216.445L318.785 216.528L318.726 216.609L318.665 216.689L318.603 216.768L318.54 216.847L318.476 216.926L318.411 217.002L318.345 217.079L318.278 217.154L318.21 217.229L318.141 217.303L318.071 217.375L318 217.448L317.928 217.518L317.856 217.589L317.782 217.658L317.708 217.726L317.633 217.794L317.557 217.86L317.48 217.925L317.402 217.989L317.323 218.053L317.244 218.115L317.164 218.175L317.083 218.236L317.002 218.294L316.92 218.352L316.837 218.408L316.754 218.464L316.67 218.517L316.586 218.571L316.501 218.623L316.416 218.673L316.33 218.723L316.243 218.771L316.156 218.818L316.069 218.864L315.982 218.909L315.894 218.953L315.805 218.995L315.717 219.036L315.628 219.076L315.539 219.114L315.449 219.152L315.359 219.189L315.269 219.224L315.179 219.257L315.089 219.29L314.998 219.322L314.907 219.352L314.817 219.381L314.726 219.409L314.635 219.436L314.544 219.461L314.454 219.485L314.363 219.508L314.272 219.531L314.181 219.552L314.091 219.571L314 219.589L313.909 219.607L313.819 219.623L313.729 219.638L313.639 219.652L313.549 219.665L313.459 219.676L313.37 219.687L313.281 219.697L313.192 219.705L313.103 219.713L313.015 219.72L312.927 219.725L312.84 219.73L312.752 219.733L312.665 219.736L312.579 219.737L312.493 219.738H195.969L198.785 246.58L198.793 246.653L198.802 246.724L198.812 246.796L198.823 246.867L198.835 246.938L198.848 247.009L198.862 247.079L198.876 247.149L198.893 247.219L198.909 247.288L198.927 247.357L198.946 247.426L198.965 247.495L198.986 247.563L199.008 247.631L199.03 247.699L199.054 247.766L199.079 247.834L199.104 247.9L199.131 247.967L199.159 248.033L199.187 248.099L199.217 248.166L199.247 248.231L199.278 248.296L199.311 248.361L199.344 248.426L199.379 248.49L199.414 248.554L199.451 248.618L199.487 248.682L199.526 248.745L199.565 248.808L199.605 248.87L199.646 248.933L199.688 248.995L199.731 249.057L199.776 249.118L199.821 249.179L199.867 249.24L199.914 249.301L199.962 249.362L200.011 249.422L200.061 249.482L200.112 249.541L200.164 249.6L200.217 249.659L200.271 249.718L200.326 249.776L200.382 249.834L200.439 249.892L200.496 249.95L200.555 250.007L200.615 250.064L200.675 250.12L200.737 250.177L200.8 250.233L200.864 250.289L200.928 250.344L200.994 250.4L201.06 250.455L201.128 250.51L201.196 250.564L201.266 250.618L201.336 250.672L201.407 250.725L201.48 250.779L201.553 250.832L201.703 250.937L201.856 251.041L202.014 251.144L202.175 251.246L202.34 251.346L202.51 251.445L202.683 251.544L202.859 251.641L203.04 251.737L203.225 251.832L203.414 251.925L203.606 252.018L203.803 252.11L204.003 252.2L204.207 252.289L204.416 252.377L204.627 252.464L204.843 252.55L205.063 252.635L205.287 252.719L205.515 252.801L205.746 252.882L205.981 252.962L206.221 253.041L206.464 253.119L206.711 253.196L207.218 253.345L207.739 253.491L208.062 253.579L208.207 253.621L208.341 253.661L208.464 253.7L208.575 253.737L208.627 253.754L208.676 253.772L208.723 253.789L208.766 253.805L208.807 253.822L208.846 253.837L208.864 253.845L208.881 253.852L208.898 253.859L208.914 253.867C208.93 253.874 208.944 253.882 208.944 253.882C208.958 253.889 208.971 253.896 208.971 253.896C208.983 253.903 208.989 253.906 208.989 253.906C209 253.913 209.006 253.916 209.006 253.916C209.021 253.926 209.026 253.929 209.026 253.929C209.039 253.938 209.043 253.942 209.043 253.942C209.058 253.954 209.059 253.955 209.059 253.955C209.074 253.97 209.075 253.971 209.075 253.971C209.085 253.987 209.086 253.988 209.086 253.988C209.09 254.003 209.09 254.004 209.09 254.004C209.09 254.015 209.09 255.697 209.09 255.697H160.787H112.484V254.015C112.484 253.999 112.485 253.998 112.485 253.998C112.491 253.983 112.492 253.981 112.492 253.981C112.502 253.967 112.504 253.966 112.504 253.966C112.519 253.951 112.521 253.95 112.521 253.95C112.534 253.939 112.538 253.936 112.538 253.936C112.552 253.926 112.557 253.923 112.557 253.923C112.567 253.916 112.573 253.913 112.573 253.913C112.584 253.906 112.59 253.903 112.59 253.903C112.603 253.896 112.616 253.888 112.616 253.888C112.63 253.881 112.644 253.874 112.644 253.874C112.66 253.867 112.675 253.859 112.675 253.859L112.692 253.852L112.709 253.845L112.728 253.837L112.766 253.822L112.807 253.805L112.851 253.789L112.897 253.772L112.946 253.754L112.998 253.737L113.109 253.7L113.232 253.661L113.366 253.621L113.511 253.579L113.834 253.491L114.356 253.345L114.862 253.196L115.109 253.119L115.353 253.041L115.592 252.962L115.827 252.882L116.059 252.801L116.286 252.719L116.51 252.635L116.73 252.55L116.946 252.464L117.158 252.377L117.366 252.289L117.57 252.2L117.771 252.11L117.967 252.018L118.159 251.925L118.348 251.832L118.533 251.737L118.714 251.641L118.891 251.544L119.063 251.445L119.233 251.346L119.398 251.246L119.56 251.144L119.717 251.041L119.87 250.937L120.02 250.832L120.093 250.779L120.166 250.725L120.237 250.672L120.308 250.618L120.377 250.564L120.446 250.51L120.513 250.455L120.579 250.4L120.645 250.344L120.71 250.289L120.774 250.233L120.836 250.177L120.898 250.12L120.958 250.064L121.018 250.007L121.077 249.95L121.135 249.892L121.191 249.834L121.247 249.776L121.302 249.718L121.356 249.659L121.409 249.6L121.461 249.541L121.512 249.482L121.561 249.422L121.611 249.362L121.658 249.301L121.705 249.24L121.752 249.179L121.797 249.118L121.841 249.057L121.884 248.995L121.926 248.933L121.967 248.87L122.008 248.808L122.047 248.745L122.085 248.682L122.123 248.618L122.159 248.554L122.195 248.49L122.229 248.426L122.263 248.361L122.295 248.296L122.326 248.231L122.357 248.166L122.386 248.099L122.415 248.033L122.442 247.967L122.469 247.9L122.495 247.834L122.519 247.766L122.543 247.699L122.566 247.631L122.587 247.563L122.608 247.495L122.628 247.426L122.646 247.357L122.665 247.288L122.681 247.219L122.698 247.149L122.712 247.079L122.726 247.009L122.739 246.938L122.751 246.867L122.762 246.796L122.772 246.724L122.781 246.653L122.789 246.58L125.605 219.738L9.08397 219.737Z" stroke="#DBDBDB" stroke-miterlimit="10" stroke-linecap="round" stroke-linejoin="round"/>
</g>
</svg>
