<svg width="612" height="541" viewBox="0 0 612 541" fill="none" xmlns="http://www.w3.org/2000/svg">
<mask id="path-1-inside-1_314_13777" fill="white">
<path d="M0 20C0 8.95431 8.95431 0 20 0H592C603.046 0 612 8.95431 612 20V541H0V20Z"/>
</mask>
<path d="M-2 20C-2 7.84974 7.84974 -2 20 -2H592C604.15 -2 614 7.84974 614 20H610C610 10.0589 601.941 2 592 2H20C10.0589 2 2 10.0589 2 20H-2ZM612 541H0H612ZM-2 541V20C-2 7.84974 7.84974 -2 20 -2V2C10.0589 2 2 10.0589 2 20V541H-2ZM592 -2C604.15 -2 614 7.84974 614 20V541H610V20C610 10.0589 601.941 2 592 2V-2Z" fill="#1B1A1A" mask="url(#path-1-inside-1_314_13777)"/>
<path d="M230 1H367V8C367 10.7614 364.761 13 362 13H235C232.239 13 230 10.7614 230 8V1Z" stroke="#1B1A1A" stroke-width="2"/>
<rect x="24.5" y="28.5" width="93" height="40" rx="6.5" stroke="#D2113A" stroke-width="3"/>
<rect x="461.5" y="32.5" width="119" height="30" rx="15" stroke="#D2113A" stroke-width="3"/>
<rect x="158.75" y="45.75" width="51.5" height="1.5" stroke="#D2113A" stroke-width="1.5"/>
<rect x="229.75" y="45.75" width="51.5" height="1.5" stroke="#D2113A" stroke-width="1.5"/>
<rect x="300.75" y="45.75" width="51.5" height="1.5" stroke="#D2113A" stroke-width="1.5"/>
<rect x="373.75" y="45.75" width="51.5" height="1.5" stroke="#D2113A" stroke-width="1.5"/>
<rect x="24.5" y="94.5" width="556" height="177" rx="6.5" stroke="#D2113A" stroke-width="3"/>
<rect x="24.5" y="301.5" width="180" height="117" rx="6.5" stroke="#D2113A" stroke-width="3"/>
<rect x="212.5" y="301.5" width="180" height="117" rx="6.5" stroke="#D2113A" stroke-width="3"/>
<rect x="400.5" y="301.5" width="180" height="117" rx="6.5" stroke="#D2113A" stroke-width="3"/>
<mask id="path-14-inside-2_314_13777" fill="white">
<path d="M23 434C23 429.582 26.5817 426 31 426H386C390.418 426 394 429.582 394 434V541H23V434Z"/>
</mask>
<path d="M20 434C20 427.925 24.9249 423 31 423H386C392.075 423 397 427.925 397 434H391C391 431.239 388.761 429 386 429H31C28.2386 429 26 431.239 26 434H20ZM394 541H23H394ZM20 541V434C20 427.925 24.9249 423 31 423V429C28.2386 429 26 431.239 26 434V541H20ZM386 423C392.075 423 397 427.925 397 434V541H391V434C391 431.239 388.761 429 386 429V423Z" fill="#D2113A" mask="url(#path-14-inside-2_314_13777)"/>
<mask id="path-16-inside-3_314_13777" fill="white">
<path d="M399 434C399 429.582 402.582 426 407 426H574C578.418 426 582 429.582 582 434V541H399V434Z"/>
</mask>
<path d="M396 434C396 427.925 400.925 423 407 423H574C580.075 423 585 427.925 585 434H579C579 431.239 576.761 429 574 429H407C404.239 429 402 431.239 402 434H396ZM582 541H399H582ZM396 541V434C396 427.925 400.925 423 407 423V429C404.239 429 402 431.239 402 434V541H396ZM574 423C580.075 423 585 427.925 585 434V541H579V434C579 431.239 576.761 429 574 429V423Z" fill="#D2113A" mask="url(#path-16-inside-3_314_13777)"/>
</svg>
