<svg width="240" height="147" viewBox="0 0 240 147" fill="none" xmlns="http://www.w3.org/2000/svg">
<g opacity="0.5" clip-path="url(#clip0_314_4536)">
<path d="M239.644 140.507C238.572 140.507 237.5 140.507 236.428 140.507C233.532 140.507 230.636 140.507 227.739 140.507C223.435 140.507 219.13 140.507 214.825 140.507C209.601 140.507 204.378 140.507 199.154 140.507C193.403 140.507 187.651 140.507 181.899 140.507C176.125 140.507 170.351 140.507 164.576 140.507C159.164 140.507 153.752 140.507 148.34 140.507C143.791 140.507 139.243 140.507 134.695 140.507C131.408 140.507 128.121 140.507 124.835 140.507C123.289 140.507 121.744 140.507 120.198 140.507C119.506 140.507 118.813 140.507 118.121 140.507C115.628 140.507 113.135 140.507 110.642 140.507C106.634 140.507 102.626 140.507 98.618 140.507C93.5823 140.507 88.546 140.507 83.5103 140.507C77.8391 140.507 72.1675 140.507 66.4963 140.507C60.6942 140.507 54.8922 140.507 49.0897 140.507C43.5409 140.507 37.9925 140.507 32.4437 140.507C27.6522 140.507 22.8602 140.507 18.0687 140.507C14.429 140.507 10.7894 140.507 7.15015 140.507C5.14558 140.507 3.14101 140.507 1.13645 140.507C0.876603 140.507 0.616288 140.507 0.356445 140.507" stroke="#DBDBDB" stroke-miterlimit="10" stroke-linecap="round" stroke-linejoin="round"/>
<path d="M122.409 3.79163C122.408 2.781 121.749 1.85566 120.792 1.52302C119.835 1.19086 118.741 1.507 118.112 2.29948C117.504 3.06558 117.425 4.15348 117.918 4.99826C118.425 5.86942 119.456 6.33869 120.448 6.15117C121.443 5.96318 122.233 5.14431 122.382 4.145C122.4 4.02862 122.409 3.90989 122.409 3.79163Z" stroke="#DBDBDB" stroke-miterlimit="10" stroke-linecap="round" stroke-linejoin="round"/>
<path d="M24.7819 128.799C24.7819 128.333 24.7819 127.867 24.7819 127.401C24.7819 126.093 24.7819 124.785 24.7819 123.477C24.7819 121.439 24.7819 119.401 24.7819 117.363C24.7819 114.722 24.7819 112.081 24.7819 109.44C24.7819 106.335 24.7819 103.229 24.7819 100.124C24.7819 96.6495 24.7819 93.1756 24.7819 89.7016C24.7819 85.9954 24.7819 82.2892 24.7819 78.5826C24.7819 74.7843 24.7819 70.9855 24.7819 67.1872C24.7819 63.3869 24.7819 59.5867 24.7819 55.7859C24.7819 52.1386 24.7819 48.4919 24.7819 44.8446C24.7819 41.4424 24.7819 38.0403 24.7819 34.6381C24.7819 31.6207 24.7819 28.6032 24.7819 25.5858C24.7819 23.0863 24.7819 20.5868 24.7819 18.0873C24.7819 16.2072 24.7819 14.3271 24.7819 12.447C24.7819 11.325 24.7819 10.203 24.7819 9.08101C24.7819 8.90028 24.6996 8.33729 24.8304 8.24965C24.9023 8.20113 25.1731 8.24965 25.2573 8.24965C25.5413 8.24965 25.8253 8.24965 26.1093 8.24965C27.0783 8.24965 28.0473 8.24965 29.0168 8.24965C30.4735 8.24965 31.9307 8.24965 33.3873 8.24965C35.2969 8.24965 37.2065 8.24965 39.1161 8.24965C41.4145 8.24965 43.7129 8.24965 46.0113 8.24965C48.6705 8.24965 51.3303 8.24965 53.9895 8.24965C56.9528 8.24965 59.9166 8.24965 62.8799 8.24965C66.0851 8.24965 69.2903 8.24965 72.4955 8.24965C75.9225 8.24965 79.35 8.24965 82.777 8.24965C86.3489 8.24965 89.9214 8.24965 93.4933 8.24965C97.1935 8.24965 100.894 8.24965 104.594 8.24965C108.36 8.24965 112.126 8.24965 115.891 8.24965C119.657 8.24965 123.424 8.24965 127.19 8.24965C130.943 8.24965 134.696 8.24965 138.448 8.24965C142.122 8.24965 145.796 8.24965 149.471 8.24965C153.004 8.24965 156.537 8.24965 160.071 8.24965C163.446 8.24965 166.822 8.24965 170.197 8.24965C173.35 8.24965 176.504 8.24965 179.658 8.24965C182.531 8.24965 185.403 8.24965 188.276 8.24965C190.844 8.24965 193.413 8.24965 195.981 8.24965C198.176 8.24965 200.371 8.24965 202.566 8.24965C204.359 8.24965 206.152 8.24965 207.945 8.24965C209.277 8.24965 210.609 8.24965 211.941 8.24965C212.763 8.24965 213.585 8.24965 214.407 8.24965C214.522 8.24965 215.134 8.16399 215.22 8.25163C215.263 8.29619 215.22 8.60517 215.22 8.66359C215.22 9.02357 215.22 9.38304 215.22 9.74301C215.22 11.0854 215.22 12.4277 215.22 13.7701C215.22 15.8338 215.22 17.8976 215.22 19.9614C215.22 22.6104 215.22 25.2595 215.22 27.9085C215.22 31.0428 215.22 34.1766 215.22 37.3109C215.22 40.7963 215.22 44.2816 215.22 47.7665C215.22 51.4628 215.22 55.1596 215.22 58.8558C215.22 62.6724 215.22 66.489 215.22 70.3052C215.22 74.1025 215.22 77.8997 215.22 81.697C215.22 85.3364 215.22 88.9757 215.22 92.6146C215.22 96.0039 215.22 99.3937 215.22 102.783C215.22 105.771 215.22 108.759 215.22 111.747C215.22 114.236 215.22 116.726 215.22 119.215C215.22 121.068 215.22 122.921 215.22 124.774C215.22 125.865 215.22 126.955 215.22 128.045C215.22 128.247 215.303 128.71 215.154 128.796C215.064 128.848 214.793 128.796 214.693 128.796C214.402 128.796 214.11 128.796 213.819 128.796C212.832 128.796 211.845 128.796 210.858 128.796C209.378 128.796 207.897 128.796 206.417 128.796C204.5 128.796 202.583 128.796 200.667 128.796C198.345 128.796 196.022 128.796 193.7 128.796C191.028 128.796 188.356 128.796 185.684 128.796C182.723 128.796 179.762 128.796 176.801 128.796C173.574 128.796 170.346 128.796 167.119 128.796C163.684 128.796 160.25 128.796 156.816 128.796C153.238 128.796 149.661 128.796 146.084 128.796C142.38 128.796 138.676 128.796 134.972 128.796C131.222 128.796 127.471 128.796 123.72 128.796C119.937 128.796 116.155 128.796 112.372 128.796C108.622 128.796 104.872 128.796 101.121 128.796C97.4667 128.796 93.812 128.796 90.1574 128.796C86.6143 128.796 83.0713 128.796 79.5282 128.796C76.1747 128.796 72.8211 128.796 69.4676 128.796C66.3221 128.796 63.1771 128.796 60.0317 128.796C57.1575 128.796 54.2833 128.796 51.4091 128.796C48.8639 128.796 46.3188 128.796 43.7741 128.796C41.5839 128.796 39.3938 128.796 37.2036 128.796C35.4277 128.796 33.6517 128.796 31.8763 128.796C30.5675 128.796 29.2582 128.796 27.9494 128.796C27.1434 128.796 26.338 128.796 25.532 128.796C25.2818 128.799 25.0316 128.799 24.7819 128.799Z" stroke="#DBDBDB" stroke-miterlimit="10" stroke-linecap="round" stroke-linejoin="round"/>
<path d="M221.857 134.876C221.857 133.891 221.857 132.906 221.857 131.922C221.857 129.218 221.857 126.514 221.857 123.81C221.857 119.763 221.857 115.715 221.857 111.668C221.857 106.653 221.857 101.637 221.857 96.6218C221.857 91.0137 221.857 85.4055 221.857 79.7979C221.857 73.9885 221.857 68.1787 221.857 62.3694C221.857 56.7165 221.857 51.0636 221.857 45.4107C221.857 40.2742 221.857 35.1377 221.857 30.0011C221.857 25.7721 221.857 21.543 221.857 17.3144C221.857 14.3683 221.857 11.4226 221.857 8.47648C221.857 7.18929 221.864 5.90163 221.857 4.61444C221.846 2.63088 220.535 0.859814 218.568 0.402324C217.783 0.219516 216.916 0.291602 216.115 0.291602C214.371 0.291602 212.628 0.291602 210.884 0.291602C208.048 0.291602 205.211 0.291602 202.374 0.291602C198.613 0.291602 194.852 0.291602 191.091 0.291602C186.574 0.291602 182.057 0.291602 177.54 0.291602C172.437 0.291602 167.333 0.291602 162.229 0.291602C156.738 0.291602 151.248 0.291602 145.756 0.291602C139.986 0.291602 134.217 0.291602 128.447 0.291602C122.596 0.291602 116.745 0.291602 110.894 0.291602C105.131 0.291602 99.3669 0.291602 93.6036 0.291602C88.0964 0.291602 82.5896 0.291602 77.0824 0.291602C72.0003 0.291602 66.9187 0.291602 61.8367 0.291602C57.3598 0.291602 52.8835 0.291602 48.4066 0.291602C44.6885 0.291602 40.9699 0.291602 37.2518 0.291602C34.4531 0.291602 31.6543 0.291602 28.8561 0.291602C27.1572 0.291602 25.4578 0.291602 23.7589 0.291602C22.9005 0.291602 21.9967 0.22234 21.1657 0.472994C19.3024 1.03461 18.1491 2.75903 18.1425 4.66297C18.1383 6.02319 18.1425 7.38388 18.1425 8.7441C18.1425 11.7392 18.1425 14.7339 18.1425 17.729C18.1425 21.9991 18.1425 26.2687 18.1425 30.5387C18.1425 35.7021 18.1425 40.8655 18.1425 46.0284C18.1425 51.7096 18.1425 57.3907 18.1425 63.0719C18.1425 68.8954 18.1425 74.7188 18.1425 80.5423C18.1425 86.1325 18.1425 91.7228 18.1425 97.313C18.1425 102.27 18.1425 107.227 18.1425 112.185C18.1425 116.188 18.1425 120.192 18.1425 124.196C18.1425 126.842 18.1425 129.488 18.1425 132.134C18.1425 133.048 18.1425 133.962 18.1425 134.876" stroke="#DBDBDB" stroke-miterlimit="10" stroke-linecap="round" stroke-linejoin="round"/>
<path d="M120 135.327C121.14 135.327 122.279 135.327 123.419 135.327C126.488 135.327 129.556 135.327 132.625 135.327C137.137 135.327 141.649 135.327 146.161 135.327C151.661 135.327 157.16 135.327 162.66 135.327C168.601 135.327 174.542 135.327 180.483 135.327C186.407 135.327 192.33 135.327 198.254 135.327C203.673 135.327 209.093 135.327 214.512 135.327C218.961 135.327 223.41 135.327 227.859 135.327C230.803 135.327 233.747 135.327 236.691 135.327C237.459 135.327 238.227 135.327 238.995 135.327C239.143 135.327 239.385 135.281 239.527 135.327C239.708 135.386 239.644 135.357 239.644 135.636C239.644 136.907 239.644 138.178 239.644 139.449C239.644 139.723 239.644 139.998 239.644 140.273C239.644 140.394 239.694 140.624 239.644 140.734C239.594 140.844 239.461 140.896 239.341 140.969C237.197 142.287 235.053 143.606 232.909 144.924C232.106 145.418 231.316 145.945 230.495 146.409C230.347 146.492 230.347 146.493 230.204 146.512C229.688 146.578 229.115 146.512 228.595 146.512C225.921 146.512 223.247 146.512 220.573 146.512C216.238 146.512 211.903 146.512 207.567 146.512C202.112 146.512 196.657 146.512 191.202 146.512C185.257 146.512 179.314 146.512 173.369 146.512C167.482 146.512 161.595 146.512 155.708 146.512C150.424 146.512 145.141 146.512 139.857 146.512C135.807 146.512 131.757 146.512 127.706 146.512C125.431 146.512 123.156 146.512 120.881 146.512C120.248 146.512 119.615 146.512 118.983 146.512C116.615 146.512 114.248 146.512 111.88 146.512C107.768 146.512 103.656 146.512 99.5434 146.512C94.2516 146.512 88.9597 146.512 83.6684 146.512C77.7374 146.512 71.8064 146.512 65.8758 146.512C59.942 146.512 54.0076 146.512 48.0738 146.512C42.6785 146.512 37.2832 146.512 31.8884 146.512C27.6038 146.512 23.3193 146.512 19.0347 146.512C16.4245 146.512 13.8142 146.512 11.204 146.512C10.7481 146.512 10.202 146.592 9.75125 146.512C9.58211 146.482 9.45975 146.38 9.30715 146.287C8.37172 145.712 7.43581 145.136 6.50038 144.561C5.26542 143.802 4.03046 143.042 2.79597 142.283C2.30274 141.98 1.80904 141.677 1.31581 141.373C1.05361 141.212 0.68085 141.061 0.461638 140.848C0.32841 140.718 0.357228 140.698 0.357228 140.475C0.357228 139.938 0.357228 139.4 0.357228 138.863C0.357228 138.156 0.357228 137.449 0.357228 136.742C0.357228 136.46 0.357228 136.178 0.357228 135.895C0.357228 135.79 0.300535 135.494 0.357228 135.397C0.445102 135.248 0.92652 135.328 1.13723 135.328C1.94888 135.328 2.76101 135.328 3.57266 135.328C6.58825 135.328 9.60384 135.328 12.6194 135.328C17.0935 135.328 21.5675 135.328 26.042 135.328C31.4883 135.328 36.935 135.328 42.3813 135.328C48.3454 135.328 54.3095 135.328 60.2736 135.328C66.2051 135.328 72.1361 135.328 78.0676 135.328C83.5101 135.328 88.9527 135.328 94.3956 135.328C98.8834 135.328 103.371 135.328 107.859 135.328C110.856 135.328 113.855 135.328 116.852 135.328C117.901 135.327 118.95 135.327 120 135.327Z" stroke="#DBDBDB" stroke-miterlimit="10" stroke-linecap="round" stroke-linejoin="round"/>
<path d="M221.857 134.973C221.857 134.316 221.857 133.562 221.857 132.905C221.857 131.069 221.857 129.233 221.857 127.396C221.857 124.581 221.857 121.766 221.857 118.951C221.857 115.359 221.857 111.766 221.857 108.173C221.857 104.003 221.857 99.8342 221.857 95.6645C221.857 91.1192 221.857 86.5735 221.857 82.0283C221.857 77.3078 221.857 72.5873 221.857 67.8673C221.857 63.1883 221.857 58.5088 221.857 53.8298C221.857 49.3609 221.857 44.8924 221.857 40.4235C221.857 36.382 221.857 32.3404 221.857 28.2989C221.857 24.8952 221.857 21.4921 221.857 18.0885C221.857 15.5009 221.857 12.9133 221.857 10.3258C221.857 8.76718 221.857 7.20908 221.857 5.6505C221.857 4.97581 221.903 4.27568 221.756 3.61324C221.458 2.27893 220.508 1.1458 219.243 0.619047C218.44 0.284528 217.623 0.291125 216.775 0.291125C215.034 0.291125 213.294 0.291125 211.553 0.291125C208.522 0.291125 205.491 0.291125 202.459 0.291125C198.498 0.291125 194.537 0.291125 190.576 0.291125C186.045 0.291125 181.515 0.291125 176.985 0.291125C172.262 0.291125 167.54 0.291125 162.817 0.291125C158.231 0.291125 153.645 0.291125 149.058 0.291125C144.985 0.291125 140.911 0.291125 136.838 0.291125C133.647 0.291125 130.456 0.291125 127.265 0.291125C125.295 0.291125 123.325 0.291125 121.355 0.291125C120.83 0.291125 120.304 0.291125 119.779 0.291125C118.451 0.291125 117.123 0.291125 115.796 0.291125C113.079 0.291125 110.363 0.291125 107.646 0.291125C103.902 0.291125 100.157 0.291125 96.413 0.291125C92.0018 0.291125 87.5902 0.291125 83.179 0.291125C78.4617 0.291125 73.7443 0.291125 69.027 0.291125C64.3645 0.291125 59.702 0.291125 55.0399 0.291125C50.8064 0.291125 46.5728 0.291125 42.3393 0.291125C38.8664 0.291125 35.3939 0.291125 31.921 0.291125C29.5848 0.291125 27.249 0.291125 24.9128 0.291125C24.0591 0.291125 23.2035 0.274637 22.3498 0.291599C21.0067 0.317984 19.733 0.962988 18.9449 2.05465C18.3705 2.8509 18.1437 3.77107 18.1437 4.73882C18.1432 5.79232 18.1437 6.84582 18.1437 7.89932C18.1437 10.0685 18.1437 12.2377 18.1437 14.4069C18.1437 17.4911 18.1437 20.5748 18.1437 23.6589C18.1437 27.4569 18.1437 31.2549 18.1437 35.0524C18.1437 39.363 18.1437 43.674 18.1437 47.9846C18.1437 52.6076 18.1437 57.2301 18.1437 61.853C18.1437 66.5712 18.1437 71.2898 18.1437 76.0079C18.1437 80.6525 18.1437 85.2977 18.1437 89.9423C18.1437 94.2972 18.1437 98.6516 18.1437 103.006C18.1437 106.859 18.1437 110.71 18.1437 114.562C18.1437 117.737 18.1437 120.911 18.1437 124.086C18.1437 126.368 18.1437 128.65 18.1437 130.933C18.1437 132.122 18.1437 133.784 18.1437 134.973C18.1437 135.149 18.1909 134.91 18.0719 134.973C17.976 135.024 17.7109 134.973 17.6042 134.973C17.3301 134.973 17.0561 134.973 16.7821 134.973C15.926 134.973 15.07 134.973 14.2144 134.973C10.0144 134.973 5.81439 134.973 1.61439 134.973C1.34699 134.973 1.07959 134.973 0.81219 134.973C0.734238 134.973 0.464473 134.928 0.399277 134.973C0.225891 135.095 0.357227 136.063 0.357227 136.294C0.357227 137.394 0.357227 138.493 0.357227 139.592C0.357227 139.98 0.205104 140.41 0.548569 140.629C2.09062 141.607 3.63219 142.586 5.17423 143.564C6.10731 144.157 7.03991 144.748 7.97298 145.341C8.48747 145.667 9.02558 146.123 9.58731 146.365C9.76069 146.44 9.92038 146.42 10.1183 146.42C10.6465 146.42 11.1747 146.42 11.7029 146.42C13.742 146.42 15.781 146.42 17.8205 146.42C20.958 146.42 24.0955 146.42 27.233 146.42C31.1816 146.42 35.1303 146.42 39.0785 146.42C43.5402 146.42 48.002 146.42 52.4637 146.42C57.1867 146.42 61.9092 146.42 66.6322 146.42C71.3193 146.42 76.0068 146.42 80.6939 146.42C85.0631 146.42 89.4322 146.42 93.8013 146.42C97.57 146.42 101.339 146.42 105.107 146.42C107.992 146.42 110.878 146.42 113.763 146.42C115.483 146.42 117.202 146.42 118.922 146.42C119.366 146.42 119.81 146.42 120.254 146.42C121.498 146.42 122.742 146.42 123.985 146.42C126.494 146.42 129.002 146.42 131.511 146.42C134.989 146.42 138.466 146.42 141.944 146.42C146.133 146.42 150.322 146.42 154.51 146.42C159.117 146.42 163.724 146.42 168.331 146.42C173.058 146.42 177.785 146.42 182.512 146.42C187.108 146.42 191.705 146.42 196.302 146.42C200.47 146.42 204.638 146.42 208.807 146.42C212.264 146.42 215.721 146.42 219.178 146.42C221.642 146.42 224.105 146.42 226.569 146.42C227.753 146.42 228.949 146.47 230.132 146.42C230.524 146.403 230.807 146.116 231.14 145.905C232.942 144.761 234.745 143.617 236.547 142.473C237.332 141.975 238.117 141.477 238.902 140.979C239.144 140.825 239.561 140.67 239.645 140.41C239.736 140.13 239.645 139.661 239.645 139.369C239.645 138.81 239.645 138.251 239.645 137.692C239.645 137.133 239.645 136.574 239.645 136.015C239.645 135.763 239.756 135.202 239.645 134.973C239.573 134.823 239.693 135.038 239.559 134.973C239.453 134.922 239.186 134.973 239.069 134.973C238.399 134.973 237.728 134.973 237.058 134.973C234.877 134.973 232.697 134.973 230.516 134.973C227.629 134.973 224.743 134.973 221.857 134.973Z" stroke="#DBDBDB" stroke-width="1.5" stroke-miterlimit="10" stroke-linecap="round" stroke-linejoin="round"/>
</g>
<defs>
<clipPath id="clip0_314_4536">
<rect width="240" height="147" fill="white"/>
</clipPath>
</defs>
</svg>
