<svg width="50" height="99" viewBox="0 0 50 99" fill="none" xmlns="http://www.w3.org/2000/svg">
<g opacity="0.5">
<path d="M40.6297 1.52979L40.6761 1.52994L40.7226 1.53071L40.7694 1.53211L40.8164 1.53381L40.8635 1.53613L40.9108 1.53907L40.9583 1.54247L41.0059 1.54634L41.0537 1.55082L41.1016 1.55593L41.1497 1.5615L41.1979 1.56768L41.2462 1.57449L41.2946 1.58191L41.3431 1.5898L41.3917 1.59831L41.4402 1.60744L41.489 1.61718L41.5378 1.62755L41.5866 1.63838L41.6354 1.64998L41.6843 1.6622L41.733 1.67488L41.7819 1.68834L41.8308 1.70242L41.8795 1.71696L41.9284 1.73227L41.9771 1.7482L42.0256 1.76476L42.0742 1.78193L42.1227 1.79972L42.1711 1.81828L42.2194 1.8373L42.2675 1.8571L42.3156 1.87737L42.3633 1.89841L42.4111 1.92006L42.4586 1.94234L42.5059 1.96523L42.553 1.98874L42.6 2.01287L42.6466 2.03778L42.693 2.06315L42.7392 2.08913L42.7851 2.1159L42.8308 2.14312L42.8762 2.17097L42.9211 2.19943L42.9659 2.22851L43.0104 2.25821L43.0543 2.28853L43.098 2.31947L43.1414 2.35087L43.1844 2.38289L43.227 2.41553L43.2691 2.44863L43.3109 2.48235L43.3522 2.51654L43.3931 2.55134L43.4335 2.58676L43.4736 2.6225L43.5131 2.65885L43.5522 2.69582L43.5907 2.7331L43.6288 2.771L43.6664 2.80936L43.7034 2.84819L43.74 2.88732L43.7759 2.92708L43.8114 2.96714L43.8464 3.00782L43.8808 3.04866L43.9145 3.09012L43.9478 3.13188L43.9804 3.17411L44.0124 3.2165L44.044 3.2595L44.0747 3.30266L44.105 3.34628L44.1346 3.39006L44.1638 3.4343L44.1922 3.47885L44.2199 3.52355L44.247 3.56872L44.2737 3.61389L44.2995 3.65952L44.3247 3.70531L44.3495 3.75141L44.3735 3.7975L44.3968 3.84406L44.4195 3.89063L44.4416 3.93734L44.4629 3.98437L44.4837 4.03139L44.5039 4.07873L44.5232 4.12606L44.542 4.17355L44.5603 4.22104L44.5778 4.26868L44.5947 4.31648L44.6107 4.36428L44.6264 4.41208L44.6413 4.46003L44.6557 4.50783L44.6692 4.55578L44.6823 4.60374L44.6948 4.65169L44.7064 4.69964L44.7176 4.74744L44.7282 4.79524L44.7381 4.84304L44.7474 4.89083L44.7561 4.93848L44.7641 4.98612L44.7717 5.03346L44.7785 5.08095L44.7848 5.12813L44.7906 5.17531L44.7957 5.22233L44.8004 5.2692L44.8043 5.31607L44.8078 5.36263L44.8108 5.40904L44.8132 5.45529L44.8149 5.50139L44.8162 5.54733L44.817 5.59296L44.8173 5.63844V92.5295L44.817 92.575L44.8162 92.6208L44.8149 92.6666L44.8132 92.7126L44.8108 92.7589L44.8078 92.8053L44.8043 92.852L44.8004 92.8987L44.7957 92.9456L44.7906 92.9926L44.7848 93.0398L44.7785 93.087L44.7717 93.1345L44.7641 93.182L44.7561 93.2295L44.7474 93.2771L44.7381 93.3249L44.7282 93.3727L44.7176 93.4205L44.7064 93.4683L44.6948 93.5162L44.6823 93.5642L44.6692 93.6122L44.6557 93.6601L44.6413 93.7079L44.6264 93.7559L44.6107 93.8037L44.5947 93.8515L44.5778 93.8993L44.5603 93.9469L44.542 93.9944L44.5232 94.0419L44.5039 94.0892L44.4837 94.1365L44.4629 94.1836L44.4416 94.2306L44.4195 94.2773L44.3968 94.324L44.3735 94.3704L44.3495 94.4167L44.3247 94.4626L44.2995 94.5084L44.2737 94.554L44.247 94.5994L44.2199 94.6444L44.1922 94.6891L44.1638 94.7336L44.1346 94.7779L44.105 94.8217L44.0747 94.8653L44.044 94.9084L44.0124 94.9514L43.9804 94.994L43.9478 95.0361L43.9145 95.0778L43.8808 95.1193L43.8464 95.1603L43.8114 95.2008L43.7759 95.2409L43.74 95.2806L43.7034 95.3199L43.6664 95.3586L43.6288 95.3969L43.5907 95.4348L43.5522 95.4721L43.5131 95.5091L43.4736 95.5454L43.4335 95.5812L43.3931 95.6166L43.3522 95.6514L43.3109 95.6856L43.2691 95.7193L43.227 95.7524L43.1844 95.785L43.1414 95.8171L43.098 95.8485L43.0543 95.8794L43.0104 95.9097L42.9659 95.9394L42.9211 95.9685L42.8762 95.997L42.8308 96.0248L42.7851 96.0522L42.7392 96.0788L42.693 96.1048L42.6466 96.1303L42.6 96.1551L42.553 96.1792L42.5059 96.2027L42.4586 96.2256L42.4111 96.2479L42.3633 96.2695L42.3156 96.2906L42.2675 96.311L42.2194 96.3306L42.1711 96.3497L42.1227 96.3682L42.0742 96.386L42.0256 96.4032L41.9771 96.4197L41.9284 96.4357L41.8795 96.451L41.8308 96.4655L41.7819 96.4796L41.733 96.4931L41.6843 96.5057L41.6354 96.518L41.5866 96.5296L41.5378 96.5404L41.489 96.5508L41.4402 96.5605L41.3917 96.5696L41.3431 96.5781L41.2946 96.586L41.2462 96.5934L41.1979 96.6003L41.1497 96.6064L41.1016 96.612L41.0537 96.6171L41.0059 96.6216L40.9583 96.6256L40.9108 96.6289L40.8635 96.6318L40.8164 96.6341L40.7694 96.636L40.7226 96.6372L40.6761 96.638L40.6297 96.6382H5.58842L5.54207 96.638L5.49556 96.6372L5.44874 96.636L5.40176 96.6341L5.35462 96.6318L5.30732 96.6289L5.25986 96.6256L5.21225 96.6216L5.16432 96.6171L5.1164 96.612L5.06847 96.6064L5.02023 96.6003L4.97198 96.5934L4.92358 96.586L4.87502 96.5781L4.82646 96.5696L4.77791 96.5605L4.72919 96.5508L4.68031 96.5404L4.6316 96.5296L4.58273 96.518L4.53385 96.5057L4.48513 96.4931L4.43626 96.4796L4.38739 96.4655L4.33851 96.451L4.2898 96.4357L4.24108 96.4197L4.19252 96.4032L4.14396 96.386L4.09541 96.3682L4.047 96.3497L3.99876 96.3306L3.95068 96.311L3.90259 96.2906L3.85482 96.2695L3.80705 96.2479L3.75959 96.2256L3.7123 96.2027L3.66516 96.1792L3.61818 96.1551L3.57151 96.1303L3.52516 96.1048L3.47896 96.0788L3.43293 96.0522L3.38737 96.0248L3.34196 95.997L3.29703 95.9685L3.25225 95.9394L3.20779 95.9097L3.16381 95.8794L3.12014 95.8485L3.07678 95.8171L3.03374 95.785L2.99117 95.7524L2.94908 95.7193L2.9073 95.6856L2.86599 95.6514L2.825 95.6166L2.78464 95.5812L2.74459 95.5454L2.70502 95.5091L2.66592 95.4721L2.62746 95.4348L2.5893 95.3969L2.55178 95.3586L2.51473 95.3199L2.47815 95.2806L2.44221 95.2409L2.40673 95.2008L2.37173 95.1603L2.33736 95.1193L2.30363 95.0778L2.27036 95.0361L2.23773 94.994L2.20572 94.9514L2.17419 94.9084L2.14345 94.8653L2.11318 94.8217L2.08354 94.7779L2.05437 94.7336L2.02599 94.6891L1.99824 94.6444L1.97097 94.5994L1.94448 94.554L1.91863 94.5084L1.89324 94.4626L1.86865 94.4167L1.84468 94.3704L1.82135 94.324L1.79865 94.2773L1.77658 94.2306L1.75514 94.1836L1.73448 94.1365L1.7143 94.0892L1.69491 94.0419L1.67615 93.9944L1.65786 93.9469L1.64036 93.8993L1.62349 93.8515L1.60725 93.8037L1.5918 93.7559L1.57682 93.7079L1.56248 93.6601L1.54892 93.6122L1.53583 93.5642L1.52338 93.5162L1.51171 93.4683L1.50052 93.4205L1.48995 93.3727L1.48002 93.3249L1.47072 93.2771L1.46205 93.2295L1.45401 93.182L1.44644 93.1345L1.43966 93.087L1.43336 93.0398L1.42752 92.9926L1.42232 92.9456L1.41775 92.8987L1.41381 92.852L1.41034 92.8053L1.40734 92.7589L1.40498 92.7126L1.40324 92.6666L1.40182 92.6208L1.40119 92.575L1.40088 92.5295V5.63844L1.40119 5.59296L1.40182 5.54733L1.40324 5.50139L1.40498 5.45529L1.40734 5.40904L1.41034 5.36263L1.41381 5.31607L1.41775 5.2692L1.42232 5.22233L1.42752 5.17531L1.43336 5.12813L1.43966 5.08095L1.44644 5.03346L1.45401 4.98612L1.46205 4.93848L1.47072 4.89083L1.48002 4.84304L1.48995 4.79524L1.50052 4.74744L1.51171 4.69964L1.52338 4.65169L1.53583 4.60374L1.54892 4.55578L1.56248 4.50783L1.57682 4.46003L1.5918 4.41208L1.60725 4.36428L1.62349 4.31648L1.64036 4.26868L1.65786 4.22104L1.67615 4.17355L1.69491 4.12606L1.7143 4.07873L1.73448 4.03139L1.75514 3.98437L1.77658 3.93734L1.79865 3.89063L1.82135 3.84406L1.84468 3.7975L1.86865 3.75141L1.89324 3.70531L1.91863 3.65952L1.94448 3.61389L1.97097 3.56872L1.99824 3.52355L2.02599 3.47885L2.05437 3.4343L2.08354 3.39006L2.11318 3.34628L2.14345 3.30266L2.17419 3.2595L2.20572 3.2165L2.23773 3.17411L2.27036 3.13188L2.30363 3.09012L2.33736 3.04866L2.37173 3.00782L2.40673 2.96714L2.44221 2.92708L2.47815 2.88732L2.51473 2.84819L2.55178 2.80936L2.5893 2.771L2.62746 2.7331L2.66592 2.69582L2.70502 2.65885L2.74459 2.6225L2.78464 2.58676L2.825 2.55134L2.86599 2.51654L2.9073 2.48235L2.94908 2.44863L2.99117 2.41553L3.03374 2.38289L3.07678 2.35087L3.12014 2.31947L3.16381 2.28853L3.20779 2.25821L3.25225 2.22851L3.29703 2.19943L3.34196 2.17097L3.38737 2.14312L3.43293 2.1159L3.47896 2.08913L3.52516 2.06315L3.57151 2.03778L3.61818 2.01287L3.66516 1.98874L3.7123 1.96523L3.75959 1.94234L3.80705 1.92006L3.85482 1.89841L3.90259 1.87737L3.95068 1.8571L3.99876 1.8373L4.047 1.81828L4.09541 1.79972L4.14396 1.78193L4.19252 1.76476L4.24108 1.7482L4.2898 1.73227L4.33851 1.71696L4.38739 1.70242L4.43626 1.68834L4.48513 1.67488L4.53385 1.6622L4.58273 1.64998L4.6316 1.63838L4.68031 1.62755L4.72919 1.61718L4.77791 1.60744L4.82646 1.59831L4.87502 1.5898L4.92358 1.58191L4.97198 1.57449L5.02023 1.56768L5.06847 1.5615L5.1164 1.55593L5.16432 1.55082L5.21225 1.54634L5.25986 1.54247L5.30732 1.53907L5.35462 1.53613L5.40176 1.53381L5.44874 1.53211L5.49556 1.53071L5.54207 1.52994L5.58842 1.52979H40.6297Z" stroke="#DBDBDB" stroke-miterlimit="10" stroke-linecap="round" stroke-linejoin="round"/>
<path d="M46.5301 36.2834H45.9468V42.5322H46.5301V36.2834Z" stroke="#DBDBDB" stroke-width="0.5" stroke-miterlimit="10" stroke-linecap="round" stroke-linejoin="round"/>
<path d="M46.5301 18.7854H45.9468V30.5963H46.5301V18.7854Z" stroke="#DBDBDB" stroke-width="0.5" stroke-miterlimit="10" stroke-linecap="round" stroke-linejoin="round"/>
<path d="M24.2245 3.44528C24.226 2.95012 23.8773 2.5105 23.3876 2.39046C22.6906 2.2183 22.0136 2.73062 22.0064 3.43584C22.0012 4.14895 22.6827 4.67411 23.3876 4.50025C23.8771 4.38005 24.226 3.94043 24.2245 3.44528Z" stroke="#DBDBDB" stroke-width="0.5" stroke-miterlimit="10" stroke-linecap="round" stroke-linejoin="round"/>
<path d="M45.9467 93.2393L45.9459 93.3186L45.9439 93.3981L45.9404 93.4775L45.9355 93.5567L45.9292 93.6359L45.9215 93.7151L45.9125 93.794L45.9021 93.8727L45.8903 93.9513L45.877 94.0297L45.8624 94.1078L45.8464 94.1858L45.8291 94.2633L45.8103 94.3406L45.7903 94.4177L45.7689 94.4942L45.7462 94.5705L45.722 94.6463L45.6967 94.7218L45.6699 94.7967L45.6418 94.8712L45.6125 94.9453L45.5819 95.0188L45.5499 95.0918L45.5166 95.1642L45.4821 95.2361L45.4465 95.3074L45.4094 95.3781L45.3711 95.448L45.3317 95.5175L45.291 95.5862L45.2491 95.6541L45.206 95.7214L45.1617 95.7879L45.1163 95.8536L45.0698 95.9186L45.022 95.9828L44.9733 96.0462L44.9234 96.1087L44.8723 96.1704L44.8202 96.2312L44.767 96.2911L44.7129 96.3502L44.6575 96.4082L44.6013 96.4654L44.544 96.5216L44.4859 96.5768L44.4266 96.6309L44.3665 96.6842L44.3055 96.7363L44.2434 96.7875L44.1806 96.8375L44.1168 96.8865L44.0523 96.9344L43.9869 96.9811L43.9207 97.0269L43.8535 97.0715L43.7857 97.115L43.7173 97.1572L43.6479 97.1982L43.5779 97.2382L43.5073 97.2769L43.4359 97.3145L43.3638 97.3507L43.2911 97.3858L43.218 97.4197L43.144 97.4523L43.0698 97.4836L42.9947 97.5137L42.9194 97.5425L42.8434 97.57L42.7669 97.5963L42.69 97.6212L42.6127 97.6449L42.535 97.6672L42.457 97.6882L42.3784 97.7079L42.2998 97.7263L42.2206 97.7431L42.1413 97.7589L42.0616 97.7731L41.9818 97.7861L41.9017 97.7978L41.8213 97.8081L41.7409 97.8169L41.6603 97.8245L41.5796 97.8307L41.4987 97.8355L41.4178 97.8389L41.337 97.8409L41.2559 97.8417H4.97448L4.89344 97.8409L4.81257 97.8389L4.73169 97.8355L4.65081 97.8307L4.57009 97.8245L4.48952 97.8169L4.40896 97.8081L4.32871 97.7978L4.24862 97.7861L4.16869 97.7731L4.08907 97.7589L4.00977 97.7431L3.93063 97.7263L3.8518 97.7079L3.77344 97.6882L3.69525 97.6672L3.61768 97.6449L3.54027 97.6212L3.46349 97.5963L3.38702 97.57L3.31103 97.5425L3.23567 97.5137L3.16063 97.4836L3.08621 97.4523L3.01243 97.4197L2.93912 97.3858L2.8666 97.3507L2.79455 97.3145L2.72313 97.2769L2.6525 97.2382L2.5825 97.1982L2.51313 97.1572L2.44455 97.115L2.37675 97.0715L2.30975 97.0269L2.24353 96.9811L2.17811 96.9344L2.11347 96.8865L2.04977 96.8375L1.98687 96.7875L1.92491 96.7363L1.86389 96.6842L1.80367 96.6309L1.74455 96.5768L1.68637 96.5216L1.62898 96.4654L1.57286 96.4082L1.51752 96.3502L1.46329 96.2911L1.41015 96.2312L1.35813 96.1704L1.30705 96.1087L1.25707 96.0462L1.2082 95.9828L1.16058 95.9186L1.11407 95.8536L1.06851 95.7879L1.02437 95.7214L0.981168 95.6541L0.939389 95.5862L0.898713 95.5175L0.859141 95.448L0.820988 95.3781L0.783939 95.3074L0.748151 95.2361L0.713623 95.1642L0.680515 95.0918L0.648511 95.0188L0.617767 94.9453L0.588443 94.8712L0.56038 94.7967L0.533736 94.7218L0.508195 94.6463L0.484231 94.5705L0.461371 94.4942L0.440087 94.4177L0.419907 94.3406L0.401303 94.2633L0.383961 94.1858L0.368038 94.1078L0.353375 94.0297L0.340132 93.9513L0.328308 93.8727L0.317902 93.794L0.308758 93.7151L0.301191 93.6359L0.294885 93.5567L0.289997 93.4775L0.286529 93.3981L0.284322 93.3186L0.283691 93.2393" stroke="#DBDBDB" stroke-width="0.2" stroke-miterlimit="10" stroke-linecap="round" stroke-linejoin="round"/>
<path d="M0.283691 5.58606L0.284322 5.50655L0.286529 5.4272L0.289997 5.34784L0.294885 5.26849L0.301191 5.18929L0.308758 5.11024L0.317902 5.03135L0.328308 4.95246L0.340132 4.87388L0.353375 4.79561L0.368038 4.71734L0.383961 4.63953L0.401303 4.56187L0.419907 4.48468L0.440087 4.40765L0.461371 4.33108L0.484231 4.25482L0.508195 4.17902L0.533736 4.10353L0.56038 4.02851L0.588443 3.95395L0.617767 3.88001L0.648511 3.80638L0.680515 3.73352L0.713623 3.66097L0.748151 3.5892L0.783939 3.51789L0.820988 3.4472L0.859141 3.37712L0.898713 3.30782L0.939389 3.23914L0.981168 3.17108L1.02437 3.10394L1.06851 3.03743L1.11407 2.97153L1.16058 2.90656L1.2082 2.84237L1.25707 2.7791L1.30705 2.71645L1.35813 2.65489L1.41015 2.59394L1.46329 2.53407L1.51752 2.47514L1.57286 2.41698L1.62898 2.3599L1.68637 2.30375L1.74455 2.24852L1.80367 2.19423L1.86389 2.14117L1.92491 2.08888L1.98687 2.03784L2.04977 1.98772L2.11347 1.93868L2.17811 1.89088L2.24353 1.84401L2.30975 1.79838L2.37675 1.75383L2.44455 1.71036L2.51313 1.66813L2.5825 1.62699L2.6525 1.58708L2.72313 1.54841L2.79455 1.51082L2.8666 1.47447L2.93912 1.43951L3.01243 1.40563L3.08621 1.37299L3.16063 1.34159L3.23567 1.31158L3.31103 1.28281L3.38702 1.25527L3.46349 1.22898L3.54027 1.20407L3.61768 1.1804L3.69525 1.15813L3.77344 1.13709L3.8518 1.11745L3.93063 1.09904L4.00977 1.08202L4.08907 1.0664L4.16869 1.05201L4.24862 1.03902L4.32871 1.02742L4.40896 1.01721L4.48952 1.00824L4.57009 1.00081L4.65081 0.994625L4.73169 0.98983L4.81257 0.986427L4.89344 0.984261L4.97448 0.983643H41.2559L41.337 0.984261L41.4178 0.986427L41.4987 0.98983L41.5796 0.994625L41.6603 1.00081L41.7409 1.00824L41.8213 1.01721L41.9017 1.02742L41.9818 1.03902L42.0616 1.05201L42.1413 1.0664L42.2206 1.08202L42.2998 1.09904L42.3784 1.11745L42.457 1.13709L42.535 1.15813L42.6127 1.1804L42.69 1.20407L42.7669 1.22898L42.8434 1.25527L42.9194 1.28281L42.9947 1.31158L43.0698 1.34159L43.144 1.37299L43.218 1.40563L43.2911 1.43951L43.3638 1.47447L43.4359 1.51082L43.5073 1.54841L43.5779 1.58708L43.6479 1.62699L43.7173 1.66813L43.7857 1.71036L43.8535 1.75383L43.9207 1.79838L43.9869 1.84401L44.0523 1.89088L44.1168 1.93868L44.1806 1.98772L44.2434 2.03784L44.3055 2.08888L44.3665 2.14117L44.4266 2.19423L44.4859 2.24852L44.544 2.30375L44.6013 2.3599L44.6575 2.41698L44.7129 2.47514L44.767 2.53407L44.8202 2.59394L44.8723 2.65489L44.9234 2.71645L44.9733 2.7791L45.022 2.84237L45.0698 2.90656L45.1163 2.97153L45.1617 3.03743L45.206 3.10394L45.2491 3.17108L45.291 3.23914L45.3317 3.30782L45.3711 3.37712L45.4094 3.4472L45.4465 3.51789L45.4821 3.5892L45.5166 3.66097L45.5499 3.73352L45.5819 3.80638L45.6125 3.88001L45.6418 3.95395L45.6699 4.02851L45.6967 4.10353L45.722 4.17902L45.7462 4.25482L45.7689 4.33108L45.7903 4.40765L45.8103 4.48468L45.8291 4.56187L45.8464 4.63953L45.8624 4.71734L45.877 4.79561L45.8903 4.87388L45.9021 4.95246L45.9125 5.03135L45.9215 5.11024L45.9292 5.18929L45.9355 5.26849L45.9404 5.34784L45.9439 5.4272L45.9459 5.50655L45.9467 5.58606" stroke="#DBDBDB" stroke-width="0.2" stroke-miterlimit="10" stroke-linecap="round" stroke-linejoin="round"/>
<path d="M4.97448 98.6676L4.89344 98.6668L4.81257 98.6648L4.73169 98.6614L4.65081 98.6566L4.57009 98.6504L4.48952 98.6429L4.40896 98.634L4.32871 98.6237L4.24862 98.6121L4.16869 98.5991L4.08907 98.5849L4.00977 98.5692L3.93063 98.5522L3.8518 98.5338L3.77344 98.5142L3.69525 98.4931L3.61768 98.4709L3.54027 98.4472L3.46349 98.4223L3.38702 98.396L3.31103 98.3685L3.23567 98.3397L3.16063 98.3095L3.08621 98.2783L3.01243 98.2456L2.93912 98.2118L2.8666 98.1766L2.79455 98.1404L2.72313 98.1029L2.6525 98.0642L2.5825 98.0243L2.51313 97.9831L2.44455 97.9409L2.37675 97.8974L2.30975 97.8529L2.24353 97.8072L2.17811 97.7604L2.11347 97.7124L2.04977 97.6634L1.98687 97.6134L1.92491 97.5622L1.86389 97.5101L1.80367 97.4569L1.74455 97.4027L1.68637 97.3475L1.62898 97.2914L1.57286 97.2341L1.51752 97.1761L1.46329 97.1172L1.41015 97.0572L1.35813 96.9964L1.30705 96.9347L1.25707 96.8722L1.2082 96.8087L1.16058 96.7445L1.11407 96.6796L1.06851 96.6138L1.02437 96.5473L0.981168 96.48L0.939389 96.4121L0.898713 96.3434L0.859141 96.274L0.820988 96.2041L0.783939 96.1334L0.748151 96.0621L0.713623 95.9901L0.680515 95.9177L0.648511 95.8447L0.617767 95.7713L0.588443 95.6972L0.56038 95.6227L0.533736 95.5477L0.508195 95.4722L0.484231 95.3964L0.461371 95.3202L0.440087 95.2436L0.419907 95.1666L0.401303 95.0892L0.383961 95.0117L0.368038 94.9338L0.353375 94.8557L0.340132 94.7772L0.328308 94.6986L0.317902 94.6199L0.308758 94.541L0.301191 94.4618L0.294885 94.3826L0.289997 94.3034L0.286529 94.2241L0.284322 94.1446L0.283691 94.0652V4.88074L0.284322 4.80123L0.286529 4.72187L0.289997 4.64252L0.294885 4.56316L0.301191 4.48396L0.308758 4.40492L0.317902 4.32587L0.328308 4.24714L0.340132 4.16856L0.353375 4.09013L0.368038 4.01201L0.383961 3.9342L0.401303 3.85655L0.419907 3.77921L0.440087 3.70233L0.461371 3.6256L0.484231 3.5495L0.508195 3.47355L0.533736 3.39821L0.56038 3.32319L0.588443 3.24863L0.617767 3.17469L0.648511 3.10106L0.680515 3.02804L0.713623 2.95565L0.748151 2.88372L0.783939 2.81257L0.820988 2.74187L0.859141 2.6718L0.898713 2.6025L0.939389 2.53382L0.981168 2.46576L1.02437 2.39847L1.06851 2.33195L1.11407 2.26621L1.16058 2.20124L1.2082 2.13705L1.25707 2.07362L1.30705 2.01113L1.35813 1.94941L1.41015 1.88862L1.46329 1.82875L1.51752 1.76966L1.57286 1.71165L1.62898 1.65457L1.68637 1.59827L1.74455 1.5432L1.80367 1.4889L1.86389 1.43569L1.92491 1.38356L1.98687 1.33251L2.04977 1.2824L2.11347 1.23336L2.17811 1.18541L2.24353 1.13869L2.30975 1.09306L2.37675 1.04835L2.44455 1.00504L2.51313 0.962657L2.5825 0.921665L2.6525 0.881755L2.72313 0.842929L2.79455 0.805495L2.8666 0.769143L2.93912 0.73403L3.01243 0.700153L3.08621 0.667669L3.16063 0.636266L3.23567 0.606102L3.31103 0.577331L3.38702 0.549796L3.46349 0.523654L3.54027 0.498595L3.61768 0.475082L3.69525 0.452653L3.77344 0.43177L3.8518 0.41197L3.93063 0.393716L4.00977 0.376701L4.08907 0.361078L4.16869 0.346691L4.24862 0.333698L4.32871 0.322096L4.40896 0.311887L4.48952 0.302915L4.57009 0.295491L4.65081 0.289303L4.73169 0.284507L4.81257 0.281104L4.89344 0.278939L4.97448 0.27832H41.2559L41.337 0.278939L41.4178 0.281104L41.4987 0.284507L41.5796 0.289303L41.6603 0.295491L41.7409 0.302915L41.8213 0.311887L41.9017 0.322096L41.9818 0.333698L42.0616 0.346691L42.1413 0.361078L42.2206 0.376701L42.2998 0.393716L42.3784 0.41197L42.457 0.43177L42.535 0.452653L42.6127 0.475082L42.69 0.498595L42.7669 0.523654L42.8434 0.549796L42.9194 0.577331L42.9947 0.606102L43.0698 0.636266L43.144 0.667669L43.218 0.700153L43.2911 0.73403L43.3638 0.769143L43.4359 0.805495L43.5073 0.842929L43.5779 0.881755L43.6479 0.921665L43.7173 0.962657L43.7857 1.00504L43.8535 1.04835L43.9207 1.09306L43.9869 1.13869L44.0523 1.18541L44.1168 1.23336L44.1806 1.2824L44.2434 1.33251L44.3055 1.38356L44.3665 1.43569L44.4266 1.4889L44.4859 1.5432L44.544 1.59827L44.6013 1.65457L44.6575 1.71165L44.7129 1.76966L44.767 1.82875L44.8202 1.88862L44.8723 1.94941L44.9234 2.01113L44.9733 2.07362L45.022 2.13705L45.0698 2.20124L45.1163 2.26621L45.1617 2.33195L45.206 2.39847L45.2491 2.46576L45.291 2.53382L45.3317 2.6025L45.3711 2.6718L45.4094 2.74187L45.4465 2.81257L45.4821 2.88372L45.5166 2.95565L45.5499 3.02804L45.5819 3.10106L45.6125 3.17469L45.6418 3.24863L45.6699 3.32319L45.6967 3.39821L45.722 3.47355L45.7462 3.5495L45.7689 3.6256L45.7903 3.70233L45.8103 3.77921L45.8291 3.85655L45.8464 3.9342L45.8624 4.01201L45.877 4.09013L45.8903 4.16856L45.9021 4.24714L45.9125 4.32587L45.9215 4.40492L45.9292 4.48396L45.9355 4.56316L45.9404 4.64252L45.9439 4.72187L45.9459 4.80123L45.9467 4.88074V94.0652L45.9459 94.1446L45.9439 94.2241L45.9404 94.3034L45.9355 94.3826L45.9292 94.4618L45.9215 94.541L45.9125 94.6199L45.9021 94.6986L45.8903 94.7772L45.877 94.8557L45.8624 94.9338L45.8464 95.0117L45.8291 95.0892L45.8103 95.1666L45.7903 95.2436L45.7689 95.3202L45.7462 95.3964L45.722 95.4722L45.6967 95.5477L45.6699 95.6227L45.6418 95.6972L45.6125 95.7713L45.5819 95.8447L45.5499 95.9177L45.5166 95.9901L45.4821 96.0621L45.4465 96.1334L45.4094 96.2041L45.3711 96.274L45.3317 96.3434L45.291 96.4121L45.2491 96.48L45.206 96.5473L45.1617 96.6138L45.1163 96.6796L45.0698 96.7445L45.022 96.8087L44.9733 96.8722L44.9234 96.9347L44.8723 96.9964L44.8202 97.0572L44.767 97.1172L44.7129 97.1761L44.6575 97.2341L44.6013 97.2914L44.544 97.3475L44.4859 97.4027L44.4266 97.4569L44.3665 97.5101L44.3055 97.5622L44.2434 97.6134L44.1806 97.6634L44.1168 97.7124L44.0523 97.7604L43.9869 97.8072L43.9207 97.8529L43.8535 97.8974L43.7857 97.9409L43.7173 97.9831L43.6479 98.0243L43.5779 98.0642L43.5073 98.1029L43.4359 98.1404L43.3638 98.1766L43.2911 98.2118L43.218 98.2456L43.144 98.2783L43.0698 98.3095L42.9947 98.3397L42.9194 98.3685L42.8434 98.396L42.7669 98.4223L42.69 98.4472L42.6127 98.4709L42.535 98.4931L42.457 98.5142L42.3784 98.5338L42.2998 98.5522L42.2206 98.5692L42.1413 98.5849L42.0616 98.5991L41.9818 98.6121L41.9017 98.6237L41.8213 98.634L41.7409 98.6429L41.6603 98.6504L41.5796 98.6566L41.4987 98.6614L41.4178 98.6648L41.337 98.6668L41.2559 98.6676H4.97448Z" stroke="#DBDBDB" stroke-width="0.5" stroke-miterlimit="10" stroke-linecap="round" stroke-linejoin="round"/>
<path d="M45.9467 18.7853V4.88074L45.9464 4.82969L45.9456 4.77849L45.944 4.72713L45.942 4.67547L45.9395 4.62365L45.9361 4.57167L45.9322 4.51954L45.9278 4.4671L45.9226 4.41466L45.9168 4.36191L45.9105 4.30917L45.9034 4.25611L45.8956 4.20305L45.8871 4.14984L45.8781 4.09663L45.8684 4.04326L45.858 3.98974L45.8469 3.93622L45.8351 3.88269L45.8226 3.82902L45.8094 3.77534L45.7955 3.72166L45.781 3.66799L45.7656 3.61431L45.7496 3.56063L45.7329 3.50696L45.7154 3.45344L45.6973 3.39991L45.6784 3.34639L45.6588 3.29303L45.6385 3.23981L45.6174 3.1866L45.5956 3.13354L45.5731 3.08064L45.5497 3.02789L45.5258 2.9753L45.5012 2.92286L45.4756 2.87057L45.4495 2.8186L45.4227 2.76678L45.3951 2.71527L45.3669 2.66391L45.3377 2.61286L45.308 2.56213L45.2776 2.5117L45.2464 2.46158L45.2146 2.41177L45.1821 2.36227L45.1488 2.31308L45.1149 2.2642L45.0804 2.21578L45.0452 2.16783L45.0093 2.12018L44.9727 2.073L44.9355 2.02613L44.8977 1.97973L44.8592 1.93394L44.8201 1.88846L44.7804 1.84345L44.74 1.79905L44.699 1.75512L44.6575 1.71165L44.6155 1.66865L44.5729 1.62627L44.5295 1.5845L44.4859 1.5432L44.4416 1.50236L44.3968 1.4623L44.3514 1.4227L44.3057 1.38372L44.2593 1.34535L44.2125 1.30761L44.1653 1.27049L44.1176 1.23398L44.0695 1.19809L44.0209 1.16282L43.9719 1.12833L43.9225 1.0943L43.8729 1.06104L43.8228 1.02855L43.7723 0.996534L43.7215 0.965287L43.6705 0.934813L43.6189 0.904959L43.5672 0.875723L43.5152 0.84726L43.463 0.819571L43.4103 0.792501L43.3577 0.76605L43.3045 0.740372L43.2514 0.715467L43.198 0.691181L43.1443 0.667669L43.0906 0.644929L43.0367 0.622809L42.9826 0.601462L42.9284 0.580734L42.8741 0.560779L42.8197 0.541598L42.7652 0.523035L42.7106 0.505246L42.6559 0.488076L42.6014 0.47168L42.5467 0.455901L42.492 0.440896L42.4373 0.426666L42.3825 0.413052L42.3278 0.400059L42.2731 0.387839L42.2186 0.376237L42.164 0.365409L42.1095 0.355044L42.0551 0.345609L42.0007 0.336637L41.9466 0.328439L41.8924 0.320858L41.8385 0.313898L41.7847 0.307556L41.7309 0.301987L41.6773 0.296882L41.6241 0.292551L41.5709 0.288683L41.5178 0.285436L41.465 0.282806L41.4125 0.280795L41.36 0.279403L41.308 0.27863L41.2559 0.27832H4.97448L4.92245 0.27863L4.87027 0.279403L4.81793 0.280795L4.76527 0.282806L4.71245 0.285436L4.65948 0.288683L4.60635 0.292551L4.5529 0.296882L4.49946 0.301987L4.4457 0.307556L4.39193 0.313898L4.33786 0.320858L4.28378 0.328439L4.22955 0.336637L4.17531 0.345609L4.12092 0.355044L4.06637 0.365409L4.01182 0.376237L3.95727 0.387839L3.90256 0.400059L3.84786 0.413052L3.79315 0.426666L3.73844 0.440896L3.68374 0.455901L3.62903 0.47168L3.57432 0.488076L3.51977 0.505246L3.46522 0.523035L3.41067 0.541598L3.35628 0.560779L3.30205 0.580734L3.24781 0.601462L3.19374 0.622809L3.13982 0.644929L3.08606 0.667669L3.03245 0.691181L2.97901 0.715467L2.92572 0.740372L2.87275 0.76605L2.81993 0.792501L2.76743 0.819571L2.71509 0.84726L2.66306 0.875723L2.61135 0.904959L2.55995 0.934813L2.50887 0.965287L2.45811 0.996534L2.40766 1.02855L2.35752 1.06104L2.3077 1.0943L2.25835 1.12833L2.20948 1.16282L2.16092 1.19809L2.11284 1.23398L2.06506 1.27049L2.01777 1.30761L1.9711 1.34535L1.92475 1.38372L1.87887 1.4227L1.83362 1.4623L1.78885 1.50236L1.74455 1.5432L1.70072 1.5845L1.65752 1.62627L1.61495 1.66865L1.57286 1.71165L1.53124 1.75512L1.4904 1.79905L1.45004 1.84345L1.41031 1.88846L1.37121 1.93394L1.33275 1.97973L1.29491 2.02613L1.2577 2.073L1.22112 2.12018L1.18518 2.16783L1.15002 2.21578L1.11533 2.2642L1.08144 2.31308L1.04833 2.36227L1.0157 2.41177L0.983848 2.46158L0.95279 2.5117L0.922362 2.56213L0.892565 2.61286L0.863555 2.66391L0.835335 2.71527L0.807745 2.76678L0.780786 2.8186L0.754615 2.87057L0.729231 2.92286L0.70448 2.9753L0.680516 3.02789L0.657339 3.08064L0.634795 3.13354L0.613038 3.1866L0.591911 3.23981L0.571574 3.29303L0.552024 3.34639L0.533105 3.39991L0.514974 3.45344L0.497474 3.50696L0.480764 3.56063L0.464682 3.61431L0.449389 3.66799L0.434885 3.72166L0.42101 3.77534L0.407767 3.82902L0.395313 3.88269L0.383488 3.93622L0.372452 3.98974L0.361889 4.04326L0.352272 4.09663L0.343128 4.14984L0.334772 4.20305L0.327046 4.25611L0.319952 4.30917L0.313488 4.36191L0.307813 4.41466L0.30261 4.4671L0.298195 4.51954L0.294253 4.57167L0.290943 4.62365L0.288263 4.67547L0.286214 4.72713L0.284794 4.77849L0.284007 4.82969L0.283691 4.88074V5.58596V94.0652L0.284007 94.1161L0.284794 94.1673L0.286214 94.2187L0.288263 94.2703L0.290943 94.3221L0.294253 94.3741L0.298195 94.4264L0.30261 94.4787L0.307813 94.5313L0.313488 94.5839L0.319952 94.6368L0.327046 94.6897L0.334772 94.7427L0.343128 94.7959L0.352272 94.8493L0.361889 94.9027L0.372452 94.956L0.383488 95.0096L0.395313 95.0632L0.407767 95.1168L0.42101 95.1704L0.434885 95.2241L0.449389 95.2778L0.464682 95.3315L0.480764 95.3851L0.497474 95.4388L0.514974 95.4925L0.533105 95.546L0.552024 95.5994L0.571574 95.6528L0.591911 95.7061L0.613038 95.7593L0.634795 95.8124L0.657339 95.8653L0.680516 95.918L0.70448 95.9706L0.729231 96.0229L0.754615 96.0752L0.780786 96.1272L0.807745 96.179L0.835335 96.2305L0.863555 96.2819L0.892565 96.3329L0.922362 96.3837L0.95279 96.4341L0.983848 96.4844L1.0157 96.5342L1.04833 96.5837L1.08144 96.6329L1.11533 96.6816L1.15002 96.73L1.18518 96.7781L1.22112 96.8257L1.2577 96.8729L1.29491 96.9197L1.33275 96.9661L1.37121 97.012L1.41031 97.0573L1.45004 97.1023L1.4904 97.1467L1.53124 97.1908L1.57286 97.2343L1.61495 97.2771L1.65752 97.3195L1.70072 97.3614L1.74455 97.4027L1.78885 97.4434L1.83362 97.4836L1.87887 97.5231L1.92475 97.5621L1.9711 97.6004L2.01777 97.6382L2.06506 97.6755L2.11284 97.712L2.16092 97.7477L2.20948 97.783L2.25835 97.8176L2.3077 97.8515L2.35752 97.8847L2.40766 97.9174L2.45811 97.9492L2.50887 97.9805L2.55995 98.0111L2.61135 98.041L2.66306 98.0701L2.71509 98.0985L2.76743 98.1264L2.81993 98.1534L2.87275 98.1797L2.92572 98.2054L2.97901 98.2303L3.03245 98.2546L3.08606 98.2781L3.13982 98.301L3.19374 98.323L3.24781 98.3445L3.30205 98.3651L3.35628 98.385L3.41067 98.4043L3.46522 98.4227L3.51977 98.4407L3.57432 98.4577L3.62903 98.4743L3.68374 98.4899L3.73844 98.5049L3.79315 98.5193L3.84786 98.5329L3.90256 98.5457L3.95727 98.5581L4.01182 98.5695L4.06637 98.5805L4.12092 98.5907L4.17531 98.6003L4.22955 98.6091L4.28378 98.6173L4.33786 98.6249L4.39193 98.6319L4.4457 98.6382L4.49946 98.6439L4.5529 98.6489L4.60635 98.6534L4.65948 98.6573L4.71245 98.6604L4.76527 98.663L4.81793 98.665L4.87027 98.6664L4.92245 98.6673L4.97448 98.6676H41.2559L41.308 98.6673L41.36 98.6664L41.4125 98.665L41.465 98.663L41.5178 98.6604L41.5709 98.6573L41.6241 98.6534L41.6773 98.6489L41.7309 98.6439L41.7847 98.6382L41.8385 98.6319L41.8924 98.6249L41.9466 98.6173L42.0007 98.6091L42.0551 98.6003L42.1095 98.5907L42.164 98.5805L42.2186 98.5695L42.2731 98.5581L42.3278 98.5457L42.3825 98.5329L42.4373 98.5193L42.492 98.5049L42.5467 98.4899L42.6014 98.4743L42.6559 98.4577L42.7106 98.4407L42.7652 98.4227L42.8197 98.4043L42.8741 98.385L42.9284 98.3651L42.9826 98.3445L43.0367 98.323L43.0906 98.301L43.1443 98.2781L43.198 98.2546L43.2514 98.2303L43.3045 98.2054L43.3577 98.1797L43.4103 98.1534L43.463 98.1264L43.5152 98.0985L43.5672 98.0701L43.6189 98.041L43.6705 98.0111L43.7215 97.9805L43.7723 97.9492L43.8228 97.9174L43.8729 97.8847L43.9225 97.8515L43.9719 97.8176L44.0209 97.783L44.0695 97.7477L44.1176 97.712L44.1653 97.6755L44.2125 97.6382L44.2593 97.6004L44.3057 97.5621L44.3514 97.5231L44.3968 97.4836L44.4416 97.4434L44.4859 97.4027L44.5295 97.3614L44.5729 97.3195L44.6155 97.2771L44.6575 97.2343L44.699 97.1908L44.74 97.1467L44.7804 97.1023L44.8201 97.0573L44.8592 97.012L44.8977 96.9661L44.9355 96.9197L44.9727 96.8729L45.0093 96.8257L45.0452 96.7781L45.0804 96.73L45.1149 96.6816L45.1488 96.6329L45.1821 96.5837L45.2146 96.5342L45.2464 96.4844L45.2776 96.4341L45.308 96.3837L45.3377 96.3329L45.3669 96.2819L45.3951 96.2305L45.4227 96.179L45.4495 96.1272L45.4756 96.0752L45.5012 96.0229L45.5258 95.9706L45.5497 95.918L45.5731 95.8653L45.5956 95.8124L45.6174 95.7593L45.6385 95.7061L45.6588 95.6528L45.6784 95.5994L45.6973 95.546L45.7154 95.4925L45.7329 95.4388L45.7496 95.3851L45.7656 95.3315L45.781 95.2778L45.7955 95.2241L45.8094 95.1704L45.8226 95.1168L45.8351 95.0632L45.8469 95.0096L45.858 94.956L45.8684 94.9027L45.8781 94.8493L45.8871 94.7959L45.8956 94.7427L45.9034 94.6897L45.9105 94.6368L45.9168 94.5839L45.9226 94.5313L45.9278 94.4787L45.9322 94.4264L45.9361 94.3741L45.9395 94.3221L45.942 94.2703L45.944 94.2187L45.9456 94.1673L45.9464 94.1161L45.9467 94.0652V93.2393V42.532H46.6668V36.2834H45.9467V30.5963H46.6668V18.7853H45.9467Z" stroke="#DBDBDB" stroke-width="0.5" stroke-miterlimit="10" stroke-linecap="round" stroke-linejoin="round"/>
</g>
</svg>
