<svg width="672" height="565" viewBox="0 0 672 565" fill="none" xmlns="http://www.w3.org/2000/svg">
<mask id="path-1-inside-1_428_3987" fill="white">
<path d="M60 20C60 8.95431 68.9543 0 80 0H652C663.046 0 672 8.9543 672 20V368C672 379.046 663.046 388 652 388H60V20Z"/>
</mask>
<path d="M60 20C60 8.95431 68.9543 0 80 0H652C663.046 0 672 8.9543 672 20V368C672 379.046 663.046 388 652 388H60V20Z" fill="#EEEEEA"/>
<path d="M58 20C58 7.84974 67.8497 -2 80 -2H652C664.15 -2 674 7.84974 674 20H670C670 10.0589 661.941 2 652 2H80C70.0589 2 62 10.0589 62 20H58ZM674 368C674 380.15 664.15 390 652 390H58L62 386H652C661.941 386 670 377.941 670 368H674ZM58 390V20C58 7.84974 67.8497 -2 80 -2V2C70.0589 2 62 10.0589 62 20V386L58 390ZM652 -2C664.15 -2 674 7.84974 674 20V368C674 380.15 664.15 390 652 390V386C661.941 386 670 377.941 670 368V20C670 10.0589 661.941 2 652 2V-2Z" fill="#DBDBDB" mask="url(#path-1-inside-1_428_3987)"/>
<path d="M290 1H427V8C427 10.7614 424.761 13 422 13H295C292.239 13 290 10.7614 290 8V1Z" stroke="#DBDBDB" stroke-width="2"/>
<mask id="path-4-inside-2_428_3987" fill="white">
<path d="M30 47C30 35.9543 38.9543 27 50 27H622C633.046 27 642 35.9543 642 47V395C642 406.046 633.046 415 622 415H30V47Z"/>
</mask>
<path d="M30 47C30 35.9543 38.9543 27 50 27H622C633.046 27 642 35.9543 642 47V395C642 406.046 633.046 415 622 415H30V47Z" fill="#EEEEEA"/>
<path d="M28 47C28 34.8497 37.8497 25 50 25H622C634.15 25 644 34.8497 644 47H640C640 37.0589 631.941 29 622 29H50C40.0589 29 32 37.0589 32 47H28ZM644 395C644 407.15 634.15 417 622 417H28L32 413H622C631.941 413 640 404.941 640 395H644ZM28 417V47C28 34.8497 37.8497 25 50 25V29C40.0589 29 32 37.0589 32 47V413L28 417ZM622 25C634.15 25 644 34.8497 644 47V395C644 407.15 634.15 417 622 417V413C631.941 413 640 404.941 640 395V47C640 37.0589 631.941 29 622 29V25Z" fill="#DBDBDB" mask="url(#path-4-inside-2_428_3987)"/>
<path d="M260 28H397V35C397 37.7614 394.761 40 392 40H265C262.239 40 260 37.7614 260 35V28Z" stroke="#DBDBDB" stroke-width="2"/>
<mask id="path-7-inside-3_428_3987" fill="white">
<path d="M0 80C0 68.9543 8.95431 60 20 60H592C603.046 60 612 68.9543 612 80V562H0V80Z"/>
</mask>
<path d="M0 80C0 68.9543 8.95431 60 20 60H592C603.046 60 612 68.9543 612 80V562H0V80Z" fill="#EEEEEA"/>
<path d="M-2 80C-2 67.8497 7.84974 58 20 58H592C604.15 58 614 67.8497 614 80H610C610 70.0589 601.941 62 592 62H20C10.0589 62 2 70.0589 2 80H-2ZM612 562H0H612ZM-2 562V80C-2 67.8497 7.84974 58 20 58V62C10.0589 62 2 70.0589 2 80V562H-2ZM592 58C604.15 58 614 67.8497 614 80V562H610V80C610 70.0589 601.941 62 592 62V58Z" fill="#1B1A1A" mask="url(#path-7-inside-3_428_3987)"/>
<path d="M230 61H367V68C367 70.7614 364.761 73 362 73H235C232.239 73 230 70.7614 230 68V61Z" stroke="#1B1A1A" stroke-width="2"/>
<rect x="24" y="88" width="94" height="41" rx="7" stroke="#1B1A1A" stroke-width="2"/>
<rect x="158.75" y="105.75" width="51.5" height="1.5" stroke="#1B1A1A" stroke-width="1.5"/>
<rect x="229.75" y="105.75" width="51.5" height="1.5" stroke="#1B1A1A" stroke-width="1.5"/>
<rect x="300.75" y="105.75" width="51.5" height="1.5" stroke="#1B1A1A" stroke-width="1.5"/>
<rect x="373.75" y="105.75" width="51.5" height="1.5" stroke="#1B1A1A" stroke-width="1.5"/>
<rect x="506.726" y="91.4142" width="14.7251" height="14.7251" rx="7.36254" transform="rotate(45 506.726 91.4142)" stroke="#1B1A1A" stroke-width="2"/>
<rect x="512.639" y="107.371" width="8.883" height="1" transform="rotate(45 512.639 107.371)" stroke="#1B1A1A"/>
<rect x="24" y="154" width="557" height="148" rx="7" stroke="#D2113A" stroke-width="2"/>
<path d="M23.5 328C23.5 323.858 26.8579 320.5 31 320.5H150C154.142 320.5 157.5 323.858 157.5 328V561.5H23.5V328Z" fill="#EEEEEA" stroke="#DBDBDB"/>
<path d="M186 452C186 448.686 188.686 446 192 446H315C318.314 446 321 448.686 321 452C321 455.314 318.314 458 315 458H192C188.686 458 186 455.314 186 452Z" fill="#DBDBDB"/>
<path d="M387 452C387 448.686 389.686 446 393 446H516C519.314 446 522 448.686 522 452C522 455.314 519.314 458 516 458H393C389.686 458 387 455.314 387 452Z" fill="#DBDBDB"/>
<path d="M186 469C186 465.686 188.686 463 192 463H261C264.314 463 267 465.686 267 469C267 472.314 264.314 475 261 475H192C188.686 475 186 472.314 186 469Z" fill="#DBDBDB"/>
<path d="M38.5 351C38.5 347.962 40.9624 345.5 44 345.5H83C86.0376 345.5 88.5 347.962 88.5 351C88.5 354.038 86.0376 356.5 83 356.5H44C40.9624 356.5 38.5 354.038 38.5 351Z" fill="#D2113A" stroke="#DBDBDB"/>
<path d="M38.5 405C38.5 401.962 40.9624 399.5 44 399.5H83C86.0376 399.5 88.5 401.962 88.5 405C88.5 408.038 86.0376 410.5 83 410.5H44C40.9624 410.5 38.5 408.038 38.5 405Z" fill="#DBDBDB" stroke="#DBDBDB"/>
<path d="M38.5 433C38.5 429.962 40.9624 427.5 44 427.5H83C86.0376 427.5 88.5 429.962 88.5 433C88.5 436.038 86.0376 438.5 83 438.5H44C40.9624 438.5 38.5 436.038 38.5 433Z" fill="#DBDBDB" stroke="#DBDBDB"/>
<path d="M91.5 351C91.5 347.962 93.9624 345.5 97 345.5H136C139.038 345.5 141.5 347.962 141.5 351C141.5 354.038 139.038 356.5 136 356.5H97C93.9624 356.5 91.5 354.038 91.5 351Z" fill="#DBDBDB" stroke="#DBDBDB"/>
<path d="M91.5 405C91.5 401.962 93.9624 399.5 97 399.5H136C139.038 399.5 141.5 401.962 141.5 405C141.5 408.038 139.038 410.5 136 410.5H97C93.9624 410.5 91.5 408.038 91.5 405Z" fill="#DBDBDB" stroke="#DBDBDB"/>
<path d="M91.5 433C91.5 429.962 93.9624 427.5 97 427.5H130C133.038 427.5 135.5 429.962 135.5 433C135.5 436.038 133.038 438.5 130 438.5H97C93.9624 438.5 91.5 436.038 91.5 433Z" fill="#DBDBDB" stroke="#DBDBDB"/>
<path d="M38.5 365C38.5 361.962 40.9624 359.5 44 359.5H71C74.0376 359.5 76.5 361.962 76.5 365C76.5 368.038 74.0376 370.5 71 370.5H44C40.9624 370.5 38.5 368.038 38.5 365Z" fill="#DBDBDB" stroke="#DBDBDB"/>
<path d="M38.5 419C38.5 415.962 40.9624 413.5 44 413.5H71C74.0376 413.5 76.5 415.962 76.5 419C76.5 422.038 74.0376 424.5 71 424.5H44C40.9624 424.5 38.5 422.038 38.5 419Z" fill="#DBDBDB" stroke="#DBDBDB"/>
<path d="M38.5 447C38.5 443.962 40.9624 441.5 44 441.5H71C74.0376 441.5 76.5 443.962 76.5 447C76.5 450.038 74.0376 452.5 71 452.5H44C40.9624 452.5 38.5 450.038 38.5 447Z" fill="#DBDBDB" stroke="#DBDBDB"/>
<rect x="38.5" y="480.5" width="26" height="11" rx="1.5" fill="#EEEEEA" stroke="#DBDBDB"/>
<rect x="117.5" y="480.5" width="26" height="11" rx="1.5" fill="#EEEEEA" stroke="#DBDBDB"/>
<mask id="path-33-inside-4_428_3987" fill="white">
<path d="M38 499.5C38 499.776 38.2239 500 38.5 500H143.5C143.776 500 144 499.776 144 499.5C144 499.224 143.776 499 143.5 499H38.5C38.2239 499 38 499.224 38 499.5Z"/>
</mask>
<path d="M38.5 499H143.5V501H38.5V499ZM143.5 500H38.5V498H143.5V500ZM38.5 500C38.7761 500 39 499.776 39 499.5H37C37 498.672 37.6716 498 38.5 498V500ZM143 499.5C143 499.776 143.224 500 143.5 500V498C144.328 498 145 498.672 145 499.5H143ZM143.5 499C143.224 499 143 499.224 143 499.5H145C145 500.328 144.328 501 143.5 501V499ZM38.5 501C37.6716 501 37 500.328 37 499.5H39C39 499.224 38.7761 499 38.5 499V501Z" fill="#1B1A1A" mask="url(#path-33-inside-4_428_3987)"/>
<path d="M41.5 499.5C41.5 498.395 42.3954 497.5 43.5 497.5C44.6046 497.5 45.5 498.395 45.5 499.5C45.5 500.605 44.6046 501.5 43.5 501.5C42.3954 501.5 41.5 500.605 41.5 499.5Z" fill="#DBDBDB" stroke="#D2113A"/>
<path d="M136.5 499.5C136.5 498.395 137.395 497.5 138.5 497.5C139.605 497.5 140.5 498.395 140.5 499.5C140.5 500.605 139.605 501.5 138.5 501.5C137.395 501.5 136.5 500.605 136.5 499.5Z" fill="#DBDBDB" stroke="#D2113A"/>
<path d="M79.5 365C79.5 361.962 81.9624 359.5 85 359.5H112C115.038 359.5 117.5 361.962 117.5 365C117.5 368.038 115.038 370.5 112 370.5H85C81.9624 370.5 79.5 368.038 79.5 365Z" fill="#DBDBDB" stroke="#DBDBDB"/>
<path d="M79.5 419C79.5 415.962 81.9624 413.5 85 413.5H126C129.038 413.5 131.5 415.962 131.5 419C131.5 422.038 129.038 424.5 126 424.5H85C81.9624 424.5 79.5 422.038 79.5 419Z" fill="#DBDBDB" stroke="#DBDBDB"/>
<path d="M79.5 447C79.5 443.962 81.9624 441.5 85 441.5H112C115.038 441.5 117.5 443.962 117.5 447C117.5 450.038 115.038 452.5 112 452.5H85C81.9624 452.5 79.5 450.038 79.5 447Z" fill="#DBDBDB" stroke="#DBDBDB"/>
<path d="M387 469C387 465.686 389.686 463 393 463H462C465.314 463 468 465.686 468 469C468 472.314 465.314 475 462 475H393C389.686 475 387 472.314 387 469Z" fill="#DBDBDB"/>
<rect x="187" y="321" width="193" height="118" rx="7" stroke="#1B1A1A" stroke-width="2"/>
<rect x="39" y="525" width="104" height="24" rx="12" stroke="#D2113A" stroke-width="2"/>
<rect x="388" y="321" width="193" height="118" rx="7" stroke="#1B1A1A" stroke-width="2"/>
<path d="M187 517C187 513.134 190.134 510 194 510H373C376.866 510 380 513.134 380 517V564H187V517Z" stroke="#1B1A1A" stroke-width="2"/>
<path d="M388 517C388 513.134 391.134 510 395 510H574C577.866 510 581 513.134 581 517V564H388V517Z" stroke="#1B1A1A" stroke-width="2"/>
<path d="M569.462 102.538L570.987 94.175C571.014 94.0314 571.008 93.8836 570.969 93.7428C570.93 93.602 570.859 93.472 570.763 93.3625C570.67 93.2495 570.554 93.1583 570.422 93.0957C570.29 93.033 570.146 93.0003 570 93H549.838L549.225 89.6375C549.14 89.1784 548.898 88.7634 548.539 88.4644C548.181 88.1653 547.729 88.001 547.262 88H545C544.735 88 544.48 88.1054 544.293 88.2929C544.105 88.4804 544 88.7348 544 89C544 89.2652 544.105 89.5196 544.293 89.7071C544.48 89.8946 544.735 90 545 90H547.262L550.688 108.875C550.199 109.305 549.84 109.863 549.652 110.486C549.463 111.108 549.451 111.771 549.618 112.4C549.785 113.029 550.125 113.599 550.598 114.046C551.071 114.493 551.659 114.799 552.296 114.93C552.934 115.061 553.595 115.011 554.206 114.787C554.817 114.563 555.353 114.173 555.755 113.661C556.157 113.149 556.407 112.535 556.479 111.889C556.551 111.242 556.442 110.588 556.163 110H562.837C562.512 110.685 562.419 111.457 562.571 112.2C562.722 112.943 563.111 113.617 563.679 114.12C564.247 114.623 564.962 114.928 565.718 114.989C566.474 115.05 567.23 114.863 567.871 114.458C568.511 114.053 569.003 113.45 569.272 112.741C569.541 112.032 569.573 111.255 569.362 110.526C569.151 109.798 568.709 109.158 568.102 108.702C567.496 108.246 566.758 108 566 108H552.562L552.012 105H566.513C567.215 105 567.894 104.753 568.434 104.303C568.973 103.853 569.337 103.228 569.462 102.538ZM554.5 111.5C554.5 111.797 554.412 112.087 554.247 112.333C554.082 112.58 553.848 112.772 553.574 112.886C553.3 112.999 552.998 113.029 552.707 112.971C552.416 112.913 552.149 112.77 551.939 112.561C551.73 112.351 551.587 112.084 551.529 111.793C551.471 111.502 551.501 111.2 551.614 110.926C551.728 110.652 551.92 110.418 552.167 110.253C552.413 110.088 552.703 110 553 110C553.398 110 553.779 110.158 554.061 110.439C554.342 110.721 554.5 111.102 554.5 111.5ZM567.5 111.5C567.5 111.797 567.412 112.087 567.247 112.333C567.082 112.58 566.848 112.772 566.574 112.886C566.3 112.999 565.998 113.029 565.707 112.971C565.416 112.913 565.149 112.77 564.939 112.561C564.73 112.351 564.587 112.084 564.529 111.793C564.471 111.502 564.501 111.2 564.614 110.926C564.728 110.652 564.92 110.418 565.167 110.253C565.413 110.088 565.703 110 566 110C566.398 110 566.779 110.158 567.061 110.439C567.342 110.721 567.5 111.102 567.5 111.5ZM550.2 95H568.8L567.5 102.175C567.459 102.407 567.337 102.617 567.157 102.767C566.976 102.918 566.748 103.001 566.513 103H551.65L550.2 95Z" fill="#D2113A"/>
<path d="M361 455C360.717 455 360.479 454.904 360.288 454.712C360.096 454.521 360 454.283 360 454V452H358C357.717 452 357.479 451.904 357.288 451.713C357.096 451.521 357 451.283 357 451C357 450.717 357.096 450.479 357.288 450.287C357.479 450.096 357.717 450 358 450H360V448C360 447.717 360.096 447.479 360.288 447.287C360.479 447.096 360.717 447 361 447C361.283 447 361.521 447.096 361.713 447.287C361.904 447.479 362 447.717 362 448V450H364C364.283 450 364.521 450.096 364.713 450.287C364.904 450.479 365 450.717 365 451C365 451.283 364.904 451.521 364.713 451.713C364.521 451.904 364.283 452 364 452H362V454C362 454.283 361.904 454.521 361.713 454.712C361.521 454.904 361.283 455 361 455ZM356 468C355.45 468 354.979 467.804 354.588 467.413C354.196 467.021 354 466.55 354 466C354 465.45 354.196 464.979 354.588 464.587C354.979 464.196 355.45 464 356 464C356.55 464 357.021 464.196 357.412 464.587C357.804 464.979 358 465.45 358 466C358 466.55 357.804 467.021 357.412 467.413C357.021 467.804 356.55 468 356 468ZM366 468C365.45 468 364.979 467.804 364.588 467.413C364.196 467.021 364 466.55 364 466C364 465.45 364.196 464.979 364.588 464.587C364.979 464.196 365.45 464 366 464C366.55 464 367.021 464.196 367.413 464.587C367.804 464.979 368 465.45 368 466C368 466.55 367.804 467.021 367.413 467.413C367.021 467.804 366.55 468 366 468ZM356 463C355.233 463 354.654 462.671 354.263 462.012C353.871 461.354 353.867 460.7 354.25 460.05L355.6 457.6L352 450H351C350.717 450 350.479 449.904 350.288 449.712C350.096 449.521 350 449.283 350 449C350 448.717 350.096 448.479 350.288 448.287C350.479 448.096 350.717 448 351 448H352.625C352.808 448 352.983 448.05 353.15 448.15C353.317 448.25 353.442 448.392 353.525 448.575L357.55 457H364.55L368.125 450.525C368.208 450.358 368.329 450.229 368.488 450.137C368.646 450.046 368.817 450 369 450C369.383 450 369.671 450.167 369.863 450.5C370.054 450.833 370.058 451.167 369.875 451.5L366.3 457.95C366.117 458.283 365.875 458.542 365.575 458.725C365.275 458.908 364.933 459 364.55 459H357.1L356 461H367C367.283 461 367.521 461.096 367.712 461.287C367.904 461.479 368 461.717 368 462C368 462.283 367.904 462.521 367.712 462.712C367.521 462.904 367.283 463 367 463H356Z" fill="#D2113A"/>
<path d="M561 455C560.717 455 560.479 454.904 560.288 454.712C560.096 454.521 560 454.283 560 454V452H558C557.717 452 557.479 451.904 557.288 451.713C557.096 451.521 557 451.283 557 451C557 450.717 557.096 450.479 557.288 450.287C557.479 450.096 557.717 450 558 450H560V448C560 447.717 560.096 447.479 560.288 447.287C560.479 447.096 560.717 447 561 447C561.283 447 561.521 447.096 561.713 447.287C561.904 447.479 562 447.717 562 448V450H564C564.283 450 564.521 450.096 564.713 450.287C564.904 450.479 565 450.717 565 451C565 451.283 564.904 451.521 564.713 451.713C564.521 451.904 564.283 452 564 452H562V454C562 454.283 561.904 454.521 561.713 454.712C561.521 454.904 561.283 455 561 455ZM556 468C555.45 468 554.979 467.804 554.588 467.413C554.196 467.021 554 466.55 554 466C554 465.45 554.196 464.979 554.588 464.587C554.979 464.196 555.45 464 556 464C556.55 464 557.021 464.196 557.412 464.587C557.804 464.979 558 465.45 558 466C558 466.55 557.804 467.021 557.412 467.413C557.021 467.804 556.55 468 556 468ZM566 468C565.45 468 564.979 467.804 564.588 467.413C564.196 467.021 564 466.55 564 466C564 465.45 564.196 464.979 564.588 464.587C564.979 464.196 565.45 464 566 464C566.55 464 567.021 464.196 567.413 464.587C567.804 464.979 568 465.45 568 466C568 466.55 567.804 467.021 567.413 467.413C567.021 467.804 566.55 468 566 468ZM556 463C555.233 463 554.654 462.671 554.263 462.012C553.871 461.354 553.867 460.7 554.25 460.05L555.6 457.6L552 450H551C550.717 450 550.479 449.904 550.288 449.712C550.096 449.521 550 449.283 550 449C550 448.717 550.096 448.479 550.288 448.287C550.479 448.096 550.717 448 551 448H552.625C552.808 448 552.983 448.05 553.15 448.15C553.317 448.25 553.442 448.392 553.525 448.575L557.55 457H564.55L568.125 450.525C568.208 450.358 568.329 450.229 568.488 450.137C568.646 450.046 568.817 450 569 450C569.383 450 569.671 450.167 569.863 450.5C570.054 450.833 570.058 451.167 569.875 451.5L566.3 457.95C566.117 458.283 565.875 458.542 565.575 458.725C565.275 458.908 564.933 459 564.55 459H557.1L556 461H567C567.283 461 567.521 461.096 567.712 461.287C567.904 461.479 568 461.717 568 462C568 462.283 567.904 462.521 567.712 462.712C567.521 462.904 567.283 463 567 463H556Z" fill="#D2113A"/>
<circle cx="571.5" cy="92.5" r="4" fill="#D2113A" stroke="#EEEEEA" stroke-width="3"/>
</svg>
