<svg width="93" height="129" viewBox="0 0 93 129" fill="none" xmlns="http://www.w3.org/2000/svg">
<g opacity="0.5" clip-path="url(#clip0_314_4555)">
<path d="M7.07566 126.936L6.99009 126.935L6.9042 126.933L6.81862 126.929L6.73306 126.924L6.64748 126.917L6.56223 126.909L6.47698 126.9L6.39206 126.889L6.30713 126.876L6.22252 126.862L6.13824 126.847L6.05428 126.83L5.97033 126.812L5.88701 126.792L5.80402 126.771L5.72135 126.748L5.63901 126.724L5.55731 126.699L5.47594 126.672L5.39489 126.644L5.31448 126.614L5.23439 126.583L5.15528 126.551L5.07649 126.517L4.99834 126.482L4.92052 126.446L4.84367 126.408L4.76746 126.369L4.6919 126.329L4.61698 126.287L4.54303 126.244L4.46973 126.2L4.39707 126.155L4.32507 126.108L4.25434 126.06L4.18427 126.011L4.11485 125.961L4.04639 125.909L3.97889 125.856L3.91237 125.803L3.84682 125.748L3.78224 125.691L3.71831 125.634L3.65566 125.576L3.59398 125.517L3.53359 125.456L3.47385 125.395L3.4154 125.332L3.35792 125.269L3.30174 125.205L3.24652 125.139L3.19259 125.073L3.13963 125.006L3.08796 124.938L3.0376 124.868L2.98819 124.799L2.94008 124.728L2.89325 124.656L2.84772 124.584L2.80316 124.511L2.76021 124.437L2.71823 124.363L2.67786 124.288L2.63879 124.211L2.60068 124.135L2.5642 124.057L2.529 123.98L2.49542 123.901L2.46281 123.822L2.4318 123.743L2.40209 123.662L2.37368 123.582L2.34688 123.501L2.32136 123.419L2.29715 123.337L2.27454 123.255L2.25323 123.172L2.23353 123.089L2.21512 123.006L2.19834 122.922L2.18284 122.838L2.16863 122.754L2.15636 122.669L2.14505 122.584L2.13569 122.5L2.1273 122.415L2.12083 122.329L2.11567 122.244L2.11179 122.159L2.10953 122.073L2.10889 121.988V7.0918L2.10953 7.00655L2.11179 6.92098L2.11567 6.83573L2.12083 6.75048L2.1273 6.66523L2.13569 6.58031L2.14505 6.49538L2.15636 6.41077L2.16863 6.32617L2.18284 6.24188L2.19834 6.15792L2.21512 6.07428L2.23353 5.99096L2.25323 5.90764L2.27454 5.82496L2.29715 5.74261L2.32136 5.66058L2.34688 5.57919L2.37368 5.49812L2.40209 5.41737L2.4318 5.33727L2.46281 5.25781L2.49542 5.17868L2.529 5.10018L2.5642 5.02233L2.60068 4.94513L2.63879 4.86824L2.67786 4.79232L2.71823 4.71704L2.76021 4.64241L2.80316 4.56874L2.84772 4.49572L2.89325 4.42333L2.94008 4.35192L2.98819 4.28114L3.0376 4.21134L3.08796 4.14217L3.13963 4.07397L3.19259 4.00674L3.24652 3.94047L3.30174 3.87516L3.35792 3.81083L3.4154 3.74745L3.47385 3.68472L3.53359 3.62328L3.59398 3.56312L3.65566 3.50361L3.71831 3.44538L3.78224 3.38812L3.84682 3.33214L3.91237 3.27713L3.97889 3.22341L4.04639 3.17065L4.11485 3.11918L4.18427 3.069L4.25434 3.01978L4.32507 2.97184L4.39707 2.9252L4.46973 2.87984L4.54303 2.83545L4.61698 2.79266L4.6919 2.75084L4.76746 2.71063L4.84367 2.6717L4.92052 2.63374L4.99834 2.59739L5.07649 2.56232L5.15528 2.52887L5.23439 2.49638L5.31448 2.46549L5.39489 2.4359L5.47594 2.40759L5.55731 2.38089L5.63901 2.35547L5.72135 2.33135L5.80402 2.30883L5.88701 2.2876L5.97033 2.26797L6.05428 2.24964L6.13824 2.23291L6.22252 2.21747L6.30713 2.20331L6.39206 2.19109L6.47698 2.17983L6.56223 2.1705L6.64748 2.16214L6.73306 2.1557L6.81862 2.15055L6.9042 2.14669L6.99009 2.14476L7.07566 2.1438H85.5938L85.6794 2.14476L85.7653 2.14669L85.8509 2.15055L85.9364 2.1557L86.022 2.16214L86.1073 2.1705L86.1925 2.17983L86.2774 2.19109L86.3624 2.20331L86.447 2.21747L86.5313 2.23291L86.6152 2.24964L86.6988 2.26797L86.7825 2.2876L86.8655 2.30883L86.9481 2.33135L87.0305 2.35547L87.1122 2.38089L87.1936 2.40759L87.2746 2.4359L87.355 2.46549L87.4348 2.49638L87.5142 2.52887L87.593 2.56232L87.6711 2.59739L87.7486 2.63374L87.8255 2.6717L87.902 2.71063L87.9776 2.75084L88.0522 2.79266L88.1265 2.83545L88.1998 2.87984L88.2724 2.9252L88.3441 2.97184L88.4152 3.01978L88.4852 3.069L88.5547 3.11918L88.6231 3.17065L88.6906 3.22341L88.7571 3.27713L88.8227 3.33214L88.8872 3.38812L88.9509 3.44538L89.0135 3.50361L89.0752 3.56312L89.1359 3.62328L89.1956 3.68472L89.2541 3.74745L89.3116 3.81083L89.3678 3.87516L89.423 3.94047L89.4769 4.00674L89.5299 4.07397L89.5815 4.14217L89.6319 4.21134L89.6813 4.28114L89.7294 4.35192L89.7763 4.42333L89.8218 4.49572L89.8663 4.56874L89.9093 4.64241L89.9509 4.71704L89.9916 4.79232L90.0307 4.86824L90.0685 4.94513L90.1053 5.02233L90.1405 5.10018L90.1741 5.17868L90.2067 5.25781L90.2377 5.33727L90.2674 5.41737L90.2958 5.49812L90.3226 5.57919L90.3481 5.66058L90.3723 5.74261L90.3949 5.82496L90.4163 5.90764L90.436 5.99096L90.4544 6.07428L90.4712 6.15792L90.4867 6.24188L90.5005 6.32617L90.5131 6.41077L90.5241 6.49538L90.5338 6.58031L90.5419 6.66523L90.5487 6.75048L90.5538 6.83573L90.5574 6.92098L90.5596 7.00655L90.5606 7.0918V121.988L90.5596 122.073L90.5574 122.159L90.5538 122.244L90.5487 122.329L90.5419 122.415L90.5338 122.5L90.5241 122.584L90.5131 122.669L90.5005 122.754L90.4867 122.838L90.4712 122.922L90.4544 123.006L90.436 123.089L90.4163 123.172L90.3949 123.255L90.3723 123.337L90.3481 123.419L90.3226 123.501L90.2958 123.582L90.2674 123.662L90.2377 123.743L90.2067 123.822L90.1741 123.901L90.1405 123.98L90.1053 124.057L90.0685 124.135L90.0307 124.211L89.9916 124.288L89.9509 124.363L89.9093 124.437L89.8663 124.511L89.8218 124.584L89.7763 124.656L89.7294 124.728L89.6813 124.799L89.6319 124.868L89.5815 124.938L89.5299 125.006L89.4769 125.073L89.423 125.139L89.3678 125.205L89.3116 125.269L89.2541 125.332L89.1956 125.395L89.1359 125.456L89.0752 125.517L89.0135 125.576L88.9509 125.634L88.8872 125.691L88.8227 125.748L88.7571 125.803L88.6906 125.856L88.6231 125.909L88.5547 125.961L88.4852 126.011L88.4152 126.06L88.3441 126.108L88.2724 126.155L88.1998 126.2L88.1265 126.244L88.0522 126.287L87.9776 126.329L87.902 126.369L87.8255 126.408L87.7486 126.446L87.6711 126.482L87.593 126.517L87.5142 126.551L87.4348 126.583L87.355 126.614L87.2746 126.644L87.1936 126.672L87.1122 126.699L87.0305 126.724L86.9481 126.748L86.8655 126.771L86.7825 126.792L86.6988 126.812L86.6152 126.83L86.5313 126.847L86.447 126.862L86.3624 126.876L86.2774 126.889L86.1925 126.9L86.1073 126.909L86.022 126.917L85.9364 126.924L85.8509 126.929L85.7653 126.933L85.6794 126.935L85.5938 126.936H7.07566Z" stroke="#DBDBDB" stroke-miterlimit="10" stroke-linecap="round" stroke-linejoin="round"/>
<path d="M92.2852 14.8286H91.8809V20.9537H92.2852V14.8286Z" stroke="#DBDBDB" stroke-miterlimit="10" stroke-linecap="round" stroke-linejoin="round"/>
<path d="M92.2852 26.3179H91.8809V38.5095H92.2852V26.3179Z" stroke="#DBDBDB" stroke-miterlimit="10" stroke-linecap="round" stroke-linejoin="round"/>
<path d="M54.3787 6.51368C54.3791 6.37149 54.3303 6.22962 54.2422 6.11767C54.1547 6.0054 54.0287 5.92337 53.8905 5.88862C53.4804 5.78504 53.0806 6.09772 53.0845 6.51915C53.0877 6.93574 53.4849 7.24103 53.8905 7.13841C54.029 7.10367 54.155 7.02196 54.2422 6.90936C54.3303 6.79773 54.3791 6.65587 54.3787 6.51368Z" stroke="#DBDBDB" stroke-miterlimit="10" stroke-linecap="round" stroke-linejoin="round"/>
<path d="M58.0303 6.5137C58.0306 6.31843 57.9638 6.12412 57.843 5.97035C57.7229 5.81626 57.5501 5.70367 57.3603 5.65605C56.8032 5.51547 56.2591 5.93368 56.2539 6.50597C56.2491 7.08503 56.7968 7.51353 57.3603 7.37134C57.5501 7.32373 57.7232 7.21145 57.843 7.05704C57.9635 6.90359 58.0306 6.70896 58.0303 6.5137Z" stroke="#DBDBDB" stroke-miterlimit="10" stroke-linecap="round" stroke-linejoin="round"/>
<path d="M48.9665 120.4L48.9956 120.401L49.0246 120.401L49.0534 120.403L49.0821 120.405L49.1112 120.407L49.1399 120.409L49.1687 120.413L49.1974 120.416L49.2258 120.421L49.2545 120.425L49.283 120.431L49.3114 120.436L49.3395 120.442L49.3676 120.449L49.3957 120.456L49.4234 120.464L49.4512 120.472L49.479 120.48L49.5064 120.49L49.5339 120.499L49.561 120.509L49.5878 120.519L49.6146 120.53L49.6411 120.542L49.6676 120.554L49.6937 120.566L49.7195 120.579L49.7454 120.592L49.7709 120.605L49.7961 120.619L49.8213 120.634L49.8458 120.649L49.8704 120.664L49.8946 120.68L49.9185 120.696L49.942 120.712L49.9656 120.729L49.9885 120.747L50.0115 120.765L50.0337 120.783L50.056 120.802L50.0777 120.82L50.0993 120.84L50.1203 120.859L50.1413 120.879L50.1616 120.9L50.1816 120.92L50.2017 120.941L50.221 120.963L50.2398 120.985L50.2585 121.007L50.2766 121.029L50.2947 121.052L50.3121 121.075L50.3292 121.098L50.3457 121.122L50.3618 121.145L50.3776 121.17L50.3931 121.194L50.408 121.218L50.4225 121.244L50.4367 121.269L50.4503 121.294L50.4635 121.32L50.4765 121.346L50.4887 121.372L50.5007 121.398L50.512 121.424L50.523 121.451L50.5333 121.478L50.5433 121.505L50.553 121.532L50.562 121.559L50.5707 121.587L50.5788 121.615L50.5866 121.642L50.5937 121.67L50.6001 121.698L50.6066 121.726L50.6121 121.755L50.6173 121.783L50.6221 121.812L50.6263 121.84L50.6302 121.869L50.6334 121.897L50.636 121.926L50.6382 121.955L50.6402 121.983L50.6412 122.012L50.6421 122.041L50.6424 122.07L50.6421 122.099L50.6412 122.128L50.6402 122.156L50.6382 122.185L50.636 122.214L50.6334 122.242L50.6302 122.271L50.6263 122.3L50.6221 122.328L50.6173 122.357L50.6121 122.385L50.6066 122.413L50.6001 122.441L50.5937 122.469L50.5866 122.497L50.5788 122.525L50.5707 122.553L50.562 122.58L50.553 122.608L50.5433 122.635L50.5333 122.662L50.523 122.689L50.512 122.715L50.5007 122.742L50.4887 122.768L50.4765 122.794L50.4635 122.82L50.4503 122.846L50.4367 122.871L50.4225 122.896L50.408 122.921L50.3931 122.946L50.3776 122.97L50.3618 122.994L50.3457 123.018L50.3292 123.042L50.3121 123.065L50.2947 123.088L50.2766 123.111L50.2585 123.133L50.2398 123.155L50.221 123.177L50.2017 123.198L50.1816 123.219L50.1616 123.24L50.1413 123.26L50.1203 123.281L50.0993 123.3L50.0777 123.319L50.056 123.338L50.0337 123.357L50.0115 123.375L49.9885 123.393L49.9656 123.41L49.942 123.427L49.9185 123.444L49.8946 123.46L49.8704 123.475L49.8458 123.491L49.8213 123.506L49.7961 123.52L49.7709 123.534L49.7454 123.548L49.7195 123.561L49.6937 123.574L49.6676 123.586L49.6411 123.598L49.6146 123.609L49.5878 123.62L49.561 123.631L49.5339 123.641L49.5064 123.65L49.479 123.659L49.4512 123.668L49.4234 123.676L49.3957 123.684L49.3676 123.691L49.3395 123.697L49.3114 123.704L49.283 123.709L49.2545 123.715L49.2258 123.719L49.1974 123.723L49.1687 123.727L49.1399 123.73L49.1112 123.733L49.0821 123.735L49.0534 123.737L49.0246 123.738L48.9956 123.739L48.9665 123.739H43.703L43.6742 123.739L43.6452 123.738L43.6164 123.737L43.5874 123.735L43.5586 123.733L43.5299 123.73L43.5011 123.727L43.4724 123.723L43.4437 123.719L43.4152 123.715L43.3868 123.709L43.3584 123.704L43.3303 123.697L43.3019 123.691L43.2741 123.684L43.246 123.676L43.2183 123.668L43.1908 123.659L43.1634 123.65L43.1359 123.641L43.1088 123.631L43.082 123.62L43.0552 123.609L43.0287 123.598L43.0022 123.586L42.9761 123.574L42.9499 123.561L42.9244 123.548L42.8989 123.534L42.8737 123.52L42.8485 123.506L42.824 123.491L42.7994 123.475L42.7752 123.46L42.7513 123.444L42.7274 123.427L42.7042 123.41L42.6809 123.393L42.6583 123.375L42.6357 123.357L42.6138 123.338L42.5918 123.319L42.5705 123.3L42.5492 123.281L42.5285 123.26L42.5082 123.24L42.4878 123.219L42.4681 123.198L42.4488 123.177L42.4297 123.155L42.4113 123.133L42.3929 123.111L42.3751 123.088L42.3577 123.065L42.3406 123.042L42.3241 123.018L42.308 122.994L42.2921 122.97L42.2766 122.946L42.2618 122.921L42.2472 122.896L42.233 122.871L42.2195 122.846L42.2062 122.82L42.1933 122.794L42.1811 122.768L42.1691 122.742L42.1578 122.715L42.1468 122.689L42.1362 122.662L42.1262 122.635L42.1168 122.608L42.1078 122.58L42.099 122.553L42.091 122.525L42.0832 122.497L42.0761 122.469L42.0693 122.441L42.0632 122.413L42.0574 122.385L42.0522 122.357L42.0477 122.328L42.0435 122.3L42.0396 122.271L42.0364 122.242L42.0338 122.214L42.0315 122.185L42.0296 122.156L42.0283 122.128L42.0277 122.099L42.0273 122.07L42.0277 122.041L42.0283 122.012L42.0296 121.983L42.0315 121.955L42.0338 121.926L42.0364 121.897L42.0396 121.869L42.0435 121.84L42.0477 121.812L42.0522 121.783L42.0574 121.755L42.0632 121.726L42.0693 121.698L42.0761 121.67L42.0832 121.642L42.091 121.615L42.099 121.587L42.1078 121.559L42.1168 121.532L42.1262 121.505L42.1362 121.478L42.1468 121.451L42.1578 121.424L42.1691 121.398L42.1811 121.372L42.1933 121.346L42.2062 121.32L42.2195 121.294L42.233 121.269L42.2472 121.244L42.2618 121.218L42.2766 121.194L42.2921 121.17L42.308 121.145L42.3241 121.122L42.3406 121.098L42.3577 121.075L42.3751 121.052L42.3929 121.029L42.4113 121.007L42.4297 120.985L42.4488 120.963L42.4681 120.941L42.4878 120.92L42.5082 120.9L42.5285 120.879L42.5492 120.859L42.5705 120.84L42.5918 120.82L42.6138 120.802L42.6357 120.783L42.6583 120.765L42.6809 120.747L42.7042 120.729L42.7274 120.712L42.7513 120.696L42.7752 120.68L42.7994 120.664L42.824 120.649L42.8485 120.634L42.8737 120.619L42.8989 120.605L42.9244 120.592L42.9499 120.579L42.9761 120.566L43.0022 120.554L43.0287 120.542L43.0552 120.53L43.082 120.519L43.1088 120.509L43.1359 120.499L43.1634 120.49L43.1908 120.48L43.2183 120.472L43.246 120.464L43.2741 120.456L43.3019 120.449L43.3303 120.442L43.3584 120.436L43.3868 120.431L43.4152 120.425L43.4437 120.421L43.4724 120.416L43.5011 120.413L43.5299 120.409L43.5586 120.407L43.5874 120.405L43.6164 120.403L43.6452 120.401L43.6742 120.401L43.703 120.4H48.9665Z" stroke="#DBDBDB" stroke-miterlimit="10" stroke-linecap="round" stroke-linejoin="round"/>
<path d="M86.3069 11.5752H6.36279V116.986H86.3069V11.5752Z" stroke="#DBDBDB" stroke-miterlimit="10" stroke-linecap="round" stroke-linejoin="round"/>
<mask id="path-8-outside-1_314_4555" maskUnits="userSpaceOnUse" x="-0.210938" y="-0.171387" width="93" height="129" fill="black">
<rect fill="white" x="-0.210938" y="-0.171387" width="93" height="129"/>
<path d="M7.07593 128.251L7.00618 128.251L6.93643 128.249L6.86603 128.247L6.79564 128.245L6.72492 128.241L6.65388 128.237L6.58251 128.232L6.51115 128.226L6.43914 128.219L6.36745 128.211L6.29511 128.202L6.22278 128.193L6.15045 128.183L6.0778 128.172L6.00482 128.159L5.93183 128.146L5.85886 128.133L5.78587 128.118L5.71258 128.102L5.63928 128.085L5.56597 128.068L5.49267 128.049L5.41937 128.03L5.34606 128.009L5.27276 127.988L5.19946 127.966L5.12616 127.942L5.05318 127.918L4.9802 127.893L4.90723 127.867L4.83424 127.839L4.76158 127.811L4.68925 127.782L4.61692 127.752L4.54491 127.721L4.47322 127.689L4.40153 127.656L4.33017 127.622L4.25913 127.587L4.18841 127.551L4.11802 127.514L4.04794 127.477L3.97819 127.438L3.90876 127.398L3.83998 127.358L3.7712 127.316L3.70338 127.273L3.63557 127.23L3.5684 127.186L3.50189 127.141L3.43569 127.094L3.37014 127.047L3.30491 126.999L3.24065 126.95L3.17671 126.901L3.11342 126.85L3.05045 126.799L2.98845 126.747L2.92709 126.694L2.86639 126.64L2.80633 126.585L2.74691 126.53L2.68846 126.474L2.63033 126.417L2.57318 126.359L2.51667 126.301L2.46113 126.241L2.40623 126.182L2.3523 126.121L2.29902 126.06L2.24671 125.998L2.19504 125.935L2.14435 125.872L2.09429 125.809L2.04554 125.744L1.99742 125.68L1.94995 125.614L1.90377 125.548L1.85824 125.482L1.81368 125.415L1.77008 125.348L1.72746 125.28L1.6858 125.212L1.64511 125.143L1.60508 125.074L1.56633 125.004L1.52822 124.935L1.49141 124.865L1.45525 124.794L1.42037 124.723L1.38614 124.652L1.3532 124.581L1.32091 124.509L1.2899 124.438L1.25955 124.366L1.23049 124.293L1.20207 124.221L1.17495 124.148L1.14847 124.076L1.12328 124.003L1.09907 123.93L1.07549 123.857L1.05321 123.784L1.03158 123.711L1.01124 123.638L0.991536 123.565L0.973127 123.492L0.955369 123.419L0.938577 123.346L0.92275 123.273L0.9079 123.2L0.894014 123.127L0.88077 123.055L0.868826 122.982L0.857523 122.91L0.847185 122.838L0.837498 122.766L0.829102 122.694L0.821356 122.622L0.814576 122.551L0.808437 122.479L0.803273 122.408L0.79875 122.338L0.795202 122.267L0.79262 122.197L0.790679 122.127L0.789388 122.057L0.789062 121.988V7.09171L0.789388 7.02222L0.790679 6.95274L0.79262 6.88261L0.795202 6.81248L0.79875 6.74203L0.803273 6.67125L0.808437 6.60016L0.814576 6.52906L0.821356 6.45732L0.829102 6.38591L0.837498 6.31385L0.847185 6.24179L0.857523 6.16973L0.868826 6.09735L0.88077 6.02464L0.894014 5.95194L0.9079 5.87924L0.92275 5.80654L0.938577 5.73351L0.955369 5.66048L0.973127 5.58746L0.991536 5.51443L1.01124 5.44141L1.03158 5.36839L1.05321 5.29536L1.07549 5.22234L1.09907 5.14931L1.12328 5.07661L1.14847 5.0039L1.17495 4.9312L1.20207 4.8585L1.23049 4.78644L1.25955 4.71406L1.2899 4.642L1.32091 4.57026L1.3532 4.49884L1.38614 4.42742L1.42037 4.35633L1.45525 4.28556L1.49141 4.2151L1.52822 4.14498L1.56633 4.07517L1.60508 4.00568L1.64511 3.93652L1.6858 3.868L1.72746 3.7998L1.77008 3.73192L1.81368 3.66436L1.85824 3.59745L1.90377 3.53118L1.94995 3.46523L1.99742 3.39993L2.04554 3.33494L2.09429 3.27093L2.14435 3.20723L2.19504 3.14418L2.24671 3.08145L2.29902 3.01968L2.3523 2.95856L2.40623 2.89808L2.46113 2.83825L2.51667 2.77906L2.57318 2.72083L2.63033 2.66292L2.68846 2.60598L2.74691 2.55001L2.80633 2.49435L2.86639 2.43967L2.92709 2.38594L2.98845 2.33286L3.05045 2.28075L3.11342 2.22928L3.17671 2.17877L3.24065 2.12923L3.30491 2.08033L3.37014 2.0324L3.43569 1.98511L3.50189 1.93911L3.5684 1.89375L3.63557 1.84936L3.70338 1.80593L3.7712 1.76346L3.83998 1.72196L3.90876 1.68143L3.97819 1.64154L4.04794 1.60294L4.11802 1.56498L4.18841 1.5283L4.25913 1.49227L4.33017 1.45753L4.40153 1.42343L4.47322 1.39062L4.54491 1.35845L4.61692 1.32756L4.68925 1.29732L4.76158 1.26837L4.83424 1.24006L4.90723 1.21304L4.9802 1.18698L5.05318 1.16157L5.12616 1.13744L5.19946 1.11396L5.27276 1.09176L5.34606 1.07021L5.41937 1.04994L5.49267 1.03032L5.56597 1.01198L5.63928 0.994289L5.71258 0.97756L5.78587 0.961796L5.85886 0.946999L5.93183 0.933166L6.00482 0.919976L6.0778 0.908073L6.15045 0.896815L6.22278 0.886519L6.29511 0.87719L6.36745 0.868504L6.43914 0.860785L6.51115 0.854028L6.58251 0.847917L6.65388 0.84277L6.72492 0.838266L6.79564 0.834727L6.86603 0.832152L6.93643 0.830223L7.00618 0.828937L7.07593 0.828613H85.5941L85.6635 0.828937L85.7336 0.830223L85.8036 0.832152L85.8744 0.834727L85.9451 0.838266L86.0161 0.84277L86.0875 0.847917L86.1589 0.854028L86.2306 0.860785L86.3026 0.868504L86.3749 0.87719L86.4472 0.886519L86.5196 0.896815L86.5922 0.908073L86.6652 0.919976L86.7379 0.933166L86.8111 0.946999L86.8841 0.961796L86.9574 0.97756L87.0307 0.994289L87.104 1.01198L87.1774 1.03032L87.2506 1.04994L87.324 1.07021L87.3972 1.09176L87.4706 1.11396L87.5439 1.13744L87.6168 1.16157L87.6898 1.18698L87.7628 1.21304L87.8354 1.24006L87.9081 1.26837L87.9808 1.29732L88.0531 1.32756L88.1251 1.35845L88.1968 1.39062L88.2685 1.42343L88.3398 1.45753L88.4109 1.49227L88.4816 1.5283L88.552 1.56498L88.6221 1.60294L88.6918 1.64154L88.7612 1.68143L88.83 1.72196L88.8985 1.76346L88.9666 1.80593L89.0344 1.84936L89.1016 1.89375L89.1681 1.93911L89.2343 1.98511L89.2999 2.0324L89.3648 2.08033L89.4294 2.12923L89.4933 2.17877L89.5566 2.22928L89.6193 2.28075L89.6816 2.33286L89.7429 2.38594L89.8036 2.43967L89.8637 2.49435L89.9231 2.55001L89.9815 2.60598L90.0397 2.66292L90.0968 2.72083L90.153 2.77906L90.2089 2.83825L90.2638 2.89808L90.3177 2.95856L90.371 3.01968L90.4233 3.08145L90.475 3.14418L90.5257 3.20723L90.5754 3.27093L90.6245 3.33494L90.6726 3.39993L90.7197 3.46523L90.7662 3.53118L90.8118 3.59745L90.856 3.66436L90.8996 3.73192L90.9426 3.7998L90.9842 3.868L91.0249 3.93652L91.0649 4.00568L91.1037 4.07517L91.1418 4.14498L91.1786 4.2151L91.2148 4.28556L91.2496 4.35633L91.2839 4.42742L91.3168 4.49884L91.3491 4.57026L91.3801 4.642L91.4105 4.71406L91.4395 4.78644L91.4679 4.8585L91.4951 4.9312L91.5212 5.0039L91.5467 5.07661L91.5709 5.14931L91.5945 5.22234L91.6168 5.29536L91.6381 5.36839L91.6588 5.44141L91.6785 5.51443L91.6969 5.58746L91.7146 5.66048L91.7314 5.73351L91.7473 5.80654L91.7621 5.87924L91.776 5.95194L91.7889 6.02464L91.8012 6.09735L91.8125 6.16973L91.8228 6.24179L91.8322 6.31385L91.8409 6.38591L91.8487 6.45732L91.8554 6.52906L91.8616 6.60016L91.8667 6.67125L91.8713 6.74203L91.8748 6.81248L91.8774 6.88261L91.8793 6.95274L91.8806 7.02222L91.881 7.09171V14.8285H92.2852V20.9536H91.881V26.3179H92.2852V38.5095H91.881V121.988L91.8806 122.057L91.8793 122.127L91.8774 122.197L91.8748 122.267L91.8713 122.338L91.8667 122.408L91.8616 122.479L91.8554 122.551L91.8487 122.622L91.8409 122.694L91.8322 122.766L91.8228 122.838L91.8125 122.91L91.8012 122.982L91.7889 123.055L91.776 123.127L91.7621 123.2L91.7473 123.273L91.7314 123.346L91.7146 123.419L91.6969 123.492L91.6785 123.565L91.6588 123.638L91.6381 123.711L91.6168 123.784L91.5945 123.857L91.5709 123.93L91.5467 124.003L91.5212 124.076L91.4951 124.148L91.4679 124.221L91.4395 124.293L91.4105 124.366L91.3801 124.438L91.3491 124.509L91.3168 124.581L91.2839 124.652L91.2496 124.723L91.2148 124.794L91.1786 124.865L91.1418 124.935L91.1037 125.004L91.0649 125.074L91.0249 125.143L90.9842 125.212L90.9426 125.28L90.8996 125.348L90.856 125.415L90.8118 125.482L90.7662 125.548L90.7197 125.614L90.6726 125.68L90.6245 125.744L90.5754 125.809L90.5257 125.872L90.475 125.935L90.4233 125.998L90.371 126.06L90.3177 126.121L90.2638 126.182L90.2089 126.241L90.153 126.301L90.0968 126.359L90.0397 126.417L89.9815 126.474L89.9231 126.53L89.8637 126.585L89.8036 126.64L89.7429 126.694L89.6816 126.747L89.6193 126.799L89.5566 126.85L89.4933 126.901L89.4294 126.95L89.3648 126.999L89.2999 127.047L89.2343 127.094L89.1681 127.141L89.1016 127.186L89.0344 127.23L88.9666 127.273L88.8985 127.316L88.83 127.358L88.7612 127.398L88.6918 127.438L88.6221 127.477L88.552 127.514L88.4816 127.551L88.4109 127.587L88.3398 127.622L88.2685 127.656L88.1968 127.689L88.1251 127.721L88.0531 127.752L87.9808 127.782L87.9081 127.811L87.8354 127.839L87.7628 127.867L87.6898 127.893L87.6168 127.918L87.5439 127.942L87.4706 127.966L87.3972 127.988L87.324 128.009L87.2506 128.03L87.1774 128.049L87.104 128.068L87.0307 128.085L86.9574 128.102L86.8841 128.118L86.8111 128.133L86.7379 128.146L86.6652 128.159L86.5922 128.172L86.5196 128.183L86.4472 128.193L86.3749 128.202L86.3026 128.211L86.2306 128.219L86.1589 128.226L86.0875 128.232L86.0161 128.237L85.9451 128.241L85.8744 128.245L85.8036 128.247L85.7336 128.249L85.6635 128.251L85.5941 128.251H7.07593Z"/>
</mask>
<path d="M7.07593 128.251L7.00618 128.251L6.93643 128.249L6.86603 128.247L6.79564 128.245L6.72492 128.241L6.65388 128.237L6.58251 128.232L6.51115 128.226L6.43914 128.219L6.36745 128.211L6.29511 128.202L6.22278 128.193L6.15045 128.183L6.0778 128.172L6.00482 128.159L5.93183 128.146L5.85886 128.133L5.78587 128.118L5.71258 128.102L5.63928 128.085L5.56597 128.068L5.49267 128.049L5.41937 128.03L5.34606 128.009L5.27276 127.988L5.19946 127.966L5.12616 127.942L5.05318 127.918L4.9802 127.893L4.90723 127.867L4.83424 127.839L4.76158 127.811L4.68925 127.782L4.61692 127.752L4.54491 127.721L4.47322 127.689L4.40153 127.656L4.33017 127.622L4.25913 127.587L4.18841 127.551L4.11802 127.514L4.04794 127.477L3.97819 127.438L3.90876 127.398L3.83998 127.358L3.7712 127.316L3.70338 127.273L3.63557 127.23L3.5684 127.186L3.50189 127.141L3.43569 127.094L3.37014 127.047L3.30491 126.999L3.24065 126.95L3.17671 126.901L3.11342 126.85L3.05045 126.799L2.98845 126.747L2.92709 126.694L2.86639 126.64L2.80633 126.585L2.74691 126.53L2.68846 126.474L2.63033 126.417L2.57318 126.359L2.51667 126.301L2.46113 126.241L2.40623 126.182L2.3523 126.121L2.29902 126.06L2.24671 125.998L2.19504 125.935L2.14435 125.872L2.09429 125.809L2.04554 125.744L1.99742 125.68L1.94995 125.614L1.90377 125.548L1.85824 125.482L1.81368 125.415L1.77008 125.348L1.72746 125.28L1.6858 125.212L1.64511 125.143L1.60508 125.074L1.56633 125.004L1.52822 124.935L1.49141 124.865L1.45525 124.794L1.42037 124.723L1.38614 124.652L1.3532 124.581L1.32091 124.509L1.2899 124.438L1.25955 124.366L1.23049 124.293L1.20207 124.221L1.17495 124.148L1.14847 124.076L1.12328 124.003L1.09907 123.93L1.07549 123.857L1.05321 123.784L1.03158 123.711L1.01124 123.638L0.991536 123.565L0.973127 123.492L0.955369 123.419L0.938577 123.346L0.92275 123.273L0.9079 123.2L0.894014 123.127L0.88077 123.055L0.868826 122.982L0.857523 122.91L0.847185 122.838L0.837498 122.766L0.829102 122.694L0.821356 122.622L0.814576 122.551L0.808437 122.479L0.803273 122.408L0.79875 122.338L0.795202 122.267L0.79262 122.197L0.790679 122.127L0.789388 122.057L0.789062 121.988V7.09171L0.789388 7.02222L0.790679 6.95274L0.79262 6.88261L0.795202 6.81248L0.79875 6.74203L0.803273 6.67125L0.808437 6.60016L0.814576 6.52906L0.821356 6.45732L0.829102 6.38591L0.837498 6.31385L0.847185 6.24179L0.857523 6.16973L0.868826 6.09735L0.88077 6.02464L0.894014 5.95194L0.9079 5.87924L0.92275 5.80654L0.938577 5.73351L0.955369 5.66048L0.973127 5.58746L0.991536 5.51443L1.01124 5.44141L1.03158 5.36839L1.05321 5.29536L1.07549 5.22234L1.09907 5.14931L1.12328 5.07661L1.14847 5.0039L1.17495 4.9312L1.20207 4.8585L1.23049 4.78644L1.25955 4.71406L1.2899 4.642L1.32091 4.57026L1.3532 4.49884L1.38614 4.42742L1.42037 4.35633L1.45525 4.28556L1.49141 4.2151L1.52822 4.14498L1.56633 4.07517L1.60508 4.00568L1.64511 3.93652L1.6858 3.868L1.72746 3.7998L1.77008 3.73192L1.81368 3.66436L1.85824 3.59745L1.90377 3.53118L1.94995 3.46523L1.99742 3.39993L2.04554 3.33494L2.09429 3.27093L2.14435 3.20723L2.19504 3.14418L2.24671 3.08145L2.29902 3.01968L2.3523 2.95856L2.40623 2.89808L2.46113 2.83825L2.51667 2.77906L2.57318 2.72083L2.63033 2.66292L2.68846 2.60598L2.74691 2.55001L2.80633 2.49435L2.86639 2.43967L2.92709 2.38594L2.98845 2.33286L3.05045 2.28075L3.11342 2.22928L3.17671 2.17877L3.24065 2.12923L3.30491 2.08033L3.37014 2.0324L3.43569 1.98511L3.50189 1.93911L3.5684 1.89375L3.63557 1.84936L3.70338 1.80593L3.7712 1.76346L3.83998 1.72196L3.90876 1.68143L3.97819 1.64154L4.04794 1.60294L4.11802 1.56498L4.18841 1.5283L4.25913 1.49227L4.33017 1.45753L4.40153 1.42343L4.47322 1.39062L4.54491 1.35845L4.61692 1.32756L4.68925 1.29732L4.76158 1.26837L4.83424 1.24006L4.90723 1.21304L4.9802 1.18698L5.05318 1.16157L5.12616 1.13744L5.19946 1.11396L5.27276 1.09176L5.34606 1.07021L5.41937 1.04994L5.49267 1.03032L5.56597 1.01198L5.63928 0.994289L5.71258 0.97756L5.78587 0.961796L5.85886 0.946999L5.93183 0.933166L6.00482 0.919976L6.0778 0.908073L6.15045 0.896815L6.22278 0.886519L6.29511 0.87719L6.36745 0.868504L6.43914 0.860785L6.51115 0.854028L6.58251 0.847917L6.65388 0.84277L6.72492 0.838266L6.79564 0.834727L6.86603 0.832152L6.93643 0.830223L7.00618 0.828937L7.07593 0.828613H85.5941L85.6635 0.828937L85.7336 0.830223L85.8036 0.832152L85.8744 0.834727L85.9451 0.838266L86.0161 0.84277L86.0875 0.847917L86.1589 0.854028L86.2306 0.860785L86.3026 0.868504L86.3749 0.87719L86.4472 0.886519L86.5196 0.896815L86.5922 0.908073L86.6652 0.919976L86.7379 0.933166L86.8111 0.946999L86.8841 0.961796L86.9574 0.97756L87.0307 0.994289L87.104 1.01198L87.1774 1.03032L87.2506 1.04994L87.324 1.07021L87.3972 1.09176L87.4706 1.11396L87.5439 1.13744L87.6168 1.16157L87.6898 1.18698L87.7628 1.21304L87.8354 1.24006L87.9081 1.26837L87.9808 1.29732L88.0531 1.32756L88.1251 1.35845L88.1968 1.39062L88.2685 1.42343L88.3398 1.45753L88.4109 1.49227L88.4816 1.5283L88.552 1.56498L88.6221 1.60294L88.6918 1.64154L88.7612 1.68143L88.83 1.72196L88.8985 1.76346L88.9666 1.80593L89.0344 1.84936L89.1016 1.89375L89.1681 1.93911L89.2343 1.98511L89.2999 2.0324L89.3648 2.08033L89.4294 2.12923L89.4933 2.17877L89.5566 2.22928L89.6193 2.28075L89.6816 2.33286L89.7429 2.38594L89.8036 2.43967L89.8637 2.49435L89.9231 2.55001L89.9815 2.60598L90.0397 2.66292L90.0968 2.72083L90.153 2.77906L90.2089 2.83825L90.2638 2.89808L90.3177 2.95856L90.371 3.01968L90.4233 3.08145L90.475 3.14418L90.5257 3.20723L90.5754 3.27093L90.6245 3.33494L90.6726 3.39993L90.7197 3.46523L90.7662 3.53118L90.8118 3.59745L90.856 3.66436L90.8996 3.73192L90.9426 3.7998L90.9842 3.868L91.0249 3.93652L91.0649 4.00568L91.1037 4.07517L91.1418 4.14498L91.1786 4.2151L91.2148 4.28556L91.2496 4.35633L91.2839 4.42742L91.3168 4.49884L91.3491 4.57026L91.3801 4.642L91.4105 4.71406L91.4395 4.78644L91.4679 4.8585L91.4951 4.9312L91.5212 5.0039L91.5467 5.07661L91.5709 5.14931L91.5945 5.22234L91.6168 5.29536L91.6381 5.36839L91.6588 5.44141L91.6785 5.51443L91.6969 5.58746L91.7146 5.66048L91.7314 5.73351L91.7473 5.80654L91.7621 5.87924L91.776 5.95194L91.7889 6.02464L91.8012 6.09735L91.8125 6.16973L91.8228 6.24179L91.8322 6.31385L91.8409 6.38591L91.8487 6.45732L91.8554 6.52906L91.8616 6.60016L91.8667 6.67125L91.8713 6.74203L91.8748 6.81248L91.8774 6.88261L91.8793 6.95274L91.8806 7.02222L91.881 7.09171V14.8285H92.2852V20.9536H91.881V26.3179H92.2852V38.5095H91.881V121.988L91.8806 122.057L91.8793 122.127L91.8774 122.197L91.8748 122.267L91.8713 122.338L91.8667 122.408L91.8616 122.479L91.8554 122.551L91.8487 122.622L91.8409 122.694L91.8322 122.766L91.8228 122.838L91.8125 122.91L91.8012 122.982L91.7889 123.055L91.776 123.127L91.7621 123.2L91.7473 123.273L91.7314 123.346L91.7146 123.419L91.6969 123.492L91.6785 123.565L91.6588 123.638L91.6381 123.711L91.6168 123.784L91.5945 123.857L91.5709 123.93L91.5467 124.003L91.5212 124.076L91.4951 124.148L91.4679 124.221L91.4395 124.293L91.4105 124.366L91.3801 124.438L91.3491 124.509L91.3168 124.581L91.2839 124.652L91.2496 124.723L91.2148 124.794L91.1786 124.865L91.1418 124.935L91.1037 125.004L91.0649 125.074L91.0249 125.143L90.9842 125.212L90.9426 125.28L90.8996 125.348L90.856 125.415L90.8118 125.482L90.7662 125.548L90.7197 125.614L90.6726 125.68L90.6245 125.744L90.5754 125.809L90.5257 125.872L90.475 125.935L90.4233 125.998L90.371 126.06L90.3177 126.121L90.2638 126.182L90.2089 126.241L90.153 126.301L90.0968 126.359L90.0397 126.417L89.9815 126.474L89.9231 126.53L89.8637 126.585L89.8036 126.64L89.7429 126.694L89.6816 126.747L89.6193 126.799L89.5566 126.85L89.4933 126.901L89.4294 126.95L89.3648 126.999L89.2999 127.047L89.2343 127.094L89.1681 127.141L89.1016 127.186L89.0344 127.23L88.9666 127.273L88.8985 127.316L88.83 127.358L88.7612 127.398L88.6918 127.438L88.6221 127.477L88.552 127.514L88.4816 127.551L88.4109 127.587L88.3398 127.622L88.2685 127.656L88.1968 127.689L88.1251 127.721L88.0531 127.752L87.9808 127.782L87.9081 127.811L87.8354 127.839L87.7628 127.867L87.6898 127.893L87.6168 127.918L87.5439 127.942L87.4706 127.966L87.3972 127.988L87.324 128.009L87.2506 128.03L87.1774 128.049L87.104 128.068L87.0307 128.085L86.9574 128.102L86.8841 128.118L86.8111 128.133L86.7379 128.146L86.6652 128.159L86.5922 128.172L86.5196 128.183L86.4472 128.193L86.3749 128.202L86.3026 128.211L86.2306 128.219L86.1589 128.226L86.0875 128.232L86.0161 128.237L85.9451 128.241L85.8744 128.245L85.8036 128.247L85.7336 128.249L85.6635 128.251L85.5941 128.251H7.07593Z" stroke="#DBDBDB" stroke-miterlimit="10" stroke-linecap="round" stroke-linejoin="round" mask="url(#path-8-outside-1_314_4555)"/>
</g>
<defs>
<clipPath id="clip0_314_4555">
<rect width="93" height="129" fill="white"/>
</clipPath>
</defs>
</svg>
