<svg width="541" height="540" viewBox="0 0 541 540" fill="none" xmlns="http://www.w3.org/2000/svg">
<path d="M528.5 270C528.5 325.537 510.544 379.586 477.312 424.083C444.08 468.58 397.352 501.14 344.099 516.906C290.847 532.672 233.924 530.799 181.824 511.566C129.724 492.332 85.2376 456.77 55.003 410.184C24.7683 363.598 10.4055 308.486 14.0573 253.069C17.709 197.652 39.1796 144.9 75.2659 102.685C111.352 60.4691 160.12 31.0518 214.294 18.8215C268.468 6.59116 325.144 12.2034 375.867 34.8209" stroke="#DBDBDB"/>
<path d="M409.079 201.548C419.39 222.347 424.87 245.207 425.107 268.421C425.345 291.634 420.336 314.602 410.453 335.608C400.571 356.614 386.07 375.116 368.035 389.733C349.999 404.349 328.894 414.703 306.297 420.019C283.699 425.336 260.192 425.479 237.531 420.438C214.871 415.396 193.642 405.301 175.43 390.905C157.218 376.509 142.493 358.184 132.356 337.3C122.218 316.415 116.93 293.511 116.885 270.296" stroke="#1B1A1A" stroke-dasharray="2 2"/>
<path d="M2.51048 246.684C7.41823 190.17 30.0339 136.645 67.1363 93.7336C104.239 50.8222 153.936 20.7127 209.149 7.69355C264.362 -5.32555 322.275 -0.590265 374.64 21.2249C427.005 43.0401 471.15 80.8227 500.789 129.191C530.428 177.56 544.049 234.047 539.711 290.608C535.373 347.169 513.298 400.92 476.63 444.203C439.962 487.486 390.571 518.095 335.492 531.67C280.413 545.245 222.455 541.093 169.873 519.807" stroke="#1B1A1A"/>
<path d="M434.5 270C434.5 360.852 361.073 434.5 270.5 434.5C179.927 434.5 106.5 360.852 106.5 270C106.5 179.148 179.927 105.5 270.5 105.5C361.073 105.5 434.5 179.148 434.5 270Z" stroke="#DBDBDB"/>
<path d="M119.392 370.481C103.523 347.058 93.4218 320.285 89.8989 292.306C86.376 264.328 89.5291 235.922 99.1054 209.365C108.682 182.809 124.415 158.84 145.045 139.38C165.675 119.921 190.628 105.512 217.904 97.3081C245.179 89.1047 274.019 87.3353 302.11 92.1419C330.202 96.9485 356.764 108.197 379.668 124.986C402.571 141.775 421.179 163.637 434.001 188.82C446.822 214.002 453.5 241.805 453.5 270" stroke="#D2113A" stroke-dasharray="4 4"/>
<rect x="180" y="89" width="182" height="362" rx="19" fill="#EEEEEA" stroke="#1B1A1A" stroke-width="2"/>
<path d="M251 89H291V96C291 98.7614 288.761 101 286 101H256C253.239 101 251 98.7614 251 96V89Z" stroke="#1B1A1A" stroke-width="2"/>
<mask id="path-8-inside-1_104_109" fill="white">
<path d="M430.145 248C430.145 268.202 424.154 287.951 412.93 304.748C401.707 321.546 385.754 334.638 367.089 342.369C348.425 350.1 327.887 352.123 308.073 348.182C288.259 344.24 270.058 334.512 255.773 320.227L304.802 271.198C309.39 275.786 315.236 278.911 321.6 280.177C327.964 281.443 334.56 280.793 340.555 278.31C346.55 275.827 351.673 271.622 355.278 266.227C358.883 260.831 360.807 254.488 360.807 248H430.145Z"/>
</mask>
<path d="M430.145 248C430.145 268.202 424.154 287.951 412.93 304.748C401.707 321.546 385.754 334.638 367.089 342.369C348.425 350.1 327.887 352.123 308.073 348.182C288.259 344.24 270.058 334.512 255.773 320.227L304.802 271.198C309.39 275.786 315.236 278.911 321.6 280.177C327.964 281.443 334.56 280.793 340.555 278.31C346.55 275.827 351.673 271.622 355.278 266.227C358.883 260.831 360.807 254.488 360.807 248H430.145Z" fill="#EEEEEA" stroke="#1B1A1A" stroke-width="4" mask="url(#path-8-inside-1_104_109)"/>
<mask id="path-9-inside-2_104_109" fill="white">
<path d="M253.184 317.542C237.448 300.612 227.918 278.845 226.154 255.799C224.389 232.753 230.493 209.789 243.468 190.66L300.48 229.333C296.256 235.56 294.269 243.036 294.844 250.539C295.418 258.042 298.52 265.128 303.643 270.639L253.184 317.542Z"/>
</mask>
<path d="M253.184 317.542C237.448 300.612 227.918 278.845 226.154 255.799C224.389 232.753 230.493 209.789 243.468 190.66L300.48 229.333C296.256 235.56 294.269 243.036 294.844 250.539C295.418 258.042 298.52 265.128 303.643 270.639L253.184 317.542Z" fill="#EEEEEA" stroke="#1B1A1A" stroke-width="4" mask="url(#path-9-inside-2_104_109)"/>
<mask id="path-10-inside-3_104_109" fill="white">
<path d="M245.691 187.512C256.473 172.841 270.979 161.319 287.709 154.137L314.701 217.018C309.179 219.389 304.391 223.192 300.832 228.034L245.691 187.512Z"/>
</mask>
<path d="M245.691 187.512C256.473 172.841 270.979 161.319 287.709 154.137L314.701 217.018C309.179 219.389 304.391 223.192 300.832 228.034L245.691 187.512Z" fill="#EEEEEA" stroke="#1B1A1A" stroke-width="4" mask="url(#path-10-inside-3_104_109)"/>
<path d="M287.567 146.777C303.891 140.256 321.55 137.78 339.039 139.56C356.527 141.341 373.325 147.324 388 157C402.676 166.676 414.793 179.758 423.32 195.131C431.846 210.503 436.528 227.709 436.966 245.282L373.657 246.861C373.474 239.498 371.512 232.289 367.939 225.848C364.367 219.407 359.289 213.925 353.14 209.871C346.991 205.816 339.953 203.309 332.625 202.563C325.298 201.817 317.898 202.855 311.058 205.587L287.567 146.777Z" fill="#D2113A"/>
<path fill-rule="evenodd" clip-rule="evenodd" d="M502.923 49.6157H396.77V107.308H415.23V126.346L434.269 107.308H502.923V49.6157Z" fill="#EEEEEA"/>
<path d="M396.77 49.6157V48.6157C396.217 48.6157 395.77 49.0634 395.77 49.6157H396.77ZM502.923 49.6157H503.923C503.923 49.0634 503.476 48.6157 502.923 48.6157V49.6157ZM396.77 107.308H395.77C395.77 107.86 396.217 108.308 396.77 108.308V107.308ZM415.23 107.308H416.23C416.23 106.756 415.783 106.308 415.23 106.308V107.308ZM415.23 126.346H414.23C414.23 126.751 414.474 127.116 414.848 127.27C415.221 127.425 415.652 127.34 415.938 127.054L415.23 126.346ZM434.269 107.308V106.308C434.004 106.308 433.749 106.413 433.562 106.601L434.269 107.308ZM502.923 107.308V108.308C503.476 108.308 503.923 107.86 503.923 107.308H502.923ZM396.77 50.6157H502.923V48.6157H396.77V50.6157ZM397.77 107.308V49.6157H395.77V107.308H397.77ZM415.23 106.308H396.77V108.308H415.23V106.308ZM414.23 107.308V126.346H416.23V107.308H414.23ZM415.938 127.054L434.976 108.015L433.562 106.601L414.523 125.639L415.938 127.054ZM502.923 106.308H434.269V108.308H502.923V106.308ZM501.923 49.6157V107.308H503.923V49.6157H501.923Z" fill="#1B1A1A"/>
<path d="M425.819 69.8504C426.119 68.9291 427.422 68.9291 427.721 69.8504L429.396 75.0025C429.529 75.4145 429.913 75.6935 430.347 75.6935H435.764C436.733 75.6935 437.135 76.9331 436.352 77.5025L431.969 80.6867C431.618 80.9414 431.472 81.3927 431.606 81.8048L433.28 86.9569C433.579 87.8782 432.525 88.6443 431.741 88.0749L427.358 84.8907C427.008 84.6361 426.533 84.6361 426.183 84.8907L421.8 88.0749C421.016 88.6443 419.962 87.8782 420.261 86.9569L421.935 81.8048C422.069 81.3927 421.922 80.9414 421.572 80.6867L417.189 77.5025C416.406 76.9331 416.808 75.6935 417.777 75.6935H423.194C423.628 75.6935 424.011 75.4145 424.145 75.0025L425.819 69.8504Z" fill="#D2113A"/>
<path d="M448.896 69.8503C449.195 68.929 450.498 68.929 450.798 69.8503L452.472 75.0025C452.606 75.4145 452.99 75.6934 453.423 75.6934H458.84C459.809 75.6934 460.212 76.9331 459.428 77.5025L455.045 80.6867C454.695 80.9413 454.548 81.3927 454.682 81.8047L456.356 86.9568C456.655 87.8781 455.601 88.6443 454.817 88.0749L450.434 84.8907C450.084 84.636 449.609 84.636 449.259 84.8907L444.876 88.0749C444.092 88.6443 443.038 87.8781 443.337 86.9568L445.011 81.8047C445.145 81.3927 444.999 80.9413 444.648 80.6867L440.265 77.5025C439.482 76.9331 439.884 75.6934 440.853 75.6934H446.27C446.704 75.6934 447.088 75.4145 447.222 75.0025L448.896 69.8503Z" fill="#D2113A"/>
<path d="M471.972 69.8504C472.271 68.9291 473.574 68.9291 473.874 69.8504L475.548 75.0025C475.682 75.4145 476.066 75.6935 476.499 75.6935H481.916C482.885 75.6935 483.288 76.9331 482.504 77.5025L478.121 80.6867C477.771 80.9414 477.624 81.3927 477.758 81.8048L479.432 86.9569C479.731 87.8782 478.677 88.6443 477.893 88.0749L473.511 84.8907C473.16 84.6361 472.685 84.6361 472.335 84.8907L467.952 88.0749C467.169 88.6443 466.114 87.8782 466.413 86.9569L468.088 81.8048C468.221 81.3927 468.075 80.9414 467.724 80.6867L463.342 77.5025C462.558 76.9331 462.961 75.6935 463.929 75.6935H469.347C469.78 75.6935 470.164 75.4145 470.298 75.0025L471.972 69.8504Z" fill="#D2113A"/>
<path fill-rule="evenodd" clip-rule="evenodd" d="M0.999817 491.538L231.769 491.538L231.769 413.077L213.308 413.077L213.308 394.615L194.847 413.077L0.999824 413.077L0.999817 491.538Z" fill="#EEEEEA"/>
<path d="M231.769 491.538L231.769 492.538C232.321 492.538 232.769 492.091 232.769 491.538L231.769 491.538ZM0.999817 491.538L-0.000183105 491.538C-0.000183154 492.091 0.447532 492.538 0.999817 492.538L0.999817 491.538ZM231.769 413.077L232.769 413.077C232.769 412.525 232.321 412.077 231.769 412.077L231.769 413.077ZM213.308 413.077L212.308 413.077C212.308 413.629 212.756 414.077 213.308 414.077L213.308 413.077ZM213.308 394.615L214.308 394.615C214.308 394.211 214.064 393.846 213.691 393.691C213.317 393.537 212.887 393.622 212.601 393.908L213.308 394.615ZM194.847 413.077L194.847 414.077C195.112 414.077 195.366 413.971 195.554 413.784L194.847 413.077ZM0.999824 413.077L0.999824 412.077C0.447539 412.077 -0.000176198 412.525 -0.000176246 413.077L0.999824 413.077ZM231.769 490.538L0.999817 490.538L0.999817 492.538L231.769 492.538L231.769 490.538ZM230.769 413.077L230.769 491.538L232.769 491.538L232.769 413.077L230.769 413.077ZM213.308 414.077L231.769 414.077L231.769 412.077L213.308 412.077L213.308 414.077ZM214.308 413.077L214.308 394.615L212.308 394.615L212.308 413.077L214.308 413.077ZM212.601 393.908L194.139 412.37L195.554 413.784L214.015 395.322L212.601 393.908ZM0.999824 414.077L194.847 414.077L194.847 412.077L0.999824 412.077L0.999824 414.077ZM1.99982 491.538L1.99982 413.077L-0.000176246 413.077L-0.000183105 491.538L1.99982 491.538Z" fill="#1B1A1A"/>
<mask id="mask0_104_109" style="mask-type:alpha" maskUnits="userSpaceOnUse" x="29" y="439" width="30" height="26">
<path d="M38.375 441C34.5781 441 31.5 444.078 31.5 447.875C31.5 454.75 39.625 461 44 462.454C48.375 461 56.5 454.75 56.5 447.875C56.5 444.078 53.4219 441 49.625 441C47.3 441 45.2438 442.154 44 443.921C43.3661 443.018 42.5239 442.281 41.5447 441.773C40.5656 441.264 39.4783 440.999 38.375 441Z" fill="white" stroke="white" stroke-width="4" stroke-linecap="round" stroke-linejoin="round"/>
</mask>
<g mask="url(#mask0_104_109)">
<path d="M29 436H59V466H29V436Z" fill="#D2113A"/>
</g>
<path d="M69 441C69 438.791 70.7909 437 73 437H202C204.209 437 206 438.791 206 441V447C206 449.209 204.209 451 202 451H73C70.7909 451 69 449.209 69 447V441Z" fill="#DBDBDB"/>
<path d="M69 459C69 456.791 70.7909 455 73 455H170C172.209 455 174 456.791 174 459V464C174 466.209 172.209 468 170 468H73C70.7909 468 69 466.209 69 464V459Z" fill="#DBDBDB"/>
</svg>
