<svg width="863" height="861" viewBox="0 0 863 861" fill="none" xmlns="http://www.w3.org/2000/svg">
<g clip-path="url(#clip0_784_5240)">
<path d="M127.8 801.7C85.8 893.3 78.1001 862 4.80005 812.4C-20.7 795.2 -121.3 698 -119.5 536.4C-116.7 280.8 7.80004 375.2 88.2 253.7C168.7 132.2 -42.7 27.8 24.7 6.99999C92.1 -13.8 186.3 53.3 203.3 15C220.3 -23.3 259.7 23.7999 314.4 69.6999C369.1 115.6 550 190.2 637.1 127C724.2 63.8 871.3 241.3 862 323C852.7 404.7 578.7 332.3 645 624.3C660.5 692.4 496.5 808.2 428 789.6C359.6 771.1 344.7 757.6 344.7 757.6" stroke="#DBDBDB" stroke-linecap="round"/>
<path d="M104 801.7C93 854.9 69.9 837.6 3.49999 793.7C-19.6 778.5 -102.6 672.8 -101 529.7C-98.5 303.4 43.5 387.6 116.4 280.1C189.3 172.6 77.5 149.4 138.5 131C199.5 112.6 235.6 176.9 250.9 143C266.2 109.1 271.6 76.6001 321.2 117.1C370.8 157.6 500.1 206.2 589.5 169.6C718.6 116.8 785.7 216 777.3 288.3C769 360.6 510.3 413.8 601.3 629.7C625.4 687 486.2 770.8 424.3 754.5C362.4 738.2 339.4 720.4 339.4 720.4" stroke="#DBDBDB" stroke-linecap="round"/>
<path d="M550.5 245.3C583.1 215.3 612.9 185.8 670.3 197.7C727.5 209.6 768 257.7 686.6 336.1C605.2 414.5 495 465.2 526.4 385.2C557.6 305.1 517.8 275.4 550.5 245.3Z" stroke="#DBDBDB" stroke-linecap="round"/>
<path d="M599.1 318.9C593 284.1 572.9 267.3 584.9 251.2C596.9 235.1 675.4 220.7 694.4 245.5C713.4 270.3 688.3 307.8 639.6 350.8C591.1 393.8 605.4 353.7 599.1 318.9Z" stroke="#DBDBDB" stroke-linecap="round"/>
<path d="M641.8 278.5C630.6 263 648.1 252.4 660.1 262.6C672 272.8 653 293.9 641.8 278.5Z" stroke="#DBDBDB" stroke-linecap="round"/>
<path d="M51 772.3C-0.299992 767.5 -39.8 677.6 -49.5 583C-59.2 488.4 -126.6 431.9 37.8 404.3C202.2 376.7 96.6 276.4 217.7 263C338.8 249.6 474 167.3 483.6 259C493.2 350.7 466.8 437 494.2 476.3C521.6 515.6 561.7 600.7 535.2 652.3C508.7 703.9 435.7 760.2 397.6 717.6C359.5 675.1 332.8 673.6 332.8 673.6" stroke="#DBDBDB" stroke-linecap="round"/>
<path d="M51 747C24.3 733.7 -45 588.6 -3.30002 519C38.5 449.4 111.3 444.9 152.8 403C194.3 361.1 312.8 235.4 385.7 320.3C458.4 405.2 511.5 585.2 462.4 629.6C413.3 674 332.7 646.9 332.7 646.9" stroke="#DBDBDB"/>
<path d="M457.2 444.3C457.2 442.809 455.991 441.6 454.5 441.6C453.009 441.6 451.8 442.809 451.8 444.3C451.8 445.791 453.009 447 454.5 447C455.991 447 457.2 445.791 457.2 444.3Z" fill="#DBDBDB"/>
<path d="M52.3999 675C28.5999 670.7 4.29993 577.3 12.6999 553.7C21.0999 530.1 26.2999 512.2 104 473.7C181.7 435.2 361.6 188.9 454.5 517.7C497 668 334.1 604.4 334.1 604.4" stroke="#DBDBDB"/>
<path d="M332.8 556.3C332.8 556.3 406.2 602.7 421.4 568.3C436.6 533.9 389.9 407.6 353.9 397.6C317.9 387.6 178.8 425.9 203.1 466.9C227.4 508 259.1 490.1 273.2 514.9" stroke="#DBDBDB" stroke-linecap="round"/>
<path d="M378.1 464.6C397.2 491.1 406.8 542.3 386.4 546.9C366.1 551.4 373.3 513.8 310.2 485.8C226.5 448.6 242 438.3 274.5 433.8C307 429.3 341.3 413.8 378.1 464.6Z" stroke="#DBDBDB" stroke-linecap="round"/>
<path d="M363.4 480.3C374.1 492.7 390.9 511 373.8 508.7C356.7 506.4 321.8 475.5 332.9 473.9C344.1 472.3 352.7 468.1 363.4 480.3Z" stroke="#DBDBDB" stroke-linecap="round"/>
</g>
<defs>
<clipPath id="clip0_784_5240">
<rect width="861" height="984" fill="white" transform="translate(-121 861) rotate(-90)"/>
</clipPath>
</defs>
</svg>
