<svg width="984" height="861" viewBox="0 0 984 861" fill="none" xmlns="http://www.w3.org/2000/svg">
<g clip-path="url(#clip0_787_5699)">
<path d="M248.8 801.699C206.8 893.299 199.1 862 125.8 812.4C100.3 795.2 -0.300019 698 1.49997 536.4C4.29996 280.8 128.8 375.199 209.2 253.699C289.7 132.199 78.3 27.7995 145.7 6.99951C213.1 -13.8005 307.3 53.2995 324.3 14.9995C341.3 -23.3005 380.7 23.7994 435.4 69.6994C490.1 115.599 671 190.199 758.1 126.999C845.2 63.7995 992.3 241.299 983 322.999C973.7 404.699 699.7 332.3 766 624.3C781.5 692.4 617.5 808.199 549 789.599C480.6 771.099 465.7 757.599 465.7 757.599" stroke="#DBDBDB" stroke-linecap="round"/>
<path d="M225 801.7C214 854.9 190.9 837.6 124.5 793.7C101.4 778.5 18.4 672.8 20 529.7C22.5 303.4 164.5 387.6 237.4 280.1C310.3 172.6 198.5 149.4 259.5 131C320.5 112.6 356.6 176.9 371.9 143C387.2 109.1 392.6 76.6 442.2 117.1C491.8 157.6 621.1 206.2 710.5 169.6C839.6 116.8 906.7 216 898.3 288.3C890 360.6 631.3 413.8 722.3 629.7C746.4 687 607.2 770.8 545.3 754.5C483.4 738.2 460.4 720.4 460.4 720.4" stroke="#DBDBDB" stroke-linecap="round"/>
<path d="M671.5 245.3C704.1 215.3 733.9 185.8 791.3 197.7C848.5 209.6 889 257.7 807.6 336.1C726.2 414.5 616 465.2 647.4 385.2C678.6 305.1 638.8 275.4 671.5 245.3Z" stroke="#DBDBDB" stroke-linecap="round"/>
<path d="M720.1 318.9C714 284.1 693.9 267.3 705.9 251.2C717.9 235.1 796.4 220.7 815.4 245.5C834.4 270.3 809.3 307.8 760.6 350.8C712.1 393.8 726.4 353.7 720.1 318.9Z" stroke="#DBDBDB" stroke-linecap="round"/>
<path d="M762.8 278.5C751.6 263 769.1 252.4 781.1 262.6C793 272.8 774 293.9 762.8 278.5Z" stroke="#DBDBDB" stroke-linecap="round"/>
<path d="M172 772.3C120.7 767.5 81.2 677.6 71.5 583C61.8 488.4 -5.60001 431.9 158.8 404.3C323.2 376.7 217.6 276.4 338.7 263C459.8 249.6 595 167.3 604.6 259C614.2 350.7 587.8 437 615.2 476.3C642.6 515.6 682.7 600.7 656.2 652.3C629.7 703.9 556.7 760.2 518.6 717.6C480.5 675.1 453.8 673.6 453.8 673.6" stroke="#DBDBDB" stroke-linecap="round"/>
<path d="M172 747C145.3 733.7 76 588.6 117.7 519C159.5 449.4 232.3 444.9 273.8 403C315.3 361.1 433.8 235.4 506.7 320.3C579.4 405.2 632.5 585.2 583.4 629.6C534.3 674 453.7 646.9 453.7 646.9" stroke="#DBDBDB"/>
<path d="M74.1 575.7C74.1 573.877 72.6225 572.4 70.8 572.4C68.9775 572.4 67.5 573.877 67.5 575.7C67.5 577.522 68.9775 579 70.8 579C72.6225 579 74.1 577.522 74.1 575.7Z" fill="#DBDBDB"/>
<path d="M578.2 444.3C578.2 442.809 576.991 441.6 575.5 441.6C574.009 441.6 572.8 442.809 572.8 444.3C572.8 445.791 574.009 447 575.5 447C576.991 447 578.2 445.791 578.2 444.3Z" fill="#DBDBDB"/>
<path d="M173.4 675C149.6 670.7 125.3 577.3 133.7 553.7C142.1 530.1 147.3 512.2 225 473.7C302.7 435.2 482.6 188.9 575.5 517.7C618 668 455.1 604.4 455.1 604.4" stroke="#DBDBDB"/>
<path d="M453.8 556.3C453.8 556.3 527.2 602.7 542.4 568.3C557.6 533.9 510.9 407.6 474.9 397.6C438.9 387.6 299.8 425.9 324.1 466.9C348.4 508 380.1 490.1 394.2 514.9" stroke="#DBDBDB" stroke-linecap="round"/>
<path d="M499.1 464.599C518.2 491.099 527.8 542.299 507.4 546.899C487.1 551.399 494.3 513.8 431.2 485.8C347.5 448.6 363 438.3 395.5 433.8C428 429.3 462.3 413.799 499.1 464.599Z" stroke="#DBDBDB" stroke-linecap="round"/>
<path d="M484.4 480.3C495.1 492.7 511.9 511 494.8 508.7C477.7 506.4 442.8 475.5 453.9 473.9C465.1 472.3 473.7 468.1 484.4 480.3Z" stroke="#DBDBDB" stroke-linecap="round"/>
</g>
<defs>
<clipPath id="clip0_787_5699">
<rect width="861" height="984" fill="white" transform="translate(0 861) rotate(-90)"/>
</clipPath>
</defs>
</svg>
