<svg width="360" height="608" viewBox="0 0 360 608" fill="none" xmlns="http://www.w3.org/2000/svg">
<g clip-path="url(#clip0_835_6368)">
<path d="M36.6407 153.73C-19.9577 127.779 -0.617911 123.021 30.0292 77.7301C40.6569 61.974 100.715 -0.185363 200.566 0.926832C358.498 2.65691 300.169 79.5837 375.242 129.262C450.315 179.002 514.823 48.3805 527.675 90.026C540.527 131.672 499.067 189.876 522.732 200.38C546.397 210.885 517.294 235.229 488.933 269.028C460.572 302.826 414.478 414.602 453.528 468.42C492.579 522.237 382.904 613.128 332.423 607.382C281.941 601.636 326.676 432.335 146.254 473.301C104.176 482.878 32.6244 381.545 44.1171 339.22C55.548 296.956 63.8894 287.75 63.8894 287.75" stroke="#DBDBDB" stroke-linecap="round"/>
<path d="M36.6406 139.024C3.7691 132.228 14.4585 117.954 41.5837 76.9268C50.9756 62.6537 116.286 11.3691 204.706 12.3577C344.533 13.9024 292.507 101.642 358.93 146.686C425.353 191.73 439.688 122.65 451.057 160.341C462.426 198.033 422.696 220.338 443.642 229.792C464.589 239.246 484.67 242.582 459.645 273.229C434.621 303.876 404.592 383.769 427.206 439.008C459.831 518.777 398.537 560.237 353.863 555.047C309.19 549.919 276.319 390.072 142.917 446.299C107.512 461.19 55.7333 375.18 65.8048 336.933C75.8764 298.686 86.8748 284.475 86.8748 284.475" stroke="#DBDBDB" stroke-linecap="round"/>
<path d="M380.432 414.911C398.969 435.054 417.197 453.467 409.844 488.933C402.491 524.276 372.771 549.301 324.328 499.005C275.886 448.709 244.559 380.618 293.99 400.02C343.483 419.298 361.834 394.706 380.432 414.911Z" stroke="#DBDBDB" stroke-linecap="round"/>
<path d="M334.956 444.94C356.459 441.171 366.839 428.751 376.787 436.166C386.735 443.58 395.633 492.085 380.309 503.824C364.985 515.564 341.815 500.055 315.245 469.964C288.676 439.997 313.454 448.832 334.956 444.94Z" stroke="#DBDBDB" stroke-linecap="round"/>
<path d="M359.919 471.324C369.496 464.403 376.045 475.216 369.743 482.631C363.441 489.984 350.403 478.244 359.919 471.324Z" stroke="#DBDBDB" stroke-linecap="round"/>
<path d="M54.8065 106.276C57.7723 74.5789 113.32 50.1724 171.772 44.1789C230.224 38.1854 265.135 -3.46015 282.189 98.1203C299.242 199.701 361.216 134.452 369.496 209.278C377.776 284.104 428.628 367.642 371.967 373.574C315.307 379.506 261.984 363.194 237.701 380.124C213.418 397.054 160.836 421.831 128.953 405.457C97.0699 389.083 62.2829 343.977 88.6049 320.436C114.865 296.894 115.792 280.397 115.792 280.397" stroke="#DBDBDB" stroke-linecap="round"/>
<path d="M70.439 106.276C78.6569 89.7789 168.312 46.9593 211.317 72.7252C254.322 98.5528 257.102 143.535 282.992 169.177C308.881 194.819 386.55 268.039 334.091 313.083C281.632 358.003 170.413 390.813 142.979 360.475C115.545 330.137 132.289 280.335 132.289 280.335" stroke="#DBDBDB"/>
<path d="M176.283 45.7854C177.409 45.7854 178.322 44.8725 178.322 43.7463C178.322 42.6202 177.409 41.7073 176.283 41.7073C175.157 41.7073 174.244 42.6202 174.244 43.7463C174.244 44.8725 175.157 45.7854 176.283 45.7854Z" fill="#DBDBDB"/>
<path d="M257.473 357.262C258.395 357.262 259.141 356.515 259.141 355.593C259.141 354.672 258.395 353.925 257.473 353.925C256.552 353.925 255.805 354.672 255.805 355.593C255.805 356.515 256.552 357.262 257.473 357.262Z" fill="#DBDBDB"/>
<path d="M114.927 107.141C117.584 92.4358 175.294 77.4211 189.876 82.6114C204.459 87.8016 215.519 91.0146 239.307 139.024C263.096 187.034 415.281 298.192 212.12 355.593C119.252 381.854 158.55 281.2 158.55 281.2" stroke="#DBDBDB"/>
<path d="M188.27 280.397C188.27 280.397 159.6 325.75 180.855 335.141C202.11 344.533 280.149 315.678 286.328 293.434C292.507 271.19 268.842 185.242 243.509 200.257C218.114 215.272 229.174 234.859 213.85 243.571" stroke="#DBDBDB" stroke-linecap="round"/>
<path d="M244.93 308.387C228.556 320.189 196.92 326.12 194.078 313.515C191.298 300.972 214.53 305.421 231.831 266.433C254.816 214.715 261.18 224.293 263.961 244.374C266.741 264.455 276.319 285.649 244.93 308.387Z" stroke="#DBDBDB" stroke-linecap="round"/>
<path d="M235.229 299.304C227.567 305.915 216.26 316.296 217.681 305.73C219.102 295.164 238.195 273.6 239.184 280.459C240.172 287.379 242.767 292.693 235.229 299.304Z" stroke="#DBDBDB" stroke-linecap="round"/>
</g>
<defs>
<clipPath id="clip0_835_6368">
<rect width="532" height="608" fill="white"/>
</clipPath>
</defs>
</svg>
