<svg width="360" height="512" viewBox="0 0 360 512" fill="none" xmlns="http://www.w3.org/2000/svg">
<g clip-path="url(#clip0_835_6102)">
<path d="M90.1675 476.737C65.1553 531.207 60.5697 512.595 16.9175 483.1C1.73151 472.871 -58.1787 415.071 -57.1067 318.974C-55.4392 166.98 18.7041 223.115 66.5845 150.864C114.525 78.6136 -11.3701 16.5314 28.7685 4.16251C68.9071 -8.20637 125.006 31.6951 135.13 8.91976C145.254 -13.8556 168.718 14.1527 201.293 41.4475C233.869 68.7423 341.6 113.104 393.47 75.5214C445.341 37.939 532.943 143.491 527.404 192.074C521.866 240.658 358.691 197.605 398.175 371.244C407.406 411.741 309.739 480.602 268.945 469.541C228.211 458.54 219.338 450.512 219.338 450.512" stroke="#E7E7E7" stroke-linecap="round"/>
<path d="M75.9939 476.737C69.4431 508.372 55.6864 498.085 16.1433 471.979C2.38658 462.941 -47.0423 400.085 -46.0894 314.99C-44.6006 180.419 39.9644 230.489 83.3784 166.563C126.792 102.638 60.2124 88.8417 96.5396 77.9C132.867 66.9583 154.365 105.195 163.477 85.0359C172.589 64.877 175.804 45.5507 205.343 69.6343C234.881 93.7179 311.883 122.618 365.123 100.854C442.006 69.4559 481.966 128.446 476.963 171.44C472.02 214.433 317.957 246.069 372.15 374.456C386.502 408.529 303.605 458.362 266.742 448.669C229.878 438.976 216.181 428.391 216.181 428.391" stroke="#E7E7E7" stroke-linecap="round"/>
<path d="M341.897 145.869C361.312 128.03 379.058 110.487 413.242 117.564C447.306 124.64 471.425 153.243 422.949 199.864C374.473 246.485 308.846 276.635 327.545 229.062C346.126 181.43 322.424 163.769 341.897 145.869Z" stroke="#E7E7E7" stroke-linecap="round"/>
<path d="M370.84 189.636C367.207 168.942 355.237 158.952 362.384 149.378C369.53 139.804 416.279 131.241 427.594 145.988C438.909 160.736 423.961 183.036 394.959 208.606C366.076 234.176 374.592 210.33 370.84 189.636Z" stroke="#E7E7E7" stroke-linecap="round"/>
<path d="M44.4309 459.254C13.8803 456.4 -9.64309 402.94 -15.4197 346.685C-21.1963 290.431 -61.335 256.833 36.5699 240.42C134.475 224.007 71.587 164.363 143.705 156.395C215.824 148.426 296.339 99.4862 302.056 154.016C307.774 208.546 292.052 259.865 308.369 283.235C324.687 306.605 348.567 357.211 332.786 387.895C317.004 418.579 273.531 452.058 250.841 426.726C228.151 401.453 212.251 400.561 212.251 400.561" stroke="#E7E7E7" stroke-linecap="round"/>
<path d="M44.4309 444.209C28.5303 436.3 -12.7399 350.015 12.0937 308.627C36.9868 267.239 80.3412 264.563 105.056 239.647C129.77 214.731 200.34 139.982 243.754 190.469C287.049 240.955 318.672 347.993 289.431 374.396C260.191 400.799 212.191 384.684 212.191 384.684" stroke="#E7E7E7"/>
<path d="M286.335 264.206C286.335 263.32 285.615 262.601 284.727 262.601C283.839 262.601 283.119 263.32 283.119 264.206C283.119 265.093 283.839 265.812 284.727 265.812C285.615 265.812 286.335 265.093 286.335 264.206Z" fill="#E7E7E7"/>
<path d="M45.2646 401.394C31.0911 398.837 16.6197 343.296 21.6221 329.262C26.6246 315.228 29.7213 304.583 75.9939 281.689C122.266 258.795 229.402 112.331 284.727 307.854C310.037 397.231 213.025 359.411 213.025 359.411" stroke="#E7E7E7"/>
<path d="M212.251 330.808C212.251 330.808 255.963 358.4 265.015 337.944C274.067 317.488 246.256 242.383 224.816 236.436C203.377 230.489 120.539 253.265 135.011 277.646C149.482 302.086 168.36 291.442 176.757 306.189" stroke="#E7E7E7" stroke-linecap="round"/>
<path d="M239.228 276.278C250.603 292.036 256.32 322.483 244.171 325.218C232.082 327.894 236.37 305.535 198.792 288.884C148.946 266.763 158.177 260.638 177.531 257.962C196.886 255.286 217.313 246.069 239.228 276.278Z" stroke="#E7E7E7" stroke-linecap="round"/>
<path d="M230.474 285.614C236.846 292.988 246.851 303.87 236.667 302.502C226.484 301.134 205.7 282.76 212.31 281.808C218.98 280.857 224.102 278.359 230.474 285.614Z" stroke="#E7E7E7" stroke-linecap="round"/>
</g>
<defs>
<clipPath id="clip0_835_6102">
<rect width="512" height="586" fill="white" transform="translate(-58 512) rotate(-90)"/>
</clipPath>
</defs>
</svg>
