<svg width="748" height="984" viewBox="0 0 748 984" fill="none" xmlns="http://www.w3.org/2000/svg">
<g opacity="0.3" clip-path="url(#clip0_669_4489)">
<path d="M59.3001 248.8C-32.2999 206.8 -1.00002 199.1 48.6 125.8C65.8 100.3 163 -0.299585 324.6 1.50041C580.2 4.30041 485.8 128.8 607.3 209.2C728.8 289.7 833.2 78.3004 854 145.7C874.8 213.1 807.7 307.3 846 324.3C884.3 341.3 837.2 380.7 791.3 435.4C745.4 490.1 670.8 671 734 758.1C797.2 845.2 619.7 992.3 538 983C456.3 973.7 528.7 699.7 236.7 766C168.6 781.5 52.8 617.5 71.4 549C89.9 480.6 103.4 465.7 103.4 465.7" stroke="#4D5E9A" stroke-linecap="round"/>
<path d="M59.3 225C6.10001 214 23.4 190.9 67.3 124.5C82.5 101.4 188.2 18.4004 331.3 20.0004C557.6 22.5004 473.4 164.5 580.9 237.4C688.4 310.3 711.6 198.5 730 259.5C748.4 320.5 684.1 356.6 718 371.9C751.9 387.2 784.4 392.6 743.9 442.2C703.4 491.8 654.8 621.1 691.4 710.5C744.2 839.6 645 906.7 572.7 898.3C500.4 890 447.2 631.3 231.3 722.3C174 746.4 90.2 607.2 106.5 545.3C122.8 483.4 140.6 460.4 140.6 460.4" stroke="#4D5E9A" stroke-linecap="round"/>
<path d="M615.7 671.5C645.7 704.1 675.2 733.9 663.3 791.3C651.4 848.5 603.3 889 524.9 807.6C446.5 726.2 395.8 616 475.8 647.4C555.9 678.6 585.6 638.8 615.7 671.5Z" stroke="#4D5E9A" stroke-linecap="round"/>
<path d="M542.1 720.1C576.9 714 593.7 693.9 609.8 705.9C625.9 717.9 640.3 796.4 615.5 815.4C590.7 834.4 553.2 809.3 510.2 760.6C467.2 712.1 507.3 726.4 542.1 720.1Z" stroke="#4D5E9A" stroke-linecap="round"/>
<path d="M582.5 762.8C598 751.6 608.6 769.1 598.4 781.1C588.2 793 567.1 774 582.5 762.8Z" stroke="#4D5E9A" stroke-linecap="round"/>
<path d="M88.7 172C93.5 120.7 183.4 81.1996 278 71.4996C372.6 61.7996 429.1 -5.60036 456.7 158.8C484.3 323.2 584.6 217.6 598 338.7C611.4 459.8 693.7 595 602 604.6C510.3 614.2 424 587.8 384.7 615.2C345.4 642.6 260.3 682.7 208.7 656.2C157.1 629.7 100.8 556.7 143.4 518.6C185.9 480.5 187.4 453.8 187.4 453.8" stroke="#4D5E9A" stroke-linecap="round"/>
<path d="M114 172C127.3 145.3 272.4 76.0004 342 117.7C411.6 159.5 416.1 232.3 458 273.8C499.9 315.3 625.6 433.8 540.7 506.7C455.8 579.4 275.8 632.5 231.4 583.4C187 534.3 214.1 453.7 214.1 453.7" stroke="#4D5E9A"/>
<path d="M285.3 74.1C287.123 74.1 288.6 72.6225 288.6 70.8C288.6 68.9775 287.123 67.5 285.3 67.5C283.478 67.5 282 68.9775 282 70.8C282 72.6225 283.478 74.1 285.3 74.1Z" fill="#4D5E9A"/>
<path d="M416.7 578.2C418.191 578.2 419.4 576.991 419.4 575.5C419.4 574.009 418.191 572.8 416.7 572.8C415.209 572.8 414 574.009 414 575.5C414 576.991 415.209 578.2 416.7 578.2Z" fill="#4D5E9A"/>
<path d="M186 173.4C190.3 149.6 283.7 125.3 307.3 133.7C330.9 142.1 348.8 147.3 387.3 225C425.8 302.7 672.1 482.6 343.3 575.5C193 618 256.6 455.1 256.6 455.1" stroke="#4D5E9A"/>
<path d="M304.7 453.8C304.7 453.8 258.3 527.2 292.7 542.4C327.1 557.6 453.4 510.9 463.4 474.9C473.4 438.9 435.1 299.8 394.1 324.1C353 348.4 370.9 380.1 346.1 394.2" stroke="#4D5E9A" stroke-linecap="round"/>
<path d="M396.4 499.1C369.9 518.2 318.7 527.8 314.1 507.4C309.6 487.1 347.2 494.3 375.2 431.2C412.4 347.5 422.7 363 427.2 395.5C431.7 428 447.2 462.3 396.4 499.1Z" stroke="#4D5E9A" stroke-linecap="round"/>
<path d="M380.7 484.4C368.3 495.1 350 511.9 352.3 494.8C354.6 477.7 385.5 442.8 387.1 453.9C388.7 465.1 392.9 473.7 380.7 484.4Z" stroke="#4D5E9A" stroke-linecap="round"/>
</g>
<defs>
<clipPath id="clip0_669_4489">
<rect width="861" height="984" fill="white"/>
</clipPath>
</defs>
</svg>
