<svg width="799" height="984" viewBox="0 0 799 984" fill="none" xmlns="http://www.w3.org/2000/svg">
<g clip-path="url(#clip0_684_5767)">
<path d="M739.7 735.2C831.3 777.2 800 784.9 750.4 858.2C733.2 883.7 636 984.3 474.4 982.5C218.8 979.7 313.2 855.2 191.7 774.8C70.1999 694.3 -34.2 905.7 -55 838.3C-75.8 770.9 -8.70003 676.7 -47 659.7C-85.3 642.7 -38.2001 603.3 7.69991 548.6C53.5999 493.9 128.2 313 64.9999 225.9C1.79993 138.8 179.3 -8.29989 261 1.00011C342.7 10.3001 270.3 284.3 562.3 218C630.4 202.5 746.2 366.5 727.6 435C709.1 503.4 695.6 518.3 695.6 518.3" stroke="white" stroke-linecap="round"/>
<path d="M739.7 759C792.9 770 775.6 793.1 731.7 859.5C716.5 882.6 610.8 965.6 467.7 964C241.4 961.5 325.6 819.5 218.1 746.6C110.6 673.7 87.4 785.5 69 724.5C50.6 663.5 114.9 627.4 81 612.1C47.1 596.8 14.6001 591.4 55.1001 541.8C95.6001 492.2 144.2 362.9 107.6 273.5C54.8001 144.4 154 77.2999 226.3 85.6999C298.6 93.9999 351.8 352.7 567.7 261.7C625 237.6 708.8 376.8 692.5 438.7C676.2 500.6 658.4 523.6 658.4 523.6" stroke="white" stroke-linecap="round"/>
<path d="M183.3 312.5C153.3 279.9 123.8 250.1 135.7 192.7C147.6 135.5 195.7 95.0002 274.1 176.4C352.5 257.8 403.2 368 323.2 336.6C243.1 305.4 213.4 345.2 183.3 312.5Z" stroke="white" stroke-linecap="round"/>
<path d="M256.9 263.9C222.1 270 205.3 290.1 189.2 278.1C173.1 266.1 158.7 187.6 183.5 168.6C208.3 149.6 245.8 174.7 288.8 223.4C331.8 271.9 291.7 257.6 256.9 263.9Z" stroke="white" stroke-linecap="round"/>
<path d="M216.5 221.2C201 232.4 190.4 214.9 200.6 202.9C210.8 191 231.9 210 216.5 221.2Z" stroke="white" stroke-linecap="round"/>
<path d="M710.3 812C705.5 863.3 615.6 902.8 521 912.5C426.4 922.2 369.9 989.6 342.3 825.2C314.7 660.8 214.4 766.4 201 645.3C187.6 524.2 105.3 389 197 379.4C288.7 369.8 375 396.2 414.3 368.8C453.6 341.4 538.7 301.3 590.3 327.8C641.9 354.3 698.2 427.3 655.6 465.4C613.1 503.5 611.6 530.2 611.6 530.2" stroke="white" stroke-linecap="round"/>
<path d="M685 812C671.7 838.7 526.6 908 457 866.3C387.4 824.5 382.9 751.7 341 710.2C299.1 668.7 173.4 550.2 258.3 477.3C343.2 404.6 523.2 351.5 567.6 400.6C612 449.7 584.9 530.3 584.9 530.3" stroke="white"/>
<path d="M513.7 909.9C511.877 909.9 510.4 911.377 510.4 913.2C510.4 915.023 511.877 916.5 513.7 916.5C515.522 916.5 517 915.023 517 913.2C517 911.377 515.522 909.9 513.7 909.9Z" fill="white"/>
<path d="M382.3 405.8C380.809 405.8 379.6 407.009 379.6 408.5C379.6 409.991 380.809 411.2 382.3 411.2C383.791 411.2 385 409.991 385 408.5C385 407.009 383.791 405.8 382.3 405.8Z" fill="white"/>
<path d="M613 810.6C608.7 834.4 515.3 858.7 491.7 850.3C468.1 841.9 450.2 836.7 411.7 759C373.2 681.3 126.9 501.4 455.7 408.5C606 366 542.4 528.9 542.4 528.9" stroke="white"/>
<path d="M494.3 530.2C494.3 530.2 540.7 456.8 506.3 441.6C471.9 426.4 345.6 473.1 335.6 509.1C325.6 545.1 363.9 684.2 404.9 659.9C446 635.6 428.1 603.9 452.9 589.8" stroke="white" stroke-linecap="round"/>
<path d="M402.6 484.9C429.1 465.8 480.3 456.2 484.9 476.6C489.4 496.9 451.8 489.7 423.8 552.8C386.6 636.5 376.3 621 371.8 588.5C367.3 556 351.8 521.7 402.6 484.9Z" stroke="white" stroke-linecap="round"/>
<path d="M418.3 499.6C430.7 488.9 449 472.1 446.7 489.2C444.4 506.3 413.5 541.2 411.9 530.1C410.3 518.9 406.1 510.3 418.3 499.6Z" stroke="white" stroke-linecap="round"/>
</g>
<defs>
<clipPath id="clip0_684_5767">
<rect width="861" height="984" fill="white" transform="translate(799 984) rotate(180)"/>
</clipPath>
</defs>
</svg>
