<svg width="310" height="561" viewBox="0 0 310 561" fill="none" xmlns="http://www.w3.org/2000/svg">
<g clip-path="url(#clip0_835_6475)">
<path d="M162.327 522.361C134.924 582.045 129.901 561.651 82.0768 529.333C65.4396 518.126 -0.195759 454.794 0.978627 349.501C2.80545 182.96 84.0341 244.468 136.49 165.302C189.012 86.1367 51.0859 18.1131 95.0603 4.56048C139.035 -8.99214 200.494 34.7281 211.586 9.77302C222.677 -15.182 248.384 15.5068 284.072 45.4137C319.76 75.3207 437.787 123.928 494.614 82.7486C551.441 41.5695 647.415 157.223 641.348 210.456C635.28 263.689 456.512 216.516 499.768 406.773C509.881 451.145 402.881 526.597 358.189 514.478C313.562 502.424 303.841 493.627 303.841 493.627" stroke="#DBDBDB" stroke-linecap="round"/>
<path d="M146.799 522.362C139.622 557.025 124.551 545.753 81.2287 517.149C66.1573 507.246 12.0049 438.375 13.0488 345.135C14.6799 197.686 107.326 252.548 154.889 182.504C202.452 112.461 129.509 97.3442 169.308 85.3554C209.107 73.3665 232.66 115.262 242.642 93.1742C252.624 71.086 256.148 49.9101 288.509 76.2986C320.87 102.687 405.23 134.353 463.558 110.506C547.788 76.1031 591.566 140.739 586.086 187.847C580.671 234.955 411.885 269.619 471.257 410.292C486.981 447.627 396.161 502.228 355.775 491.608C315.389 480.987 300.383 469.389 300.383 469.389" stroke="#DBDBDB" stroke-linecap="round"/>
<path d="M112.22 503.206C78.7494 500.079 52.9781 441.503 46.6494 379.864C40.3207 318.226 -3.65366 281.412 103.607 263.429C210.868 245.446 141.971 180.093 220.981 171.362C299.991 162.631 388.201 109.007 394.465 168.756C400.728 228.505 383.504 284.735 401.38 310.342C419.257 335.949 445.42 391.397 428.13 425.018C410.841 458.639 363.213 495.322 338.355 467.565C313.497 439.874 296.077 438.896 296.077 438.896" stroke="#DBDBDB" stroke-linecap="round"/>
<path d="M112.22 486.722C94.7994 478.056 49.5854 383.513 76.7921 338.164C104.064 292.815 151.562 289.883 178.638 262.582C205.714 235.282 283.028 153.38 330.591 208.698C378.023 264.016 412.668 381.298 380.633 410.228C348.598 439.157 296.012 421.5 296.012 421.5" stroke="#DBDBDB"/>
<path d="M48.3457 375.108C48.3457 373.92 47.3818 372.957 46.1927 372.957C45.0036 372.957 44.0396 373.92 44.0396 375.108C44.0396 376.295 45.0036 377.258 46.1927 377.258C47.3818 377.258 48.3457 376.295 48.3457 375.108Z" fill="#DBDBDB"/>
<path d="M113.133 439.809C97.6049 437.007 81.7506 376.15 87.2311 360.773C92.7116 345.396 96.1043 333.733 146.799 308.648C197.493 283.563 314.867 123.081 375.479 337.317C403.207 435.248 296.925 393.808 296.925 393.808" stroke="#DBDBDB"/>
<path d="M296.077 362.467C296.077 362.467 343.966 392.7 353.883 370.286C363.8 347.872 333.331 265.579 309.843 259.063C286.356 252.548 195.601 277.503 211.456 304.217C227.31 330.996 247.992 319.333 257.191 335.492" stroke="#DBDBDB" stroke-linecap="round"/>
<path d="M325.632 302.718C338.094 319.985 344.357 353.345 331.048 356.343C317.803 359.275 322.501 334.776 281.332 316.532C226.723 292.293 236.835 285.582 258.04 282.65C279.244 279.718 301.623 269.619 325.632 302.718Z" stroke="#DBDBDB" stroke-linecap="round"/>
<path d="M316.041 312.948C323.023 321.027 333.983 332.951 322.827 331.452C311.67 329.954 288.9 309.82 296.142 308.778C303.449 307.735 309.06 304.999 316.041 312.948Z" stroke="#DBDBDB" stroke-linecap="round"/>
</g>
<defs>
<clipPath id="clip0_835_6475">
<rect width="561" height="642" fill="white" transform="translate(0 561) rotate(-90)"/>
</clipPath>
</defs>
</svg>
