<svg width="187" height="48" viewBox="0 0 187 48" fill="none" xmlns="http://www.w3.org/2000/svg">
<g clip-path="url(#clip0_835_5737)">
<path d="M6.05756 26.6806L2.62793 22.6686V22.6039C2.62793 21.7626 2.62792 2.28485 2.69263 1.83188C2.82205 1.50833 3.14561 1.37891 3.33974 1.37891H3.40445V1.70246H5.66931V1.76717C5.86344 10.956 6.18699 26.3571 6.12228 26.4865L6.05756 26.6806ZM2.88677 22.6039L5.99286 26.2923C5.99286 24.2863 5.73402 9.85595 5.53989 1.9613H3.27503V1.57304C3.14561 1.57304 3.01619 1.63775 2.95148 1.89659C2.88677 2.22014 2.88677 15.5504 2.88677 22.6039Z" fill="white"/>
<path d="M5.60435 2.15527H4.31015V2.28469H5.60435V2.15527Z" fill="white"/>
<path d="M4.42115 2.19029L3.63715 1.73633L3.57229 1.84833L4.35629 2.3023L4.42115 2.19029Z" fill="white"/>
<path d="M4.1806 1.50828C4.24531 1.50828 4.76299 1.50828 4.76299 1.50828V0.731762C4.69828 0.472921 4.24531 0.408211 4.1806 0.731762V1.50828Z" fill="white"/>
<path d="M5.79834 11.8623C5.86305 11.927 6.63957 12.5094 6.63957 12.5094V12.9624L5.79834 12.4447" fill="white"/>
<path d="M7.99865 30.9512C7.86923 31.2747 6.96328 31.21 6.38089 31.2747H5.60437C5.60437 31.2747 7.61039 31.3394 7.80452 31.2747C7.99866 31.2747 7.99865 30.9512 7.99865 30.9512Z" fill="white"/>
<path d="M8.12781 31.0166C7.99839 31.3402 6.96303 31.2107 6.44534 31.2754H5.66882C5.66882 31.2754 7.67484 31.3402 7.86897 31.2754C8.0631 31.2107 8.12781 31.0166 8.12781 31.0166Z" fill="white"/>
<path d="M2.36874 37.033C2.43345 37.0977 2.43345 37.1624 2.49816 37.1624C2.49816 37.0977 2.49816 36.9683 2.49816 36.8389C2.43345 36.9036 2.36874 36.9683 2.36874 37.033Z" fill="white"/>
<path d="M2.95114 32.1797C2.6923 32.1797 2.49816 32.3738 2.36874 32.6327C2.56287 32.9562 2.6923 33.3445 2.75701 33.8622C3.01585 33.2798 3.3394 32.8915 3.66295 32.8915C3.66295 32.8915 3.66295 32.8915 3.72766 32.8915C3.53353 32.4385 3.27469 32.1797 2.95114 32.1797Z" fill="white"/>
<path d="M1.72199 33.3452C2.11025 33.3452 2.36909 33.9923 2.36909 34.8336C2.36909 33.9276 2.11025 33.2158 1.72199 33.2158C1.33373 33.2158 1.07489 33.9276 1.07489 34.8336C1.07489 33.9923 1.39844 33.3452 1.72199 33.3452Z" fill="white"/>
<path d="M1.72199 36.3213C1.33373 36.3213 1.07489 35.6742 1.07489 34.833C1.07489 35.739 1.33373 36.4508 1.72199 36.4508C2.11025 36.4508 2.36909 35.739 2.36909 34.833C2.36909 35.6742 2.11025 36.3213 1.72199 36.3213Z" fill="white"/>
<path d="M1.85141 36.0635C2.13732 36.0635 2.3691 35.513 2.3691 34.834C2.3691 34.155 2.13732 33.6045 1.85141 33.6045C1.56551 33.6045 1.33374 34.155 1.33374 34.834C1.33374 35.513 1.56551 36.0635 1.85141 36.0635Z" fill="white"/>
<path d="M19.1938 25.2569C19.1938 25.1922 19.2585 25.1275 19.3232 25.1275H20.5527C20.6174 26.2275 20.6821 27.1335 20.5527 27.8453H20.2291H20.6821C20.6821 26.9394 20.6174 26.2923 20.6174 24.998H18.8702C18.8055 24.998 18.7408 25.0628 18.7408 25.1275C18.6114 26.2275 18.6114 27.1335 18.7408 27.91H19.1938C19.1291 27.1335 19.1291 26.2923 19.1938 25.2569Z" fill="white"/>
<path d="M2.4338 36.9043C2.30438 37.1631 2.11026 37.3573 1.98083 37.422H2.56322C2.49851 37.2926 2.4338 37.0984 2.4338 36.9043Z" fill="white"/>
<path d="M3.66317 34.1865C3.21019 34.1865 2.82193 35.0278 2.82193 36.1278C2.82193 37.2279 3.21019 38.0691 3.66317 38.0691C4.11614 38.0691 4.5044 37.2279 4.5044 36.1278C4.5044 35.0278 4.18085 34.1865 3.66317 34.1865ZM3.66317 38.0044C3.21019 38.0044 2.88664 37.1632 2.88664 36.1925C2.88664 35.2219 3.21019 34.3807 3.66317 34.3807C4.11614 34.3807 4.43969 35.2219 4.43969 36.1925C4.43969 37.2279 4.11614 38.0044 3.66317 38.0044Z" fill="white"/>
<path d="M3.79235 37.6163C4.114 37.6163 4.37475 36.95 4.37475 36.128C4.37475 35.306 4.114 34.6396 3.79235 34.6396C3.4707 34.6396 3.20996 35.306 3.20996 36.128C3.20996 36.95 3.4707 37.6163 3.79235 37.6163Z" fill="white"/>
<path d="M6.89856 27.069C7.07726 27.069 7.22211 26.9241 7.22211 26.7454C7.22211 26.5667 7.07726 26.4219 6.89856 26.4219C6.71987 26.4219 6.57501 26.5667 6.57501 26.7454C6.57501 26.9241 6.71987 27.069 6.89856 27.069Z" fill="white"/>
<path d="M6.8983 28.4278C7.04126 28.4278 7.15715 28.312 7.15715 28.169C7.15715 28.026 7.04126 27.9102 6.8983 27.9102C6.75535 27.9102 6.63947 28.026 6.63947 28.169C6.63947 28.312 6.75535 28.4278 6.8983 28.4278Z" fill="white"/>
<path d="M7.61062 27.0039C7.35178 27.0039 7.15765 27.198 7.15765 27.4569C7.15765 27.7157 7.35178 27.9098 7.61062 27.9098C7.86946 27.9098 8.06359 27.7157 8.06359 27.4569C8.06359 27.198 7.86946 27.0039 7.61062 27.0039ZM7.61062 27.651C7.4812 27.651 7.41649 27.5863 7.41649 27.4569C7.41649 27.3275 7.4812 27.2627 7.61062 27.2627C7.74004 27.2627 7.80476 27.3275 7.80476 27.4569C7.80476 27.5863 7.74004 27.651 7.61062 27.651Z" fill="white"/>
<path d="M29.2236 31.4038C28.7706 31.3391 27.0881 31.2744 27.0881 31.2744C27.0881 31.2744 27.0882 33.3451 27.2176 33.2157C27.0234 33.8628 26.894 35.157 27.0234 35.2864C27.0881 35.5453 27.9294 35.3512 27.9294 35.2217C27.9294 35.3512 28.7706 34.1864 28.9647 33.604C29.0295 33.4099 29.0942 32.7628 29.0942 32.3745C29.2883 32.3098 29.4824 32.3098 29.6118 32.2451C29.8707 32.1804 30.1295 31.9215 30.1295 31.7921C30.0648 31.598 29.806 31.4685 29.2236 31.4038ZM27.9294 34.3805C27.6058 34.3805 27.347 34.057 27.347 33.6687C27.347 33.2804 27.6058 32.9569 27.9294 32.9569C28.2529 32.9569 28.5118 33.2804 28.5118 33.6687C28.5118 34.057 28.2529 34.3805 27.9294 34.3805ZM29.353 32.2451C28.9 32.3745 28.5118 32.3745 28.1235 32.5039C27.7353 32.698 27.4117 32.8922 27.2823 33.0216C27.1529 33.151 27.2176 32.3745 27.2176 32.3745C27.2176 32.3745 28.3176 31.8568 28.9647 31.7921C29.5471 31.7274 30.0648 31.7274 30.0001 31.9215C30.0001 32.1156 29.5471 32.1804 29.353 32.2451Z" fill="white"/>
<path d="M23.7231 27.9747C23.7231 28.2983 23.2701 28.6218 22.9466 28.6218C22.623 28.6218 22.2995 28.4277 22.2995 28.1041C22.2995 27.7806 22.623 27.457 22.9466 27.457C23.2701 27.457 23.7231 27.6512 23.7231 27.9747Z" fill="white"/>
<path d="M23.3349 27.1328C23.3349 27.1975 23.3349 27.2622 23.3996 27.3269C23.4643 27.3917 23.529 27.5211 23.5937 27.5211C23.6584 27.5858 23.9173 27.5211 24.0467 27.5211C24.1114 27.5211 24.1114 27.5211 24.1761 27.4564C24.2408 27.3917 24.3055 27.3269 24.3055 27.2622C24.3055 27.1328 24.3055 24.9974 24.3055 24.9974C24.3055 24.9974 24.2408 24.7385 24.0467 24.6738C23.8526 24.6738 23.4643 24.6738 23.4643 24.6738C23.4643 24.6738 23.2702 24.7385 23.2702 25.0621C23.2702 25.3209 23.3349 26.8093 23.3349 27.1328Z" fill="white"/>
<path d="M21.0052 24.6096C21.0052 24.6096 23.2053 24.5449 23.27 24.5449C23.3347 24.5449 23.4641 24.7391 23.4641 24.7391L23.3347 24.8038C23.3347 24.8038 23.27 24.7391 23.1406 24.7391C23.0112 24.7391 20.8757 24.7391 20.8757 24.7391L21.0052 24.6096Z" fill="white"/>
<path d="M21.1349 25.2568C21.1349 25.2568 21.9114 28.1041 21.9761 28.2335C22.0408 28.3629 22.8174 28.3629 23.5292 28.6218C25.6646 29.3336 26.7 30.4984 26.7 30.4984C26.7 30.4984 24.9528 29.2042 23.4645 28.8159C22.8174 28.6218 21.8467 28.3629 21.8467 28.3629L21.1349 25.2568Z" fill="white"/>
<path d="M26.5709 30.627C26.5709 30.6917 20.2293 31.5329 20.0352 31.4682C19.7763 31.3388 20.0999 31.6623 20.0999 31.6623C22.1059 31.5329 24.6943 31.0799 26.5709 30.627Z" fill="white"/>
<path d="M13.5643 29.5281C13.5643 29.5281 16.6057 29.3987 18.094 30.0458C19.647 30.6929 19.7117 31.0812 19.7117 31.0812C19.7117 31.0812 19.1941 30.4341 16.7998 29.8517C15.3762 29.5281 13.5643 29.5281 13.5643 29.5281Z" fill="white"/>
<path d="M20.7468 28.4277C20.7468 28.4277 14.5346 28.8807 14.0169 29.0748C13.4345 29.269 13.3698 29.3337 13.3051 29.3984C13.2404 29.4631 13.4345 29.4631 13.4345 29.4631C13.3051 29.4631 13.2404 29.5278 13.1757 29.4631C13.1757 29.4631 13.1757 29.3337 13.4345 29.1395C13.6933 29.0101 14.0169 28.8807 14.211 28.8807C16.2818 28.6219 20.7468 28.4277 20.7468 28.4277Z" fill="white"/>
<path d="M19.9057 28.4277C19.9057 28.4277 13.8229 28.6219 13.0464 28.8807C12.5934 29.0748 12.3993 29.2043 12.3993 29.2043C12.3346 29.2043 12.3993 29.0748 12.5934 29.0101C12.7875 28.8807 13.0464 28.816 13.2405 28.816C14.8583 28.6219 19.9057 28.4277 19.9057 28.4277Z" fill="white"/>
<path d="M16.2172 25.5156C14.5347 25.5156 12.9817 25.5156 11.1698 25.5803C11.1051 26.4216 11.1051 27.1334 11.3639 27.6511C13.1758 27.5864 14.8583 27.5216 16.3466 27.3922C16.4113 26.8745 16.3466 26.2274 16.2172 25.5156ZM16.1525 27.2628C14.7288 27.4569 13.1758 27.4569 11.4286 27.4569C11.3639 26.8098 11.2992 26.2274 11.3639 25.8392C12.8522 25.645 14.47 25.645 16.1525 25.645C16.2172 26.2274 16.2172 26.8098 16.1525 27.2628Z" fill="white"/>
<path d="M17.3168 40.7869V40.3339H17.2521H16.4756C16.4756 40.3339 16.605 42.8576 16.7991 42.8576C16.9932 42.8576 18.611 42.4694 18.9345 42.2752C19.2581 42.0164 19.3228 41.4987 19.3228 41.4987C19.3228 41.4987 19.3228 41.1752 19.3875 41.6928C19.4522 42.2105 20.0346 42.34 20.3582 42.34C20.7464 42.34 24.1761 41.1105 24.1761 41.1105L23.8525 39.3633C21.9112 39.881 19.7111 40.3339 17.3168 40.7869Z" fill="white"/>
<path d="M17.1877 40.9813V38.7811H17.3172C21.7175 37.8752 26.2472 36.9692 30.4533 35.9339L30.6475 35.8691V37.5516L30.518 37.6163C27.6061 38.7164 23.0764 39.8812 17.3819 40.9813H17.1877ZM17.5113 39.0399V40.593C23.0764 39.5576 27.4767 38.3928 30.3239 37.2928V36.2574C26.1825 37.2928 21.7822 38.1987 17.5113 39.0399Z" fill="white"/>
<path d="M21.523 37.1633L21.6524 33.0866C21.7171 32.8277 21.9112 32.6983 22.1701 32.6983L26.1821 32.0512C26.3762 32.0512 26.5704 32.0512 26.5704 32.31L26.6998 35.6103V32.0512C26.6351 31.9218 26.5056 31.7923 26.3115 31.8571L21.9112 32.5042C21.6524 32.5042 21.4582 32.6336 21.3288 32.9571L21.523 37.1633Z" fill="white"/>
<path d="M20.4228 37.8112L20.6817 32.699C20.7464 32.3108 21.0052 32.1166 21.4582 32.1166L26.4409 31.3401C26.6997 31.2754 26.8939 31.3401 26.9586 31.6637L27.3468 35.3522L27.1527 31.3401C27.0233 31.146 26.8939 31.0166 26.635 31.0813L21.1346 31.7931C20.9405 31.8578 20.4875 31.9872 20.3581 32.4402L20.4228 37.8112Z" fill="white"/>
<path d="M20.9408 24.1562C20.9408 24.1562 21.0059 24.1562 21.0059 24.2213C21.0059 24.1562 21.0059 24.1562 20.9408 24.1562Z" fill="white"/>
<path d="M2.62757 28.1041V28.3629H1.07452V27.8452H2.30402L2.10989 27.7158H0.945099V28.4276L3.46879 28.6865L2.62757 28.1041Z" fill="white"/>
<path d="M8.58057 26.2275C8.7747 26.357 8.96883 26.5511 9.03354 26.8099C9.03354 26.5511 9.03354 26.4217 9.03354 26.4217V26.8746C9.09825 27.0688 9.16295 27.2629 9.16295 27.457C9.16295 27.6512 9.09825 27.7806 9.09825 27.91V28.4924C9.29238 28.1688 9.4218 27.8453 9.4218 27.457C9.4218 27.0041 9.22767 26.5511 8.90412 26.2275C8.90412 26.2275 8.7747 26.2275 8.58057 26.2275Z" fill="white"/>
<path d="M9.03427 28.1689C9.03427 28.234 8.96921 28.2991 8.96921 28.2991C9.03426 28.2991 9.03427 28.2991 9.03427 28.234C8.96921 28.2991 8.96921 28.234 9.03427 28.1689Z" fill="white"/>
<path d="M8.1277 29.0095C8.1277 28.88 8.32182 28.88 8.32182 28.88C8.32182 28.88 8.51596 28.88 8.71009 28.88C8.83951 28.8153 8.90422 28.6859 9.03364 28.5565H8.64537C8.38653 28.8153 7.99828 29.0095 7.61001 29.0095C6.76878 29.0095 6.05696 28.2977 6.05696 27.4564C6.05696 26.6152 6.76878 25.9034 7.61001 25.9034C7.73944 25.9034 7.86886 25.9034 7.93357 25.9681C7.93357 25.8387 7.93356 25.774 8.06298 25.7092C7.93356 25.6445 7.73944 25.6445 7.61001 25.6445C6.63936 25.6445 5.79813 26.4858 5.79813 27.4564C5.79813 28.4271 6.63936 29.2683 7.61001 29.2683C7.80415 29.2683 7.99828 29.2036 8.1277 29.2036C8.19241 29.1389 8.1277 29.0742 8.1277 29.0095Z" fill="white"/>
<path d="M30.3235 35.9995C30.3235 35.9995 29.4176 35.9348 29.094 35.7407C28.8352 35.6113 28.0587 35.0289 28.0587 35.0289L27.4116 35.1583V35.2877C27.541 35.4172 27.6057 35.5466 27.6057 35.676C27.6057 35.7407 27.6057 35.9995 27.4116 36.129C25.6644 36.7761 23.4642 37.2937 21.2641 37.4232C21.1994 37.4232 21.1994 37.4232 21.1347 37.4232C20.9405 37.4879 20.0993 37.7467 19.5816 37.682C18.9992 37.6173 19.1287 37.0996 19.1287 37.0349C19.064 36.9702 19.2581 36.1937 19.2581 36.129C19.2581 36.129 19.2581 36.129 19.2581 36.0643C19.1287 36.1937 18.9345 36.3231 18.7404 36.3231C18.2874 36.3231 17.9639 35.8701 17.9639 35.3524C17.9639 34.8348 18.2874 34.3818 18.7404 34.3818C19.0639 34.3818 19.3228 34.6406 19.4522 34.9642C19.5169 34.5759 19.5816 34.1877 19.5816 34.1877C19.5816 34.1877 19.5169 34.7053 19.5169 35.2877V35.3524C19.5169 35.4172 19.5169 35.5466 19.5169 35.6113C19.4522 36.2584 19.4522 36.9702 19.4522 37.1643C19.4522 37.4879 19.8405 37.5526 20.0346 37.5526C20.0993 37.5526 20.2287 37.5526 20.4229 37.5526V36.8408V33.9935C20.4229 33.9935 17.1226 34.5759 16.7344 34.6406C16.605 34.7053 16.4108 34.6406 16.4108 34.6406C16.4108 34.6406 16.4108 34.8348 16.4108 34.8995C16.4108 34.9642 16.605 35.4819 16.9285 35.8054C17.3168 36.1937 18.2874 37.2937 18.2874 37.2937C18.2874 37.2937 18.3521 37.4232 17.705 37.4232C17.0579 37.4232 15.5049 35.676 15.4402 35.4171C15.3755 35.1583 15.3108 34.77 15.0519 34.5759C14.7931 34.3818 14.0813 34.5112 12.7871 34.3171C11.6223 34.1229 11.0399 33.4111 10.6516 33.4111C10.1986 33.4111 10.0045 33.67 9.55154 35.4171C9.09857 37.1643 8.90444 38.7174 8.90444 38.8468C8.90444 38.9115 8.6456 39.0409 8.45147 38.9762C8.38676 38.9762 8.25733 38.9115 8.19262 38.8468C7.99849 38.6527 7.80436 38.5232 7.73965 38.3291V38.6527L8.64559 39.3645C8.64559 39.3645 9.68096 39.1703 10.0045 38.8468C10.3281 38.0703 10.8457 37.5526 11.4929 37.4879C11.6223 37.4879 11.7517 37.4879 11.8811 37.4879C12.0752 37.4232 12.3341 37.3585 12.5929 37.3585C13.6283 37.2937 15.0519 37.8761 15.4402 38.0703C15.3107 37.7467 15.1166 37.5526 15.0519 37.4232C14.5342 36.8408 14.0165 36.7114 13.1753 36.6466C12.3988 36.6466 11.6223 36.8408 11.4281 36.9702C11.234 37.0996 11.234 37.0996 11.234 37.0996C11.234 37.0996 11.1046 36.4525 11.2987 35.1583C11.4281 34.8348 11.4928 34.4465 11.5576 34.2524C11.5576 34.3818 11.4928 34.6406 11.4281 35.4171C11.3634 36.5172 11.4281 36.6466 11.4281 36.6466C11.4281 36.6466 12.3988 36.2584 12.8518 36.1937C13.4342 36.129 14.4695 36.129 15.0519 36.6466C16.5402 37.8114 16.9285 39.6233 16.9285 39.6233L17.0579 39.688V38.588L17.1226 38.6527C17.3168 38.588 18.158 38.4585 18.2227 38.3291C18.2874 38.1997 17.8992 37.6173 17.8992 37.4879C17.8992 37.3585 18.2874 38.0056 18.2874 38.0703C18.3521 38.135 18.3521 38.3291 18.2874 38.3938C18.158 38.4585 17.3168 38.588 17.1226 38.6527L17.3815 38.9115V39.6233C19.711 39.1703 30.3235 35.9995 30.3235 35.9995ZM27.6057 35.4171C27.6057 35.4171 27.6704 35.3524 27.7998 35.3524C27.7998 35.3524 27.8645 35.3524 27.9292 35.2877C27.7998 35.3524 27.6704 35.4171 27.6057 35.4171ZM17.1874 35.676C17.0579 35.676 16.9285 35.4819 16.9285 35.2877C16.9285 35.0936 17.0579 34.8995 17.1874 34.8995C17.3168 34.8995 17.4462 35.0936 17.4462 35.2877C17.4462 35.4819 17.3815 35.676 17.1874 35.676ZM17.4462 37.5526C17.3168 37.5526 17.1874 37.5526 17.1226 37.4879C16.605 37.1643 15.4402 35.6113 15.4402 35.6113C15.4402 35.6113 16.9932 37.4232 17.3168 37.4232C17.705 37.4879 17.8345 37.4879 17.8345 37.4879L17.4462 37.5526Z" fill="white"/>
<path d="M5.79861 27.9102C5.79861 28.0396 5.60448 28.0396 5.53977 28.2337C5.47506 28.4278 5.47506 28.8161 5.53977 28.9455C5.60448 29.0749 5.66919 29.3338 6.3163 29.2691C6.9634 29.2044 7.0281 29.2691 7.22223 29.3338C7.41637 29.3985 7.73992 29.4632 7.86934 29.3985C7.86934 29.3985 7.93405 29.3338 7.99876 29.3338C7.93405 29.2044 7.80463 29.0749 7.6105 29.0749H6.70455C6.63984 29.0749 6.51042 29.0102 6.44571 28.9455L5.92803 28.4278C5.86332 28.3631 5.79861 28.2984 5.79861 28.169V27.9102Z" fill="white"/>
<path d="M7.67494 34.5106C7.67494 34.5106 7.15726 34.5753 7.02784 34.8341C6.96313 34.9635 6.96313 35.1577 6.89842 35.7401C6.83371 36.2577 6.96314 37.5519 6.96314 37.6167C7.02785 37.6814 7.28669 37.2284 7.28669 37.2284L7.80437 37.8755C7.80437 37.8755 7.15727 37.8108 6.96314 37.8108C6.76901 37.8108 6.83372 37.6814 6.83372 37.1637C6.83372 36.5166 6.96313 34.8341 7.02784 34.7047C7.28668 34.4458 7.61023 34.4458 7.67494 34.5106Z" fill="white"/>
<path d="M5.34525 37.0342L6.83358 37.8754L6.89829 37.746L5.34525 37.0342Z" fill="white"/>
<path d="M9.29307 35.3516C9.29307 35.3516 8.51655 38.6518 8.45184 38.9753C8.45184 39.04 8.45184 39.1048 8.45184 39.1048L9.29307 35.3516Z" fill="white"/>
<path d="M11.4283 33.8633C11.4283 33.8633 13.046 34.381 13.8226 34.3163C14.5991 34.3163 14.7285 34.4457 14.7285 34.4457C14.7285 34.4457 13.8226 34.381 13.6284 34.381C12.5284 34.2515 11.4283 33.8633 11.4283 33.8633Z" fill="white"/>
<path d="M11.2343 32.893C11.6225 33.0871 12.852 33.6048 13.305 33.6695C14.0168 33.7342 15.6346 33.7989 15.8287 33.7989C15.8287 33.7989 15.8287 33.7989 15.8934 33.7989C16.1522 33.7989 18.7406 33.6695 19.323 33.5401C19.4525 33.5401 19.5819 33.4754 19.7113 33.4754C19.0642 33.4107 17.8347 33.2165 16.7993 33.0871C15.2463 32.893 13.6285 32.7636 13.3697 32.7636C12.9814 32.6341 11.8166 32.7636 11.2343 32.893Z" fill="white"/>
<path d="M20.1644 32.3751C20.1644 32.2457 20.1644 32.181 20.1644 32.0516C20.0997 31.8574 20.0997 31.6633 20.035 31.5339C20.035 31.4692 19.9703 31.4045 19.9056 31.3397C19.6467 31.1456 19.129 30.9515 18.5466 30.7574C17.4466 30.4338 16.023 30.175 15.2464 30.0455C14.3405 29.9161 13.3051 29.7867 12.5933 29.722C10.652 29.5279 8.19302 29.3984 8.12831 29.3984L8.32243 34.7047C8.32243 34.7047 7.67533 34.7694 7.41649 34.8988C7.15765 34.9635 7.15765 35.2871 7.15765 35.2871V37.8755L7.67533 38.0049V38.1343C7.80475 37.8755 7.99888 37.6166 8.06359 37.2931C8.1283 37.0342 7.93418 36.1283 8.12831 35.9342C8.32244 35.74 8.64598 35.74 8.96953 35.5459C9.22837 35.3518 9.48721 34.5105 9.61664 33.9282C9.81077 33.3458 10.0049 33.0869 10.1343 32.9575C10.2637 32.8928 10.8461 32.7634 11.105 32.8928H11.1697C11.5579 32.8281 12.3345 32.6987 13.111 32.6339C14.1464 32.4398 18.4819 33.1516 19.7762 33.4752C19.9703 33.4105 20.1644 33.4105 20.2291 33.4105C20.2291 33.0222 20.1644 32.6987 20.1644 32.3751ZM8.77541 30.4985C8.58128 30.4338 8.51656 30.3691 8.51656 30.3691C8.58127 30.4338 8.64599 30.4338 8.77541 30.4985ZM8.64598 34.7047C8.45185 34.5105 8.38714 33.734 8.38714 33.734C8.38714 33.734 8.51656 34.5753 8.7107 34.7694C8.90483 34.9635 9.22838 35.2224 9.22838 35.2224C9.22838 35.2224 8.71069 34.8988 8.64598 34.7047ZM10.9108 31.0809C10.9108 31.6633 10.9756 32.4398 10.9756 32.5045C10.9756 32.5045 10.8461 32.0516 10.7814 31.728C10.7814 31.5986 10.7814 31.3397 10.7814 31.0809C10.3932 31.0809 9.61664 30.8221 9.09896 30.6279C9.68135 30.8221 10.199 30.9515 10.7814 30.9515C10.7814 30.6926 10.8461 30.4985 10.8461 30.4985C10.8461 30.4985 10.8461 30.6926 10.8461 31.0162C11.3638 31.0809 11.8815 31.0809 12.3992 30.9515C12.3992 30.9515 11.4932 31.0809 10.9108 31.0809ZM13.2404 32.5045H13.0463V31.5986H13.2404V32.5045ZM13.8228 32.4398H13.6934V31.5986H13.8228V32.4398ZM14.4052 32.5045H14.2758V31.5986H14.4052V32.5045ZM15.0523 32.5692L14.9876 31.5986H15.0523V32.5692ZM16.4759 32.7634L16.2818 32.6987V31.6633H16.4759V32.7634ZM18.0937 33.0222L17.8348 32.9575V31.7927C17.8348 31.7927 17.7701 31.728 17.123 31.6633L17.2524 31.728V32.8928L17.0583 32.8281V31.6633C16.9289 31.6633 16.7348 31.6633 16.5406 31.6633C16.2818 31.6633 16.0229 31.6633 15.7641 31.5986L15.8288 31.6633V32.6339H15.6994V31.5986C14.664 31.5339 13.564 31.5339 13.564 31.5339C13.564 31.5339 16.4112 31.4692 16.7995 31.4692C17.1877 31.4692 18.0937 31.6633 18.0937 31.6633V33.0222Z" fill="white"/>
<path d="M19.1285 27.7807H18.6108V26.6807H19.1285V27.7807Z" fill="white"/>
<path d="M9.61652 25.0625C9.61652 25.0625 11.1696 25.0625 11.299 25.0625C11.4284 25.0625 11.3637 25.1272 11.3637 25.1272L9.61652 25.0625Z" fill="white"/>
<path d="M0.945099 28.3633V29.9163L3.46879 30.7576V28.6868L0.945099 28.3633ZM3.01582 30.434L1.00981 29.8516L1.07452 28.4927L3.01582 28.6868V30.434Z" fill="white"/>
<path d="M2.4338 15.292C2.17496 15.292 1.98083 15.5508 1.98083 15.5508V28.5576L3.53388 28.687V15.292C3.53388 15.292 2.69265 15.292 2.4338 15.292ZM2.17496 28.3635V15.745C2.17496 15.745 2.30438 15.4861 2.49851 15.4861C2.69264 15.4861 3.33974 15.4861 3.33974 15.4861V28.3635H2.17496Z" fill="white"/>
<path d="M3.08039 16.7148H2.10974V16.909H3.08039V16.7148Z" fill="white"/>
<path d="M3.08039 18.5273H2.10974V18.7215H3.08039V18.5273Z" fill="white"/>
<path d="M3.27495 20.0801H2.17487V20.2742H3.27495V20.0801Z" fill="white"/>
<path d="M3.08039 21.7627H2.10974V21.9568H3.08039V21.7627Z" fill="white"/>
<path d="M3.08039 23.5088H2.10974V23.7029H3.08039V23.5088Z" fill="white"/>
<path d="M3.27453 25.3213H2.10974V25.5154H3.27453V25.3213Z" fill="white"/>
<path d="M3.27453 26.9395H2.10974V27.1336H3.27453V26.9395Z" fill="white"/>
<path d="M2.88652 27.7158H2.04529V27.91H2.88652V27.7158Z" fill="white"/>
<path d="M2.95103 15.292H2.7569V28.4282H2.95103V15.292Z" fill="white"/>
<path d="M3.46893 1.37891H3.33951V15.2269H3.46893V1.37891Z" fill="white"/>
<path d="M4.43941 16.7147H3.85703V6.68457H4.11586L4.43941 16.7147Z" fill="white"/>
<path d="M3.85719 16.2627H3.66306V18.0099H3.85719V16.2627Z" fill="white"/>
<path d="M5.02225 11.0205H4.24573V11.4088H5.02225V11.0205Z" fill="white"/>
<path d="M5.99249 16.7148H4.50415V17.2325H5.99249V16.7148Z" fill="white"/>
<path d="M5.02213 6.03809H4.11618V6.36164H5.02213V6.03809Z" fill="white"/>
<path d="M5.28089 17.2334H5.08676V17.7511H5.28089V17.2334Z" fill="white"/>
<path d="M5.41047 11.4092H4.89279V16.7801H5.41047V11.4092Z" fill="white"/>
<path d="M5.21634 11.0203H4.89279V2.21973H5.15163L5.21634 11.0203Z" fill="white"/>
<path d="M5.41034 2.02637H5.7986V16.7156H5.60447L5.41034 2.02637Z" fill="white"/>
<path d="M4.69842 7.46182L4.6337 7.39711L4.31015 1.83203H4.50428L4.69842 7.46182Z" fill="white"/>
<path d="M5.80088 1.59521L3.54236 1.42578L3.53268 1.55484L5.79119 1.72427L5.80088 1.59521Z" fill="white"/>
<path d="M5.15185 22.3444H5.60482L5.41069 18.1383C5.41069 17.9441 5.21656 17.75 5.02243 17.75L5.15185 22.3444Z" fill="white"/>
<path d="M5.73395 25.0619L5.66925 22.9912H5.4104C5.4104 23.7677 5.53982 24.4795 5.73395 25.0619Z" fill="white"/>
<path d="M7.99896 30.6273V29.8508C7.93425 29.8508 7.93425 29.8508 7.86954 29.8508C7.6107 29.8508 6.3812 29.8508 6.3812 29.8508C6.3812 29.8508 6.44591 29.8508 6.25178 30.0449C6.05765 30.1744 5.7341 30.4979 5.28113 30.3038C4.82816 30.1097 3.92221 29.0743 3.8575 28.8155C3.8575 28.4919 3.92222 28.2978 3.92222 28.2978C3.92222 28.2978 3.98693 28.686 4.37519 28.6213C4.95758 28.5566 5.21642 27.9742 5.21642 27.9742C5.21642 27.9742 5.53997 27.7154 5.66939 27.7154C5.7341 27.7154 5.79881 27.7801 5.79881 27.7801L5.7341 26.68C5.53997 26.3565 5.08699 23.5739 5.08699 23.5739L5.28113 26.8741L4.50461 27.3271L4.43989 23.121H3.59867V22.4091H4.37519L4.31047 17.75H3.98692C3.79279 17.75 3.59867 17.9441 3.59867 18.1383L3.27512 30.4332C3.27512 30.6273 3.33982 30.7568 3.53395 30.8215L4.89287 31.2744C4.95758 31.2744 4.95758 31.2744 5.02229 31.2744L7.41657 31.2097C7.54599 31.2097 7.67541 31.3392 7.74012 31.2744H8.12838C8.19309 31.2097 8.12838 30.7568 7.99896 30.6273Z" fill="white"/>
<path d="M13.5638 42.3401C13.3697 40.6576 12.5284 39.3634 11.6872 39.4281C10.846 39.5575 10.3283 40.9812 10.5224 42.6636C10.7165 44.3461 11.5578 45.6403 12.399 45.5756C13.2402 45.5109 13.8226 44.0872 13.5638 42.3401ZM12.4637 45.3814C11.6872 45.4462 10.9754 44.2814 10.7812 42.7283C10.5871 41.1753 11.0401 39.8164 11.8166 39.7517C12.5931 39.6869 13.3049 40.8517 13.4991 42.4048C13.6285 43.9578 13.1755 45.3167 12.4637 45.3814Z" fill="white"/>
<path d="M12.0004 40.3086C11.397 40.3797 11.0332 41.5018 11.1878 42.815C11.3424 44.1282 11.9568 45.1352 12.5602 45.0641C13.1636 44.9931 13.5274 43.871 13.3728 42.5578C13.2182 41.2446 12.6038 40.2376 12.0004 40.3086Z" fill="white"/>
<path d="M20.8111 24.8046C21.1347 24.7398 21.3935 24.6104 21.3935 24.4163C21.3935 24.3516 21.2641 24.2869 21.07 24.2222H21.1347C21.2641 24.3516 21.1994 24.4163 20.3582 24.4163C19.1934 24.4163 14.5343 24.481 13.3695 24.6104C12.8518 24.6751 12.2694 24.8046 11.8811 24.934C11.687 25.0634 11.234 25.3222 11.234 25.5164V25.5811C11.4929 25.5811 11.687 25.5811 11.7517 25.5811C11.8811 25.3869 12.3341 25.0634 13.2401 24.9987C13.8224 24.934 15.1167 24.8693 16.5403 24.8693C16.6697 25.0634 16.9285 25.5164 16.9285 26.034C16.9932 27.393 16.9932 27.4577 16.7344 27.5871C16.4756 27.7165 14.0166 27.6518 14.0166 27.6518C14.0166 27.6518 12.14 27.5871 11.4282 27.6518C11.4929 28.1695 11.5576 28.5577 11.5576 28.5577C11.6223 28.6225 11.5576 28.7519 11.7517 28.7519C11.9458 28.7519 13.0459 28.7519 13.0459 28.7519C13.0459 28.7519 11.8811 28.8813 11.5576 28.8813C11.4282 28.8813 11.1693 27.1341 11.1693 27.1341C11.1046 26.2929 11.0399 25.5164 11.0399 25.5164C11.0399 25.5164 11.0399 25.3869 11.2987 25.1928C11.4282 25.1281 11.5576 24.9987 11.687 24.934C11.5576 24.9987 11.4282 24.9987 11.3635 25.0634C11.1693 25.1928 8.64562 25.1281 8.64562 25.1281C8.64562 25.1281 9.61628 23.5751 13.4342 23.3809C17.2521 23.1221 18.8051 23.5103 18.8051 23.5103C18.8051 23.5103 20.4876 23.9633 21.0053 24.1575C20.3582 23.8986 19.064 23.5103 19.064 23.5103C19.064 23.5103 17.3815 23.0574 13.3048 23.3162C9.22802 23.5751 8.25737 25.1928 8.25737 25.1928H8.19265C8.19265 25.1928 8.12795 25.3222 8.12795 25.7105C8.32208 25.6458 9.42215 25.5811 9.42215 25.5811C9.42215 25.5811 9.16331 26.2282 9.03389 26.2282C8.90447 26.2282 8.19265 26.2282 8.06323 26.2282C8.06323 26.8753 8.06323 27.9106 8.19265 29.5931H8.4515C8.32208 29.4637 8.19265 29.1401 8.19265 29.0107C8.19265 28.8813 8.38678 28.8813 8.38678 28.8813C8.38678 28.8813 10.4575 28.8813 10.5869 28.8813C10.7163 28.8813 10.7164 28.8166 10.7811 28.6872C10.8458 28.5577 10.7811 27.4577 10.7811 27.4577C10.7811 27.4577 10.9105 28.5577 10.9105 28.7519C10.9105 28.8813 10.9105 28.946 10.7811 29.0107C10.6516 29.0754 8.64562 28.946 8.5162 29.0754C8.45149 29.1401 8.58091 29.3343 8.71033 29.399C8.83976 29.4637 9.03388 29.399 9.48686 29.399C9.93983 29.399 10.0693 29.4637 10.0693 29.4637C10.0693 29.4637 10.4575 29.5284 10.1987 29.5284C10.134 29.5284 9.87512 29.5284 9.55157 29.5931H11.0399C11.234 29.6578 11.4929 29.6578 11.7517 29.5931C11.7517 29.5931 12.0106 29.2696 12.7871 28.946C13.5636 28.6225 17.1874 28.0401 17.3168 28.0401C17.3815 28.0401 17.3815 27.8459 17.4462 27.7165C17.4462 27.8459 17.5756 28.0401 17.8992 28.0401C18.5463 28.1048 21.3935 27.9106 21.3935 27.9106L21.3288 27.7165C21.3288 27.7165 18.2227 27.7812 17.8992 27.7165C17.7698 27.7165 17.6403 27.2635 17.5756 27.0694C17.3168 25.6458 17.3168 25.0634 17.3168 24.8693C18.6757 24.8693 20.0346 24.8046 20.617 24.8046C20.6817 24.8046 20.6817 24.8046 20.7464 24.8046C20.9406 25.3869 21.3288 27.8459 21.4583 27.8459C21.5877 27.9106 21.6524 27.7812 21.6524 27.7812L20.8111 24.8046ZM8.12795 28.6225V28.3636C8.12795 28.3636 8.90446 28.4283 8.96917 28.2989C8.96917 28.1695 9.03389 26.4223 9.03389 26.4223L9.0986 28.5577L8.12795 28.6225ZM10.134 28.5577H9.48686V25.6458C9.55157 25.6458 10.134 25.6458 10.134 25.6458C10.1987 26.8753 10.1987 28.2989 10.134 28.5577ZM10.6516 27.2635C10.6516 26.94 10.5869 25.7105 10.5869 25.7105C10.5869 25.7105 10.7164 26.487 10.7164 26.8753C10.7164 27.2635 10.6516 27.5871 10.6516 27.2635ZM13.5636 28.3636C12.7871 28.5577 11.7517 28.6225 11.687 28.5577C11.6223 28.5577 11.4929 28.1048 11.4929 28.1048C11.4929 28.1048 11.6223 28.2989 11.7517 28.3636C11.8811 28.493 12.3988 28.4283 12.7224 28.3636C12.9165 28.3636 13.8224 28.2342 14.7931 28.1048C15.5696 27.9754 16.4756 27.8459 16.8638 27.7812C17.2521 27.7165 16.0226 27.9106 14.7931 28.1048C14.3401 28.2342 13.8872 28.2989 13.5636 28.3636Z" fill="white"/>
<path d="M18.9991 26.6806C18.2873 26.7453 17.6402 27.0689 17.6402 27.5218C17.6402 27.6513 17.7049 27.7807 17.7696 27.9101H17.8991C17.8344 27.8454 17.7696 27.716 17.7696 27.5866C17.7696 27.1336 18.2873 26.8747 18.9344 26.81C19.7757 26.81 20.2286 26.9395 20.0992 27.5866C20.0992 27.716 20.0345 27.7807 19.9051 27.9101H20.0345C20.1639 27.7807 20.2286 27.6513 20.2933 27.5218C20.4875 26.81 19.9698 26.6159 18.9991 26.6806Z" fill="white"/>
<path d="M11.4931 37.4866C11.8814 37.4219 12.2697 37.616 12.6579 37.8748L13.758 36.7748C12.3344 36.5806 11.4284 36.9042 10.9107 37.6807C11.1049 37.5513 11.299 37.4866 11.4931 37.4866Z" fill="white"/>
<path d="M14.1463 46.2881C13.8875 46.9352 13.4992 47.3882 12.9816 47.5823C14.2758 47.3882 15.3758 46.8058 15.7641 46.4175L14.1463 46.2881Z" fill="white"/>
<path d="M16.5404 40.3998C16.4757 40.3351 15.5051 37.9409 15.0521 37.4232C14.7285 37.0996 14.4697 36.9055 14.0814 36.7761C13.952 36.7114 13.7579 36.7114 13.6285 36.7761C13.1108 36.8408 12.7225 37.1643 12.399 37.682C13.4343 38.2644 14.3403 40.0763 14.5991 42.2764C14.7932 44.0883 14.5344 45.7061 13.952 46.7414C14.2108 46.9356 14.5344 47.0003 14.8579 46.9356C16.2169 46.7414 17.1228 44.3472 16.7345 41.5646C16.6698 41.1117 16.6051 40.7881 16.5404 40.3998Z" fill="white"/>
<path d="M6.76929 38.134C6.70458 38.134 6.63987 38.134 6.57516 38.0693L5.34567 37.1633C5.28096 37.0986 5.21625 37.0339 5.21625 36.9045C5.21625 36.3221 5.15154 34.3808 5.21625 34.2514C5.34567 34.122 5.47508 33.8631 5.73392 33.7984C5.99276 33.7337 6.76929 34.1867 7.28698 34.3808C7.4164 34.4455 7.54581 34.5102 7.67523 34.5102C7.80465 34.5102 7.99879 34.5102 8.12821 34.5102C8.25763 34.5102 8.32234 34.5749 8.38705 34.6396V33.9925C8.38705 33.8631 8.38705 33.7984 8.25763 33.7337C7.73995 33.5396 6.31632 32.9572 6.12219 32.8925C5.92806 32.8278 5.60451 32.9572 5.21625 33.216C4.8927 33.4749 5.15153 34.0573 5.08682 34.3808V37.2281C5.08682 37.2928 5.15154 37.3575 5.21625 37.4222C5.5398 37.6163 6.57516 38.134 6.57516 38.1987C6.57516 38.2634 7.15755 38.1987 7.54581 38.1987C7.67523 38.1987 7.80466 38.134 7.80466 38.0046L6.76929 38.134Z" fill="white"/>
<path d="M28.5115 37.9402C27.1526 38.3932 25.5349 38.7815 23.7877 39.2344C24.1112 42.017 25.0172 43.3112 26.7644 43.2465C28.641 43.1818 29.6763 41.6934 29.5469 37.7461L28.5115 37.9402Z" fill="white"/>
<path d="M3.92215 32.958C4.18099 33.0874 4.43983 33.4757 4.63396 33.9287C5.02222 33.9287 5.34577 33.9934 5.34577 33.9934L5.41048 32.958H3.92215Z" fill="white"/>
<path d="M4.56923 38.458C4.31038 39.0404 4.05154 39.364 3.66328 39.364H3.59857C3.66328 39.364 5.28103 39.4287 5.28103 39.4287L5.34575 38.458H4.56923Z" fill="white"/>
<path d="M5.28031 34.1865C5.40973 34.0571 5.53915 33.863 5.73328 33.7983C5.79799 33.7983 5.99213 33.7983 6.18626 33.9277C5.92742 33.3453 5.60387 32.957 5.21561 32.957C5.21561 32.957 5.28031 33.7336 5.28031 34.1865Z" fill="white"/>
<path d="M5.34517 37.1632C5.28046 37.0985 5.21575 37.0338 5.21575 36.9044C5.21575 36.322 5.15104 34.3807 5.21575 34.2512V32.957C4.95691 32.957 4.63335 33.1512 4.43922 33.5394C4.76277 34.1218 4.9569 35.0925 4.9569 36.1278C4.9569 37.2279 4.76277 38.1986 4.37451 38.781C4.63335 39.1692 4.8922 39.4281 5.21575 39.4281C5.66872 39.4281 6.12168 38.8457 6.38052 37.9397L5.34517 37.1632Z" fill="white"/>
<path d="M1.72174 32.1807C2.04529 32.1807 2.30413 32.5042 2.49826 32.9572L3.08066 33.0219L3.14536 32.1807H1.72174Z" fill="white"/>
<path d="M8.12792 32.8282C8.12792 32.7635 8.12792 31.2104 8.12792 30.0456L8.0632 28.8809C8.0632 28.8809 8.06321 32.0517 8.12792 32.8282Z" fill="white"/>
<path d="M5.15137 33.9926C5.08666 33.669 4.95724 33.2807 4.82782 32.9572C4.6984 32.6336 2.7571 31.9865 2.7571 31.9865L0.168688 30.9512V29.7864H0.427525L3.66304 30.8218L0.36282 29.7217H0.103973V30.9512L2.69238 32.0512C2.69238 32.0512 4.63369 32.7631 4.76311 33.0866C5.02195 33.7337 5.15137 34.6397 5.15137 34.6397C5.15137 34.6397 5.15137 34.3161 5.15137 33.9926Z" fill="white"/>
<path d="M8.12833 33.6699C8.12833 33.6699 6.44586 33.1522 6.05759 33.0875C5.60462 33.0228 5.41049 33.1522 5.28107 33.2817C5.28107 33.2817 5.21637 33.3464 5.21637 33.4111C5.34579 33.2817 5.53992 33.1522 5.99289 33.2169C6.38115 33.2817 8.06362 33.864 8.06362 33.864L8.38717 34.77V34.2523L8.12833 33.6699Z" fill="white"/>
<path d="M0.427551 30.7582L4.82785 32.1171L0.492265 30.6935L0.427551 30.1758V30.7582Z" fill="white"/>
<path d="M0.686646 30.7568V30.8215L4.89281 32.1157L0.686646 30.7568Z" fill="white"/>
<path d="M5.34564 31.5334V31.4033C5.28058 31.4033 5.28058 31.4684 5.34564 31.5334Z" fill="white"/>
<path d="M5.21611 31.2747L7.41625 31.3394L7.48096 32.6983H6.4456V32.2453H6.38088C6.38088 32.2453 6.38088 32.6983 6.38088 32.8924C6.38088 33.0218 7.61038 32.8924 8.06335 32.8277C8.12806 32.8277 8.12807 32.8277 8.12807 32.8277C8.19278 32.8277 8.19277 32.8277 8.19277 32.8277H8.12807C8.12807 32.6983 8.12807 31.9865 8.12807 31.21H5.02197L5.21611 31.2747Z" fill="white"/>
<path d="M5.34578 31.7273C5.34578 31.7273 5.28107 31.5979 5.28107 31.5332L5.34578 32.3097C5.34578 32.3097 5.34578 31.792 5.34578 31.7273Z" fill="white"/>
<path d="M5.21611 34.2516V34.1869V34.1222C5.21611 33.9928 5.1514 33.8633 5.1514 33.7339V33.6692C5.1514 33.6045 5.15139 33.5398 5.08668 33.4751V33.4104C5.08668 33.3457 5.02198 33.2809 5.02198 33.2162V33.1515C5.02198 33.0868 4.95726 33.0221 4.95726 32.9574C4.82784 32.6338 2.88654 31.9867 2.88654 31.9867L0.751099 31.1455C0.751099 31.922 0.815809 33.6045 0.751099 33.928H0.815813C0.945233 32.8927 1.3982 32.1162 1.85117 32.1162C2.30414 32.1162 2.69241 32.828 2.88654 33.7986C3.14538 33.2162 3.46893 32.828 3.79248 32.828C4.37487 32.828 4.89256 33.8633 5.02198 35.287L5.28082 35.3517H5.34553C5.34553 34.8987 5.34553 34.4457 5.34553 34.3163C5.21611 34.3163 5.21611 34.3163 5.21611 34.2516Z" fill="white"/>
<path d="M55.5807 31.3245H47.2176V46.7001H43.4776V28.5195H55.5807V31.3245Z" fill="white"/>
<path d="M69.1901 38.7006H61.5023V43.8951H70.4887V46.7001H57.7623V28.5195H70.4368V31.3245H61.5023V35.8956H69.1901V38.7006Z" fill="white"/>
<path d="M87.4226 39.22C87.4226 41.4537 86.6954 43.2717 85.2409 44.7781C83.7865 46.2325 81.9165 46.9598 79.6309 46.9598C77.3454 46.9598 75.4754 46.2325 74.0729 44.7781C72.6704 43.3237 71.9431 41.4537 71.9431 39.22V35.9475C71.9431 33.7139 72.6704 31.8959 74.0729 30.4414C75.4754 28.987 77.3454 28.2598 79.6309 28.2598C81.9165 28.2598 83.7865 28.987 85.2409 30.4414C86.6954 31.8959 87.4226 33.7659 87.4226 35.9475V39.22ZM83.6826 35.9475C83.6826 34.545 83.319 33.3503 82.5918 32.4673C81.8645 31.5323 80.8776 31.1167 79.6309 31.1167C78.3843 31.1167 77.3973 31.5842 76.6701 32.4673C75.9948 33.3503 75.6312 34.545 75.6312 35.9475V39.272C75.6312 40.7264 75.9948 41.8692 76.6701 42.8042C77.3973 43.7392 78.3323 44.1548 79.6309 44.1548C80.9295 44.1548 81.9165 43.6873 82.5918 42.8042C83.319 41.8692 83.6826 40.7264 83.6826 39.272V35.9475Z" fill="white"/>
<path d="M104.045 40.4671V40.519C104.097 42.4929 103.473 44.0513 102.227 45.194C100.98 46.3368 99.214 46.9082 97.0323 46.9082C94.7987 46.9082 92.9806 46.181 91.5781 44.7785C90.1756 43.376 89.5004 41.5579 89.5004 39.3243V35.7401C89.5004 33.5585 90.1757 31.7404 91.5262 30.286C92.8768 28.8835 94.6429 28.1562 96.8245 28.1562C99.1101 28.1562 100.928 28.7276 102.227 29.8704C103.525 31.0132 104.149 32.5715 104.097 34.5974V34.6493H100.461C100.461 33.4546 100.149 32.5196 99.5776 31.8963C99.0062 31.2729 98.0712 30.9612 96.8245 30.9612C95.7337 30.9612 94.8506 31.4288 94.1754 32.3118C93.5001 33.1949 93.1884 34.3376 93.1884 35.6882V39.3243C93.1884 40.7268 93.552 41.8696 94.2273 42.7526C94.9026 43.6357 95.8376 44.1032 97.0323 44.1032C98.1751 44.1032 99.0581 43.7915 99.6295 43.1682C100.201 42.5449 100.461 41.6618 100.461 40.4151H104.045V40.4671Z" fill="white"/>
<path d="M117.914 38.7006H110.226V43.8951H119.213V46.7001H106.486V28.5195H119.161V31.3245H110.226V35.8956H117.914V38.7006Z" fill="white"/>
<path d="M124.926 40.1031V46.7001H121.186V28.5195H128.563C130.692 28.5195 132.355 29.039 133.601 30.1298C134.848 31.2206 135.419 32.6231 135.419 34.3373C135.419 36.1034 134.796 37.454 133.601 38.5448C132.355 39.5837 130.692 40.1551 128.563 40.1551H124.926V40.1031ZM124.926 37.2981H128.615C129.653 37.2981 130.433 37.0384 130.952 36.467C131.471 35.8956 131.731 35.2204 131.731 34.3373C131.731 33.4543 131.471 32.727 130.952 32.1556C130.433 31.5843 129.653 31.3245 128.563 31.3245H124.875V37.2981H124.926Z" fill="white"/>
<path d="M137.965 46.7001V28.5195H144.25C146.432 28.5195 148.146 28.9351 149.34 29.7662C150.535 30.5973 151.158 31.844 151.158 33.5062C151.158 34.3373 150.951 35.1165 150.483 35.7398C150.016 36.3631 149.392 36.8826 148.509 37.2462C149.6 37.454 150.483 37.9734 151.003 38.7526C151.574 39.5318 151.834 40.4148 151.834 41.4018C151.834 43.1159 151.262 44.4665 150.068 45.3495C148.873 46.2326 147.211 46.7001 145.081 46.7001H137.965ZM141.653 36.1034H144.354C145.341 36.1034 146.12 35.8956 146.639 35.4801C147.159 35.0645 147.418 34.4931 147.418 33.714C147.418 32.8829 147.159 32.2595 146.587 31.844C146.068 31.4284 145.237 31.2206 144.198 31.2206H141.653V36.1034ZM141.653 38.6487V43.8951H145.081C146.068 43.8951 146.795 43.6873 147.315 43.2718C147.834 42.8562 148.094 42.2329 148.094 41.4018C148.094 40.5187 147.886 39.8434 147.418 39.3759C146.951 38.9084 146.276 38.6487 145.341 38.6487H141.653Z" fill="white"/>
<path d="M165.599 28.5195H169.339V46.7001H165.599V34.5451H165.547L158.067 46.7001H154.379V28.5195H158.067V40.6226H158.119L165.599 28.5195Z" fill="white"/>
<path d="M186.481 40.4671V40.519C186.533 42.4929 185.909 44.0513 184.663 45.194C183.416 46.3368 181.65 46.9082 179.468 46.9082C177.235 46.9082 175.416 46.181 174.014 44.7785C172.611 43.376 171.936 41.5579 171.936 39.3243V35.7401C171.936 33.5585 172.611 31.7404 173.962 30.286C175.313 28.8315 177.079 28.1562 179.26 28.1562C181.546 28.1562 183.364 28.7276 184.663 29.8704C185.961 31.0132 186.585 32.5715 186.533 34.5974V34.6493H182.896C182.896 33.4546 182.585 32.5196 182.013 31.8963C181.442 31.2729 180.507 30.9612 179.26 30.9612C178.17 30.9612 177.286 31.4288 176.611 32.3118C175.936 33.1949 175.624 34.3376 175.624 35.6882V39.3243C175.624 40.7268 175.988 41.8696 176.663 42.7526C177.338 43.6357 178.273 44.1032 179.468 44.1032C180.611 44.1032 181.494 43.7915 182.065 43.1682C182.637 42.5449 182.896 41.6618 182.896 40.4151H186.481V40.4671Z" fill="white"/>
</g>
<defs>
<clipPath id="clip0_835_5737">
<rect width="187" height="47.7889" fill="white" transform="translate(0 0.105469)"/>
</clipPath>
</defs>
</svg>
