<svg width="155" height="155" viewBox="0 0 155 155" fill="none" xmlns="http://www.w3.org/2000/svg">
<g clip-path="url(#clip0_684_5665)">
<path d="M52 100H53V105H52V100ZM50 102H55V103H50V102Z" fill="#6E7DB0"/>
<path d="M102 150H103V155H102V150ZM100 152H105V153H100V152Z" fill="#6E7DB0"/>
<path d="M102 100H103V105H102V100ZM100 102H105V103H100V102Z" fill="#20BF55"/>
<path d="M152 100H153V105H152V100ZM150 102H155V103H150V102Z" fill="#6E7DB0"/>
<path d="M2 0H3V5H2V0ZM0 2H5V3H0V2Z" fill="#6E7DB0"/>
<path d="M52 0H53V5H52V0ZM50 2H55V3H50V2Z" fill="#20BF55"/>
<path d="M102 0H103V5H102V0ZM100 2H105V3H100V2Z" fill="#6E7DB0"/>
<path d="M52 50H53V55H52V50ZM50 52H55V53H50V52Z" fill="#6E7DB0"/>
<path d="M102 50H103V55H102V50ZM100 52H105V53H100V52Z" fill="#6E7DB0"/>
</g>
<defs>
<clipPath id="clip0_684_5665">
<rect width="155" height="155" fill="white"/>
</clipPath>
</defs>
</svg>
