<svg width="22" height="22" viewBox="0 0 22 22" fill="none" xmlns="http://www.w3.org/2000/svg">
<path d="M11.0003 20.1663C16.063 20.1663 20.167 16.0624 20.167 10.9997C20.167 5.93692 16.063 1.83301 11.0003 1.83301C5.93754 1.83301 1.83362 5.93692 1.83362 10.9997C1.83362 16.0624 5.93754 20.1663 11.0003 20.1663Z" stroke="white" stroke-width="1.83333" stroke-linejoin="round"/>
<path d="M14.2087 8.24951V8.70785M7.79199 8.24951V8.70785" stroke="white" stroke-width="1.83333" stroke-linecap="round" stroke-linejoin="round"/>
<path d="M13.7502 13.7495C13.7502 12.2307 12.519 10.9995 11.0002 10.9995C9.48146 10.9995 8.25024 12.2307 8.25024 13.7495C8.25024 15.2683 9.48146 16.4995 11.0002 16.4995C12.519 16.4995 13.7502 15.2683 13.7502 13.7495Z" stroke="white" stroke-width="1.83333" stroke-linecap="round" stroke-linejoin="round"/>
</svg>
