<svg width="146" height="30" viewBox="0 0 146 30" fill="none" xmlns="http://www.w3.org/2000/svg">
<path d="M77.019 7.9707L69.6914 23.7274H84.3422L77.019 7.9707ZM77.019 16.3769L79.017 20.679H75.0166L77.019 16.3769Z" fill="white"/>
<path d="M98.0043 10.4912C96.6577 9.15839 94.8039 8.47656 92.4255 8.47656H86.4883V23.7274H92.4255C94.8039 23.7274 96.6577 23.05 98.0043 21.6951C99.329 20.3623 100.002 18.4972 100.002 16.1042C100.002 13.7112 99.329 11.8461 98.0043 10.4912ZM95.0575 19.3022C94.4454 20.0412 93.5623 20.4239 92.4255 20.4239H90.5324V11.7801H92.4255C93.5623 11.7801 94.4454 12.1628 95.0575 12.9018C95.6696 13.6452 95.9625 14.7229 95.9625 16.0998C95.9625 17.481 95.6652 18.5588 95.0575 19.3022Z" fill="white"/>
<path d="M112.572 10.535C111.033 8.98659 109.202 8.22559 107.037 8.22559C105.796 8.22559 104.615 8.50271 103.544 9.05257C102.469 9.60243 101.568 10.3678 100.829 11.318L103.732 13.5614C104.554 12.4617 105.669 11.9118 107.037 11.9118C107.942 11.9118 108.743 12.167 109.481 12.6948C110.198 13.2227 110.701 13.8825 110.977 14.7051H106.535V17.5028H110.977C110.701 18.3298 110.198 18.9852 109.481 19.5175C108.743 20.0453 107.942 20.3005 107.037 20.3005C105.669 20.3005 104.554 19.7462 103.732 18.6685L100.829 20.8943C101.564 21.8445 102.469 22.6099 103.544 23.1597C104.62 23.714 105.796 23.9867 107.037 23.9867C109.206 23.9867 111.038 23.2257 112.572 21.6773C114.111 20.1289 114.868 18.2858 114.868 16.1083C114.868 13.9221 114.111 12.079 112.572 10.535Z" fill="white"/>
<path d="M130.655 8.47656H126.13L122.257 14.4502H121.059V8.47656H117.015V23.7274H121.059V17.7538H122.257L126.13 23.7274H130.655L125.706 16.1042L130.655 8.47656Z" fill="white"/>
<path d="M139.788 20.2956C138.629 20.2956 137.663 19.8909 136.841 19.0639C136.024 18.2369 135.621 17.2648 135.621 16.0991C135.621 14.9334 136.024 13.9612 136.841 13.1342C137.663 12.3072 138.629 11.9069 139.788 11.9069C141.156 11.9069 142.271 12.4568 143.093 13.5565L146.001 11.3131C145.266 10.3586 144.361 9.59755 143.286 9.04769C142.21 8.49783 141.034 8.2207 139.792 8.2207C137.624 8.2207 135.792 8.98171 134.257 10.5301C132.718 12.0741 131.962 13.9172 131.962 16.0991C131.962 18.2809 132.718 20.124 134.257 21.668C135.796 23.212 137.628 23.9774 139.792 23.9774C141.034 23.9774 142.214 23.7047 143.286 23.1504C144.361 22.6006 145.262 21.8352 146.001 20.885L143.093 18.6592C142.276 19.7457 141.156 20.2956 139.788 20.2956Z" fill="white"/>
<path d="M42.6234 23.4847L39.751 23.1328L42.5491 23.6211L42.6234 23.4847Z" fill="white"/>
<path d="M2.1421 8.7832L2.53996 9.1923H1.9541V8.7832H2.1421Z" fill="#0039A2"/>
<path d="M2.3301 12.0824H1.9541V11.6865L2.3301 12.0824Z" fill="#0039A2"/>
<path d="M2.29948 14.5586C2.3042 14.568 2.3042 14.5727 2.30892 14.5774L2.29004 14.5586H2.29948Z" fill="#0039A2"/>
<path d="M2.68412 14.9682H2.53547C2.45678 14.8406 2.38682 14.713 2.3125 14.5811L2.68412 14.9682Z" fill="#0039A2"/>
<path d="M3.59824 15.9306L3.20038 15.9042C3.10419 15.7722 3.03861 15.6579 2.95117 15.5215H3.20912L3.59824 15.9306Z" fill="#0039A2"/>
<path d="M24.9595 22.2607C24.6185 22.4059 24.2731 22.5467 23.9189 22.6698H23.2806C23.1451 22.5335 23.0096 22.3971 22.874 22.2607H24.9595Z" fill="#0039A2"/>
<path d="M4.28906 23.7744H15.534L7.34513 26.4621C6.24774 25.7011 5.22031 24.8081 4.28906 23.7744Z" fill="white"/>
<path d="M31.0809 23.7393C28.7069 23.7393 26.3373 23.7305 23.9632 23.7481C23.5566 23.7525 23.2593 23.6469 22.9664 23.3478C22.8702 23.251 22.7784 23.1587 22.6822 23.0619C22.5511 22.9299 22.4199 22.798 22.2887 22.666C22.1532 22.5296 22.0177 22.3933 21.8821 22.2569C21.6985 22.0722 21.5149 21.8874 21.3313 21.7026C21.1957 21.5663 21.0602 21.4299 20.9247 21.2936C20.741 21.1088 20.5574 20.924 20.3738 20.7393C20.2426 20.6029 20.1027 20.4666 19.9672 20.3302C19.7879 20.1454 19.6043 19.9607 19.4207 19.7759C19.2895 19.6396 19.1496 19.5032 19.0141 19.3669C18.8348 19.1821 18.6512 18.9973 18.4632 18.8126C18.332 18.6762 18.1965 18.5399 18.0566 18.4035C17.8773 18.2188 17.6937 18.034 17.5101 17.8492C17.3789 17.7129 17.239 17.5765 17.1035 17.4401C17.0991 17.4358 17.0947 17.4314 17.0904 17.427C16.9111 17.2466 16.7362 17.0662 16.5526 16.8859C16.4214 16.7495 16.2859 16.6132 16.146 16.4768C15.9667 16.292 15.7831 16.1073 15.5951 15.9225C15.4596 15.7862 15.3241 15.6498 15.1885 15.5134C15.0093 15.3287 14.8256 15.1439 14.6376 14.9592C14.5065 14.8228 14.3666 14.6865 14.231 14.5501C14.0518 14.3653 13.8682 14.1806 13.6802 13.9958C13.549 13.8595 13.4091 13.7231 13.2736 13.5867C13.0899 13.402 12.9063 13.2172 12.7227 13.0325C12.5871 12.8961 12.4516 12.7598 12.3161 12.6234C12.1325 12.4386 11.9532 12.2539 11.7652 12.0691C11.6297 11.9328 11.4941 11.7964 11.3586 11.66C11.175 11.4753 10.9957 11.2905 10.8121 11.1058C10.6766 10.9694 10.541 10.8331 10.4055 10.6967L9.85461 10.1424C9.71908 10.0061 9.58354 9.86971 9.44801 9.73335C9.26438 9.5486 9.08513 9.36384 8.89713 9.17909C8.7616 9.04273 8.62606 8.90636 8.49053 8.77C8.3069 8.58524 8.12328 8.40049 7.93965 8.21574C7.80412 8.07938 7.66858 7.94301 7.53305 7.80665L6.99529 7.26559C6.85975 7.12922 6.72422 6.99286 6.58869 6.85649C6.40506 6.67174 6.22581 6.48699 6.04218 6.30223C5.95474 6.21866 5.87167 6.13068 5.7886 6.0471C5.73614 5.99432 5.68804 5.94593 5.63558 5.89314C4.47698 4.72744 3.32276 3.56614 2.16854 2.40485C1.69199 1.92977 1.2198 1.4019 0.717017 0.856445C0.577111 1.26994 0.476554 1.71862 0.384741 2.1849C0.358508 2.31247 0.332276 2.44443 0.306044 2.572C0.292928 2.63798 0.279811 2.70397 0.271067 2.76995C0.257951 2.82714 0.244835 2.88432 0.240463 2.94591V2.9503H0.244835L2.57514 5.88874L2.57951 5.89314C2.64072 5.97672 2.64946 6.07789 2.59263 6.12188L2.37403 5.89314L0.153022 3.57934L0.14865 3.57494C0.0524647 4.26996 0.00437205 5.00017 0 5.74798C0 5.78317 0 5.82276 0.00437205 5.85795C0.00437205 5.82276 0.00437205 5.78757 0.00874411 5.74798C0.0349764 5.76118 0.0612088 5.78317 0.078697 5.80516L1.95431 8.16735L1.99803 8.22014L2.43523 8.7744L2.75877 9.18349L2.80686 9.24507C2.86807 9.32425 2.87244 9.42543 2.8156 9.46941L2.54016 9.18349L2.14231 8.78319L0.0174882 6.58816C0.0174882 6.62775 0.0218603 6.66294 0.0218603 6.69813C0.0306044 6.84769 0.0393485 6.99726 0.0480926 7.14682C0.0612088 7.29638 0.0743249 7.44594 0.0874411 7.5999C0.100557 7.73186 0.113673 7.86383 0.131162 7.9958C0.139906 8.04418 0.144278 8.09257 0.153022 8.14096C0.196742 8.48407 0.253579 8.82718 0.31916 9.17029C0.31916 9.17469 0.323532 9.17469 0.323532 9.17469L2.30407 11.6644L2.62323 12.0823L3.03858 12.6058C3.04732 12.6146 3.05169 12.6234 3.05607 12.6322C3.10416 12.7114 3.10416 12.7994 3.05169 12.8433L2.85058 12.6322L2.32593 12.0779L1.94994 11.682L0.550879 10.2172L0.546507 10.2128C0.791342 11.1806 1.11925 12.1395 1.54771 13.0765C1.55208 13.0809 1.55208 13.0853 1.55208 13.0853C1.5652 13.1161 1.57831 13.1425 1.59143 13.1689L1.5958 13.1733L1.95431 13.6263L2.25598 14.009L2.69319 14.5633L3.02109 14.9724L3.45829 15.5266L3.65941 15.7818C3.69876 15.8302 3.71625 15.8918 3.71187 15.9401C3.7075 15.9753 3.69439 16.0017 3.67253 16.0193L3.59383 15.9401L3.20472 15.531L2.68007 14.9768L2.30844 14.5897C2.3784 14.7217 2.45272 14.8492 2.53142 14.9768C2.63635 15.1659 2.75002 15.3463 2.86807 15.531C2.95551 15.6674 3.04295 15.8082 3.13476 15.9401C3.25718 16.1293 3.38397 16.314 3.5195 16.4944C3.56322 16.556 3.60695 16.6176 3.65067 16.6747C3.7075 16.7539 3.76434 16.8287 3.82555 16.9035C3.82118 16.9079 3.82555 16.9079 3.82992 16.9079C3.96983 17.0926 4.1141 17.2774 4.26275 17.4577C4.37643 17.5941 4.49447 17.7349 4.61252 17.8668C4.77866 18.056 4.94479 18.2407 5.11968 18.4211C5.25084 18.5619 5.38637 18.6982 5.52628 18.8302C5.72302 19.0193 5.91976 19.2041 6.12088 19.3844C6.27827 19.5252 6.44004 19.666 6.6018 19.7935C6.83352 19.9871 7.06961 20.1674 7.31007 20.3478C7.50244 20.4886 7.69482 20.6293 7.89156 20.7569C8.17574 20.9548 8.46867 21.1352 8.76597 21.3111C9.00206 21.4563 9.24252 21.5883 9.48736 21.7202C9.85461 21.9138 10.235 22.0985 10.6197 22.2745C10.9433 22.4197 11.2712 22.556 11.6078 22.6836C12.8407 23.1587 14.148 23.5194 15.5383 23.7833L9.46113 27.7291C16.8761 31.4769 26.4334 29.8537 31.7061 23.7525H31.0809V23.7393Z" fill="white"/>
<path d="M35.7546 5.57196L35.8158 5.50598V5.50158C35.807 4.89454 35.7677 4.2831 35.6977 3.67165L35.6321 3.72884V3.73324L33.2188 5.97666C33.1925 5.95466 33.1751 5.92827 33.1707 5.89748C33.1663 5.85349 33.1838 5.8051 33.2188 5.76551L35.5491 3.1174L35.6103 3.04702C35.4966 2.3432 35.3436 1.63058 35.1425 0.917969L35.0813 0.979553C33.9358 2.13645 32.8603 3.22297 31.7804 4.30949C31.2688 4.82416 30.7398 5.35642 30.1933 5.90188C30.1321 5.96346 30.0709 6.02505 30.0053 6.09103C29.931 6.16141 29.8567 6.23619 29.7823 6.31097C29.5987 6.49132 29.4151 6.67608 29.2271 6.86523C29.0916 7.00159 28.956 7.13796 28.8161 7.27432C28.6325 7.45908 28.4445 7.64383 28.2565 7.82858C28.121 7.96494 27.9854 8.10131 27.8455 8.23767C27.6575 8.42243 27.4739 8.60278 27.2859 8.79193C27.1504 8.92829 27.0105 9.06466 26.8705 9.20102C26.6826 9.38578 26.4989 9.57053 26.3109 9.75528C26.1754 9.89165 26.0355 10.028 25.9 10.1644C25.712 10.3491 25.5283 10.5339 25.3403 10.7186C25.2048 10.855 25.0649 10.9914 24.925 11.1277C24.737 11.3125 24.5534 11.4972 24.3654 11.682C24.2298 11.8183 24.0899 11.9547 23.95 12.0911C23.762 12.2758 23.5784 12.4606 23.3904 12.6453C23.2549 12.7817 23.115 12.9181 22.9794 13.0544C22.7914 13.2392 22.6078 13.4239 22.4242 13.6087C22.2843 13.745 22.1487 13.8814 22.0088 14.0178C21.8208 14.2025 21.6372 14.3873 21.4536 14.572C21.3137 14.7084 21.1781 14.8448 21.0426 14.9811C20.8546 15.1659 20.671 15.3506 20.4873 15.5354C20.3474 15.6717 20.2119 15.8081 20.0764 15.9445C19.8884 16.1336 19.7048 16.3184 19.5211 16.4987L18.7123 17.3125C18.6642 17.3609 18.6074 17.4093 18.5593 17.4533C18.5549 17.4577 18.5505 17.4621 18.5505 17.4621C18.4325 17.5721 18.3582 17.6864 18.4893 17.8712C18.5156 17.9108 18.5505 17.9504 18.5986 17.9943C18.7429 18.1351 18.8872 18.2803 19.0315 18.4254C19.1714 18.5618 19.3069 18.6982 19.4468 18.8345C19.6348 19.0193 19.8184 19.1996 20.0021 19.3888C20.1376 19.5252 20.2775 19.6615 20.413 19.7979C20.5966 19.9826 20.7803 20.1674 20.9639 20.3521L21.3705 20.7612C21.5541 20.946 21.7334 21.1307 21.9214 21.3155C22.0569 21.4519 22.1925 21.5882 22.328 21.7246C22.5116 21.9093 22.6909 22.0941 22.8745 22.2788C23.01 22.4152 23.1456 22.5516 23.2811 22.6879C23.3336 22.7407 23.386 22.7979 23.4429 22.8507C23.5259 22.9343 23.6046 23.0178 23.6877 23.097C23.8888 23.2994 24.0375 23.3346 24.2998 23.207C24.5971 23.0618 24.9206 22.8859 25.2529 22.6879C25.4671 22.5604 25.6857 22.424 25.9131 22.2788C26.1798 22.1029 26.4508 21.9181 26.7263 21.7246C26.9143 21.5926 27.1023 21.4563 27.2903 21.3155C27.5351 21.1351 27.7799 20.9504 28.0204 20.7612C28.1953 20.6249 28.3658 20.4885 28.5319 20.3521C28.7593 20.1674 28.9779 19.9826 29.1921 19.7979C29.3539 19.6615 29.5113 19.5208 29.6599 19.3888C29.8698 19.1996 30.0709 19.0149 30.2545 18.8345C30.3988 18.6938 30.5387 18.5574 30.6699 18.4254C30.718 18.377 30.7617 18.3287 30.8054 18.2847C30.9322 18.1483 31.059 18.0119 31.1814 17.8756C31.3038 17.7392 31.4219 17.6028 31.5399 17.4665C31.6973 17.2861 31.8459 17.1014 31.9902 16.9122C32.0952 16.7759 32.2001 16.6395 32.305 16.5031C32.4405 16.3184 32.5717 16.1336 32.7029 15.9489C32.7947 15.8125 32.8865 15.6761 32.9739 15.5398C34.2156 13.6131 35.055 11.5016 35.4879 9.19662L35.4398 9.24061L32.9433 11.5368C32.8821 11.4928 32.8865 11.4005 32.9564 11.3213L33.1226 11.1365L33.1663 11.0881L35.5753 8.41363V8.40923L35.6234 8.35644V8.35204C35.6584 8.1145 35.6846 7.88137 35.7108 7.64383C35.7589 7.18195 35.7939 6.72886 35.8027 6.27138V6.26698L35.7458 6.31977L33.1051 8.76554C33.0439 8.72155 33.0439 8.62917 33.1138 8.55439L35.7546 5.57196Z" fill="white"/>
<path d="M38.1633 23.7351C36.0516 23.7351 33.9443 23.7351 31.7539 23.7351C32.3398 22.2615 33.3147 21.263 34.8275 20.8759C36.5938 20.4228 38.1284 20.8627 39.37 22.2351C39.099 22.8422 38.7011 23.3436 38.1633 23.7351Z" fill="white"/>
<path d="M38.1631 23.7349C38.5041 23.185 38.9501 22.7187 39.3698 22.2305C39.8157 22.2833 40.1742 22.4416 40.6595 22.5648C41.0224 22.6923 41.1929 22.7055 41.5033 22.8111L41.499 22.8067C41.6651 22.8639 41.8312 22.9123 42.0018 22.9871C42.0411 23.0047 42.0804 23.0135 42.1111 23.0223C42.3603 23.1146 42.4696 23.1058 42.5701 23.3082C42.5614 23.6293 42.3996 23.7657 42.0804 23.7613C40.7732 23.7481 39.466 23.7437 38.1631 23.7349Z" fill="#FFD600"/>
<path d="M37.7354 22.4371C37.8923 22.4371 38.0195 22.3091 38.0195 22.1512C38.0195 21.9932 37.8923 21.8652 37.7354 21.8652C37.5784 21.8652 37.4512 21.9932 37.4512 22.1512C37.4512 22.3091 37.5784 22.4371 37.7354 22.4371Z" fill="white"/>
<path d="M2.30892 14.5774L2.29004 14.5586H2.29948C2.3042 14.568 2.3042 14.5727 2.30892 14.5774Z" fill="white"/>
<path d="M55.0575 11.5069H50.2569V23.7577H45.8849V11.5069H41.0625V7.96582H55.0575V11.5069Z" fill="white"/>
<path d="M67.5925 8.67404C68.6374 9.14911 69.4463 9.82654 70.0146 10.7063C70.583 11.5861 70.8672 12.6198 70.8672 13.8075C70.8672 14.9952 70.583 16.0245 70.0146 16.8999C69.4463 17.7709 68.6374 18.4439 67.5925 18.919C66.5476 19.3941 65.3147 19.6316 63.8938 19.6316H61.1569V23.7621H56.7148V7.96582H63.8894C65.3147 7.96582 66.5476 8.19896 67.5925 8.67404ZM65.6907 15.5099C66.1541 15.1096 66.3858 14.5421 66.3858 13.8075C66.3858 13.0729 66.1541 12.501 65.6907 12.092C65.2272 11.6873 64.5408 11.4805 63.6271 11.4805H61.1612V16.1081H63.6271C64.5364 16.1081 65.2229 15.9102 65.6907 15.5099Z" fill="white"/>
</svg>
