<svg width="355" height="1970" viewBox="0 0 355 1970" fill="none" xmlns="http://www.w3.org/2000/svg">
<path d="M85 1667.14L85 1769.14L355 1769.14L355 1866.64L85 1866.64L85 1969.14L-3.49954e-05 1969.14L-4.81202e-05 1667.14L85 1667.14ZM355 1631.62L-4.96636e-05 1631.62L-5.67475e-05 1468.62C-5.75008e-05 1451.29 3.49995 1435.29 10.5 1420.62C17.4999 1405.96 26.9999 1393.29 38.9999 1382.62C50.6666 1371.96 63.8333 1363.79 78.4999 1358.12C93.1666 1352.12 108 1349.12 123 1349.12C136.667 1349.12 149.833 1351.12 162.5 1355.12C175.167 1359.12 186.833 1364.96 197.5 1372.62C207.833 1380.29 216.833 1389.46 224.5 1400.12L355 1325.12L355 1432.12L246 1494.62L246 1534.12L355 1534.12L355 1631.62ZM161 1534.12L161 1472.62C161 1468.62 159.5 1464.79 156.5 1461.12C153.5 1457.46 149.167 1454.46 143.5 1452.12C137.833 1449.46 131 1448.12 123 1448.12C114.667 1448.12 107.833 1449.62 102.5 1452.62C96.8333 1455.29 92.5 1458.79 89.5 1463.12C86.5 1467.12 85 1471.12 85 1475.12L85 1534.12L161 1534.12ZM-6.78906e-05 1212.22L-7.26277e-05 1103.22L355 990.221L355 1089.22L285.5 1110.72L285.5 1205.22L355 1226.22L355 1325.72L-6.78906e-05 1212.22ZM220.5 1126.22L95.4999 1157.72L220.5 1190.72L220.5 1126.22ZM355 960.725L-7.88205e-05 960.725L-8.47528e-05 824.225C-8.64622e-05 784.892 7.99991 752.059 23.9999 725.725C39.6666 699.059 60.9999 679.059 87.9999 665.725C114.667 652.059 144.333 645.225 177 645.225C213 645.225 244.333 652.725 271 667.725C297.667 682.392 318.333 703.225 333 730.225C347.667 756.892 355 788.225 355 824.225L355 960.725ZM177 744.225C158.667 744.225 142.667 747.392 129 753.725C115 760.059 104.167 769.225 96.4999 781.225C88.8333 793.225 84.9999 807.559 84.9999 824.225L84.9999 863.225L270 863.225L270 824.225C270 807.225 266 792.892 258 781.225C250 769.225 239 760.059 225 753.725C210.667 747.392 194.667 744.225 177 744.225ZM270 349.815L355 349.815L355 602.815L-9.43752e-05 602.815L-0.000105175 354.315L84.9999 354.315L84.9999 505.315L135 505.315L135 376.315L214 376.315L214 505.315L270 505.315L270 349.815ZM-0.000110361 234.975L112 170.475L-0.000115968 105.975L-0.000120531 0.975197L180 112.475L355 4.97519L355 109.975L248 170.475L355 230.975L355 336.475L180 228.975L-0.000105776 340.475L-0.000110361 234.975Z" fill="#272727"/>
</svg>
