<svg width="562" height="597" viewBox="0 0 562 597" fill="none" xmlns="http://www.w3.org/2000/svg">
<path d="M71.853 147.267C89.7134 164.641 228.263 205.309 195.953 225.191C102.673 282.595 34.1864 274.127 69.2547 303.096C102.158 330.276 230.487 355.871 310.538 350.511C410.885 343.792 343.416 229.084 221.584 271.41C99.7514 313.735 716.089 301 500.569 443.644" stroke="#555555" stroke-width="0.9175" stroke-dasharray="4.59 4.59"/>
<path d="M146.856 180.955L169.638 182.106C170.526 182.15 170.928 183.151 170.393 183.788L167.224 187.544L151.406 183.512C151.102 183.433 150.951 183.869 151.24 183.994L166.08 190.457L167.643 193.512C168.101 194.407 167.2 195.314 166.337 194.936L162.426 193.235L158.711 197.635C158.288 198.138 157.501 198.115 157.105 197.585L145.987 182.587C145.466 181.887 146.006 180.911 146.856 180.955Z" fill="#FFD600"/>
<circle cx="69.697" cy="146.438" r="6.5059" transform="rotate(55.9631 69.697 146.438)" stroke="#FFD600" stroke-width="1.37625"/>
</svg>
