<svg width="1346" height="1279" viewBox="0 0 1346 1279" fill="none" xmlns="http://www.w3.org/2000/svg">
<path d="M1079.93 283.014C1028.53 300.583 753.24 238.622 762.738 320.771C772.665 406.636 1145.69 505.971 1120.48 743.439C1096.91 965.539 753.323 986.26 528.002 795C12 357 460.03 189.432 826 549.001C1191.97 908.57 -115.543 382.926 176 865" stroke="#555555" stroke-width="2" stroke-dasharray="10 10"/>
<path d="M870.743 273.136L823 259.242C821.139 258.697 819.596 260.472 820.244 262.168L824.088 272.166L859.547 275.154C860.23 275.208 860.228 276.213 859.544 276.265L824.366 278.981L818.966 284.157C817.383 285.675 818.592 288.185 820.639 288.024L829.908 287.312L834.419 299.027C834.93 300.365 836.569 300.879 837.762 300.07L871.369 277.118C872.942 276.047 872.526 273.653 870.743 273.136Z" fill="#FFD600"/>
<circle cx="15.6818" cy="15.6818" r="14.1818" transform="matrix(-0.800263 0.599649 0.599649 0.800263 1096.82 264.343)" stroke="#FFD600" stroke-width="3"/>
</svg>
