<svg width="1637" height="1415" viewBox="0 0 1637 1415" fill="none" xmlns="http://www.w3.org/2000/svg">
<path d="M1456.12 423.165C1386.05 425.199 1070.28 243.669 1050.62 348.585C1030.06 458.247 1452.06 723.183 1330.3 1006.35C1216.42 1271.2 784.858 1165.53 580.08 843.661C111.125 106.55 727.536 71.0421 1041.46 654.151C1355.38 1237.26 -56.0358 89.8086 119.332 795.542" stroke="#555555" stroke-width="2" stroke-dasharray="10 10"/>
<path d="M1144.58 310.203L1096.84 296.309C1094.98 295.764 1093.44 297.539 1094.08 299.235L1097.93 309.233L1133.39 312.221C1134.07 312.275 1134.07 313.28 1133.38 313.332L1098.21 316.048L1092.81 321.224C1091.22 322.742 1092.43 325.252 1094.48 325.091L1103.75 324.379L1108.26 336.094C1108.77 337.432 1110.41 337.946 1111.6 337.137L1145.21 314.185C1146.78 313.114 1146.37 310.72 1144.58 310.203Z" fill="#FFD600"/>
<circle cx="15.6818" cy="15.6818" r="14.1818" transform="matrix(-0.800263 0.599649 0.599649 0.800263 1480.66 403.41)" stroke="#FFD600" stroke-width="3"/>
<circle cx="15.6818" cy="15.6818" r="14.1818" transform="matrix(-0.95037 0.311123 0.311123 0.95037 138.455 797.018)" stroke="#FFD600" stroke-width="3"/>
</svg>
