<svg width="184" height="86" viewBox="0 0 184 86" fill="none" xmlns="http://www.w3.org/2000/svg">
<g clip-path="url(#clip0_756_5462)">
<path d="M76.7872 25.744L65.5368 55.0756H71.5797L73.892 48.9472H85.8298L88.1518 55.0756H94.1501L82.9695 25.744H76.7872ZM75.9664 43.564L79.8964 33.244L83.8095 43.564H75.9664ZM101.373 47.512L96.4937 34.4704H90.7285L98.5873 55.0744H104.302L112.021 34.4704H106.256L101.373 47.512ZM119.272 34.4704H113.786V55.0744H119.272V34.4704ZM116.526 32.986C117.587 32.986 118.604 32.5653 119.354 31.8165C120.104 31.0676 120.525 30.052 120.525 28.993C120.525 27.934 120.104 26.9184 119.354 26.1695C118.604 25.4207 117.587 25 116.526 25C115.465 25 114.448 25.4207 113.698 26.1695C112.948 26.9184 112.527 27.934 112.527 28.993C112.527 30.052 112.948 31.0676 113.698 31.8165C114.448 32.5653 115.465 32.986 116.526 32.986ZM130.145 28.972H124.674V34.4344H121.465V39.4H124.674V48.1564C124.674 53.122 127.415 55.258 131.275 55.258C132.577 55.2749 133.869 55.0228 135.069 54.5176V49.4128C134.414 49.6528 133.723 49.7776 133.026 49.7848C131.349 49.7848 130.141 49.1344 130.141 46.9048V39.4012H135.069V34.4848H130.145V28.9732V28.972ZM146.603 34.096C145.199 34.0954 143.808 34.3709 142.51 34.9069C141.213 35.443 140.033 36.2289 139.04 37.22C138.046 38.2111 137.258 39.3878 136.72 40.683C136.182 41.9782 135.905 43.3666 135.904 44.7688C135.904 46.171 136.18 47.5596 136.716 48.8553C137.253 50.151 138.04 51.3285 139.033 52.3204C140.026 53.3124 141.204 54.0994 142.501 54.6366C143.799 55.1738 145.189 55.4506 146.593 55.4512C149.41 55.4227 152.101 54.2859 154.083 52.2877C156.065 50.2895 157.178 47.5912 157.179 44.7789C157.18 41.9667 156.07 39.2674 154.09 37.2674C152.11 35.2675 149.419 34.127 146.603 34.096ZM146.603 49.9888C145.573 49.9897 144.566 49.6856 143.709 49.1148C142.852 48.5441 142.183 47.7323 141.788 46.7823C141.394 45.8323 141.29 44.7867 141.49 43.7778C141.691 42.7688 142.186 41.8419 142.914 41.1142C143.642 40.3866 144.57 39.8909 145.58 39.6899C146.591 39.4888 147.638 39.5915 148.59 39.9849C149.542 40.3783 150.355 41.0448 150.928 41.9C151.5 42.7551 151.806 43.7606 151.806 44.7892C151.804 46.1648 151.254 47.4832 150.278 48.4545C149.303 49.4258 147.981 49.9703 146.603 49.9684V49.9888Z" fill="black"/>
<path d="M39.7334 35.2598C41.9404 35.2598 43.7295 33.4734 43.7295 31.2698C43.7295 29.0662 41.9404 27.2798 39.7334 27.2798C37.5265 27.2798 35.7373 29.0662 35.7373 31.2698C35.7373 33.4734 37.5265 35.2598 39.7334 35.2598Z" fill="#965EEB"/>
<path d="M53.7348 42.364C58.5371 42.364 62.4301 38.4769 62.4301 33.682C62.4301 28.8871 58.5371 25 53.7348 25C48.9326 25 45.0395 28.8871 45.0395 33.682C45.0395 38.4769 48.9326 42.364 53.7348 42.364Z" fill="#00AAFF"/>
<path d="M37.6963 58.0001C43.6038 58.0001 48.3927 53.2185 48.3927 47.3201C48.3927 41.4217 43.6038 36.6401 37.6963 36.6401C31.7889 36.6401 27 41.4217 27 47.3201C27 53.2185 31.7889 58.0001 37.6963 58.0001Z" fill="#04E061"/>
<path d="M56.2346 56.6559C59.8023 56.6559 62.6945 53.7681 62.6945 50.2059C62.6945 46.6436 59.8023 43.7559 56.2346 43.7559C52.667 43.7559 49.7748 46.6436 49.7748 50.2059C49.7748 53.7681 52.667 56.6559 56.2346 56.6559Z" fill="#FF4053"/>
</g>
<defs>
<clipPath id="clip0_756_5462">
<rect width="131" height="36" fill="white" transform="translate(27 25)"/>
</clipPath>
</defs>
</svg>
