<svg width="150" height="80" viewBox="0 0 150 80" fill="none" xmlns="http://www.w3.org/2000/svg">
<circle cx="75.4669" cy="38.6" r="31.7333" fill="#5DBDEE"/>
<mask id="mask0_602_4193" style="mask-type:alpha" maskUnits="userSpaceOnUse" x="43" y="6" width="65" height="65">
<circle cx="75.4669" cy="38.6" r="31.7333" fill="#5DBDEE"/>
</mask>
<g mask="url(#mask0_602_4193)">
<path d="M45.5419 4.06641V91.3331V4.06641ZM52.5419 91.3331V4.06641V91.3331ZM59.5419 4.06641V91.5664V4.06641ZM66.5419 91.5664V4.06641V91.5664ZM73.5419 4.06641V91.5664V4.06641ZM41.8669 11.2414H116.534H41.8669ZM116.534 18.2414H41.8669H116.534ZM41.8669 25.2414H116.534H41.8669ZM116.534 32.2414H41.8669H116.534ZM41.8669 39.2414H116.534H41.8669Z" fill="black"/>
<path d="M45.5419 4.06641V91.3331M52.5419 91.3331V4.06641M59.5419 4.06641V91.5664M66.5419 91.5664V4.06641M73.5419 4.06641V91.5664M41.8669 11.2414H116.534M116.534 18.2414H41.8669M41.8669 25.2414H116.534M116.534 32.2414H41.8669M41.8669 39.2414H116.534M80.5419 4.06641V91.5664M87.5419 91.5664V4.06641M94.5419 4.06641V91.5664M101.834 4.06641V91.5664M108.834 91.5664V4.06641M115.834 4.06641V91.5664M41.8669 46.7081H116.534M116.534 53.7081H41.8669M41.8669 60.7081H116.534M116.534 67.7081H41.8669M41.8669 74.7081H116.534" stroke="#74D0FF" stroke-width="0.512925"/>
</g>
<path d="M84.3918 14.5664V16.6664C84.4433 17.0579 84.8061 17.4315 85.4005 17.705C85.9948 17.9785 86.772 18.1296 87.561 18.125C88.35 18.1203 89.0862 17.9604 89.6077 17.6803C90.1292 17.4002 90.3933 17.0229 90.3418 16.6314V14.5314M90.2893 14.7064C90.2893 15.1769 89.9795 15.6282 89.4282 15.9609C88.8768 16.2936 88.129 16.4805 87.3493 16.4805C86.5695 16.4805 85.8217 16.2936 85.2704 15.9609C84.719 15.6282 84.4093 15.1769 84.4093 14.7064M84.3918 14.7764C84.3918 14.3312 84.7052 13.9042 85.2631 13.5894C85.8211 13.2745 86.5778 13.0977 87.3668 13.0977C88.1558 13.0977 88.9125 13.2745 89.4704 13.5894C90.0283 13.9042 90.3418 14.3312 90.3418 14.7764" stroke="white" stroke-width="0.512925"/>
<path d="M77.3335 18.6021V20.7021C77.385 21.0935 77.7478 21.4671 78.3422 21.7407C78.9365 22.0142 79.7137 22.1652 80.5027 22.1606C81.2917 22.156 82.028 21.996 82.5495 21.7159C83.071 21.4358 83.335 21.0585 83.2835 20.6671V18.5671M83.231 18.7421C83.231 19.2126 82.9212 19.6638 82.3699 19.9966C81.8185 20.3293 81.0707 20.5162 80.291 20.5162C79.5113 20.5162 78.7635 20.3293 78.2121 19.9966C77.6607 19.6638 77.351 19.2126 77.351 18.7421M77.3335 18.8121C77.3335 18.3668 77.6469 17.9398 78.2049 17.625C78.7628 17.3102 79.5195 17.1333 80.3085 17.1333C81.0975 17.1333 81.8542 17.3102 82.4121 17.625C82.9701 17.9398 83.2835 18.3668 83.2835 18.8121" stroke="white" stroke-width="0.512925"/>
<path d="M84.3335 31.2017V33.3017C84.385 33.6931 84.7478 34.0667 85.3422 34.3403C85.9365 34.6138 86.7137 34.7649 87.5027 34.7602C88.2917 34.7556 89.028 34.5956 89.5495 34.3155C90.071 34.0354 90.335 33.6581 90.2835 33.2667V31.1667M90.231 31.3417C90.231 31.8122 89.9212 32.2634 89.3699 32.5962C88.8185 32.9289 88.0707 33.1158 87.291 33.1158C86.5113 33.1158 85.7635 32.9289 85.2121 32.5962C84.6607 32.2634 84.351 31.8122 84.351 31.3417M84.3335 31.4117C84.3335 30.9664 84.6469 30.5394 85.2049 30.2246C85.7628 29.9098 86.5195 29.7329 87.3085 29.7329C88.0975 29.7329 88.8542 29.9098 89.4121 30.2246C89.9701 30.5394 90.2835 30.9664 90.2835 31.4117" stroke="white" stroke-width="0.512925"/>
<path d="M77.3335 27.002V29.102C77.385 29.4934 77.7478 29.867 78.3422 30.1406C78.9365 30.4141 79.7137 30.5652 80.5027 30.5605C81.2917 30.5559 82.028 30.3959 82.5495 30.1158C83.071 29.8357 83.335 29.4584 83.2835 29.067V26.967M83.231 27.142C83.231 27.6125 82.9212 28.0637 82.3699 28.3965C81.8185 28.7292 81.0707 28.9161 80.291 28.9161C79.5113 28.9161 78.7635 28.7292 78.2121 28.3965C77.6607 28.0637 77.351 27.6125 77.351 27.142M77.3335 27.212C77.3335 26.7667 77.6469 26.3397 78.2049 26.0249C78.7628 25.7101 79.5195 25.5332 80.3085 25.5332C81.0975 25.5332 81.8542 25.7101 82.4121 26.0249C82.9701 26.3397 83.2835 26.7667 83.2835 27.212" stroke="white" stroke-width="0.512925"/>
<path d="M70.8001 22.8018V24.9018C70.8516 25.2932 71.2144 25.6668 71.8088 25.9404C72.4031 26.2139 73.1803 26.365 73.9693 26.3603C74.7583 26.3557 75.4946 26.1957 76.0161 25.9156C76.5376 25.6355 76.8016 25.2582 76.7501 24.8668V22.7668M76.6976 22.9418C76.6976 23.4123 76.3879 23.8635 75.8365 24.1963C75.2851 24.529 74.5373 24.7159 73.7576 24.7159C72.9779 24.7159 72.2301 24.529 71.6787 24.1963C71.1274 23.8635 70.8176 23.4123 70.8176 22.9418M70.8001 23.0118C70.8001 22.5665 71.1135 22.1395 71.6715 21.8247C72.2294 21.5099 72.9861 21.333 73.7751 21.333C74.5641 21.333 75.3208 21.5099 75.8788 21.8247C76.4367 22.1395 76.7501 22.5665 76.7501 23.0118" stroke="white" stroke-width="0.512925"/>
<path d="M77.3335 35.4019V37.5019C77.385 37.8933 77.7478 38.2669 78.3422 38.5405C78.9365 38.814 79.7137 38.9651 80.5027 38.9604C81.2917 38.9558 82.028 38.7958 82.5495 38.5157C83.071 38.2356 83.335 37.8583 83.2835 37.4669V35.3669M83.231 35.5419C83.231 36.0124 82.9212 36.4636 82.3699 36.7964C81.8185 37.1291 81.0707 37.316 80.291 37.316C79.5113 37.316 78.7635 37.1291 78.2121 36.7964C77.6607 36.4636 77.351 36.0124 77.351 35.5419M77.3335 35.6119C77.3335 35.1666 77.6469 34.7396 78.2049 34.4248C78.7628 34.11 79.5195 33.9331 80.3085 33.9331C81.0975 33.9331 81.8542 34.11 82.4121 34.4248C82.9701 34.7396 83.2835 35.1666 83.2835 35.6119" stroke="white" stroke-width="0.512925"/>
<path d="M63.8002 27.002V29.102C63.8517 29.4934 64.2145 29.867 64.8088 30.1406C65.4032 30.4141 66.1803 30.5652 66.9694 30.5605C67.7584 30.5559 68.4946 30.3959 69.0161 30.1158C69.5376 29.8357 69.8017 29.4584 69.7502 29.067V26.967M69.6977 27.142C69.6977 27.6125 69.3879 28.0637 68.8366 28.3965C68.2852 28.7292 67.5374 28.9161 66.7577 28.9161C65.9779 28.9161 65.2301 28.7292 64.6788 28.3965C64.1274 28.0637 63.8177 27.6125 63.8177 27.142M63.8002 27.212C63.8002 26.7667 64.1136 26.3397 64.6715 26.0249C65.2294 25.7101 65.9862 25.5332 66.7752 25.5332C67.5642 25.5332 68.3209 25.7101 68.8788 26.0249C69.4367 26.3397 69.7502 26.7667 69.7502 27.212" stroke="white" stroke-width="0.512925"/>
<path d="M70.3335 39.1353V41.2353C70.385 41.6267 70.7478 42.0003 71.3422 42.2739C71.9365 42.5474 72.7137 42.6985 73.5027 42.6938C74.2917 42.6892 75.028 42.5292 75.5495 42.2491C76.071 41.969 76.335 41.5917 76.2835 41.2003V39.1003M76.231 39.2753C76.231 39.7458 75.9212 40.197 75.3699 40.5298C74.8185 40.8625 74.0707 41.0494 73.291 41.0494C72.5113 41.0494 71.7635 40.8625 71.2121 40.5298C70.6607 40.197 70.351 39.7458 70.351 39.2753M70.3335 39.3453C70.3335 38.9 70.6469 38.473 71.2049 38.1582C71.7628 37.8434 72.5195 37.6665 73.3085 37.6665C74.0975 37.6665 74.8542 37.8434 75.4121 38.1582C75.9701 38.473 76.2835 38.9 76.2835 39.3453" stroke="white" stroke-width="0.512925"/>
<path d="M63.3334 35.4019V37.5019C63.3849 37.8933 63.7478 38.2669 64.3421 38.5405C64.9364 38.814 65.7136 38.9651 66.5026 38.9604C67.2916 38.9558 68.0279 38.7958 68.5494 38.5157C69.0709 38.2356 69.3349 37.8583 69.2834 37.4669V35.3669M69.2309 35.5419C69.2309 36.0124 68.9212 36.4636 68.3698 36.7964C67.8185 37.1291 67.0707 37.316 66.2909 37.316C65.5112 37.316 64.7634 37.1291 64.212 36.7964C63.6607 36.4636 63.3509 36.0124 63.3509 35.5419M63.3334 35.6119C63.3334 35.1666 63.6469 34.7396 64.2048 34.4248C64.7627 34.11 65.5194 33.9331 66.3084 33.9331C67.0975 33.9331 67.8542 34.11 68.4121 34.4248C68.97 34.7396 69.2834 35.1666 69.2834 35.6119" stroke="white" stroke-width="0.512925"/>
<path d="M77.3335 51.7349V53.8349C77.385 54.2263 77.7478 54.5999 78.3422 54.8735C78.9365 55.147 79.7137 55.2981 80.5027 55.2934C81.2917 55.2888 82.028 55.1288 82.5495 54.8487C83.071 54.5686 83.335 54.1913 83.2835 53.7999V51.6999M83.231 51.8749C83.231 52.3454 82.9212 52.7967 82.3699 53.1294C81.8185 53.4621 81.0707 53.649 80.291 53.649C79.5113 53.649 78.7635 53.4621 78.2121 53.1294C77.6607 52.7967 77.351 52.3454 77.351 51.8749M77.3335 51.9449C77.3335 51.4996 77.6469 51.0726 78.2049 50.7578C78.7628 50.443 79.5195 50.2661 80.3085 50.2661C81.0975 50.2661 81.8542 50.443 82.4121 50.7578C82.9701 51.0726 83.2835 51.4996 83.2835 51.9449" stroke="white" stroke-width="0.512925"/>
<path d="M56.3335 30.7354V32.8354C56.385 33.2268 56.7478 33.6004 57.3422 33.874C57.9365 34.1475 58.7137 34.2986 59.5027 34.2939C60.2917 34.2893 61.028 34.1293 61.5495 33.8492C62.071 33.5691 62.335 33.1918 62.2835 32.8004V30.7004M62.231 30.8754C62.231 31.3459 61.9212 31.7971 61.3699 32.1299C60.8185 32.4626 60.0707 32.6495 59.291 32.6495C58.5113 32.6495 57.7635 32.4626 57.2121 32.1299C56.6607 31.7971 56.351 31.3459 56.351 30.8754M56.3335 30.9454C56.3335 30.5001 56.6469 30.0731 57.2049 29.7583C57.7628 29.4435 58.5195 29.2666 59.3085 29.2666C60.0975 29.2666 60.8542 29.4435 61.4121 29.7583C61.9701 30.0731 62.2835 30.5001 62.2835 30.9454" stroke="white" stroke-width="0.512925"/>
<path d="M70.3335 47.5352V49.6352C70.385 50.0266 70.7478 50.4002 71.3422 50.6738C71.9365 50.9473 72.7137 51.0984 73.5027 51.0937C74.2917 51.0891 75.028 50.9291 75.5495 50.649C76.071 50.3689 76.335 49.9916 76.2835 49.6002V47.5002M76.231 47.6752C76.231 48.1457 75.9212 48.5969 75.3699 48.9297C74.8185 49.2624 74.0707 49.4493 73.291 49.4493C72.5113 49.4493 71.7635 49.2624 71.2121 48.9297C70.6607 48.5969 70.351 48.1457 70.351 47.6752M70.3335 47.7452C70.3335 47.2999 70.6469 46.8729 71.2049 46.5581C71.7628 46.2433 72.5195 46.0664 73.3085 46.0664C74.0975 46.0664 74.8542 46.2433 75.4121 46.5581C75.9701 46.8729 76.2835 47.2999 76.2835 47.7452" stroke="white" stroke-width="0.512925"/>
<path d="M94.5067 33.4898L94.6381 33.7101C94.7161 33.6636 94.7636 33.5793 94.7632 33.4886C94.7627 33.3978 94.7143 33.314 94.6359 33.2683L94.5067 33.4898ZM73.5067 46.0198L73.3775 46.2414C73.4581 46.2884 73.558 46.2879 73.6381 46.2401L73.5067 46.0198ZM52.5067 33.7698L52.6359 33.5483C52.5566 33.502 52.4586 33.5017 52.379 33.5475C52.2994 33.5932 52.2503 33.678 52.2503 33.7698H52.5067ZM52.5067 41.9948H52.2503C52.2503 42.0859 52.2986 42.1702 52.3772 42.2162L52.5067 41.9948ZM80.5067 58.3748H80.7632C80.7632 58.2837 80.7148 58.1995 80.6362 58.1535L80.5067 58.3748ZM80.5067 66.4948L80.3768 66.716C80.4561 66.7626 80.5543 66.7631 80.6341 66.7174C80.7139 66.6717 80.7632 66.5868 80.7632 66.4948H80.5067ZM66.5067 58.2698H66.2503C66.2503 58.3608 66.2984 58.4449 66.3768 58.491L66.5067 58.2698ZM87.5242 54.1398H87.7807C87.7807 54.0483 87.7319 53.9637 87.6526 53.9178L87.5242 54.1398ZM87.5242 62.3998L87.6545 62.6207C87.7327 62.5746 87.7807 62.4906 87.7807 62.3998H87.5242ZM59.5242 37.8648L59.3923 37.6449C59.315 37.6913 59.2678 37.7748 59.2678 37.8648H59.5242ZM63.6812 27.4798C63.8026 27.4069 63.842 27.2494 63.7691 27.1279C63.6963 27.0064 63.5387 26.9671 63.4173 27.0399L63.6812 27.4798ZM70.7041 23.154C70.8237 23.0781 70.8592 22.9197 70.7834 22.8001C70.7076 22.6804 70.5492 22.6449 70.4295 22.7207L70.7041 23.154ZM73.8823 20.8099C73.7608 20.8828 73.7214 21.0403 73.7943 21.1618C73.8672 21.2832 74.0247 21.3226 74.1462 21.2498L73.8823 20.8099ZM94.5242 17.1448H94.7807C94.7807 17.0546 94.7333 16.9711 94.6559 16.9248L94.5242 17.1448ZM94.5242 25.3348L94.6553 25.5553C94.7331 25.509 94.7807 25.4253 94.7807 25.3348H94.5242ZM87.5681 29.1744C87.4464 29.2468 87.4064 29.4042 87.4788 29.526C87.5512 29.6477 87.7086 29.6877 87.8303 29.6153L87.5681 29.1744ZM87.2678 29.3948C87.2678 29.5365 87.3826 29.6513 87.5242 29.6513C87.6659 29.6513 87.7807 29.5365 87.7807 29.3948H87.2678ZM87.5242 21.2398H87.7807C87.7807 21.1488 87.7324 21.0646 87.6539 21.0186L87.5242 21.2398ZM76.5939 22.7161C76.4717 22.6445 76.3146 22.6855 76.243 22.8076C76.1713 22.9298 76.2123 23.087 76.3345 23.1586L76.5939 22.7161ZM80.5242 25.3173L80.3945 25.5386C80.4745 25.5855 80.5737 25.5855 80.6537 25.5387L80.5242 25.3173ZM66.5942 33.6823L66.468 33.9056C66.5483 33.951 66.647 33.9498 66.7262 33.9023L66.5942 33.6823ZM80.4892 33.5248L80.3602 33.7465C80.4399 33.7929 80.5385 33.7929 80.6182 33.7465L80.4892 33.5248ZM87.2912 29.547C87.4139 29.6178 87.5707 29.5756 87.6414 29.4529C87.7121 29.3302 87.67 29.1734 87.5473 29.1026L87.2912 29.547ZM87.5242 37.6198H87.7807C87.7807 37.5288 87.7324 37.4445 87.6538 37.3985L87.5242 37.6198ZM80.5592 41.7848H80.8157C80.8157 41.6938 80.7674 41.6095 80.6888 41.5635L80.5592 41.7848ZM80.5242 50.1498L80.3942 50.3709C80.4751 50.4185 80.5756 50.4181 80.6562 50.3698L80.5242 50.1498ZM94.5242 41.7498L94.6562 41.9698C94.7334 41.9234 94.7807 41.8399 94.7807 41.7498H94.5242ZM73.5592 37.5848H73.3028C73.3028 37.6765 73.3516 37.7611 73.431 37.8069C73.5103 37.8528 73.6081 37.8528 73.6874 37.807L73.5592 37.5848ZM90.1775 31.2614L94.3775 33.7114L94.6359 33.2683L90.4359 30.8183L90.1775 31.2614ZM94.3753 33.2696L73.3753 45.7996L73.6381 46.2401L94.6381 33.7101L94.3753 33.2696ZM73.6359 45.7983L52.6359 33.5483L52.3775 33.9914L73.3775 46.2414L73.6359 45.7983ZM52.2503 33.7698V41.9948H52.7632V33.7698H52.2503ZM52.3772 42.2162L80.3772 58.5962L80.6362 58.1535L52.6362 41.7735L52.3772 42.2162ZM80.2502 58.3748V66.4948H80.7632V58.3748H80.2502ZM80.6366 66.2737L66.6366 58.0487L66.3768 58.491L80.3768 66.716L80.6366 66.2737ZM66.7632 58.2698V41.8548H66.2503V58.2698H66.7632ZM66.43 42.249L70.63 39.6939L70.3634 39.2557L66.1634 41.8107L66.43 42.249ZM83.0383 51.8419L87.3958 54.3619L87.6526 53.9178L83.2951 51.3978L83.0383 51.8419ZM87.2678 54.1398V62.3998H87.7807V54.1398H87.2678ZM87.3939 62.179L80.3939 66.309L80.6545 66.7507L87.6545 62.6207L87.3939 62.179ZM80.657 58.5943L87.657 54.3593L87.3915 53.9204L80.3915 58.1554L80.657 58.5943ZM73.8157 62.3998V54.1398H73.3028V62.3998H73.8157ZM73.565 54.5369L77.625 52.1919L77.3684 51.7478L73.3084 54.0928L73.565 54.5369ZM66.5314 50.4411L70.5914 48.0611L70.332 47.6186L66.272 49.9986L66.5314 50.4411ZM59.7807 46.0898V37.8648H59.2678V46.0898H59.7807ZM59.6562 38.0848L63.5062 35.7748L63.2423 35.3349L59.3923 37.6449L59.6562 38.0848ZM52.6532 33.9565L56.5032 31.7165L56.2452 31.2732L52.3952 33.5132L52.6532 33.9565ZM60.1812 29.5798L63.6812 27.4798L63.4173 27.0399L59.9173 29.1399L60.1812 29.5798ZM66.9765 25.5165L70.7041 23.154L70.4295 22.7207L66.7019 25.0832L66.9765 25.5165ZM74.1462 21.2498L77.6462 19.1498L77.3823 18.7099L73.8823 20.8099L74.1462 21.2498ZM80.9345 17.2257L84.4345 15.1607L84.1739 14.719L80.6739 16.784L80.9345 17.2257ZM90.1225 14.8099L94.3925 17.3649L94.6559 16.9248L90.3859 14.3698L90.1225 14.8099ZM94.2678 17.1448V25.3348H94.7807V17.1448H94.2678ZM94.3931 25.1144L87.5681 29.1744L87.8303 29.6153L94.6553 25.5553L94.3931 25.1144ZM87.7807 29.3948V21.2398H87.2678V29.3948H87.7807ZM87.6539 21.0186L83.5939 18.6386L83.3345 19.0811L87.3945 21.4611L87.6539 21.0186ZM76.3345 23.1586L80.3945 25.5386L80.6539 25.0961L76.5939 22.7161L76.3345 23.1586ZM80.6537 25.5387L94.6537 17.3487L94.3947 16.906L80.3947 25.096L80.6537 25.5387ZM62.198 31.4906L66.468 33.9056L66.7205 33.4591L62.4505 31.0441L62.198 31.4906ZM66.7262 33.9023L77.5762 27.3923L77.3123 26.9524L66.4623 33.4624L66.7262 33.9023ZM69.2652 27.289L80.3602 33.7465L80.6182 33.3032L69.5232 26.8457L69.2652 27.289ZM80.6182 33.7465L84.4682 31.5065L84.2102 31.0632L80.3602 33.3032L80.6182 33.7465ZM83.1612 27.1671L87.2912 29.547L87.5473 29.1026L83.4173 26.7226L83.1612 27.1671ZM83.0897 35.3212L87.3947 37.8412L87.6538 37.3985L83.3488 34.8785L83.0897 35.3212ZM87.2678 37.6198V45.9848H87.7807V37.6198H87.2678ZM76.1247 39.4862L80.4297 42.0062L80.6888 41.5635L76.3838 39.0435L76.1247 39.4862ZM80.3028 41.7848V50.1498H80.8157V41.7848H80.3028ZM76.2292 47.9209L80.3942 50.3709L80.6542 49.9288L76.4892 47.4788L76.2292 47.9209ZM80.6562 50.3698L94.6562 41.9698L94.3923 41.5299L80.3923 49.9299L80.6562 50.3698ZM94.7807 41.7498V33.4898H94.2678V41.7498H94.7807ZM73.3028 29.3248V37.5848H73.8157V29.3248H73.3028ZM73.6874 37.807L77.5374 35.5845L77.281 35.1402L73.431 37.3627L73.6874 37.807ZM69.2328 35.5855L73.4328 37.9655L73.6857 37.5192L69.4857 35.1392L69.2328 35.5855Z" fill="white"/>
</svg>
