<svg width="150" height="80" viewBox="0 0 150 80" fill="none" xmlns="http://www.w3.org/2000/svg">
<g clip-path="url(#clip0_602_4187)">
<path d="M68.2451 74.596C62.1224 73.33 56.4092 70.5061 51.9241 66.5287C40.4097 56.3177 36.8511 40.277 42.9339 26.0043C44.4277 22.4993 46.8562 18.9422 49.8651 15.8519L52.5179 13.1275L52.705 29.0736C52.8841 44.3368 52.9244 45.1057 53.6475 47.029C55.0941 50.8769 56.645 53.3268 59.3148 55.9817C66.2113 62.8395 76.3272 64.551 84.9266 60.3149C93.0095 56.3333 98.1052 47.6757 97.513 38.9307C97.1153 33.0566 95.1368 28.7492 90.8653 24.4575C87.6354 21.2123 83.8353 19.0925 79.6981 18.2282C75.4888 17.3488 75.6908 17.2203 75.6908 20.7778V23.8491L77.9984 24.2737C86.9354 25.9179 92.8461 34.6805 90.9833 43.5237C90.3883 46.3482 89.0613 48.8423 86.931 51.1397C83.6936 54.6312 79.139 56.3 75.1619 56.2924C68.5858 56.2797 63.0947 52.5485 60.4333 47.0308C60.4333 47.0308 59.7361 45.4537 59.5121 44.4791C58.1945 38.7476 59.0367 26.6826 59.0367 26.6826L58.9346 9.04138L59.9776 8.50284C60.5513 8.20665 61.1015 7.9643 61.2002 7.9643C61.299 7.9643 61.4244 16.0669 61.4789 25.9701C61.4789 25.9701 60.2123 38.9518 61.7775 43.9265C62.0033 44.6443 62.4321 45.8719 62.4321 45.8719C63.8041 48.6631 66.0032 51.1182 68.8605 52.4696C71.0294 53.4954 72.1215 53.9597 75.3303 53.9597C77.4268 53.9597 79.2841 53.2989 81.4213 52.3175C83.9406 51.1606 86.8306 48.0932 87.8985 45.2926C90.8409 37.5764 86.7438 29.2749 78.8508 26.96C75.625 26.014 75.6908 25.9619 75.6908 29.4642V32.5235L77.2392 32.937C82.8207 34.4276 84.5238 41.8974 80.1422 45.7357C78.5941 47.0918 77.1992 47.6912 74.759 47.6912C72.1516 47.6912 69.6487 46.1154 68.362 43.6984C67.5891 42.2466 67.5239 40.8694 67.5239 40.2387C67.5239 34.4126 67.3975 23.9345 67.3975 23.9345L67.2931 5.96077L68.0944 5.76205C68.5351 5.65275 70.3164 5.3823 72.0528 5.16104C77.9418 4.41068 86.6542 6.33499 92.5074 9.67883C100.487 14.2376 106.525 22.069 109.039 31.1208C109.904 34.2344 110 35.1398 110 40.1485C110 45.1348 109.902 46.0701 109.055 49.1157C105.636 61.4182 96.9382 70.2128 84.5014 73.9427C81.884 74.7277 80.6578 74.8774 76.0392 74.9757C72.3121 75.0551 69.8964 74.9374 68.2451 74.596Z" fill="#C60C30"/>
</g>
<defs>
<clipPath id="clip0_602_4187">
<rect width="70" height="70" fill="white" transform="translate(40 5)"/>
</clipPath>
</defs>
</svg>
