<svg width="184" height="86" viewBox="0 0 184 86" fill="none" xmlns="http://www.w3.org/2000/svg">
<g clip-path="url(#clip0_602_4266)">
<path fill-rule="evenodd" clip-rule="evenodd" d="M68.8749 34.5849C71.0498 34.5652 73.3949 35.2481 75.0228 36.8054L73.5929 39.0713C72.4145 38.0728 70.6538 37.338 69.0403 37.3524C65.3919 37.3856 63.4977 40.0545 63.5255 43.1281C63.5534 46.2489 65.5668 49.0702 69.1687 49.0374C70.9458 49.0213 72.7156 48.1372 73.9671 46.882L75.5772 49.0501C74.1638 50.5175 72.0468 51.7805 69.0764 51.8072C63.861 51.8543 60.4594 48.107 60.4154 43.2032C60.3719 38.3697 63.8702 34.6303 68.8749 34.5849Z" fill="#1B1A1A"/>
<path fill-rule="evenodd" clip-rule="evenodd" d="M81.5913 49.4177C83.2519 49.4029 84.3124 47.7037 84.2993 46.2489L84.2963 45.9202L83.7819 45.925C82.285 45.9385 79.7611 46.1725 79.7763 47.8621C79.7837 48.6598 80.3986 49.4286 81.5913 49.4177ZM83.7401 43.8841L84.2545 43.8793L84.2532 43.7152C84.2392 42.143 83.2288 41.6125 81.989 41.6234C80.8198 41.6339 79.6313 42.1378 78.6783 42.8036L77.56 40.6782C78.5352 39.8714 80.4468 39.1737 82.224 39.1576C85.3345 39.1292 87.1979 40.8489 87.2249 43.8758L87.2923 51.3612L84.5325 51.3861L84.5234 50.3771C84.519 49.8842 84.5861 49.5083 84.5861 49.5083L84.5391 49.5088C83.8254 50.7823 82.4068 51.6869 80.7932 51.7013C78.6418 51.721 76.8515 50.3291 76.832 48.147C76.7998 44.5569 81.0974 43.9077 83.7401 43.8841Z" fill="#1B1A1A"/>
<path fill-rule="evenodd" clip-rule="evenodd" d="M90.1827 34.6736L93.1296 34.647L93.2419 47.1296C93.2537 48.4438 93.701 48.7686 94.4725 48.7616C94.5896 48.7603 94.7532 48.759 94.9168 48.7341L94.9403 51.3384C94.7297 51.3637 94.4029 51.4139 94.0052 51.4174C92.3681 51.4322 90.3298 51.0279 90.2989 47.6024L90.1827 34.6736Z" fill="#1B1A1A"/>
<path fill-rule="evenodd" clip-rule="evenodd" d="M96.9415 34.6131L99.8884 34.5864L100 47.0691C100.012 48.3832 100.46 48.708 101.231 48.701C101.348 48.6997 101.512 48.6984 101.676 48.6735L101.699 51.2778C101.489 51.3031 101.162 51.3533 100.764 51.3568C99.1269 51.3717 97.0886 50.9674 97.0577 47.5419L96.9415 34.6131Z" fill="#1B1A1A"/>
<path fill-rule="evenodd" clip-rule="evenodd" d="M104.35 41.7731L102.806 41.7871L102.785 39.4172L104.399 39.4028L104.368 35.9769L107.268 35.9507L107.298 39.3766L110.012 39.3517L110.033 41.7216L107.32 41.746L107.362 46.4158C107.38 48.3866 108.926 48.6542 109.745 48.6468C109.908 48.6455 110.048 48.6442 110.282 48.5953L110.305 51.1996C110.072 51.2253 109.791 51.2747 109.394 51.2782C107.733 51.2934 104.431 50.8302 104.395 46.8179L104.35 41.7731Z" fill="#1B1A1A"/>
<path fill-rule="evenodd" clip-rule="evenodd" d="M118.26 48.8279C120.201 48.8104 121.801 47.2941 121.781 45.0649C121.761 42.8592 120.134 41.3486 118.193 41.3665C116.251 41.384 114.675 42.9234 114.695 45.1291C114.715 47.3583 116.318 48.8453 118.26 48.8279ZM118.146 38.8323C121.795 38.7996 124.742 41.3777 124.774 45.0381C124.807 48.722 121.908 51.3294 118.282 51.3621C114.657 51.3949 111.711 48.8404 111.678 45.1564C111.645 41.496 114.545 38.8651 118.146 38.8323Z" fill="#1B1A1A"/>
<path fill-rule="evenodd" clip-rule="evenodd" d="M127.059 39.0335L130.029 39.0065L130.093 46.0928C130.106 47.5475 130.489 48.5299 131.963 48.5163C134.115 48.4971 135.29 46.5857 135.271 44.4503L135.222 38.9597L138.168 38.9331L138.276 50.8997L135.423 50.9254L135.41 49.5179C135.406 49.0721 135.473 48.6958 135.473 48.6958L135.426 48.6962C134.876 49.9217 133.343 51.2258 131.309 51.2446C128.736 51.2677 127.158 49.9911 127.129 46.7298L127.059 39.0335Z" fill="#1B1A1A"/>
<path fill-rule="evenodd" clip-rule="evenodd" d="M147.123 38.5701C148.737 38.5557 150.566 39.0787 151.723 40.3121L150.408 42.3654C149.653 41.6215 148.479 41.0923 147.309 41.1028C145.111 41.1229 143.699 42.8016 143.718 44.8431C143.736 46.861 145.178 48.5842 147.47 48.5637C148.733 48.5524 150.083 47.8831 150.965 47.0068L152.129 49.1082C151.017 50.3149 149.153 51.0829 147.236 51.1003C143.283 51.1357 140.732 48.3664 140.701 44.8937C140.671 41.4914 143.171 38.6059 147.123 38.5701Z" fill="#1B1A1A"/>
<path fill-rule="evenodd" clip-rule="evenodd" d="M154.146 34.0959L157.116 34.0688L157.169 39.8882C157.174 40.4745 157.108 40.8976 157.108 40.8976L157.154 40.8972C157.729 39.7424 159.214 38.4614 161.272 38.4431C163.915 38.4191 165.447 39.79 165.476 42.9574L165.545 50.6537L162.575 50.6808L162.511 43.5944C162.498 42.1397 162.115 41.1574 160.618 41.1709C158.537 41.1901 157.196 42.8915 157.216 45.1675L157.266 50.7288L154.296 50.7554L154.146 34.0959Z" fill="#1B1A1A"/>
<path fill-rule="evenodd" clip-rule="evenodd" d="M36.5461 40.493L46.9138 50.7089C51.6235 44.7677 51.6057 36.1908 46.6366 30.1851L36.5461 40.493Z" fill="#3DAFCC"/>
<path fill-rule="evenodd" clip-rule="evenodd" d="M29.9235 52.2098L34.1658 47.9535L38.4082 52.2098H29.9235ZM34.1358 42.9551L20.7403 56.6392C28.779 63.0916 40.1323 62.8659 47.8542 56.4729L34.1358 42.9551Z" fill="white"/>
<path fill-rule="evenodd" clip-rule="evenodd" d="M44.336 27.9179C37.9139 22.7806 28.5319 23.2455 22.6511 29.253C16.7704 35.2606 16.4762 44.6801 21.7116 51.0299L44.336 27.9179Z" fill="#3DAFCC"/>
</g>
<defs>
<clipPath id="clip0_602_4266">
<rect width="148" height="38" fill="white" transform="translate(18 24)"/>
</clipPath>
</defs>
</svg>
