<svg width="150" height="80" viewBox="0 0 150 80" fill="none" xmlns="http://www.w3.org/2000/svg">
<g clip-path="url(#clip0_602_4185)">
<path d="M103.349 15.6221L98.215 73.0981L75.1398 79.4918L52.1281 73.1071L47 15.6221H103.349Z" fill="#264DE4"/>
<path d="M93.8202 69.4382L98.2072 20.3223H75.1743V74.6047L93.8202 69.4382Z" fill="#2965F1"/>
<path d="M58.756 41.6431L59.3882 48.6933H75.1743V41.6431H58.756Z" fill="#EBEBEB"/>
<path d="M75.1743 27.373H75.1499H57.4856L58.1269 34.4234H75.1743V27.373Z" fill="#EBEBEB"/>
<path d="M75.1742 67.2884V59.9532L75.1433 59.9614L67.287 57.8412L66.7847 52.2183H62.9671H59.7034L60.6917 63.2883L75.1418 67.2975L75.1742 67.2884Z" fill="#EBEBEB"/>
<path d="M60.2612 0H68.8051V3.57091H63.8341V7.14183H68.8051V10.7127H60.2612V0Z" fill="black"/>
<path d="M70.5139 0H79.0578V3.10514H74.0868V3.72617H79.0578V10.868H70.5139V7.6076H75.4849V6.98657H70.5139V0Z" fill="black"/>
<path d="M80.7666 0H89.3105V3.10514H84.3395V3.72617H89.3105V10.868H80.7666V7.6076H85.7376V6.98657H80.7666V0Z" fill="black"/>
<path d="M83.8363 48.6933L83.0175 57.837L75.1498 59.9594V67.2943L89.6114 63.2885L89.7175 62.0974L91.3751 43.5363L91.5473 41.643L92.8208 27.373H75.1498V34.4234H85.0899L84.448 41.643H75.1498V48.6933H83.8363Z" fill="white"/>
</g>
<defs>
<clipPath id="clip0_602_4185">
<rect width="56.7742" height="80" fill="white" transform="translate(47)"/>
</clipPath>
</defs>
</svg>
