<svg width="150" height="80" viewBox="0 0 150 80" fill="none" xmlns="http://www.w3.org/2000/svg">
<g clip-path="url(#clip0_602_4186)">
<path d="M86.9181 31.3594C84.287 31.3594 82.3276 32.6741 82.3276 35.8381C82.3276 38.2219 83.619 39.8768 86.7766 39.8768C89.4528 39.8768 91.2704 38.2722 91.2704 35.7396C91.2704 32.8696 89.6438 31.3596 86.9181 31.3596V31.3594ZM81.6558 53.699C81.0332 54.4766 80.4128 55.3027 80.4128 56.2777C80.4128 58.2228 82.8505 58.8082 86.1991 58.8082C88.9732 58.8082 92.7517 58.6105 92.7517 55.9862C92.7517 54.4264 90.9339 54.3298 88.6369 54.1833L81.6556 53.699H81.6558ZM95.8122 31.5066C96.6717 32.6262 97.5817 34.1838 97.5817 36.4223C97.5817 41.8238 93.4206 44.9869 87.396 44.9869C85.8639 44.9869 84.4769 44.7927 83.6169 44.5498L82.0381 47.1285L86.7245 47.4199C94.9991 47.9563 99.8759 48.2001 99.8759 54.6702C99.8759 60.268 95.0466 63.4293 86.7245 63.4293C78.0683 63.4293 74.7685 61.1905 74.7685 57.3465C74.7685 55.1557 75.7252 53.9905 77.3991 52.3821C75.8203 51.703 75.295 50.4871 75.295 49.1726C75.295 48.1012 75.8203 47.1282 76.6825 46.2029C77.5431 45.2792 78.4993 44.3533 79.6473 43.283C77.3041 42.1153 75.5341 39.5847 75.5341 35.9831C75.5341 30.3874 79.1692 26.5444 86.4851 26.5444C88.542 26.5444 89.7862 26.7371 90.8862 27.0309H100.213V31.1662L95.8122 31.507" fill="#413000"/>
<path d="M108.631 22.6633C105.905 22.6633 104.327 21.056 104.327 18.2811C104.327 15.5097 105.905 14 108.631 14C111.405 14 112.984 15.5097 112.984 18.2811C112.984 21.0559 111.405 22.6633 108.631 22.6633ZM102.461 51.9079V48.0654L104.901 47.7258C105.571 47.627 105.666 47.4822 105.666 46.7505V32.4436C105.666 31.9094 105.523 31.5673 105.043 31.4224L102.461 30.497L102.987 26.5566H112.887V46.7509C112.887 47.5309 112.934 47.6274 113.653 47.7261L116.092 48.0658V51.9083H102.46" fill="#413000"/>
<path d="M135.004 50.0218C132.947 51.0425 129.935 51.9673 127.207 51.9673C121.516 51.9673 119.365 49.6336 119.365 44.1323V31.3834C119.365 31.092 119.365 30.8965 118.981 30.8965H115.633V26.5657C119.843 26.0777 121.516 23.9361 122.042 18.6318H126.586V25.5444C126.586 25.8838 126.586 26.0308 126.969 26.0308H133.712V30.8964H126.586V42.5266C126.586 45.3981 127.257 46.5165 129.838 46.5165C131.179 46.5165 132.564 46.1768 133.712 45.7385L135.005 50.0221" fill="#413000"/>
<path d="M64.1413 37.2508L42.2722 15.0012C41.0139 13.7197 38.9714 13.7197 37.7115 15.0012L33.1706 19.6221L38.9306 25.483C40.2697 25.023 41.8045 25.3314 42.8714 26.4172C43.9438 27.5097 44.2447 29.0848 43.7813 30.4519L49.3329 36.1007C50.676 35.6298 52.2256 35.9341 53.2981 37.0273C54.7975 38.5525 54.7975 41.0239 53.2981 42.5495C51.7985 44.0756 49.3696 44.0756 47.8691 42.5495C46.7417 41.4015 46.4629 39.7159 47.0339 38.3025L41.8564 33.0343L41.856 46.8975C42.2215 47.0816 42.5665 47.3274 42.8711 47.636C44.3701 49.161 44.3701 51.632 42.8711 53.1596C41.3718 54.6846 38.9418 54.6846 37.444 53.1596C35.9448 51.6322 35.9448 49.1612 37.444 47.636C37.8145 47.2597 38.2432 46.9748 38.7006 46.7839V32.7919C38.2429 32.6018 37.8148 32.3191 37.4437 31.9397C36.3082 30.7852 36.0347 29.0894 36.617 27.6705L30.9388 21.8919L15.945 37.148C14.6852 38.4305 14.6852 40.5088 15.945 41.7904L37.8128 64.0401C39.0718 65.3216 41.1136 65.3216 42.3744 64.0401L64.1411 41.8955C65.4005 40.6134 65.4005 38.5345 64.1411 37.2527" fill="#F05133"/>
</g>
<defs>
<clipPath id="clip0_602_4186">
<rect width="120" height="51" fill="white" transform="translate(15 14)"/>
</clipPath>
</defs>
</svg>
