<svg width="150" height="80" viewBox="0 0 150 80" fill="none" xmlns="http://www.w3.org/2000/svg">
<path d="M47.5413 56.4009L50.057 57.8784L78.0833 8.50003L75.5675 7.02249L47.5413 56.4009Z" fill="#E535AB"/>
<path d="M103.018 52.4565H46.9651V55.4116H103.018V52.4565Z" fill="#E535AB"/>
<path d="M48.0743 54.1169L76.111 70.5835L77.5635 68.0244L49.5268 51.5578L48.0743 54.1169Z" fill="#E535AB"/>
<path d="M72.4298 11.2004L100.467 27.667L101.919 25.1079L73.8823 8.6413L72.4298 11.2004Z" fill="#E535AB"/>
<path d="M48.0819 25.0967L49.5344 27.6558L77.5712 11.1892L76.1187 8.63006L48.0819 25.0967Z" fill="#E535AB"/>
<path d="M71.9232 8.50101L99.9495 57.8794L102.465 56.4019L74.4389 7.02347L71.9232 8.50101Z" fill="#E535AB"/>
<path d="M52.0925 23.1372H49.1875V56.0704H52.0925V23.1372Z" fill="#E535AB"/>
<path d="M100.813 23.1372H97.9076V56.0704H100.813V23.1372Z" fill="#E535AB"/>
<path d="M74.3476 67.0972L75.6163 69.3325L100.001 55.011L98.732 52.7757L74.3476 67.0972Z" fill="#E535AB"/>
<path d="M104.663 57.0314C102.983 60.0043 99.2376 61.019 96.3151 59.3101C93.3926 57.6011 92.3951 53.7915 94.0751 50.8186C95.7551 47.8458 99.5001 46.8311 102.423 48.54C105.363 50.2668 106.36 54.0586 104.663 57.0314Z" fill="#E535AB"/>
<path d="M55.9075 28.3884C54.2275 31.3613 50.4825 32.376 47.56 30.667C44.6375 28.958 43.64 25.1485 45.32 22.1756C47 19.2027 50.745 18.188 53.6675 19.897C56.59 21.6237 57.5875 25.4155 55.9075 28.3884Z" fill="#E535AB"/>
<path d="M45.3376 57.0314C43.6576 54.0586 44.6551 50.2668 47.5776 48.54C50.5001 46.8311 54.2276 47.8458 55.9251 50.8186C57.6051 53.7915 56.6076 57.5833 53.6851 59.3101C50.7451 61.019 47.0176 60.0043 45.3376 57.0314Z" fill="#E535AB"/>
<path d="M94.0926 28.3884C92.4126 25.4155 93.41 21.6237 96.3325 19.897C99.255 18.188 102.983 19.2027 104.68 22.1756C106.36 25.1485 105.363 28.9402 102.44 30.667C99.5175 32.376 95.7726 31.3613 94.0926 28.3884Z" fill="#E535AB"/>
<path d="M75 74.4588C71.6225 74.4588 68.8925 71.6817 68.8925 68.246C68.8925 64.8103 71.6225 62.0332 75 62.0332C78.3775 62.0332 81.1075 64.8103 81.1075 68.246C81.1075 71.6639 78.3775 74.4588 75 74.4588Z" fill="#E535AB"/>
<path d="M75 17.1732C71.6225 17.1732 68.8925 14.3961 68.8925 10.9604C68.8925 7.52463 71.6225 4.74756 75 4.74756C78.3775 4.74756 81.1075 7.52463 81.1075 10.9604C81.1075 14.3961 78.3775 17.1732 75 17.1732Z" fill="#E535AB"/>
</svg>
