<svg width="150" height="80" viewBox="0 0 150 80" fill="none" xmlns="http://www.w3.org/2000/svg">
<g clip-path="url(#clip0_602_4184)">
<path d="M51.7118 0H55.2576V3.5625H58.526V0H62.0718V10.7813H58.526V7.1875H55.2885V10.7813H51.7118M66.7585 3.59375H63.6289V0H73.4493V3.59375H70.3043V10.7813H66.7585M75.0064 0H78.7218L81.0035 3.79688L83.2851 0H87.0005V10.7813H83.4547V5.4375L80.9726 9.3125L78.4905 5.4375V10.7813H75.0064M88.758 0H92.3039V7.21875H97.3297V10.7813H88.758" fill="black"/>
<path d="M51.5884 73.5942L46.5009 15.7192H102.433L97.345 73.563L74.4204 80.0005" fill="#E44D26"/>
<path d="M74.4668 75.0781V20.4688H97.3297L92.9668 69.8438" fill="#F16529"/>
<path d="M56.8917 27.5469H74.4667V34.6406H64.5692L65.2167 41.9062H74.4667V48.9844H58.8034M59.1117 52.5469H66.1417L66.6351 58.2187L74.4667 60.3438V67.75L60.0984 63.6875" fill="#EBEBEB"/>
<path d="M91.9801 27.5469H74.4359V34.6406H91.3326M90.7005 41.9062H74.4359V49H83.0692L82.2522 58.2187L74.4359 60.3438V67.7187L88.7734 63.6875" fill="white"/>
</g>
<defs>
<clipPath id="clip0_602_4184">
<rect width="150" height="80" fill="white"/>
</clipPath>
</defs>
</svg>
