<svg width="150" height="80" viewBox="0 0 150 80" fill="none" xmlns="http://www.w3.org/2000/svg">
<g clip-path="url(#clip0_602_4195)">
<path d="M110 4.99951H40V74.9995H110V4.99951Z" fill="#F7DF1E"/>
<path d="M87.0223 59.6874C88.4323 61.9896 90.2667 63.6818 93.5112 63.6818C96.2367 63.6818 97.9778 62.3196 97.9778 60.4374C97.9778 58.1818 96.1889 57.3829 93.1889 56.0707L91.5445 55.3651C86.7978 53.3429 83.6445 50.8096 83.6445 45.454C83.6445 40.5207 87.4034 36.7651 93.2778 36.7651C97.46 36.7651 100.467 38.2207 102.633 42.0318L97.5112 45.3207C96.3834 43.2985 95.1667 42.5018 93.2778 42.5018C91.3512 42.5018 90.13 43.724 90.13 45.3207C90.13 47.294 91.3523 48.0929 94.1745 49.3151L95.8189 50.0196C101.408 52.4162 104.563 54.8596 104.563 60.3529C104.563 66.2751 99.9112 69.5196 93.6634 69.5196C87.5545 69.5196 83.6078 66.6085 81.6767 62.7929L87.0223 59.6874ZM63.7856 60.2574C64.8189 62.0907 65.7589 63.6407 68.0189 63.6407C70.18 63.6407 71.5434 62.7951 71.5434 59.5074V37.1407H78.1212V59.5962C78.1212 66.4074 74.1278 69.5074 68.2989 69.5074C63.0323 69.5074 59.9823 66.7818 58.4312 63.499L63.7856 60.2574Z" fill="black"/>
</g>
<defs>
<clipPath id="clip0_602_4195">
<rect width="70" height="70" fill="white" transform="translate(40 5)"/>
</clipPath>
</defs>
</svg>
