<svg width="150" height="80" viewBox="0 0 150 80" fill="none" xmlns="http://www.w3.org/2000/svg">
<g clip-path="url(#clip0_602_4192)">
<path fill-rule="evenodd" clip-rule="evenodd" d="M109.376 18.7649C109.402 18.8695 109.415 18.9775 109.415 19.0859V35.9415C109.415 36.1579 109.363 36.3704 109.264 36.5576C109.166 36.7448 109.024 36.9 108.853 37.0077L95.9791 45.1528V61.2971C95.9791 61.7365 95.7667 62.1421 95.42 62.3633L68.5467 79.3633C68.4852 79.4017 68.4181 79.4263 68.351 79.4524C68.3258 79.4616 68.302 79.4785 68.2755 79.4862C68.0876 79.5405 67.8901 79.5405 67.7023 79.4862C67.6715 79.477 67.6436 79.4585 67.6142 79.4462C67.5527 79.4217 67.4884 79.4001 67.4297 79.3633L40.562 62.3633C40.3913 62.2555 40.2495 62.1002 40.1508 61.9131C40.0522 61.7259 40.0001 61.5134 40 61.2971V10.7303C40 10.6197 40.014 10.5122 40.0391 10.4077C40.0475 10.3724 40.0671 10.3401 40.0783 10.3048C40.0993 10.2403 40.1188 10.1742 40.1496 10.1143C40.1706 10.0744 40.2013 10.0421 40.2265 10.0052C40.2586 9.95607 40.288 9.90537 40.3257 9.86236C40.3579 9.82702 40.3998 9.80091 40.4362 9.77018C40.4767 9.73331 40.5131 9.69337 40.5592 9.66418H40.5606L53.9951 1.16418C54.1652 1.05661 54.3581 1 54.5543 1C54.7506 1 54.9434 1.05661 55.1135 1.16418L68.5481 9.66418H68.5509C68.5956 9.69491 68.6333 9.73331 68.6739 9.76865C68.7102 9.79937 68.7508 9.82702 68.7829 9.86082C68.8221 9.90537 68.85 9.95607 68.8836 10.0052C68.9073 10.0421 68.9395 10.0744 68.9591 10.1143C68.9912 10.1757 69.0094 10.2403 69.0318 10.3048C69.0429 10.3401 69.0625 10.3724 69.0709 10.4093C69.0966 10.5139 69.1098 10.6219 69.1101 10.7303V42.3138L80.305 35.2302V19.0844C80.305 18.9769 80.319 18.8678 80.3442 18.7649C80.354 18.728 80.3721 18.6957 80.3833 18.6604C80.4057 18.5959 80.4253 18.5298 80.456 18.4699C80.477 18.43 80.5077 18.3977 80.5315 18.3608C80.5651 18.3117 80.593 18.261 80.6322 18.218C80.6643 18.1826 80.7049 18.1565 80.7412 18.1258C80.7831 18.0889 80.8195 18.049 80.8642 18.0198H80.8656L94.3016 9.51978C94.4716 9.41206 94.6645 9.35536 94.8608 9.35536C95.0571 9.35536 95.2499 9.41206 95.42 9.51978L108.854 18.0198C108.902 18.0505 108.938 18.0889 108.98 18.1242C109.015 18.155 109.056 18.1826 109.088 18.2164C109.127 18.261 109.155 18.3117 109.189 18.3608C109.214 18.3977 109.245 18.43 109.264 18.4699C109.296 18.5298 109.314 18.5959 109.337 18.6604C109.349 18.6957 109.368 18.728 109.376 18.7649ZM107.176 35.2302V21.2136L102.474 24.1878L95.9791 28.2972V42.3138L107.177 35.2302H107.176ZM93.741 60.5858V46.56L87.3522 50.5696L69.1087 62.0115V76.1694L93.741 60.5858ZM42.2396 12.858V60.5858L66.8691 76.1679V62.013L54.0021 54.0107L53.9979 54.0077L53.9923 54.0046C53.949 53.9769 53.9127 53.937 53.8721 53.9032C53.8372 53.8725 53.7966 53.8479 53.7659 53.8141L53.7631 53.8095C53.7267 53.7711 53.7016 53.7235 53.6708 53.6805C53.6428 53.639 53.6093 53.6036 53.5869 53.5606L53.5855 53.556C53.5604 53.5099 53.545 53.4546 53.5268 53.4024C53.5086 53.3563 53.4849 53.3133 53.4737 53.2641V53.2626C53.4597 53.2042 53.4569 53.1428 53.4513 53.0829C53.4457 53.0368 53.4345 52.9907 53.4345 52.9446V52.9415V19.9416L46.9409 15.8306L42.2396 12.8596V12.858ZM54.5557 3.64981L43.3621 10.7303L54.5529 17.8108L65.7451 10.7288L54.5529 3.64981H54.5557ZM60.3769 47.8381L66.8705 43.7302V12.858L62.1691 15.8322L55.6741 19.9416V50.8138L60.3769 47.8381ZM94.8608 12.0054L83.6686 19.0859L94.8608 26.1664L106.052 19.0844L94.8608 12.0054ZM93.741 28.2972L87.246 24.1878L82.5446 21.2136V35.2302L89.0382 39.3381L93.741 42.3138V28.2972ZM67.9875 59.8838L84.4039 49.5848L92.61 44.4384L81.4262 37.3625L68.5495 45.5092L56.8135 52.9338L67.9875 59.8838Z" fill="#FF2D20"/>
</g>
<defs>
<clipPath id="clip0_602_4192">
<rect width="70" height="78.5366" fill="white" transform="translate(40 1)"/>
</clipPath>
</defs>
</svg>
