<svg width="150" height="80" viewBox="0 0 150 80" fill="none" xmlns="http://www.w3.org/2000/svg">
<path d="M15.277 65.1785H19.2039V49.5378L25.2831 63.1728C26.0004 64.8229 26.9823 65.407 28.9079 65.407C30.8338 65.407 31.7777 64.8232 32.4954 63.1728L38.5746 49.5378V65.1782H42.5015V49.5634C42.5015 48.0398 41.8973 47.3036 40.6515 46.923C37.6685 45.9835 35.6671 46.7959 34.7607 48.8272L28.7948 62.2839L23.0178 48.8272C22.1493 46.7959 20.1103 45.9835 17.1273 46.923C15.8812 47.3036 15.277 48.0401 15.277 49.5631V65.1785ZM45.7668 52.4478H49.6925V61.0647C49.6558 61.5329 49.8414 62.6315 51.9927 62.6654C53.0901 62.683 60.4631 62.6654 60.5319 62.6654V52.4059H64.4668C64.4848 52.4059 64.4628 66.3974 64.4631 66.4569C64.4845 69.9076 60.2181 70.6571 58.2516 70.715H45.8518V68.0502C45.8738 68.0502 58.2424 68.053 58.2736 68.0499C60.801 67.7807 60.5025 66.5136 60.5022 66.0871V65.0483H52.1553C48.2718 65.0122 45.7992 63.3026 45.7686 61.3364C45.7655 61.1541 45.8524 52.5339 45.7665 52.4475L45.7668 52.4478Z" fill="#00618A"/>
<path d="M67.4932 65.1785H78.783C80.1046 65.1785 81.3884 64.8994 82.4082 64.4167C84.1071 63.6299 84.938 62.5637 84.938 61.1668V58.2725C84.938 57.1298 83.994 56.0633 82.1437 55.3527C81.1618 54.9715 79.9536 54.7685 78.783 54.7685H74.0249C72.4397 54.7685 71.6844 54.2861 71.4957 53.2199C71.4578 53.0928 71.4578 52.991 71.4578 52.8643V51.0618C71.4578 50.9601 71.4578 50.8583 71.4957 50.7315C71.6844 49.9191 72.1 49.6903 73.4968 49.5635C73.61 49.5635 73.761 49.5379 73.8745 49.5379H85.089V46.8978H74.0631C72.4773 46.8978 71.6465 46.9992 70.8915 47.2275C68.5503 47.964 67.5308 49.132 67.5308 51.163V53.4737C67.5308 55.2512 69.5322 56.7745 72.8926 57.1298C73.2705 57.1551 73.6479 57.1804 74.0252 57.1804H78.1032C78.2546 57.1804 78.4057 57.1804 78.5188 57.206C79.7649 57.3078 80.2933 57.536 80.6713 57.9931C80.8976 58.2214 80.9731 58.4502 80.9731 58.704V61.0142C80.9731 61.2939 80.7844 61.6495 80.4071 61.9539C80.067 62.2587 79.5007 62.4619 78.7454 62.5128C78.5943 62.5128 78.4812 62.5381 78.3301 62.5381H67.4929V65.1782L67.4932 65.1785ZM109.435 60.583C109.435 63.2996 111.437 64.8232 115.477 65.128C115.854 65.1532 116.232 65.1785 116.61 65.1785H126.843V62.5381H116.534C114.231 62.5381 113.362 61.9539 113.362 60.5577V46.8975H109.435V60.583ZM87.4442 60.7215V51.3073C87.4442 48.9158 89.1093 47.4653 92.4008 47.0073C92.7518 46.9567 93.1058 46.9313 93.4604 46.9311H100.914C101.293 46.9311 101.634 46.9567 102.012 47.0073C105.304 47.4653 106.968 48.9158 106.968 51.3073V60.7211C106.968 62.6612 106.261 63.6999 104.632 64.3766L108.5 67.8982H103.94L100.811 65.049L97.6604 65.2504H93.4604C92.7414 65.2504 91.9849 65.1483 91.1523 64.9195C88.6552 64.2326 87.4442 62.9094 87.4442 60.7211V60.7215ZM91.6825 60.4926C91.6825 60.62 91.7204 60.7471 91.7583 60.8997C91.9852 61.9937 93.0069 62.6044 94.5581 62.6044H98.1258L94.8486 59.6204H99.408L102.267 62.2229C102.793 61.9397 103.14 61.5067 103.261 60.9506C103.299 60.8235 103.299 60.6962 103.299 60.5691V51.5368C103.299 51.435 103.299 51.3077 103.261 51.1803C103.034 50.1625 102.012 49.5777 100.499 49.5777H94.5581C92.8179 49.5777 91.6828 50.341 91.6828 51.5368V60.4926H91.6825Z" fill="#E48E00"/>
<path d="M130.297 42.5174C127.883 42.4514 126.04 42.6778 124.463 43.3483C124.015 43.5389 123.301 43.5439 123.228 44.1101C123.474 44.3704 123.512 44.7591 123.708 45.0792C124.084 45.6936 124.72 46.5168 125.287 46.9486C125.906 47.4205 126.545 47.9248 127.209 48.3334C128.39 49.0598 129.709 49.4746 130.847 50.2025C131.517 50.6315 132.183 51.1719 132.837 51.6561C133.16 51.8954 133.378 52.2677 133.798 52.4179V52.3485C133.577 52.0651 133.52 51.6752 133.317 51.3791L132.425 50.4791C131.553 49.3111 130.445 48.2853 129.268 47.4331C128.329 46.7533 126.228 45.8355 125.836 44.7332L125.767 44.6638C126.433 44.5882 127.212 44.3452 127.827 44.1795C128.859 43.9001 129.781 43.9723 130.847 43.6947C131.327 43.5562 131.807 43.4174 132.288 43.2792V43.0023C131.749 42.4446 131.365 41.7069 130.777 41.2023C129.241 39.8822 127.563 38.5634 125.836 37.4638C124.878 36.8538 123.694 36.4574 122.679 35.9405C122.337 35.7669 121.737 35.6765 121.511 35.3866C120.978 34.701 120.688 33.8315 120.276 33.0327C119.415 31.3595 118.568 29.5317 117.805 27.7709C117.284 26.5705 116.944 25.3868 116.295 24.3094C113.179 19.1411 109.824 16.022 104.627 12.9556C103.521 12.3036 102.19 12.0458 100.783 11.7096L98.5178 11.5708C98.0569 11.3765 97.5775 10.8081 97.1448 10.5323C95.4232 9.43556 91.0075 7.04926 89.7324 10.1863C88.9272 12.1664 90.9357 14.0987 91.654 15.102C92.1582 15.8058 92.8038 16.5948 93.164 17.3865C93.401 17.9068 93.4419 18.4284 93.6447 18.9789C94.1437 20.3351 94.5773 21.8103 95.2232 23.0634C95.5495 23.6975 95.9091 24.3656 96.3216 24.9325C96.5745 25.2807 97.0078 25.434 97.0763 25.9712C96.6524 26.5696 96.6283 27.498 96.3901 28.2558C95.3174 31.6676 95.7219 35.9078 97.2824 38.4329C97.7612 39.208 98.889 40.8704 100.44 40.2329C101.796 39.6756 101.493 37.9487 101.881 36.4254C101.969 36.0799 101.915 35.8258 102.087 35.5945V35.6639L103.322 38.156C104.237 39.641 105.86 41.1933 107.235 42.2408C107.948 42.7839 108.509 43.7231 109.431 44.0407V43.9713H109.363C109.184 43.6907 108.905 43.5741 108.676 43.3483C108.139 42.8172 107.542 42.1569 107.098 41.5483C105.847 39.8356 104.742 37.9613 103.735 36.0099C103.254 35.0785 102.836 34.0502 102.43 33.1021C102.274 32.7366 102.276 32.1839 101.95 31.9942C101.506 32.6891 100.852 33.251 100.508 34.0715C99.9593 35.3829 99.8883 36.9821 99.685 38.6405C99.5645 38.684 99.6177 38.6541 99.5474 38.7096C98.5915 38.477 98.2554 37.4845 97.9004 36.6329C97.0014 34.4795 96.8347 31.0119 97.6252 28.533C97.83 27.8915 98.7547 25.8713 98.3805 25.2791C98.2019 24.6879 97.6123 24.3458 97.2824 23.8943C96.8741 23.3357 96.4665 22.6004 96.184 21.9555C95.4485 20.2765 95.1051 18.3917 94.3309 16.6944C93.9609 15.8829 93.3349 15.0619 92.8209 14.3405C92.2518 13.5416 91.6145 12.9525 91.1736 11.9862C91.0167 11.643 90.8036 11.0933 91.036 10.7402C91.1103 10.5021 91.2146 10.4025 91.4482 10.3248C91.8463 10.0154 92.9551 10.4278 93.3698 10.6017C94.4706 11.0628 95.3892 11.502 96.3216 12.1247C96.7692 12.4242 97.2218 13.0031 97.7628 13.1635H98.3805C99.3468 13.3874 100.429 13.2329 101.332 13.5096C102.928 13.9987 104.357 14.7593 105.656 15.5865C109.612 18.1061 112.847 21.6927 115.06 25.9712C115.416 26.66 115.57 27.3175 115.883 28.0482C116.516 29.5219 117.313 31.0381 117.942 32.479C118.57 33.9163 119.182 35.3675 120.07 36.5639C120.537 37.1927 122.34 37.5302 123.159 37.879C123.733 38.1239 124.674 38.3789 125.218 38.7096C126.257 39.3419 127.264 40.0944 128.238 40.7868C128.726 41.1329 130.223 41.8919 130.297 42.5174H130.297Z" fill="#00618A"/>
<path fill-rule="evenodd" clip-rule="evenodd" d="M99.6162 16.1405C99.1129 16.1313 98.7569 16.196 98.3805 16.2787V16.3481H98.4493C98.6893 16.8456 99.1129 17.1657 99.4101 17.5941C99.6387 18.0789 99.8676 18.5635 100.097 19.0481L100.165 18.979C100.59 18.6767 100.785 18.1934 100.783 17.456C100.612 17.2752 100.587 17.0482 100.44 16.8326C100.243 16.5452 99.8636 16.3823 99.6162 16.1405Z" fill="#00618A"/>
<path fill-rule="evenodd" clip-rule="evenodd" d="M128.686 62.4631C128.686 64.2069 130.052 65.382 131.58 65.382C133.108 65.382 134.474 64.2069 134.474 62.4631C134.474 60.7195 133.108 59.5444 131.58 59.5444C130.052 59.5444 128.686 60.7195 128.686 62.4631H128.686ZM133.826 62.4631C133.826 63.7862 132.823 64.775 131.58 64.775C130.322 64.775 129.334 63.7862 129.334 62.4631C129.334 61.1399 130.322 60.1511 131.58 60.1511C132.823 60.1511 133.826 61.1399 133.826 62.4631ZM132.36 64.1286H133.008L132.059 62.6657C132.568 62.6111 132.954 62.3619 132.954 61.7549C132.954 61.0776 132.529 60.7976 131.711 60.7976H130.423V64.1286H130.978V62.6888H131.495L132.36 64.1289V64.1286ZM130.978 62.2219V61.2645H131.619C131.951 61.2645 132.352 61.3268 132.352 61.7161C132.352 62.1827 131.989 62.2219 131.572 62.2219H130.978Z" fill="#E48E00"/>
</svg>
