<svg width="184" height="86" viewBox="0 0 184 86" fill="none" xmlns="http://www.w3.org/2000/svg">
<g clip-path="url(#clip0_602_4269)">
<path d="M83.5196 45.9862C79.2814 51.6095 75.6004 50.2297 72.641 44.6609C71.3896 45.9272 70.0332 47.0845 68.59 48.1284C65.4662 50.0754 62.1186 48.2509 61.913 44.5565C61.84 43.1904 61.913 41.8016 61.8491 40.4128C61.7212 39.9226 61.5111 39.4642 61.2234 39.0467C60.753 39.2827 60.0771 39.4007 59.8488 39.7819C59.3098 40.7804 58.844 41.8197 58.4649 42.8863C57.9123 44.2025 57.4237 45.5595 56.8391 46.8394C56.2408 48.1556 54.7794 48.8545 53.3682 48.5051C51.9661 48.3689 50.8974 47.1934 50.9111 45.791C50.8061 44.021 51.007 42.2282 50.9111 40.4491C50.7969 39.8636 50.6005 39.2917 50.3265 38.7607C49.847 39.1556 49.1574 39.4461 48.9108 39.9498C47.9745 41.9695 47.1388 44.1526 46.2025 46.2222C45.9194 46.9302 45.5266 47.5883 45.0334 48.1692C44.0286 49.3084 42.284 49.4264 41.1377 48.4279C40.6719 48.024 40.3567 47.4703 40.2426 46.8666C40.1558 46.5716 40.101 46.2721 40.0873 45.968C40.0873 41.8243 39.9503 37.6034 40.0233 33.4188C40.0599 32.3069 40.4252 31.2267 41.0646 30.3144C41.7314 29.4567 42.6676 28.8394 43.7226 28.5535C45.3256 28.1269 46.1203 28.8848 46.1934 30.6231C46.2573 31.9574 46.1934 33.3054 46.1934 34.6488L46.8921 34.8439C47.4036 34.3492 47.8695 33.8137 48.2896 33.2373C49.1665 31.8076 49.9246 30.2963 50.8015 28.8576C51.4363 27.555 52.9343 26.9151 54.3227 27.3462C55.6882 27.6594 56.5925 28.9574 56.4052 30.3371V34.8303L56.9989 35.0164C57.4191 34.6397 57.8164 34.2312 58.1772 33.7955C59.4286 32.316 60.5932 30.7501 61.8856 29.3114C62.4245 28.6987 63.1005 28.2176 63.854 27.9045C65.3657 27.1692 67.1834 27.791 67.9232 29.2933C68.2064 29.8651 68.2977 30.5096 68.1881 31.1359C67.978 34.1405 67.7908 37.1405 67.6264 40.145C67.6218 40.6896 67.6492 41.2388 67.7086 41.7789C69.9601 41.0573 71.6088 39.1329 71.9696 36.8091C72.1249 34.3311 72.4263 31.8666 72.8739 29.4249C73.1114 27.9453 74.3399 26.8152 75.8424 26.7017C77.1897 26.4249 78.5781 26.9559 79.3864 28.0678C80.2998 29.3704 80.3364 31.0905 79.4686 32.4249C78.2173 34.4945 78.2995 36.7411 78.5826 38.9559C78.7196 39.9272 79.2677 40.7895 80.0852 41.3387C81.2224 41.8878 82.1677 40.8939 82.6153 39.8999C83.4145 37.8666 84.1133 35.7925 84.6979 33.6866C85.1363 32.2252 85.3144 30.6821 85.7391 29.2343C86.3831 27.2146 87.8217 26.325 89.5526 26.729C91.384 27.1783 92.5623 28.9483 92.2608 30.8001C92.1375 31.8349 91.7311 32.7653 91.5712 33.7728C91.0688 36.8182 90.635 39.8727 90.1417 43.0905C92.4983 42.3553 94.3708 41.7244 96.2889 41.2161C97.1886 41.03 98.1112 40.9665 99.0292 41.0391C100.76 41.0391 101.573 41.8969 102.153 43.8439C104.057 49.9846 108.186 53.6609 114.571 54.7275C123.76 56.2706 132.51 48.0784 131.597 38.856C131.533 38.2433 131.45 37.6352 131.409 37.0225C131.039 35.3477 132.108 33.6911 133.793 33.3235C135.478 32.9559 137.145 34.0179 137.515 35.6927C137.556 35.8878 137.584 36.083 137.588 36.2827C138.849 44.67 136.191 51.6367 129.441 56.8016C120.142 63.8455 106.857 62.0618 99.769 52.8213C99.189 52.0633 98.6592 51.2645 98.1843 50.434C96.7548 47.9695 96.2981 47.8243 93.704 49.0588C93.5716 49.1359 93.43 49.204 93.2884 49.2675C90.6944 50.2297 89.7261 52.0406 89.4841 54.8273C89.1416 59.2388 88.4428 63.6185 87.4015 67.9256C86.004 73.4219 82.6199 74.3977 78.0255 71.03C72.3487 66.9181 71.3074 60.5641 75.6506 55.1677C77.5277 53.0119 79.6467 51.0784 81.9759 49.4128C83.1725 48.7229 83.7936 47.3432 83.5196 45.9862ZM83.0903 56.2796L82.4463 55.9983C81.5558 57.1828 80.7337 58.4173 79.9893 59.6927C79.3773 60.9317 79.6604 62.4249 80.688 63.3598C81.3548 64.0724 82.0444 64.2721 82.2317 63.0058C82.5696 60.732 82.7706 58.5262 83.0903 56.2796Z" fill="#FF2D39"/>
<path d="M126.924 23.0212C126.66 20.8472 127.568 18.6959 129.308 17.357C130.601 16.2088 131.756 14.8835 133.04 13.7126C133.519 13.3949 134.049 13.1543 134.602 13C134.83 13.4766 134.99 13.9803 135.081 14.5023C135.145 16.3359 135.131 18.1694 135.081 20.0121C135.081 21.2965 135.652 21.8638 136.944 21.8548H142.635C143.11 21.9365 143.571 22.0908 144 22.3086C143.877 22.8215 143.672 23.3071 143.384 23.7474C141.872 25.3404 140.26 26.8517 138.726 28.4176C137.671 29.5113 136.145 30.0197 134.643 29.7746C132.542 29.4569 130.436 30.3192 129.171 32.0212C127.555 33.8638 125.659 35.4569 123.96 37.2496C123.481 37.7897 123.221 38.4887 123.221 39.2058C123.49 42.7776 120.791 45.8865 117.201 46.1498C113.607 46.4176 110.479 43.7353 110.214 40.1679C110.195 39.9455 110.191 39.7186 110.2 39.4962C110.323 35.9834 113.292 33.233 116.827 33.3555C117.005 33.3601 117.188 33.3737 117.366 33.3964C118.27 33.5461 119.192 33.2148 119.795 32.525C121.535 30.7232 123.285 28.9213 125.162 27.2557C126.527 26.0983 127.363 24.8548 126.924 23.0212Z" fill="#FF2D39"/>
<path d="M97.5951 30.9409C97.7732 30.3918 97.997 29.8608 98.2619 29.3479C102.774 21.6278 111.675 17.5431 120.517 19.1406C122.673 19.5536 123.892 21.006 123.581 22.8078C123.271 24.6096 121.631 25.6853 119.412 25.2813C113.333 24.1739 107.19 26.8698 103.92 32.0847C103.651 32.5794 103.336 33.0468 102.984 33.4825C102.121 34.4946 100.682 34.8078 99.4721 34.2405C98.2299 33.7185 97.5722 32.7155 97.5951 30.9409Z" fill="#FF2D39"/>
</g>
<defs>
<clipPath id="clip0_602_4269">
<rect width="104" height="60" fill="white" transform="translate(40 13)"/>
</clipPath>
</defs>
</svg>
