<svg width="150" height="80" viewBox="0 0 150 80" fill="none" xmlns="http://www.w3.org/2000/svg">
<g clip-path="url(#clip0_602_4199)">
<path d="M48.6436 25.7896H67.4644V27.2807H50.3689V38.5033H66.4449V39.9944H50.3689V52.3157H67.6604V53.8068H48.6436V25.7896ZM69.1504 25.7896H71.1501L80.0115 38.1109L89.069 25.7896L101.389 10.1387L81.1486 39.4058L91.5785 53.8068H89.5003L80.0115 40.7007L70.4835 53.8068H68.4446L78.9529 39.4058L69.1504 25.7896ZM92.3235 27.2807V25.7896H113.771V27.2807H103.89V53.8068H102.165V27.2807H92.3235Z" fill="black"/>
<path d="M25.0981 25.7896H27.2546L56.9921 70.1465L44.703 53.8068L26.9017 27.9085L26.8233 53.8068H25.0981V25.7896Z" fill="black"/>
<path d="M113.597 51.8654C113.954 51.8654 114.214 51.5931 114.214 51.2413C114.214 50.8895 113.954 50.6173 113.597 50.6173C113.245 50.6173 112.981 50.8895 112.981 51.2413C112.981 51.5931 113.245 51.8654 113.597 51.8654ZM115.293 50.2236C115.293 51.2623 116.044 51.9407 117.139 51.9407C118.306 51.9407 119.01 51.2413 119.01 50.0267V45.7506H118.071V50.0226C118.071 50.6969 117.731 51.057 117.131 51.057C116.593 51.057 116.228 50.722 116.216 50.2236H115.293ZM120.24 50.1691C120.307 51.2497 121.209 51.9407 122.552 51.9407C123.987 51.9407 124.885 51.2162 124.885 50.0602C124.885 49.1514 124.373 48.6488 123.131 48.3598L122.464 48.1965C121.675 48.0122 121.356 47.7651 121.356 47.3337C121.356 46.7893 121.851 46.4333 122.594 46.4333C123.299 46.4333 123.786 46.7809 123.874 47.3379H124.789C124.734 46.3202 123.836 45.604 122.607 45.604C121.285 45.604 120.404 46.3202 120.404 47.3966C120.404 48.2844 120.903 48.8122 121.998 49.0676L122.779 49.2561C123.58 49.4446 123.933 49.721 123.933 50.1817C123.933 50.7178 123.379 51.1073 122.623 51.1073C121.814 51.1073 121.251 50.7429 121.172 50.1691H120.24Z" fill="black"/>
</g>
<defs>
<clipPath id="clip0_602_4199">
<rect width="100" height="60" fill="white" transform="translate(25 10)"/>
</clipPath>
</defs>
</svg>
