<svg width="150" height="80" viewBox="0 0 150 80" fill="none" xmlns="http://www.w3.org/2000/svg">
<g clip-path="url(#clip0_602_4183)">
<path d="M74.3345 75.0441C73.9516 75.0441 73.5714 74.9436 73.2357 74.7504L69.7385 72.6799C69.2161 72.3877 69.471 72.2844 69.6433 72.2249C70.3397 71.981 70.4811 71.926 71.2245 71.5038C71.3026 71.4592 71.4049 71.4749 71.4849 71.5221L74.1716 73.1165C74.2686 73.1689 74.4063 73.1689 74.4962 73.1165L84.9721 67.0696C85.0691 67.0145 85.132 66.9018 85.132 66.7864V54.6979C85.132 54.5773 85.0691 54.4698 84.97 54.4095L74.4983 48.3678C74.4013 48.3101 74.2728 48.3101 74.1758 48.3678L63.7063 54.4095C63.6048 54.4671 63.5403 54.5799 63.5403 54.6953V66.7838C63.5403 66.8991 63.6032 67.0093 63.7029 67.0643L66.5716 68.7216C68.1292 69.5004 69.0811 68.5826 69.0811 67.6596V55.7284C69.0811 55.558 69.2148 55.4269 69.3852 55.4269H70.7121C70.8773 55.4269 71.0137 55.558 71.0137 55.7284V67.6648C71.0137 69.7416 69.8808 70.9348 67.9116 70.9348C67.3058 70.9348 66.8286 70.9348 65.4965 70.2792L62.7484 68.6954C62.4143 68.5004 62.137 68.2214 61.9443 67.886C61.7515 67.5506 61.6499 67.1706 61.6497 66.7838V54.6953C61.6497 53.9086 62.0692 53.1744 62.7484 52.7863L73.2347 46.7368C73.8981 46.3618 74.7792 46.3618 75.4374 46.7368L85.9106 52.7889C86.2446 52.9833 86.5219 53.2618 86.7147 53.5968C86.9075 53.9317 87.009 54.3114 87.0093 54.6979V66.7864C87.0093 67.5704 86.5871 68.302 85.9106 68.6954L75.4374 74.7449C75.1016 74.9382 74.7208 75.0395 74.3334 75.0386" fill="#689F63"/>
<path d="M77.5703 66.7141C72.9867 66.7141 72.0256 64.61 72.0256 62.8453C72.0256 62.6774 72.1609 62.5437 72.329 62.5437H73.6821C73.8316 62.5437 73.9574 62.6525 73.981 62.8002C74.1856 64.1789 74.7939 64.8743 77.5656 64.8743C79.7735 64.8743 80.7123 64.3756 80.7123 63.2048C80.7123 62.5309 80.4448 62.03 77.015 61.6944C74.1462 61.4112 72.3736 60.7792 72.3736 58.4847C72.3736 56.3712 74.1567 55.1126 77.1434 55.1126C80.4973 55.1126 82.1598 56.2768 82.3696 58.7784C82.373 58.8205 82.3678 58.8628 82.3541 58.9027C82.3403 58.9427 82.3185 58.9793 82.2899 59.0103C82.2613 59.0414 82.2266 59.0662 82.188 59.0831C82.1493 59.1001 82.1076 59.1088 82.0654 59.1088H80.7044C80.5628 59.1088 80.4396 59.0092 80.4107 58.8728C80.083 57.4227 79.2911 56.9586 77.1382 56.9586C74.7284 56.9586 74.4478 57.7977 74.4478 58.4271C74.4478 59.1901 74.7782 59.413 78.0298 59.8431C81.2499 60.2705 82.7786 60.8736 82.7786 63.1366C82.7786 65.4179 80.8749 66.7264 77.5551 66.7264M90.3149 53.9063H90.6663C90.9547 53.9063 91.0098 53.7044 91.0098 53.5864C91.0098 53.277 90.7974 53.277 90.6794 53.277H90.3175L90.3149 53.9063ZM89.8875 52.9151H90.6663C90.9338 52.9151 91.4582 52.9151 91.4582 53.513C91.4582 53.9299 91.1907 54.0165 91.0308 54.0689C91.3428 54.0899 91.3638 54.2944 91.4058 54.5829C91.4267 54.7638 91.4608 55.0758 91.5238 55.1807H91.0439C91.0308 55.0758 90.9574 54.499 90.9574 54.4675C90.9259 54.339 90.8813 54.2761 90.7214 54.2761H90.3254V55.1834H89.8875V52.9151ZM88.9514 54.0427C88.9514 54.9814 89.7092 55.7419 90.6401 55.7419C91.5788 55.7419 92.3367 54.9657 92.3367 54.0427C92.3367 53.1013 91.5683 52.354 90.6375 52.354C89.7197 52.354 88.9487 53.0908 88.9487 54.0401M92.6618 54.0479C92.6618 55.1598 91.7519 56.067 90.6427 56.067C89.5414 56.067 88.6236 55.1702 88.6236 54.0479C88.6236 52.9046 89.5623 52.0288 90.6427 52.0288C91.7309 52.0288 92.6592 52.9073 92.6592 54.0479" fill="#689F63"/>
<path fill-rule="evenodd" clip-rule="evenodd" d="M41.8947 27.7443C41.8947 27.2618 41.6403 26.8186 41.2239 26.5787L30.1172 20.1883C29.9314 20.08 29.7216 20.0197 29.5067 20.0126H29.3919C29.1789 20.0205 28.9689 20.0782 28.7783 20.1883L17.6721 26.5787C17.4679 26.6975 17.2984 26.8678 17.1805 27.0725C17.0626 27.2773 17.0005 27.5093 17.0002 27.7456L17.0246 44.9579C17.0246 45.1965 17.1479 45.4194 17.3577 45.5374C17.5622 45.6633 17.8192 45.6633 18.0237 45.5374L24.6265 41.7562C25.0434 41.5081 25.2978 41.0697 25.2978 40.5919V32.5508C25.2973 32.3154 25.359 32.0839 25.4766 31.88C25.5943 31.676 25.7637 31.5067 25.9678 31.3892L28.7788 29.7702C28.9827 29.6518 29.2143 29.5895 29.4501 29.5898C29.6798 29.5898 29.9142 29.6491 30.1172 29.7699L32.9269 31.3884C33.3428 31.627 33.5982 32.0702 33.5982 32.55V40.5906C33.5982 41.0678 33.856 41.5084 34.2708 41.7549L40.8694 45.5335C40.9709 45.594 41.0869 45.6259 41.205 45.6259C41.3232 45.6259 41.4392 45.594 41.5407 45.5335C41.6417 45.4742 41.7255 45.3895 41.7839 45.2879C41.8422 45.1863 41.873 45.0712 41.8732 44.954L41.8947 27.7443ZM94.3047 36.706C94.3047 36.8258 94.241 36.9368 94.1369 36.996L90.3221 39.195C90.2711 39.2243 90.2134 39.2397 90.1546 39.2397C90.0959 39.2397 90.0382 39.2243 89.9872 39.195L86.1719 36.996C86.067 36.9365 86.004 36.8256 86.004 36.706V32.3017C86.004 32.1816 86.067 32.071 86.1692 32.0106L89.982 29.808C90.0869 29.7477 90.2153 29.7477 90.3202 29.808L94.1356 32.0106C94.2405 32.071 94.3034 32.1816 94.3034 32.3017L94.3047 36.706ZM95.3353 4.08492C95.233 4.02805 95.1177 3.9988 95.0008 4.00004C94.8838 4.00128 94.7692 4.03297 94.6682 4.092C94.4636 4.21262 94.3372 4.43289 94.3372 4.67151V21.716C94.3374 21.7984 94.3158 21.8794 94.2746 21.9508C94.2335 22.0222 94.1742 22.0815 94.1029 22.1227C94.0315 22.164 93.9505 22.1856 93.8681 22.1856C93.7857 22.1855 93.7047 22.1638 93.6334 22.1225L90.8512 20.52C90.6475 20.4023 90.4163 20.3403 90.181 20.3403C89.9457 20.3403 89.7145 20.4023 89.5107 20.52L78.4003 26.9322C78.1965 27.0494 78.0272 27.2182 77.9093 27.4217C77.7915 27.6251 77.7293 27.8561 77.7291 28.0912V40.9192C77.7291 41.399 77.9852 41.8396 78.4003 42.0808L89.5107 48.4974C89.9256 48.736 90.4364 48.736 90.8525 48.4974L101.963 42.0782C102.377 41.8369 102.634 41.3964 102.634 40.9165V8.94627C102.634 8.70723 102.57 8.47262 102.449 8.26659C102.327 8.06057 102.153 7.89058 101.945 7.77413L95.3353 4.08492ZM132.333 32.1858C132.536 32.0678 132.704 31.8985 132.821 31.6951C132.938 31.4916 133 31.261 133 31.0263V27.9173C133 27.439 132.746 26.9977 132.332 26.757L121.292 20.3483C121.088 20.2298 120.856 20.1673 120.62 20.1673C120.384 20.1673 120.152 20.2298 119.947 20.3483L108.839 26.7596C108.423 27.0009 108.168 27.4414 108.168 27.9213V40.744C108.168 41.2265 108.428 41.6723 108.845 41.9109L119.882 48.2016C120.288 48.435 120.786 48.4376 121.198 48.2095L127.874 44.499C128.084 44.381 128.218 44.1581 128.218 43.9169C128.218 43.6757 128.089 43.4501 127.88 43.3321L116.704 36.9182C116.494 36.8002 116.365 36.5773 116.365 36.3386V32.3161C116.365 32.0759 116.491 31.8546 116.701 31.735L120.178 29.729C120.385 29.6084 120.64 29.6084 120.847 29.729L124.326 31.735C124.534 31.853 124.662 32.0759 124.662 32.3146V35.477C124.662 35.7156 124.791 35.9385 124.998 36.0591C125.205 36.1771 125.462 36.1771 125.669 36.0565L132.333 32.1858Z" fill="#333333"/>
<path fill-rule="evenodd" clip-rule="evenodd" d="M120.457 31.5856C120.496 31.5628 120.541 31.5508 120.586 31.5508C120.631 31.5508 120.675 31.5628 120.714 31.5856L122.846 32.8154C122.926 32.8616 122.975 32.9466 122.975 33.0383V35.5006C122.975 35.5924 122.926 35.6774 122.846 35.7235L120.714 36.9533C120.675 36.9761 120.631 36.9882 120.586 36.9882C120.541 36.9882 120.496 36.9761 120.457 36.9533L118.327 35.7235C118.287 35.7013 118.254 35.6689 118.231 35.6298C118.208 35.5906 118.196 35.546 118.196 35.5006V33.0383C118.196 32.9466 118.243 32.8616 118.324 32.8154L120.457 31.5856Z" fill="#689F63"/>
<mask id="mask0_602_4183" style="mask-type:alpha" maskUnits="userSpaceOnUse" x="46" y="19" width="28" height="32">
<path fill-rule="evenodd" clip-rule="evenodd" d="M59.451 19.8821C59.6698 19.754 59.9188 19.6865 60.1723 19.6865C60.4258 19.6865 60.6747 19.754 60.8935 19.8821L72.8599 26.7875C73.3074 27.0466 73.5811 27.5236 73.5811 28.039V41.8643C73.5811 42.3797 73.3074 42.8567 72.8599 43.1159L60.8935 50.0212C60.6747 50.1493 60.4258 50.2168 60.1723 50.2168C59.9188 50.2168 59.6698 50.1493 59.451 50.0212L47.4919 43.1159C47.2695 42.991 47.0842 42.8094 46.9549 42.5896C46.8256 42.3697 46.757 42.1194 46.756 41.8643V28.039C46.756 27.5236 47.021 27.0466 47.4772 26.7875L59.451 19.8821Z" fill="#689F63"/>
</mask>
<g mask="url(#mask0_602_4183)">
<path d="M46.756 19.2417V50.2166H73.5811V19.2417H46.756Z" fill="url(#paint0_linear_602_4183)"/>
<path d="M61.2002 17.771L46.0303 44.7769L59.3382 52.2523L74.5081 25.2464L61.2002 17.771Z" fill="url(#paint1_linear_602_4183)"/>
<path d="M45.5435 25.4995L61.4727 52.0646L74.5633 44.2151L58.6341 17.65L45.5435 25.4995Z" fill="url(#paint2_linear_602_4183)"/>
</g>
</g>
<defs>
<linearGradient id="paint0_linear_602_4183" x1="46.765" y1="34.73" x2="73.5862" y2="34.73" gradientUnits="userSpaceOnUse">
<stop offset="0.16" stop-color="#58A14A"/>
<stop offset="0.38" stop-color="#79B461"/>
<stop offset="0.47" stop-color="#75AC64"/>
<stop offset="0.7" stop-color="#659E5A"/>
<stop offset="0.9" stop-color="#4C8E48"/>
</linearGradient>
<linearGradient id="paint1_linear_602_4183" x1="75.8041" y1="27.3193" x2="48.6826" y2="41.4729" gradientUnits="userSpaceOnUse">
<stop offset="0.16" stop-color="#6BA15D"/>
<stop offset="0.574981" stop-color="#79B461"/>
<stop offset="0.9" stop-color="#3E863D"/>
</linearGradient>
<linearGradient id="paint2_linear_602_4183" x1="47.9448" y1="28.5377" x2="74.4504" y2="42.8465" gradientUnits="userSpaceOnUse">
<stop offset="0.0257143" stop-color="#6BBF47"/>
<stop offset="0.551697" stop-color="#72A962"/>
<stop offset="0.9" stop-color="#3E863D"/>
</linearGradient>
<clipPath id="clip0_602_4183">
<rect width="116" height="71.0439" fill="white" transform="translate(17 4)"/>
</clipPath>
</defs>
</svg>
