<svg width="184" height="86" viewBox="0 0 184 86" fill="none" xmlns="http://www.w3.org/2000/svg">
<g clip-path="url(#clip0_602_4268)">
<path d="M125 66.3418C125 71.6761 120.698 76 115.391 76H68.6089C63.302 76 59 71.6761 59 66.3418V19.6582C59 14.3241 63.302 10 68.6089 10H115.391C120.698 10 125 14.3241 125 19.6582V66.3418Z" fill="#FAAB62"/>
<path d="M124.661 66.102C124.661 71.3812 120.403 75.6608 115.151 75.6608H68.8491C63.5967 75.6608 59.339 71.3812 59.339 66.102V19.8977C59.339 14.6185 63.5969 10.3389 68.8491 10.3389H115.151C120.403 10.3389 124.661 14.6186 124.661 19.8977V66.102Z" fill="#F7931E"/>
<path d="M91.9627 19.8643C85.4216 19.8643 80.1191 25.1941 80.1191 31.7686C80.1191 38.3433 85.4216 43.6735 91.9627 43.6735C98.5039 43.6735 103.806 38.3433 103.806 31.7686C103.806 25.1941 98.5039 19.8643 91.9627 19.8643ZM91.9627 36.6899C89.2589 36.6899 87.0669 34.4865 87.0669 31.7688C87.0669 29.051 89.2589 26.8478 91.9627 26.8478C94.6666 26.8478 96.8586 29.051 96.8586 31.7688C96.8586 34.4865 94.6666 36.6899 91.9627 36.6899Z" fill="white"/>
<path d="M96.1442 53.1454C100.886 52.1745 103.727 49.9176 103.877 49.7965C105.265 48.678 105.488 46.6409 104.375 45.2462C103.262 43.8516 101.236 43.6276 99.848 44.7458C99.8187 44.7697 96.7882 47.1063 91.802 47.1097C86.8159 47.1063 83.7214 44.7697 83.6921 44.7458C82.3043 43.6276 80.2777 43.8516 79.1652 45.2462C78.0525 46.6409 78.2754 48.678 79.6628 49.7965C79.8152 49.9193 82.7738 52.235 87.6481 53.183L80.8548 60.319C79.6203 61.6059 79.6574 63.655 80.9377 64.8959C81.5626 65.5015 82.368 65.8025 83.1728 65.8025C84.0165 65.8025 84.8594 65.4712 85.4912 64.8124L91.8022 58.0551L98.7506 64.8562C100.01 66.1196 102.048 66.1175 103.305 64.8526C104.561 63.5875 104.56 61.5381 103.301 60.2751L96.1442 53.1454Z" fill="white"/>
<path d="M91.8022 47.1094C91.7936 47.1094 91.8106 47.1096 91.8022 47.1097C91.7938 47.1096 91.8108 47.1094 91.8022 47.1094Z" fill="white"/>
</g>
<defs>
<clipPath id="clip0_602_4268">
<rect width="66" height="66" fill="white" transform="translate(59 10)"/>
</clipPath>
</defs>
</svg>
