<svg width="150" height="80" viewBox="0 0 150 80" fill="none" xmlns="http://www.w3.org/2000/svg">
<path d="M16.6873 40.0393C16.6873 56.8112 42.7953 70.4077 74.9999 70.4077C107.204 70.4077 133.313 56.8112 133.313 40.0393C133.313 23.2677 107.204 9.67092 74.9999 9.67092C42.7953 9.67092 16.6873 23.2677 16.6873 40.0393Z" fill="url(#paint0_radial_602_4191)"/>
<path d="M75 68.1528C105.947 68.1528 131.035 55.5659 131.035 40.0391C131.035 24.5126 105.947 11.9254 75 11.9254C44.0533 11.9254 18.9652 24.5126 18.9652 40.0391C18.9652 55.5659 44.0533 68.1528 75 68.1528Z" fill="#777BB3"/>
<path d="M48.3691 43.5248C50.9138 43.5248 52.8134 43.0603 54.0154 42.1444C55.2045 41.238 56.0258 39.6676 56.4563 37.477C56.8577 35.4295 56.7048 33.9998 56.002 33.2283C55.2834 32.4402 53.7299 32.0406 51.3845 32.0406H47.318L45.0635 43.5248H48.3691ZM35.0685 57.6714C34.8797 57.6714 34.7004 57.5879 34.5804 57.4434C34.4602 57.2991 34.4115 57.1091 34.4476 56.9255L40.4222 26.492C40.48 26.1978 40.7405 25.9852 41.0434 25.9852H53.9203C57.9673 25.9852 60.9795 27.0731 62.8728 29.219C64.7763 31.3761 65.3641 34.3915 64.6198 38.1811C64.3169 39.725 63.796 41.1589 63.0715 42.4426C62.3462 43.7278 61.3876 44.9169 60.2219 45.9777C58.8265 47.2706 57.2472 48.2081 55.5321 48.7598C53.8442 49.3042 51.6764 49.5802 49.0892 49.5802H43.8751L42.386 57.1644C42.3282 57.4588 42.068 57.6714 41.7651 57.6714H35.0685Z" fill="black"/>
<path d="M47.8396 32.667H51.3846C54.2152 32.667 55.1985 33.282 55.5326 33.6484C56.0869 34.2569 56.1915 35.5398 55.8353 37.3583C55.4349 39.3941 54.693 40.8376 53.6295 41.6482C52.5408 42.4779 50.7709 42.8985 48.3692 42.8985H45.8311L47.8396 32.667ZM53.9204 25.3589H41.0432C40.4375 25.3589 39.9168 25.784 39.8012 26.3726L33.8265 56.8061C33.7544 57.1734 33.8518 57.5533 34.092 57.842C34.3325 58.1308 34.6906 58.2979 35.0686 58.2979H41.765C42.3709 58.2979 42.8917 57.8727 43.0072 57.2841L44.3967 50.2067H49.0893C51.7429 50.2067 53.9769 49.9202 55.7285 49.3554C57.5299 48.7759 59.1873 47.7935 60.6541 46.4354C61.8673 45.3304 62.8666 44.0901 63.6238 42.7486C64.3811 41.4066 64.9253 39.9101 65.241 38.3006C66.0246 34.3116 65.388 31.1173 63.3494 28.8071C61.3305 26.519 58.158 25.3589 53.9204 25.3589ZM44.2959 44.1513H48.3692C51.0691 44.1513 53.0801 43.6479 54.4015 42.6408C55.723 41.6335 56.6144 39.9524 57.0775 37.5967C57.5206 35.3349 57.3188 33.7388 56.472 32.809C55.6241 31.8792 53.9286 31.4142 51.3846 31.4142H46.7965L44.2959 44.1513ZM53.9204 26.6117C57.7942 26.6117 60.6202 27.6181 62.3965 29.6312C64.1726 31.6443 64.7074 34.4542 63.9988 38.0617C63.7071 39.5478 63.2138 40.9065 62.5192 42.1374C61.8239 43.3691 60.9159 44.4954 59.7938 45.5167C58.4567 46.7555 56.9712 47.6384 55.3367 48.1641C53.7021 48.6914 51.6202 48.9538 49.0893 48.9538H43.3533L41.765 57.045H35.0686L41.0432 26.6117H53.9204Z" fill="white"/>
<path d="M79.9738 49.5806C79.7849 49.5806 79.6058 49.497 79.4858 49.3526C79.3654 49.2083 79.3166 49.0185 79.3527 48.8347L81.9956 35.3691C82.247 34.0885 82.185 33.1693 81.8212 32.7809C81.5985 32.5435 80.9295 32.1453 78.9513 32.1453H74.1632L70.8403 49.0736C70.7826 49.368 70.5221 49.5806 70.2192 49.5806H63.5755C63.3865 49.5806 63.2075 49.497 63.0873 49.3526C62.967 49.2083 62.9183 49.0183 62.9544 48.8347L68.9291 18.4012C68.9869 18.107 69.2473 17.8944 69.5502 17.8944H76.1939C76.3829 17.8944 76.5619 17.9779 76.6821 18.1222C76.8024 18.2667 76.8511 18.4565 76.815 18.6403L75.3732 25.9856H80.5241C84.4481 25.9856 87.1089 26.6705 88.6587 28.0795C90.2384 29.5169 90.7313 31.8152 90.1239 34.9114L87.3441 49.0736C87.2863 49.368 87.0261 49.5806 86.723 49.5806H79.9738Z" fill="black"/>
<path d="M76.194 17.2675H69.5503C68.9443 17.2675 68.4236 17.6927 68.308 18.2813L62.3333 48.7148C62.2612 49.0821 62.3586 49.4619 62.5991 49.7507C62.8395 50.0395 63.1976 50.2065 63.5756 50.2065H70.2193C70.825 50.2065 71.346 49.7814 71.4616 49.1928L74.6849 32.7713H78.9514C80.9262 32.7713 81.3406 33.1889 81.3573 33.2069C81.4771 33.3345 81.6346 33.9254 81.3746 35.2492L78.7316 48.7148C78.6595 49.0821 78.757 49.4619 78.9974 49.7507C79.2378 50.0395 79.596 50.2065 79.9739 50.2065H86.7231C87.3288 50.2065 87.8497 49.7814 87.9653 49.1928L90.7449 35.0306C91.3973 31.7062 90.8392 29.2124 89.0869 27.618C87.4148 26.0977 84.6139 25.3587 80.5242 25.3587H76.1406L77.4362 18.7595C77.5082 18.3922 77.4109 18.0121 77.1705 17.7236C76.93 17.4348 76.5719 17.2675 76.194 17.2675ZM76.194 18.5204L74.6056 26.6116H80.5242C84.2482 26.6116 86.8169 27.2551 88.2306 28.5405C89.6444 29.8268 90.0679 31.9108 89.5029 34.7917L86.7231 48.9537H79.9739L82.6168 35.4883C82.9176 33.9565 82.8071 32.9116 82.2849 32.3545C81.7624 31.7975 80.6511 31.5185 78.9514 31.5185H73.6415L70.2193 48.9537H63.5756L69.5503 18.5204H76.194Z" fill="white"/>
<path d="M100.636 43.5248C103.181 43.5248 105.08 43.0603 106.282 42.1444C107.471 41.2382 108.293 39.6678 108.723 37.477C109.125 35.4295 108.972 33.9998 108.269 33.2283C107.55 32.4402 105.997 32.0406 103.651 32.0406H99.5849L97.3305 43.5248H100.636ZM87.3356 57.6714C87.1469 57.6714 86.9676 57.5879 86.8476 57.4434C86.7274 57.2991 86.6784 57.1091 86.7145 56.9255L92.6892 26.492C92.7472 26.1978 93.0074 25.9852 93.3105 25.9852H106.187C110.234 25.9852 113.246 27.0731 115.14 29.219C117.043 31.3759 117.631 34.3913 116.887 38.1811C116.584 39.725 116.063 41.1589 115.338 42.4426C114.613 43.7278 113.655 44.9169 112.489 45.9777C111.093 47.2706 109.514 48.2081 107.799 48.7598C106.111 49.3042 103.943 49.5802 101.356 49.5802H96.1418L94.6534 57.1644C94.5954 57.4588 94.3351 57.6714 94.032 57.6714H87.3356Z" fill="black"/>
<path d="M100.107 32.667H103.652C106.482 32.667 107.466 33.282 107.8 33.6484C108.354 34.2569 108.459 35.5398 108.102 37.358C107.702 39.3941 106.96 40.8376 105.897 41.6482C104.808 42.4779 103.038 42.8985 100.636 42.8985H98.0983L100.107 32.667ZM106.187 25.3589H93.3104C92.7047 25.3589 92.184 25.784 92.0684 26.3726L86.0937 56.8061C86.0216 57.1734 86.119 57.5533 86.3592 57.842C86.5997 58.1308 86.9578 58.2979 87.3358 58.2979H94.0322C94.6379 58.2979 95.1589 57.8727 95.2744 57.2841L96.6637 50.2067H101.356C104.01 50.2067 106.244 49.9202 107.996 49.3554C109.797 48.7759 111.455 47.7933 112.922 46.435C114.135 45.3302 115.134 44.0901 115.891 42.7486C116.648 41.4066 117.192 39.9101 117.508 38.3006C118.292 34.3114 117.655 31.1171 115.616 28.8069C113.598 26.519 110.425 25.3589 106.187 25.3589ZM96.5631 44.1513H100.636C103.336 44.1513 105.347 43.6479 106.668 42.6408C107.99 41.6335 108.881 39.9524 109.345 37.5967C109.788 35.3349 109.586 33.7388 108.739 32.809C107.891 31.8792 106.196 31.4142 103.652 31.4142H99.0635L96.5631 44.1513ZM106.187 26.6117C110.061 26.6117 112.887 27.6181 114.663 29.6312C116.44 31.6443 116.974 34.4542 116.266 38.0617C115.974 39.5478 115.481 40.9065 114.786 42.1374C114.091 43.3691 113.183 44.4954 112.061 45.5167C110.724 46.7555 109.238 47.6384 107.604 48.1641C105.969 48.6914 103.887 48.9538 101.356 48.9538H95.6203L94.0322 57.045H87.3358L93.3104 26.6117H106.187Z" fill="white"/>
<defs>
<radialGradient id="paint0_radial_602_4191" cx="0" cy="0" r="1" gradientUnits="userSpaceOnUse" gradientTransform="translate(51.6984 20.3475) scale(76.5728 75.8083)">
<stop stop-color="#AEB2D5"/>
<stop offset="0.3" stop-color="#AEB2D5"/>
<stop offset="0.75" stop-color="#484C89"/>
<stop offset="1" stop-color="#484C89"/>
</radialGradient>
</defs>
</svg>
