<svg width="184" height="86" viewBox="0 0 184 86" fill="none" xmlns="http://www.w3.org/2000/svg">
<g clip-path="url(#clip0_602_4273)">
<path d="M44.1299 42.4997C44.1299 45.9591 41.3156 48.7735 37.8564 48.7735C34.3971 48.7735 31.5828 45.9591 31.5828 42.4997C31.5828 39.0407 34.3971 36.2263 37.8564 36.2263C41.3156 36.2263 44.1299 39.0407 44.1299 42.4997ZM37.8564 21.6436C26.3562 21.6436 17 30.9997 17 42.4997C17 54.0001 26.3562 63.3563 37.8564 63.3563C42.0698 63.3563 46.1322 62.1017 49.6043 59.7287L49.6646 59.6874L46.8548 56.4207L46.8071 56.4516C44.1339 58.1714 41.0388 59.0803 37.8564 59.0803C28.714 59.0803 21.276 51.6423 21.276 42.4997C21.276 33.3573 28.714 25.9195 37.8564 25.9195C46.9987 25.9195 54.4367 33.3573 54.4367 42.4997C54.4367 43.6845 54.3053 44.884 54.0465 46.0641C53.5218 48.2158 52.0155 48.8751 50.8836 48.7877C49.7461 48.6959 48.4147 47.8848 48.4059 45.9005V44.2827V42.4997C48.4059 36.6829 43.6734 31.9503 37.8564 31.9503C32.0393 31.9503 27.3068 36.6829 27.3068 42.4997C27.3068 48.317 32.0393 53.0495 37.8564 53.0495C40.6818 53.0495 43.3326 51.9443 45.3304 49.9352C46.4921 51.7432 48.3865 52.877 50.5412 53.0499C50.726 53.0647 50.9147 53.0724 51.1022 53.0724C52.6193 53.0724 54.1228 52.5652 55.3352 51.6448C56.5856 50.6956 57.5189 49.3226 58.0342 47.674C58.1175 47.4078 58.2683 46.7976 58.2691 46.7936L58.2735 46.7717C58.5773 45.4477 58.7129 44.129 58.7129 42.4997C58.7129 30.9997 49.3565 21.6436 37.8564 21.6436Z" fill="#FF9E00"/>
<path d="M127.37 33.3218H112.702L112.702 33.3295C112.706 34.0995 112.514 42.9703 112.38 45.5232C112.257 47.8751 111.79 48.6858 109.28 48.852C109.204 48.8558 108.901 48.8583 108.631 48.8568L108.612 52.3438C108.672 52.3553 111.479 52.776 113.32 51.6785C115.681 50.2707 116.151 47.7487 116.257 45.7263C116.338 44.1794 116.444 39.971 116.513 37.0626H123.488L123.484 52.3438H127.37V33.3218Z" fill="#005FF9"/>
<path fill-rule="evenodd" clip-rule="evenodd" d="M135.576 39.0959H140.833C144.383 39.0959 147.265 42.1532 147.265 45.7027C147.265 49.2525 144.383 52.3434 140.833 52.3434H135.576V52.3438H131.689V52.3434V39.2137V33.3218H135.576V39.0959ZM140.369 42.8327H138.75C138.702 42.8327 138.653 42.8339 138.606 42.8364H135.542V48.6028H140.369C141.962 48.6028 143.138 47.3101 143.138 45.7178C143.138 44.1256 141.962 42.8329 140.369 42.8327Z" fill="#005FF9"/>
<path fill-rule="evenodd" clip-rule="evenodd" d="M74.1476 37.0624V52.3438H70.2615V33.3218H87.6121V52.3438H83.7259V37.0624H74.1476Z" fill="#005FF9"/>
<path fill-rule="evenodd" clip-rule="evenodd" d="M167.811 48.6936C165.994 51.2004 162.989 52.8318 159.659 52.8318C154.14 52.8318 149.659 48.3512 149.659 42.8324C149.659 37.3136 154.14 32.833 159.659 32.833C162.697 32.833 165.472 34.1908 167.307 36.3317L164.227 38.7114C163.109 37.4865 161.597 36.7177 159.659 36.7177C156.284 36.7177 153.63 39.4576 153.63 42.8324C153.63 46.2074 156.284 48.9473 159.659 48.9473C161.873 48.9473 163.591 47.9288 164.699 46.3688L167.811 48.6936Z" fill="#005FF9"/>
<path d="M110.025 33.3218H105.825L100.077 47.2887L93.8915 33.3218H89.6915L98.0323 52.2452L97.3182 53.9894C96.4131 55.9269 94.9083 56.8478 91.9786 55.2675L90.2961 58.2833C91.199 58.9079 92.9642 59.7964 94.8542 59.7964C98.8549 59.7964 100.73 56.051 101.327 54.4564L110.025 33.3218Z" fill="#005FF9"/>
</g>
<defs>
<clipPath id="clip0_602_4273">
<rect width="151" height="43" fill="white" transform="translate(17 21)"/>
</clipPath>
</defs>
</svg>
