<svg width="150" height="80" viewBox="0 0 150 80" fill="none" xmlns="http://www.w3.org/2000/svg">
<g clip-path="url(#clip0_602_4188)">
<path d="M100.259 28.0677C99.4405 27.8009 98.6149 27.5539 97.7826 27.3267C97.9205 26.7943 98.0481 26.2596 98.1653 25.7226C100.04 17.0808 98.8142 10.119 94.6281 7.82728C90.6146 5.62922 84.0504 7.92104 77.4208 13.3991C76.7675 13.9402 76.129 14.4966 75.5051 15.0684C75.0875 14.6883 74.6626 14.3156 74.2303 13.9503C67.2823 8.09247 60.318 5.62423 56.1363 7.92273C52.1265 10.1268 50.9388 16.6719 52.6267 24.8617C52.7947 25.6727 52.9842 26.4793 53.1954 27.2814C52.21 27.5472 51.2583 27.8304 50.3478 28.1317C42.2022 30.8283 37 35.0548 37 39.4384C37 43.9662 42.5842 48.5076 51.0689 51.2609C51.7569 51.4831 52.4504 51.689 53.1494 51.8785C52.9224 52.7424 52.7209 53.6119 52.545 54.4867C50.9357 62.5342 52.1926 68.9241 56.1918 71.1146C60.3224 73.3762 67.2551 71.0516 74.0059 65.4484C74.5394 65.0054 75.0746 64.537 75.6113 64.0432C76.2868 64.662 76.9801 65.2627 77.6911 65.8451C84.2302 71.188 90.6881 73.3455 94.684 71.1492C98.8109 68.8807 100.152 62.0163 98.4105 53.6645C98.2777 53.0266 98.1239 52.3756 97.9491 51.7116C98.436 51.5751 98.913 51.4337 99.3799 51.2874C108.2 48.5128 113.939 44.0267 113.939 39.4384C113.939 35.0389 108.569 30.784 100.259 28.0677ZM79.5786 15.7536C85.2589 11.0595 90.5676 9.20634 92.9866 10.531C95.5628 11.942 96.5649 17.6315 94.9462 25.0929C94.84 25.5789 94.7247 26.063 94.6002 26.5452C91.2107 25.8158 87.7741 25.3003 84.3129 25.002C82.33 22.297 80.1572 19.722 77.8093 17.2946C78.3855 16.7671 78.9753 16.2535 79.5786 15.7536ZM59.7174 43.1831C60.4132 44.4593 61.1403 45.7194 61.8987 46.9634C62.6723 48.2321 63.4775 49.4827 64.3142 50.7153C61.9327 50.4699 59.566 50.1086 57.2236 49.6328C57.9028 47.5499 58.7398 45.385 59.7174 43.1831ZM59.7137 35.843C58.7565 33.6874 57.9376 31.5681 57.2688 29.5214C59.4641 29.0549 61.8049 28.6737 64.244 28.3843C63.4276 29.5934 62.6414 30.8203 61.8854 32.065C61.1306 33.308 60.4067 34.5674 59.7137 35.843ZM61.4608 39.5134C62.4735 37.5119 63.5643 35.5487 64.7333 33.6238V33.6244C65.9012 31.7004 67.1448 29.8206 68.4639 27.985C70.752 27.8207 73.0982 27.7347 75.4697 27.7347C77.8519 27.7347 80.201 27.8213 82.4885 27.9869C83.7935 29.8183 85.0291 31.6918 86.1956 33.6072C87.3678 35.5265 88.4734 37.4805 89.5124 39.4691C88.4847 41.4769 87.3827 43.4481 86.2065 45.3827H86.2061C85.0406 47.3052 83.8103 49.1901 82.5151 51.0376C80.2323 51.1925 77.8733 51.2723 75.4694 51.2723C73.0753 51.2723 70.7462 51.2015 68.5034 51.0635C67.1752 49.2213 65.9218 47.3334 64.7432 45.3998C63.571 43.4778 62.4768 41.5157 61.4607 39.5134H61.4608ZM89.0535 46.9418C89.8273 45.6674 90.571 44.3771 91.2847 43.0709C92.2625 45.1693 93.1249 47.3144 93.8684 49.4976C91.499 50.0032 89.1033 50.391 86.6913 50.6593C87.5046 49.4352 88.2919 48.196 89.0534 46.9418H89.0535ZM91.2535 35.8453C90.5424 34.5641 89.8047 33.2969 89.0402 32.0437C88.2881 30.81 87.5082 29.5921 86.7006 28.3901C89.1556 28.6843 91.5076 29.0755 93.716 29.5544C93.007 31.6893 92.1851 33.789 91.2534 35.8453H91.2535ZM75.5062 19.5265C77.1065 21.183 78.6176 22.9152 80.0339 24.7165C77.0044 24.5806 73.9732 24.5799 70.9404 24.7146C72.4353 22.8428 73.9664 21.104 75.5062 19.5265ZM57.783 10.6238C60.3572 9.20891 66.0487 11.2264 72.0477 16.2841C72.4311 16.6074 72.8162 16.9459 73.202 17.2961C70.8405 19.723 68.6511 22.2959 66.648 24.9978C63.1948 25.2919 59.7654 25.798 56.3811 26.5129C56.1849 25.7669 56.0086 25.0166 55.8523 24.2619V24.2623C54.4062 17.2451 55.3664 11.9521 57.783 10.6238ZM54.0313 48.8723C53.3935 48.699 52.7604 48.5108 52.132 48.3078C48.8737 47.3344 45.8319 45.8 43.1584 43.7813C42.3925 43.2823 41.7425 42.6394 41.2485 41.8925C40.7546 41.1455 40.4272 40.3103 40.2867 39.4384C40.2867 36.7784 44.4636 33.3851 51.43 31.0788C52.3043 30.7906 53.187 30.5269 54.0781 30.2877C55.1125 33.4384 56.3652 36.5207 57.828 39.5144C56.3468 42.5509 55.0785 45.677 54.0313 48.8723ZM71.843 63.0983C69.3272 65.2922 66.4077 67.0278 63.2303 68.2182H63.23C62.3922 68.5989 61.4812 68.8124 60.5531 68.8456C59.625 68.8787 58.6995 68.7308 57.834 68.4109C55.4069 67.082 54.3984 61.9509 55.7743 55.0689C55.938 54.2556 56.1253 53.4471 56.3363 52.6433C59.7545 53.3405 63.2186 53.8167 66.7046 54.0686C68.725 56.7858 70.9313 59.3741 73.309 61.8167C72.8314 62.2552 72.3427 62.6824 71.843 63.0983ZM75.5971 59.5709C74.0393 57.9746 72.4856 56.2093 70.9679 54.3104C72.4409 54.3654 73.9414 54.393 75.4694 54.3932C77.0377 54.3932 78.5859 54.3605 80.1138 54.2952C78.7042 56.1258 77.1966 57.8867 75.5971 59.5708V59.5709ZM95.556 63.913C95.485 64.7923 95.2249 65.6485 94.7916 66.4285C94.3583 67.2086 93.7612 67.896 93.0371 68.4482C90.6124 69.781 85.4269 68.0486 79.8351 63.4794C79.194 62.9556 78.549 62.3973 77.9004 61.8046C80.232 59.3535 82.3867 56.7556 84.3495 54.0288C87.8557 53.7479 91.3374 53.2383 94.7699 52.5036C94.9266 53.105 95.0654 53.6941 95.1864 54.2709C95.9317 57.4362 96.057 60.7047 95.556 63.913V63.913ZM98.3464 48.3252H98.3461C97.9256 48.4574 97.4938 48.5852 97.0539 48.709C95.978 45.5435 94.6763 42.4513 93.1579 39.4538C94.6189 36.4964 95.8699 33.4495 96.9024 30.3335C97.6893 30.5502 98.4534 30.7782 99.1895 31.019C106.309 33.3459 110.652 36.7871 110.652 39.4383C110.652 42.2626 105.962 45.9291 98.3464 48.3253V48.3252Z" fill="#61DAFB"/>
<path d="M75.4693 32.9146C76.8282 32.9145 78.1566 33.2971 79.2864 34.014C80.4163 34.7308 81.2969 35.7497 81.817 36.9418C82.337 38.1339 82.4731 39.4456 82.208 40.7111C81.9429 41.9766 81.2885 43.1391 80.3277 44.0515C79.3668 44.9639 78.1426 45.5852 76.8098 45.8369C75.4771 46.0886 74.0956 45.9594 72.8402 45.4656C71.5848 44.9719 70.5117 44.1356 69.7568 43.0628C69.0019 41.9899 68.599 40.7286 68.599 39.4383C68.599 37.7081 69.3228 36.0487 70.6113 34.8253C71.8997 33.6019 73.6472 32.9146 75.4693 32.9146Z" fill="#61DAFB"/>
</g>
<defs>
<clipPath id="clip0_602_4188">
<rect width="76.9388" height="65" fill="white" transform="translate(37 7)"/>
</clipPath>
</defs>
</svg>
