<svg width="150" height="80" viewBox="0 0 150 80" fill="none" xmlns="http://www.w3.org/2000/svg">
<g clip-path="url(#clip0_602_4197)">
<path d="M88.5026 53.4127C91.0858 53.1453 93.0455 50.9185 92.9564 48.246C92.8675 45.5738 90.6403 43.4359 87.968 43.4359H87.79C85.0283 43.525 82.8906 45.841 82.9797 48.6023C83.0689 49.9386 83.6032 51.0965 84.4049 51.8982C81.3763 57.8666 76.7443 62.2313 69.7962 65.8835C65.075 68.3777 60.1759 69.2686 55.2767 68.6451C51.2681 68.1106 48.1503 66.3292 46.1903 63.3893C43.34 59.0246 43.0729 54.3033 45.478 49.5823C47.1706 46.1972 49.8427 43.703 51.5352 42.4559C51.1789 41.2979 50.6444 39.3383 50.3772 37.9132C37.4609 47.2663 38.7971 59.9154 42.7166 65.8835C45.6561 70.3377 51.6244 73.099 58.2161 73.099C59.9976 73.099 61.779 72.9208 63.5607 72.4756C74.9628 70.2485 83.6034 63.4785 88.5026 53.4127ZM104.18 42.3671C97.4104 34.439 87.4337 30.0743 76.0317 30.0743H74.6065C73.8048 28.4709 72.1122 27.4018 70.2416 27.4018H70.0634C67.3022 27.4909 65.1644 29.8068 65.2533 32.5685C65.3425 35.2407 67.5693 37.3786 70.2416 37.3786H70.4196C72.3794 37.2895 74.0719 36.0424 74.7845 34.3499H76.388C83.158 34.3499 89.5715 36.3095 95.3618 40.14C99.8155 43.0796 103.022 46.9101 104.804 51.5419C106.318 55.2833 106.229 58.9354 104.626 62.0533C102.132 66.7744 97.945 69.3577 92.4221 69.3577C88.8589 69.3577 85.474 68.2886 83.6923 67.4869C82.7126 68.3777 80.9309 69.8028 79.6837 70.6939C83.5143 72.4753 87.4337 73.4553 91.1749 73.4553C99.7264 73.4553 106.051 68.734 108.456 64.013C111.039 58.8463 110.861 49.9386 104.18 42.3671ZM58.9287 54.9267C59.0178 57.5992 61.2447 59.7369 63.917 59.7369H64.0953C66.8568 59.648 68.9945 57.3318 68.9053 54.5704C68.8165 51.8979 66.5893 49.7603 63.917 49.7603H63.739C63.5607 49.7603 63.2933 49.7603 63.1156 49.8491C59.4633 43.7919 57.949 37.2003 58.4836 30.074C58.8396 24.7293 60.6213 20.0971 63.739 16.2667C66.3222 12.9708 71.3105 11.3674 74.6957 11.2785C84.1377 11.1003 88.146 22.8585 88.4135 27.5798C89.5715 27.8469 91.5312 28.4706 92.8675 28.916C91.7984 14.4856 82.8906 7.00293 74.3394 7.00293C66.3222 7.00293 58.9287 12.793 55.989 21.3445C51.8915 32.7465 54.5638 43.703 59.5521 52.3436C59.107 52.967 58.8396 53.947 58.9287 54.927V54.9267Z" fill="#764ABC"/>
</g>
<defs>
<clipPath id="clip0_602_4197">
<rect width="70" height="66.7218" fill="white" transform="translate(40 7)"/>
</clipPath>
</defs>
</svg>
