<svg width="150" height="80" viewBox="0 0 150 80" fill="none" xmlns="http://www.w3.org/2000/svg">
<g clip-path="url(#clip0_602_4194)">
<path d="M111.053 45.389C107.567 45.407 104.536 46.2332 101.999 47.4546C101.068 45.6405 100.137 44.024 99.9726 42.8385C99.7901 41.4555 99.571 40.6113 99.7901 38.9588C100.009 37.3064 100.995 34.9534 100.977 34.7738C100.958 34.5942 100.758 33.75 98.7496 33.732C96.7415 33.7141 95.0073 34.1092 94.8065 34.6301C94.6057 35.151 94.2224 36.3364 93.9668 37.5578C93.6199 39.354 89.9507 45.7662 87.8514 49.125C87.176 47.8138 86.5918 46.6643 86.4641 45.7483C86.2815 44.3652 86.0625 43.521 86.2815 41.8686C86.5006 40.2161 87.4863 37.8632 87.4681 37.6835C87.4498 37.5039 87.249 36.6597 85.241 36.6418C83.233 36.6238 81.4987 37.019 81.2979 37.5399C81.0971 38.0607 80.8781 39.2821 80.4582 40.4676C80.0384 41.653 75.1643 52.3581 73.8865 55.1242C73.2293 56.5431 72.6634 57.6747 72.2618 58.4471C72.2618 58.4471 72.2435 58.5009 72.1888 58.5907C71.8419 59.2553 71.6411 59.6146 71.6411 59.6146C71.6411 59.6146 71.6411 59.6146 71.6411 59.6325C71.3673 60.1175 71.0752 60.5665 70.9292 60.5665C70.8197 60.5665 70.6189 59.2733 70.9657 57.5131C71.6959 53.795 73.4301 48.0114 73.4118 47.8138C73.4118 47.7061 73.7404 46.7002 72.28 46.1793C70.8562 45.6585 70.345 46.5206 70.2173 46.5206C70.0895 46.5206 69.9982 46.826 69.9982 46.826C69.9982 46.826 71.5864 40.3239 66.9679 40.3239C64.0836 40.3239 60.1041 43.4312 58.1326 46.2332C56.8912 46.8978 54.2443 48.3168 51.4148 49.8435C50.3377 50.4362 49.2242 51.0289 48.1837 51.5858C48.1106 51.5139 48.0376 51.4241 47.9646 51.3523C42.3786 45.4788 32.0464 41.3297 32.4845 33.4446C32.6488 30.5708 33.6528 23.0269 52.3275 13.8666C67.6981 6.41254 79.9288 8.47812 82.0464 13.0583C85.0767 19.5963 75.4929 31.7383 59.6112 33.4985C53.5506 34.1631 50.3742 31.864 49.571 31.0019C48.7313 30.1038 48.6035 30.0499 48.2932 30.2295C47.7821 30.4989 48.1106 31.3072 48.2932 31.7742C48.7678 32.9956 50.7211 35.151 54.0252 36.2107C56.946 37.1447 64.0471 37.6656 72.6451 34.3966C82.2654 30.7324 89.7864 20.5483 87.5776 12.0165C85.3688 3.35908 70.7649 0.503204 56.946 5.33485C48.7313 8.20869 39.823 12.735 33.4155 18.6264C25.8032 25.6314 24.5984 31.7203 25.0913 34.2709C26.862 43.3235 39.5491 49.2148 44.624 53.5795C44.3684 53.7232 44.1311 53.8489 43.9303 53.9567C41.3929 55.196 31.7178 60.1714 29.3082 65.4341C26.5699 71.3973 29.7463 75.6721 31.8456 76.2469C38.3626 78.0251 45.0621 74.828 48.6583 69.5473C52.2545 64.2666 51.8164 57.4053 50.1552 54.262C50.1369 54.2261 50.1187 54.1902 50.0822 54.1543C50.7393 53.7771 51.4148 53.3819 52.0719 53.0047C53.368 52.2503 54.6459 51.5498 55.7412 50.9751C55.1205 52.6455 54.6641 54.6392 54.4451 57.5131C54.1713 60.8898 55.5769 65.2724 57.4206 66.9967C58.2421 67.7511 59.2096 67.7691 59.8303 67.7691C61.9843 67.7691 62.9518 66.0089 64.0289 63.9253C65.3432 61.3748 66.5298 58.4111 66.5298 58.4111C66.5298 58.4111 65.0511 66.422 69.0672 66.422C70.5276 66.422 72.0062 64.554 72.6634 63.602C72.6634 63.62 72.6634 63.62 72.6634 63.62C72.6634 63.62 72.6999 63.5661 72.7729 63.4404C72.919 63.2069 73.0102 63.0632 73.0102 63.0632C73.0102 63.0632 73.0102 63.0452 73.0102 63.0272C73.5944 62.0214 74.9087 59.7403 76.862 55.9504C79.3812 51.0649 81.8091 44.958 81.8091 44.958C81.8091 44.958 82.0281 46.4488 82.7766 48.9275C83.2147 50.3823 84.1274 51.9809 84.8576 53.5256C84.2735 54.3339 83.9084 54.7829 83.9084 54.7829C83.9084 54.7829 83.9084 54.7829 83.9266 54.8009C83.452 55.4116 82.9409 56.0761 82.375 56.7228C80.3852 59.0577 78.0121 61.734 77.6835 62.5064C77.3001 63.4224 77.3914 64.087 78.1216 64.6258C78.651 65.021 79.6002 65.0749 80.5677 65.021C82.3567 64.8952 83.6163 64.4642 84.237 64.1947C85.2045 63.8535 86.3363 63.3326 87.3951 62.5602C89.3483 61.1413 90.5349 59.1116 90.4254 56.4354C90.3706 54.9625 89.8777 53.4897 89.2753 52.1066C89.4578 51.8552 89.6221 51.6037 89.8047 51.3523C92.8898 46.9158 95.2811 42.0482 95.2811 42.0482C95.2811 42.0482 95.5002 43.539 96.2486 46.0177C96.6137 47.275 97.3622 48.6401 98.0194 49.9692C95.1169 52.2863 93.3279 54.9805 92.689 56.7407C91.5389 60.0097 92.4334 61.4826 94.1311 61.8238C94.8978 61.9855 95.9931 61.6262 96.7963 61.285C97.8186 60.9617 99.0234 60.4049 100.173 59.5786C102.127 58.1597 104.007 56.1839 103.897 53.5076C103.843 52.2863 103.514 51.0828 103.058 49.9153C105.522 48.9095 108.698 48.3527 112.751 48.8197C121.44 49.8255 123.156 55.1601 122.828 57.4053C122.499 59.6505 120.674 60.8719 120.071 61.2491C119.469 61.6262 119.268 61.752 119.323 62.0214C119.396 62.4166 119.688 62.3986 120.199 62.3267C120.911 62.201 124.763 60.5126 124.927 56.3815C125.201 51.1008 120.089 45.3352 111.053 45.389ZM44.0216 67.6254C41.1373 70.7148 37.1212 71.8823 35.387 70.8944C33.525 69.8347 34.2552 65.2724 37.7967 62.0034C39.9507 60.0097 42.7255 58.1597 44.5692 57.0281C44.9891 56.7766 45.6097 56.4174 46.3582 55.9684C46.486 55.8965 46.559 55.8606 46.559 55.8606C46.705 55.7708 46.8511 55.681 46.9971 55.5912C48.2932 60.2612 47.0519 64.3744 44.0216 67.6254ZM65.0146 53.5795C64.0106 55.9863 61.9113 62.1471 60.6335 61.8059C59.5382 61.5185 58.8627 56.8485 60.4144 52.2324C61.1994 49.9153 62.8606 47.1493 63.8281 46.0716C65.398 44.3473 67.1322 43.7725 67.552 44.473C68.0814 45.389 65.6353 52.0707 65.0146 53.5795ZM82.3385 61.734C81.9186 61.9496 81.517 62.0932 81.3344 61.9855C81.2067 61.9136 81.517 61.6262 81.517 61.6262C81.517 61.6262 83.6893 59.3272 84.5473 58.2854C85.0402 57.6747 85.6243 56.9562 86.245 56.148C86.245 56.2198 86.245 56.3096 86.245 56.3815C86.245 59.1296 83.5433 60.9796 82.3385 61.734ZM95.701 58.7344C95.3907 58.5189 95.4454 57.8004 96.486 55.5553C96.8876 54.6751 97.8368 53.2023 99.4615 51.7833C99.6441 52.3581 99.7718 52.9149 99.7536 53.4358C99.7353 56.9024 97.2162 58.1956 95.701 58.7344Z" fill="#CD6799"/>
</g>
<defs>
<clipPath id="clip0_602_4194">
<rect width="100" height="73.75" fill="white" transform="translate(25 3)"/>
</clipPath>
</defs>
</svg>
