<svg width="184" height="86" viewBox="0 0 184 86" fill="none" xmlns="http://www.w3.org/2000/svg">
<g clip-path="url(#clip0_602_4265)">
<path d="M92 4C81.6589 4 71.7322 8.11145 64.4258 15.4227C57.1118 22.7369 53.002 32.6564 53 43C53 53.3393 57.1133 63.266 64.4258 70.5773C71.7322 77.8885 81.6589 82 92 82C102.341 82 112.268 77.8885 119.574 70.5773C126.887 63.266 131 53.3393 131 43C131 32.6607 126.887 22.734 119.574 15.4227C112.268 8.11145 102.341 4 92 4Z" fill="url(#paint0_linear_602_4265)"/>
<path d="M70.6532 42.5881C82.0242 37.6351 89.6048 34.3695 93.3951 32.7918C104.23 28.2867 106.478 27.5043 107.947 27.4778C108.27 27.4726 108.989 27.5524 109.458 27.9318C109.848 28.2517 109.958 28.6843 110.013 28.9881C110.062 29.2916 110.129 29.9832 110.074 30.5231C109.489 36.69 106.948 51.655 105.656 58.5623C105.113 61.4849 104.035 62.4647 102.993 62.5604C100.726 62.7688 99.0075 61.0638 96.8137 59.6263C93.3829 57.3758 91.4451 55.9755 88.1118 53.7799C84.2606 51.2425 86.759 49.8476 88.9528 47.5686C89.5256 46.972 99.5072 37.8953 99.6961 37.0721C99.7204 36.9691 99.7448 36.5852 99.5132 36.3829C99.2878 36.1799 98.9526 36.2494 98.7089 36.3043C98.3615 36.3823 92.8832 40.0068 82.2557 47.1773C80.7018 48.2462 79.2942 48.7672 78.0267 48.7398C76.6373 48.7099 73.9561 47.9525 71.9634 47.3053C69.5259 46.5113 67.582 46.0914 67.7526 44.7429C67.8379 44.0409 68.8068 43.3224 70.6532 42.5881Z" fill="white"/>
</g>
<defs>
<linearGradient id="paint0_linear_602_4265" x1="92" y1="4" x2="92" y2="82" gradientUnits="userSpaceOnUse">
<stop stop-color="#2AABEE"/>
<stop offset="1" stop-color="#229ED9"/>
</linearGradient>
<clipPath id="clip0_602_4265">
<rect width="78" height="78" fill="white" transform="translate(53 4)"/>
</clipPath>
</defs>
</svg>
