<svg width="150" height="80" viewBox="0 0 150 80" fill="none" xmlns="http://www.w3.org/2000/svg">
<g clip-path="url(#clip0_602_4196)">
<path d="M40 39.9995V4.99951H110V74.9995H40" fill="#007ACC"/>
<path d="M55.3475 40.1224V42.9749H64.4475V68.8749H70.905V42.9749H80.005V40.1749C80.005 38.5999 80.005 37.3224 79.935 37.2874C79.935 37.2349 74.3875 37.2174 67.65 37.2174L55.4 37.2699V40.1399L55.3475 40.1224ZM96.245 37.1999C98.03 37.6199 99.395 38.4249 100.62 39.7024C101.268 40.4024 102.23 41.6274 102.3 41.9424C102.3 42.0474 99.2725 44.0949 97.435 45.2324C97.365 45.2849 97.085 44.9874 96.805 44.5324C95.895 43.2374 94.9675 42.6774 93.515 42.5724C91.415 42.4324 90.015 43.5349 90.015 45.3724C90.015 45.9324 90.12 46.2474 90.33 46.7024C90.8025 47.6649 91.6775 48.2424 94.39 49.4324C99.395 51.5849 101.565 53.0024 102.878 55.0324C104.365 57.3074 104.698 60.8774 103.7 63.5549C102.58 66.4774 99.85 68.4548 95.9475 69.1023C94.7225 69.3123 91.9225 69.2774 90.61 69.0499C87.81 68.5249 85.1325 67.1249 83.4875 65.3224C82.84 64.6224 81.5975 62.7498 81.6675 62.6273L82.3325 62.2074L84.9575 60.6849L86.935 59.5299L87.39 60.1424C87.9675 61.0524 89.2625 62.2774 90.015 62.6974C92.29 63.8699 95.335 63.7124 96.84 62.3474C97.4875 61.7524 97.7675 61.1224 97.7675 60.2474C97.7675 59.4424 97.645 59.0749 97.2425 58.4624C96.6825 57.6924 95.5625 57.0624 92.4125 55.6624C88.79 54.1224 87.25 53.1424 85.815 51.6374C84.9925 50.7274 84.24 49.3099 83.89 48.1374C83.6275 47.1224 83.54 44.6374 83.785 43.6399C84.5375 40.1399 87.18 37.6899 90.96 36.9899C92.185 36.7449 95.0725 36.8499 96.28 37.1649L96.245 37.1999Z" fill="white"/>
</g>
<defs>
<clipPath id="clip0_602_4196">
<rect width="70" height="70" fill="white" transform="translate(40 5)"/>
</clipPath>
</defs>
</svg>
