<svg width="184" height="86" viewBox="0 0 184 86" fill="none" xmlns="http://www.w3.org/2000/svg">
<path fill-rule="evenodd" clip-rule="evenodd" d="M69.4755 9.21875H115.524C121.189 9.21875 125.781 13.8109 125.781 19.4755V65.5245C125.781 71.1889 121.189 75.7812 115.524 75.7812H69.4755C63.8109 75.7812 59.2188 71.1889 59.2188 65.5245V19.4755C59.2188 13.8109 63.8109 9.21875 69.4755 9.21875Z" fill="#4C75A3"/>
<path fill-rule="evenodd" clip-rule="evenodd" d="M91.9411 55.8144H94.6639C94.6639 55.8144 95.4861 55.7237 95.9066 55.2714C96.293 54.8556 96.2806 54.0754 96.2806 54.0754C96.2806 54.0754 96.2274 50.422 97.9227 49.8839C99.5947 49.3536 101.741 53.4148 104.016 54.9766C105.736 56.158 107.044 55.8994 107.044 55.8994L113.127 55.8144C113.127 55.8144 116.309 55.618 114.8 53.116C114.677 52.9116 113.921 51.2652 110.277 47.8825C106.462 44.342 106.974 44.9148 111.568 38.7907C114.367 35.061 115.485 32.7842 115.136 31.8091C114.803 30.88 112.744 31.1254 112.744 31.1254L105.895 31.1678C105.895 31.1678 105.387 31.0986 105.01 31.3238C104.642 31.5441 104.406 32.0587 104.406 32.0587C104.406 32.0587 103.322 34.9446 101.876 37.3993C98.8263 42.5782 97.6066 42.8523 97.108 42.5302C95.9481 41.7806 96.238 39.5195 96.238 37.9127C96.238 32.8936 96.9993 30.8009 94.7555 30.2592C94.011 30.0796 93.4626 29.9607 91.5584 29.9413C89.1143 29.9164 87.0461 29.9488 85.8749 30.5226C85.0956 30.9042 84.4944 31.7544 84.8608 31.8033C85.3136 31.8636 86.3386 32.08 86.882 32.8195C87.5842 33.7747 87.5596 35.919 87.5596 35.919C87.5596 35.919 87.963 41.8273 86.6177 42.561C85.6946 43.0644 84.428 42.0368 81.7088 37.3382C80.3158 34.9314 79.2637 32.2707 79.2637 32.2707C79.2637 32.2707 79.0611 31.7736 78.6992 31.5075C78.2603 31.1851 77.6471 31.0829 77.6471 31.0829L71.1381 31.1254C71.1381 31.1254 70.1612 31.1527 69.8022 31.5776C69.4828 31.9559 69.7767 32.7372 69.7767 32.7372C69.7767 32.7372 74.8722 44.659 80.6424 50.6669C85.9337 56.1759 91.9411 55.8144 91.9411 55.8144Z" fill="white"/>
</svg>
