<svg width="150" height="80" viewBox="0 0 150 80" fill="none" xmlns="http://www.w3.org/2000/svg">
<path d="M18.9615 18.6128L37.9153 29.3125V50.7168L18.9615 61.4164L0.00756836 50.7168V29.3125L18.9615 18.6128Z" fill="white"/>
<path d="M34.5312 49.9784L19.5885 58.415V51.8456L28.8989 46.7329L34.5312 49.9784V49.9784ZM35.5548 49.0546V31.4141L30.089 34.5668V45.9068L35.5548 49.0546V49.0546ZM3.33318 49.9784L18.2759 58.415V51.8456L8.96058 46.7329L3.33318 49.9784V49.9784ZM2.30957 49.0546V31.4141L7.77535 34.5668V45.9068L2.30957 49.0546ZM2.95116 30.2703L18.2759 21.6187V27.9681L8.45612 33.3595L8.37776 33.4035L2.95116 30.2703V30.2703ZM34.9132 30.2703L19.5885 21.6187V27.9681L29.4083 33.3546L29.4866 33.3986L34.9132 30.2703Z" fill="#8ED6FB"/>
<path d="M18.2759 50.3499L9.08789 45.3055V35.3195L18.2759 40.6131V50.3499ZM19.5884 50.3499L28.7764 45.3104V35.3195L19.5884 40.6131V50.3499ZM9.70989 34.1659L18.9322 29.1069L28.1544 34.1659L18.9322 39.4791L9.70989 34.1659V34.1659Z" fill="#1C78C0"/>
<path d="M57.031 46.7816H61.0715L65.1905 33.0856H61.2527L58.8137 42.8028L56.2131 33.0856H52.8043L50.1792 42.8028L47.7646 33.0856H43.8269L47.9213 46.7816H51.9619L54.5087 38.0077L57.031 46.7816ZM65.401 39.9727C65.401 44.0834 68.2074 47.1237 72.6202 47.1237C76.0338 47.1237 77.8705 45.0806 78.3945 44.1128L76.0045 42.3042C75.6126 42.881 74.5352 43.9808 72.6692 43.9808C70.6464 43.9808 69.1771 42.6708 69.0988 40.8378H78.7618C78.7863 40.5739 78.7863 40.3148 78.7863 40.0509C78.7863 35.5735 76.3718 32.7434 72.1206 32.7434C68.2074 32.7434 65.401 35.8326 65.401 39.9727V39.9727ZM69.2065 38.477C69.3632 36.9079 70.4652 35.7006 72.1745 35.7006C73.8299 35.7006 75.0347 36.8004 75.1131 38.477H69.2065ZM80.1528 46.7816H83.5664V45.369C83.9338 45.8138 85.3002 47.1237 87.6364 47.1237C91.5741 47.1237 94.3559 44.1665 94.3559 39.9482C94.3559 35.7055 91.7847 32.7483 87.847 32.7483C85.4863 32.7483 84.1199 34.0583 83.777 34.5275V27.8457H80.1577V46.7816H80.1528ZM83.6693 39.9727C83.6693 37.4065 85.1924 35.9401 87.1858 35.9401C89.2869 35.9401 90.7023 37.5922 90.7023 39.9727C90.7023 42.4069 89.233 43.927 87.1858 43.927C84.9818 43.927 83.6693 42.1429 83.6693 39.9727ZM95.7665 51.6793H99.3858V45.3641C99.7287 45.8089 101.09 47.1188 103.456 47.1188C107.393 47.1188 109.965 44.1616 109.965 39.9189C109.965 35.7299 107.183 32.7434 103.245 32.7434C100.909 32.7434 99.5426 34.0534 99.1752 34.5226V33.0807H95.7616V51.6793H95.7665ZM99.283 39.8945C99.283 37.7193 100.596 35.9401 102.799 35.9401C104.847 35.9401 106.316 37.4603 106.316 39.8945C106.316 42.2798 104.901 43.927 102.799 43.927C100.806 43.927 99.283 42.4606 99.283 39.8945ZM110.621 42.5388C110.621 45.4178 112.982 47.1237 115.764 47.1237C117.341 47.1237 118.389 46.6545 119.099 45.892L119.334 46.7816H122.537V38.1104C122.537 35.0456 121.224 32.7434 116.817 32.7434C114.715 32.7434 112.644 33.5304 111.41 34.3662L112.776 36.8297C113.8 36.3067 115.058 35.8619 116.425 35.8619C118.026 35.8619 118.918 36.6733 118.918 37.8806V38.7702C118.418 38.4281 117.341 38.0126 115.95 38.0126C112.747 38.0077 110.621 39.8407 110.621 42.5388V42.5388ZM114.24 42.4313C114.24 41.3071 115.21 40.5201 116.601 40.5201C117.992 40.5201 118.991 41.2289 118.991 42.4313C118.991 43.5849 117.992 44.318 116.63 44.318C115.269 44.318 114.24 43.5604 114.24 42.4313ZM131.328 43.927C129.046 43.927 127.42 42.2749 127.42 39.9482C127.42 37.7487 128.865 35.9401 131.201 35.9401C132.749 35.9401 133.802 36.6978 134.404 37.2501L135.428 34.2098C134.536 33.5304 133.116 32.7434 131.098 32.7434C126.925 32.7434 123.801 35.8081 123.801 39.9727C123.801 44.1372 126.847 47.1237 131.123 47.1237C133.116 47.1237 134.615 46.2879 135.398 45.6573L134.429 42.7001C133.821 43.1938 132.719 43.927 131.328 43.927V43.927ZM136.76 46.7816H140.379V39.7087L144.973 46.7816H149.224L144.028 39.2884L148.857 33.0807H144.787L140.379 38.8436V27.8457H136.76V46.7816V46.7816Z" fill="#1A1C1C"/>
</svg>
