<svg width="184" height="86" viewBox="0 0 184 86" fill="none" xmlns="http://www.w3.org/2000/svg">
<g clip-path="url(#clip0_602_4271)">
<path d="M51.8139 42.4852C51.8119 49.7109 53.6925 56.7662 57.2685 62.9849L51.4719 84.2322L73.131 78.5309C79.1216 81.8049 85.8336 83.5205 92.6544 83.5209H92.6723C115.189 83.5209 133.518 65.1266 133.528 42.5176C133.532 31.5619 129.286 21.2599 121.572 13.5092C113.859 5.75922 103.6 1.48889 92.6707 1.48389C70.1513 1.48389 51.8235 19.8772 51.8142 42.4852" fill="url(#paint0_linear_602_4271)"/>
<path d="M50.3553 42.472C50.3529 49.9577 52.301 57.2653 56.0045 63.7067L50 85.7157L72.4357 79.81C78.6174 83.1937 85.5775 84.9777 92.6597 84.9803H92.678C116.003 84.9803 134.99 65.9243 135 42.506C135.004 31.1567 130.605 20.4843 122.615 12.456C114.624 4.42867 103.999 0.00466667 92.678 0C69.3495 0 50.3649 19.0533 50.3556 42.472H50.3553ZM63.7162 62.5973L62.8785 61.2623C59.357 55.641 57.4983 49.145 57.5009 42.4747C57.5086 23.0097 73.288 7.17333 92.6912 7.17333C102.088 7.17733 110.918 10.8547 117.56 17.5267C124.202 24.1993 127.857 33.0693 127.854 42.5033C127.846 61.9683 112.066 77.8067 92.678 77.8067H92.664C86.3511 77.8033 80.1597 76.1013 74.7602 72.885L73.4753 72.12L60.1615 75.6243L63.7162 62.597V62.5973Z" fill="url(#paint1_linear_602_4271)"/>
<path d="M82.1001 24.716C81.3079 22.9483 80.4742 22.9126 79.7208 22.8816C79.1039 22.855 78.3986 22.857 77.6941 22.857C76.9888 22.857 75.843 23.1233 74.8745 24.185C73.9049 25.2476 71.173 27.8156 71.173 33.0386C71.173 38.262 74.9624 43.3096 75.4907 44.0186C76.0196 44.7263 82.8064 55.7876 93.5549 60.043C102.488 63.5793 104.306 62.876 106.244 62.6986C108.184 62.522 112.501 60.1313 113.382 57.6523C114.264 55.1736 114.264 53.049 113.999 52.605C113.735 52.1626 113.03 51.897 111.972 51.3663C110.914 50.8353 105.716 48.267 104.746 47.9126C103.777 47.5586 103.072 47.382 102.367 48.445C101.661 49.5063 99.6364 51.897 99.0191 52.605C98.4025 53.3146 97.7853 53.403 96.7281 52.872C95.6699 52.3393 92.2643 51.2196 88.2238 47.6033C85.0801 44.7893 82.9578 41.3143 82.3408 40.2513C81.7239 39.19 82.2748 38.6146 82.805 38.0856C83.2802 37.61 83.8629 36.846 84.3921 36.2263C84.9194 35.6063 85.0954 35.164 85.448 34.456C85.8009 33.7473 85.6243 33.1273 85.3603 32.5963C85.0954 32.0653 83.0404 26.8153 82.1001 24.7163" fill="white"/>
</g>
<defs>
<linearGradient id="paint0_linear_602_4271" x1="92.4998" y1="84.2322" x2="92.4998" y2="1.48389" gradientUnits="userSpaceOnUse">
<stop stop-color="#1FAF38"/>
<stop offset="1" stop-color="#60D669"/>
</linearGradient>
<linearGradient id="paint1_linear_602_4271" x1="92.5" y1="85.7157" x2="92.5" y2="0" gradientUnits="userSpaceOnUse">
<stop stop-color="#F9F9F9"/>
<stop offset="1" stop-color="white"/>
</linearGradient>
<clipPath id="clip0_602_4271">
<rect width="85" height="86" fill="white" transform="translate(50)"/>
</clipPath>
</defs>
</svg>
