<svg width="184" height="86" viewBox="0 0 184 86" fill="none" xmlns="http://www.w3.org/2000/svg">
<g clip-path="url(#clip0_602_4267)">
<path d="M59 43C59 34.2479 62.4768 25.8542 68.6655 19.6655C74.8542 13.4768 83.2479 10 92 10C100.752 10 109.146 13.4768 115.335 19.6655C121.523 25.8542 125 34.2479 125 43C125 51.7521 121.523 60.1458 115.335 66.3345C109.146 72.5232 100.752 76 92 76C83.2479 76 74.8542 72.5232 68.6655 66.3345C62.4768 60.1458 59 51.7521 59 43V43Z" fill="#1A4A7F"/>
<path fill-rule="evenodd" clip-rule="evenodd" d="M86.6048 75.5546C79.9906 74.4681 73.8656 71.3884 69.0488 66.7271L98.7818 39.4361L81.7868 43.5611C80.6619 43.8376 79.4931 43.8874 78.3487 43.7076C77.2043 43.5277 76.1071 43.1219 75.1212 42.5138C74.1352 41.9056 73.2802 41.1073 72.6059 40.1653C71.9316 39.2233 71.4516 38.1565 71.1938 37.0271C70.6713 34.7289 71.0718 32.3175 72.3092 30.3117C73.5466 28.306 75.522 26.8661 77.8103 26.3021L113.186 17.7056C117.495 21.3132 120.811 25.9614 122.819 31.2094C124.828 36.4575 125.464 42.1316 124.666 47.6941C123.868 53.2565 121.662 58.523 118.259 62.9944C114.855 67.4658 110.366 70.994 105.217 73.2446C105.118 72.0731 105.233 70.8521 105.646 69.6641L111.256 52.9331L86.6048 75.5546Z" fill="url(#paint0_linear_602_4267)"/>
</g>
<defs>
<linearGradient id="paint0_linear_602_4267" x1="139.949" y1="14.1746" x2="26.9738" y2="117.844" gradientUnits="userSpaceOnUse">
<stop stop-color="#FFB800"/>
<stop offset="1" stop-color="#FFF11D"/>
</linearGradient>
<clipPath id="clip0_602_4267">
<rect width="66" height="66" fill="white" transform="translate(59 10)"/>
</clipPath>
</defs>
</svg>
