<svg width="184" height="86" viewBox="0 0 184 86" fill="none" xmlns="http://www.w3.org/2000/svg">
<mask id="mask0_602_4272" style="mask-type:alpha" maskUnits="userSpaceOnUse" x="27" y="30" width="26" height="27">
<path d="M40 56.001C47.1797 56.001 53 50.1807 53 43.001C53 35.8213 47.1797 30.001 40 30.001C32.8203 30.001 27 35.8213 27 43.001C27 50.1807 32.8203 56.001 40 56.001Z" fill="white"/>
</mask>
<g mask="url(#mask0_602_4272)">
<path d="M27 30.002H53V56.002H27V30.002Z" fill="url(#paint0_linear_602_4272)"/>
<path d="M27 46H35V56H27V46Z" fill="url(#paint1_linear_602_4272)"/>
<path d="M35 42.8C35 41.12 35 40.28 35.327 39.638C35.6146 39.0735 36.0735 38.6146 36.638 38.327C37.28 38 38.12 38 39.8 38H45V56H35V42.8Z" fill="url(#paint2_linear_602_4272)"/>
<path d="M45 30H53V56H45V30Z" fill="url(#paint3_linear_602_4272)"/>
</g>
<path d="M66.826 52.444H69.792L73.708 37.952V52.444H76.954V33H72.42L68.476 47.576L64.504 33H60V52.444H62.91V37.951L66.826 52.443V52.444ZM90.523 51.492V48.78C89.488 49.479 87.753 50.094 86.131 50.094C83.697 50.094 82.774 48.947 82.634 46.597H90.664V44.835C90.664 39.939 88.509 38.093 85.18 38.093C81.124 38.093 79.193 41.198 79.193 45.45C79.193 50.346 81.599 52.724 85.852 52.724C87.978 52.724 89.544 52.164 90.524 51.494L90.523 51.492ZM85.124 40.722C86.774 40.722 87.278 42.092 87.278 43.855V44.135H82.634C82.718 41.896 83.529 40.721 85.124 40.721V40.722ZM102.507 41.001V38.371H91.344V41.001H95.261V52.444H98.591V41H102.507V41.001ZM107.555 38.371H104.478V56.5H107.807V50.793C108.647 52.052 109.877 52.723 111.304 52.723C114.549 52.723 116.787 50.121 116.787 45.393C116.787 40.693 114.605 38.092 111.472 38.092C109.905 38.092 108.618 38.819 107.723 40.19L107.555 38.371ZM110.465 50.093C108.702 50.093 107.807 48.667 107.807 45.421C107.807 42.148 108.758 40.721 110.632 40.721C112.451 40.721 113.346 42.148 113.346 45.393C113.346 48.667 112.395 50.093 110.465 50.093ZM119.012 38.371V52.443H121.978L127.069 43.743V52.443H130.287V38.372H127.321L122.23 47.073V38.373H119.012V38.371ZM141.335 52.444H145.112L139.769 44.974L144.469 38.371H141.111L136.411 44.974V38.37H133.082V52.442H136.411V45.644L141.335 52.443V52.444ZM156.469 42.848C156.469 39.434 154.735 38.148 151.21 38.148C149 38.148 147.265 38.847 146.258 39.435V42.205C147.153 41.533 149.112 40.805 150.818 40.805C152.413 40.805 153.14 41.365 153.14 42.875V43.659H152.609C147.517 43.659 145.251 45.337 145.251 48.191C145.251 51.045 146.985 52.639 149.559 52.639C151.518 52.639 152.357 51.996 153 51.324H153.14C153.168 51.688 153.28 52.164 153.392 52.444H156.637C156.525 51.3001 156.469 50.1514 156.469 49.002V42.848ZM153.14 49.086C152.72 49.702 151.937 50.206 150.762 50.206C149.363 50.206 148.664 49.422 148.664 48.219C148.664 46.624 149.811 46.037 152.665 46.037H153.14V49.087V49.086Z" fill="#1B202B"/>
<defs>
<linearGradient id="paint0_linear_602_4272" x1="45.633" y1="48.851" x2="24.183" y2="18.951" gradientUnits="userSpaceOnUse">
<stop stop-color="#4643B9"/>
<stop offset="1" stop-color="#1E8AFF"/>
</linearGradient>
<linearGradient id="paint1_linear_602_4272" x1="35.527" y1="52.54" x2="11.879" y2="48.421" gradientUnits="userSpaceOnUse">
<stop stop-color="#FF002E"/>
<stop offset="1" stop-color="#FFADA1"/>
</linearGradient>
<linearGradient id="paint2_linear_602_4272" x1="96.5" y1="95.5" x2="102.453" y2="46.813" gradientUnits="userSpaceOnUse">
<stop stop-color="#3C3BA0"/>
<stop offset="0.49" stop-color="#1E8AFF"/>
<stop offset="1" stop-color="#00B2FF"/>
</linearGradient>
<linearGradient id="paint3_linear_602_4272" x1="45" y1="31.337" x2="67.642" y2="43.037" gradientUnits="userSpaceOnUse">
<stop stop-color="#FFEA1A"/>
<stop offset="1" stop-color="#FFB800"/>
</linearGradient>
</defs>
</svg>
